{"accessors":[{"bufferView":0,"componentType":5126,"count":100,"min":[0.041666666666666667],"max":[4.166666666666667],"type":"SCALAR"},{"bufferView":1,"componentType":5126,"count":100,"type":"VEC4"},{"bufferView":2,"componentType":5126,"count":100,"type":"VEC4"},{"bufferView":3,"componentType":5126,"count":100,"type":"VEC4"},{"bufferView":4,"componentType":5126,"count":100,"type":"VEC4"},{"bufferView":5,"componentType":5126,"count":100,"type":"VEC4"},{"bufferView":6,"componentType":5126,"count":100,"type":"VEC4"},{"bufferView":7,"componentType":5126,"count":100,"type":"VEC4"},{"bufferView":8,"componentType":5126,"count":100,"type":"VEC4"},{"bufferView":9,"componentType":5126,"count":100,"type":"VEC4"},{"bufferView":10,"componentType":5126,"count":100,"type":"VEC4"},{"bufferView":11,"componentType":5126,"count":100,"type":"VEC4"},{"bufferView":12,"componentType":5126,"count":100,"type":"VEC4"},{"bufferView":13,"componentType":5126,"count":100,"type":"VEC4"},{"bufferView":14,"componentType":5126,"count":100,"type":"VEC4"},{"bufferView":15,"componentType":5126,"count":272,"min":[5.6007866859436039,1.3146175146102906,-3.433185577392578],"max":[6.550796031951904,1.5199633836746216,3.433185577392578],"type":"VEC3","name":"Cube.035_vertices#0_POSITION"},{"bufferView":15,"byteOffset":12,"componentType":5120,"count":272,"type":"VEC4","name":"Cube.035_vertices#0_TANGENT"},{"bufferView":15,"byteOffset":16,"componentType":5120,"count":272,"type":"VEC4","name":"Cube.035_vertices#0_NORMAL"},{"bufferView":15,"byteOffset":20,"componentType":5122,"count":272,"type":"VEC2","name":"Cube.035_vertices#0_TEXCOORD_0"},{"bufferView":15,"byteOffset":24,"componentType":5122,"count":272,"type":"VEC2","name":"Cube.035_vertices#0_TEXCOORD_1"},{"bufferView":15,"byteOffset":28,"componentType":5123,"count":272,"type":"VEC4","name":"Cube.035_vertices#0_COLOR_0"},{"bufferView":16,"componentType":5123,"count":1044,"type":"SCALAR","name":"Cube.035_indices#0"},{"bufferView":15,"byteOffset":9792,"componentType":5126,"count":468,"min":[-2.2956295013427736,-1.2209205627441407,-3.137439012527466],"max":[-0.6237793564796448,1.2008421421051026,3.137439012527466],"type":"VEC3","name":"Cube.036_vertices#0_POSITION"},{"bufferView":15,"byteOffset":9804,"componentType":5120,"count":468,"type":"VEC4","name":"Cube.036_vertices#0_TANGENT"},{"bufferView":15,"byteOffset":9808,"componentType":5120,"count":468,"type":"VEC4","name":"Cube.036_vertices#0_NORMAL"},{"bufferView":15,"byteOffset":9812,"componentType":5122,"count":468,"type":"VEC2","name":"Cube.036_vertices#0_TEXCOORD_0"},{"bufferView":15,"byteOffset":9816,"componentType":5122,"count":468,"type":"VEC2","name":"Cube.036_vertices#0_TEXCOORD_1"},{"bufferView":15,"byteOffset":9820,"componentType":5123,"count":468,"type":"VEC4","name":"Cube.036_vertices#0_COLOR_0"},{"bufferView":16,"byteOffset":2088,"componentType":5123,"count":1836,"type":"SCALAR","name":"Cube.036_indices#0"},{"bufferView":15,"byteOffset":26640,"componentType":5126,"count":140,"min":[4.282546043395996,0.6099709272384644,-0.12633074820041657],"max":[7.492700099945068,4.530035972595215,0.12633071839809419],"type":"VEC3","name":"Cube.037_vertices#0_POSITION"},{"bufferView":15,"byteOffset":26652,"componentType":5120,"count":140,"type":"VEC4","name":"Cube.037_vertices#0_TANGENT"},{"bufferView":15,"byteOffset":26656,"componentType":5120,"count":140,"type":"VEC4","name":"Cube.037_vertices#0_NORMAL"},{"bufferView":15,"byteOffset":26660,"componentType":5122,"count":140,"type":"VEC2","name":"Cube.037_vertices#0_TEXCOORD_0"},{"bufferView":15,"byteOffset":26664,"componentType":5122,"count":140,"type":"VEC2","name":"Cube.037_vertices#0_TEXCOORD_1"},{"bufferView":15,"byteOffset":26668,"componentType":5123,"count":140,"type":"VEC4","name":"Cube.037_vertices#0_COLOR_0"},{"bufferView":16,"byteOffset":5760,"componentType":5123,"count":456,"type":"SCALAR","name":"Cube.037_indices#0"},{"bufferView":15,"byteOffset":31680,"componentType":5126,"count":3136,"min":[-4.2248358726501469,0.553471028804779,-0.9497793316841126],"max":[1.052633285522461,0.9115405082702637,0.9497793316841126],"type":"VEC3","name":"Cube.038_vertices#0_POSITION"},{"bufferView":15,"byteOffset":31692,"componentType":5120,"count":3136,"type":"VEC4","name":"Cube.038_vertices#0_TANGENT"},{"bufferView":15,"byteOffset":31696,"componentType":5120,"count":3136,"type":"VEC4","name":"Cube.038_vertices#0_NORMAL"},{"bufferView":15,"byteOffset":31700,"componentType":5122,"count":3136,"type":"VEC2","name":"Cube.038_vertices#0_TEXCOORD_0"},{"bufferView":15,"byteOffset":31704,"componentType":5122,"count":3136,"type":"VEC2","name":"Cube.038_vertices#0_TEXCOORD_1"},{"bufferView":15,"byteOffset":31708,"componentType":5123,"count":3136,"type":"VEC4","name":"Cube.038_vertices#0_COLOR_0"},{"bufferView":16,"byteOffset":6672,"componentType":5123,"count":8544,"type":"SCALAR","name":"Cube.038_indices#1"},{"bufferView":15,"byteOffset":144576,"componentType":5126,"count":1580,"min":[-4.141694068908691,0.5676783919334412,-3.405465841293335],"max":[-1.4613276720046998,1.7432587146759034,3.405465841293335],"type":"VEC3","name":"Cylinder.018_vertices#0_POSITION"},{"bufferView":15,"byteOffset":144588,"componentType":5120,"count":1580,"type":"VEC4","name":"Cylinder.018_vertices#0_TANGENT"},{"bufferView":15,"byteOffset":144592,"componentType":5120,"count":1580,"type":"VEC4","name":"Cylinder.018_vertices#0_NORMAL"},{"bufferView":15,"byteOffset":144596,"componentType":5122,"count":1580,"type":"VEC2","name":"Cylinder.018_vertices#0_TEXCOORD_0"},{"bufferView":15,"byteOffset":144600,"componentType":5122,"count":1580,"type":"VEC2","name":"Cylinder.018_vertices#0_TEXCOORD_1"},{"bufferView":15,"byteOffset":144604,"componentType":5123,"count":1580,"type":"VEC4","name":"Cylinder.018_vertices#0_COLOR_0"},{"bufferView":16,"byteOffset":23760,"componentType":5123,"count":7212,"type":"SCALAR","name":"Cylinder.018_indices#0"},{"bufferView":15,"byteOffset":201456,"componentType":5126,"count":42,"min":[-0.038335688412189487,-0.09291914850473404,-2.4469523429870607],"max":[0.48778000473976138,0.09273665398359299,2.4410574436187746],"type":"VEC3","name":"Cube.039_vertices#0_POSITION"},{"bufferView":15,"byteOffset":201468,"componentType":5120,"count":42,"type":"VEC4","name":"Cube.039_vertices#0_TANGENT"},{"bufferView":15,"byteOffset":201472,"componentType":5120,"count":42,"type":"VEC4","name":"Cube.039_vertices#0_NORMAL"},{"bufferView":15,"byteOffset":201476,"componentType":5122,"count":42,"type":"VEC2","name":"Cube.039_vertices#0_TEXCOORD_0"},{"bufferView":15,"byteOffset":201480,"componentType":5122,"count":42,"type":"VEC2","name":"Cube.039_vertices#0_TEXCOORD_1"},{"bufferView":15,"byteOffset":201484,"componentType":5123,"count":42,"type":"VEC4","name":"Cube.039_vertices#0_COLOR_0"},{"bufferView":16,"byteOffset":38184,"componentType":5123,"count":72,"type":"SCALAR","name":"Cube.039_indices#0"},{"bufferView":15,"byteOffset":202968,"componentType":5126,"count":3409,"min":[-8.265656471252442,-0.6943097710609436,-9.912969589233399],"max":[7.73410177230835,1.958890676498413,9.912969589233399],"type":"VEC3","name":"Cube.048_vertices#0_POSITION"},{"bufferView":15,"byteOffset":202980,"componentType":5120,"count":3409,"type":"VEC4","name":"Cube.048_vertices#0_TANGENT"},{"bufferView":15,"byteOffset":202984,"componentType":5120,"count":3409,"type":"VEC4","name":"Cube.048_vertices#0_NORMAL"},{"bufferView":15,"byteOffset":202988,"componentType":5122,"count":3409,"type":"VEC2","name":"Cube.048_vertices#0_TEXCOORD_0"},{"bufferView":15,"byteOffset":202992,"componentType":5122,"count":3409,"type":"VEC2","name":"Cube.048_vertices#0_TEXCOORD_1"},{"bufferView":15,"byteOffset":202996,"componentType":5123,"count":3409,"type":"VEC4","name":"Cube.048_vertices#0_COLOR_0"},{"bufferView":16,"byteOffset":38328,"componentType":5123,"count":13446,"type":"SCALAR","name":"Cube.048_indices#0"},{"bufferView":15,"byteOffset":325692,"componentType":5126,"count":36,"min":[-0.03833562508225441,-0.09638319164514542,-1.7316372394561768],"max":[0.48778006434440615,0.09638135880231857,1.7316765785217286],"type":"VEC3","name":"Cube.003_vertices#0_POSITION"},{"bufferView":15,"byteOffset":325704,"componentType":5120,"count":36,"type":"VEC4","name":"Cube.003_vertices#0_TANGENT"},{"bufferView":15,"byteOffset":325708,"componentType":5120,"count":36,"type":"VEC4","name":"Cube.003_vertices#0_NORMAL"},{"bufferView":15,"byteOffset":325712,"componentType":5122,"count":36,"type":"VEC2","name":"Cube.003_vertices#0_TEXCOORD_0"},{"bufferView":15,"byteOffset":325716,"componentType":5122,"count":36,"type":"VEC2","name":"Cube.003_vertices#0_TEXCOORD_1"},{"bufferView":15,"byteOffset":325720,"componentType":5123,"count":36,"type":"VEC4","name":"Cube.003_vertices#0_COLOR_0"},{"bufferView":16,"byteOffset":65220,"componentType":5123,"count":60,"type":"SCALAR","name":"Cube.003_indices#0"},{"bufferView":15,"byteOffset":326988,"componentType":5126,"count":36,"min":[-0.03833575174212456,-0.091215118765831,-1.7312146425247193],"max":[0.4877799451351166,0.09121713787317276,1.7311753034591675],"type":"VEC3","name":"Cube.007_vertices#0_POSITION"},{"bufferView":15,"byteOffset":327000,"componentType":5120,"count":36,"type":"VEC4","name":"Cube.007_vertices#0_TANGENT"},{"bufferView":15,"byteOffset":327004,"componentType":5120,"count":36,"type":"VEC4","name":"Cube.007_vertices#0_NORMAL"},{"bufferView":15,"byteOffset":327008,"componentType":5122,"count":36,"type":"VEC2","name":"Cube.007_vertices#0_TEXCOORD_0"},{"bufferView":15,"byteOffset":327012,"componentType":5122,"count":36,"type":"VEC2","name":"Cube.007_vertices#0_TEXCOORD_1"},{"bufferView":15,"byteOffset":327016,"componentType":5123,"count":36,"type":"VEC4","name":"Cube.007_vertices#0_COLOR_0"},{"bufferView":16,"byteOffset":65340,"componentType":5123,"count":60,"type":"SCALAR","name":"Cube.007_indices#0"},{"bufferView":15,"byteOffset":328284,"componentType":5126,"count":36,"min":[-0.03833575174212456,-0.09695545583963394,-2.4326889514923097],"max":[0.4877799451351166,0.09676604717969895,2.4383392333984377],"type":"VEC3","name":"Cube.010_vertices#0_POSITION"},{"bufferView":15,"byteOffset":328296,"componentType":5120,"count":36,"type":"VEC4","name":"Cube.010_vertices#0_TANGENT"},{"bufferView":15,"byteOffset":328300,"componentType":5120,"count":36,"type":"VEC4","name":"Cube.010_vertices#0_NORMAL"},{"bufferView":15,"byteOffset":328304,"componentType":5122,"count":36,"type":"VEC2","name":"Cube.010_vertices#0_TEXCOORD_0"},{"bufferView":15,"byteOffset":328308,"componentType":5122,"count":36,"type":"VEC2","name":"Cube.010_vertices#0_TEXCOORD_1"},{"bufferView":15,"byteOffset":328312,"componentType":5123,"count":36,"type":"VEC4","name":"Cube.010_vertices#0_COLOR_0"},{"bufferView":16,"byteOffset":65460,"componentType":5123,"count":60,"type":"SCALAR","name":"Cube.010_indices#0"},{"bufferView":15,"byteOffset":329580,"componentType":5126,"count":248,"min":[-0.26625001430511477,-0.09650152176618576,-3.433185577392578],"max":[0.9143626093864441,0.09942226111888886,3.433185577392578],"type":"VEC3","name":"Cube.011_vertices#0_POSITION"},{"bufferView":15,"byteOffset":329592,"componentType":5120,"count":248,"type":"VEC4","name":"Cube.011_vertices#0_TANGENT"},{"bufferView":15,"byteOffset":329596,"componentType":5120,"count":248,"type":"VEC4","name":"Cube.011_vertices#0_NORMAL"},{"bufferView":15,"byteOffset":329600,"componentType":5122,"count":248,"type":"VEC2","name":"Cube.011_vertices#0_TEXCOORD_0"},{"bufferView":15,"byteOffset":329604,"componentType":5122,"count":248,"type":"VEC2","name":"Cube.011_vertices#0_TEXCOORD_1"},{"bufferView":15,"byteOffset":329608,"componentType":5123,"count":248,"type":"VEC4","name":"Cube.011_vertices#0_COLOR_0"},{"bufferView":16,"byteOffset":65580,"componentType":5123,"count":876,"type":"SCALAR","name":"Cube.011_indices#0"},{"bufferView":15,"byteOffset":338508,"componentType":5126,"count":112,"min":[-0.5963485836982727,-2.6625442504882814,-0.06143231317400932],"max":[0.9581005573272705,1.3193765878677369,0.06143229827284813],"type":"VEC3","name":"Cube.012_vertices#0_POSITION"},{"bufferView":15,"byteOffset":338520,"componentType":5120,"count":112,"type":"VEC4","name":"Cube.012_vertices#0_TANGENT"},{"bufferView":15,"byteOffset":338524,"componentType":5120,"count":112,"type":"VEC4","name":"Cube.012_vertices#0_NORMAL"},{"bufferView":15,"byteOffset":338528,"componentType":5122,"count":112,"type":"VEC2","name":"Cube.012_vertices#0_TEXCOORD_0"},{"bufferView":15,"byteOffset":338532,"componentType":5122,"count":112,"type":"VEC2","name":"Cube.012_vertices#0_TEXCOORD_1"},{"bufferView":15,"byteOffset":338536,"componentType":5123,"count":112,"type":"VEC4","name":"Cube.012_vertices#0_COLOR_0"},{"bufferView":16,"byteOffset":67332,"componentType":5123,"count":264,"type":"SCALAR","name":"Cube.012_indices#0"},{"bufferView":15,"byteOffset":342540,"componentType":5126,"count":472,"min":[-0.44244006276130679,-0.17622700333595277,-0.4313443601131439],"max":[0.442434161901474,0.17324848473072053,0.43134424090385439],"type":"VEC3","name":"Torus.005_vertices#0_POSITION"},{"bufferView":15,"byteOffset":342552,"componentType":5120,"count":472,"type":"VEC4","name":"Torus.005_vertices#0_TANGENT"},{"bufferView":15,"byteOffset":342556,"componentType":5120,"count":472,"type":"VEC4","name":"Torus.005_vertices#0_NORMAL"},{"bufferView":15,"byteOffset":342560,"componentType":5122,"count":472,"type":"VEC2","name":"Torus.005_vertices#0_TEXCOORD_0"},{"bufferView":15,"byteOffset":342564,"componentType":5122,"count":472,"type":"VEC2","name":"Torus.005_vertices#0_TEXCOORD_1"},{"bufferView":15,"byteOffset":342568,"componentType":5123,"count":472,"type":"VEC4","name":"Torus.005_vertices#0_COLOR_0"},{"bufferView":16,"byteOffset":67860,"componentType":5123,"count":1500,"type":"SCALAR","name":"Torus.005_indices#1"},{"bufferView":15,"byteOffset":359532,"componentType":5126,"count":472,"min":[-0.44244322180747988,-0.1732473075389862,-0.43134430050849917],"max":[0.4424310028553009,0.17622818052768708,0.431344211101532],"type":"VEC3","name":"Torus.002_vertices#0_POSITION"},{"bufferView":15,"byteOffset":359544,"componentType":5120,"count":472,"type":"VEC4","name":"Torus.002_vertices#0_TANGENT"},{"bufferView":15,"byteOffset":359548,"componentType":5120,"count":472,"type":"VEC4","name":"Torus.002_vertices#0_NORMAL"},{"bufferView":15,"byteOffset":359552,"componentType":5122,"count":472,"type":"VEC2","name":"Torus.002_vertices#0_TEXCOORD_0"},{"bufferView":15,"byteOffset":359556,"componentType":5122,"count":472,"type":"VEC2","name":"Torus.002_vertices#0_TEXCOORD_1"},{"bufferView":15,"byteOffset":359560,"componentType":5123,"count":472,"type":"VEC4","name":"Torus.002_vertices#0_COLOR_0"},{"bufferView":16,"byteOffset":70860,"componentType":5123,"count":1500,"type":"SCALAR","name":"Torus.002_indices#1"},{"bufferView":15,"byteOffset":376524,"componentType":5126,"count":743,"min":[-0.22399666905403138,-0.36967915296554568,-0.21094942092895509],"max":[0.08896028250455857,0.3042053282260895,0.21094942092895509],"type":"VEC3","name":"Cube.001_vertices#0_POSITION"},{"bufferView":15,"byteOffset":376536,"componentType":5120,"count":743,"type":"VEC4","name":"Cube.001_vertices#0_TANGENT"},{"bufferView":15,"byteOffset":376540,"componentType":5120,"count":743,"type":"VEC4","name":"Cube.001_vertices#0_NORMAL"},{"bufferView":15,"byteOffset":376544,"componentType":5122,"count":743,"type":"VEC2","name":"Cube.001_vertices#0_TEXCOORD_0"},{"bufferView":15,"byteOffset":376548,"componentType":5122,"count":743,"type":"VEC2","name":"Cube.001_vertices#0_TEXCOORD_1"},{"bufferView":15,"byteOffset":376552,"componentType":5123,"count":743,"type":"VEC4","name":"Cube.001_vertices#0_COLOR_0"},{"bufferView":16,"byteOffset":73860,"componentType":5123,"count":1824,"type":"SCALAR","name":"Cube.001_indices#0"},{"bufferView":15,"byteOffset":403272,"componentType":5126,"count":205,"min":[-11.892946243286133,-1.0128711462020875,-0.3006466031074524],"max":[-11.774677276611329,-0.877403199672699,-0.15505971014499665],"type":"VEC3","name":"Cube.013_vertices#0_POSITION"},{"bufferView":15,"byteOffset":403284,"componentType":5120,"count":205,"type":"VEC4","name":"Cube.013_vertices#0_TANGENT"},{"bufferView":15,"byteOffset":403288,"componentType":5120,"count":205,"type":"VEC4","name":"Cube.013_vertices#0_NORMAL"},{"bufferView":15,"byteOffset":403292,"componentType":5122,"count":205,"type":"VEC2","name":"Cube.013_vertices#0_TEXCOORD_0"},{"bufferView":15,"byteOffset":403296,"componentType":5122,"count":205,"type":"VEC2","name":"Cube.013_vertices#0_TEXCOORD_1"},{"bufferView":15,"byteOffset":403300,"componentType":5123,"count":205,"type":"VEC4","name":"Cube.013_vertices#0_COLOR_0"},{"bufferView":16,"byteOffset":77508,"componentType":5123,"count":528,"type":"SCALAR","name":"Cube.013_indices#1"},{"bufferView":15,"byteOffset":410652,"componentType":5126,"count":564,"min":[-0.34738707542419436,-0.16886232793331147,-0.3386773467063904],"max":[0.3473871648311615,0.16886232793331147,0.3386773467063904],"type":"VEC3","name":"Torus.003_vertices#0_POSITION"},{"bufferView":15,"byteOffset":410664,"componentType":5120,"count":564,"type":"VEC4","name":"Torus.003_vertices#0_TANGENT"},{"bufferView":15,"byteOffset":410668,"componentType":5120,"count":564,"type":"VEC4","name":"Torus.003_vertices#0_NORMAL"},{"bufferView":15,"byteOffset":410672,"componentType":5122,"count":564,"type":"VEC2","name":"Torus.003_vertices#0_TEXCOORD_0"},{"bufferView":15,"byteOffset":410676,"componentType":5122,"count":564,"type":"VEC2","name":"Torus.003_vertices#0_TEXCOORD_1"},{"bufferView":15,"byteOffset":410680,"componentType":5123,"count":564,"type":"VEC4","name":"Torus.003_vertices#0_COLOR_0"},{"bufferView":16,"byteOffset":78564,"componentType":5123,"count":1836,"type":"SCALAR","name":"Torus.003_indices#1"},{"bufferView":15,"byteOffset":430956,"componentType":5126,"count":32,"min":[-4.148824214935303,-0.04549704119563103,-0.05138501152396202],"max":[-3.7968270778656008,0.32737860083580019,0.05138363689184189],"type":"VEC3","name":"Cube.034_vertices#0_POSITION"},{"bufferView":15,"byteOffset":430968,"componentType":5120,"count":32,"type":"VEC4","name":"Cube.034_vertices#0_TANGENT"},{"bufferView":15,"byteOffset":430972,"componentType":5120,"count":32,"type":"VEC4","name":"Cube.034_vertices#0_NORMAL"},{"bufferView":15,"byteOffset":430976,"componentType":5122,"count":32,"type":"VEC2","name":"Cube.034_vertices#0_TEXCOORD_0"},{"bufferView":15,"byteOffset":430980,"componentType":5122,"count":32,"type":"VEC2","name":"Cube.034_vertices#0_TEXCOORD_1"},{"bufferView":15,"byteOffset":430984,"componentType":5123,"count":32,"type":"VEC4","name":"Cube.034_vertices#0_COLOR_0"},{"bufferView":16,"byteOffset":82236,"componentType":5123,"count":96,"type":"SCALAR","name":"Cube.034_indices#0"},{"bufferView":15,"byteOffset":432108,"componentType":5126,"count":28,"min":[-10.037972450256348,-3.2200918197631838,-0.45099937915802],"max":[-9.624356269836426,-2.8435680866241457,-0.3482306897640228],"type":"VEC3","name":"Cube.040_vertices#0_POSITION"},{"bufferView":15,"byteOffset":432120,"componentType":5120,"count":28,"type":"VEC4","name":"Cube.040_vertices#0_TANGENT"},{"bufferView":15,"byteOffset":432124,"componentType":5120,"count":28,"type":"VEC4","name":"Cube.040_vertices#0_NORMAL"},{"bufferView":15,"byteOffset":432128,"componentType":5122,"count":28,"type":"VEC2","name":"Cube.040_vertices#0_TEXCOORD_0"},{"bufferView":15,"byteOffset":432132,"componentType":5122,"count":28,"type":"VEC2","name":"Cube.040_vertices#0_TEXCOORD_1"},{"bufferView":15,"byteOffset":432136,"componentType":5123,"count":28,"type":"VEC4","name":"Cube.040_vertices#0_COLOR_0"},{"bufferView":16,"byteOffset":82428,"componentType":5123,"count":96,"type":"SCALAR","name":"Cube.040_indices#0"},{"bufferView":15,"byteOffset":433116,"componentType":5126,"count":24,"min":[-6.85125207901001,-2.7236530780792238,-0.05138540640473366],"max":[-6.437636375427246,-2.3471293449401857,0.05138327181339264],"type":"VEC3","name":"Cube.042_vertices#0_POSITION"},{"bufferView":15,"byteOffset":433128,"componentType":5120,"count":24,"type":"VEC4","name":"Cube.042_vertices#0_TANGENT"},{"bufferView":15,"byteOffset":433132,"componentType":5120,"count":24,"type":"VEC4","name":"Cube.042_vertices#0_NORMAL"},{"bufferView":15,"byteOffset":433136,"componentType":5122,"count":24,"type":"VEC2","name":"Cube.042_vertices#0_TEXCOORD_0"},{"bufferView":15,"byteOffset":433140,"componentType":5122,"count":24,"type":"VEC2","name":"Cube.042_vertices#0_TEXCOORD_1"},{"bufferView":15,"byteOffset":433144,"componentType":5123,"count":24,"type":"VEC4","name":"Cube.042_vertices#0_COLOR_0"},{"bufferView":16,"byteOffset":82620,"componentType":5123,"count":96,"type":"SCALAR","name":"Cube.042_indices#0"},{"bufferView":15,"byteOffset":433980,"componentType":5126,"count":43,"min":[-4.9664387702941898,-2.460686206817627,-0.023264368996024133],"max":[-4.673071384429932,-2.028315782546997,0.023262793198227884],"type":"VEC3","name":"Cube.045_vertices#0_POSITION"},{"bufferView":15,"byteOffset":433992,"componentType":5120,"count":43,"type":"VEC4","name":"Cube.045_vertices#0_TANGENT"},{"bufferView":15,"byteOffset":433996,"componentType":5120,"count":43,"type":"VEC4","name":"Cube.045_vertices#0_NORMAL"},{"bufferView":15,"byteOffset":434000,"componentType":5122,"count":43,"type":"VEC2","name":"Cube.045_vertices#0_TEXCOORD_0"},{"bufferView":15,"byteOffset":434004,"componentType":5122,"count":43,"type":"VEC2","name":"Cube.045_vertices#0_TEXCOORD_1"},{"bufferView":15,"byteOffset":434008,"componentType":5123,"count":43,"type":"VEC4","name":"Cube.045_vertices#0_COLOR_0"},{"bufferView":16,"byteOffset":82812,"componentType":5123,"count":102,"type":"SCALAR","name":"Cube.045_indices#0"},{"bufferView":15,"byteOffset":435528,"componentType":5126,"count":28,"min":[-2.802924633026123,-1.9633063077926636,-0.02326403371989727],"max":[-2.4922354221343996,-1.538053035736084,0.023263128474354745],"type":"VEC3","name":"Cube.043_vertices#0_POSITION"},{"bufferView":15,"byteOffset":435540,"componentType":5120,"count":28,"type":"VEC4","name":"Cube.043_vertices#0_TANGENT"},{"bufferView":15,"byteOffset":435544,"componentType":5120,"count":28,"type":"VEC4","name":"Cube.043_vertices#0_NORMAL"},{"bufferView":15,"byteOffset":435548,"componentType":5122,"count":28,"type":"VEC2","name":"Cube.043_vertices#0_TEXCOORD_0"},{"bufferView":15,"byteOffset":435552,"componentType":5122,"count":28,"type":"VEC2","name":"Cube.043_vertices#0_TEXCOORD_1"},{"bufferView":15,"byteOffset":435556,"componentType":5123,"count":28,"type":"VEC4","name":"Cube.043_vertices#0_COLOR_0"},{"bufferView":16,"byteOffset":83016,"componentType":5123,"count":96,"type":"SCALAR","name":"Cube.043_indices#0"},{"bufferView":15,"byteOffset":436536,"componentType":5126,"count":56,"min":[-9.433392524719239,-2.8429532051086427,0.058008670806884769],"max":[-9.075836181640625,-2.746898889541626,0.3255944848060608],"type":"VEC3","name":"Cube.041_vertices#0_POSITION"},{"bufferView":15,"byteOffset":436548,"componentType":5120,"count":56,"type":"VEC4","name":"Cube.041_vertices#0_TANGENT"},{"bufferView":15,"byteOffset":436552,"componentType":5120,"count":56,"type":"VEC4","name":"Cube.041_vertices#0_NORMAL"},{"bufferView":15,"byteOffset":436556,"componentType":5122,"count":56,"type":"VEC2","name":"Cube.041_vertices#0_TEXCOORD_0"},{"bufferView":15,"byteOffset":436560,"componentType":5122,"count":56,"type":"VEC2","name":"Cube.041_vertices#0_TEXCOORD_1"},{"bufferView":15,"byteOffset":436564,"componentType":5123,"count":56,"type":"VEC4","name":"Cube.041_vertices#0_COLOR_0"},{"bufferView":16,"byteOffset":83208,"componentType":5123,"count":180,"type":"SCALAR","name":"Cube.041_indices#0"},{"bufferView":15,"byteOffset":438552,"componentType":5126,"count":116,"min":[-11.82570743560791,-1.6451568603515626,-0.9003267884254456],"max":[-11.46976089477539,-1.4136847257614136,0.900323212146759],"type":"VEC3","name":"Cube.015_vertices#0_POSITION"},{"bufferView":15,"byteOffset":438564,"componentType":5120,"count":116,"type":"VEC4","name":"Cube.015_vertices#0_TANGENT"},{"bufferView":15,"byteOffset":438568,"componentType":5120,"count":116,"type":"VEC4","name":"Cube.015_vertices#0_NORMAL"},{"bufferView":15,"byteOffset":438572,"componentType":5122,"count":116,"type":"VEC2","name":"Cube.015_vertices#0_TEXCOORD_0"},{"bufferView":15,"byteOffset":438576,"componentType":5122,"count":116,"type":"VEC2","name":"Cube.015_vertices#0_TEXCOORD_1"},{"bufferView":15,"byteOffset":438580,"componentType":5123,"count":116,"type":"VEC4","name":"Cube.015_vertices#0_COLOR_0"},{"bufferView":16,"byteOffset":83568,"componentType":5123,"count":504,"type":"SCALAR","name":"Cube.015_indices#0"},{"bufferView":15,"byteOffset":442728,"componentType":5126,"count":135,"min":[-10.771293640136719,-1.2566132545471192,-1.2134263515472413],"max":[-10.564215660095215,-1.0599696636199952,1.2134231328964234],"type":"VEC3","name":"Cube.019_vertices#0_POSITION"},{"bufferView":15,"byteOffset":442740,"componentType":5120,"count":135,"type":"VEC4","name":"Cube.019_vertices#0_TANGENT"},{"bufferView":15,"byteOffset":442744,"componentType":5120,"count":135,"type":"VEC4","name":"Cube.019_vertices#0_NORMAL"},{"bufferView":15,"byteOffset":442748,"componentType":5122,"count":135,"type":"VEC2","name":"Cube.019_vertices#0_TEXCOORD_0"},{"bufferView":15,"byteOffset":442752,"componentType":5122,"count":135,"type":"VEC2","name":"Cube.019_vertices#0_TEXCOORD_1"},{"bufferView":15,"byteOffset":442756,"componentType":5123,"count":135,"type":"VEC4","name":"Cube.019_vertices#0_COLOR_0"},{"bufferView":16,"byteOffset":84576,"componentType":5123,"count":552,"type":"SCALAR","name":"Cube.019_indices#0"},{"bufferView":15,"byteOffset":447588,"componentType":5126,"count":145,"min":[-0.21251647174358369,-0.0044639213010668758,-0.048923030495643619],"max":[0.2681026756763458,0.23200872540473939,0.048923034220933917],"type":"VEC3","name":"Cube.033_vertices#0_POSITION"},{"bufferView":15,"byteOffset":447600,"componentType":5120,"count":145,"type":"VEC4","name":"Cube.033_vertices#0_TANGENT"},{"bufferView":15,"byteOffset":447604,"componentType":5120,"count":145,"type":"VEC4","name":"Cube.033_vertices#0_NORMAL"},{"bufferView":15,"byteOffset":447608,"componentType":5122,"count":145,"type":"VEC2","name":"Cube.033_vertices#0_TEXCOORD_0"},{"bufferView":15,"byteOffset":447612,"componentType":5122,"count":145,"type":"VEC2","name":"Cube.033_vertices#0_TEXCOORD_1"},{"bufferView":15,"byteOffset":447616,"componentType":5123,"count":145,"type":"VEC4","name":"Cube.033_vertices#0_COLOR_0"},{"bufferView":16,"byteOffset":85680,"componentType":5123,"count":420,"type":"SCALAR","name":"Cube.033_indices#0"},{"bufferView":15,"byteOffset":452808,"componentType":5126,"count":165,"min":[-6.860763072967529,-2.467132329940796,-9.504618644714356],"max":[-6.581858158111572,-1.9336414337158204,-4.583357810974121],"type":"VEC3","name":"Cube.021_vertices#0_POSITION"},{"bufferView":15,"byteOffset":452820,"componentType":5120,"count":165,"type":"VEC4","name":"Cube.021_vertices#0_TANGENT"},{"bufferView":15,"byteOffset":452824,"componentType":5120,"count":165,"type":"VEC4","name":"Cube.021_vertices#0_NORMAL"},{"bufferView":15,"byteOffset":452828,"componentType":5122,"count":165,"type":"VEC2","name":"Cube.021_vertices#0_TEXCOORD_0"},{"bufferView":15,"byteOffset":452832,"componentType":5122,"count":165,"type":"VEC2","name":"Cube.021_vertices#0_TEXCOORD_1"},{"bufferView":15,"byteOffset":452836,"componentType":5123,"count":165,"type":"VEC4","name":"Cube.021_vertices#0_COLOR_0"},{"bufferView":16,"byteOffset":86520,"componentType":5123,"count":432,"type":"SCALAR","name":"Cube.021_indices#0"},{"bufferView":15,"byteOffset":458748,"componentType":5126,"count":162,"min":[-6.860764980316162,-2.467132806777954,4.58335542678833],"max":[-6.5818610191345219,-1.9336416721343995,9.504616737365723],"type":"VEC3","name":"Cube.023_vertices#0_POSITION"},{"bufferView":15,"byteOffset":458760,"componentType":5120,"count":162,"type":"VEC4","name":"Cube.023_vertices#0_TANGENT"},{"bufferView":15,"byteOffset":458764,"componentType":5120,"count":162,"type":"VEC4","name":"Cube.023_vertices#0_NORMAL"},{"bufferView":15,"byteOffset":458768,"componentType":5122,"count":162,"type":"VEC2","name":"Cube.023_vertices#0_TEXCOORD_0"},{"bufferView":15,"byteOffset":458772,"componentType":5122,"count":162,"type":"VEC2","name":"Cube.023_vertices#0_TEXCOORD_1"},{"bufferView":15,"byteOffset":458776,"componentType":5123,"count":162,"type":"VEC4","name":"Cube.023_vertices#0_COLOR_0"},{"bufferView":16,"byteOffset":87384,"componentType":5123,"count":432,"type":"SCALAR","name":"Cube.023_indices#0"},{"bufferView":15,"byteOffset":464580,"componentType":5126,"count":16,"min":[-4.6878662109375,-4.130521297454834,-0.0019089642446488143],"max":[1.6468197107315064,-2.452831268310547,0.0019083301303908229],"type":"VEC3","name":"Cube.044_vertices#0_POSITION"},{"bufferView":15,"byteOffset":464592,"componentType":5120,"count":16,"type":"VEC4","name":"Cube.044_vertices#0_TANGENT"},{"bufferView":15,"byteOffset":464596,"componentType":5120,"count":16,"type":"VEC4","name":"Cube.044_vertices#0_NORMAL"},{"bufferView":15,"byteOffset":464600,"componentType":5122,"count":16,"type":"VEC2","name":"Cube.044_vertices#0_TEXCOORD_0"},{"bufferView":15,"byteOffset":464604,"componentType":5122,"count":16,"type":"VEC2","name":"Cube.044_vertices#0_TEXCOORD_1"},{"bufferView":15,"byteOffset":464608,"componentType":5123,"count":16,"type":"VEC4","name":"Cube.044_vertices#0_COLOR_0"},{"bufferView":16,"byteOffset":88248,"componentType":5123,"count":24,"type":"SCALAR","name":"Cube.044_indices#0"},{"bufferView":15,"byteOffset":465156,"componentType":5126,"count":30,"min":[1.6434401273727418,-4.204343795776367,-0.0468779131770134],"max":[1.7991942167282105,-4.11152458190918,0.04687820002436638],"type":"VEC3","name":"Cube.047_vertices#0_POSITION"},{"bufferView":15,"byteOffset":465168,"componentType":5120,"count":30,"type":"VEC4","name":"Cube.047_vertices#0_TANGENT"},{"bufferView":15,"byteOffset":465172,"componentType":5120,"count":30,"type":"VEC4","name":"Cube.047_vertices#0_NORMAL"},{"bufferView":15,"byteOffset":465176,"componentType":5122,"count":30,"type":"VEC2","name":"Cube.047_vertices#0_TEXCOORD_0"},{"bufferView":15,"byteOffset":465180,"componentType":5122,"count":30,"type":"VEC2","name":"Cube.047_vertices#0_TEXCOORD_1"},{"bufferView":15,"byteOffset":465184,"componentType":5123,"count":30,"type":"VEC4","name":"Cube.047_vertices#0_COLOR_0"},{"bufferView":16,"byteOffset":88296,"componentType":5123,"count":72,"type":"SCALAR","name":"Cube.047_indices#0"},{"bufferView":15,"byteOffset":466236,"componentType":5126,"count":420,"min":[-10.53012752532959,-2.270634412765503,-0.9804618954658508],"max":[-3.6883127689361574,-0.37154367566108706,0.9804587364196777],"type":"VEC3","name":"Cube.020_vertices#0_POSITION"},{"bufferView":15,"byteOffset":466248,"componentType":5120,"count":420,"type":"VEC4","name":"Cube.020_vertices#0_TANGENT"},{"bufferView":15,"byteOffset":466252,"componentType":5120,"count":420,"type":"VEC4","name":"Cube.020_vertices#0_NORMAL"},{"bufferView":15,"byteOffset":466256,"componentType":5122,"count":420,"type":"VEC2","name":"Cube.020_vertices#0_TEXCOORD_0"},{"bufferView":15,"byteOffset":466260,"componentType":5122,"count":420,"type":"VEC2","name":"Cube.020_vertices#0_TEXCOORD_1"},{"bufferView":15,"byteOffset":466264,"componentType":5123,"count":420,"type":"VEC4","name":"Cube.020_vertices#0_COLOR_0"},{"bufferView":16,"byteOffset":88440,"componentType":5123,"count":1110,"type":"SCALAR","name":"Cube.020_indices#0"},{"bufferView":15,"byteOffset":481356,"componentType":5126,"count":496,"min":[-9.325113296508789,-2.8465192317962648,-3.614711046218872],"max":[-8.850983619689942,-2.511422872543335,-2.365939140319824],"type":"VEC3","name":"Cube.014_vertices#0_POSITION"},{"bufferView":15,"byteOffset":481368,"componentType":5120,"count":496,"type":"VEC4","name":"Cube.014_vertices#0_TANGENT"},{"bufferView":15,"byteOffset":481372,"componentType":5120,"count":496,"type":"VEC4","name":"Cube.014_vertices#0_NORMAL"},{"bufferView":15,"byteOffset":481376,"componentType":5122,"count":496,"type":"VEC2","name":"Cube.014_vertices#0_TEXCOORD_0"},{"bufferView":15,"byteOffset":481380,"componentType":5122,"count":496,"type":"VEC2","name":"Cube.014_vertices#0_TEXCOORD_1"},{"bufferView":15,"byteOffset":481384,"componentType":5123,"count":496,"type":"VEC4","name":"Cube.014_vertices#0_COLOR_0"},{"bufferView":16,"byteOffset":90660,"componentType":5123,"count":2232,"type":"SCALAR","name":"Cube.014_indices#0"},{"bufferView":15,"byteOffset":499212,"componentType":5126,"count":496,"min":[-9.325113296508789,-2.8465194702148439,2.365936040878296],"max":[-8.850984573364258,-2.511423110961914,3.6147079467773439],"type":"VEC3","name":"Cube.008_vertices#0_POSITION"},{"bufferView":15,"byteOffset":499224,"componentType":5120,"count":496,"type":"VEC4","name":"Cube.008_vertices#0_TANGENT"},{"bufferView":15,"byteOffset":499228,"componentType":5120,"count":496,"type":"VEC4","name":"Cube.008_vertices#0_NORMAL"},{"bufferView":15,"byteOffset":499232,"componentType":5122,"count":496,"type":"VEC2","name":"Cube.008_vertices#0_TEXCOORD_0"},{"bufferView":15,"byteOffset":499236,"componentType":5122,"count":496,"type":"VEC2","name":"Cube.008_vertices#0_TEXCOORD_1"},{"bufferView":15,"byteOffset":499240,"componentType":5123,"count":496,"type":"VEC4","name":"Cube.008_vertices#0_COLOR_0"},{"bufferView":16,"byteOffset":95124,"componentType":5123,"count":2232,"type":"SCALAR","name":"Cube.008_indices#0"},{"bufferView":15,"byteOffset":517068,"componentType":5126,"count":188,"min":[-11.647466659545899,-2.1199164390563967,-0.9770371317863464],"max":[-11.450664520263672,-2.085095167160034,0.9770335555076599],"type":"VEC3","name":"Cube.017_vertices#0_POSITION"},{"bufferView":15,"byteOffset":517080,"componentType":5120,"count":188,"type":"VEC4","name":"Cube.017_vertices#0_TANGENT"},{"bufferView":15,"byteOffset":517084,"componentType":5120,"count":188,"type":"VEC4","name":"Cube.017_vertices#0_NORMAL"},{"bufferView":15,"byteOffset":517088,"componentType":5122,"count":188,"type":"VEC2","name":"Cube.017_vertices#0_TEXCOORD_0"},{"bufferView":15,"byteOffset":517092,"componentType":5122,"count":188,"type":"VEC2","name":"Cube.017_vertices#0_TEXCOORD_1"},{"bufferView":15,"byteOffset":517096,"componentType":5123,"count":188,"type":"VEC4","name":"Cube.017_vertices#0_COLOR_0"},{"bufferView":16,"byteOffset":99588,"componentType":5123,"count":552,"type":"SCALAR","name":"Cube.017_indices#0"},{"bufferView":15,"byteOffset":523836,"componentType":5126,"count":230,"min":[1.6010534763336182,-3.5381221771240236,-0.290704607963562],"max":[2.0821330547332765,-3.432756185531616,0.2907049059867859],"type":"VEC3","name":"Cube.031_vertices#0_POSITION"},{"bufferView":15,"byteOffset":523848,"componentType":5120,"count":230,"type":"VEC4","name":"Cube.031_vertices#0_TANGENT"},{"bufferView":15,"byteOffset":523852,"componentType":5120,"count":230,"type":"VEC4","name":"Cube.031_vertices#0_NORMAL"},{"bufferView":15,"byteOffset":523856,"componentType":5122,"count":230,"type":"VEC2","name":"Cube.031_vertices#0_TEXCOORD_0"},{"bufferView":15,"byteOffset":523860,"componentType":5122,"count":230,"type":"VEC2","name":"Cube.031_vertices#0_TEXCOORD_1"},{"bufferView":15,"byteOffset":523864,"componentType":5123,"count":230,"type":"VEC4","name":"Cube.031_vertices#0_COLOR_0"},{"bufferView":16,"byteOffset":100692,"componentType":5123,"count":936,"type":"SCALAR","name":"Cube.031_indices#0"},{"bufferView":15,"byteOffset":532116,"componentType":5126,"count":408,"min":[-11.23751449584961,-2.899387836456299,-0.12561410665512086],"max":[-10.869994163513184,-2.618319272994995,0.1256105750799179],"type":"VEC3","name":"Cube.016_vertices#0_POSITION"},{"bufferView":15,"byteOffset":532128,"componentType":5120,"count":408,"type":"VEC4","name":"Cube.016_vertices#0_TANGENT"},{"bufferView":15,"byteOffset":532132,"componentType":5120,"count":408,"type":"VEC4","name":"Cube.016_vertices#0_NORMAL"},{"bufferView":15,"byteOffset":532136,"componentType":5122,"count":408,"type":"VEC2","name":"Cube.016_vertices#0_TEXCOORD_0"},{"bufferView":15,"byteOffset":532140,"componentType":5122,"count":408,"type":"VEC2","name":"Cube.016_vertices#0_TEXCOORD_1"},{"bufferView":15,"byteOffset":532144,"componentType":5123,"count":408,"type":"VEC4","name":"Cube.016_vertices#0_COLOR_0"},{"bufferView":16,"byteOffset":102564,"componentType":5123,"count":1320,"type":"SCALAR","name":"Cube.016_indices#0"},{"bufferView":15,"byteOffset":546804,"componentType":5126,"count":73,"min":[1.6649870872497559,-4.318972110748291,-0.0468779131770134],"max":[1.7991942167282105,-4.183743000030518,0.04687820002436638],"type":"VEC3","name":"Cube.046_vertices#0_POSITION"},{"bufferView":15,"byteOffset":546816,"componentType":5120,"count":73,"type":"VEC4","name":"Cube.046_vertices#0_TANGENT"},{"bufferView":15,"byteOffset":546820,"componentType":5120,"count":73,"type":"VEC4","name":"Cube.046_vertices#0_NORMAL"},{"bufferView":15,"byteOffset":546824,"componentType":5122,"count":73,"type":"VEC2","name":"Cube.046_vertices#0_TEXCOORD_0"},{"bufferView":15,"byteOffset":546828,"componentType":5122,"count":73,"type":"VEC2","name":"Cube.046_vertices#0_TEXCOORD_1"},{"bufferView":15,"byteOffset":546832,"componentType":5123,"count":73,"type":"VEC4","name":"Cube.046_vertices#0_COLOR_0"},{"bufferView":16,"byteOffset":105204,"componentType":5123,"count":120,"type":"SCALAR","name":"Cube.046_indices#0"},{"bufferView":15,"byteOffset":549432,"componentType":5126,"count":552,"min":[-1.5198556184768677,-0.10257682204246521,-1.5193095207214356],"max":[1.5197923183441163,0.5025831460952759,1.5195707082748414],"type":"VEC3","name":"part036_vertices#0_POSITION"},{"bufferView":15,"byteOffset":549444,"componentType":5120,"count":552,"type":"VEC4","name":"part036_vertices#0_TANGENT"},{"bufferView":15,"byteOffset":549448,"componentType":5120,"count":552,"type":"VEC4","name":"part036_vertices#0_NORMAL"},{"bufferView":15,"byteOffset":549452,"componentType":5122,"count":552,"type":"VEC2","name":"part036_vertices#0_TEXCOORD_0"},{"bufferView":15,"byteOffset":549456,"componentType":5122,"count":552,"type":"VEC2","name":"part036_vertices#0_TEXCOORD_1"},{"bufferView":15,"byteOffset":549460,"componentType":5123,"count":552,"type":"VEC4","name":"part036_vertices#0_COLOR_0"},{"bufferView":16,"byteOffset":105444,"componentType":5123,"count":2646,"type":"SCALAR","name":"part036_indices#1"},{"bufferView":15,"byteOffset":569304,"componentType":5126,"count":980,"min":[-0.5010370016098023,-0.7790144681930542,-1.3112155199050904],"max":[0.10412302613258362,1.5106850862503052,1.3112168312072755],"type":"VEC3","name":"Cylinder.001_vertices#0_POSITION"},{"bufferView":15,"byteOffset":569316,"componentType":5120,"count":980,"type":"VEC4","name":"Cylinder.001_vertices#0_TANGENT"},{"bufferView":15,"byteOffset":569320,"componentType":5120,"count":980,"type":"VEC4","name":"Cylinder.001_vertices#0_NORMAL"},{"bufferView":15,"byteOffset":569324,"componentType":5122,"count":980,"type":"VEC2","name":"Cylinder.001_vertices#0_TEXCOORD_0"},{"bufferView":15,"byteOffset":569328,"componentType":5122,"count":980,"type":"VEC2","name":"Cylinder.001_vertices#0_TEXCOORD_1"},{"bufferView":15,"byteOffset":569332,"componentType":5123,"count":980,"type":"VEC4","name":"Cylinder.001_vertices#0_COLOR_0"},{"bufferView":16,"byteOffset":110736,"componentType":5123,"count":4818,"type":"SCALAR","name":"Cylinder.001_indices#0"},{"bufferView":15,"byteOffset":604584,"componentType":5126,"count":577,"min":[-1.5198556184768677,-0.10257628560066223,-1.5193095207214356],"max":[1.5197923183441163,0.5025836229324341,1.5195707082748414],"type":"VEC3","name":"part036.001_vertices#0_POSITION"},{"bufferView":15,"byteOffset":604596,"componentType":5120,"count":577,"type":"VEC4","name":"part036.001_vertices#0_TANGENT"},{"bufferView":15,"byteOffset":604600,"componentType":5120,"count":577,"type":"VEC4","name":"part036.001_vertices#0_NORMAL"},{"bufferView":15,"byteOffset":604604,"componentType":5122,"count":577,"type":"VEC2","name":"part036.001_vertices#0_TEXCOORD_0"},{"bufferView":15,"byteOffset":604608,"componentType":5122,"count":577,"type":"VEC2","name":"part036.001_vertices#0_TEXCOORD_1"},{"bufferView":15,"byteOffset":604612,"componentType":5123,"count":577,"type":"VEC4","name":"part036.001_vertices#0_COLOR_0"},{"bufferView":16,"byteOffset":120372,"componentType":5123,"count":2646,"type":"SCALAR","name":"part036.001_indices#1"},{"bufferView":15,"byteOffset":625356,"componentType":5126,"count":983,"min":[-0.5010370016098023,-1.5106852054595948,-1.3112155199050904],"max":[0.10412293672561646,0.7790144681930542,1.3112168312072755],"type":"VEC3","name":"Cylinder.020_vertices#0_POSITION"},{"bufferView":15,"byteOffset":625368,"componentType":5120,"count":983,"type":"VEC4","name":"Cylinder.020_vertices#0_TANGENT"},{"bufferView":15,"byteOffset":625372,"componentType":5120,"count":983,"type":"VEC4","name":"Cylinder.020_vertices#0_NORMAL"},{"bufferView":15,"byteOffset":625376,"componentType":5122,"count":983,"type":"VEC2","name":"Cylinder.020_vertices#0_TEXCOORD_0"},{"bufferView":15,"byteOffset":625380,"componentType":5122,"count":983,"type":"VEC2","name":"Cylinder.020_vertices#0_TEXCOORD_1"},{"bufferView":15,"byteOffset":625384,"componentType":5123,"count":983,"type":"VEC4","name":"Cylinder.020_vertices#0_COLOR_0"},{"bufferView":16,"byteOffset":125664,"componentType":5123,"count":4818,"type":"SCALAR","name":"Cylinder.020_indices#0"},{"bufferView":15,"byteOffset":660744,"componentType":5126,"count":44,"min":[-2.235685348510742,1.679623007774353,9.83071231842041],"max":[-2.1247472763061525,1.768994688987732,9.905750274658204],"type":"VEC3","name":"Cube.050_vertices#0_POSITION"},{"bufferView":15,"byteOffset":660756,"componentType":5120,"count":44,"type":"VEC4","name":"Cube.050_vertices#0_TANGENT"},{"bufferView":15,"byteOffset":660760,"componentType":5120,"count":44,"type":"VEC4","name":"Cube.050_vertices#0_NORMAL"},{"bufferView":15,"byteOffset":660764,"componentType":5122,"count":44,"type":"VEC2","name":"Cube.050_vertices#0_TEXCOORD_0"},{"bufferView":15,"byteOffset":660768,"componentType":5122,"count":44,"type":"VEC2","name":"Cube.050_vertices#0_TEXCOORD_1"},{"bufferView":15,"byteOffset":660772,"componentType":5123,"count":44,"type":"VEC4","name":"Cube.050_vertices#0_COLOR_0"},{"bufferView":16,"byteOffset":135300,"componentType":5123,"count":60,"type":"SCALAR","name":"Cube.050_indices#0"},{"bufferView":15,"byteOffset":662328,"componentType":5126,"count":44,"min":[-2.235685348510742,1.679623007774353,-9.905750274658204],"max":[-2.1247472763061525,1.768994688987732,-9.83071231842041],"type":"VEC3","name":"Cube.051_vertices#0_POSITION"},{"bufferView":15,"byteOffset":662340,"componentType":5120,"count":44,"type":"VEC4","name":"Cube.051_vertices#0_TANGENT"},{"bufferView":15,"byteOffset":662344,"componentType":5120,"count":44,"type":"VEC4","name":"Cube.051_vertices#0_NORMAL"},{"bufferView":15,"byteOffset":662348,"componentType":5122,"count":44,"type":"VEC2","name":"Cube.051_vertices#0_TEXCOORD_0"},{"bufferView":15,"byteOffset":662352,"componentType":5122,"count":44,"type":"VEC2","name":"Cube.051_vertices#0_TEXCOORD_1"},{"bufferView":15,"byteOffset":662356,"componentType":5123,"count":44,"type":"VEC4","name":"Cube.051_vertices#0_COLOR_0"},{"bufferView":16,"byteOffset":135420,"componentType":5123,"count":60,"type":"SCALAR","name":"Cube.051_indices#0"}],"animations":[{"name":"Flaps","channels":[{"sampler":0,"target":{"node":5,"path":"rotation"}},{"sampler":1,"target":{"node":7,"path":"rotation"}},{"sampler":2,"target":{"node":8,"path":"rotation"}},{"sampler":3,"target":{"node":9,"path":"rotation"}}],"samplers":[{"input":0,"output":1,"interpolation":"LINEAR"},{"input":0,"output":2,"interpolation":"LINEAR"},{"input":0,"output":3,"interpolation":"LINEAR"},{"input":0,"output":4,"interpolation":"LINEAR"}]},{"name":"ElevatorDroop","channels":[{"sampler":0,"target":{"node":10,"path":"rotation"}}],"samplers":[{"input":0,"output":5,"interpolation":"LINEAR"}]},{"name":"Wheel_L_Roll","channels":[{"sampler":0,"target":{"node":12,"path":"rotation"}}],"samplers":[{"input":0,"output":6,"interpolation":"LINEAR"}]},{"name":"Wheel_R_Roll","channels":[{"sampler":0,"target":{"node":13,"path":"rotation"}}],"samplers":[{"input":0,"output":7,"interpolation":"LINEAR"}]},{"name":"Steering","channels":[{"sampler":0,"target":{"node":18,"path":"rotation"}}],"samplers":[{"input":0,"output":8,"interpolation":"LINEAR"}]},{"name":"Wheel_F_Roll","channels":[{"sampler":0,"target":{"node":17,"path":"rotation"}}],"samplers":[{"input":0,"output":9,"interpolation":"LINEAR"}]},{"name":"PropBlur_L","channels":[{"sampler":0,"target":{"node":41,"path":"rotation"}}],"samplers":[{"input":0,"output":10,"interpolation":"LINEAR"}]},{"name":"PropSlow_L","channels":[{"sampler":0,"target":{"node":43,"path":"rotation"}}],"samplers":[{"input":0,"output":11,"interpolation":"LINEAR"}]},{"name":"PropBlur_R","channels":[{"sampler":0,"target":{"node":46,"path":"rotation"}}],"samplers":[{"input":0,"output":12,"interpolation":"LINEAR"}]},{"name":"PropSlow_R","channels":[{"sampler":0,"target":{"node":48,"path":"rotation"}}],"samplers":[{"input":0,"output":13,"interpolation":"LINEAR"}]},{"name":"Beacon_Rotate","channels":[{"sampler":0,"target":{"node":51,"path":"rotation"}}],"samplers":[{"input":0,"output":14,"interpolation":"LINEAR"}]}],"asset":{"generator":"Khronos glTF Blender I/O v3.6.28 and Asobo Studio MSFS2020 Blender I/O v3.3.1 with Blender v3.6.17","version":"2.0","extensions":{"ASOBO_asset_optimized":{"BoundingBoxMax":[7.73410177230835,4.530035972595215,9.912969589233399],"BoundingBoxMin":[-11.892946243286133,-4.318972110748291,-9.912969589233399],"MajorVersion":4,"MinorVersion":4,"UseCheckerboardMaterialForMissingTextures":true,"UseOnlyFilenameForImageURI":true},"ASOBO_normal_map_convention":{"tangent_space_convention":"DirectX"}}},"bufferViews":[{"buffer":0,"byteLength":400},{"buffer":0,"byteLength":1600,"byteOffset":400},{"buffer":0,"byteLength":1600,"byteOffset":2000},{"buffer":0,"byteLength":1600,"byteOffset":3600},{"buffer":0,"byteLength":1600,"byteOffset":5200},{"buffer":0,"byteLength":1600,"byteOffset":6800},{"buffer":0,"byteLength":1600,"byteOffset":8400},{"buffer":0,"byteLength":1600,"byteOffset":10000},{"buffer":0,"byteLength":1600,"byteOffset":11600},{"buffer":0,"byteLength":1600,"byteOffset":13200},{"buffer":0,"byteLength":1600,"byteOffset":14800},{"buffer":0,"byteLength":1600,"byteOffset":16400},{"buffer":0,"byteLength":1600,"byteOffset":18000},{"buffer":0,"byteLength":1600,"byteOffset":19600},{"buffer":0,"byteLength":1600,"byteOffset":21200},{"buffer":0,"byteLength":663912,"byteStride":36,"byteOffset":22800,"target":34962,"name":"BufferViewVertexND"},{"buffer":0,"byteLength":135540,"byteOffset":686712,"target":34963,"name":"BufferViewIndex"}],"extensionsRequired":["MSFT_texture_dds"],"materials":[{"name":"Liveryx","normalTexture":{"index":0},"occlusionTexture":{"index":1},"pbrMetallicRoughness":{"baseColorTexture":{"index":2},"metallicRoughnessTexture":{"index":1}}},{"name":"window","alphaMode":"BLEND","pbrMetallicRoughness":{"baseColorFactor":[0.007196893449872732,0.007196893449872732,0.007196893449872732,1.0],"metallicFactor":0.0},"extensions":{"ASOBO_material_kitty_glass":{}}},{"name":"NewChromex","alphaMode":"MASK","pbrMetallicRoughness":{"baseColorFactor":[0.2158602923154831,0.21586032211780549,0.2158605307340622,1.0],"roughnessFactor":0.05000000074505806}},{"name":"tire","pbrMetallicRoughness":{"baseColorFactor":[0.0,0.0,0.0,1.0]}},{"name":"NewChrome","alphaMode":"MASK","pbrMetallicRoughness":{"baseColorFactor":[0.2158602923154831,0.21586032211780549,0.2158605307340622,1.0],"roughnessFactor":0.05000000074505806}},{"name":"Livery","normalTexture":{"index":3},"occlusionTexture":{"index":4},"pbrMetallicRoughness":{"baseColorTexture":{"index":5},"metallicRoughnessTexture":{"index":4}}},{"name":"GlowRedx","emissiveFactor":[1.0,0.0,0.0],"pbrMetallicRoughness":{"baseColorTexture":{"index":6}}},{"name":"PropSpin","alphaMode":"BLEND","doubleSided":true,"pbrMetallicRoughness":{"baseColorTexture":{"index":7}}},{"name":"GlowRed","emissiveFactor":[1.0,0.0,0.0],"pbrMetallicRoughness":{"baseColorTexture":{"index":8}}},{"name":"GlowGreen","emissiveFactor":[0.0,1.0,0.0],"pbrMetallicRoughness":{"baseColorTexture":{"index":9}}}],"meshes":[{"primitives":[{"attributes":{"COLOR_0":20,"NORMAL":17,"POSITION":15,"TANGENT":16,"TEXCOORD_0":18,"TEXCOORD_1":19},"indices":21,"material":0,"mode":4,"extras":{"ASOBO_primitive":{"PrimitiveCount":348,"VertexType":"VTX","VertexVersion":2}}}],"name":"Cube.035"},{"primitives":[{"attributes":{"COLOR_0":27,"NORMAL":24,"POSITION":22,"TANGENT":23,"TEXCOORD_0":25,"TEXCOORD_1":26},"indices":28,"material":0,"mode":4,"extras":{"ASOBO_primitive":{"PrimitiveCount":612,"VertexType":"VTX","VertexVersion":2}}}],"name":"Cube.036"},{"primitives":[{"attributes":{"COLOR_0":34,"NORMAL":31,"POSITION":29,"TANGENT":30,"TEXCOORD_0":32,"TEXCOORD_1":33},"indices":35,"material":0,"mode":4,"extras":{"ASOBO_primitive":{"PrimitiveCount":152,"VertexType":"VTX","VertexVersion":2}}}],"name":"Cube.037"},{"primitives":[{"attributes":{"COLOR_0":41,"NORMAL":38,"POSITION":36,"TANGENT":37,"TEXCOORD_0":39,"TEXCOORD_1":40},"indices":42,"material":1,"mode":4,"extras":{"ASOBO_primitive":{"PrimitiveCount":288,"VertexType":"VTX","VertexVersion":2}}},{"attributes":{"COLOR_0":41,"NORMAL":38,"POSITION":36,"TANGENT":37,"TEXCOORD_0":39,"TEXCOORD_1":40},"indices":42,"material":2,"mode":4,"extras":{"ASOBO_primitive":{"PrimitiveCount":2560,"StartIndex":864,"VertexType":"VTX","VertexVersion":2}}}],"name":"Cube.038"},{"primitives":[{"attributes":{"COLOR_0":48,"NORMAL":45,"POSITION":43,"TANGENT":44,"TEXCOORD_0":46,"TEXCOORD_1":47},"indices":49,"material":0,"mode":4,"extras":{"ASOBO_primitive":{"PrimitiveCount":2404,"VertexType":"VTX","VertexVersion":2}}}],"name":"Cylinder.018"},{"primitives":[{"attributes":{"COLOR_0":55,"NORMAL":52,"POSITION":50,"TANGENT":51,"TEXCOORD_0":53,"TEXCOORD_1":54},"indices":56,"material":0,"mode":4,"extras":{"ASOBO_primitive":{"PrimitiveCount":24,"VertexType":"VTX","VertexVersion":2}}}],"name":"Cube.039"},{"primitives":[{"attributes":{"COLOR_0":62,"NORMAL":59,"POSITION":57,"TANGENT":58,"TEXCOORD_0":60,"TEXCOORD_1":61},"indices":63,"material":0,"mode":4,"extras":{"ASOBO_primitive":{"PrimitiveCount":4482,"VertexType":"VTX","VertexVersion":2}}}],"name":"Cube.048"},{"primitives":[{"attributes":{"COLOR_0":69,"NORMAL":66,"POSITION":64,"TANGENT":65,"TEXCOORD_0":67,"TEXCOORD_1":68},"indices":70,"material":0,"mode":4,"extras":{"ASOBO_primitive":{"PrimitiveCount":20,"VertexType":"VTX","VertexVersion":2}}}],"name":"Cube.003"},{"primitives":[{"attributes":{"COLOR_0":76,"NORMAL":73,"POSITION":71,"TANGENT":72,"TEXCOORD_0":74,"TEXCOORD_1":75},"indices":77,"material":0,"mode":4,"extras":{"ASOBO_primitive":{"PrimitiveCount":20,"VertexType":"VTX","VertexVersion":2}}}],"name":"Cube.007"},{"primitives":[{"attributes":{"COLOR_0":83,"NORMAL":80,"POSITION":78,"TANGENT":79,"TEXCOORD_0":81,"TEXCOORD_1":82},"indices":84,"material":0,"mode":4,"extras":{"ASOBO_primitive":{"PrimitiveCount":20,"VertexType":"VTX","VertexVersion":2}}}],"name":"Cube.010"},{"primitives":[{"attributes":{"COLOR_0":90,"NORMAL":87,"POSITION":85,"TANGENT":86,"TEXCOORD_0":88,"TEXCOORD_1":89},"indices":91,"material":0,"mode":4,"extras":{"ASOBO_primitive":{"PrimitiveCount":292,"VertexType":"VTX","VertexVersion":2}}}],"name":"Cube.011"},{"primitives":[{"attributes":{"COLOR_0":97,"NORMAL":94,"POSITION":92,"TANGENT":93,"TEXCOORD_0":95,"TEXCOORD_1":96},"indices":98,"material":0,"mode":4,"extras":{"ASOBO_primitive":{"PrimitiveCount":88,"VertexType":"VTX","VertexVersion":2}}}],"name":"Cube.012"},{"primitives":[{"attributes":{"COLOR_0":104,"NORMAL":101,"POSITION":99,"TANGENT":100,"TEXCOORD_0":102,"TEXCOORD_1":103},"indices":105,"material":3,"mode":4,"extras":{"ASOBO_primitive":{"PrimitiveCount":252,"VertexType":"VTX","VertexVersion":2}}},{"attributes":{"COLOR_0":104,"NORMAL":101,"POSITION":99,"TANGENT":100,"TEXCOORD_0":102,"TEXCOORD_1":103},"indices":105,"material":4,"mode":4,"extras":{"ASOBO_primitive":{"PrimitiveCount":248,"StartIndex":756,"VertexType":"VTX","VertexVersion":2}}}],"name":"Torus.005"},{"primitives":[{"attributes":{"COLOR_0":111,"NORMAL":108,"POSITION":106,"TANGENT":107,"TEXCOORD_0":109,"TEXCOORD_1":110},"indices":112,"material":3,"mode":4,"extras":{"ASOBO_primitive":{"PrimitiveCount":252,"VertexType":"VTX","VertexVersion":2}}},{"attributes":{"COLOR_0":111,"NORMAL":108,"POSITION":106,"TANGENT":107,"TEXCOORD_0":109,"TEXCOORD_1":110},"indices":112,"material":4,"mode":4,"extras":{"ASOBO_primitive":{"PrimitiveCount":248,"StartIndex":756,"VertexType":"VTX","VertexVersion":2}}}],"name":"Torus.002"},{"primitives":[{"attributes":{"COLOR_0":125,"NORMAL":122,"POSITION":120,"TANGENT":121,"TEXCOORD_0":123,"TEXCOORD_1":124},"indices":126,"material":5,"mode":4,"extras":{"ASOBO_primitive":{"PrimitiveCount":36,"VertexType":"VTX","VertexVersion":2}}},{"attributes":{"COLOR_0":125,"NORMAL":122,"POSITION":120,"TANGENT":121,"TEXCOORD_0":123,"TEXCOORD_1":124},"indices":126,"material":2,"mode":4,"extras":{"ASOBO_primitive":{"PrimitiveCount":140,"StartIndex":108,"VertexType":"VTX","VertexVersion":2}}}],"name":"Cube.013"},{"primitives":[{"attributes":{"COLOR_0":132,"NORMAL":129,"POSITION":127,"TANGENT":128,"TEXCOORD_0":130,"TEXCOORD_1":131},"indices":133,"material":3,"mode":4,"extras":{"ASOBO_primitive":{"PrimitiveCount":224,"VertexType":"VTX","VertexVersion":2}}},{"attributes":{"COLOR_0":132,"NORMAL":129,"POSITION":127,"TANGENT":128,"TEXCOORD_0":130,"TEXCOORD_1":131},"indices":133,"material":4,"mode":4,"extras":{"ASOBO_primitive":{"PrimitiveCount":388,"StartIndex":672,"VertexType":"VTX","VertexVersion":2}}}],"name":"Torus.003"},{"primitives":[{"attributes":{"COLOR_0":118,"NORMAL":115,"POSITION":113,"TANGENT":114,"TEXCOORD_0":116,"TEXCOORD_1":117},"indices":119,"material":0,"mode":4,"extras":{"ASOBO_primitive":{"PrimitiveCount":608,"VertexType":"VTX","VertexVersion":2}}}],"name":"Cube.001"},{"primitives":[{"attributes":{"COLOR_0":139,"NORMAL":136,"POSITION":134,"TANGENT":135,"TEXCOORD_0":137,"TEXCOORD_1":138},"indices":140,"material":5,"mode":4,"extras":{"ASOBO_primitive":{"PrimitiveCount":32,"VertexType":"VTX","VertexVersion":2}}}],"name":"Cube.034"},{"primitives":[{"attributes":{"COLOR_0":146,"NORMAL":143,"POSITION":141,"TANGENT":142,"TEXCOORD_0":144,"TEXCOORD_1":145},"indices":147,"material":5,"mode":4,"extras":{"ASOBO_primitive":{"PrimitiveCount":32,"VertexType":"VTX","VertexVersion":2}}}],"name":"Cube.040"},{"primitives":[{"attributes":{"COLOR_0":153,"NORMAL":150,"POSITION":148,"TANGENT":149,"TEXCOORD_0":151,"TEXCOORD_1":152},"indices":154,"material":5,"mode":4,"extras":{"ASOBO_primitive":{"PrimitiveCount":32,"VertexType":"VTX","VertexVersion":2}}}],"name":"Cube.042"},{"primitives":[{"attributes":{"COLOR_0":160,"NORMAL":157,"POSITION":155,"TANGENT":156,"TEXCOORD_0":158,"TEXCOORD_1":159},"indices":161,"material":5,"mode":4,"extras":{"ASOBO_primitive":{"PrimitiveCount":34,"VertexType":"VTX","VertexVersion":2}}}],"name":"Cube.045"},{"primitives":[{"attributes":{"COLOR_0":167,"NORMAL":164,"POSITION":162,"TANGENT":163,"TEXCOORD_0":165,"TEXCOORD_1":166},"indices":168,"material":5,"mode":4,"extras":{"ASOBO_primitive":{"PrimitiveCount":32,"VertexType":"VTX","VertexVersion":2}}}],"name":"Cube.043"},{"primitives":[{"attributes":{"COLOR_0":174,"NORMAL":171,"POSITION":169,"TANGENT":170,"TEXCOORD_0":172,"TEXCOORD_1":173},"indices":175,"material":5,"mode":4,"extras":{"ASOBO_primitive":{"PrimitiveCount":60,"VertexType":"VTX","VertexVersion":2}}}],"name":"Cube.041"},{"primitives":[{"attributes":{"COLOR_0":181,"NORMAL":178,"POSITION":176,"TANGENT":177,"TEXCOORD_0":179,"TEXCOORD_1":180},"indices":182,"material":5,"mode":4,"extras":{"ASOBO_primitive":{"PrimitiveCount":168,"VertexType":"VTX","VertexVersion":2}}}],"name":"Cube.015"},{"primitives":[{"attributes":{"COLOR_0":188,"NORMAL":185,"POSITION":183,"TANGENT":184,"TEXCOORD_0":186,"TEXCOORD_1":187},"indices":189,"material":5,"mode":4,"extras":{"ASOBO_primitive":{"PrimitiveCount":184,"VertexType":"VTX","VertexVersion":2}}}],"name":"Cube.019"},{"primitives":[{"attributes":{"COLOR_0":195,"NORMAL":192,"POSITION":190,"TANGENT":191,"TEXCOORD_0":193,"TEXCOORD_1":194},"indices":196,"material":5,"mode":4,"extras":{"ASOBO_primitive":{"PrimitiveCount":140,"VertexType":"VTX","VertexVersion":2}}}],"name":"Cube.033"},{"primitives":[{"attributes":{"COLOR_0":202,"NORMAL":199,"POSITION":197,"TANGENT":198,"TEXCOORD_0":200,"TEXCOORD_1":201},"indices":203,"material":5,"mode":4,"extras":{"ASOBO_primitive":{"PrimitiveCount":144,"VertexType":"VTX","VertexVersion":2}}}],"name":"Cube.021"},{"primitives":[{"attributes":{"COLOR_0":209,"NORMAL":206,"POSITION":204,"TANGENT":205,"TEXCOORD_0":207,"TEXCOORD_1":208},"indices":210,"material":5,"mode":4,"extras":{"ASOBO_primitive":{"PrimitiveCount":144,"VertexType":"VTX","VertexVersion":2}}}],"name":"Cube.023"},{"primitives":[{"attributes":{"COLOR_0":216,"NORMAL":213,"POSITION":211,"TANGENT":212,"TEXCOORD_0":214,"TEXCOORD_1":215},"indices":217,"material":2,"mode":4,"extras":{"ASOBO_primitive":{"PrimitiveCount":8,"VertexType":"VTX","VertexVersion":2}}}],"name":"Cube.044"},{"primitives":[{"attributes":{"COLOR_0":223,"NORMAL":220,"POSITION":218,"TANGENT":219,"TEXCOORD_0":221,"TEXCOORD_1":222},"indices":224,"material":2,"mode":4,"extras":{"ASOBO_primitive":{"PrimitiveCount":24,"VertexType":"VTX","VertexVersion":2}}}],"name":"Cube.047"},{"primitives":[{"attributes":{"COLOR_0":230,"NORMAL":227,"POSITION":225,"TANGENT":226,"TEXCOORD_0":228,"TEXCOORD_1":229},"indices":231,"material":2,"mode":4,"extras":{"ASOBO_primitive":{"PrimitiveCount":370,"VertexType":"VTX","VertexVersion":2}}}],"name":"Cube.020"},{"primitives":[{"attributes":{"COLOR_0":237,"NORMAL":234,"POSITION":232,"TANGENT":233,"TEXCOORD_0":235,"TEXCOORD_1":236},"indices":238,"material":2,"mode":4,"extras":{"ASOBO_primitive":{"PrimitiveCount":744,"VertexType":"VTX","VertexVersion":2}}}],"name":"Cube.014"},{"primitives":[{"attributes":{"COLOR_0":244,"NORMAL":241,"POSITION":239,"TANGENT":240,"TEXCOORD_0":242,"TEXCOORD_1":243},"indices":245,"material":2,"mode":4,"extras":{"ASOBO_primitive":{"PrimitiveCount":744,"VertexType":"VTX","VertexVersion":2}}}],"name":"Cube.008"},{"primitives":[{"attributes":{"COLOR_0":251,"NORMAL":248,"POSITION":246,"TANGENT":247,"TEXCOORD_0":249,"TEXCOORD_1":250},"indices":252,"material":2,"mode":4,"extras":{"ASOBO_primitive":{"PrimitiveCount":184,"VertexType":"VTX","VertexVersion":2}}}],"name":"Cube.017"},{"primitives":[{"attributes":{"COLOR_0":258,"NORMAL":255,"POSITION":253,"TANGENT":254,"TEXCOORD_0":256,"TEXCOORD_1":257},"indices":259,"material":2,"mode":4,"extras":{"ASOBO_primitive":{"PrimitiveCount":312,"VertexType":"VTX","VertexVersion":2}}}],"name":"Cube.031"},{"primitives":[{"attributes":{"COLOR_0":265,"NORMAL":262,"POSITION":260,"TANGENT":261,"TEXCOORD_0":263,"TEXCOORD_1":264},"indices":266,"material":2,"mode":4,"extras":{"ASOBO_primitive":{"PrimitiveCount":440,"VertexType":"VTX","VertexVersion":2}}}],"name":"Cube.016"},{"primitives":[{"attributes":{"COLOR_0":272,"NORMAL":269,"POSITION":267,"TANGENT":268,"TEXCOORD_0":270,"TEXCOORD_1":271},"indices":273,"material":6,"mode":4,"extras":{"ASOBO_primitive":{"PrimitiveCount":40,"VertexType":"VTX","VertexVersion":2}}}],"name":"Cube.046"},{"primitives":[{"attributes":{"COLOR_0":279,"NORMAL":276,"POSITION":274,"TANGENT":275,"TEXCOORD_0":277,"TEXCOORD_1":278},"indices":280,"material":5,"mode":4,"extras":{"ASOBO_primitive":{"PrimitiveCount":850,"VertexType":"VTX","VertexVersion":2}}},{"attributes":{"COLOR_0":279,"NORMAL":276,"POSITION":274,"TANGENT":275,"TEXCOORD_0":277,"TEXCOORD_1":278},"indices":280,"material":7,"mode":4,"extras":{"ASOBO_primitive":{"PrimitiveCount":32,"StartIndex":2550,"VertexType":"VTX","VertexVersion":2}}}],"name":"part036"},{"primitives":[{"attributes":{"COLOR_0":286,"NORMAL":283,"POSITION":281,"TANGENT":282,"TEXCOORD_0":284,"TEXCOORD_1":285},"indices":287,"material":5,"mode":4,"extras":{"ASOBO_primitive":{"PrimitiveCount":1606,"VertexType":"VTX","VertexVersion":2}}}],"name":"Cylinder.001"},{"primitives":[{"attributes":{"COLOR_0":293,"NORMAL":290,"POSITION":288,"TANGENT":289,"TEXCOORD_0":291,"TEXCOORD_1":292},"indices":294,"material":5,"mode":4,"extras":{"ASOBO_primitive":{"PrimitiveCount":850,"VertexType":"VTX","VertexVersion":2}}},{"attributes":{"COLOR_0":293,"NORMAL":290,"POSITION":288,"TANGENT":289,"TEXCOORD_0":291,"TEXCOORD_1":292},"indices":294,"material":7,"mode":4,"extras":{"ASOBO_primitive":{"PrimitiveCount":32,"StartIndex":2550,"VertexType":"VTX","VertexVersion":2}}}],"name":"part036.001"},{"primitives":[{"attributes":{"COLOR_0":300,"NORMAL":297,"POSITION":295,"TANGENT":296,"TEXCOORD_0":298,"TEXCOORD_1":299},"indices":301,"material":5,"mode":4,"extras":{"ASOBO_primitive":{"PrimitiveCount":1606,"VertexType":"VTX","VertexVersion":2}}}],"name":"Cylinder.020"},{"primitives":[{"attributes":{"COLOR_0":307,"NORMAL":304,"POSITION":302,"TANGENT":303,"TEXCOORD_0":305,"TEXCOORD_1":306},"indices":308,"material":8,"mode":4,"extras":{"ASOBO_primitive":{"PrimitiveCount":20,"VertexType":"VTX","VertexVersion":2}}}],"name":"Cube.050"},{"primitives":[{"attributes":{"COLOR_0":314,"NORMAL":311,"POSITION":309,"TANGENT":310,"TEXCOORD_0":312,"TEXCOORD_1":313},"indices":315,"material":9,"mode":4,"extras":{"ASOBO_primitive":{"PrimitiveCount":20,"VertexType":"VTX","VertexVersion":2}}}],"name":"Cube.051"}],"nodes":[{"translation":[-0.000999974086880684,-0.050533175468444827,-2.0213048458099367],"rotation":[0.0,0.7071066498756409,0.0,0.70710688829422],"mesh":0,"name":"Horizontal Stabilizer"},{"translation":[-0.0010000336915254593,-0.03458833694458008,-2.0213046073913576],"rotation":[0.0,0.7071066498756409,0.0,0.70710688829422],"mesh":1,"name":"Struts.Main"},{"translation":[-0.000999974086880684,0.0,-2.0302698612213136],"rotation":[0.0,0.7071066498756409,0.0,0.70710688829422],"mesh":2,"name":"Vertical Stabilizer"},{"translation":[-0.000999974086880684,0.0,-2.0302698612213136],"rotation":[0.0,0.7071066498756409,0.0,0.70710688829422],"mesh":3,"name":"Windows"},{"translation":[-0.0010000336915254593,-0.03458833694458008,-2.0213046073913576],"rotation":[0.0,0.7071066498756409,0.0,0.70710688829422],"mesh":4,"name":"Engines"},{"translation":[-7.027337551116943,1.4514799118041993,-0.955841064453125],"rotation":[0.016686545684933664,0.7069098949432373,-0.016686543822288514,0.7069099545478821],"mesh":5,"name":"Right Aileron"},{"translation":[-0.0010003913193941117,-0.050533175468444827,-2.0213046073913576],"rotation":[0.0,0.7071066498756409,0.0,0.70710688829422],"mesh":6,"name":"Body"},{"translation":[-2.8676517009735109,1.260244846343994,-0.9558405876159668],"rotation":[-0.2250346392393112,0.670342743396759,-0.2585015892982483,0.6581618189811707],"mesh":7,"name":"Right Flap"},{"translation":[2.8656513690948488,1.260244846343994,-0.955839991569519],"rotation":[-0.256748765707016,0.6588476896286011,-0.22681814432144166,0.6697412729263306],"mesh":8,"name":"Left Flap"},{"translation":[7.033870220184326,1.4514799118041993,-0.9558396339416504],"rotation":[-0.07887670397758484,0.7026936411857605,-0.04434313252568245,0.7057151198387146],"mesh":9,"name":"Left Aileron"},{"translation":[-0.000999676063656807,1.3700077533721924,-8.319402694702149],"rotation":[-0.09229589253664016,0.7010573744773865,-0.09229588508605956,0.7010574340820313],"mesh":10,"name":"Elevator"},{"translation":[-0.000999676063656807,3.2573132514953615,-9.422563552856444],"rotation":[-0.09129536151885987,0.701188325881958,-0.09129538387060164,0.7011884450912476],"mesh":11,"name":"Rudder"},{"translation":[1.2703641653060914,-3.610313892364502,-4.627513408660889],"rotation":[0.5,0.5000002384185791,-0.5000000596046448,0.4999997019767761],"mesh":12,"name":"Wheel.L"},{"translation":[-2.83756160736084,-3.610313892364502,-4.627516746520996],"rotation":[0.5,0.5000002384185791,-0.5000000596046448,0.4999997019767761],"mesh":13,"name":"Wheel.R"},{"translation":[0.7825978994369507,2.4987635612487795,4.084349632263184],"name":"Wheel.Main","children":[12,13]},{"translation":[-0.03174359351396561,0.12203896045684815,0.23362694680690766],"rotation":[0.0,-0.7071066498756409,0.0,0.70710688829422],"name":"taxi"},{"translation":[11.867615699768067,0.9876306653022766,-0.0000040324084693565968],"rotation":[-0.9971014857292176,-0.0760832130908966,0.0,2.5006226422874535e-8],"mesh":14,"name":"TaxiLight"},{"translation":[0.025973796844482427,-0.30654847621917727,0.0],"rotation":[0.7071069478988648,0.0,0.0,0.7071065902709961],"mesh":15,"name":"Wheel.Front"},{"translation":[-0.0010005015647038816,-0.8885511159896851,4.112697124481201],"rotation":[0.0,0.70710688829422,0.0,0.7071066498756409],"mesh":16,"name":"Struts.Front","children":[15,16,17]},{"translation":[-0.8572948575019836,-0.3113335371017456,-16.132949829101564],"rotation":[-0.7050572037696838,-0.05379904806613922,0.7050572037696838,0.05379903316497803],"mesh":17,"name":"Antenna_Belly"},{"translation":[-0.8572948575019836,-0.3113335371017456,-16.132949829101564],"rotation":[-0.7050572037696838,-0.05379904806613922,0.7050572037696838,0.05379903316497803],"mesh":18,"name":"Antenna_Top_1"},{"translation":[-0.8572948575019836,-0.3113335371017456,-16.132949829101564],"rotation":[-0.7050572037696838,-0.05379904806613922,0.7050572037696838,0.05379903316497803],"mesh":19,"name":"Antenna_Top_2"},{"translation":[-0.8572948575019836,-0.3113335371017456,-16.132949829101564],"rotation":[-0.7050572037696838,-0.05379904806613922,0.7050572037696838,0.05379903316497803],"mesh":20,"name":"Antenna_Top_3"},{"translation":[-0.8572948575019836,-0.3113335371017456,-16.132949829101564],"rotation":[-0.7050572037696838,-0.05379904806613922,0.7050572037696838,0.05379903316497803],"mesh":21,"name":"Antenna_Top_4"},{"translation":[-0.8572948575019836,-0.3113335371017456,-16.132949829101564],"rotation":[-0.7050572037696838,-0.05379904806613922,0.7050572037696838,0.05379903316497803],"mesh":22,"name":"Antenna_Top_Disc"},{"translation":[-0.8572948575019836,-0.3113335371017456,-16.132949829101564],"rotation":[-0.7050572037696838,-0.05379904806613922,0.7050572037696838,0.05379903316497803],"mesh":23,"name":"Front Scoops"},{"translation":[-0.8572948575019836,-0.3113335371017456,-16.132949829101564],"rotation":[-0.7050572037696838,-0.05379904806613922,0.7050572037696838,0.05379903316497803],"mesh":24,"name":"Steps"},{"translation":[-0.8572948575019836,-0.3113335371017456,-16.132949829101564],"rotation":[-0.7050572037696838,-0.05379904806613922,0.7050572037696838,0.05379903316497803],"mesh":25,"name":"TailScrape"},{"translation":[-0.8572948575019836,-0.3113335371017456,-16.132949829101564],"rotation":[-0.7050572037696838,-0.05379904806613922,0.7050572037696838,0.05379903316497803],"mesh":26,"name":"WingHinge Left"},{"translation":[-0.8572948575019836,-0.3113335371017456,-16.132949829101564],"rotation":[-0.7050572037696838,-0.05379904806613922,0.7050572037696838,0.05379903316497803],"mesh":27,"name":"WingHinge Right"},{"translation":[0.8562951683998108,0.41041314601898196,8.378031730651856],"name":"Extras","children":[19,20,21,22,23,24,25,26,27,28,29]},{"translation":[-0.8572948575019836,-0.3113335371017456,-16.132949829101564],"rotation":[-0.7050572037696838,-0.05379904806613922,0.7050572037696838,0.05379903316497803],"mesh":28,"name":"Antenna_Wire"},{"translation":[-0.8572948575019836,-0.3113335371017456,-16.132949829101564],"rotation":[-0.7050572037696838,-0.05379904806613922,0.7050572037696838,0.05379903316497803],"mesh":29,"name":"Beacon_Base"},{"translation":[-0.8572948575019836,-0.3113335371017456,-16.132949829101564],"rotation":[-0.7050572037696838,-0.05379904806613922,0.7050572037696838,0.05379903316497803],"mesh":30,"name":"Door Handles"},{"translation":[-0.8572948575019836,-0.3113335371017456,-16.132949829101564],"rotation":[-0.7050572037696838,-0.05379904806613922,0.7050572037696838,0.05379903316497803],"mesh":31,"name":"Exhaust Left"},{"translation":[-0.8572948575019836,-0.3113335371017456,-16.132949829101564],"rotation":[-0.7050572037696838,-0.05379904806613922,0.7050572037696838,0.05379903316497803],"mesh":32,"name":"Exhaust Right"},{"translation":[-0.8572948575019836,-0.3113335371017456,-16.132949829101564],"rotation":[-0.7050572037696838,-0.05379904806613922,0.7050572037696838,0.05379903316497803],"mesh":33,"name":"Pitot"},{"translation":[-0.8572948575019836,-0.3113335371017456,-16.132949829101564],"rotation":[-0.7050572037696838,-0.05379904806613922,0.7050572037696838,0.05379903316497803],"mesh":34,"name":"Tail Handles"},{"translation":[-0.8572948575019836,-0.3113335371017456,-16.132949829101564],"rotation":[-0.7050572037696838,-0.05379904806613922,0.7050572037696838,0.05379903316497803],"mesh":35,"name":"Wipers"},{"translation":[0.8562951683998108,0.41041314601898196,8.378031730651856],"name":"Chrome","children":[31,32,33,34,35,36,37,38]},{"translation":[-0.000999676063656807,0.09907960891723632,-7.754918575286865],"rotation":[-0.7050572037696838,-0.053799133747816089,0.7050572037696838,0.05379911884665489],"mesh":36,"name":"Beacon_Glass"},{"translation":[-2.620185613632202,-3.979340076446533,2.0299463272094728],"rotation":[0.7071068286895752,0.0,0.0,0.7071068286895752],"mesh":37,"name":"PropSpin_L"},{"translation":[4.752390384674072,4.869826793670654,-8.174381256103516],"name":"Blur_L","children":[41]},{"translation":[-2.6201484203338625,-3.9711754322052,2.0314927101135256],"rotation":[0.0,0.7071066498756409,0.0,0.70710688829422],"mesh":38,"name":"Propellers_L"},{"translation":[4.752390384674072,4.869826793670654,-8.174381256103516],"name":"Slow_L","children":[43]},{"translation":[0.8562951683998108,0.41041314601898196,8.378031730651856],"name":"Prop Left","children":[42,44]},{"translation":[-8.597185134887696,-3.979340076446533,2.0299463272094728],"rotation":[0.7071066498756409,0.0,0.0,0.70710688829422],"mesh":39,"name":"PropSpin_R"},{"translation":[4.752390384674072,4.869826793670654,-8.174381256103516],"name":"Blur_R","children":[46]},{"translation":[-8.599223136901856,-3.9711756706237795,2.0314927101135256],"rotation":[0.14966721832752229,0.691085934638977,-0.14966721832752229,0.6910858750343323],"mesh":40,"name":"Propellers_R"},{"translation":[4.752390384674072,4.869826793670654,-8.174381256103516],"name":"Slow_R","children":[48]},{"translation":[0.8562951683998108,0.41041314601898196,8.378031730651856],"name":"Prop Right","children":[47,49]},{"translation":[0.0,4.5640974044799809,-8.829194068908692],"name":"Beacon"},{"translation":[-0.0010003913193941117,-0.050533175468444827,-2.0213046073913576],"rotation":[0.0,0.7071066498756409,0.0,0.70710688829422],"mesh":41,"name":"Nav_Glass_Red"},{"translation":[-0.0010003913193941117,-0.050533175468444827,-2.0213046073913576],"rotation":[0.0,0.7071066498756409,0.0,0.70710688829422],"mesh":42,"name":"Nav_Glass_Green"},{"translation":[2.991476058959961,0.6262235045433044,0.6767091751098633],"name":"fx_exhaust_left"},{"translation":[-2.9914801120758058,0.6262235045433044,0.6767091751098633],"name":"fx_exhaust_right"},{"translation":[0.0,-1.533651351928711,4.088676452636719],"name":"fx_tire_contactPoint_center"},{"translation":[-2.0521175861358644,-1.5424782037734984,-0.5494619011878967],"name":"fx_tire_contactPoint_right"},{"translation":[2.0521199703216554,-1.5424782037734984,-0.5494619011878967],"name":"fx_tire_contactPoint_left"}],"scene":0,"scenes":[{"nodes":[0,1,2,3,4,5,6,7,8,9,10,11,14,18,30,39,40,45,50,51,52,53,54,55,56,57,58],"name":"Scene"}],"textures":[{"extensions":{"MSFT_texture_dds":{"source":0}}},{"extensions":{"MSFT_texture_dds":{"source":1}}},{"extensions":{"MSFT_texture_dds":{"source":2}}},{"extensions":{"MSFT_texture_dds":{"source":0}}},{"extensions":{"MSFT_texture_dds":{"source":1}}},{"extensions":{"MSFT_texture_dds":{"source":2}}},{"extensions":{"MSFT_texture_dds":{"source":2}}},{"extensions":{"MSFT_texture_dds":{"source":3}}},{"extensions":{"MSFT_texture_dds":{"source":2}}},{"extensions":{"MSFT_texture_dds":{"source":2}}}],"samplers":[{"magFilter":9729,"minFilter":9987,"wrapS":10497,"wrapT":10497}],"extensionsUsed":["ASOBO_normal_map_convention","ASOBO_material_glass","ASOBO_material_kitty_glass","MSFT_texture_dds","ASOBO_asset_optimized"],"buffers":[{"byteLength":822252,"uri":"FSLTL_DHC6_LOD0.bin"}],"images":[{"uri":"FSLTL_DHC6_N.PNG.DDS","name":"FSLTL_DHC6_N","extras":"ASOBO_image_converted_meta"},{"uri":"FSLTL_DHC6_M.PNG.DDS","name":"FSLTL_DHC6_M","extras":"ASOBO_image_converted_meta"},{"uri":"FSLTL_DHC6_T.PNG.DDS","name":"FSLTL_DHC6_T","extras":"ASOBO_image_converted_meta"},{"uri":"FSLTL_DHC6_PROP.PNG.DDS","name":"FSLTL_DHC6_Prop","extras":"ASOBO_image_converted_meta"}]}
