{"accessors":[{"bufferView":0,"componentType":5126,"count":1201,"min":[-0.991450309753418,0.4948723614215851,5.054172039031982],"max":[0.9914505481719971,2.0048046112060549,7.164912223815918],"type":"VEC3","name":"x4_Main_panel_vertices#0_POSITION"},{"bufferView":0,"byteOffset":12,"componentType":5120,"count":1201,"type":"VEC4","name":"x4_Main_panel_vertices#0_TANGENT"},{"bufferView":0,"byteOffset":16,"componentType":5120,"count":1201,"type":"VEC4","name":"x4_Main_panel_vertices#0_NORMAL"},{"bufferView":0,"byteOffset":20,"componentType":5122,"count":1201,"type":"VEC2","name":"x4_Main_panel_vertices#0_TEXCOORD_0"},{"bufferView":0,"byteOffset":24,"componentType":5122,"count":1201,"type":"VEC2","name":"x4_Main_panel_vertices#0_TEXCOORD_1"},{"bufferView":0,"byteOffset":28,"componentType":5123,"count":1201,"type":"VEC4","name":"x4_Main_panel_vertices#0_COLOR_0"},{"bufferView":1,"componentType":5123,"count":2649,"type":"SCALAR","name":"x4_Main_panel_indices#1"},{"bufferView":0,"byteOffset":43236,"componentType":5126,"count":99,"min":[-1.040827989578247,0.0,-10.667085647583008],"max":[1.040827989578247,1.8297648429870606,1.1481837034225464],"type":"VEC3","name":"Occluder_vertices#0_POSITION"},{"bufferView":0,"byteOffset":43248,"componentType":5120,"count":99,"type":"VEC4","name":"Occluder_vertices#0_TANGENT"},{"bufferView":0,"byteOffset":43252,"componentType":5120,"count":99,"type":"VEC4","name":"Occluder_vertices#0_NORMAL"},{"bufferView":0,"byteOffset":43256,"componentType":5122,"count":99,"type":"VEC2","name":"Occluder_vertices#0_TEXCOORD_0"},{"bufferView":0,"byteOffset":43260,"componentType":5122,"count":99,"type":"VEC2","name":"Occluder_vertices#0_TEXCOORD_1"},{"bufferView":0,"byteOffset":43264,"componentType":5123,"count":99,"type":"VEC4","name":"Occluder_vertices#0_COLOR_0"},{"bufferView":1,"byteOffset":5298,"componentType":5123,"count":396,"type":"SCALAR","name":"Occluder_indices#0"},{"bufferView":0,"byteOffset":46800,"componentType":5126,"count":12,"min":[-0.15659499168395997,-0.09790706634521485,-0.013760089874267578],"max":[0.15659499168395997,0.09790694713592529,0.013760089874267578],"type":"VEC3","name":"x4_AS5000_MFD_vertices#0_POSITION"},{"bufferView":0,"byteOffset":46812,"componentType":5120,"count":12,"type":"VEC4","name":"x4_AS5000_MFD_vertices#0_TANGENT"},{"bufferView":0,"byteOffset":46816,"componentType":5120,"count":12,"type":"VEC4","name":"x4_AS5000_MFD_vertices#0_NORMAL"},{"bufferView":0,"byteOffset":46820,"componentType":5122,"count":12,"type":"VEC2","name":"x4_AS5000_MFD_vertices#0_TEXCOORD_0"},{"bufferView":0,"byteOffset":46824,"componentType":5122,"count":12,"type":"VEC2","name":"x4_AS5000_MFD_vertices#0_TEXCOORD_1"},{"bufferView":0,"byteOffset":46828,"componentType":5123,"count":12,"type":"VEC4","name":"x4_AS5000_MFD_vertices#0_COLOR_0"},{"bufferView":1,"byteOffset":6090,"componentType":5123,"count":30,"type":"SCALAR","name":"x4_AS5000_MFD_indices#0"},{"bufferView":0,"byteOffset":47232,"componentType":5126,"count":12,"min":[-0.15659497678279878,-0.09790706634521485,-0.013760089874267578],"max":[0.15659499168395997,0.09790694713592529,0.013760089874267578],"type":"VEC3","name":"x4_AS5000_PFD_1_vertices#0_POSITION"},{"bufferView":0,"byteOffset":47244,"componentType":5120,"count":12,"type":"VEC4","name":"x4_AS5000_PFD_1_vertices#0_TANGENT"},{"bufferView":0,"byteOffset":47248,"componentType":5120,"count":12,"type":"VEC4","name":"x4_AS5000_PFD_1_vertices#0_NORMAL"},{"bufferView":0,"byteOffset":47252,"componentType":5122,"count":12,"type":"VEC2","name":"x4_AS5000_PFD_1_vertices#0_TEXCOORD_0"},{"bufferView":0,"byteOffset":47256,"componentType":5122,"count":12,"type":"VEC2","name":"x4_AS5000_PFD_1_vertices#0_TEXCOORD_1"},{"bufferView":0,"byteOffset":47260,"componentType":5123,"count":12,"type":"VEC4","name":"x4_AS5000_PFD_1_vertices#0_COLOR_0"},{"bufferView":1,"byteOffset":6150,"componentType":5123,"count":30,"type":"SCALAR","name":"x4_AS5000_PFD_1_indices#0"},{"bufferView":0,"byteOffset":47664,"componentType":5126,"count":12,"min":[-0.15659499168395997,-0.09779763221740723,-0.014538288116455078],"max":[0.15659500658512116,0.09801638126373291,0.013682365417480469],"type":"VEC3","name":"x4_AS5000_PFD_2_vertices#0_POSITION"},{"bufferView":0,"byteOffset":47676,"componentType":5120,"count":12,"type":"VEC4","name":"x4_AS5000_PFD_2_vertices#0_TANGENT"},{"bufferView":0,"byteOffset":47680,"componentType":5120,"count":12,"type":"VEC4","name":"x4_AS5000_PFD_2_vertices#0_NORMAL"},{"bufferView":0,"byteOffset":47684,"componentType":5122,"count":12,"type":"VEC2","name":"x4_AS5000_PFD_2_vertices#0_TEXCOORD_0"},{"bufferView":0,"byteOffset":47688,"componentType":5122,"count":12,"type":"VEC2","name":"x4_AS5000_PFD_2_vertices#0_TEXCOORD_1"},{"bufferView":0,"byteOffset":47692,"componentType":5123,"count":12,"type":"VEC4","name":"x4_AS5000_PFD_2_vertices#0_COLOR_0"},{"bufferView":1,"byteOffset":6210,"componentType":5123,"count":30,"type":"SCALAR","name":"x4_AS5000_PFD_2_indices#0"},{"bufferView":0,"byteOffset":48096,"componentType":5126,"count":12,"min":[-0.0957794189453125,-0.006207406520843506,-0.06250309944152832],"max":[0.09579706192016602,-0.006019532680511475,0.06255567073822022],"type":"VEC3","name":"x4_AS580_Frame_1_vertices#0_POSITION"},{"bufferView":0,"byteOffset":48108,"componentType":5120,"count":12,"type":"VEC4","name":"x4_AS580_Frame_1_vertices#0_TANGENT"},{"bufferView":0,"byteOffset":48112,"componentType":5120,"count":12,"type":"VEC4","name":"x4_AS580_Frame_1_vertices#0_NORMAL"},{"bufferView":0,"byteOffset":48116,"componentType":5122,"count":12,"type":"VEC2","name":"x4_AS580_Frame_1_vertices#0_TEXCOORD_0"},{"bufferView":0,"byteOffset":48120,"componentType":5122,"count":12,"type":"VEC2","name":"x4_AS580_Frame_1_vertices#0_TEXCOORD_1"},{"bufferView":0,"byteOffset":48124,"componentType":5123,"count":12,"type":"VEC4","name":"x4_AS580_Frame_1_vertices#0_COLOR_0"},{"bufferView":1,"byteOffset":6270,"componentType":5123,"count":36,"type":"SCALAR","name":"x4_AS580_Frame_1_indices#0"},{"bufferView":0,"byteOffset":48528,"componentType":5126,"count":12,"min":[-0.0957794189453125,-0.006207406520843506,-0.06250309944152832],"max":[0.09579706192016602,-0.006019532680511475,0.06255567073822022],"type":"VEC3","name":"x4_AS580_Frame_2_vertices#0_POSITION"},{"bufferView":0,"byteOffset":48540,"componentType":5120,"count":12,"type":"VEC4","name":"x4_AS580_Frame_2_vertices#0_TANGENT"},{"bufferView":0,"byteOffset":48544,"componentType":5120,"count":12,"type":"VEC4","name":"x4_AS580_Frame_2_vertices#0_NORMAL"},{"bufferView":0,"byteOffset":48548,"componentType":5122,"count":12,"type":"VEC2","name":"x4_AS580_Frame_2_vertices#0_TEXCOORD_0"},{"bufferView":0,"byteOffset":48552,"componentType":5122,"count":12,"type":"VEC2","name":"x4_AS580_Frame_2_vertices#0_TEXCOORD_1"},{"bufferView":0,"byteOffset":48556,"componentType":5123,"count":12,"type":"VEC4","name":"x4_AS580_Frame_2_vertices#0_COLOR_0"},{"bufferView":1,"byteOffset":6342,"componentType":5123,"count":36,"type":"SCALAR","name":"x4_AS580_Frame_2_indices#0"},{"bufferView":0,"byteOffset":48960,"componentType":5126,"count":12,"min":[-0.0957794189453125,-0.006207406520843506,-0.06250309944152832],"max":[0.09579706192016602,-0.006019532680511475,0.06255567073822022],"type":"VEC3","name":"x4_AS580_Frame_3_vertices#0_POSITION"},{"bufferView":0,"byteOffset":48972,"componentType":5120,"count":12,"type":"VEC4","name":"x4_AS580_Frame_3_vertices#0_TANGENT"},{"bufferView":0,"byteOffset":48976,"componentType":5120,"count":12,"type":"VEC4","name":"x4_AS580_Frame_3_vertices#0_NORMAL"},{"bufferView":0,"byteOffset":48980,"componentType":5122,"count":12,"type":"VEC2","name":"x4_AS580_Frame_3_vertices#0_TEXCOORD_0"},{"bufferView":0,"byteOffset":48984,"componentType":5122,"count":12,"type":"VEC2","name":"x4_AS580_Frame_3_vertices#0_TEXCOORD_1"},{"bufferView":0,"byteOffset":48988,"componentType":5123,"count":12,"type":"VEC4","name":"x4_AS580_Frame_3_vertices#0_COLOR_0"},{"bufferView":1,"byteOffset":6414,"componentType":5123,"count":36,"type":"SCALAR","name":"x4_AS580_Frame_3_indices#0"},{"bufferView":0,"byteOffset":49392,"componentType":5126,"count":12,"min":[-0.0957794189453125,-0.006207406520843506,-0.06250309944152832],"max":[0.09579706192016602,-0.006019532680511475,0.06255567073822022],"type":"VEC3","name":"x4_AS580_Frame_4_vertices#0_POSITION"},{"bufferView":0,"byteOffset":49404,"componentType":5120,"count":12,"type":"VEC4","name":"x4_AS580_Frame_4_vertices#0_TANGENT"},{"bufferView":0,"byteOffset":49408,"componentType":5120,"count":12,"type":"VEC4","name":"x4_AS580_Frame_4_vertices#0_NORMAL"},{"bufferView":0,"byteOffset":49412,"componentType":5122,"count":12,"type":"VEC2","name":"x4_AS580_Frame_4_vertices#0_TEXCOORD_0"},{"bufferView":0,"byteOffset":49416,"componentType":5122,"count":12,"type":"VEC2","name":"x4_AS580_Frame_4_vertices#0_TEXCOORD_1"},{"bufferView":0,"byteOffset":49420,"componentType":5123,"count":12,"type":"VEC4","name":"x4_AS580_Frame_4_vertices#0_COLOR_0"},{"bufferView":1,"byteOffset":6486,"componentType":5123,"count":36,"type":"SCALAR","name":"x4_AS580_Frame_4_indices#0"}],"asset":{"generator":"babylon.js glTF exporter for 3dsmax 2022 v1.0.8144.18238","version":"2.0","extensions":{"ASOBO_asset_optimized":{"BoundingBoxMax":[1.040827989578247,2.0048046112060549,7.164912223815918],"BoundingBoxMin":[-1.040827989578247,-0.09790706634521485,-10.667085647583008],"MajorVersion":4,"MinorVersion":4,"UseCheckerboardMaterialForMissingTextures":true,"UseOnlyFilenameForImageURI":true},"ASOBO_normal_map_convention":{"tangent_space_convention":"DirectX"}}},"bufferViews":[{"buffer":0,"byteLength":49824,"byteStride":36,"target":34962,"name":"BufferViewVertexND"},{"buffer":0,"byteLength":6558,"byteOffset":49824,"target":34963,"name":"BufferViewIndex"}],"extensionsRequired":["MSFT_texture_dds"],"materials":[{"name":"Generic_LOD5","occlusionTexture":{"index":1},"pbrMetallicRoughness":{"baseColorTexture":{"index":0},"metallicRoughnessTexture":{"index":1}}},{"name":"Prop_Blur_Low","alphaMode":"BLEND","pbrMetallicRoughness":{"metallicFactor":0.0,"roughnessFactor":0.3}},{"name":"OCCLUDER","pbrMetallicRoughness":{"baseColorFactor":[1.0,1.0,1.0,0.194244608]},"extensions":{"ASOBO_material_environment_occluder":{}}},{"name":"Buttons","normalTexture":{"index":4},"occlusionTexture":{"index":3},"emissiveTexture":{"index":5},"pbrMetallicRoughness":{"baseColorTexture":{"index":2},"metallicRoughnessTexture":{"index":3}}},{"name":"MainPanel_Pedestal","normalTexture":{"index":8},"occlusionTexture":{"index":7},"emissiveTexture":{"index":9},"pbrMetallicRoughness":{"baseColorTexture":{"index":6},"metallicRoughnessTexture":{"index":7}}}],"meshes":[{"primitives":[{"attributes":{"COLOR_0":5,"NORMAL":2,"POSITION":0,"TANGENT":1,"TEXCOORD_0":3,"TEXCOORD_1":4},"indices":6,"material":0,"mode":4,"extras":{"ASOBO_primitive":{"PrimitiveCount":626,"VertexType":"VTX","VertexVersion":2}}},{"attributes":{"COLOR_0":5,"NORMAL":2,"POSITION":0,"TANGENT":1,"TEXCOORD_0":3,"TEXCOORD_1":4},"indices":6,"material":1,"mode":4,"extras":{"ASOBO_primitive":{"PrimitiveCount":257,"StartIndex":1878,"VertexType":"VTX","VertexVersion":2}}}],"name":"x4_Main_panel"},{"primitives":[{"attributes":{"COLOR_0":12,"NORMAL":9,"POSITION":7,"TANGENT":8,"TEXCOORD_0":10,"TEXCOORD_1":11},"indices":13,"material":2,"mode":4,"extras":{"ASOBO_primitive":{"PrimitiveCount":132,"VertexType":"VTX","VertexVersion":2}}}],"name":"Occluder"},{"primitives":[{"attributes":{"COLOR_0":19,"NORMAL":16,"POSITION":14,"TANGENT":15,"TEXCOORD_0":17,"TEXCOORD_1":18},"indices":20,"material":3,"mode":4,"extras":{"ASOBO_primitive":{"PrimitiveCount":10,"VertexType":"VTX","VertexVersion":2}}}],"name":"x4_AS5000_MFD"},{"primitives":[{"attributes":{"COLOR_0":26,"NORMAL":23,"POSITION":21,"TANGENT":22,"TEXCOORD_0":24,"TEXCOORD_1":25},"indices":27,"material":3,"mode":4,"extras":{"ASOBO_primitive":{"PrimitiveCount":10,"VertexType":"VTX","VertexVersion":2}}}],"name":"x4_AS5000_PFD_1"},{"primitives":[{"attributes":{"COLOR_0":33,"NORMAL":30,"POSITION":28,"TANGENT":29,"TEXCOORD_0":31,"TEXCOORD_1":32},"indices":34,"material":3,"mode":4,"extras":{"ASOBO_primitive":{"PrimitiveCount":10,"VertexType":"VTX","VertexVersion":2}}}],"name":"x4_AS5000_PFD_2"},{"primitives":[{"attributes":{"COLOR_0":40,"NORMAL":37,"POSITION":35,"TANGENT":36,"TEXCOORD_0":38,"TEXCOORD_1":39},"indices":41,"material":4,"mode":4,"extras":{"ASOBO_primitive":{"PrimitiveCount":12,"VertexType":"VTX","VertexVersion":2}}}],"name":"x4_AS580_Frame_1"},{"primitives":[{"attributes":{"COLOR_0":47,"NORMAL":44,"POSITION":42,"TANGENT":43,"TEXCOORD_0":45,"TEXCOORD_1":46},"indices":48,"material":4,"mode":4,"extras":{"ASOBO_primitive":{"PrimitiveCount":12,"VertexType":"VTX","VertexVersion":2}}}],"name":"x4_AS580_Frame_2"},{"primitives":[{"attributes":{"COLOR_0":54,"NORMAL":51,"POSITION":49,"TANGENT":50,"TEXCOORD_0":52,"TEXCOORD_1":53},"indices":55,"material":4,"mode":4,"extras":{"ASOBO_primitive":{"PrimitiveCount":12,"VertexType":"VTX","VertexVersion":2}}}],"name":"x4_AS580_Frame_3"},{"primitives":[{"attributes":{"COLOR_0":61,"NORMAL":58,"POSITION":56,"TANGENT":57,"TEXCOORD_0":59,"TEXCOORD_1":60},"indices":62,"material":4,"mode":4,"extras":{"ASOBO_primitive":{"PrimitiveCount":12,"VertexType":"VTX","VertexVersion":2}}}],"name":"x4_AS580_Frame_4"}],"nodes":[{"mesh":0,"name":"Main_panel"},{"translation":[0.0,0.447665185,5.983103],"mesh":1,"name":"Occluder"},{"translation":[0.00005094707,1.17954683,6.51940346],"mesh":2,"name":"AS5000_MFD"},{"translation":[0.392333031,1.17954683,6.5194],"mesh":3,"name":"AS5000_PFD_1"},{"translation":[-0.39137733,1.17954683,6.519407],"mesh":4,"name":"AS5000_PFD_2"},{"translation":[0.779583931,1.03510666,6.32155371],"rotation":[-0.240296558,-0.499152929,0.358923554,0.7511843],"scale":[0.99999994,1.0,0.99999994],"name":"CONTAINER_MFD_Control_1_1","children":[6]},{"translation":[4.76837158e-7,0.007220745,1.1920929e-7],"rotation":[-6.46105036e-9,8.60891447e-8,8.881784e-16,1.0],"scale":[0.9999999,1.0,0.9999999],"mesh":5,"name":"AS580_Frame_1"},{"translation":[0.0699825,0.974718869,6.37297869],"rotation":[-0.217333972,-0.6728789,0.217333928,0.672878861],"name":"CONTAINER_MFD_Control_2_2","children":[8]},{"translation":[0.0,0.00722098351,0.0],"rotation":[-1.77635684e-15,8.742278e-8,0.0,1.0],"mesh":6,"name":"AS580_Frame_2"},{"translation":[-0.06952861,0.974718869,6.37297869],"rotation":[-0.217333972,-0.6728789,0.217333928,0.672878861],"name":"CONTAINER_MFD_Control_3_3","children":[10]},{"translation":[0.0,0.00722098351,0.0],"rotation":[-1.77635684e-15,8.742278e-8,0.0,1.0],"mesh":7,"name":"AS580_Frame_3"},{"translation":[-0.7813091,1.034643,6.250395],"rotation":[-0.3727649,-0.779217362,0.208245322,0.4588034],"scale":[1.0,1.0,0.99999994],"name":"CONTAINER_MFD_Control_4_4","children":[12]},{"translation":[-4.76837158e-7,0.00722098351,2.38418579e-7],"rotation":[-6.286428e-9,8.568168e-8,0.0,1.0],"scale":[1.0,1.0,0.99999994],"mesh":8,"name":"AS580_Frame_4"},{"translation":[0.406874537,0.7219951,5.896657],"name":"PILOT_0"},{"translation":[-0.4080516,0.7219951,5.896657],"name":"PILOT_1"}],"scene":0,"scenes":[{"nodes":[0,1,2,3,4,5,7,9,11,13,14]}],"textures":[{"extensions":{"MSFT_texture_dds":{"source":0}}},{"extensions":{"MSFT_texture_dds":{"source":1}}},{"extensions":{"MSFT_texture_dds":{"source":2}}},{"extensions":{"MSFT_texture_dds":{"source":3}}},{"extensions":{"MSFT_texture_dds":{"source":4}}},{"extensions":{"MSFT_texture_dds":{"source":5}}},{"extensions":{"MSFT_texture_dds":{"source":6}}},{"extensions":{"MSFT_texture_dds":{"source":7}}},{"extensions":{"MSFT_texture_dds":{"source":8}}},{"extensions":{"MSFT_texture_dds":{"source":9}}}],"extensionsUsed":["ASOBO_normal_map_convention","ASOBO_material_environment_occluder","MSFT_texture_dds","ASOBO_asset_optimized"],"buffers":[{"byteLength":56382,"uri":"Cessna_Citation_Longitude_INTERIOR_LOD04.bin"}],"images":[{"uri":"TEXTURE\\ATLAS_ALBD.PNG.DDS","extras":"ASOBO_image_converted_meta"},{"uri":"TEXTURE\\ATLAS_COMP.PNG.DDS","extras":"ASOBO_image_converted_meta"},{"uri":"TEXTURE\\LONGITUDE_COCKPIT_BUTTONS_ALBD.PNG.DDS","extras":"ASOBO_image_converted_meta"},{"uri":"TEXTURE\\LONGITUDE_COCKPIT_BUTTONS_COMP.PNG.DDS","extras":"ASOBO_image_converted_meta"},{"uri":"TEXTURE\\LONGITUDE_COCKPIT_BUTTONS_NORM.PNG.DDS","extras":"ASOBO_image_converted_meta"},{"uri":"TEXTURE\\LONGITUDE_COCKPIT_BUTTONS_EMIS.PNG.DDS","extras":"ASOBO_image_converted_meta"},{"uri":"TEXTURE\\LONGITUDE_COCKPIT_MAINPANEL_PEDESTAL_ALBD.PNG.DDS","extras":"ASOBO_image_converted_meta"},{"uri":"TEXTURE\\LONGITUDE_COCKPIT_MAINPANEL_PEDESTAL_COMP.PNG.DDS","extras":"ASOBO_image_converted_meta"},{"uri":"TEXTURE\\LONGITUDE_COCKPIT_MAINPANEL_PEDESTAL_NORM.PNG.DDS","extras":"ASOBO_image_converted_meta"},{"uri":"TEXTURE\\LONGITUDE_COCKPIT_MAINPANEL_PEDESTAL_EMIS.PNG.DDS","extras":"ASOBO_image_converted_meta"}]}
