{"accessors":[{"bufferView":0,"componentType":5126,"count":216,"min":[-14.440879821777344,-1.7588499784469605,-20.862829208374025],"max":[14.440879821777344,8.852490425109864,15.709320068359375],"type":"VEC3","name":"part000.006_vertices#0_POSITION"},{"bufferView":0,"byteOffset":12,"componentType":5120,"count":216,"type":"VEC4","name":"part000.006_vertices#0_TANGENT"},{"bufferView":0,"byteOffset":16,"componentType":5120,"count":216,"type":"VEC4","name":"part000.006_vertices#0_NORMAL"},{"bufferView":0,"byteOffset":20,"componentType":5122,"count":216,"type":"VEC2","name":"part000.006_vertices#0_TEXCOORD_0"},{"bufferView":0,"byteOffset":24,"componentType":5122,"count":216,"type":"VEC2","name":"part000.006_vertices#0_TEXCOORD_1"},{"bufferView":0,"byteOffset":28,"componentType":5123,"count":216,"type":"VEC4","name":"part000.006_vertices#0_COLOR_0"},{"bufferView":1,"componentType":5123,"count":432,"type":"SCALAR","name":"part000.006_indices#0"}],"asset":{"generator":"Khronos glTF Blender I/O v3.6.28 and Asobo Studio MSFS Blender I/O v1.3.3","version":"2.0","extensions":{"ASOBO_asset_optimized":{"BoundingBoxMax":[14.440879821777344,8.852490425109864,15.709320068359375],"BoundingBoxMin":[-14.440879821777344,-1.7588499784469605,-20.862829208374025],"MajorVersion":4,"MinorVersion":4,"UseCheckerboardMaterialForMissingTextures":true,"UseOnlyFilenameForImageURI":true},"ASOBO_normal_map_convention":{"tangent_space_convention":"DirectX"}}},"bufferViews":[{"buffer":0,"byteLength":7776,"byteStride":36,"target":34962,"name":"BufferViewVertexND"},{"buffer":0,"byteLength":864,"byteOffset":7776,"target":34963,"name":"BufferViewIndex"}],"extensionsRequired":["MSFT_texture_dds"],"materials":[{"name":"livery","occlusionTexture":{"index":0},"pbrMetallicRoughness":{"baseColorTexture":{"index":1},"metallicRoughnessTexture":{"index":0}}}],"meshes":[{"primitives":[{"attributes":{"COLOR_0":5,"NORMAL":2,"POSITION":0,"TANGENT":1,"TEXCOORD_0":3,"TEXCOORD_1":4},"indices":6,"material":0,"mode":4,"extras":{"ASOBO_primitive":{"PrimitiveCount":144,"VertexType":"VTX","VertexVersion":2}}}],"name":"part000.006"}],"nodes":[{"translation":[0.08850924670696259,0.14398795366287232,0.24235136806964872],"rotation":[-0.2714405655860901,-0.9599239826202392,0.06712431460618973,0.01898094080388546],"name":"attachpt_landing_5.004"},{"name":"node31_anim_custom_anim_SIM_ON_GROUND_00","children":[0]},{"rotation":[0.0,0.0,0.5877851843833923,0.8090170621871948],"name":"node60.004","children":[1]},{"name":"node30_anim_custom_anim_GEAR_ANIMATION_POSITION_0_05.002","children":[2]},{"translation":[0.0,0.05697008967399597,-1.2941184043884276],"name":"node59.004","children":[3]},{"name":"node29_anim_custom_anim_GEAR_ANIMATION_POSITION_0_05","children":[4]},{"translation":[0.0,11.588000297546389,-0.7970010042190552],"rotation":[0.8290376663208008,0.0,0.0,0.5591927766799927],"name":"node58.004","children":[5]},{"translation":[0.018677465617656709,-0.05701116472482681,-0.0015319036319851876],"rotation":[0.6584301590919495,-0.3878452181816101,0.5557646751403809,0.3273705244064331],"name":"attachpt_landing_3.004"},{"name":"node34_anim_custom_anim_SIM_ON_GROUND_03.002","children":[7]},{"translation":[0.5693957209587097,0.015904830768704416,-0.12925036251544953],"rotation":[0.0,0.0,-0.25038009881973269,0.9681476354599],"name":"node63.004","children":[8]},{"name":"node33_anim_custom_anim_SIM_ON_GROUND_03","children":[9]},{"translation":[-9.210925102233889,-4.335062026977539,0.1413699984550476],"rotation":[0.4560951292514801,-0.4560950994491577,-0.5403492450714111,0.5403491854667664],"name":"node62.004","children":[10]},{"translation":[-0.01586960256099701,-0.05174916237592697,0.01006915047764778],"rotation":[0.4600581228733063,-0.45209768414497378,0.5450441837310791,0.5356130003929138],"name":"attachpt_landing_2.004"},{"name":"node37_anim_custom_anim_SIM_ON_GROUND_03.002","children":[12]},{"translation":[0.5694022178649902,0.015891125425696374,0.12915775179862977],"name":"node66.004","children":[13]},{"name":"node36_anim_custom_anim_SIM_ON_GROUND_03","children":[14]},{"translation":[9.21099853515625,-4.335061073303223,0.1413699984550476],"rotation":[0.5403491854667664,-0.5403491854667664,-0.4560951590538025,0.4560951590538025],"name":"node65.004","children":[15]},{"rotation":[0.0,0.7071068286895752,0.7071068286895752,4.329638357520163e-17],"name":"node43.004","children":[6,11,16]},{"mesh":0,"name":"node9"},{"name":"node0.004","children":[17,18]},{"translation":[2.322722911834717,-0.0990130826830864,1.6217920780181885],"name":"landing_l"},{"translation":[-2.3227200508117677,-0.0990130826830864,1.6217920780181885],"name":"landing_r"},{"translation":[2.142201662063598,-0.0822204202413559,1.7339680194854737],"name":"rwyturnoff_l"},{"translation":[-2.142199993133545,-0.0822204202413559,1.7339680194854737],"name":"rwyturnoff_r"},{"translation":[-14.24447250366211,0.886856198310852,-6.965328216552734],"name":"nav_white_r"},{"translation":[14.244500160217284,0.886856198310852,-6.965328216552734],"name":"nav_white_l"},{"translation":[0.0,2.3381524085998537,-19.526151657104493],"name":"strobe_rear"},{"translation":[-0.003240048885345459,-1.15557062625885,1.3517274856567386],"name":"beacon_belly"},{"translation":[-0.003240048885345459,2.898714780807495,1.3517274856567386],"name":"beacon_top"},{"translation":[14.378802299499512,0.9530202150344848,-5.698269844055176],"name":"nav_red_l1"},{"translation":[14.416651725769045,0.9599697589874268,-6.010997772216797],"name":"nav_red_l2"},{"translation":[-14.37880039215088,0.9530202150344848,-5.698269844055176],"name":"nav_green_r1"},{"translation":[-14.41670036315918,0.9599697589874268,-6.010997772216797],"name":"nav_green_r2"},{"translation":[14.415757179260254,0.9564950466156006,-5.847683906555176],"name":"strobe_l"},{"translation":[-14.415800094604493,0.9564950466156006,-5.847683906555176],"name":"strobe_r"},{"translation":[4.1881303787231449,2.525923728942871,-18.99442672729492],"name":"logo_l"},{"translation":[-4.188129901885986,2.525923728942871,-18.99442672729492],"name":"logo_r"},{"translation":[-0.20600710809230805,-2.1759212017059328,11.640788078308104],"name":"fx_tire_contactPoint_center_right"},{"translation":[0.2060070037841797,-2.1759212017059328,11.640788078308104],"name":"fx_tire_contactPoint_center_left"},{"translation":[3.02919864654541,-2.299898862838745,-2.6620407104492189],"name":"fx_tire_contactPoint_left_out"},{"translation":[2.196223735809326,-2.299898862838745,-2.6620407104492189],"name":"fx_tire_contactPoint_left_in"},{"translation":[-2.1962199211120607,-2.299898862838745,-2.6620407104492189],"name":"fx_tire_contactPoint_right_in"},{"translation":[-3.0292000770568849,-2.299898862838745,-2.6620407104492189],"name":"fx_tire_contactPoint_right_out"},{"translation":[-4.974437236785889,-0.9263951182365416,-0.9639528393745422],"name":"fx_exhaust_right"},{"translation":[4.974440097808838,-0.9263951182365416,-0.9639528393745422],"name":"fx_exhaust_left"},{"translation":[-9.079768180847168,0.08264321088790894,-4.88859224319458],"rotation":[0.7131630778312683,-0.0010363105684518815,0.0010360728483647109,0.7009966969490051],"name":"landing_out_r"},{"translation":[9.08922290802002,0.07701055705547333,-4.893153190612793],"rotation":[0.7071065902709961,0.0,0.0,0.7071070671081543],"name":"landing_out_l"},{"translation":[-0.0000023370739654637875,-0.2149719595909119,12.493284225463868],"rotation":[-0.8038567900657654,0.0,0.0,0.594822883605957],"name":"gear_light.001"}],"scene":0,"scenes":[{"nodes":[19,20,21,22,23,24,25,26,27,28,29,30,31,32,33,34,35,36,37,38,39,40,41,42,43,44,45,46,47],"name":"Scene"}],"textures":[{"extensions":{"MSFT_texture_dds":{"source":0}}},{"extensions":{"MSFT_texture_dds":{"source":1}}}],"samplers":[{"magFilter":9729,"minFilter":9987,"wrapS":10497,"wrapT":10497}],"extensionsUsed":["ASOBO_normal_map_convention","MSFT_texture_dds","ASOBO_asset_optimized"],"buffers":[{"byteLength":8640,"uri":"FAIB_B734F_LOD4.bin"}],"images":[{"uri":"FAIB_B734F_M.PNG.DDS","name":"FAIB_B734F_M","extras":"ASOBO_image_converted_meta"},{"uri":"FAIB_B734F_T.PNG.DDS","name":"FAIB_B734F_T","extras":"ASOBO_image_converted_meta"}]}
