{"accessors":[{"bufferView":0,"componentType":5126,"count":200,"min":[0.041666666666666667],"max":[8.333333333333334],"type":"SCALAR"},{"bufferView":1,"componentType":5126,"count":200,"type":"VEC4"},{"bufferView":2,"componentType":5126,"count":200,"type":"VEC4"},{"bufferView":3,"componentType":5126,"count":200,"type":"VEC3"},{"bufferView":4,"componentType":5126,"count":100,"min":[0.041666666666666667],"max":[4.166666666666667],"type":"SCALAR"},{"bufferView":5,"componentType":5126,"count":100,"type":"VEC3"},{"bufferView":6,"componentType":5126,"count":200,"type":"VEC4"},{"bufferView":7,"componentType":5126,"count":200,"type":"VEC3"},{"bufferView":8,"componentType":5126,"count":200,"type":"VEC4"},{"bufferView":9,"componentType":5126,"count":200,"type":"VEC3"},{"bufferView":10,"componentType":5126,"count":100,"type":"VEC4"},{"bufferView":11,"componentType":5126,"count":100,"type":"VEC4"},{"bufferView":12,"componentType":5126,"count":100,"type":"VEC4"},{"bufferView":13,"componentType":5126,"count":100,"type":"VEC4"},{"bufferView":14,"componentType":5126,"count":100,"type":"VEC3"},{"bufferView":15,"componentType":5126,"count":100,"type":"VEC4"},{"bufferView":16,"componentType":5126,"count":100,"type":"VEC3"},{"bufferView":17,"componentType":5126,"count":100,"type":"VEC4"},{"bufferView":18,"componentType":5126,"count":100,"type":"VEC3"},{"bufferView":19,"componentType":5126,"count":100,"type":"VEC4"},{"bufferView":20,"componentType":5126,"count":100,"type":"VEC3"},{"bufferView":21,"componentType":5126,"count":100,"type":"VEC4"},{"bufferView":22,"componentType":5126,"count":100,"type":"VEC3"},{"bufferView":23,"componentType":5126,"count":100,"type":"VEC4"},{"bufferView":24,"componentType":5126,"count":100,"type":"VEC3"},{"bufferView":25,"componentType":5126,"count":100,"type":"VEC4"},{"bufferView":26,"componentType":5126,"count":100,"type":"VEC3"},{"bufferView":27,"componentType":5126,"count":100,"type":"VEC4"},{"bufferView":28,"componentType":5126,"count":100,"type":"VEC3"},{"bufferView":29,"componentType":5126,"count":100,"type":"VEC4"},{"bufferView":30,"componentType":5126,"count":100,"type":"VEC4"},{"bufferView":31,"componentType":5126,"count":100,"type":"VEC4"},{"bufferView":32,"componentType":5126,"count":100,"type":"VEC4"},{"bufferView":33,"componentType":5126,"count":100,"type":"VEC4"},{"bufferView":34,"componentType":5126,"count":100,"type":"VEC4"},{"bufferView":35,"componentType":5126,"count":100,"type":"VEC4"},{"bufferView":36,"componentType":5126,"count":116,"min":[-7.105790138244629,-1.5361602306365967,-2.3247501850128176],"max":[7.105790138244629,0.0,0.2422100305557251],"type":"VEC3","name":"part003.003_vertices#0_POSITION"},{"bufferView":36,"byteOffset":12,"componentType":5120,"count":116,"type":"VEC4","name":"part003.003_vertices#0_TANGENT"},{"bufferView":36,"byteOffset":16,"componentType":5120,"count":116,"type":"VEC4","name":"part003.003_vertices#0_NORMAL"},{"bufferView":36,"byteOffset":20,"componentType":5122,"count":116,"type":"VEC2","name":"part003.003_vertices#0_TEXCOORD_0"},{"bufferView":36,"byteOffset":24,"componentType":5122,"count":116,"type":"VEC2","name":"part003.003_vertices#0_TEXCOORD_1"},{"bufferView":36,"byteOffset":28,"componentType":5123,"count":116,"type":"VEC4","name":"part003.003_vertices#0_COLOR_0"},{"bufferView":37,"componentType":5123,"count":228,"type":"SCALAR","name":"part003.003_indices#0"},{"bufferView":36,"byteOffset":4176,"componentType":5126,"count":10,"min":[-0.09375999867916107,-0.04694000631570816,-0.08232000470161438],"max":[0.09375999867916107,1.3495301008224488,0.08049000799655914],"type":"VEC3","name":"part004.011_vertices#0_POSITION"},{"bufferView":36,"byteOffset":4188,"componentType":5120,"count":10,"type":"VEC4","name":"part004.011_vertices#0_TANGENT"},{"bufferView":36,"byteOffset":4192,"componentType":5120,"count":10,"type":"VEC4","name":"part004.011_vertices#0_NORMAL"},{"bufferView":36,"byteOffset":4196,"componentType":5122,"count":10,"type":"VEC2","name":"part004.011_vertices#0_TEXCOORD_0"},{"bufferView":36,"byteOffset":4200,"componentType":5122,"count":10,"type":"VEC2","name":"part004.011_vertices#0_TEXCOORD_1"},{"bufferView":36,"byteOffset":4204,"componentType":5123,"count":10,"type":"VEC4","name":"part004.011_vertices#0_COLOR_0"},{"bufferView":37,"byteOffset":456,"componentType":5123,"count":18,"type":"SCALAR","name":"part004.011_indices#0"},{"bufferView":36,"byteOffset":4536,"componentType":5126,"count":48,"min":[-0.38192999362945559,-0.010390001349151135,-0.3629400432109833],"max":[0.38192999362945559,0.8483000993728638,0.4021100699901581],"type":"VEC3","name":"part005.003_vertices#0_POSITION"},{"bufferView":36,"byteOffset":4548,"componentType":5120,"count":48,"type":"VEC4","name":"part005.003_vertices#0_TANGENT"},{"bufferView":36,"byteOffset":4552,"componentType":5120,"count":48,"type":"VEC4","name":"part005.003_vertices#0_NORMAL"},{"bufferView":36,"byteOffset":4556,"componentType":5122,"count":48,"type":"VEC2","name":"part005.003_vertices#0_TEXCOORD_0"},{"bufferView":36,"byteOffset":4560,"componentType":5122,"count":48,"type":"VEC2","name":"part005.003_vertices#0_TEXCOORD_1"},{"bufferView":36,"byteOffset":4564,"componentType":5123,"count":48,"type":"VEC4","name":"part005.003_vertices#0_COLOR_0"},{"bufferView":37,"byteOffset":492,"componentType":5123,"count":84,"type":"SCALAR","name":"part005.003_indices#0"},{"bufferView":36,"byteOffset":6264,"componentType":5126,"count":12,"min":[0.09332996606826782,-0.5431501865386963,-0.15749001502990724],"max":[2.2519991397857668,0.06436002254486084,0.07608000934123993],"type":"VEC3","name":"part006.003_vertices#0_POSITION"},{"bufferView":36,"byteOffset":6276,"componentType":5120,"count":12,"type":"VEC4","name":"part006.003_vertices#0_TANGENT"},{"bufferView":36,"byteOffset":6280,"componentType":5120,"count":12,"type":"VEC4","name":"part006.003_vertices#0_NORMAL"},{"bufferView":36,"byteOffset":6284,"componentType":5122,"count":12,"type":"VEC2","name":"part006.003_vertices#0_TEXCOORD_0"},{"bufferView":36,"byteOffset":6288,"componentType":5122,"count":12,"type":"VEC2","name":"part006.003_vertices#0_TEXCOORD_1"},{"bufferView":36,"byteOffset":6292,"componentType":5123,"count":12,"type":"VEC4","name":"part006.003_vertices#0_COLOR_0"},{"bufferView":37,"byteOffset":660,"componentType":5123,"count":24,"type":"SCALAR","name":"part006.003_indices#0"},{"bufferView":36,"byteOffset":6696,"componentType":5126,"count":46,"min":[-0.6559997200965881,-0.6393802762031555,-1.2735304832458497],"max":[0.6560096740722656,0.6082903146743774,0.02429000847041607],"type":"VEC3","name":"part007.003_vertices#0_POSITION"},{"bufferView":36,"byteOffset":6708,"componentType":5120,"count":46,"type":"VEC4","name":"part007.003_vertices#0_TANGENT"},{"bufferView":36,"byteOffset":6712,"componentType":5120,"count":46,"type":"VEC4","name":"part007.003_vertices#0_NORMAL"},{"bufferView":36,"byteOffset":6716,"componentType":5122,"count":46,"type":"VEC2","name":"part007.003_vertices#0_TEXCOORD_0"},{"bufferView":36,"byteOffset":6720,"componentType":5122,"count":46,"type":"VEC2","name":"part007.003_vertices#0_TEXCOORD_1"},{"bufferView":36,"byteOffset":6724,"componentType":5123,"count":46,"type":"VEC4","name":"part007.003_vertices#0_COLOR_0"},{"bufferView":37,"byteOffset":708,"componentType":5123,"count":90,"type":"SCALAR","name":"part007.003_indices#0"},{"bufferView":36,"byteOffset":8352,"componentType":5126,"count":12,"min":[-2.2520499229431154,-0.06464999914169312,-0.07610996067523956],"max":[-0.09339000284671784,0.5428400039672852,0.15745992958545686],"type":"VEC3","name":"part008.003_vertices#0_POSITION"},{"bufferView":36,"byteOffset":8364,"componentType":5120,"count":12,"type":"VEC4","name":"part008.003_vertices#0_TANGENT"},{"bufferView":36,"byteOffset":8368,"componentType":5120,"count":12,"type":"VEC4","name":"part008.003_vertices#0_NORMAL"},{"bufferView":36,"byteOffset":8372,"componentType":5122,"count":12,"type":"VEC2","name":"part008.003_vertices#0_TEXCOORD_0"},{"bufferView":36,"byteOffset":8376,"componentType":5122,"count":12,"type":"VEC2","name":"part008.003_vertices#0_TEXCOORD_1"},{"bufferView":36,"byteOffset":8380,"componentType":5123,"count":12,"type":"VEC4","name":"part008.003_vertices#0_COLOR_0"},{"bufferView":37,"byteOffset":888,"componentType":5123,"count":24,"type":"SCALAR","name":"part008.003_indices#0"},{"bufferView":36,"byteOffset":8784,"componentType":5126,"count":46,"min":[-0.6563102602958679,-0.6393798589706421,-1.2735190391540528],"max":[0.6557002663612366,0.608289897441864,0.024279983714222909],"type":"VEC3","name":"part009.003_vertices#0_POSITION"},{"bufferView":36,"byteOffset":8796,"componentType":5120,"count":46,"type":"VEC4","name":"part009.003_vertices#0_TANGENT"},{"bufferView":36,"byteOffset":8800,"componentType":5120,"count":46,"type":"VEC4","name":"part009.003_vertices#0_NORMAL"},{"bufferView":36,"byteOffset":8804,"componentType":5122,"count":46,"type":"VEC2","name":"part009.003_vertices#0_TEXCOORD_0"},{"bufferView":36,"byteOffset":8808,"componentType":5122,"count":46,"type":"VEC2","name":"part009.003_vertices#0_TEXCOORD_1"},{"bufferView":36,"byteOffset":8812,"componentType":5123,"count":46,"type":"VEC4","name":"part009.003_vertices#0_COLOR_0"},{"bufferView":37,"byteOffset":936,"componentType":5123,"count":90,"type":"SCALAR","name":"part009.003_indices#0"},{"bufferView":36,"byteOffset":10440,"componentType":5126,"count":8,"min":[0.0,-0.12888000905513764,0.0],"max":[0.6377097964286804,0.0,6.523787498474121],"type":"VEC3","name":"part010.003_vertices#0_POSITION"},{"bufferView":36,"byteOffset":10452,"componentType":5120,"count":8,"type":"VEC4","name":"part010.003_vertices#0_TANGENT"},{"bufferView":36,"byteOffset":10456,"componentType":5120,"count":8,"type":"VEC4","name":"part010.003_vertices#0_NORMAL"},{"bufferView":36,"byteOffset":10460,"componentType":5122,"count":8,"type":"VEC2","name":"part010.003_vertices#0_TEXCOORD_0"},{"bufferView":36,"byteOffset":10464,"componentType":5122,"count":8,"type":"VEC2","name":"part010.003_vertices#0_TEXCOORD_1"},{"bufferView":36,"byteOffset":10468,"componentType":5123,"count":8,"type":"VEC4","name":"part010.003_vertices#0_COLOR_0"},{"bufferView":37,"byteOffset":1116,"componentType":5123,"count":12,"type":"SCALAR","name":"part010.003_indices#0"},{"bufferView":36,"byteOffset":10728,"componentType":5126,"count":8,"min":[0.0,-0.1288900077342987,-6.523787498474121],"max":[0.6377102136611939,0.0,0.0],"type":"VEC3","name":"part011.003_vertices#0_POSITION"},{"bufferView":36,"byteOffset":10740,"componentType":5120,"count":8,"type":"VEC4","name":"part011.003_vertices#0_TANGENT"},{"bufferView":36,"byteOffset":10744,"componentType":5120,"count":8,"type":"VEC4","name":"part011.003_vertices#0_NORMAL"},{"bufferView":36,"byteOffset":10748,"componentType":5122,"count":8,"type":"VEC2","name":"part011.003_vertices#0_TEXCOORD_0"},{"bufferView":36,"byteOffset":10752,"componentType":5122,"count":8,"type":"VEC2","name":"part011.003_vertices#0_TEXCOORD_1"},{"bufferView":36,"byteOffset":10756,"componentType":5123,"count":8,"type":"VEC4","name":"part011.003_vertices#0_COLOR_0"},{"bufferView":37,"byteOffset":1140,"componentType":5123,"count":12,"type":"SCALAR","name":"part011.003_indices#0"},{"bufferView":36,"byteOffset":11016,"componentType":5126,"count":8,"min":[0.0,-0.12038996815681458,-0.00017999995907302946],"max":[0.6799100041389465,-0.00002999999196617864,1.8007795810699463],"type":"VEC3","name":"part012.003_vertices#0_POSITION"},{"bufferView":36,"byteOffset":11028,"componentType":5120,"count":8,"type":"VEC4","name":"part012.003_vertices#0_TANGENT"},{"bufferView":36,"byteOffset":11032,"componentType":5120,"count":8,"type":"VEC4","name":"part012.003_vertices#0_NORMAL"},{"bufferView":36,"byteOffset":11036,"componentType":5122,"count":8,"type":"VEC2","name":"part012.003_vertices#0_TEXCOORD_0"},{"bufferView":36,"byteOffset":11040,"componentType":5122,"count":8,"type":"VEC2","name":"part012.003_vertices#0_TEXCOORD_1"},{"bufferView":36,"byteOffset":11044,"componentType":5123,"count":8,"type":"VEC4","name":"part012.003_vertices#0_COLOR_0"},{"bufferView":37,"byteOffset":1164,"componentType":5123,"count":12,"type":"SCALAR","name":"part012.003_indices#0"},{"bufferView":36,"byteOffset":11304,"componentType":5126,"count":8,"min":[0.0,-0.12034998089075089,-1.8009593486785889],"max":[0.6799100041389465,0.0,0.0],"type":"VEC3","name":"part013.003_vertices#0_POSITION"},{"bufferView":36,"byteOffset":11316,"componentType":5120,"count":8,"type":"VEC4","name":"part013.003_vertices#0_TANGENT"},{"bufferView":36,"byteOffset":11320,"componentType":5120,"count":8,"type":"VEC4","name":"part013.003_vertices#0_NORMAL"},{"bufferView":36,"byteOffset":11324,"componentType":5122,"count":8,"type":"VEC2","name":"part013.003_vertices#0_TEXCOORD_0"},{"bufferView":36,"byteOffset":11328,"componentType":5122,"count":8,"type":"VEC2","name":"part013.003_vertices#0_TEXCOORD_1"},{"bufferView":36,"byteOffset":11332,"componentType":5123,"count":8,"type":"VEC4","name":"part013.003_vertices#0_COLOR_0"},{"bufferView":37,"byteOffset":1188,"componentType":5123,"count":12,"type":"SCALAR","name":"part013.003_indices#0"},{"bufferView":36,"byteOffset":11592,"componentType":5126,"count":23,"min":[0.0,0.0,-0.03583999350667],"max":[1.2261199951171876,0.23426999151706696,4.4999589920043949],"type":"VEC3","name":"part014.003_vertices#0_POSITION"},{"bufferView":36,"byteOffset":11604,"componentType":5120,"count":23,"type":"VEC4","name":"part014.003_vertices#0_TANGENT"},{"bufferView":36,"byteOffset":11608,"componentType":5120,"count":23,"type":"VEC4","name":"part014.003_vertices#0_NORMAL"},{"bufferView":36,"byteOffset":11612,"componentType":5122,"count":23,"type":"VEC2","name":"part014.003_vertices#0_TEXCOORD_0"},{"bufferView":36,"byteOffset":11616,"componentType":5122,"count":23,"type":"VEC2","name":"part014.003_vertices#0_TEXCOORD_1"},{"bufferView":36,"byteOffset":11620,"componentType":5123,"count":23,"type":"VEC4","name":"part014.003_vertices#0_COLOR_0"},{"bufferView":37,"byteOffset":1212,"componentType":5123,"count":39,"type":"SCALAR","name":"part014.003_indices#0"},{"bufferView":36,"byteOffset":12420,"componentType":5126,"count":8,"min":[0.0,-0.00009999996836995706,-3.1967194080352785],"max":[0.4440201222896576,0.021369991824030877,-0.0006099998718127608],"type":"VEC3","name":"part015.003_vertices#0_POSITION"},{"bufferView":36,"byteOffset":12432,"componentType":5120,"count":8,"type":"VEC4","name":"part015.003_vertices#0_TANGENT"},{"bufferView":36,"byteOffset":12436,"componentType":5120,"count":8,"type":"VEC4","name":"part015.003_vertices#0_NORMAL"},{"bufferView":36,"byteOffset":12440,"componentType":5122,"count":8,"type":"VEC2","name":"part015.003_vertices#0_TEXCOORD_0"},{"bufferView":36,"byteOffset":12444,"componentType":5122,"count":8,"type":"VEC2","name":"part015.003_vertices#0_TEXCOORD_1"},{"bufferView":36,"byteOffset":12448,"componentType":5123,"count":8,"type":"VEC4","name":"part015.003_vertices#0_COLOR_0"},{"bufferView":37,"byteOffset":1290,"componentType":5123,"count":12,"type":"SCALAR","name":"part015.003_indices#0"},{"bufferView":36,"byteOffset":12708,"componentType":5126,"count":23,"min":[0.0,0.0,-4.499861240386963],"max":[1.2261199951171876,0.23426008224487306,0.035950012505054477],"type":"VEC3","name":"part016.003_vertices#0_POSITION"},{"bufferView":36,"byteOffset":12720,"componentType":5120,"count":23,"type":"VEC4","name":"part016.003_vertices#0_TANGENT"},{"bufferView":36,"byteOffset":12724,"componentType":5120,"count":23,"type":"VEC4","name":"part016.003_vertices#0_NORMAL"},{"bufferView":36,"byteOffset":12728,"componentType":5122,"count":23,"type":"VEC2","name":"part016.003_vertices#0_TEXCOORD_0"},{"bufferView":36,"byteOffset":12732,"componentType":5122,"count":23,"type":"VEC2","name":"part016.003_vertices#0_TEXCOORD_1"},{"bufferView":36,"byteOffset":12736,"componentType":5123,"count":23,"type":"VEC4","name":"part016.003_vertices#0_COLOR_0"},{"bufferView":37,"byteOffset":1314,"componentType":5123,"count":39,"type":"SCALAR","name":"part016.003_indices#0"},{"bufferView":36,"byteOffset":13536,"componentType":5126,"count":8,"min":[0.0,0.0,0.0],"max":[0.4440201222896576,0.02144000306725502,3.1961212158203127],"type":"VEC3","name":"part017.003_vertices#0_POSITION"},{"bufferView":36,"byteOffset":13548,"componentType":5120,"count":8,"type":"VEC4","name":"part017.003_vertices#0_TANGENT"},{"bufferView":36,"byteOffset":13552,"componentType":5120,"count":8,"type":"VEC4","name":"part017.003_vertices#0_NORMAL"},{"bufferView":36,"byteOffset":13556,"componentType":5122,"count":8,"type":"VEC2","name":"part017.003_vertices#0_TEXCOORD_0"},{"bufferView":36,"byteOffset":13560,"componentType":5122,"count":8,"type":"VEC2","name":"part017.003_vertices#0_TEXCOORD_1"},{"bufferView":36,"byteOffset":13564,"componentType":5123,"count":8,"type":"VEC4","name":"part017.003_vertices#0_COLOR_0"},{"bufferView":37,"byteOffset":1392,"componentType":5123,"count":12,"type":"SCALAR","name":"part017.003_indices#0"},{"bufferView":36,"byteOffset":13824,"componentType":5126,"count":28,"min":[-0.000040000002627493817,-0.000009999997018894647,-0.23712995648384095],"max":[1.1518501043319703,0.2165699452161789,7.480588436126709],"type":"VEC3","name":"part018.003_vertices#0_POSITION"},{"bufferView":36,"byteOffset":13836,"componentType":5120,"count":28,"type":"VEC4","name":"part018.003_vertices#0_TANGENT"},{"bufferView":36,"byteOffset":13840,"componentType":5120,"count":28,"type":"VEC4","name":"part018.003_vertices#0_NORMAL"},{"bufferView":36,"byteOffset":13844,"componentType":5122,"count":28,"type":"VEC2","name":"part018.003_vertices#0_TEXCOORD_0"},{"bufferView":36,"byteOffset":13848,"componentType":5122,"count":28,"type":"VEC2","name":"part018.003_vertices#0_TEXCOORD_1"},{"bufferView":36,"byteOffset":13852,"componentType":5123,"count":28,"type":"VEC4","name":"part018.003_vertices#0_COLOR_0"},{"bufferView":37,"byteOffset":1416,"componentType":5123,"count":54,"type":"SCALAR","name":"part018.003_indices#0"},{"bufferView":36,"byteOffset":14832,"componentType":5126,"count":8,"min":[-0.00006999997276579961,-0.000019999999494757504,-6.296871662139893],"max":[0.43301984667778017,0.019439999014139177,-0.0002200000308221206],"type":"VEC3","name":"part019.003_vertices#0_POSITION"},{"bufferView":36,"byteOffset":14844,"componentType":5120,"count":8,"type":"VEC4","name":"part019.003_vertices#0_TANGENT"},{"bufferView":36,"byteOffset":14848,"componentType":5120,"count":8,"type":"VEC4","name":"part019.003_vertices#0_NORMAL"},{"bufferView":36,"byteOffset":14852,"componentType":5122,"count":8,"type":"VEC2","name":"part019.003_vertices#0_TEXCOORD_0"},{"bufferView":36,"byteOffset":14856,"componentType":5122,"count":8,"type":"VEC2","name":"part019.003_vertices#0_TEXCOORD_1"},{"bufferView":36,"byteOffset":14860,"componentType":5123,"count":8,"type":"VEC4","name":"part019.003_vertices#0_COLOR_0"},{"bufferView":37,"byteOffset":1524,"componentType":5123,"count":12,"type":"SCALAR","name":"part019.003_indices#0"},{"bufferView":36,"byteOffset":15120,"componentType":5126,"count":28,"min":[-0.000010000000656873454,0.0,-7.480678558349609],"max":[1.151880145072937,0.21657995879650117,0.2370399534702301],"type":"VEC3","name":"part020.003_vertices#0_POSITION"},{"bufferView":36,"byteOffset":15132,"componentType":5120,"count":28,"type":"VEC4","name":"part020.003_vertices#0_TANGENT"},{"bufferView":36,"byteOffset":15136,"componentType":5120,"count":28,"type":"VEC4","name":"part020.003_vertices#0_NORMAL"},{"bufferView":36,"byteOffset":15140,"componentType":5122,"count":28,"type":"VEC2","name":"part020.003_vertices#0_TEXCOORD_0"},{"bufferView":36,"byteOffset":15144,"componentType":5122,"count":28,"type":"VEC2","name":"part020.003_vertices#0_TEXCOORD_1"},{"bufferView":36,"byteOffset":15148,"componentType":5123,"count":28,"type":"VEC4","name":"part020.003_vertices#0_COLOR_0"},{"bufferView":37,"byteOffset":1548,"componentType":5123,"count":54,"type":"SCALAR","name":"part020.003_indices#0"},{"bufferView":36,"byteOffset":16128,"componentType":5126,"count":8,"min":[-0.000009999996109399945,0.0,0.0],"max":[0.43308985233306887,0.019449999555945398,6.2966413497924809],"type":"VEC3","name":"part021.003_vertices#0_POSITION"},{"bufferView":36,"byteOffset":16140,"componentType":5120,"count":8,"type":"VEC4","name":"part021.003_vertices#0_TANGENT"},{"bufferView":36,"byteOffset":16144,"componentType":5120,"count":8,"type":"VEC4","name":"part021.003_vertices#0_NORMAL"},{"bufferView":36,"byteOffset":16148,"componentType":5122,"count":8,"type":"VEC2","name":"part021.003_vertices#0_TEXCOORD_0"},{"bufferView":36,"byteOffset":16152,"componentType":5122,"count":8,"type":"VEC2","name":"part021.003_vertices#0_TEXCOORD_1"},{"bufferView":36,"byteOffset":16156,"componentType":5123,"count":8,"type":"VEC4","name":"part021.003_vertices#0_COLOR_0"},{"bufferView":37,"byteOffset":1656,"componentType":5123,"count":12,"type":"SCALAR","name":"part021.003_indices#0"},{"bufferView":36,"byteOffset":16416,"componentType":5126,"count":14,"min":[0.0,-0.05494997277855873,-0.31381985545158389],"max":[2.415479898452759,0.30345985293388369,-0.010569995269179345],"type":"VEC3","name":"part022.003_vertices#0_POSITION"},{"bufferView":36,"byteOffset":16428,"componentType":5120,"count":14,"type":"VEC4","name":"part022.003_vertices#0_TANGENT"},{"bufferView":36,"byteOffset":16432,"componentType":5120,"count":14,"type":"VEC4","name":"part022.003_vertices#0_NORMAL"},{"bufferView":36,"byteOffset":16436,"componentType":5122,"count":14,"type":"VEC2","name":"part022.003_vertices#0_TEXCOORD_0"},{"bufferView":36,"byteOffset":16440,"componentType":5122,"count":14,"type":"VEC2","name":"part022.003_vertices#0_TEXCOORD_1"},{"bufferView":36,"byteOffset":16444,"componentType":5123,"count":14,"type":"VEC4","name":"part022.003_vertices#0_COLOR_0"},{"bufferView":37,"byteOffset":1680,"componentType":5123,"count":18,"type":"SCALAR","name":"part022.003_indices#0"},{"bufferView":36,"byteOffset":16920,"componentType":5126,"count":14,"min":[-0.000029999999242136256,-0.054950013756752017,-0.31928008794784548],"max":[2.0721099376678469,0.31126007437705996,0.015520003624260426],"type":"VEC3","name":"part023.003_vertices#0_POSITION"},{"bufferView":36,"byteOffset":16932,"componentType":5120,"count":14,"type":"VEC4","name":"part023.003_vertices#0_TANGENT"},{"bufferView":36,"byteOffset":16936,"componentType":5120,"count":14,"type":"VEC4","name":"part023.003_vertices#0_NORMAL"},{"bufferView":36,"byteOffset":16940,"componentType":5122,"count":14,"type":"VEC2","name":"part023.003_vertices#0_TEXCOORD_0"},{"bufferView":36,"byteOffset":16944,"componentType":5122,"count":14,"type":"VEC2","name":"part023.003_vertices#0_TEXCOORD_1"},{"bufferView":36,"byteOffset":16948,"componentType":5123,"count":14,"type":"VEC4","name":"part023.003_vertices#0_COLOR_0"},{"bufferView":37,"byteOffset":1716,"componentType":5123,"count":18,"type":"SCALAR","name":"part023.003_indices#0"},{"bufferView":36,"byteOffset":17424,"componentType":5126,"count":14,"min":[-0.000029999999242136256,-0.10505995154380799,-0.3018898665904999],"max":[1.7385599613189698,0.2717398703098297,0.0015799993416294456],"type":"VEC3","name":"part024.003_vertices#0_POSITION"},{"bufferView":36,"byteOffset":17436,"componentType":5120,"count":14,"type":"VEC4","name":"part024.003_vertices#0_TANGENT"},{"bufferView":36,"byteOffset":17440,"componentType":5120,"count":14,"type":"VEC4","name":"part024.003_vertices#0_NORMAL"},{"bufferView":36,"byteOffset":17444,"componentType":5122,"count":14,"type":"VEC2","name":"part024.003_vertices#0_TEXCOORD_0"},{"bufferView":36,"byteOffset":17448,"componentType":5122,"count":14,"type":"VEC2","name":"part024.003_vertices#0_TEXCOORD_1"},{"bufferView":36,"byteOffset":17452,"componentType":5123,"count":14,"type":"VEC4","name":"part024.003_vertices#0_COLOR_0"},{"bufferView":37,"byteOffset":1752,"componentType":5123,"count":18,"type":"SCALAR","name":"part024.003_indices#0"},{"bufferView":36,"byteOffset":17928,"componentType":5126,"count":14,"min":[0.0,-0.05495000630617142,0.010560001246631146],"max":[2.415479898452759,0.303460031747818,0.3138200342655182],"type":"VEC3","name":"part025.003_vertices#0_POSITION"},{"bufferView":36,"byteOffset":17940,"componentType":5120,"count":14,"type":"VEC4","name":"part025.003_vertices#0_TANGENT"},{"bufferView":36,"byteOffset":17944,"componentType":5120,"count":14,"type":"VEC4","name":"part025.003_vertices#0_NORMAL"},{"bufferView":36,"byteOffset":17948,"componentType":5122,"count":14,"type":"VEC2","name":"part025.003_vertices#0_TEXCOORD_0"},{"bufferView":36,"byteOffset":17952,"componentType":5122,"count":14,"type":"VEC2","name":"part025.003_vertices#0_TEXCOORD_1"},{"bufferView":36,"byteOffset":17956,"componentType":5123,"count":14,"type":"VEC4","name":"part025.003_vertices#0_COLOR_0"},{"bufferView":37,"byteOffset":1788,"componentType":5123,"count":18,"type":"SCALAR","name":"part025.003_indices#0"},{"bufferView":36,"byteOffset":18432,"componentType":5126,"count":14,"min":[-0.000029999999242136256,-0.054950013756752017,-0.015530004166066647],"max":[2.0721099376678469,0.31126007437705996,0.31928008794784548],"type":"VEC3","name":"part026.003_vertices#0_POSITION"},{"bufferView":36,"byteOffset":18444,"componentType":5120,"count":14,"type":"VEC4","name":"part026.003_vertices#0_TANGENT"},{"bufferView":36,"byteOffset":18448,"componentType":5120,"count":14,"type":"VEC4","name":"part026.003_vertices#0_NORMAL"},{"bufferView":36,"byteOffset":18452,"componentType":5122,"count":14,"type":"VEC2","name":"part026.003_vertices#0_TEXCOORD_0"},{"bufferView":36,"byteOffset":18456,"componentType":5122,"count":14,"type":"VEC2","name":"part026.003_vertices#0_TEXCOORD_1"},{"bufferView":36,"byteOffset":18460,"componentType":5123,"count":14,"type":"VEC4","name":"part026.003_vertices#0_COLOR_0"},{"bufferView":37,"byteOffset":1824,"componentType":5123,"count":18,"type":"SCALAR","name":"part026.003_indices#0"},{"bufferView":36,"byteOffset":18936,"componentType":5126,"count":14,"min":[-0.000029999999242136256,-0.1050499677658081,-0.001479999627918005],"max":[1.7385599613189698,0.27174991369247439,0.30198994278907778],"type":"VEC3","name":"part027.003_vertices#0_POSITION"},{"bufferView":36,"byteOffset":18948,"componentType":5120,"count":14,"type":"VEC4","name":"part027.003_vertices#0_TANGENT"},{"bufferView":36,"byteOffset":18952,"componentType":5120,"count":14,"type":"VEC4","name":"part027.003_vertices#0_NORMAL"},{"bufferView":36,"byteOffset":18956,"componentType":5122,"count":14,"type":"VEC2","name":"part027.003_vertices#0_TEXCOORD_0"},{"bufferView":36,"byteOffset":18960,"componentType":5122,"count":14,"type":"VEC2","name":"part027.003_vertices#0_TEXCOORD_1"},{"bufferView":36,"byteOffset":18964,"componentType":5123,"count":14,"type":"VEC4","name":"part027.003_vertices#0_COLOR_0"},{"bufferView":37,"byteOffset":1860,"componentType":5123,"count":18,"type":"SCALAR","name":"part027.003_indices#0"},{"bufferView":36,"byteOffset":19440,"componentType":5126,"count":522,"min":[-17.70030975341797,-2.8884100914001467,-23.666000366210939],"max":[17.70030975341797,8.408300399780274,20.532459259033204],"type":"VEC3","name":"part002.003_vertices#0_POSITION"},{"bufferView":36,"byteOffset":19452,"componentType":5120,"count":522,"type":"VEC4","name":"part002.003_vertices#0_TANGENT"},{"bufferView":36,"byteOffset":19456,"componentType":5120,"count":522,"type":"VEC4","name":"part002.003_vertices#0_NORMAL"},{"bufferView":36,"byteOffset":19460,"componentType":5122,"count":522,"type":"VEC2","name":"part002.003_vertices#0_TEXCOORD_0"},{"bufferView":36,"byteOffset":19464,"componentType":5122,"count":522,"type":"VEC2","name":"part002.003_vertices#0_TEXCOORD_1"},{"bufferView":36,"byteOffset":19468,"componentType":5123,"count":522,"type":"VEC4","name":"part002.003_vertices#0_COLOR_0"},{"bufferView":37,"byteOffset":1896,"componentType":5123,"count":1506,"type":"SCALAR","name":"part002.003_indices#0"}],"animations":[{"name":"GEAR_center","channels":[{"sampler":0,"target":{"node":35,"path":"rotation"}},{"sampler":1,"target":{"node":42,"path":"rotation"}},{"sampler":2,"target":{"node":39,"path":"translation"}}],"samplers":[{"input":0,"output":1,"interpolation":"LINEAR"},{"input":0,"output":2,"interpolation":"LINEAR"},{"input":0,"output":3,"interpolation":"LINEAR"}]},{"name":"REVERSERS","channels":[{"sampler":0,"target":{"node":37,"path":"translation"}}],"samplers":[{"input":4,"output":5,"interpolation":"LINEAR"}]},{"name":"GEAR_left","channels":[{"sampler":0,"target":{"node":46,"path":"rotation"}},{"sampler":1,"target":{"node":44,"path":"translation"}}],"samplers":[{"input":0,"output":6,"interpolation":"LINEAR"},{"input":0,"output":7,"interpolation":"LINEAR"}]},{"name":"GEAR_right","channels":[{"sampler":0,"target":{"node":50,"path":"rotation"}},{"sampler":1,"target":{"node":48,"path":"translation"}}],"samplers":[{"input":0,"output":8,"interpolation":"LINEAR"},{"input":0,"output":9,"interpolation":"LINEAR"}]},{"name":"SPOILERS","channels":[{"sampler":0,"target":{"node":52,"path":"rotation"}},{"sampler":1,"target":{"node":54,"path":"rotation"}},{"sampler":2,"target":{"node":56,"path":"rotation"}},{"sampler":3,"target":{"node":58,"path":"rotation"}}],"samplers":[{"input":4,"output":10,"interpolation":"LINEAR"},{"input":4,"output":11,"interpolation":"LINEAR"},{"input":4,"output":12,"interpolation":"LINEAR"},{"input":4,"output":13,"interpolation":"LINEAR"}]},{"name":"FLAPS","channels":[{"sampler":0,"target":{"node":62,"path":"translation"}},{"sampler":1,"target":{"node":62,"path":"rotation"}},{"sampler":2,"target":{"node":60,"path":"translation"}},{"sampler":3,"target":{"node":60,"path":"rotation"}},{"sampler":4,"target":{"node":66,"path":"translation"}},{"sampler":5,"target":{"node":66,"path":"rotation"}},{"sampler":6,"target":{"node":64,"path":"translation"}},{"sampler":7,"target":{"node":64,"path":"rotation"}},{"sampler":8,"target":{"node":70,"path":"translation"}},{"sampler":9,"target":{"node":70,"path":"rotation"}},{"sampler":10,"target":{"node":68,"path":"translation"}},{"sampler":11,"target":{"node":68,"path":"rotation"}},{"sampler":12,"target":{"node":74,"path":"translation"}},{"sampler":13,"target":{"node":74,"path":"rotation"}},{"sampler":14,"target":{"node":72,"path":"translation"}},{"sampler":15,"target":{"node":72,"path":"rotation"}},{"sampler":16,"target":{"node":76,"path":"rotation"}},{"sampler":17,"target":{"node":78,"path":"rotation"}},{"sampler":18,"target":{"node":80,"path":"rotation"}},{"sampler":19,"target":{"node":82,"path":"rotation"}},{"sampler":20,"target":{"node":84,"path":"rotation"}},{"sampler":21,"target":{"node":86,"path":"rotation"}}],"samplers":[{"input":4,"output":14,"interpolation":"LINEAR"},{"input":4,"output":15,"interpolation":"LINEAR"},{"input":4,"output":16,"interpolation":"LINEAR"},{"input":4,"output":17,"interpolation":"LINEAR"},{"input":4,"output":18,"interpolation":"LINEAR"},{"input":4,"output":19,"interpolation":"LINEAR"},{"input":4,"output":20,"interpolation":"LINEAR"},{"input":4,"output":21,"interpolation":"LINEAR"},{"input":4,"output":22,"interpolation":"LINEAR"},{"input":4,"output":23,"interpolation":"LINEAR"},{"input":4,"output":24,"interpolation":"LINEAR"},{"input":4,"output":25,"interpolation":"LINEAR"},{"input":4,"output":26,"interpolation":"LINEAR"},{"input":4,"output":27,"interpolation":"LINEAR"},{"input":4,"output":28,"interpolation":"LINEAR"},{"input":4,"output":29,"interpolation":"LINEAR"},{"input":4,"output":30,"interpolation":"LINEAR"},{"input":4,"output":31,"interpolation":"LINEAR"},{"input":4,"output":32,"interpolation":"LINEAR"},{"input":4,"output":33,"interpolation":"LINEAR"},{"input":4,"output":34,"interpolation":"LINEAR"},{"input":4,"output":35,"interpolation":"LINEAR"}]}],"asset":{"generator":"Khronos glTF Blender I/O v3.6.28 and Asobo Studio MSFS2020 Blender I/O v3.3.1 with Blender v3.6.23","version":"2.0","extensions":{"ASOBO_asset_optimized":{"BoundingBoxMax":[17.70030975341797,8.408300399780274,20.532459259033204],"BoundingBoxMin":[-17.70030975341797,-2.8884100914001467,-23.666000366210939],"MajorVersion":4,"MinorVersion":4,"UseCheckerboardMaterialForMissingTextures":true,"UseOnlyFilenameForImageURI":true},"ASOBO_normal_map_convention":{"tangent_space_convention":"DirectX"}}},"bufferViews":[{"buffer":0,"byteLength":800},{"buffer":0,"byteLength":3200,"byteOffset":800},{"buffer":0,"byteLength":3200,"byteOffset":4000},{"buffer":0,"byteLength":2400,"byteOffset":7200},{"buffer":0,"byteLength":400,"byteOffset":9600},{"buffer":0,"byteLength":1200,"byteOffset":10000},{"buffer":0,"byteLength":3200,"byteOffset":11200},{"buffer":0,"byteLength":2400,"byteOffset":14400},{"buffer":0,"byteLength":3200,"byteOffset":16800},{"buffer":0,"byteLength":2400,"byteOffset":20000},{"buffer":0,"byteLength":1600,"byteOffset":22400},{"buffer":0,"byteLength":1600,"byteOffset":24000},{"buffer":0,"byteLength":1600,"byteOffset":25600},{"buffer":0,"byteLength":1600,"byteOffset":27200},{"buffer":0,"byteLength":1200,"byteOffset":28800},{"buffer":0,"byteLength":1600,"byteOffset":30000},{"buffer":0,"byteLength":1200,"byteOffset":31600},{"buffer":0,"byteLength":1600,"byteOffset":32800},{"buffer":0,"byteLength":1200,"byteOffset":34400},{"buffer":0,"byteLength":1600,"byteOffset":35600},{"buffer":0,"byteLength":1200,"byteOffset":37200},{"buffer":0,"byteLength":1600,"byteOffset":38400},{"buffer":0,"byteLength":1200,"byteOffset":40000},{"buffer":0,"byteLength":1600,"byteOffset":41200},{"buffer":0,"byteLength":1200,"byteOffset":42800},{"buffer":0,"byteLength":1600,"byteOffset":44000},{"buffer":0,"byteLength":1200,"byteOffset":45600},{"buffer":0,"byteLength":1600,"byteOffset":46800},{"buffer":0,"byteLength":1200,"byteOffset":48400},{"buffer":0,"byteLength":1600,"byteOffset":49600},{"buffer":0,"byteLength":1600,"byteOffset":51200},{"buffer":0,"byteLength":1600,"byteOffset":52800},{"buffer":0,"byteLength":1600,"byteOffset":54400},{"buffer":0,"byteLength":1600,"byteOffset":56000},{"buffer":0,"byteLength":1600,"byteOffset":57600},{"buffer":0,"byteLength":1600,"byteOffset":59200},{"buffer":0,"byteLength":38232,"byteStride":36,"byteOffset":60800,"target":34962,"name":"BufferViewVertexND"},{"buffer":0,"byteLength":4908,"byteOffset":99032,"target":34963,"name":"BufferViewIndex"}],"extensionsRequired":["MSFT_texture_dds"],"materials":[{"name":"livery","alphaMode":"MASK","occlusionTexture":{"index":0},"pbrMetallicRoughness":{"baseColorTexture":{"index":1},"metallicRoughnessTexture":{"index":0}}}],"meshes":[{"primitives":[{"attributes":{"COLOR_0":41,"NORMAL":38,"POSITION":36,"TANGENT":37,"TEXCOORD_0":39,"TEXCOORD_1":40},"indices":42,"material":0,"mode":4,"extras":{"ASOBO_primitive":{"PrimitiveCount":76,"VertexType":"VTX","VertexVersion":2}}}],"name":"part003.003"},{"primitives":[{"attributes":{"COLOR_0":55,"NORMAL":52,"POSITION":50,"TANGENT":51,"TEXCOORD_0":53,"TEXCOORD_1":54},"indices":56,"material":0,"mode":4,"extras":{"ASOBO_primitive":{"PrimitiveCount":28,"VertexType":"VTX","VertexVersion":2}}}],"name":"part005.003"},{"primitives":[{"attributes":{"COLOR_0":48,"NORMAL":45,"POSITION":43,"TANGENT":44,"TEXCOORD_0":46,"TEXCOORD_1":47},"indices":49,"material":0,"mode":4,"extras":{"ASOBO_primitive":{"PrimitiveCount":6,"VertexType":"VTX","VertexVersion":2}}}],"name":"part004.011"},{"primitives":[{"attributes":{"COLOR_0":69,"NORMAL":66,"POSITION":64,"TANGENT":65,"TEXCOORD_0":67,"TEXCOORD_1":68},"indices":70,"material":0,"mode":4,"extras":{"ASOBO_primitive":{"PrimitiveCount":30,"VertexType":"VTX","VertexVersion":2}}}],"name":"part007.003"},{"primitives":[{"attributes":{"COLOR_0":62,"NORMAL":59,"POSITION":57,"TANGENT":58,"TEXCOORD_0":60,"TEXCOORD_1":61},"indices":63,"material":0,"mode":4,"extras":{"ASOBO_primitive":{"PrimitiveCount":8,"VertexType":"VTX","VertexVersion":2}}}],"name":"part006.003"},{"primitives":[{"attributes":{"COLOR_0":83,"NORMAL":80,"POSITION":78,"TANGENT":79,"TEXCOORD_0":81,"TEXCOORD_1":82},"indices":84,"material":0,"mode":4,"extras":{"ASOBO_primitive":{"PrimitiveCount":30,"VertexType":"VTX","VertexVersion":2}}}],"name":"part009.003"},{"primitives":[{"attributes":{"COLOR_0":76,"NORMAL":73,"POSITION":71,"TANGENT":72,"TEXCOORD_0":74,"TEXCOORD_1":75},"indices":77,"material":0,"mode":4,"extras":{"ASOBO_primitive":{"PrimitiveCount":8,"VertexType":"VTX","VertexVersion":2}}}],"name":"part008.003"},{"primitives":[{"attributes":{"COLOR_0":90,"NORMAL":87,"POSITION":85,"TANGENT":86,"TEXCOORD_0":88,"TEXCOORD_1":89},"indices":91,"material":0,"mode":4,"extras":{"ASOBO_primitive":{"PrimitiveCount":4,"VertexType":"VTX","VertexVersion":2}}}],"name":"part010.003"},{"primitives":[{"attributes":{"COLOR_0":97,"NORMAL":94,"POSITION":92,"TANGENT":93,"TEXCOORD_0":95,"TEXCOORD_1":96},"indices":98,"material":0,"mode":4,"extras":{"ASOBO_primitive":{"PrimitiveCount":4,"VertexType":"VTX","VertexVersion":2}}}],"name":"part011.003"},{"primitives":[{"attributes":{"COLOR_0":104,"NORMAL":101,"POSITION":99,"TANGENT":100,"TEXCOORD_0":102,"TEXCOORD_1":103},"indices":105,"material":0,"mode":4,"extras":{"ASOBO_primitive":{"PrimitiveCount":4,"VertexType":"VTX","VertexVersion":2}}}],"name":"part012.003"},{"primitives":[{"attributes":{"COLOR_0":111,"NORMAL":108,"POSITION":106,"TANGENT":107,"TEXCOORD_0":109,"TEXCOORD_1":110},"indices":112,"material":0,"mode":4,"extras":{"ASOBO_primitive":{"PrimitiveCount":4,"VertexType":"VTX","VertexVersion":2}}}],"name":"part013.003"},{"primitives":[{"attributes":{"COLOR_0":125,"NORMAL":122,"POSITION":120,"TANGENT":121,"TEXCOORD_0":123,"TEXCOORD_1":124},"indices":126,"material":0,"mode":4,"extras":{"ASOBO_primitive":{"PrimitiveCount":4,"VertexType":"VTX","VertexVersion":2}}}],"name":"part015.003"},{"primitives":[{"attributes":{"COLOR_0":118,"NORMAL":115,"POSITION":113,"TANGENT":114,"TEXCOORD_0":116,"TEXCOORD_1":117},"indices":119,"material":0,"mode":4,"extras":{"ASOBO_primitive":{"PrimitiveCount":13,"VertexType":"VTX","VertexVersion":2}}}],"name":"part014.003"},{"primitives":[{"attributes":{"COLOR_0":139,"NORMAL":136,"POSITION":134,"TANGENT":135,"TEXCOORD_0":137,"TEXCOORD_1":138},"indices":140,"material":0,"mode":4,"extras":{"ASOBO_primitive":{"PrimitiveCount":4,"VertexType":"VTX","VertexVersion":2}}}],"name":"part017.003"},{"primitives":[{"attributes":{"COLOR_0":132,"NORMAL":129,"POSITION":127,"TANGENT":128,"TEXCOORD_0":130,"TEXCOORD_1":131},"indices":133,"material":0,"mode":4,"extras":{"ASOBO_primitive":{"PrimitiveCount":13,"VertexType":"VTX","VertexVersion":2}}}],"name":"part016.003"},{"primitives":[{"attributes":{"COLOR_0":153,"NORMAL":150,"POSITION":148,"TANGENT":149,"TEXCOORD_0":151,"TEXCOORD_1":152},"indices":154,"material":0,"mode":4,"extras":{"ASOBO_primitive":{"PrimitiveCount":4,"VertexType":"VTX","VertexVersion":2}}}],"name":"part019.003"},{"primitives":[{"attributes":{"COLOR_0":146,"NORMAL":143,"POSITION":141,"TANGENT":142,"TEXCOORD_0":144,"TEXCOORD_1":145},"indices":147,"material":0,"mode":4,"extras":{"ASOBO_primitive":{"PrimitiveCount":18,"VertexType":"VTX","VertexVersion":2}}}],"name":"part018.003"},{"primitives":[{"attributes":{"COLOR_0":167,"NORMAL":164,"POSITION":162,"TANGENT":163,"TEXCOORD_0":165,"TEXCOORD_1":166},"indices":168,"material":0,"mode":4,"extras":{"ASOBO_primitive":{"PrimitiveCount":4,"VertexType":"VTX","VertexVersion":2}}}],"name":"part021.003"},{"primitives":[{"attributes":{"COLOR_0":160,"NORMAL":157,"POSITION":155,"TANGENT":156,"TEXCOORD_0":158,"TEXCOORD_1":159},"indices":161,"material":0,"mode":4,"extras":{"ASOBO_primitive":{"PrimitiveCount":18,"VertexType":"VTX","VertexVersion":2}}}],"name":"part020.003"},{"primitives":[{"attributes":{"COLOR_0":174,"NORMAL":171,"POSITION":169,"TANGENT":170,"TEXCOORD_0":172,"TEXCOORD_1":173},"indices":175,"material":0,"mode":4,"extras":{"ASOBO_primitive":{"PrimitiveCount":6,"VertexType":"VTX","VertexVersion":2}}}],"name":"part022.003"},{"primitives":[{"attributes":{"COLOR_0":181,"NORMAL":178,"POSITION":176,"TANGENT":177,"TEXCOORD_0":179,"TEXCOORD_1":180},"indices":182,"material":0,"mode":4,"extras":{"ASOBO_primitive":{"PrimitiveCount":6,"VertexType":"VTX","VertexVersion":2}}}],"name":"part023.003"},{"primitives":[{"attributes":{"COLOR_0":188,"NORMAL":185,"POSITION":183,"TANGENT":184,"TEXCOORD_0":186,"TEXCOORD_1":187},"indices":189,"material":0,"mode":4,"extras":{"ASOBO_primitive":{"PrimitiveCount":6,"VertexType":"VTX","VertexVersion":2}}}],"name":"part024.003"},{"primitives":[{"attributes":{"COLOR_0":195,"NORMAL":192,"POSITION":190,"TANGENT":191,"TEXCOORD_0":193,"TEXCOORD_1":194},"indices":196,"material":0,"mode":4,"extras":{"ASOBO_primitive":{"PrimitiveCount":6,"VertexType":"VTX","VertexVersion":2}}}],"name":"part025.003"},{"primitives":[{"attributes":{"COLOR_0":202,"NORMAL":199,"POSITION":197,"TANGENT":198,"TEXCOORD_0":200,"TEXCOORD_1":201},"indices":203,"material":0,"mode":4,"extras":{"ASOBO_primitive":{"PrimitiveCount":6,"VertexType":"VTX","VertexVersion":2}}}],"name":"part026.003"},{"primitives":[{"attributes":{"COLOR_0":209,"NORMAL":206,"POSITION":204,"TANGENT":205,"TEXCOORD_0":207,"TEXCOORD_1":208},"indices":210,"material":0,"mode":4,"extras":{"ASOBO_primitive":{"PrimitiveCount":6,"VertexType":"VTX","VertexVersion":2}}}],"name":"part027.003"},{"primitives":[{"attributes":{"COLOR_0":216,"NORMAL":213,"POSITION":211,"TANGENT":212,"TEXCOORD_0":214,"TEXCOORD_1":215},"indices":217,"material":0,"mode":4,"extras":{"ASOBO_primitive":{"PrimitiveCount":502,"VertexType":"VTX","VertexVersion":2}}}],"name":"part002.003"}],"nodes":[{"translation":[8.46947193145752,0.00001179338141810149,0.0],"rotation":[-0.0001710005453787744,-0.0002689998655114323,-0.0023860102519392969,0.9999971985816956],"name":"node15.003"},{"translation":[-5.852952003479004,1.166031002998352,0.07490400224924088],"rotation":[-0.03459291532635689,-0.008516966365277768,-0.9703866243362428,0.2389155477285385],"name":"node14.003","children":[0]},{"translation":[8.469239234924317,0.0,0.0],"rotation":[0.00016975024482235312,-0.0002767491969279945,0.002366507425904274,0.9999972581863404],"name":"node17.003"},{"translation":[5.852952003479004,1.1660330295562745,0.07490400224924088],"rotation":[-0.008516897447407246,-0.03459261357784271,-0.23890933394432069,0.9703881740570068],"name":"node16.003","children":[2]},{"translation":[0.0,0.0,0.8679470419883728],"name":"node13.003","children":[1,3]},{"translation":[8.469239234924317,0.0,0.0],"rotation":[0.00016975024482235312,-0.0002767491969279945,0.002366507425904274,0.9999972581863404],"name":"node20.003"},{"translation":[5.852952003479004,1.1660330295562745,0.07490400224924088],"rotation":[-0.008516897447407246,-0.03459261357784271,-0.23890933394432069,0.9703881740570068],"name":"node19.003","children":[5]},{"translation":[8.469470977783204,0.00001179338141810149,0.0],"rotation":[-0.0001710005453787744,-0.0002689998655114323,-0.0023860102519392969,0.9999971985816956],"name":"node22.003"},{"translation":[-5.852952003479004,1.166031002998352,0.07490400224924088],"rotation":[-0.03459291532635689,-0.008516966365277768,-0.9703866243362428,0.2389155477285385],"name":"node21.003","children":[7]},{"translation":[0.0,0.0,0.8679470419883728],"name":"node18.003","children":[6,8]},{"translation":[0.0,0.0,-0.867946982383728],"name":"node12.003","children":[4,9]},{"translation":[-0.06673894822597504,0.31866610050201418,-0.04177584499120712],"rotation":[0.0,0.0,-0.18764039874076844,0.9822378754615784],"name":"node24_anim_custom_anim_SIM_ON_GROUND_06.001"},{"translation":[3.34543514251709,-0.016106532886624337,-0.0005310326814651489],"rotation":[0.5011560320854187,0.4989213943481446,0.49866849184036257,0.5012484192848206],"name":"node24.003","children":[11]},{"translation":[13.335140228271485,-2.7559139728546144,0.677965521812439],"rotation":[-0.00849988218396902,-0.03488221392035484,-0.23660388588905338,0.9709426164627076],"name":"node23.003","children":[12]},{"translation":[-0.06673863530158997,0.3186669945716858,-0.041775673627853397],"rotation":[0.0,0.0,-0.18764039874076844,0.9822378754615784],"name":"node26_anim_custom_anim_SIM_ON_GROUND_06.001"},{"translation":[3.3454298973083498,-0.016106082126498224,-0.0005320608615875244],"rotation":[0.5011554956436157,0.4989213943481446,0.49866846203804018,0.5012487769126892],"name":"node26.003","children":[14]},{"translation":[13.33512020111084,-2.7559189796447756,0.6779648065567017],"rotation":[-0.008499891497194767,-0.03488215059041977,-0.23660415410995484,0.9709425568580629],"name":"node25.003","children":[15]},{"translation":[-0.06681331247091294,-0.319071888923645,-0.04151104763150215],"rotation":[0.0,0.0,-0.18764039874076844,0.9822378754615784],"name":"node28_anim_custom_anim_SIM_ON_GROUND_06.001"},{"translation":[3.345011949539185,0.016180753707885743,-0.0004852712154388428],"rotation":[0.5012590289115906,-0.4986652135848999,-0.49891215562820437,0.501157820224762],"name":"node28.003","children":[17]},{"translation":[-0.06681252270936966,-0.3190719485282898,-0.04151075705885887],"rotation":[0.0,0.0,-0.18764039874076844,0.9822378754615784],"name":"node29_anim_custom_anim_SIM_ON_GROUND_06.001"},{"translation":[3.3450074195861818,0.016181468963623048,-0.0004831254482269287],"rotation":[0.5012591481208801,-0.49866533279418948,-0.4989117980003357,0.5011579394340515],"name":"node29.003","children":[19]},{"translation":[-13.335269927978516,-2.7561159133911135,0.677987813949585],"rotation":[-0.03487434238195419,-0.008497779257595539,-0.9709460735321044,0.23659098148345948],"name":"node27.003","children":[18,20]},{"translation":[-0.06822454929351807,0.3183596730232239,-0.041706375777721408],"rotation":[0.0,0.0,-0.18764039874076844,0.9822378754615784],"name":"node31_anim_custom_anim_SIM_ON_GROUND_06.002"},{"translation":[11.814723014831545,-0.0002683559141587466,0.001318126916885376],"rotation":[0.4999203383922577,0.499882847070694,0.5000768303871155,0.5001199245452881],"name":"node31.003","children":[22]},{"translation":[5.852952003479004,1.1660319566726685,0.07490301132202149],"rotation":[-0.008516835980117321,-0.0345926359295845,-0.23890924453735352,0.9703881740570068],"name":"node30.003","children":[23]},{"translation":[-0.06822562217712403,0.3183595836162567,-0.0417044535279274],"rotation":[0.0,0.0,-0.18764039874076844,0.9822378754615784],"name":"node33_anim_custom_anim_SIM_ON_GROUND_06.003"},{"translation":[11.814719200134276,-0.00026624943711794913,0.0013170242309570313],"rotation":[0.49992039799690249,0.49988242983818056,0.5000768899917603,0.5001203417778015],"name":"node33.003","children":[25]},{"translation":[5.852952003479004,1.1660319566726685,0.07490301132202149],"rotation":[-0.008516854606568814,-0.03459258750081062,-0.2389095574617386,0.970388114452362],"name":"node32.003","children":[26]},{"translation":[-0.06830757111310959,-0.31876450777053835,-0.04144065082073212],"rotation":[0.0,0.0,-0.18764039874076844,0.9822378754615784],"name":"node35_anim_custom_anim_SIM_ON_GROUND_06.002"},{"translation":[11.814513206481934,0.000234926919802092,0.0013111233711242676],"rotation":[0.5001164674758911,-0.5000795125961304,-0.49988600611686709,0.49991801381111147],"name":"node35.003","children":[28]},{"translation":[-0.0683082863688469,-0.3187645673751831,-0.04144103452563286],"rotation":[0.0,0.0,-0.18764039874076844,0.9822378754615784],"name":"node36_anim_custom_anim_SIM_ON_GROUND_06.003"},{"translation":[11.814513206481934,0.00023421166406478733,0.0013131797313690186],"rotation":[0.5001164674758911,-0.5000795125961304,-0.49988600611686709,0.49991801381111147],"name":"node36.003","children":[30]},{"translation":[-5.852952003479004,1.1660319566726685,0.07490301132202149],"rotation":[-0.034592900425195697,-0.008516963571310044,-0.9703866839408876,0.23891523480415345],"name":"node34.003","children":[29,31]},{"translation":[-0.2142750024795532,0.20825031399726869,0.1228879690170288],"rotation":[0.0,-0.7460572719573975,-0.6658818125724793,4.8537660920858068e-24],"name":"node38.003"},{"translation":[0.21819500625133513,0.1957166492938995,0.1243150234222412],"rotation":[0.0,0.8410390615463257,0.5409744381904602,1.6566988171834516e-24],"name":"node39.003"},{"name":"node37_anim_custom_anim_GEAR_ANIMATION_POSITION_0_00.001","children":[33,34]},{"translation":[0.0,15.240830421447754,-1.4777259826660157],"rotation":[0.10886706411838532,0.0,0.0,0.9940563440322876],"name":"node37.003","children":[35]},{"mesh":0,"name":"node40_anim_custom_anim_SIM_on_GROUND_04.001"},{"translation":[0.0,3.1657819747924806,-0.5650799870491028],"rotation":[0.01745215430855751,0.0,0.0,0.9998477101325988],"name":"node40.003","children":[37]},{"translation":[-0.06820900738239289,-0.021385133266448976,-0.06821024417877197],"mesh":1,"name":"node42_anim_custom_anim_GEAR_ANIMATION_POSITION_0_00.001"},{"translation":[0.06820899993181229,1.3813105821609498,0.06742477416992188],"name":"node42.003","children":[39]},{"translation":[-0.219310000538826,0.2083512246608734,0.12840700149536134],"rotation":[0.0,-0.09150207042694092,-0.9958049058914184,1.3357976343947865e-18],"name":"takeoff_3"},{"mesh":2,"name":"node41_anim_custom_anim_GEAR_ANIMATION_POSITION_0_00.001","children":[40,41]},{"translation":[0.0,15.240830421447754,-1.4777259826660157],"rotation":[0.10886706411838532,0.0,0.0,0.9940563440322876],"name":"node41.003","children":[42]},{"mesh":3,"name":"node44_anim_custom_anim_GEAR_ANIMATION_POSITION_1_10"},{"translation":[2.146082878112793,-0.4099140465259552,-0.05218810588121414],"rotation":[-0.515953004360199,-0.4700583815574646,0.4345656931400299,0.5692015290260315],"name":"node44.003","children":[44]},{"mesh":4,"name":"node43_anim_custom_anim_GEAR_ANIMATION_POSITION_1_10","children":[45]},{"translation":[-3.8310000896453859,-1.0770000219345093,-0.4390000104904175],"rotation":[0.6754504442214966,0.023538021370768548,0.038519490510225299,0.736022412776947],"name":"node43.003","children":[46]},{"mesh":5,"name":"node46_anim_custom_anim_GEAR_ANIMATION_POSITION_2_13"},{"translation":[-2.146090030670166,0.409898042678833,0.05218389630317688],"rotation":[0.5692009925842285,0.4345651865005493,0.4700630307197571,0.5159497857093811],"name":"node46.003","children":[48]},{"mesh":6,"name":"node45_anim_custom_anim_GEAR_ANIMATION_POSITION_2_13","children":[49]},{"translation":[3.8310000896453859,-1.0770000219345093,-0.4390000104904175],"rotation":[-0.7360215783119202,0.038519252091646197,-0.023542800918221475,0.6754511594772339],"name":"node45.003","children":[50]},{"mesh":7,"name":"node47_anim_custom_anim_SPOILERS_RIGHT_POSITION_14"},{"translation":[13.07882022857666,-3.711380004882813,0.634585976600647],"rotation":[0.4203376173973083,-0.6012157201766968,-0.5569731593132019,0.389405757188797],"name":"node47.003","children":[52]},{"mesh":8,"name":"node48_anim_custom_anim_SPOILERS_LEFT_POSITION_11"},{"translation":[-13.07859992980957,-3.711380958557129,0.6345829963684082],"rotation":[0.5569729804992676,-0.3894060254096985,-0.42033785581588747,0.6012156009674072],"name":"node48.003","children":[54]},{"mesh":9,"name":"node49_anim_custom_anim_SPOILERS_RIGHT_POSITION_14"},{"translation":[6.231998920440674,-1.2480499744415284,0.07452300190925598],"rotation":[0.5341295599937439,-0.5341295599937439,-0.4633631408214569,0.4633636176586151],"name":"node49.003","children":[56]},{"mesh":10,"name":"node50_anim_custom_anim_SPOILERS_LEFT_POSITION_11.001"},{"translation":[-6.231788158416748,-1.2480499744415284,0.07452300190925598],"rotation":[0.46336179971694949,-0.4633612334728241,-0.5341307520866394,0.534131646156311],"name":"node50.003","children":[58]},{"mesh":11,"name":"node52_anim_custom_anim_SIM_ON_GROUND_05.002"},{"translation":[0.7820968627929688,0.017778027802705766,4.497328758239746],"rotation":[0.004732050932943821,-0.00031875359127298,0.000050500562792876738,0.9999887347221376],"name":"node52.003","children":[60]},{"mesh":12,"name":"node51_anim_custom_anim_SIM_ON_GROUND_05.002","children":[61]},{"translation":[6.339000225067139,-1.3927940130233765,-0.2390650063753128],"rotation":[0.5365793108940125,-0.5365797877311707,-0.4605240821838379,0.4605240225791931],"name":"node51.003","children":[62]},{"mesh":13,"name":"node54_anim_custom_anim_SIM_ON_GROUND_05.001"},{"translation":[0.7820971608161926,0.017761899158358575,-4.497134208679199],"rotation":[-0.004734063521027565,0.00032175364322029054,0.000051000584790017459,0.9999887347221376],"name":"node54.003","children":[64]},{"mesh":14,"name":"node53_anim_custom_anim_SIM_ON_GROUND_05.002","children":[65]},{"translation":[-6.338912010192871,-1.3927940130233765,-0.2390650063753128],"rotation":[0.4605230987071991,-0.4605230987071991,-0.5365803837776184,0.5365803837776184],"name":"node53.003","children":[66]},{"mesh":15,"name":"node56_anim_custom_anim_SIM_ON_GROUND_05"},{"translation":[0.7145389914512634,0.02898397296667099,7.071680545806885],"rotation":[-0.0011254677083343268,0.019567806273698808,-0.0018388571916148069,0.9998062252998352],"name":"node56.003","children":[68]},{"mesh":16,"name":"node55_anim_custom_anim_SIM_ON_GROUND_05","children":[69]},{"translation":[13.33512020111084,-3.9446709156036379,0.46916401386260989],"rotation":[0.42413586378097536,-0.6061730980873108,-0.551260232925415,0.3857137858867645],"name":"node55.003","children":[70]},{"mesh":17,"name":"node58_anim_custom_anim_SIM_ON_GROUND_05"},{"translation":[0.7145769000053406,0.028993017971515657,-7.071769714355469],"rotation":[0.0011257214937359097,-0.01956755295395851,-0.001838606665842235,0.9998062252998352],"name":"node58.003","children":[72]},{"mesh":18,"name":"node57_anim_custom_anim_SIM_ON_GROUND_05","children":[73]},{"translation":[-13.33512020111084,-3.944667100906372,0.46916401386260989],"rotation":[0.5512605309486389,-0.3857134282588959,-0.4241359531879425,0.606173038482666],"name":"node57.003","children":[74]},{"mesh":19,"name":"node59_anim_custom_anim_SIM_ON_GROUND_05"},{"translation":[-5.04759407043457,-0.9036409854888916,-0.6739749908447266],"rotation":[0.4784119427204132,-0.4784119427204132,-0.5206937789916992,0.5206937789916992],"name":"node59.003","children":[76]},{"mesh":20,"name":"node60_anim_custom_anim_SIM_ON_GROUND_05"},{"translation":[-8.478414535522461,-1.81141197681427,-0.2588239908218384],"rotation":[0.4695209562778473,-0.4696821868419647,-0.5287443995475769,0.5285623669624329],"name":"node60.003","children":[78]},{"mesh":21,"name":"node61_anim_custom_anim_SIM_ON_GROUND_05"},{"translation":[-12.077719688415528,-3.16422700881958,0.1258070021867752],"rotation":[0.4693767726421356,-0.46953895688056948,-0.528872013092041,0.5286900401115418],"name":"node61.003","children":[80]},{"mesh":22,"name":"node62_anim_custom_anim_SIM_ON_GROUND_05"},{"translation":[5.04759407043457,-0.9036419987678528,-0.6739739775657654],"rotation":[0.5206954479217529,-0.5206955075263977,-0.47841018438339236,0.47841018438339236],"name":"node62.003","children":[82]},{"mesh":23,"name":"node63_anim_custom_anim_SIM_ON_GROUND_05.001"},{"translation":[8.478414535522461,-1.8114169836044312,-0.25882700085639956],"rotation":[0.5287438035011292,-0.5285627245903015,-0.4695212841033935,0.4696820676326752],"name":"node63.003","children":[84]},{"mesh":24,"name":"node64_anim_custom_anim_SIM_ON_GROUND_05.001"},{"translation":[12.07783031463623,-3.1642260551452638,0.1258080005645752],"rotation":[0.5288702249526978,-0.5286887288093567,-0.4693789482116699,0.46954014897346499],"name":"node64.003","children":[86]},{"rotation":[0.0,0.0,1.0,6.123234262925839e-17],"name":"node11.003","children":[10,13,16,21,24,27,32,36,38,43,47,51,53,55,57,59,63,67,71,75,77,79,81,83,85,87]},{"rotation":[-0.70710688829422,0.0,0.0,0.7071066498756409],"name":"node10.003","children":[88]},{"mesh":25,"name":"node3.002"},{"translation":[2.1423230171203615,-1.1279770135879517,0.020966000854969026],"rotation":[0.70710688829422,0.0,0.0,0.7071066498756409],"name":"node4.003"},{"translation":[-2.1419999599456789,-1.1279770135879517,0.020966000854969026],"rotation":[0.70710688829422,0.0,0.0,0.7071066498756409],"name":"node5.003"},{"translation":[17.006580352783204,0.9250040054321288,-4.166773796081543],"name":"node6.003"},{"translation":[17.48015022277832,1.2652419805526732,-4.697990894317627],"name":"node7.003"},{"translation":[-17.006580352783204,0.9250059723854064,-4.166790008544922],"name":"node8.003"},{"translation":[-17.480159759521486,1.2652440071105958,-4.6980109214782719],"name":"node9.003"},{"name":"node0.003","children":[89,90,91,92,93,94,95,96]},{"translation":[-3.6328999996185304,1.5630080699920655,-21.386478424072267],"rotation":[-0.11829324066638948,-0.596124529838562,-0.6100618839263916,-0.5083962678909302],"extensions":{"ASOBO_macro_light":{"color":[1,0.9386850595474244,0.7605245113372803],"cone_angle":51.000001419204298,"day_night_cycle":true,"flash_duration":0,"flash_frequency":0,"flash_phase":0,"has_symmetry":false,"intensity":6,"rotation_speed":0}},"name":"Logo_right"},{"translation":[3.6328999996185304,1.5630080699920655,-21.386478424072267],"rotation":[-0.11868748068809508,0.5965972542762756,0.6095998287200928,-0.5083040595054627],"extensions":{"ASOBO_macro_light":{"color":[1,0.9386850595474244,0.7605245113372803],"cone_angle":51.000001419204298,"day_night_cycle":true,"flash_duration":0,"flash_frequency":0,"flash_phase":0,"has_symmetry":false,"intensity":6,"rotation_speed":0}},"name":"Logo_left"},{"translation":[-4.310379981994629,-3.61749005317688,-1.2920783758163453],"name":"fx_tire_contactPoint_right_out"},{"translation":[-3.3953399658203127,-3.61749005317688,-1.2920783758163453],"name":"fx_tire_contactPoint_right_in"},{"translation":[4.310379981994629,-3.61749005317688,-1.2920783758163453],"name":"fx_tire_contactPoint_left_out"},{"translation":[3.3953399658203127,-3.61749005317688,-1.2920783758163453],"name":"fx_tire_contactPoint_left_in"},{"translation":[-0.27343401312828066,-3.400969982147217,15.417499542236329],"name":"fx_tire_contactPoint_center_right"},{"translation":[0.27343401312828066,-3.400969982147217,15.417499542236329],"name":"fx_tire_contactPoint_center_left"},{"translation":[-5.800290107727051,-1.693910002708435,0.8672279715538025],"name":"FX_EXHAUST_RIGHT"},{"translation":[5.800290107727051,-1.693910002708435,0.8672279715538025],"name":"FX_EXHAUST_LEFT"}],"scene":0,"scenes":[{"nodes":[97,98,99,100,101,102,103,104,105,106,107],"name":"Scene"}],"textures":[{"extensions":{"MSFT_texture_dds":{"source":0}}},{"extensions":{"MSFT_texture_dds":{"source":1}}}],"samplers":[{"magFilter":9729,"minFilter":9987,"wrapS":10497,"wrapT":10497}],"extensionsUsed":["ASOBO_normal_map_convention","ASOBO_macro_light","MSFT_texture_dds","ASOBO_asset_optimized"],"buffers":[{"byteLength":103940,"uri":"FAIB_A21N_PW_S_LOD3.bin"}],"images":[{"uri":"FAIB_A321_PW_M.PNG.DDS","name":"FAIB_A321_PW_M","extras":"ASOBO_image_converted_meta"},{"uri":"FAIB_A321_PW_T.PNG.DDS","name":"FAIB_A321_PW_T","extras":"ASOBO_image_converted_meta"}]}
