{"accessors":[{"bufferView":0,"componentType":5126,"count":150,"min":[-13.726149559020996,-2.997339963912964,-12.841750144958496],"max":[13.714139938354493,3.893739938735962,12.845749855041504],"type":"VEC3","name":"part000.002_vertices#0_POSITION"},{"bufferView":0,"byteOffset":12,"componentType":5120,"count":150,"type":"VEC4","name":"part000.002_vertices#0_TANGENT"},{"bufferView":0,"byteOffset":16,"componentType":5120,"count":150,"type":"VEC4","name":"part000.002_vertices#0_NORMAL"},{"bufferView":0,"byteOffset":20,"componentType":5122,"count":150,"type":"VEC2","name":"part000.002_vertices#0_TEXCOORD_0"},{"bufferView":0,"byteOffset":24,"componentType":5122,"count":150,"type":"VEC2","name":"part000.002_vertices#0_TEXCOORD_1"},{"bufferView":0,"byteOffset":28,"componentType":5123,"count":150,"type":"VEC4","name":"part000.002_vertices#0_COLOR_0"},{"bufferView":1,"componentType":5123,"count":234,"type":"SCALAR","name":"part000.002_indices#0"}],"asset":{"generator":"Khronos glTF Blender I/O v1.8.19 and Asobo Studio MSFS Blender I/O v1.1.6","copyright":"FSLTL","version":"2.0","extensions":{"ASOBO_asset_optimized":{"BoundingBoxMax":[13.714139938354493,3.893739938735962,12.845749855041504],"BoundingBoxMin":[-13.726149559020996,-2.997339963912964,-12.841750144958496],"MajorVersion":4,"MinorVersion":4,"UseCheckerboardMaterialForMissingTextures":true,"UseOnlyFilenameForImageURI":true},"ASOBO_normal_map_convention":{"tangent_space_convention":"DirectX"}}},"bufferViews":[{"buffer":0,"byteLength":5400,"byteStride":36,"target":34962,"name":"BufferViewVertexND"},{"buffer":0,"byteLength":468,"byteOffset":5400,"target":34963,"name":"BufferViewIndex"}],"extensionsRequired":["MSFT_texture_dds"],"materials":[{"name":"Livery","occlusionTexture":{"index":0},"pbrMetallicRoughness":{"baseColorTexture":{"index":1},"metallicRoughnessTexture":{"index":0}}}],"meshes":[{"primitives":[{"attributes":{"COLOR_0":5,"NORMAL":2,"POSITION":0,"TANGENT":1,"TEXCOORD_0":3,"TEXCOORD_1":4},"indices":6,"material":0,"mode":4,"extras":{"ASOBO_primitive":{"PrimitiveCount":78,"VertexType":"VTX","VertexVersion":2}}}],"name":"part000.002"}],"nodes":[{"mesh":0,"name":"node1.002"},{"name":"node0.002","children":[0]}],"scene":0,"scenes":[{"nodes":[1],"name":"Scene"}],"textures":[{"extensions":{"MSFT_texture_dds":{"source":0}}},{"extensions":{"MSFT_texture_dds":{"source":1}}}],"samplers":[{"magFilter":9729,"minFilter":9987,"wrapS":10497,"wrapT":10497}],"extensionsUsed":["ASOBO_normal_map_convention","MSFT_texture_dds","ASOBO_asset_optimized"],"buffers":[{"byteLength":5868,"uri":"dh8c-lod1.bin"}],"images":[{"uri":"TFS_DASH8_Q300_M.PNG.DDS","name":"tfs_dash8_q300_m","extras":"ASOBO_image_converted_meta"},{"uri":"TFS_DASH8_Q300_T.PNG.DDS","name":"TFS_DASH8_Q300_T","extras":"ASOBO_image_converted_meta"}]}
