{"accessors":[{"bufferView":0,"componentType":5126,"count":101,"min":[0.0],"max":[4.166666666666667],"type":"SCALAR"},{"bufferView":1,"componentType":5126,"count":101,"type":"VEC4"},{"bufferView":2,"componentType":5126,"count":101,"type":"VEC4"},{"bufferView":3,"componentType":5126,"count":101,"type":"VEC4"},{"bufferView":4,"componentType":5126,"count":201,"min":[0.0],"max":[8.333333333333334],"type":"SCALAR"},{"bufferView":5,"componentType":5126,"count":201,"type":"VEC3"},{"bufferView":6,"componentType":5126,"count":201,"type":"VEC3"},{"bufferView":7,"componentType":5126,"count":201,"type":"VEC3"},{"bufferView":8,"componentType":5126,"count":201,"type":"VEC4"},{"bufferView":9,"componentType":5126,"count":201,"type":"VEC3"},{"bufferView":10,"componentType":5126,"count":201,"type":"VEC4"},{"bufferView":11,"componentType":5126,"count":201,"type":"VEC3"},{"bufferView":12,"componentType":5126,"count":201,"type":"VEC4"},{"bufferView":13,"componentType":5126,"count":201,"type":"VEC3"},{"bufferView":14,"componentType":5126,"count":201,"type":"VEC4"},{"bufferView":15,"componentType":5126,"count":201,"type":"VEC3"},{"bufferView":16,"componentType":5126,"count":201,"type":"VEC4"},{"bufferView":17,"componentType":5126,"count":201,"type":"VEC3"},{"bufferView":18,"componentType":5126,"count":201,"type":"VEC4"},{"bufferView":19,"componentType":5126,"count":201,"type":"VEC3"},{"bufferView":20,"componentType":5126,"count":201,"type":"VEC4"},{"bufferView":21,"componentType":5126,"count":201,"type":"VEC4"},{"bufferView":22,"componentType":5126,"count":201,"type":"VEC3"},{"bufferView":23,"componentType":5126,"count":201,"type":"VEC4"},{"bufferView":24,"componentType":5126,"count":201,"type":"VEC4"},{"bufferView":25,"componentType":5126,"count":101,"type":"VEC4"},{"bufferView":26,"componentType":5126,"count":101,"type":"VEC4"},{"bufferView":27,"componentType":5126,"count":101,"type":"VEC3"},{"bufferView":28,"componentType":5126,"count":101,"type":"VEC4"},{"bufferView":29,"componentType":5126,"count":101,"type":"VEC3"},{"bufferView":30,"componentType":5126,"count":101,"type":"VEC4"},{"bufferView":31,"componentType":5126,"count":101,"type":"VEC3"},{"bufferView":32,"componentType":5126,"count":101,"type":"VEC4"},{"bufferView":33,"componentType":5126,"count":101,"type":"VEC3"},{"bufferView":34,"componentType":5126,"count":101,"type":"VEC4"},{"bufferView":35,"componentType":5126,"count":101,"type":"VEC3"},{"bufferView":36,"componentType":5126,"count":101,"type":"VEC4"},{"bufferView":37,"componentType":5126,"count":101,"type":"VEC3"},{"bufferView":38,"componentType":5126,"count":101,"type":"VEC4"},{"bufferView":39,"componentType":5126,"count":101,"type":"VEC4"},{"bufferView":40,"componentType":5126,"count":101,"type":"VEC4"},{"bufferView":41,"componentType":5126,"count":201,"type":"VEC3"},{"bufferView":42,"componentType":5126,"count":201,"type":"VEC4"},{"bufferView":43,"componentType":5126,"count":201,"type":"VEC3"},{"bufferView":44,"componentType":5126,"count":201,"type":"VEC4"},{"bufferView":45,"componentType":5126,"count":201,"type":"VEC4"},{"bufferView":46,"componentType":5126,"count":201,"type":"VEC4"},{"bufferView":47,"componentType":5126,"count":201,"type":"VEC3"},{"bufferView":48,"componentType":5126,"count":201,"type":"VEC4"},{"bufferView":49,"componentType":5126,"count":201,"type":"VEC3"},{"bufferView":50,"componentType":5126,"count":201,"type":"VEC4"},{"bufferView":51,"componentType":5126,"count":101,"type":"VEC4"},{"bufferView":52,"componentType":5126,"count":101,"type":"VEC4"},{"bufferView":53,"componentType":5126,"count":101,"type":"VEC4"},{"bufferView":54,"componentType":5126,"count":101,"type":"VEC4"},{"bufferView":55,"componentType":5126,"count":123,"min":[-4.451990127563477,-1.5448299646377564,-2.080579996109009],"max":[4.451990127563477,-0.1242000013589859,4.490359783172607],"type":"VEC3","name":"part000_vertices#0_POSITION"},{"bufferView":55,"byteOffset":12,"componentType":5120,"count":123,"type":"VEC4","name":"part000_vertices#0_TANGENT"},{"bufferView":55,"byteOffset":16,"componentType":5120,"count":123,"type":"VEC4","name":"part000_vertices#0_NORMAL"},{"bufferView":55,"byteOffset":20,"componentType":5122,"count":123,"type":"VEC2","name":"part000_vertices#0_TEXCOORD_0"},{"bufferView":55,"byteOffset":24,"componentType":5122,"count":123,"type":"VEC2","name":"part000_vertices#0_TEXCOORD_1"},{"bufferView":55,"byteOffset":28,"componentType":5123,"count":123,"type":"VEC4","name":"part000_vertices#0_COLOR_0"},{"bufferView":56,"componentType":5123,"count":471,"type":"SCALAR","name":"part000_indices#0"},{"bufferView":55,"byteOffset":4428,"componentType":5126,"count":1513,"min":[-13.722140312194825,-3.2654600143432619,-12.86575984954834],"max":[13.722140312194825,3.893739938735962,12.845749855041504],"type":"VEC3","name":"part001_vertices#0_POSITION"},{"bufferView":55,"byteOffset":4440,"componentType":5120,"count":1513,"type":"VEC4","name":"part001_vertices#0_TANGENT"},{"bufferView":55,"byteOffset":4444,"componentType":5120,"count":1513,"type":"VEC4","name":"part001_vertices#0_NORMAL"},{"bufferView":55,"byteOffset":4448,"componentType":5122,"count":1513,"type":"VEC2","name":"part001_vertices#0_TEXCOORD_0"},{"bufferView":55,"byteOffset":4452,"componentType":5122,"count":1513,"type":"VEC2","name":"part001_vertices#0_TEXCOORD_1"},{"bufferView":55,"byteOffset":4456,"componentType":5123,"count":1513,"type":"VEC4","name":"part001_vertices#0_COLOR_0"},{"bufferView":56,"byteOffset":942,"componentType":5123,"count":4896,"type":"SCALAR","name":"part001_indices#0"},{"bufferView":55,"byteOffset":58896,"componentType":5126,"count":12,"min":[-2.0357799530029299,-0.3808799982070923,-0.031039999797940255],"max":[2.0214200019836427,0.013930000364780426,0.0003699999942909926],"type":"VEC3","name":"part002_vertices#0_POSITION"},{"bufferView":55,"byteOffset":58908,"componentType":5120,"count":12,"type":"VEC4","name":"part002_vertices#0_TANGENT"},{"bufferView":55,"byteOffset":58912,"componentType":5120,"count":12,"type":"VEC4","name":"part002_vertices#0_NORMAL"},{"bufferView":55,"byteOffset":58916,"componentType":5122,"count":12,"type":"VEC2","name":"part002_vertices#0_TEXCOORD_0"},{"bufferView":55,"byteOffset":58920,"componentType":5122,"count":12,"type":"VEC2","name":"part002_vertices#0_TEXCOORD_1"},{"bufferView":55,"byteOffset":58924,"componentType":5123,"count":12,"type":"VEC4","name":"part002_vertices#0_COLOR_0"},{"bufferView":56,"byteOffset":10734,"componentType":5123,"count":12,"type":"SCALAR","name":"part002_indices#0"},{"bufferView":55,"byteOffset":59328,"componentType":5126,"count":282,"min":[-2.711329936981201,-0.520809531211853,-2.7109599113464357],"max":[2.709589958190918,0.5192904472351074,2.7099599838256838],"type":"VEC3","name":"part004_vertices#0_POSITION"},{"bufferView":55,"byteOffset":59340,"componentType":5120,"count":282,"type":"VEC4","name":"part004_vertices#0_TANGENT"},{"bufferView":55,"byteOffset":59344,"componentType":5120,"count":282,"type":"VEC4","name":"part004_vertices#0_NORMAL"},{"bufferView":55,"byteOffset":59348,"componentType":5122,"count":282,"type":"VEC2","name":"part004_vertices#0_TEXCOORD_0"},{"bufferView":55,"byteOffset":59352,"componentType":5122,"count":282,"type":"VEC2","name":"part004_vertices#0_TEXCOORD_1"},{"bufferView":55,"byteOffset":59356,"componentType":5123,"count":282,"type":"VEC4","name":"part004_vertices#0_COLOR_0"},{"bufferView":56,"byteOffset":10758,"componentType":5123,"count":300,"type":"SCALAR","name":"part004_indices#1"},{"bufferView":55,"byteOffset":69480,"componentType":5126,"count":20,"min":[-8.434115409851075,-0.0010300000431016088,-0.2885800004005432],"max":[0.33114999532699587,1.3909032344818116,0.0564441978931427],"type":"VEC3","name":"part007_vertices#0_POSITION"},{"bufferView":55,"byteOffset":69492,"componentType":5120,"count":20,"type":"VEC4","name":"part007_vertices#0_TANGENT"},{"bufferView":55,"byteOffset":69496,"componentType":5120,"count":20,"type":"VEC4","name":"part007_vertices#0_NORMAL"},{"bufferView":55,"byteOffset":69500,"componentType":5122,"count":20,"type":"VEC2","name":"part007_vertices#0_TEXCOORD_0"},{"bufferView":55,"byteOffset":69504,"componentType":5122,"count":20,"type":"VEC2","name":"part007_vertices#0_TEXCOORD_1"},{"bufferView":55,"byteOffset":69508,"componentType":5123,"count":20,"type":"VEC4","name":"part007_vertices#0_COLOR_0"},{"bufferView":56,"byteOffset":11358,"componentType":5123,"count":24,"type":"SCALAR","name":"part007_indices#0"},{"bufferView":55,"byteOffset":70200,"componentType":5126,"count":50,"min":[-8.423253059387207,-1.7938300371170045,-0.2573612630367279],"max":[0.33114999532699587,-0.001029991079121828,-0.18121281266212464],"type":"VEC3","name":"part008_vertices#0_POSITION"},{"bufferView":55,"byteOffset":70212,"componentType":5120,"count":50,"type":"VEC4","name":"part008_vertices#0_TANGENT"},{"bufferView":55,"byteOffset":70216,"componentType":5120,"count":50,"type":"VEC4","name":"part008_vertices#0_NORMAL"},{"bufferView":55,"byteOffset":70220,"componentType":5122,"count":50,"type":"VEC2","name":"part008_vertices#0_TEXCOORD_0"},{"bufferView":55,"byteOffset":70224,"componentType":5122,"count":50,"type":"VEC2","name":"part008_vertices#0_TEXCOORD_1"},{"bufferView":55,"byteOffset":70228,"componentType":5123,"count":50,"type":"VEC4","name":"part008_vertices#0_COLOR_0"},{"bufferView":56,"byteOffset":11406,"componentType":5123,"count":192,"type":"SCALAR","name":"part008_indices#0"},{"bufferView":55,"byteOffset":72000,"componentType":5126,"count":12,"min":[-0.3301500082015991,-0.896369993686676,-0.05849999934434891],"max":[-0.0020000000949949028,0.8964300155639648,0.0015300000086426736],"type":"VEC3","name":"part009_vertices#0_POSITION"},{"bufferView":55,"byteOffset":72012,"componentType":5120,"count":12,"type":"VEC4","name":"part009_vertices#0_TANGENT"},{"bufferView":55,"byteOffset":72016,"componentType":5120,"count":12,"type":"VEC4","name":"part009_vertices#0_NORMAL"},{"bufferView":55,"byteOffset":72020,"componentType":5122,"count":12,"type":"VEC2","name":"part009_vertices#0_TEXCOORD_0"},{"bufferView":55,"byteOffset":72024,"componentType":5122,"count":12,"type":"VEC2","name":"part009_vertices#0_TEXCOORD_1"},{"bufferView":55,"byteOffset":72028,"componentType":5123,"count":12,"type":"VEC4","name":"part009_vertices#0_COLOR_0"},{"bufferView":56,"byteOffset":11790,"componentType":5123,"count":12,"type":"SCALAR","name":"part009_indices#0"},{"bufferView":55,"byteOffset":72432,"componentType":5126,"count":12,"min":[0.0,-0.896369993686676,-0.04749000072479248],"max":[0.33215001225471499,0.8964300155639648,0.00853000022470951],"type":"VEC3","name":"part010_vertices#0_POSITION"},{"bufferView":55,"byteOffset":72444,"componentType":5120,"count":12,"type":"VEC4","name":"part010_vertices#0_TANGENT"},{"bufferView":55,"byteOffset":72448,"componentType":5120,"count":12,"type":"VEC4","name":"part010_vertices#0_NORMAL"},{"bufferView":55,"byteOffset":72452,"componentType":5122,"count":12,"type":"VEC2","name":"part010_vertices#0_TEXCOORD_0"},{"bufferView":55,"byteOffset":72456,"componentType":5122,"count":12,"type":"VEC2","name":"part010_vertices#0_TEXCOORD_1"},{"bufferView":55,"byteOffset":72460,"componentType":5123,"count":12,"type":"VEC4","name":"part010_vertices#0_COLOR_0"},{"bufferView":56,"byteOffset":11814,"componentType":5123,"count":12,"type":"SCALAR","name":"part010_indices#0"},{"bufferView":55,"byteOffset":72864,"componentType":5126,"count":12,"min":[-0.3301500082015991,-0.6852800250053406,-0.06792999804019928],"max":[-0.0020000000949949028,0.6873400211334229,0.00009999999747378752],"type":"VEC3","name":"part011_vertices#0_POSITION"},{"bufferView":55,"byteOffset":72876,"componentType":5120,"count":12,"type":"VEC4","name":"part011_vertices#0_TANGENT"},{"bufferView":55,"byteOffset":72880,"componentType":5120,"count":12,"type":"VEC4","name":"part011_vertices#0_NORMAL"},{"bufferView":55,"byteOffset":72884,"componentType":5122,"count":12,"type":"VEC2","name":"part011_vertices#0_TEXCOORD_0"},{"bufferView":55,"byteOffset":72888,"componentType":5122,"count":12,"type":"VEC2","name":"part011_vertices#0_TEXCOORD_1"},{"bufferView":55,"byteOffset":72892,"componentType":5123,"count":12,"type":"VEC4","name":"part011_vertices#0_COLOR_0"},{"bufferView":56,"byteOffset":11838,"componentType":5123,"count":12,"type":"SCALAR","name":"part011_indices#0"},{"bufferView":55,"byteOffset":73296,"componentType":5126,"count":12,"min":[0.0,-0.6852812767028809,-0.040919963270425799],"max":[0.3321496844291687,0.6873412728309631,0.00709999306127429],"type":"VEC3","name":"part012_vertices#0_POSITION"},{"bufferView":55,"byteOffset":73308,"componentType":5120,"count":12,"type":"VEC4","name":"part012_vertices#0_TANGENT"},{"bufferView":55,"byteOffset":73312,"componentType":5120,"count":12,"type":"VEC4","name":"part012_vertices#0_NORMAL"},{"bufferView":55,"byteOffset":73316,"componentType":5122,"count":12,"type":"VEC2","name":"part012_vertices#0_TEXCOORD_0"},{"bufferView":55,"byteOffset":73320,"componentType":5122,"count":12,"type":"VEC2","name":"part012_vertices#0_TEXCOORD_1"},{"bufferView":55,"byteOffset":73324,"componentType":5123,"count":12,"type":"VEC4","name":"part012_vertices#0_COLOR_0"},{"bufferView":56,"byteOffset":11862,"componentType":5123,"count":12,"type":"SCALAR","name":"part012_indices#0"},{"bufferView":55,"byteOffset":73728,"componentType":5126,"count":104,"min":[-2.4999985694885256,-0.8154299855232239,-7.763617038726807],"max":[2.4999985694885256,5.157689094543457,0.23837999999523164],"type":"VEC3","name":"part024_vertices#0_POSITION"},{"bufferView":55,"byteOffset":73740,"componentType":5120,"count":104,"type":"VEC4","name":"part024_vertices#0_TANGENT"},{"bufferView":55,"byteOffset":73744,"componentType":5120,"count":104,"type":"VEC4","name":"part024_vertices#0_NORMAL"},{"bufferView":55,"byteOffset":73748,"componentType":5122,"count":104,"type":"VEC2","name":"part024_vertices#0_TEXCOORD_0"},{"bufferView":55,"byteOffset":73752,"componentType":5122,"count":104,"type":"VEC2","name":"part024_vertices#0_TEXCOORD_1"},{"bufferView":55,"byteOffset":73756,"componentType":5123,"count":104,"type":"VEC4","name":"part024_vertices#0_COLOR_0"},{"bufferView":56,"byteOffset":11886,"componentType":5123,"count":132,"type":"SCALAR","name":"part024_indices#1"},{"bufferView":55,"byteOffset":77472,"componentType":5126,"count":28,"min":[-0.1320600062608719,0.001339999958872795,-0.27788999676704409],"max":[0.1320600062608719,0.09042000025510788,0.0014199999859556556],"type":"VEC3","name":"part025_vertices#0_POSITION"},{"bufferView":55,"byteOffset":77484,"componentType":5120,"count":28,"type":"VEC4","name":"part025_vertices#0_TANGENT"},{"bufferView":55,"byteOffset":77488,"componentType":5120,"count":28,"type":"VEC4","name":"part025_vertices#0_NORMAL"},{"bufferView":55,"byteOffset":77492,"componentType":5122,"count":28,"type":"VEC2","name":"part025_vertices#0_TEXCOORD_0"},{"bufferView":55,"byteOffset":77496,"componentType":5122,"count":28,"type":"VEC2","name":"part025_vertices#0_TEXCOORD_1"},{"bufferView":55,"byteOffset":77500,"componentType":5123,"count":28,"type":"VEC4","name":"part025_vertices#0_COLOR_0"},{"bufferView":56,"byteOffset":12150,"componentType":5123,"count":36,"type":"SCALAR","name":"part025_indices#0"},{"bufferView":55,"byteOffset":78480,"componentType":5126,"count":3356,"min":[-2.499999761581421,-0.261525958776474,-5.40078592300415],"max":[2.499999761581421,9.471426010131836,1.6101841926574708],"type":"VEC3","name":"part026_vertices#0_POSITION"},{"bufferView":55,"byteOffset":78492,"componentType":5120,"count":3356,"type":"VEC4","name":"part026_vertices#0_TANGENT"},{"bufferView":55,"byteOffset":78496,"componentType":5120,"count":3356,"type":"VEC4","name":"part026_vertices#0_NORMAL"},{"bufferView":55,"byteOffset":78500,"componentType":5122,"count":3356,"type":"VEC2","name":"part026_vertices#0_TEXCOORD_0"},{"bufferView":55,"byteOffset":78504,"componentType":5122,"count":3356,"type":"VEC2","name":"part026_vertices#0_TEXCOORD_1"},{"bufferView":55,"byteOffset":78508,"componentType":5123,"count":3356,"type":"VEC4","name":"part026_vertices#0_COLOR_0"},{"bufferView":56,"byteOffset":12222,"componentType":5123,"count":15588,"type":"SCALAR","name":"part026_indices#1"},{"bufferView":55,"byteOffset":199296,"componentType":5126,"count":18,"min":[-0.14806999266147614,-0.23346999287605287,-0.028720000758767129],"max":[0.14806999266147614,0.15871000289916993,0.03130999952554703],"type":"VEC3","name":"part027_vertices#0_POSITION"},{"bufferView":55,"byteOffset":199308,"componentType":5120,"count":18,"type":"VEC4","name":"part027_vertices#0_TANGENT"},{"bufferView":55,"byteOffset":199312,"componentType":5120,"count":18,"type":"VEC4","name":"part027_vertices#0_NORMAL"},{"bufferView":55,"byteOffset":199316,"componentType":5122,"count":18,"type":"VEC2","name":"part027_vertices#0_TEXCOORD_0"},{"bufferView":55,"byteOffset":199320,"componentType":5122,"count":18,"type":"VEC2","name":"part027_vertices#0_TEXCOORD_1"},{"bufferView":55,"byteOffset":199324,"componentType":5123,"count":18,"type":"VEC4","name":"part027_vertices#0_COLOR_0"},{"bufferView":56,"byteOffset":43398,"componentType":5123,"count":24,"type":"SCALAR","name":"part027_indices#0"},{"bufferView":55,"byteOffset":199944,"componentType":5126,"count":24,"min":[0.0020099999383091928,-0.23535999655723573,-0.043710000813007358],"max":[0.15007999539375306,0.1590700000524521,0.005869999993592501],"type":"VEC3","name":"part028_vertices#0_POSITION"},{"bufferView":55,"byteOffset":199956,"componentType":5120,"count":24,"type":"VEC4","name":"part028_vertices#0_TANGENT"},{"bufferView":55,"byteOffset":199960,"componentType":5120,"count":24,"type":"VEC4","name":"part028_vertices#0_NORMAL"},{"bufferView":55,"byteOffset":199964,"componentType":5122,"count":24,"type":"VEC2","name":"part028_vertices#0_TEXCOORD_0"},{"bufferView":55,"byteOffset":199968,"componentType":5122,"count":24,"type":"VEC2","name":"part028_vertices#0_TEXCOORD_1"},{"bufferView":55,"byteOffset":199972,"componentType":5123,"count":24,"type":"VEC4","name":"part028_vertices#0_COLOR_0"},{"bufferView":56,"byteOffset":43446,"componentType":5123,"count":24,"type":"SCALAR","name":"part028_indices#0"},{"bufferView":55,"byteOffset":200808,"componentType":5126,"count":22,"min":[-0.15006999671459199,-0.23541000485420228,-0.04100999981164932],"max":[-0.0020000000949949028,0.15900999307632447,0.004579999949783087],"type":"VEC3","name":"part029_vertices#0_POSITION"},{"bufferView":55,"byteOffset":200820,"componentType":5120,"count":22,"type":"VEC4","name":"part029_vertices#0_TANGENT"},{"bufferView":55,"byteOffset":200824,"componentType":5120,"count":22,"type":"VEC4","name":"part029_vertices#0_NORMAL"},{"bufferView":55,"byteOffset":200828,"componentType":5122,"count":22,"type":"VEC2","name":"part029_vertices#0_TEXCOORD_0"},{"bufferView":55,"byteOffset":200832,"componentType":5122,"count":22,"type":"VEC2","name":"part029_vertices#0_TEXCOORD_1"},{"bufferView":55,"byteOffset":200836,"componentType":5123,"count":22,"type":"VEC4","name":"part029_vertices#0_COLOR_0"},{"bufferView":56,"byteOffset":43494,"componentType":5123,"count":24,"type":"SCALAR","name":"part029_indices#0"},{"bufferView":55,"byteOffset":201600,"componentType":5126,"count":16,"min":[-0.3001300096511841,-0.4535599946975708,-0.10163000226020813],"max":[0.30013999342918398,0.4548499882221222,0.05843999981880188],"type":"VEC3","name":"part030_vertices#0_POSITION"},{"bufferView":55,"byteOffset":201612,"componentType":5120,"count":16,"type":"VEC4","name":"part030_vertices#0_TANGENT"},{"bufferView":55,"byteOffset":201616,"componentType":5120,"count":16,"type":"VEC4","name":"part030_vertices#0_NORMAL"},{"bufferView":55,"byteOffset":201620,"componentType":5122,"count":16,"type":"VEC2","name":"part030_vertices#0_TEXCOORD_0"},{"bufferView":55,"byteOffset":201624,"componentType":5122,"count":16,"type":"VEC2","name":"part030_vertices#0_TEXCOORD_1"},{"bufferView":55,"byteOffset":201628,"componentType":5123,"count":16,"type":"VEC4","name":"part030_vertices#0_COLOR_0"},{"bufferView":56,"byteOffset":43542,"componentType":5123,"count":18,"type":"SCALAR","name":"part030_indices#0"},{"bufferView":55,"byteOffset":202176,"componentType":5126,"count":18,"min":[-0.000009999999747378752,-0.46042999625205996,-0.09839999675750733],"max":[0.3001199960708618,0.456059992313385,0.005919999908655882],"type":"VEC3","name":"part031_vertices#0_POSITION"},{"bufferView":55,"byteOffset":202188,"componentType":5120,"count":18,"type":"VEC4","name":"part031_vertices#0_TANGENT"},{"bufferView":55,"byteOffset":202192,"componentType":5120,"count":18,"type":"VEC4","name":"part031_vertices#0_NORMAL"},{"bufferView":55,"byteOffset":202196,"componentType":5122,"count":18,"type":"VEC2","name":"part031_vertices#0_TEXCOORD_0"},{"bufferView":55,"byteOffset":202200,"componentType":5122,"count":18,"type":"VEC2","name":"part031_vertices#0_TEXCOORD_1"},{"bufferView":55,"byteOffset":202204,"componentType":5123,"count":18,"type":"VEC4","name":"part031_vertices#0_COLOR_0"},{"bufferView":56,"byteOffset":43578,"componentType":5123,"count":18,"type":"SCALAR","name":"part031_indices#0"},{"bufferView":55,"byteOffset":202824,"componentType":5126,"count":18,"min":[-0.30013999342918398,-0.46042999625205996,-0.09839999675750733],"max":[-0.000009999999747378752,0.456059992313385,0.005919999908655882],"type":"VEC3","name":"part032_vertices#0_POSITION"},{"bufferView":55,"byteOffset":202836,"componentType":5120,"count":18,"type":"VEC4","name":"part032_vertices#0_TANGENT"},{"bufferView":55,"byteOffset":202840,"componentType":5120,"count":18,"type":"VEC4","name":"part032_vertices#0_NORMAL"},{"bufferView":55,"byteOffset":202844,"componentType":5122,"count":18,"type":"VEC2","name":"part032_vertices#0_TEXCOORD_0"},{"bufferView":55,"byteOffset":202848,"componentType":5122,"count":18,"type":"VEC2","name":"part032_vertices#0_TEXCOORD_1"},{"bufferView":55,"byteOffset":202852,"componentType":5123,"count":18,"type":"VEC4","name":"part032_vertices#0_COLOR_0"},{"bufferView":56,"byteOffset":43614,"componentType":5123,"count":18,"type":"SCALAR","name":"part032_indices#0"},{"bufferView":55,"byteOffset":203472,"componentType":5126,"count":18,"min":[-1.3571300506591797,-0.7204999923706055,-0.40487998723983767],"max":[1.641759991645813,0.004480000119656324,0.021050000563263894],"type":"VEC3","name":"part036_vertices#0_POSITION"},{"bufferView":55,"byteOffset":203484,"componentType":5120,"count":18,"type":"VEC4","name":"part036_vertices#0_TANGENT"},{"bufferView":55,"byteOffset":203488,"componentType":5120,"count":18,"type":"VEC4","name":"part036_vertices#0_NORMAL"},{"bufferView":55,"byteOffset":203492,"componentType":5122,"count":18,"type":"VEC2","name":"part036_vertices#0_TEXCOORD_0"},{"bufferView":55,"byteOffset":203496,"componentType":5122,"count":18,"type":"VEC2","name":"part036_vertices#0_TEXCOORD_1"},{"bufferView":55,"byteOffset":203500,"componentType":5123,"count":18,"type":"VEC4","name":"part036_vertices#0_COLOR_0"},{"bufferView":56,"byteOffset":43650,"componentType":5123,"count":18,"type":"SCALAR","name":"part036_indices#0"},{"bufferView":55,"byteOffset":204120,"componentType":5126,"count":21,"min":[-2.4012885093688967,-1.246533989906311,-0.5085609555244446],"max":[3.5421500205993654,-0.02332398295402527,0.3388890326023102],"type":"VEC3","name":"part037_vertices#0_POSITION"},{"bufferView":55,"byteOffset":204132,"componentType":5120,"count":21,"type":"VEC4","name":"part037_vertices#0_TANGENT"},{"bufferView":55,"byteOffset":204136,"componentType":5120,"count":21,"type":"VEC4","name":"part037_vertices#0_NORMAL"},{"bufferView":55,"byteOffset":204140,"componentType":5122,"count":21,"type":"VEC2","name":"part037_vertices#0_TEXCOORD_0"},{"bufferView":55,"byteOffset":204144,"componentType":5122,"count":21,"type":"VEC2","name":"part037_vertices#0_TEXCOORD_1"},{"bufferView":55,"byteOffset":204148,"componentType":5123,"count":21,"type":"VEC4","name":"part037_vertices#0_COLOR_0"},{"bufferView":56,"byteOffset":43686,"componentType":5123,"count":21,"type":"SCALAR","name":"part037_indices#0"},{"bufferView":55,"byteOffset":204876,"componentType":5126,"count":146,"min":[-0.11845999956130982,-0.45493999123573305,-0.20229999721050263],"max":[14.271989822387696,0.3906500041484833,0.27632999420166018],"type":"VEC3","name":"part038_vertices#0_POSITION"},{"bufferView":55,"byteOffset":204888,"componentType":5120,"count":146,"type":"VEC4","name":"part038_vertices#0_TANGENT"},{"bufferView":55,"byteOffset":204892,"componentType":5120,"count":146,"type":"VEC4","name":"part038_vertices#0_NORMAL"},{"bufferView":55,"byteOffset":204896,"componentType":5122,"count":146,"type":"VEC2","name":"part038_vertices#0_TEXCOORD_0"},{"bufferView":55,"byteOffset":204900,"componentType":5122,"count":146,"type":"VEC2","name":"part038_vertices#0_TEXCOORD_1"},{"bufferView":55,"byteOffset":204904,"componentType":5123,"count":146,"type":"VEC4","name":"part038_vertices#0_COLOR_0"},{"bufferView":56,"byteOffset":43728,"componentType":5123,"count":168,"type":"SCALAR","name":"part038_indices#0"},{"bufferView":55,"byteOffset":210132,"componentType":5126,"count":148,"min":[-0.0924300029873848,-0.32857000827789309,-0.16211000084877015],"max":[19.1092529296875,0.2888999879360199,0.21911999583244325],"type":"VEC3","name":"part039_vertices#0_POSITION"},{"bufferView":55,"byteOffset":210144,"componentType":5120,"count":148,"type":"VEC4","name":"part039_vertices#0_TANGENT"},{"bufferView":55,"byteOffset":210148,"componentType":5120,"count":148,"type":"VEC4","name":"part039_vertices#0_NORMAL"},{"bufferView":55,"byteOffset":210152,"componentType":5122,"count":148,"type":"VEC2","name":"part039_vertices#0_TEXCOORD_0"},{"bufferView":55,"byteOffset":210156,"componentType":5122,"count":148,"type":"VEC2","name":"part039_vertices#0_TEXCOORD_1"},{"bufferView":55,"byteOffset":210160,"componentType":5123,"count":148,"type":"VEC4","name":"part039_vertices#0_COLOR_0"},{"bufferView":56,"byteOffset":44064,"componentType":5123,"count":168,"type":"SCALAR","name":"part039_indices#0"},{"bufferView":55,"byteOffset":215460,"componentType":5126,"count":18,"min":[-1.6416599750518799,-0.7204499840736389,-0.40397000312805178],"max":[1.356969952583313,0.001129999989643693,0.019840000197291375],"type":"VEC3","name":"part040_vertices#0_POSITION"},{"bufferView":55,"byteOffset":215472,"componentType":5120,"count":18,"type":"VEC4","name":"part040_vertices#0_TANGENT"},{"bufferView":55,"byteOffset":215476,"componentType":5120,"count":18,"type":"VEC4","name":"part040_vertices#0_NORMAL"},{"bufferView":55,"byteOffset":215480,"componentType":5122,"count":18,"type":"VEC2","name":"part040_vertices#0_TEXCOORD_0"},{"bufferView":55,"byteOffset":215484,"componentType":5122,"count":18,"type":"VEC2","name":"part040_vertices#0_TEXCOORD_1"},{"bufferView":55,"byteOffset":215488,"componentType":5123,"count":18,"type":"VEC4","name":"part040_vertices#0_COLOR_0"},{"bufferView":56,"byteOffset":44400,"componentType":5123,"count":18,"type":"SCALAR","name":"part040_indices#0"},{"bufferView":55,"byteOffset":216108,"componentType":5126,"count":21,"min":[-3.6329116821289064,-1.2556637525558472,-0.5423716306686401],"max":[2.44496488571167,-0.01575322449207306,0.31664854288101199],"type":"VEC3","name":"part041_vertices#0_POSITION"},{"bufferView":55,"byteOffset":216120,"componentType":5120,"count":21,"type":"VEC4","name":"part041_vertices#0_TANGENT"},{"bufferView":55,"byteOffset":216124,"componentType":5120,"count":21,"type":"VEC4","name":"part041_vertices#0_NORMAL"},{"bufferView":55,"byteOffset":216128,"componentType":5122,"count":21,"type":"VEC2","name":"part041_vertices#0_TEXCOORD_0"},{"bufferView":55,"byteOffset":216132,"componentType":5122,"count":21,"type":"VEC2","name":"part041_vertices#0_TEXCOORD_1"},{"bufferView":55,"byteOffset":216136,"componentType":5123,"count":21,"type":"VEC4","name":"part041_vertices#0_COLOR_0"},{"bufferView":56,"byteOffset":44436,"componentType":5123,"count":21,"type":"SCALAR","name":"part041_indices#0"},{"bufferView":55,"byteOffset":216864,"componentType":5126,"count":12,"min":[-2.020930051803589,-0.38086000084877016,-0.03102000057697296],"max":[2.0362699031829836,0.013949999585747719,0.004389999900013208],"type":"VEC3","name":"part001.002_vertices#0_POSITION"},{"bufferView":55,"byteOffset":216876,"componentType":5120,"count":12,"type":"VEC4","name":"part001.002_vertices#0_TANGENT"},{"bufferView":55,"byteOffset":216880,"componentType":5120,"count":12,"type":"VEC4","name":"part001.002_vertices#0_NORMAL"},{"bufferView":55,"byteOffset":216884,"componentType":5122,"count":12,"type":"VEC2","name":"part001.002_vertices#0_TEXCOORD_0"},{"bufferView":55,"byteOffset":216888,"componentType":5122,"count":12,"type":"VEC2","name":"part001.002_vertices#0_TEXCOORD_1"},{"bufferView":55,"byteOffset":216892,"componentType":5123,"count":12,"type":"VEC4","name":"part001.002_vertices#0_COLOR_0"},{"bufferView":56,"byteOffset":44478,"componentType":5123,"count":12,"type":"SCALAR","name":"part001.002_indices#0"},{"bufferView":55,"byteOffset":217296,"componentType":5126,"count":280,"min":[-1.9878900051116944,-0.5209900140762329,-1.984890103340149],"max":[1.9818899631500245,0.5194699764251709,1.9848898649215699],"type":"VEC3","name":"part034_vertices#0_POSITION"},{"bufferView":55,"byteOffset":217308,"componentType":5120,"count":280,"type":"VEC4","name":"part034_vertices#0_TANGENT"},{"bufferView":55,"byteOffset":217312,"componentType":5120,"count":280,"type":"VEC4","name":"part034_vertices#0_NORMAL"},{"bufferView":55,"byteOffset":217316,"componentType":5122,"count":280,"type":"VEC2","name":"part034_vertices#0_TEXCOORD_0"},{"bufferView":55,"byteOffset":217320,"componentType":5122,"count":280,"type":"VEC2","name":"part034_vertices#0_TEXCOORD_1"},{"bufferView":55,"byteOffset":217324,"componentType":5123,"count":280,"type":"VEC4","name":"part034_vertices#0_COLOR_0"},{"bufferView":56,"byteOffset":44502,"componentType":5123,"count":300,"type":"SCALAR","name":"part034_indices#1"},{"bufferView":55,"byteOffset":227376,"componentType":5126,"count":440,"min":[-1.5756001472473145,-0.5209900140762329,-1.6727499961853028],"max":[1.6419036388397217,0.5194699764251709,1.6727499961853028],"type":"VEC3","name":"part042_vertices#0_POSITION"},{"bufferView":55,"byteOffset":227388,"componentType":5120,"count":440,"type":"VEC4","name":"part042_vertices#0_TANGENT"},{"bufferView":55,"byteOffset":227392,"componentType":5120,"count":440,"type":"VEC4","name":"part042_vertices#0_NORMAL"},{"bufferView":55,"byteOffset":227396,"componentType":5122,"count":440,"type":"VEC2","name":"part042_vertices#0_TEXCOORD_0"},{"bufferView":55,"byteOffset":227400,"componentType":5122,"count":440,"type":"VEC2","name":"part042_vertices#0_TEXCOORD_1"},{"bufferView":55,"byteOffset":227404,"componentType":5123,"count":440,"type":"VEC4","name":"part042_vertices#0_COLOR_0"},{"bufferView":56,"byteOffset":45102,"componentType":5123,"count":456,"type":"SCALAR","name":"part042_indices#0"},{"bufferView":55,"byteOffset":243216,"componentType":5126,"count":162,"min":[-1.6211997270584107,-0.2420962154865265,-0.11510753631591797],"max":[1.6421091556549073,0.2406376153230667,12.056624412536621],"type":"VEC3","name":"part004.001_vertices#0_POSITION"},{"bufferView":55,"byteOffset":243228,"componentType":5120,"count":162,"type":"VEC4","name":"part004.001_vertices#0_TANGENT"},{"bufferView":55,"byteOffset":243232,"componentType":5120,"count":162,"type":"VEC4","name":"part004.001_vertices#0_NORMAL"},{"bufferView":55,"byteOffset":243236,"componentType":5122,"count":162,"type":"VEC2","name":"part004.001_vertices#0_TEXCOORD_0"},{"bufferView":55,"byteOffset":243240,"componentType":5122,"count":162,"type":"VEC2","name":"part004.001_vertices#0_TEXCOORD_1"},{"bufferView":55,"byteOffset":243244,"componentType":5123,"count":162,"type":"VEC4","name":"part004.001_vertices#0_COLOR_0"},{"bufferView":56,"byteOffset":46014,"componentType":5123,"count":324,"type":"SCALAR","name":"part004.001_indices#0"},{"bufferView":55,"byteOffset":249048,"componentType":5126,"count":272,"min":[-0.2714708745479584,-1.623460054397583,-0.3111400008201599],"max":[6.713846206665039,4.664212226867676,8.390852928161621],"type":"VEC3","name":"part013.001_vertices#0_POSITION"},{"bufferView":55,"byteOffset":249060,"componentType":5120,"count":272,"type":"VEC4","name":"part013.001_vertices#0_TANGENT"},{"bufferView":55,"byteOffset":249064,"componentType":5120,"count":272,"type":"VEC4","name":"part013.001_vertices#0_NORMAL"},{"bufferView":55,"byteOffset":249068,"componentType":5122,"count":272,"type":"VEC2","name":"part013.001_vertices#0_TEXCOORD_0"},{"bufferView":55,"byteOffset":249072,"componentType":5122,"count":272,"type":"VEC2","name":"part013.001_vertices#0_TEXCOORD_1"},{"bufferView":55,"byteOffset":249076,"componentType":5123,"count":272,"type":"VEC4","name":"part013.001_vertices#0_COLOR_0"},{"bufferView":56,"byteOffset":46662,"componentType":5123,"count":324,"type":"SCALAR","name":"part013.001_indices#1"},{"bufferView":55,"byteOffset":258840,"componentType":5126,"count":62,"min":[-0.07644087821245194,-0.17996999621391297,-4.606060028076172],"max":[0.0790100023150444,0.8566807508468628,3.7907917499542238],"type":"VEC3","name":"part014.001_vertices#0_POSITION"},{"bufferView":55,"byteOffset":258852,"componentType":5120,"count":62,"type":"VEC4","name":"part014.001_vertices#0_TANGENT"},{"bufferView":55,"byteOffset":258856,"componentType":5120,"count":62,"type":"VEC4","name":"part014.001_vertices#0_NORMAL"},{"bufferView":55,"byteOffset":258860,"componentType":5122,"count":62,"type":"VEC2","name":"part014.001_vertices#0_TEXCOORD_0"},{"bufferView":55,"byteOffset":258864,"componentType":5122,"count":62,"type":"VEC2","name":"part014.001_vertices#0_TEXCOORD_1"},{"bufferView":55,"byteOffset":258868,"componentType":5123,"count":62,"type":"VEC4","name":"part014.001_vertices#0_COLOR_0"},{"bufferView":56,"byteOffset":47310,"componentType":5123,"count":78,"type":"SCALAR","name":"part014.001_indices#0"},{"bufferView":55,"byteOffset":261072,"componentType":5126,"count":4829,"min":[-6.540829181671143,-0.41857486963272097,-0.41832074522972109],"max":[0.31614500284194949,6.966495513916016,5.927591323852539],"type":"VEC3","name":"part015.001_vertices#0_POSITION"},{"bufferView":55,"byteOffset":261084,"componentType":5120,"count":4829,"type":"VEC4","name":"part015.001_vertices#0_TANGENT"},{"bufferView":55,"byteOffset":261088,"componentType":5120,"count":4829,"type":"VEC4","name":"part015.001_vertices#0_NORMAL"},{"bufferView":55,"byteOffset":261092,"componentType":5122,"count":4829,"type":"VEC2","name":"part015.001_vertices#0_TEXCOORD_0"},{"bufferView":55,"byteOffset":261096,"componentType":5122,"count":4829,"type":"VEC2","name":"part015.001_vertices#0_TEXCOORD_1"},{"bufferView":55,"byteOffset":261100,"componentType":5123,"count":4829,"type":"VEC4","name":"part015.001_vertices#0_COLOR_0"},{"bufferView":56,"byteOffset":47466,"componentType":5123,"count":16164,"type":"SCALAR","name":"part015.001_indices#1"},{"bufferView":55,"byteOffset":434916,"componentType":5126,"count":4447,"min":[-0.31614506244659426,-0.41857486963272097,-0.4183194041252136],"max":[6.542456150054932,6.966493129730225,5.9275970458984379],"type":"VEC3","name":"part016.001_vertices#0_POSITION"},{"bufferView":55,"byteOffset":434928,"componentType":5120,"count":4447,"type":"VEC4","name":"part016.001_vertices#0_TANGENT"},{"bufferView":55,"byteOffset":434932,"componentType":5120,"count":4447,"type":"VEC4","name":"part016.001_vertices#0_NORMAL"},{"bufferView":55,"byteOffset":434936,"componentType":5122,"count":4447,"type":"VEC2","name":"part016.001_vertices#0_TEXCOORD_0"},{"bufferView":55,"byteOffset":434940,"componentType":5122,"count":4447,"type":"VEC2","name":"part016.001_vertices#0_TEXCOORD_1"},{"bufferView":55,"byteOffset":434944,"componentType":5123,"count":4447,"type":"VEC4","name":"part016.001_vertices#0_COLOR_0"},{"bufferView":56,"byteOffset":79794,"componentType":5123,"count":16164,"type":"SCALAR","name":"part016.001_indices#1"},{"bufferView":55,"byteOffset":595008,"componentType":5126,"count":64,"min":[-8.111767768859864,-1.8518699407577515,-1.1625200510025025],"max":[0.035020001232624057,0.051330000162124637,0.008200000040233136],"type":"VEC3","name":"part017_vertices#0_POSITION"},{"bufferView":55,"byteOffset":595020,"componentType":5120,"count":64,"type":"VEC4","name":"part017_vertices#0_TANGENT"},{"bufferView":55,"byteOffset":595024,"componentType":5120,"count":64,"type":"VEC4","name":"part017_vertices#0_NORMAL"},{"bufferView":55,"byteOffset":595028,"componentType":5122,"count":64,"type":"VEC2","name":"part017_vertices#0_TEXCOORD_0"},{"bufferView":55,"byteOffset":595032,"componentType":5122,"count":64,"type":"VEC2","name":"part017_vertices#0_TEXCOORD_1"},{"bufferView":55,"byteOffset":595036,"componentType":5123,"count":64,"type":"VEC4","name":"part017_vertices#0_COLOR_0"},{"bufferView":56,"byteOffset":112122,"componentType":5123,"count":72,"type":"SCALAR","name":"part017_indices#0"},{"bufferView":55,"byteOffset":597312,"componentType":5126,"count":12,"min":[0.0020000000949949028,-0.6873400211334229,-0.00009999999747378752],"max":[0.3301500082015991,0.6852800250053406,0.06792999804019928],"type":"VEC3","name":"part019.001_vertices#0_POSITION"},{"bufferView":55,"byteOffset":597324,"componentType":5120,"count":12,"type":"VEC4","name":"part019.001_vertices#0_TANGENT"},{"bufferView":55,"byteOffset":597328,"componentType":5120,"count":12,"type":"VEC4","name":"part019.001_vertices#0_NORMAL"},{"bufferView":55,"byteOffset":597332,"componentType":5122,"count":12,"type":"VEC2","name":"part019.001_vertices#0_TEXCOORD_0"},{"bufferView":55,"byteOffset":597336,"componentType":5122,"count":12,"type":"VEC2","name":"part019.001_vertices#0_TEXCOORD_1"},{"bufferView":55,"byteOffset":597340,"componentType":5123,"count":12,"type":"VEC4","name":"part019.001_vertices#0_COLOR_0"},{"bufferView":56,"byteOffset":112266,"componentType":5123,"count":12,"type":"SCALAR","name":"part019.001_indices#0"},{"bufferView":55,"byteOffset":597744,"componentType":5126,"count":12,"min":[-0.33215001225471499,-0.6873400211334229,-0.0071000000461936],"max":[0.0,0.6852800250053406,0.04092000052332878],"type":"VEC3","name":"part020.001_vertices#0_POSITION"},{"bufferView":55,"byteOffset":597756,"componentType":5120,"count":12,"type":"VEC4","name":"part020.001_vertices#0_TANGENT"},{"bufferView":55,"byteOffset":597760,"componentType":5120,"count":12,"type":"VEC4","name":"part020.001_vertices#0_NORMAL"},{"bufferView":55,"byteOffset":597764,"componentType":5122,"count":12,"type":"VEC2","name":"part020.001_vertices#0_TEXCOORD_0"},{"bufferView":55,"byteOffset":597768,"componentType":5122,"count":12,"type":"VEC2","name":"part020.001_vertices#0_TEXCOORD_1"},{"bufferView":55,"byteOffset":597772,"componentType":5123,"count":12,"type":"VEC4","name":"part020.001_vertices#0_COLOR_0"},{"bufferView":56,"byteOffset":112290,"componentType":5123,"count":12,"type":"SCALAR","name":"part020.001_indices#0"},{"bufferView":55,"byteOffset":598176,"componentType":5126,"count":12,"min":[0.002000001724809408,-0.8964285254478455,-0.0016500013880431653],"max":[0.3301502764225006,0.8963685035705566,0.05437004566192627],"type":"VEC3","name":"part022.001_vertices#0_POSITION"},{"bufferView":55,"byteOffset":598188,"componentType":5120,"count":12,"type":"VEC4","name":"part022.001_vertices#0_TANGENT"},{"bufferView":55,"byteOffset":598192,"componentType":5120,"count":12,"type":"VEC4","name":"part022.001_vertices#0_NORMAL"},{"bufferView":55,"byteOffset":598196,"componentType":5122,"count":12,"type":"VEC2","name":"part022.001_vertices#0_TEXCOORD_0"},{"bufferView":55,"byteOffset":598200,"componentType":5122,"count":12,"type":"VEC2","name":"part022.001_vertices#0_TEXCOORD_1"},{"bufferView":55,"byteOffset":598204,"componentType":5123,"count":12,"type":"VEC4","name":"part022.001_vertices#0_COLOR_0"},{"bufferView":56,"byteOffset":112314,"componentType":5123,"count":12,"type":"SCALAR","name":"part022.001_indices#0"},{"bufferView":55,"byteOffset":598608,"componentType":5126,"count":12,"min":[-0.33215001225471499,-0.8964300155639648,-0.00865000020712614],"max":[0.0,0.896369993686676,0.04337000101804733],"type":"VEC3","name":"part023.001_vertices#0_POSITION"},{"bufferView":55,"byteOffset":598620,"componentType":5120,"count":12,"type":"VEC4","name":"part023.001_vertices#0_TANGENT"},{"bufferView":55,"byteOffset":598624,"componentType":5120,"count":12,"type":"VEC4","name":"part023.001_vertices#0_NORMAL"},{"bufferView":55,"byteOffset":598628,"componentType":5122,"count":12,"type":"VEC2","name":"part023.001_vertices#0_TEXCOORD_0"},{"bufferView":55,"byteOffset":598632,"componentType":5122,"count":12,"type":"VEC2","name":"part023.001_vertices#0_TEXCOORD_1"},{"bufferView":55,"byteOffset":598636,"componentType":5123,"count":12,"type":"VEC4","name":"part023.001_vertices#0_COLOR_0"},{"bufferView":56,"byteOffset":112338,"componentType":5123,"count":12,"type":"SCALAR","name":"part023.001_indices#0"},{"bufferView":55,"byteOffset":599040,"componentType":5126,"count":440,"min":[-1.5756001472473145,-0.5209900140762329,-1.6727499961853028],"max":[1.6419036388397217,0.5194699764251709,1.6727499961853028],"type":"VEC3","name":"part042.001_vertices#0_POSITION"},{"bufferView":55,"byteOffset":599052,"componentType":5120,"count":440,"type":"VEC4","name":"part042.001_vertices#0_TANGENT"},{"bufferView":55,"byteOffset":599056,"componentType":5120,"count":440,"type":"VEC4","name":"part042.001_vertices#0_NORMAL"},{"bufferView":55,"byteOffset":599060,"componentType":5122,"count":440,"type":"VEC2","name":"part042.001_vertices#0_TEXCOORD_0"},{"bufferView":55,"byteOffset":599064,"componentType":5122,"count":440,"type":"VEC2","name":"part042.001_vertices#0_TEXCOORD_1"},{"bufferView":55,"byteOffset":599068,"componentType":5123,"count":440,"type":"VEC4","name":"part042.001_vertices#0_COLOR_0"},{"bufferView":56,"byteOffset":112362,"componentType":5123,"count":456,"type":"SCALAR","name":"part042.001_indices#0"},{"bufferView":55,"byteOffset":614880,"componentType":5126,"count":208,"min":[-4.515261650085449,-0.03660941123962402,-0.7661294937133789],"max":[4.515261650085449,0.04343891143798828,0.5480804443359375],"type":"VEC3","name":"part001.001_vertices#0_POSITION"},{"bufferView":55,"byteOffset":614892,"componentType":5120,"count":208,"type":"VEC4","name":"part001.001_vertices#0_TANGENT"},{"bufferView":55,"byteOffset":614896,"componentType":5120,"count":208,"type":"VEC4","name":"part001.001_vertices#0_NORMAL"},{"bufferView":55,"byteOffset":614900,"componentType":5122,"count":208,"type":"VEC2","name":"part001.001_vertices#0_TEXCOORD_0"},{"bufferView":55,"byteOffset":614904,"componentType":5122,"count":208,"type":"VEC2","name":"part001.001_vertices#0_TEXCOORD_1"},{"bufferView":55,"byteOffset":614908,"componentType":5123,"count":208,"type":"VEC4","name":"part001.001_vertices#0_COLOR_0"},{"bufferView":56,"byteOffset":113274,"componentType":5123,"count":372,"type":"SCALAR","name":"part001.001_indices#0"}],"animations":[{"name":"SPOILERS","channels":[{"sampler":0,"target":{"node":3,"path":"rotation"}},{"sampler":1,"target":{"node":78,"path":"rotation"}}],"samplers":[{"input":0,"output":1,"interpolation":"LINEAR"},{"input":0,"output":2,"interpolation":"LINEAR"}]},{"name":"PropBlur_R","channels":[{"sampler":0,"target":{"node":6,"path":"rotation"}}],"samplers":[{"input":0,"output":3,"interpolation":"LINEAR"}]},{"name":"GEAR_right","channels":[{"sampler":0,"target":{"node":11,"path":"translation"}},{"sampler":1,"target":{"node":12,"path":"translation"}},{"sampler":2,"target":{"node":14,"path":"translation"}},{"sampler":3,"target":{"node":14,"path":"rotation"}},{"sampler":4,"target":{"node":16,"path":"translation"}},{"sampler":5,"target":{"node":16,"path":"rotation"}},{"sampler":6,"target":{"node":18,"path":"translation"}},{"sampler":7,"target":{"node":18,"path":"rotation"}},{"sampler":8,"target":{"node":20,"path":"translation"}},{"sampler":9,"target":{"node":20,"path":"rotation"}}],"samplers":[{"input":4,"output":5,"interpolation":"LINEAR"},{"input":4,"output":6,"interpolation":"LINEAR"},{"input":4,"output":7,"interpolation":"LINEAR"},{"input":4,"output":8,"interpolation":"LINEAR"},{"input":4,"output":9,"interpolation":"LINEAR"},{"input":4,"output":10,"interpolation":"LINEAR"},{"input":4,"output":11,"interpolation":"LINEAR"},{"input":4,"output":12,"interpolation":"LINEAR"},{"input":4,"output":13,"interpolation":"LINEAR"},{"input":4,"output":14,"interpolation":"LINEAR"}]},{"name":"GEAR_center","channels":[{"sampler":0,"target":{"node":33,"path":"translation"}},{"sampler":1,"target":{"node":31,"path":"rotation"}},{"sampler":2,"target":{"node":28,"path":"translation"}},{"sampler":3,"target":{"node":26,"path":"rotation"}},{"sampler":4,"target":{"node":35,"path":"translation"}},{"sampler":5,"target":{"node":37,"path":"rotation"}},{"sampler":6,"target":{"node":41,"path":"rotation"}},{"sampler":7,"target":{"node":45,"path":"translation"}},{"sampler":8,"target":{"node":46,"path":"rotation"}},{"sampler":9,"target":{"node":48,"path":"rotation"}}],"samplers":[{"input":4,"output":15,"interpolation":"LINEAR"},{"input":4,"output":16,"interpolation":"LINEAR"},{"input":4,"output":17,"interpolation":"LINEAR"},{"input":4,"output":18,"interpolation":"LINEAR"},{"input":4,"output":19,"interpolation":"LINEAR"},{"input":4,"output":20,"interpolation":"LINEAR"},{"input":4,"output":21,"interpolation":"LINEAR"},{"input":4,"output":22,"interpolation":"LINEAR"},{"input":4,"output":23,"interpolation":"LINEAR"},{"input":4,"output":24,"interpolation":"LINEAR"}]},{"name":"GEAR_STEER","channels":[{"sampler":0,"target":{"node":32,"path":"rotation"}}],"samplers":[{"input":0,"output":25,"interpolation":"LINEAR"}]},{"name":"WHEEL_ROLL_center","channels":[{"sampler":0,"target":{"node":24,"path":"rotation"}}],"samplers":[{"input":0,"output":26,"interpolation":"LINEAR"}]},{"name":"FLAPS","channels":[{"sampler":0,"target":{"node":56,"path":"translation"}},{"sampler":1,"target":{"node":54,"path":"rotation"}},{"sampler":2,"target":{"node":60,"path":"translation"}},{"sampler":3,"target":{"node":58,"path":"rotation"}},{"sampler":4,"target":{"node":62,"path":"translation"}},{"sampler":5,"target":{"node":62,"path":"rotation"}},{"sampler":6,"target":{"node":66,"path":"translation"}},{"sampler":7,"target":{"node":66,"path":"rotation"}},{"sampler":8,"target":{"node":72,"path":"translation"}},{"sampler":9,"target":{"node":70,"path":"rotation"}},{"sampler":10,"target":{"node":76,"path":"translation"}},{"sampler":11,"target":{"node":74,"path":"rotation"}}],"samplers":[{"input":0,"output":27,"interpolation":"LINEAR"},{"input":0,"output":28,"interpolation":"LINEAR"},{"input":0,"output":29,"interpolation":"LINEAR"},{"input":0,"output":30,"interpolation":"LINEAR"},{"input":0,"output":31,"interpolation":"LINEAR"},{"input":0,"output":32,"interpolation":"LINEAR"},{"input":0,"output":33,"interpolation":"LINEAR"},{"input":0,"output":34,"interpolation":"LINEAR"},{"input":0,"output":35,"interpolation":"LINEAR"},{"input":0,"output":36,"interpolation":"LINEAR"},{"input":0,"output":37,"interpolation":"LINEAR"},{"input":0,"output":38,"interpolation":"LINEAR"}]},{"name":"PropBlur_L","channels":[{"sampler":0,"target":{"node":81,"path":"rotation"}}],"samplers":[{"input":0,"output":39,"interpolation":"LINEAR"}]},{"name":"PropSlow_L","channels":[{"sampler":0,"target":{"node":85,"path":"rotation"}}],"samplers":[{"input":0,"output":40,"interpolation":"LINEAR"}]},{"name":"GEAR_left","channels":[{"sampler":0,"target":{"node":102,"path":"translation"}},{"sampler":1,"target":{"node":100,"path":"rotation"}},{"sampler":2,"target":{"node":98,"path":"translation"}},{"sampler":3,"target":{"node":104,"path":"rotation"}},{"sampler":4,"target":{"node":106,"path":"rotation"}},{"sampler":5,"target":{"node":108,"path":"rotation"}},{"sampler":6,"target":{"node":110,"path":"translation"}},{"sampler":7,"target":{"node":110,"path":"rotation"}},{"sampler":8,"target":{"node":112,"path":"translation"}},{"sampler":9,"target":{"node":112,"path":"rotation"}}],"samplers":[{"input":4,"output":41,"interpolation":"LINEAR"},{"input":4,"output":42,"interpolation":"LINEAR"},{"input":4,"output":43,"interpolation":"LINEAR"},{"input":4,"output":44,"interpolation":"LINEAR"},{"input":4,"output":45,"interpolation":"LINEAR"},{"input":4,"output":46,"interpolation":"LINEAR"},{"input":4,"output":47,"interpolation":"LINEAR"},{"input":4,"output":48,"interpolation":"LINEAR"},{"input":4,"output":49,"interpolation":"LINEAR"},{"input":4,"output":50,"interpolation":"LINEAR"}]},{"name":"WHEEL_ROLL_right","channels":[{"sampler":0,"target":{"node":92,"path":"rotation"}}],"samplers":[{"input":0,"output":51,"interpolation":"LINEAR"}]},{"name":"WHEEL_ROLL_left","channels":[{"sampler":0,"target":{"node":95,"path":"rotation"}}],"samplers":[{"input":0,"output":52,"interpolation":"LINEAR"}]},{"name":"PropSlow_R","channels":[{"sampler":0,"target":{"node":120,"path":"rotation"}}],"samplers":[{"input":0,"output":53,"interpolation":"LINEAR"}]},{"name":"ELEVATOR","channels":[{"sampler":0,"target":{"node":124,"path":"rotation"}}],"samplers":[{"input":0,"output":54,"interpolation":"LINEAR"}]}],"asset":{"generator":"Khronos glTF Blender I/O v3.6.28 and Asobo Studio MSFS2020 Blender I/O v3.3.1 with Blender v3.6.23","version":"2.0","extensions":{"ASOBO_asset_optimized":{"BoundingBoxMax":[19.1092529296875,9.471426010131836,14.043838500976563],"BoundingBoxMin":[-13.722140312194825,-3.2654600143432619,-12.86575984954834],"MajorVersion":4,"MinorVersion":4,"UseCheckerboardMaterialForMissingTextures":true,"UseOnlyFilenameForImageURI":true},"ASOBO_normal_map_convention":{"tangent_space_convention":"DirectX"}}},"bufferViews":[{"buffer":0,"byteLength":404},{"buffer":0,"byteLength":1616,"byteOffset":404},{"buffer":0,"byteLength":1616,"byteOffset":2020},{"buffer":0,"byteLength":1616,"byteOffset":3636},{"buffer":0,"byteLength":804,"byteOffset":5252},{"buffer":0,"byteLength":2412,"byteOffset":6056},{"buffer":0,"byteLength":2412,"byteOffset":8468},{"buffer":0,"byteLength":2412,"byteOffset":10880},{"buffer":0,"byteLength":3216,"byteOffset":13292},{"buffer":0,"byteLength":2412,"byteOffset":16508},{"buffer":0,"byteLength":3216,"byteOffset":18920},{"buffer":0,"byteLength":2412,"byteOffset":22136},{"buffer":0,"byteLength":3216,"byteOffset":24548},{"buffer":0,"byteLength":2412,"byteOffset":27764},{"buffer":0,"byteLength":3216,"byteOffset":30176},{"buffer":0,"byteLength":2412,"byteOffset":33392},{"buffer":0,"byteLength":3216,"byteOffset":35804},{"buffer":0,"byteLength":2412,"byteOffset":39020},{"buffer":0,"byteLength":3216,"byteOffset":41432},{"buffer":0,"byteLength":2412,"byteOffset":44648},{"buffer":0,"byteLength":3216,"byteOffset":47060},{"buffer":0,"byteLength":3216,"byteOffset":50276},{"buffer":0,"byteLength":2412,"byteOffset":53492},{"buffer":0,"byteLength":3216,"byteOffset":55904},{"buffer":0,"byteLength":3216,"byteOffset":59120},{"buffer":0,"byteLength":1616,"byteOffset":62336},{"buffer":0,"byteLength":1616,"byteOffset":63952},{"buffer":0,"byteLength":1212,"byteOffset":65568},{"buffer":0,"byteLength":1616,"byteOffset":66780},{"buffer":0,"byteLength":1212,"byteOffset":68396},{"buffer":0,"byteLength":1616,"byteOffset":69608},{"buffer":0,"byteLength":1212,"byteOffset":71224},{"buffer":0,"byteLength":1616,"byteOffset":72436},{"buffer":0,"byteLength":1212,"byteOffset":74052},{"buffer":0,"byteLength":1616,"byteOffset":75264},{"buffer":0,"byteLength":1212,"byteOffset":76880},{"buffer":0,"byteLength":1616,"byteOffset":78092},{"buffer":0,"byteLength":1212,"byteOffset":79708},{"buffer":0,"byteLength":1616,"byteOffset":80920},{"buffer":0,"byteLength":1616,"byteOffset":82536},{"buffer":0,"byteLength":1616,"byteOffset":84152},{"buffer":0,"byteLength":2412,"byteOffset":85768},{"buffer":0,"byteLength":3216,"byteOffset":88180},{"buffer":0,"byteLength":2412,"byteOffset":91396},{"buffer":0,"byteLength":3216,"byteOffset":93808},{"buffer":0,"byteLength":3216,"byteOffset":97024},{"buffer":0,"byteLength":3216,"byteOffset":100240},{"buffer":0,"byteLength":2412,"byteOffset":103456},{"buffer":0,"byteLength":3216,"byteOffset":105868},{"buffer":0,"byteLength":2412,"byteOffset":109084},{"buffer":0,"byteLength":3216,"byteOffset":111496},{"buffer":0,"byteLength":1616,"byteOffset":114712},{"buffer":0,"byteLength":1616,"byteOffset":116328},{"buffer":0,"byteLength":1616,"byteOffset":117944},{"buffer":0,"byteLength":1616,"byteOffset":119560},{"buffer":0,"byteLength":622368,"byteStride":36,"byteOffset":121176,"target":34962,"name":"BufferViewVertexND"},{"buffer":0,"byteLength":114018,"byteOffset":743544,"target":34963,"name":"BufferViewIndex"}],"extensionsRequired":["MSFT_texture_dds"],"materials":[{"name":"Livery","occlusionTexture":{"index":0},"pbrMetallicRoughness":{"baseColorTexture":{"index":1},"metallicRoughnessTexture":{"index":0}}},{"name":"Material_0.002","alphaMode":"BLEND","occlusionTexture":{"index":2},"pbrMetallicRoughness":{"baseColorTexture":{"index":3},"metallicRoughnessTexture":{"index":2}}},{"name":"Invisible.001","extensions":{"ASOBO_material_invisible":{}}},{"name":"PortHole","alphaMode":"BLEND","normalTexture":{"index":5},"occlusionTexture":{"index":6},"emissiveTexture":{"index":4},"emissiveFactor":[0.7605234384536743,1.0,0.8962695002555847],"pbrMetallicRoughness":{"baseColorTexture":{"index":7},"metallicRoughnessTexture":{"index":6}},"extras":{"ASOBO_material_code":"Porthole"}}],"meshes":[{"primitives":[{"attributes":{"COLOR_0":60,"NORMAL":57,"POSITION":55,"TANGENT":56,"TEXCOORD_0":58,"TEXCOORD_1":59},"indices":61,"material":0,"mode":4,"extras":{"ASOBO_primitive":{"PrimitiveCount":157,"VertexType":"VTX","VertexVersion":2}}}],"name":"part000"},{"primitives":[{"attributes":{"COLOR_0":67,"NORMAL":64,"POSITION":62,"TANGENT":63,"TEXCOORD_0":65,"TEXCOORD_1":66},"indices":68,"material":0,"mode":4,"extras":{"ASOBO_primitive":{"PrimitiveCount":1632,"VertexType":"VTX","VertexVersion":2}}}],"name":"part001"},{"primitives":[{"attributes":{"COLOR_0":74,"NORMAL":71,"POSITION":69,"TANGENT":70,"TEXCOORD_0":72,"TEXCOORD_1":73},"indices":75,"material":0,"mode":4,"extras":{"ASOBO_primitive":{"PrimitiveCount":4,"VertexType":"VTX","VertexVersion":2}}}],"name":"part002"},{"primitives":[{"attributes":{"COLOR_0":81,"NORMAL":78,"POSITION":76,"TANGENT":77,"TEXCOORD_0":79,"TEXCOORD_1":80},"indices":82,"material":1,"mode":4,"extras":{"ASOBO_primitive":{"PrimitiveCount":16,"VertexType":"VTX","VertexVersion":2}}},{"attributes":{"COLOR_0":81,"NORMAL":78,"POSITION":76,"TANGENT":77,"TEXCOORD_0":79,"TEXCOORD_1":80},"indices":82,"material":0,"mode":4,"extras":{"ASOBO_primitive":{"PrimitiveCount":84,"StartIndex":48,"VertexType":"VTX","VertexVersion":2}}}],"name":"part004"},{"primitives":[{"attributes":{"COLOR_0":88,"NORMAL":85,"POSITION":83,"TANGENT":84,"TEXCOORD_0":86,"TEXCOORD_1":87},"indices":89,"material":0,"mode":4,"extras":{"ASOBO_primitive":{"PrimitiveCount":8,"VertexType":"VTX","VertexVersion":2}}}],"name":"part007"},{"primitives":[{"attributes":{"COLOR_0":95,"NORMAL":92,"POSITION":90,"TANGENT":91,"TEXCOORD_0":93,"TEXCOORD_1":94},"indices":96,"material":0,"mode":4,"extras":{"ASOBO_primitive":{"PrimitiveCount":64,"VertexType":"VTX","VertexVersion":2}}}],"name":"part008"},{"primitives":[{"attributes":{"COLOR_0":102,"NORMAL":99,"POSITION":97,"TANGENT":98,"TEXCOORD_0":100,"TEXCOORD_1":101},"indices":103,"material":0,"mode":4,"extras":{"ASOBO_primitive":{"PrimitiveCount":4,"VertexType":"VTX","VertexVersion":2}}}],"name":"part009"},{"primitives":[{"attributes":{"COLOR_0":109,"NORMAL":106,"POSITION":104,"TANGENT":105,"TEXCOORD_0":107,"TEXCOORD_1":108},"indices":110,"material":0,"mode":4,"extras":{"ASOBO_primitive":{"PrimitiveCount":4,"VertexType":"VTX","VertexVersion":2}}}],"name":"part010"},{"primitives":[{"attributes":{"COLOR_0":116,"NORMAL":113,"POSITION":111,"TANGENT":112,"TEXCOORD_0":114,"TEXCOORD_1":115},"indices":117,"material":0,"mode":4,"extras":{"ASOBO_primitive":{"PrimitiveCount":4,"VertexType":"VTX","VertexVersion":2}}}],"name":"part011"},{"primitives":[{"attributes":{"COLOR_0":123,"NORMAL":120,"POSITION":118,"TANGENT":119,"TEXCOORD_0":121,"TEXCOORD_1":122},"indices":124,"material":0,"mode":4,"extras":{"ASOBO_primitive":{"PrimitiveCount":4,"VertexType":"VTX","VertexVersion":2}}}],"name":"part012"},{"primitives":[{"attributes":{"COLOR_0":144,"NORMAL":141,"POSITION":139,"TANGENT":140,"TEXCOORD_0":142,"TEXCOORD_1":143},"indices":145,"material":0,"mode":4,"extras":{"ASOBO_primitive":{"PrimitiveCount":5184,"VertexType":"VTX","VertexVersion":2}}},{"attributes":{"COLOR_0":144,"NORMAL":141,"POSITION":139,"TANGENT":140,"TEXCOORD_0":142,"TEXCOORD_1":143},"indices":145,"material":2,"mode":4,"extras":{"ASOBO_primitive":{"PrimitiveCount":12,"StartIndex":15552,"VertexType":"VTX","VertexVersion":2}}}],"name":"part026"},{"primitives":[{"attributes":{"COLOR_0":137,"NORMAL":134,"POSITION":132,"TANGENT":133,"TEXCOORD_0":135,"TEXCOORD_1":136},"indices":138,"material":0,"mode":4,"extras":{"ASOBO_primitive":{"PrimitiveCount":12,"VertexType":"VTX","VertexVersion":2}}}],"name":"part025"},{"primitives":[{"attributes":{"COLOR_0":130,"NORMAL":127,"POSITION":125,"TANGENT":126,"TEXCOORD_0":128,"TEXCOORD_1":129},"indices":131,"material":0,"mode":4,"extras":{"ASOBO_primitive":{"PrimitiveCount":32,"VertexType":"VTX","VertexVersion":2}}},{"attributes":{"COLOR_0":130,"NORMAL":127,"POSITION":125,"TANGENT":126,"TEXCOORD_0":128,"TEXCOORD_1":129},"indices":131,"material":2,"mode":4,"extras":{"ASOBO_primitive":{"PrimitiveCount":12,"StartIndex":96,"VertexType":"VTX","VertexVersion":2}}}],"name":"part024"},{"primitives":[{"attributes":{"COLOR_0":151,"NORMAL":148,"POSITION":146,"TANGENT":147,"TEXCOORD_0":149,"TEXCOORD_1":150},"indices":152,"material":0,"mode":4,"extras":{"ASOBO_primitive":{"PrimitiveCount":8,"VertexType":"VTX","VertexVersion":2}}}],"name":"part027"},{"primitives":[{"attributes":{"COLOR_0":158,"NORMAL":155,"POSITION":153,"TANGENT":154,"TEXCOORD_0":156,"TEXCOORD_1":157},"indices":159,"material":0,"mode":4,"extras":{"ASOBO_primitive":{"PrimitiveCount":8,"VertexType":"VTX","VertexVersion":2}}}],"name":"part028"},{"primitives":[{"attributes":{"COLOR_0":165,"NORMAL":162,"POSITION":160,"TANGENT":161,"TEXCOORD_0":163,"TEXCOORD_1":164},"indices":166,"material":0,"mode":4,"extras":{"ASOBO_primitive":{"PrimitiveCount":8,"VertexType":"VTX","VertexVersion":2}}}],"name":"part029"},{"primitives":[{"attributes":{"COLOR_0":172,"NORMAL":169,"POSITION":167,"TANGENT":168,"TEXCOORD_0":170,"TEXCOORD_1":171},"indices":173,"material":0,"mode":4,"extras":{"ASOBO_primitive":{"PrimitiveCount":6,"VertexType":"VTX","VertexVersion":2}}}],"name":"part030"},{"primitives":[{"attributes":{"COLOR_0":179,"NORMAL":176,"POSITION":174,"TANGENT":175,"TEXCOORD_0":177,"TEXCOORD_1":178},"indices":180,"material":0,"mode":4,"extras":{"ASOBO_primitive":{"PrimitiveCount":6,"VertexType":"VTX","VertexVersion":2}}}],"name":"part031"},{"primitives":[{"attributes":{"COLOR_0":186,"NORMAL":183,"POSITION":181,"TANGENT":182,"TEXCOORD_0":184,"TEXCOORD_1":185},"indices":187,"material":0,"mode":4,"extras":{"ASOBO_primitive":{"PrimitiveCount":6,"VertexType":"VTX","VertexVersion":2}}}],"name":"part032"},{"primitives":[{"attributes":{"COLOR_0":193,"NORMAL":190,"POSITION":188,"TANGENT":189,"TEXCOORD_0":191,"TEXCOORD_1":192},"indices":194,"material":0,"mode":4,"extras":{"ASOBO_primitive":{"PrimitiveCount":6,"VertexType":"VTX","VertexVersion":2}}}],"name":"part036"},{"primitives":[{"attributes":{"COLOR_0":200,"NORMAL":197,"POSITION":195,"TANGENT":196,"TEXCOORD_0":198,"TEXCOORD_1":199},"indices":201,"material":0,"mode":4,"extras":{"ASOBO_primitive":{"PrimitiveCount":7,"VertexType":"VTX","VertexVersion":2}}}],"name":"part037"},{"primitives":[{"attributes":{"COLOR_0":207,"NORMAL":204,"POSITION":202,"TANGENT":203,"TEXCOORD_0":205,"TEXCOORD_1":206},"indices":208,"material":0,"mode":4,"extras":{"ASOBO_primitive":{"PrimitiveCount":56,"VertexType":"VTX","VertexVersion":2}}}],"name":"part038"},{"primitives":[{"attributes":{"COLOR_0":214,"NORMAL":211,"POSITION":209,"TANGENT":210,"TEXCOORD_0":212,"TEXCOORD_1":213},"indices":215,"material":0,"mode":4,"extras":{"ASOBO_primitive":{"PrimitiveCount":56,"VertexType":"VTX","VertexVersion":2}}}],"name":"part039"},{"primitives":[{"attributes":{"COLOR_0":221,"NORMAL":218,"POSITION":216,"TANGENT":217,"TEXCOORD_0":219,"TEXCOORD_1":220},"indices":222,"material":0,"mode":4,"extras":{"ASOBO_primitive":{"PrimitiveCount":6,"VertexType":"VTX","VertexVersion":2}}}],"name":"part040"},{"primitives":[{"attributes":{"COLOR_0":228,"NORMAL":225,"POSITION":223,"TANGENT":224,"TEXCOORD_0":226,"TEXCOORD_1":227},"indices":229,"material":0,"mode":4,"extras":{"ASOBO_primitive":{"PrimitiveCount":7,"VertexType":"VTX","VertexVersion":2}}}],"name":"part041"},{"primitives":[{"attributes":{"COLOR_0":235,"NORMAL":232,"POSITION":230,"TANGENT":231,"TEXCOORD_0":233,"TEXCOORD_1":234},"indices":236,"material":0,"mode":4,"extras":{"ASOBO_primitive":{"PrimitiveCount":4,"VertexType":"VTX","VertexVersion":2}}}],"name":"part001.002"},{"primitives":[{"attributes":{"COLOR_0":242,"NORMAL":239,"POSITION":237,"TANGENT":238,"TEXCOORD_0":240,"TEXCOORD_1":241},"indices":243,"material":0,"mode":4,"extras":{"ASOBO_primitive":{"PrimitiveCount":84,"VertexType":"VTX","VertexVersion":2}}},{"attributes":{"COLOR_0":242,"NORMAL":239,"POSITION":237,"TANGENT":238,"TEXCOORD_0":240,"TEXCOORD_1":241},"indices":243,"material":1,"mode":4,"extras":{"ASOBO_primitive":{"PrimitiveCount":16,"StartIndex":252,"VertexType":"VTX","VertexVersion":2}}}],"name":"part034"},{"primitives":[{"attributes":{"COLOR_0":249,"NORMAL":246,"POSITION":244,"TANGENT":245,"TEXCOORD_0":247,"TEXCOORD_1":248},"indices":250,"material":0,"mode":4,"extras":{"ASOBO_primitive":{"PrimitiveCount":152,"VertexType":"VTX","VertexVersion":2}}}],"name":"part042"},{"primitives":[{"attributes":{"COLOR_0":256,"NORMAL":253,"POSITION":251,"TANGENT":252,"TEXCOORD_0":254,"TEXCOORD_1":255},"indices":257,"material":3,"mode":4,"extras":{"ASOBO_primitive":{"PrimitiveCount":108,"VertexType":"VTX","VertexVersion":2}}}],"name":"part004.001"},{"primitives":[{"attributes":{"COLOR_0":277,"NORMAL":274,"POSITION":272,"TANGENT":273,"TEXCOORD_0":275,"TEXCOORD_1":276},"indices":278,"material":0,"mode":4,"extras":{"ASOBO_primitive":{"PrimitiveCount":5376,"VertexType":"VTX","VertexVersion":2}}},{"attributes":{"COLOR_0":277,"NORMAL":274,"POSITION":272,"TANGENT":273,"TEXCOORD_0":275,"TEXCOORD_1":276},"indices":278,"material":2,"mode":4,"extras":{"ASOBO_primitive":{"PrimitiveCount":12,"StartIndex":16128,"VertexType":"VTX","VertexVersion":2}}}],"name":"part015.001"},{"primitives":[{"attributes":{"COLOR_0":284,"NORMAL":281,"POSITION":279,"TANGENT":280,"TEXCOORD_0":282,"TEXCOORD_1":283},"indices":285,"material":0,"mode":4,"extras":{"ASOBO_primitive":{"PrimitiveCount":5376,"VertexType":"VTX","VertexVersion":2}}},{"attributes":{"COLOR_0":284,"NORMAL":281,"POSITION":279,"TANGENT":280,"TEXCOORD_0":282,"TEXCOORD_1":283},"indices":285,"material":2,"mode":4,"extras":{"ASOBO_primitive":{"PrimitiveCount":12,"StartIndex":16128,"VertexType":"VTX","VertexVersion":2}}}],"name":"part016.001"},{"primitives":[{"attributes":{"COLOR_0":270,"NORMAL":267,"POSITION":265,"TANGENT":266,"TEXCOORD_0":268,"TEXCOORD_1":269},"indices":271,"material":0,"mode":4,"extras":{"ASOBO_primitive":{"PrimitiveCount":26,"VertexType":"VTX","VertexVersion":2}}}],"name":"part014.001"},{"primitives":[{"attributes":{"COLOR_0":263,"NORMAL":260,"POSITION":258,"TANGENT":259,"TEXCOORD_0":261,"TEXCOORD_1":262},"indices":264,"material":0,"mode":4,"extras":{"ASOBO_primitive":{"PrimitiveCount":96,"VertexType":"VTX","VertexVersion":2}}},{"attributes":{"COLOR_0":263,"NORMAL":260,"POSITION":258,"TANGENT":259,"TEXCOORD_0":261,"TEXCOORD_1":262},"indices":264,"material":2,"mode":4,"extras":{"ASOBO_primitive":{"PrimitiveCount":12,"StartIndex":288,"VertexType":"VTX","VertexVersion":2}}}],"name":"part013.001"},{"primitives":[{"attributes":{"COLOR_0":291,"NORMAL":288,"POSITION":286,"TANGENT":287,"TEXCOORD_0":289,"TEXCOORD_1":290},"indices":292,"material":0,"mode":4,"extras":{"ASOBO_primitive":{"PrimitiveCount":24,"VertexType":"VTX","VertexVersion":2}}}],"name":"part017"},{"primitives":[{"attributes":{"COLOR_0":298,"NORMAL":295,"POSITION":293,"TANGENT":294,"TEXCOORD_0":296,"TEXCOORD_1":297},"indices":299,"material":0,"mode":4,"extras":{"ASOBO_primitive":{"PrimitiveCount":4,"VertexType":"VTX","VertexVersion":2}}}],"name":"part019.001"},{"primitives":[{"attributes":{"COLOR_0":305,"NORMAL":302,"POSITION":300,"TANGENT":301,"TEXCOORD_0":303,"TEXCOORD_1":304},"indices":306,"material":0,"mode":4,"extras":{"ASOBO_primitive":{"PrimitiveCount":4,"VertexType":"VTX","VertexVersion":2}}}],"name":"part020.001"},{"primitives":[{"attributes":{"COLOR_0":312,"NORMAL":309,"POSITION":307,"TANGENT":308,"TEXCOORD_0":310,"TEXCOORD_1":311},"indices":313,"material":0,"mode":4,"extras":{"ASOBO_primitive":{"PrimitiveCount":4,"VertexType":"VTX","VertexVersion":2}}}],"name":"part022.001"},{"primitives":[{"attributes":{"COLOR_0":319,"NORMAL":316,"POSITION":314,"TANGENT":315,"TEXCOORD_0":317,"TEXCOORD_1":318},"indices":320,"material":0,"mode":4,"extras":{"ASOBO_primitive":{"PrimitiveCount":4,"VertexType":"VTX","VertexVersion":2}}}],"name":"part023.001"},{"primitives":[{"attributes":{"COLOR_0":326,"NORMAL":323,"POSITION":321,"TANGENT":322,"TEXCOORD_0":324,"TEXCOORD_1":325},"indices":327,"material":0,"mode":4,"extras":{"ASOBO_primitive":{"PrimitiveCount":152,"VertexType":"VTX","VertexVersion":2}}}],"name":"part042.001"},{"primitives":[{"attributes":{"COLOR_0":333,"NORMAL":330,"POSITION":328,"TANGENT":329,"TEXCOORD_0":331,"TEXCOORD_1":332},"indices":334,"material":0,"mode":4,"extras":{"ASOBO_primitive":{"PrimitiveCount":124,"VertexType":"VTX","VertexVersion":2}}}],"name":"part001.001"}],"nodes":[{"mesh":0,"name":"node1"},{"mesh":1,"name":"node2"},{"name":"node0","children":[0,1]},{"mesh":2,"name":"node12_anim_custom_anim_SPOILERS_RIGHT_POSITION_01"},{"translation":[0.0000642992090433836,0.0,0.001455988851375878],"name":"node12","children":[3]},{"translation":[9.574288368225098,1.0240470170974732,-0.0476670004427433],"rotation":[0.000256100989645347,-0.02202068269252777,0.017414862290024759,0.9996058344841005],"name":"node11","children":[4]},{"translation":[0.0,0.000003249429028073791,0.0],"mesh":3,"name":"node15_anim_prop1_blurred"},{"name":"prop1_blur","children":[6]},{"name":"prop1_cone_slow"},{"name":"prop1_slow"},{"translation":[4.092381477355957,5.051006317138672,-0.6581709980964661],"rotation":[0.0,0.2586310803890228,0.0,0.9659761786460877],"name":"node13","children":[7,8,9]},{"translation":[0.0,-0.15965893864631654,2.992562770843506],"rotation":[0.00004468914630706422,-0.01693483255803585,0.0011016962816938758,0.9998559951782228],"mesh":4,"name":"node19_anim_r_gear"},{"translation":[0.0,0.0,-0.1469232141971588],"mesh":5,"name":"node20_anim_r_gear"},{"translation":[0.0,-0.15965905785560609,2.992562770843506],"name":"node20","children":[12]},{"translation":[0.017870187759399415,0.0,-0.11343055218458176],"rotation":[-0.001915132626891136,-0.0030315995682030918,-0.9999918341636658,0.0018650693818926812],"mesh":6,"name":"node21_anim_r_gear"},{"translation":[-0.3311479091644287,-1.0570610761642457,2.762479543685913],"name":"node21","children":[14]},{"translation":[0.0,0.0,-0.0956900641322136],"rotation":[-0.014857849106192589,-0.0018132338300347329,0.9998672008514404,0.006462813820689917],"mesh":7,"name":"node22_anim_r_gear"},{"translation":[0.3311481475830078,-1.0570610761642457,2.751474618911743],"name":"node22","children":[16]},{"translation":[0.0,0.0,-0.15403549373149873],"rotation":[0.06494579464197159,0.0,-0.9978888034820556,1.6604684560661554e-7],"mesh":8,"name":"node23_anim_r_gear"},{"translation":[-0.3311479091644287,0.5266479849815369,2.7719147205352785],"name":"node23","children":[18]},{"translation":[0.0,0.0,-0.15239910781383515],"rotation":[-0.04897730052471161,0.004278420936316252,-0.9987895488739014,0.0015595986042171717],"scale":[1.0,1.0000027418136597,1.0],"mesh":9,"name":"node24_anim_r_gear"},{"translation":[0.3311481475830078,0.5266479849815369,2.7449026107788088],"name":"node24","children":[20]},{"name":"node19","children":[11,13,15,17,19,21]},{"translation":[4.046051979064941,1.5224947929382325,-4.137794494628906],"name":"node18","children":[22]},{"translation":[0.0,0.00019812583923339844,-0.0007357597351074219],"mesh":10,"name":"node45_anim_c_tire_blurred_key"},{"translation":[0.0,0.04982709884643555,-0.25206708908081057],"name":"node45","children":[24]},{"translation":[0.0,0.0,0.0000057220458984375],"rotation":[-0.3379169702529907,0.0,0.0,0.941175937652588],"mesh":11,"name":"node44_anim_c_gear","children":[25]},{"name":"node44","children":[26]},{"translation":[0.0,-0.8050882816314697,0.09867477416992188],"name":"node43_anim_c_gear","children":[27]},{"name":"node43","children":[28]},{"translation":[-0.08895456045866013,-0.38914424180984499,0.0670771598815918],"rotation":[0.04361661523580551,0.0,0.0,0.999048352241516],"name":"taxi0"},{"rotation":[0.0,0.1693490445613861,-0.9855562448501588,1.3932063572423106e-24],"mesh":12,"name":"node42_anim_c_gear","children":[29,30]},{"translation":[0.0,0.000006318633950286312,0.0],"name":"node42","children":[31]},{"translation":[0.0,-0.4039863348007202,1.8105061054229737],"name":"node41_anim_c_gear","children":[32]},{"name":"node41","children":[33]},{"translation":[0.0,-0.07018032670021057,1.560207486152649],"mesh":13,"name":"node46_anim_c_gear"},{"name":"node46","children":[35]},{"translation":[0.0,0.0,-0.07608931511640549],"rotation":[0.004966345615684986,-0.02587192878127098,0.02046087570488453,0.999443531036377],"mesh":14,"name":"node48_anim_c_gear"},{"name":"node48","children":[37]},{"translation":[-0.15007799863815309,0.0,0.020007677376270299],"name":"node47_anim_c_gear","children":[38]},{"translation":[0.0,-0.07017936557531357,1.6399859189987185],"name":"node47","children":[39]},{"translation":[0.0,0.0,-0.08357851952314377],"rotation":[0.0033479640260338785,0.10246969759464264,-0.02078849636018276,0.9945133328437804],"mesh":15,"name":"node50_anim_c_gear"},{"name":"node50","children":[41]},{"translation":[0.150067999958992,0.0,0.016913004219532014],"name":"node49_anim_c_gear","children":[42]},{"translation":[0.0,-0.07017936557531357,1.6399859189987185],"name":"node49","children":[43]},{"translation":[0.0,0.6122657060623169,0.07411034405231476],"mesh":16,"name":"node51_anim_c_gear"},{"translation":[0.0,-0.000005591966328211129,0.0],"rotation":[0.03053898736834526,-0.00000899999668035889,0.0,0.9995335936546326],"mesh":17,"name":"node52_anim_c_gear"},{"translation":[-0.30012401938438418,0.6122657060623169,0.1096070557832718],"name":"node52","children":[46]},{"translation":[0.0,-0.000005591966328211129,0.0],"rotation":[0.03053898736834526,0.00000899999668035889,0.0,0.9995335936546326],"mesh":18,"name":"node53_anim_c_gear"},{"translation":[0.3001459836959839,0.6122657060623169,0.1096070557832718],"name":"node53","children":[48]},{"translation":[0.0,-0.07017936557531357,1.6399859189987185],"name":"node51","children":[45,47,49]},{"translation":[0.0,11.445746421813965,-4.468212127685547],"name":"node40","children":[34,36,40,44,50]},{"name":"node55"},{"translation":[4.094372272491455,5.0534467697143559,-0.6585530042648315],"rotation":[0.0,0.2586310803890228,0.0,0.9659761786460877],"name":"node54","children":[52]},{"rotation":[-0.2785210609436035,0.0027580007445067169,-0.00010900005872827025,0.960426151752472],"mesh":19,"name":"node59_anim_custom_anim_RADIO_HEIGHT_02"},{"name":"node59","children":[54]},{"translation":[-2.8170599937438967,0.7189170122146606,-0.530718982219696],"name":"node58_anim_custom_anim_RADIO_HEIGHT_02","children":[55]},{"name":"node58","children":[56]},{"translation":[0.015967369079589845,-0.08686543256044388,-0.21068035066127778],"rotation":[-0.2800360321998596,0.014557001180946829,0.031206002458930017,0.9593717455863952],"mesh":20,"name":"node61_anim_custom_anim_RADIO_HEIGHT_02"},{"name":"node61","children":[58]},{"translation":[-8.027594566345215,0.8671919703483582,-0.29791998863220217],"name":"node60_anim_custom_anim_RADIO_HEIGHT_02","children":[59]},{"name":"node60","children":[60]},{"translation":[0.0,-0.1046012043952942,0.06393998116254807],"rotation":[-0.1564350426197052,0.0,0.0,0.9876882433891296],"mesh":21,"name":"node63_anim_custom_anim_RADIO_HEIGHT_02"},{"name":"node63","children":[62]},{"translation":[-7.0767598152160648,0.37945300340652468,-0.4902450144290924],"name":"node62_anim_custom_anim_RADIO_HEIGHT_02","children":[63]},{"name":"node62","children":[64]},{"rotation":[-0.1218690276145935,0.0,0.0,0.9925462007522584],"mesh":22,"name":"node65_anim_custom_anim_RADIO_HEIGHT_02"},{"name":"node65","children":[66]},{"translation":[-9.50841236114502,0.4046117961406708,-0.2907869815826416],"name":"node64_anim_custom_anim_RADIO_HEIGHT_02","children":[67]},{"name":"node64","children":[68]},{"rotation":[-0.278535932302475,-0.0024309991858899595,0.0,0.9604227542877196],"mesh":23,"name":"node67_anim_custom_anim_RADIO_HEIGHT_02"},{"name":"node67","children":[70]},{"translation":[2.8172619342803957,0.7189170122146606,-0.530718982219696],"name":"node66_anim_custom_anim_RADIO_HEIGHT_02","children":[71]},{"name":"node66","children":[72]},{"translation":[0.05433177947998047,-0.11171121150255205,-0.18080349266529084],"rotation":[-0.28003498911857607,-0.014557001180946829,-0.03120600618422031,0.9593720436096193],"mesh":24,"name":"node69_anim_custom_anim_RADIO_HEIGHT_02"},{"name":"node69","children":[74]},{"translation":[8.027594566345215,0.8670049905776978,-0.2980000078678131],"name":"node68_anim_custom_anim_RADIO_HEIGHT_02","children":[75]},{"name":"node68","children":[76]},{"translation":[0.000006290152668952942,0.0,0.0],"mesh":25,"name":"node10_anim_custom_anim_SPOILERS_LEFT_POSITION_00"},{"translation":[-0.00006239046342670918,0.0,0.0014460013480857017],"name":"node10","children":[78]},{"translation":[-9.574782371520996,1.0240470170974732,-0.04765700176358223],"rotation":[0.000256100989645347,0.02202068269252777,-0.017414862290024759,0.9996058344841005],"name":"node9","children":[79]},{"translation":[0.0,0.000003247840140829794,0.0],"mesh":26,"name":"node56_anim_prop0_blurred"},{"translation":[-4.047995567321777,5.061011791229248,-0.6699972748756409],"name":"prop0_blur","children":[81]},{"translation":[-4.047995567321777,5.061011791229248,-0.6699972748756409],"name":"prop0_cone_slow"},{"translation":[-4.047995567321777,5.061011791229248,-0.6699972748756409],"name":"prop0_slow"},{"translation":[0.0,0.000003247840140829794,0.0],"rotation":[0.0,0.3034447729587555,0.0,0.95284903049469],"mesh":27,"name":"node70_anim_prop0_still"},{"translation":[-4.047995567321777,5.061011791229248,-0.6699972748756409],"name":"prop0_still","children":[85]},{"rotation":[0.0,0.0,1.0,6.123031769111885e-17],"name":"node8","children":[5,10,23,51,53,57,61,65,69,73,77,80,82,83,84,86]},{"rotation":[-0.70710688829422,0.0,0.0,0.7071066498756409],"name":"node7","children":[87]},{"name":"Windows"},{"translation":[0.0,-1.501339554786682,-2.3356049060821535],"scale":[0.5049999952316284,1.0,0.9552536606788636],"mesh":28,"name":"node1001.001"},{"name":"node0.004","children":[90]},{"translation":[0.000004567922132991953,0.003211158327758312,0.00016034275176934898],"mesh":29,"name":"node30_anim_r_tire_blurred_key"},{"name":"node30","children":[92]},{"translation":[-0.00526489457115531,-0.10966221243143082,3.637282371520996],"rotation":[-0.46879053115844729,-0.5293722748756409,-0.4687909483909607,0.5293727517127991],"name":"node29","children":[93]},{"translation":[-0.0004646398301701993,0.0032126279547810556,0.00015725908451713622],"mesh":30,"name":"node32_anim_l_tire_blurred_key"},{"name":"node32","children":[95]},{"translation":[-0.005268073175102472,-0.10966099798679352,-4.445527076721191],"rotation":[-0.46879053115844729,-0.5293722748756409,-0.4687909483909607,0.5293727517127991],"name":"node31","children":[96]},{"translation":[-0.08731594681739807,-1.9610190391540528,4.446990966796875],"mesh":31,"name":"node28_anim_l_gear","children":[94,97]},{"name":"node28","children":[98]},{"rotation":[0.03554640710353851,0.7062127590179443,0.03554640710353851,0.7062126994132996],"mesh":32,"name":"node27_anim_l_gear","children":[99]},{"name":"node27","children":[100]},{"translation":[0.0,0.6796941161155701,3.5087151527404787],"name":"node26_anim_l_gear","children":[101]},{"name":"node26","children":[102]},{"rotation":[0.0,-0.9914448857307434,-0.13052599132061006,1.6405002240961269e-25],"mesh":33,"name":"node33_anim_l_gear"},{"translation":[0.0,1.2246421575546265,2.876739025115967],"name":"node33","children":[104]},{"translation":[0.0,-0.2508814036846161,-0.11206714063882828],"rotation":[0.0,-0.9964338541030884,0.0,0.08437874913215637],"mesh":34,"name":"node35_anim_l_gear"},{"translation":[0.3311479091644287,0.5266481041908264,2.7719151973724367],"name":"node35","children":[106]},{"translation":[0.0,-0.24875661730766297,-0.11968401819467545],"rotation":[0.0,0.9988279342651368,0.0,0.04840242862701416],"mesh":35,"name":"node36_anim_l_gear"},{"translation":[-0.3311481475830078,0.5266481041908264,2.744903087615967],"name":"node36","children":[108]},{"translation":[-0.013618230819702149,-0.2526525855064392,0.0],"rotation":[-0.0005506760207936168,-0.9979874491691588,0.008750461973249913,0.0628032311797142],"scale":[1.0000025033950806,1.0,1.0000025033950806],"mesh":36,"name":"node38_anim_l_gear"},{"translation":[0.3311479091644287,-0.8974021077156067,-0.23020204901695252],"name":"node38","children":[110]},{"translation":[0.0,-0.25227710604667666,0.0],"rotation":[0.00033099279971793294,0.9993883967399596,-0.00011372520384611562,0.034967366605997089],"mesh":37,"name":"node39_anim_l_gear"},{"translation":[-0.3311481475830078,-0.8974020481109619,-0.24120697379112245],"name":"node39","children":[112]},{"translation":[0.0,-0.15965893864631654,2.992563247680664],"name":"node37","children":[111,113]},{"name":"node34","children":[107,109,114]},{"translation":[-4.043457984924316,1.7744989395141602,-4.153782844543457],"name":"node25","children":[103,105,115]},{"rotation":[0.0,0.0,1.0,6.123031769111885e-17],"name":"node8.001","children":[116]},{"rotation":[-0.70710688829422,0.0,0.0,0.7071066498756409],"name":"node7.002","children":[117]},{"name":"node0.005","children":[118]},{"translation":[0.0,0.000003247840140829794,0.0],"mesh":38,"name":"node70_anim_prop1_still"},{"translation":[-4.047995567321777,5.061011791229248,-0.6699972748756409],"name":"prop1_still","children":[120]},{"rotation":[0.0,0.0,1.0,6.123031769111885e-17],"name":"node8.002","children":[121]},{"translation":[-8.110268592834473,0.0,0.0],"rotation":[-0.70710688829422,0.0,0.0,0.7071066498756409],"name":"node7.001","children":[122]},{"translation":[0.0014463613042607904,-0.026887893676757814,0.01601123809814453],"rotation":[0.00015935301780700684,0.0,0.0,1.0],"mesh":39,"name":"elevator"},{"translation":[-0.001446463167667389,3.769139528274536,-11.891161918640137],"name":"elevator_node","children":[124]},{"translation":[4.048478126525879,-0.49870121479034426,-0.9914631843566896],"name":"fx_exhaust_left"},{"translation":[-4.048480033874512,-0.49870121479034426,-0.9914631843566896],"name":"fx_exhaust_right"},{"translation":[0.18243923783302308,-3.717659950256348,11.103938102722168],"name":"fx_tire_contactPoint_center_left"},{"translation":[-0.18243999779224397,-3.717659950256348,11.103938102722168],"name":"fx_tire_contactPoint_center_right"},{"translation":[4.254002571105957,-3.702810049057007,1.5285437107086182],"name":"fx_tire_contactPoint_left_out"},{"translation":[3.8356919288635256,-3.702810049057007,1.5285437107086182],"name":"fx_tire_contactPoint_left_in"},{"translation":[-3.8356900215148927,-3.702810049057007,1.5285437107086182],"name":"fx_tire_contactPoint_right_in"},{"translation":[-4.254000186920166,-3.702810049057007,1.5285437107086182],"name":"fx_tire_contactPoint_right_out"}],"scene":0,"scenes":[{"nodes":[2,88,89,91,119,123,125,126,127,128,129,130,131,132,133],"name":"Scene"}],"textures":[{"extensions":{"MSFT_texture_dds":{"source":0}}},{"extensions":{"MSFT_texture_dds":{"source":1}}},{"extensions":{"MSFT_texture_dds":{"source":0}}},{"extensions":{"MSFT_texture_dds":{"source":2}}},{"extensions":{"MSFT_texture_dds":{"source":3}}},{"extensions":{"MSFT_texture_dds":{"source":4}}},{"extensions":{"MSFT_texture_dds":{"source":5}}},{"extensions":{"MSFT_texture_dds":{"source":6}}}],"samplers":[{"magFilter":9729,"minFilter":9987,"wrapS":10497,"wrapT":10497}],"extensionsUsed":["ASOBO_normal_map_convention","ASOBO_material_invisible","ASOBO_material_shadow_options","MSFT_texture_dds","ASOBO_asset_optimized"],"buffers":[{"byteLength":857562,"uri":"TFS_DH8C_lod0.bin"}],"images":[{"uri":"TFS_DASH8_Q300_M.PNG.DDS","name":"TFS_DASH8_Q300_M","extras":"ASOBO_image_converted_meta"},{"uri":"TFS_DASH8_Q300_T.PNG.DDS","name":"TFS_DASH8_Q300_T","extras":"ASOBO_image_converted_meta"},{"uri":"TFS_DASH8_Q300_PROP.PNG.DDS","name":"TFS_DASH8_Q300_PROP","extras":"ASOBO_image_converted_meta"},{"uri":"PORTHOLE_1638_EMISSIVETEX_.PNG.DDS","name":"PortHole_1638_EmissiveTex_","extras":"ASOBO_image_converted_meta"},{"uri":"PORTHOLE_1638_NORMALTEX_.PNG.DDS","name":"PortHole_1638_NormalTex_","extras":"ASOBO_image_converted_meta"},{"uri":"PORTHOLE_1638_OCCLUSIONROUGHNESSMETALLICTEX_.PNG.DDS","name":"PortHole_1638_OcclusionRoughnessMetallicTex_","extras":"ASOBO_image_converted_meta"},{"uri":"PORTHOLE_1638_BASECOLORTEX_.PNG.DDS","name":"PortHole_1638_BaseColorTex_","extras":"ASOBO_image_converted_meta"}]}
