{"accessors":[{"bufferView":0,"componentType":5126,"count":150,"min":[-13.726149559020996,-2.997339963912964,-12.841750144958496],"max":[13.714139938354493,3.893739938735962,12.845749855041504],"type":"VEC3","name":"part000.002_vertices#0_POSITION"},{"bufferView":0,"byteOffset":12,"componentType":5120,"count":150,"type":"VEC4","name":"part000.002_vertices#0_TANGENT"},{"bufferView":0,"byteOffset":16,"componentType":5120,"count":150,"type":"VEC4","name":"part000.002_vertices#0_NORMAL"},{"bufferView":0,"byteOffset":20,"componentType":5122,"count":150,"type":"VEC2","name":"part000.002_vertices#0_TEXCOORD_0"},{"bufferView":0,"byteOffset":24,"componentType":5122,"count":150,"type":"VEC2","name":"part000.002_vertices#0_TEXCOORD_1"},{"bufferView":0,"byteOffset":28,"componentType":5123,"count":150,"type":"VEC4","name":"part000.002_vertices#0_COLOR_0"},{"bufferView":1,"componentType":5123,"count":234,"type":"SCALAR","name":"part000.002_indices#0"}],"asset":{"generator":"Khronos glTF Blender I/O v3.6.28 and Asobo Studio MSFS2020 Blender I/O v3.3.1 with Blender v3.6.23","version":"2.0","extensions":{"ASOBO_asset_optimized":{"BoundingBoxMax":[13.714139938354493,3.893739938735962,12.845749855041504],"BoundingBoxMin":[-13.726149559020996,-2.997339963912964,-12.841750144958496],"MajorVersion":4,"MinorVersion":4,"UseCheckerboardMaterialForMissingTextures":true,"UseOnlyFilenameForImageURI":true},"ASOBO_normal_map_convention":{"tangent_space_convention":"DirectX"}}},"bufferViews":[{"buffer":0,"byteLength":5400,"byteStride":36,"target":34962,"name":"BufferViewVertexND"},{"buffer":0,"byteLength":468,"byteOffset":5400,"target":34963,"name":"BufferViewIndex"}],"extensionsRequired":["MSFT_texture_dds"],"materials":[{"name":"Livery","occlusionTexture":{"index":0},"pbrMetallicRoughness":{"baseColorTexture":{"index":1},"metallicRoughnessTexture":{"index":0}}}],"meshes":[{"primitives":[{"attributes":{"COLOR_0":5,"NORMAL":2,"POSITION":0,"TANGENT":1,"TEXCOORD_0":3,"TEXCOORD_1":4},"indices":6,"material":0,"mode":4,"extras":{"ASOBO_primitive":{"PrimitiveCount":78,"VertexType":"VTX","VertexVersion":2}}}],"name":"part000.002"}],"nodes":[{"mesh":0,"name":"node1.002"},{"name":"node0.002","children":[0]},{"translation":[-0.08895456790924072,-3.0468497276306154,11.33066177368164],"rotation":[0.04361938312649727,0.0,0.0,0.9990482330322266],"name":"taxi2"},{"translation":[4.048478126525879,-0.49870121479034426,-0.9914631843566896],"name":"fx_exhaust_left"},{"translation":[-4.048480033874512,-0.49870121479034426,-0.9914631843566896],"name":"fx_exhaust_right"},{"translation":[0.18243923783302308,-3.717659950256348,11.103938102722168],"name":"fx_tire_contactPoint_center_left"},{"translation":[-0.18243999779224397,-3.717659950256348,11.103938102722168],"name":"fx_tire_contactPoint_center_right"},{"translation":[4.254002571105957,-3.702810049057007,1.5285437107086182],"name":"fx_tire_contactPoint_left_out"},{"translation":[3.8356919288635256,-3.702810049057007,1.5285437107086182],"name":"fx_tire_contactPoint_left_in"},{"translation":[-3.8356900215148927,-3.702810049057007,1.5285437107086182],"name":"fx_tire_contactPoint_right_in"},{"translation":[-4.254000186920166,-3.702810049057007,1.5285437107086182],"name":"fx_tire_contactPoint_right_out"}],"scene":0,"scenes":[{"nodes":[1,2,3,4,5,6,7,8,9,10],"name":"Scene"}],"textures":[{"extensions":{"MSFT_texture_dds":{"source":0}}},{"extensions":{"MSFT_texture_dds":{"source":1}}}],"samplers":[{"magFilter":9729,"minFilter":9987,"wrapS":10497,"wrapT":10497}],"extensionsUsed":["ASOBO_normal_map_convention","MSFT_texture_dds","ASOBO_asset_optimized"],"buffers":[{"byteLength":5868,"uri":"TFS_DH8C_lod2.bin"}],"images":[{"uri":"TFS_DASH8_Q300_M.PNG.DDS","name":"TFS_DASH8_Q300_M","extras":"ASOBO_image_converted_meta"},{"uri":"TFS_DASH8_Q300_T.PNG.DDS","name":"TFS_DASH8_Q300_T","extras":"ASOBO_image_converted_meta"}]}
