{"accessors":[{"bufferView":0,"componentType":5126,"count":138,"min":[-0.7994586229324341,-1.2962844371795655,-6.689945220947266],"max":[0.7994586229324341,0.36757951974868777,0.8234848976135254],"type":"VEC3","name":"OCCLUDER_vertices#0_POSITION"},{"bufferView":0,"byteOffset":12,"componentType":5120,"count":138,"type":"VEC4","name":"OCCLUDER_vertices#0_TANGENT"},{"bufferView":0,"byteOffset":16,"componentType":5120,"count":138,"type":"VEC4","name":"OCCLUDER_vertices#0_NORMAL"},{"bufferView":0,"byteOffset":20,"componentType":5122,"count":138,"type":"VEC2","name":"OCCLUDER_vertices#0_TEXCOORD_0"},{"bufferView":0,"byteOffset":24,"componentType":5122,"count":138,"type":"VEC2","name":"OCCLUDER_vertices#0_TEXCOORD_1"},{"bufferView":0,"byteOffset":28,"componentType":5123,"count":138,"type":"VEC4","name":"OCCLUDER_vertices#0_COLOR_0"},{"bufferView":1,"componentType":5123,"count":540,"type":"SCALAR","name":"OCCLUDER_indices#0"},{"bufferView":0,"byteOffset":4968,"componentType":5126,"count":2556,"min":[-0.8759490847587586,-1.3131223917007447,-7.905527114868164],"max":[0.880839467048645,0.4789014458656311,0.5513010025024414],"type":"VEC3","name":"x4_Cockpit_vertices#0_POSITION"},{"bufferView":0,"byteOffset":4980,"componentType":5120,"count":2556,"type":"VEC4","name":"x4_Cockpit_vertices#0_TANGENT"},{"bufferView":0,"byteOffset":4984,"componentType":5120,"count":2556,"type":"VEC4","name":"x4_Cockpit_vertices#0_NORMAL"},{"bufferView":0,"byteOffset":4988,"componentType":5122,"count":2556,"type":"VEC2","name":"x4_Cockpit_vertices#0_TEXCOORD_0"},{"bufferView":0,"byteOffset":4992,"componentType":5122,"count":2556,"type":"VEC2","name":"x4_Cockpit_vertices#0_TEXCOORD_1"},{"bufferView":0,"byteOffset":4996,"componentType":5123,"count":2556,"type":"VEC4","name":"x4_Cockpit_vertices#0_COLOR_0"},{"bufferView":1,"byteOffset":1080,"componentType":5123,"count":3969,"type":"SCALAR","name":"x4_Cockpit_indices#0"}],"asset":{"generator":"babylon.js glTF exporter for 3dsmax 2019 v1.0.7783.30918","version":"2.0","extensions":{"ASOBO_asset_optimized":{"BoundingBoxMax":[0.880839467048645,0.4789014458656311,0.8234848976135254],"BoundingBoxMin":[-0.8759490847587586,-1.3131223917007447,-7.905527114868164],"MajorVersion":4,"MinorVersion":4,"UseCheckerboardMaterialForMissingTextures":true},"ASOBO_normal_map_convention":{"tangent_space_convention":"DirectX"}}},"bufferViews":[{"buffer":0,"byteLength":96984,"byteStride":36,"target":34962,"name":"BufferViewVertexND"},{"buffer":0,"byteLength":9018,"byteOffset":96984,"target":34963,"name":"BufferViewIndex"}],"extensionsRequired":["MSFT_texture_dds"],"materials":[{"name":"Occluder","pbrMetallicRoughness":{"baseColorFactor":[0.07058824,1.0,0.07058824,0.0]},"extensions":{"ASOBO_material_environment_occluder":{}}},{"name":"Generic_LOD5","occlusionTexture":{"index":1},"pbrMetallicRoughness":{"baseColorTexture":{"index":0},"metallicRoughnessTexture":{"index":1}}}],"meshes":[{"primitives":[{"attributes":{"COLOR_0":5,"NORMAL":2,"POSITION":0,"TANGENT":1,"TEXCOORD_0":3,"TEXCOORD_1":4},"indices":6,"material":0,"mode":4,"extras":{"ASOBO_primitive":{"PrimitiveCount":180,"VertexType":"VTX","VertexVersion":2}}}],"name":"OCCLUDER"},{"primitives":[{"attributes":{"COLOR_0":12,"NORMAL":9,"POSITION":7,"TANGENT":8,"TEXCOORD_0":10,"TEXCOORD_1":11},"indices":13,"material":1,"mode":4,"extras":{"ASOBO_primitive":{"PrimitiveCount":1323,"VertexType":"VTX","VertexVersion":2}}}],"name":"x4_Cockpit"}],"nodes":[{"translation":[0.0,0.803329468,2.11779022],"mesh":0,"extensions":{"ASOBO_unique_id":{"id":"OCCLUDER"}},"name":"OCCLUDER"},{"translation":[-0.000734215137,0.742164731,2.37577558],"rotation":[-0.00537579926,0.0,0.0,0.9999856],"scale":[0.8767036,0.8767036,0.8767036],"mesh":1,"extensions":{"ASOBO_unique_id":{"id":"x4_Cockpit"}},"name":"Cockpit"},{"translation":[0.425830841,0.128817767,1.881714],"extensions":{"ASOBO_unique_id":{"id":"PILOT_0"}},"name":"PILOT_0"},{"translation":[-0.412120819,0.128817767,1.881714],"extensions":{"ASOBO_unique_id":{"id":"PILOT_1"}},"name":"PILOT_1"}],"scene":0,"scenes":[{"nodes":[0,1,2,3]}],"textures":[{"extensions":{"MSFT_texture_dds":{"source":0}}},{"extensions":{"MSFT_texture_dds":{"source":1}}}],"extensionsUsed":["ASOBO_normal_map_convention","ASOBO_unique_id","ASOBO_material_environment_occluder","MSFT_texture_dds","ASOBO_asset_optimized"],"buffers":[{"byteLength":106002,"uri":"KINGAIR_350I_interior_LOD4.bin"}],"images":[{"uri":"ATLAS_ALBD.PNG.DDS","extras":"ASOBO_image_converted_meta"},{"uri":"ATLAS_COMP.PNG.DDS","extras":"ASOBO_image_converted_meta"}]}
