{"accessors":[{"bufferView":0,"componentType":5126,"count":151,"min":[-8.899161338806153,-0.6297222971916199,-1.8330726623535157],"max":[8.6957368850708,2.9530234336853029,12.667598724365235],"type":"VEC3","name":"x6_Airframe_vertices#0_POSITION"},{"bufferView":0,"byteOffset":12,"componentType":5120,"count":151,"type":"VEC4","name":"x6_Airframe_vertices#0_TANGENT"},{"bufferView":0,"byteOffset":16,"componentType":5120,"count":151,"type":"VEC4","name":"x6_Airframe_vertices#0_NORMAL"},{"bufferView":0,"byteOffset":20,"componentType":5122,"count":151,"type":"VEC2","name":"x6_Airframe_vertices#0_TEXCOORD_0"},{"bufferView":0,"byteOffset":24,"componentType":5122,"count":151,"type":"VEC2","name":"x6_Airframe_vertices#0_TEXCOORD_1"},{"bufferView":0,"byteOffset":28,"componentType":5123,"count":151,"type":"VEC4","name":"x6_Airframe_vertices#0_COLOR_0"},{"bufferView":1,"componentType":5123,"count":324,"type":"SCALAR","name":"x6_Airframe_indices#0"}],"asset":{"generator":"babylon.js glTF exporter for 3dsmax 2019 v1.0.8011.25344","version":"2.0","extensions":{"ASOBO_asset_optimized":{"BoundingBoxMax":[8.6957368850708,2.9530234336853029,12.667598724365235],"BoundingBoxMin":[-8.899161338806153,-0.6297222971916199,-1.8330726623535157],"MajorVersion":4,"MinorVersion":4,"UseCheckerboardMaterialForMissingTextures":true},"ASOBO_normal_map_convention":{"tangent_space_convention":"DirectX"}}},"bufferViews":[{"buffer":0,"byteLength":5436,"byteStride":36,"target":34962,"name":"BufferViewVertexND"},{"buffer":0,"byteLength":648,"byteOffset":5436,"target":34963,"name":"BufferViewIndex"}],"extensionsRequired":["MSFT_texture_dds"],"materials":[{"name":"LOD6","occlusionTexture":{"index":1},"pbrMetallicRoughness":{"baseColorFactor":[0.792156935,0.792156935,0.7843138,1.0],"baseColorTexture":{"index":0},"metallicRoughnessTexture":{"index":1}}}],"meshes":[{"primitives":[{"attributes":{"COLOR_0":5,"NORMAL":2,"POSITION":0,"TANGENT":1,"TEXCOORD_0":3,"TEXCOORD_1":4},"indices":6,"material":0,"mode":4,"extras":{"ASOBO_primitive":{"PrimitiveCount":108,"VertexType":"VTX","VertexVersion":2}}}],"name":"x6_Airframe"}],"nodes":[{"translation":[0.08769369,0.0,-7.55785656],"mesh":0,"name":"Airframe"}],"scene":0,"scenes":[{"nodes":[0]}],"textures":[{"extensions":{"MSFT_texture_dds":{"source":0}}},{"extensions":{"MSFT_texture_dds":{"source":1}}}],"extensionsUsed":["ASOBO_normal_map_convention","MSFT_texture_dds","ASOBO_asset_optimized"],"buffers":[{"byteLength":6084,"uri":"KINGAIR_350I_LOD6.bin"}],"images":[{"uri":"KINGAIR350I_AIRFRAME_LOD6_ALBD.PNG.DDS","extras":"ASOBO_image_converted_meta"},{"uri":"KINGAIR350I_AIRFRAME_LOD6_COMP.PNG.DDS","extras":"ASOBO_image_converted_meta"}]}
