{"accessors":[{"bufferView":0,"componentType":5126,"count":200,"min":[0.041666666666666667],"max":[8.333333333333334],"type":"SCALAR"},{"bufferView":1,"componentType":5126,"count":200,"type":"VEC4"},{"bufferView":2,"componentType":5126,"count":200,"type":"VEC3"},{"bufferView":3,"componentType":5126,"count":200,"type":"VEC3"},{"bufferView":4,"componentType":5126,"count":200,"type":"VEC4"},{"bufferView":5,"componentType":5126,"count":200,"type":"VEC4"},{"bufferView":6,"componentType":5126,"count":200,"type":"VEC3"},{"bufferView":7,"componentType":5126,"count":200,"type":"VEC4"},{"bufferView":8,"componentType":5126,"count":200,"type":"VEC4"},{"bufferView":9,"componentType":5126,"count":200,"type":"VEC4"},{"bufferView":10,"componentType":5126,"count":200,"type":"VEC3"},{"bufferView":11,"componentType":5126,"count":200,"type":"VEC4"},{"bufferView":12,"componentType":5126,"count":200,"type":"VEC3"},{"bufferView":13,"componentType":5126,"count":200,"type":"VEC4"},{"bufferView":14,"componentType":5126,"count":200,"type":"VEC3"},{"bufferView":15,"componentType":5126,"count":200,"type":"VEC3"},{"bufferView":16,"componentType":5126,"count":200,"type":"VEC4"},{"bufferView":17,"componentType":5126,"count":200,"type":"VEC3"},{"bufferView":18,"componentType":5126,"count":200,"type":"VEC4"},{"bufferView":19,"componentType":5126,"count":200,"type":"VEC3"},{"bufferView":20,"componentType":5126,"count":200,"type":"VEC4"},{"bufferView":21,"componentType":5126,"count":200,"type":"VEC4"},{"bufferView":22,"componentType":5126,"count":200,"type":"VEC3"},{"bufferView":23,"componentType":5126,"count":200,"type":"VEC3"},{"bufferView":24,"componentType":5126,"count":200,"type":"VEC3"},{"bufferView":25,"componentType":5126,"count":200,"type":"VEC4"},{"bufferView":26,"componentType":5126,"count":100,"min":[0.041666666666666667],"max":[4.166666666666667],"type":"SCALAR"},{"bufferView":27,"componentType":5126,"count":100,"type":"VEC3"},{"bufferView":28,"componentType":5126,"count":100,"type":"VEC4"},{"bufferView":29,"componentType":5126,"count":100,"type":"VEC3"},{"bufferView":30,"componentType":5126,"count":100,"type":"VEC4"},{"bufferView":31,"componentType":5126,"count":100,"type":"VEC3"},{"bufferView":32,"componentType":5126,"count":100,"type":"VEC4"},{"bufferView":33,"componentType":5126,"count":100,"type":"VEC3"},{"bufferView":34,"componentType":5126,"count":100,"type":"VEC4"},{"bufferView":35,"componentType":5126,"count":100,"type":"VEC3"},{"bufferView":36,"componentType":5126,"count":100,"type":"VEC4"},{"bufferView":37,"componentType":5126,"count":100,"type":"VEC3"},{"bufferView":38,"componentType":5126,"count":100,"type":"VEC4"},{"bufferView":39,"componentType":5126,"count":100,"type":"VEC3"},{"bufferView":40,"componentType":5126,"count":100,"type":"VEC4"},{"bufferView":41,"componentType":5126,"count":100,"type":"VEC3"},{"bufferView":42,"componentType":5126,"count":100,"type":"VEC4"},{"bufferView":43,"componentType":5126,"count":100,"type":"VEC3"},{"bufferView":44,"componentType":5126,"count":100,"type":"VEC4"},{"bufferView":45,"componentType":5126,"count":100,"type":"VEC3"},{"bufferView":46,"componentType":5126,"count":100,"type":"VEC4"},{"bufferView":47,"componentType":5126,"count":100,"type":"VEC4"},{"bufferView":48,"componentType":5126,"count":95,"min":[0.041666666666666667],"max":[3.9583333333333337],"type":"SCALAR"},{"bufferView":49,"componentType":5126,"count":95,"type":"VEC4"},{"bufferView":50,"componentType":5126,"count":100,"type":"VEC4"},{"bufferView":51,"componentType":5126,"count":100,"type":"VEC4"},{"bufferView":52,"componentType":5126,"count":100,"type":"VEC3"},{"bufferView":53,"componentType":5126,"count":100,"type":"VEC4"},{"bufferView":54,"componentType":5126,"count":100,"type":"VEC3"},{"bufferView":55,"componentType":5126,"count":100,"type":"VEC4"},{"bufferView":56,"componentType":5126,"count":100,"type":"VEC3"},{"bufferView":57,"componentType":5126,"count":100,"type":"VEC4"},{"bufferView":58,"componentType":5126,"count":100,"type":"VEC3"},{"bufferView":59,"componentType":5126,"count":100,"type":"VEC4"},{"bufferView":60,"componentType":5126,"count":100,"type":"VEC4"},{"bufferView":61,"componentType":5126,"count":100,"type":"VEC4"},{"bufferView":62,"componentType":5126,"count":100,"type":"VEC4"},{"bufferView":63,"componentType":5126,"count":100,"type":"VEC4"},{"bufferView":64,"componentType":5126,"count":100,"type":"VEC3"},{"bufferView":65,"componentType":5126,"count":100,"type":"VEC3"},{"bufferView":66,"componentType":5126,"count":12,"min":[-0.13593000173568726,-1.696310043334961,-0.14725999534130097],"max":[0.1361899971961975,0.5950800180435181,0.15223999321460725],"type":"VEC3","name":"part003.004_vertices#0_POSITION"},{"bufferView":66,"byteOffset":12,"componentType":5120,"count":12,"type":"VEC4","name":"part003.004_vertices#0_TANGENT"},{"bufferView":66,"byteOffset":16,"componentType":5120,"count":12,"type":"VEC4","name":"part003.004_vertices#0_NORMAL"},{"bufferView":66,"byteOffset":20,"componentType":5122,"count":12,"type":"VEC2","name":"part003.004_vertices#0_TEXCOORD_0"},{"bufferView":66,"byteOffset":24,"componentType":5122,"count":12,"type":"VEC2","name":"part003.004_vertices#0_TEXCOORD_1"},{"bufferView":66,"byteOffset":28,"componentType":5123,"count":12,"type":"VEC4","name":"part003.004_vertices#0_COLOR_0"},{"bufferView":67,"componentType":5123,"count":18,"type":"SCALAR","name":"part003.004_indices#0"},{"bufferView":66,"byteOffset":432,"componentType":5126,"count":44,"min":[-0.6401500105857849,-0.4549500048160553,-0.5664899945259094],"max":[0.6404200196266174,1.7762999534606934,0.5740799903869629],"type":"VEC3","name":"part004.044_vertices#0_POSITION"},{"bufferView":66,"byteOffset":444,"componentType":5120,"count":44,"type":"VEC4","name":"part004.044_vertices#0_TANGENT"},{"bufferView":66,"byteOffset":448,"componentType":5120,"count":44,"type":"VEC4","name":"part004.044_vertices#0_NORMAL"},{"bufferView":66,"byteOffset":452,"componentType":5122,"count":44,"type":"VEC2","name":"part004.044_vertices#0_TEXCOORD_0"},{"bufferView":66,"byteOffset":456,"componentType":5122,"count":44,"type":"VEC2","name":"part004.044_vertices#0_TEXCOORD_1"},{"bufferView":66,"byteOffset":460,"componentType":5123,"count":44,"type":"VEC4","name":"part004.044_vertices#0_COLOR_0"},{"bufferView":67,"byteOffset":36,"componentType":5123,"count":102,"type":"SCALAR","name":"part004.044_indices#0"},{"bufferView":66,"byteOffset":2016,"componentType":5126,"count":6,"min":[-0.7123200297355652,-2.062920093536377,-0.5465099811553955],"max":[0.7123200297355652,-0.2741200029850006,-0.12231999635696411],"type":"VEC3","name":"part005.004_vertices#0_POSITION"},{"bufferView":66,"byteOffset":2028,"componentType":5120,"count":6,"type":"VEC4","name":"part005.004_vertices#0_TANGENT"},{"bufferView":66,"byteOffset":2032,"componentType":5120,"count":6,"type":"VEC4","name":"part005.004_vertices#0_NORMAL"},{"bufferView":66,"byteOffset":2036,"componentType":5122,"count":6,"type":"VEC2","name":"part005.004_vertices#0_TEXCOORD_0"},{"bufferView":66,"byteOffset":2040,"componentType":5122,"count":6,"type":"VEC2","name":"part005.004_vertices#0_TEXCOORD_1"},{"bufferView":66,"byteOffset":2044,"componentType":5123,"count":6,"type":"VEC4","name":"part005.004_vertices#0_COLOR_0"},{"bufferView":67,"byteOffset":240,"componentType":5123,"count":12,"type":"SCALAR","name":"part005.004_indices#0"},{"bufferView":66,"byteOffset":2232,"componentType":5126,"count":8,"min":[0.0006500000017695129,-0.9343400001525879,-0.1361899971961975],"max":[0.7256399989128113,0.9093800187110901,0.0061599998734891418],"type":"VEC3","name":"part006.004_vertices#0_POSITION"},{"bufferView":66,"byteOffset":2244,"componentType":5120,"count":8,"type":"VEC4","name":"part006.004_vertices#0_TANGENT"},{"bufferView":66,"byteOffset":2248,"componentType":5120,"count":8,"type":"VEC4","name":"part006.004_vertices#0_NORMAL"},{"bufferView":66,"byteOffset":2252,"componentType":5122,"count":8,"type":"VEC2","name":"part006.004_vertices#0_TEXCOORD_0"},{"bufferView":66,"byteOffset":2256,"componentType":5122,"count":8,"type":"VEC2","name":"part006.004_vertices#0_TEXCOORD_1"},{"bufferView":66,"byteOffset":2260,"componentType":5123,"count":8,"type":"VEC4","name":"part006.004_vertices#0_COLOR_0"},{"bufferView":67,"byteOffset":264,"componentType":5123,"count":12,"type":"SCALAR","name":"part006.004_indices#0"},{"bufferView":66,"byteOffset":2520,"componentType":5126,"count":8,"min":[-0.00139999995008111,-0.9328299760818481,-0.15022000670433045],"max":[0.7149199843406677,0.9093999862670898,0.00418000016361475],"type":"VEC3","name":"part007.004_vertices#0_POSITION"},{"bufferView":66,"byteOffset":2532,"componentType":5120,"count":8,"type":"VEC4","name":"part007.004_vertices#0_TANGENT"},{"bufferView":66,"byteOffset":2536,"componentType":5120,"count":8,"type":"VEC4","name":"part007.004_vertices#0_NORMAL"},{"bufferView":66,"byteOffset":2540,"componentType":5122,"count":8,"type":"VEC2","name":"part007.004_vertices#0_TEXCOORD_0"},{"bufferView":66,"byteOffset":2544,"componentType":5122,"count":8,"type":"VEC2","name":"part007.004_vertices#0_TEXCOORD_1"},{"bufferView":66,"byteOffset":2548,"componentType":5123,"count":8,"type":"VEC4","name":"part007.004_vertices#0_COLOR_0"},{"bufferView":67,"byteOffset":288,"componentType":5123,"count":12,"type":"SCALAR","name":"part007.004_indices#0"},{"bufferView":66,"byteOffset":2808,"componentType":5126,"count":6,"min":[-0.7123200297355652,-0.2741200029850006,-0.2903999984264374],"max":[0.7123200297355652,2.062930107116699,0.5259699821472168],"type":"VEC3","name":"part008.004_vertices#0_POSITION"},{"bufferView":66,"byteOffset":2820,"componentType":5120,"count":6,"type":"VEC4","name":"part008.004_vertices#0_TANGENT"},{"bufferView":66,"byteOffset":2824,"componentType":5120,"count":6,"type":"VEC4","name":"part008.004_vertices#0_NORMAL"},{"bufferView":66,"byteOffset":2828,"componentType":5122,"count":6,"type":"VEC2","name":"part008.004_vertices#0_TEXCOORD_0"},{"bufferView":66,"byteOffset":2832,"componentType":5122,"count":6,"type":"VEC2","name":"part008.004_vertices#0_TEXCOORD_1"},{"bufferView":66,"byteOffset":2836,"componentType":5123,"count":6,"type":"VEC4","name":"part008.004_vertices#0_COLOR_0"},{"bufferView":67,"byteOffset":312,"componentType":5123,"count":12,"type":"SCALAR","name":"part008.004_indices#0"},{"bufferView":66,"byteOffset":3024,"componentType":5126,"count":8,"min":[-0.001069999998435378,-1.2396600246429444,-0.1350799947977066],"max":[0.7152500152587891,1.205430030822754,0.00139999995008111],"type":"VEC3","name":"part009.004_vertices#0_POSITION"},{"bufferView":66,"byteOffset":3036,"componentType":5120,"count":8,"type":"VEC4","name":"part009.004_vertices#0_TANGENT"},{"bufferView":66,"byteOffset":3040,"componentType":5120,"count":8,"type":"VEC4","name":"part009.004_vertices#0_NORMAL"},{"bufferView":66,"byteOffset":3044,"componentType":5122,"count":8,"type":"VEC2","name":"part009.004_vertices#0_TEXCOORD_0"},{"bufferView":66,"byteOffset":3048,"componentType":5122,"count":8,"type":"VEC2","name":"part009.004_vertices#0_TEXCOORD_1"},{"bufferView":66,"byteOffset":3052,"componentType":5123,"count":8,"type":"VEC4","name":"part009.004_vertices#0_COLOR_0"},{"bufferView":67,"byteOffset":336,"componentType":5123,"count":12,"type":"SCALAR","name":"part009.004_indices#0"},{"bufferView":66,"byteOffset":3312,"componentType":5126,"count":8,"min":[-0.002139999996870756,-1.2410099506378174,-0.11007999628782273],"max":[0.7211099863052368,1.2074700593948365,-0.0033199999015778305],"type":"VEC3","name":"part010.004_vertices#0_POSITION"},{"bufferView":66,"byteOffset":3324,"componentType":5120,"count":8,"type":"VEC4","name":"part010.004_vertices#0_TANGENT"},{"bufferView":66,"byteOffset":3328,"componentType":5120,"count":8,"type":"VEC4","name":"part010.004_vertices#0_NORMAL"},{"bufferView":66,"byteOffset":3332,"componentType":5122,"count":8,"type":"VEC2","name":"part010.004_vertices#0_TEXCOORD_0"},{"bufferView":66,"byteOffset":3336,"componentType":5122,"count":8,"type":"VEC2","name":"part010.004_vertices#0_TEXCOORD_1"},{"bufferView":66,"byteOffset":3340,"componentType":5123,"count":8,"type":"VEC4","name":"part010.004_vertices#0_COLOR_0"},{"bufferView":67,"byteOffset":360,"componentType":5123,"count":12,"type":"SCALAR","name":"part010.004_indices#0"},{"bufferView":66,"byteOffset":3600,"componentType":5126,"count":14,"min":[-0.20236000418663026,-2.9449400901794435,-0.1284399926662445],"max":[0.17915000021457673,-0.0014199999859556556,0.19193999469280244],"type":"VEC3","name":"part011.004_vertices#0_POSITION"},{"bufferView":66,"byteOffset":3612,"componentType":5120,"count":14,"type":"VEC4","name":"part011.004_vertices#0_TANGENT"},{"bufferView":66,"byteOffset":3616,"componentType":5120,"count":14,"type":"VEC4","name":"part011.004_vertices#0_NORMAL"},{"bufferView":66,"byteOffset":3620,"componentType":5122,"count":14,"type":"VEC2","name":"part011.004_vertices#0_TEXCOORD_0"},{"bufferView":66,"byteOffset":3624,"componentType":5122,"count":14,"type":"VEC2","name":"part011.004_vertices#0_TEXCOORD_1"},{"bufferView":66,"byteOffset":3628,"componentType":5123,"count":14,"type":"VEC4","name":"part011.004_vertices#0_COLOR_0"},{"bufferView":67,"byteOffset":384,"componentType":5123,"count":18,"type":"SCALAR","name":"part011.004_indices#0"},{"bufferView":66,"byteOffset":4104,"componentType":5126,"count":138,"min":[-1.0556800365447999,-0.8873800039291382,-2.2305800914764406],"max":[1.09660005569458,0.8082000017166138,2.2025399208068849],"type":"VEC3","name":"part012.004_vertices#0_POSITION"},{"bufferView":66,"byteOffset":4116,"componentType":5120,"count":138,"type":"VEC4","name":"part012.004_vertices#0_TANGENT"},{"bufferView":66,"byteOffset":4120,"componentType":5120,"count":138,"type":"VEC4","name":"part012.004_vertices#0_NORMAL"},{"bufferView":66,"byteOffset":4124,"componentType":5122,"count":138,"type":"VEC2","name":"part012.004_vertices#0_TEXCOORD_0"},{"bufferView":66,"byteOffset":4128,"componentType":5122,"count":138,"type":"VEC2","name":"part012.004_vertices#0_TEXCOORD_1"},{"bufferView":66,"byteOffset":4132,"componentType":5123,"count":138,"type":"VEC4","name":"part012.004_vertices#0_COLOR_0"},{"bufferView":67,"byteOffset":420,"componentType":5123,"count":306,"type":"SCALAR","name":"part012.004_indices#0"},{"bufferView":66,"byteOffset":9072,"componentType":5126,"count":7,"min":[-1.4645600318908692,-1.0707499980926514,-0.3001300096511841],"max":[1.464750051498413,1.0742100477218629,0.3001300096511841],"type":"VEC3","name":"part013.004_vertices#0_POSITION"},{"bufferView":66,"byteOffset":9084,"componentType":5120,"count":7,"type":"VEC4","name":"part013.004_vertices#0_TANGENT"},{"bufferView":66,"byteOffset":9088,"componentType":5120,"count":7,"type":"VEC4","name":"part013.004_vertices#0_NORMAL"},{"bufferView":66,"byteOffset":9092,"componentType":5122,"count":7,"type":"VEC2","name":"part013.004_vertices#0_TEXCOORD_0"},{"bufferView":66,"byteOffset":9096,"componentType":5122,"count":7,"type":"VEC2","name":"part013.004_vertices#0_TEXCOORD_1"},{"bufferView":66,"byteOffset":9100,"componentType":5123,"count":7,"type":"VEC4","name":"part013.004_vertices#0_COLOR_0"},{"bufferView":67,"byteOffset":1032,"componentType":5123,"count":15,"type":"SCALAR","name":"part013.004_indices#0"},{"bufferView":66,"byteOffset":9324,"componentType":5126,"count":14,"min":[0.0022799998987466099,-2.9880099296569826,-1.2046799659729005],"max":[0.007799999788403511,-0.8463900089263916,1.2250100374221802],"type":"VEC3","name":"part014.004_vertices#0_POSITION"},{"bufferView":66,"byteOffset":9336,"componentType":5120,"count":14,"type":"VEC4","name":"part014.004_vertices#0_TANGENT"},{"bufferView":66,"byteOffset":9340,"componentType":5120,"count":14,"type":"VEC4","name":"part014.004_vertices#0_NORMAL"},{"bufferView":66,"byteOffset":9344,"componentType":5122,"count":14,"type":"VEC2","name":"part014.004_vertices#0_TEXCOORD_0"},{"bufferView":66,"byteOffset":9348,"componentType":5122,"count":14,"type":"VEC2","name":"part014.004_vertices#0_TEXCOORD_1"},{"bufferView":66,"byteOffset":9352,"componentType":5123,"count":14,"type":"VEC4","name":"part014.004_vertices#0_COLOR_0"},{"bufferView":67,"byteOffset":1062,"componentType":5123,"count":30,"type":"SCALAR","name":"part014.004_indices#0"},{"bufferView":66,"byteOffset":9828,"componentType":5126,"count":6,"min":[-1.151520013809204,-2.3110299110412599,-0.5952699780464172],"max":[1.1495100259780884,2.3110299110412599,0.30913999676704409],"type":"VEC3","name":"part015.004_vertices#0_POSITION"},{"bufferView":66,"byteOffset":9840,"componentType":5120,"count":6,"type":"VEC4","name":"part015.004_vertices#0_TANGENT"},{"bufferView":66,"byteOffset":9844,"componentType":5120,"count":6,"type":"VEC4","name":"part015.004_vertices#0_NORMAL"},{"bufferView":66,"byteOffset":9848,"componentType":5122,"count":6,"type":"VEC2","name":"part015.004_vertices#0_TEXCOORD_0"},{"bufferView":66,"byteOffset":9852,"componentType":5122,"count":6,"type":"VEC2","name":"part015.004_vertices#0_TEXCOORD_1"},{"bufferView":66,"byteOffset":9856,"componentType":5123,"count":6,"type":"VEC4","name":"part015.004_vertices#0_COLOR_0"},{"bufferView":67,"byteOffset":1122,"componentType":5123,"count":12,"type":"SCALAR","name":"part015.004_indices#0"},{"bufferView":66,"byteOffset":10044,"componentType":5126,"count":12,"min":[-0.0002899999963119626,-2.3106698989868166,-0.006000000052154064],"max":[2.2967300415039064,2.3113999366760256,0.8904100060462952],"type":"VEC3","name":"part016.004_vertices#0_POSITION"},{"bufferView":66,"byteOffset":10056,"componentType":5120,"count":12,"type":"VEC4","name":"part016.004_vertices#0_TANGENT"},{"bufferView":66,"byteOffset":10060,"componentType":5120,"count":12,"type":"VEC4","name":"part016.004_vertices#0_NORMAL"},{"bufferView":66,"byteOffset":10064,"componentType":5122,"count":12,"type":"VEC2","name":"part016.004_vertices#0_TEXCOORD_0"},{"bufferView":66,"byteOffset":10068,"componentType":5122,"count":12,"type":"VEC2","name":"part016.004_vertices#0_TEXCOORD_1"},{"bufferView":66,"byteOffset":10072,"componentType":5123,"count":12,"type":"VEC4","name":"part016.004_vertices#0_COLOR_0"},{"bufferView":67,"byteOffset":1146,"componentType":5123,"count":24,"type":"SCALAR","name":"part016.004_indices#0"},{"bufferView":66,"byteOffset":10476,"componentType":5126,"count":12,"min":[-0.20148999989032746,-2.9432098865509035,-0.12851999700069428],"max":[0.18002000451087953,-0.0032999999821186067,0.19210000336170197],"type":"VEC3","name":"part017.004_vertices#0_POSITION"},{"bufferView":66,"byteOffset":10488,"componentType":5120,"count":12,"type":"VEC4","name":"part017.004_vertices#0_TANGENT"},{"bufferView":66,"byteOffset":10492,"componentType":5120,"count":12,"type":"VEC4","name":"part017.004_vertices#0_NORMAL"},{"bufferView":66,"byteOffset":10496,"componentType":5122,"count":12,"type":"VEC2","name":"part017.004_vertices#0_TEXCOORD_0"},{"bufferView":66,"byteOffset":10500,"componentType":5122,"count":12,"type":"VEC2","name":"part017.004_vertices#0_TEXCOORD_1"},{"bufferView":66,"byteOffset":10504,"componentType":5123,"count":12,"type":"VEC4","name":"part017.004_vertices#0_COLOR_0"},{"bufferView":67,"byteOffset":1194,"componentType":5123,"count":18,"type":"SCALAR","name":"part017.004_indices#0"},{"bufferView":66,"byteOffset":10908,"componentType":5126,"count":134,"min":[-1.09660005569458,-0.8871099948883057,-2.230609893798828],"max":[1.0552400350570679,0.8084700107574463,2.202510118484497],"type":"VEC3","name":"part018.004_vertices#0_POSITION"},{"bufferView":66,"byteOffset":10920,"componentType":5120,"count":134,"type":"VEC4","name":"part018.004_vertices#0_TANGENT"},{"bufferView":66,"byteOffset":10924,"componentType":5120,"count":134,"type":"VEC4","name":"part018.004_vertices#0_NORMAL"},{"bufferView":66,"byteOffset":10928,"componentType":5122,"count":134,"type":"VEC2","name":"part018.004_vertices#0_TEXCOORD_0"},{"bufferView":66,"byteOffset":10932,"componentType":5122,"count":134,"type":"VEC2","name":"part018.004_vertices#0_TEXCOORD_1"},{"bufferView":66,"byteOffset":10936,"componentType":5123,"count":134,"type":"VEC4","name":"part018.004_vertices#0_COLOR_0"},{"bufferView":67,"byteOffset":1230,"componentType":5123,"count":306,"type":"SCALAR","name":"part018.004_indices#0"},{"bufferView":66,"byteOffset":15732,"componentType":5126,"count":14,"min":[-0.004550000187009573,-2.9860498905181886,-1.2067899703979493],"max":[0.00848000030964613,-0.8486400246620178,1.2254600524902344],"type":"VEC3","name":"part019.004_vertices#0_POSITION"},{"bufferView":66,"byteOffset":15744,"componentType":5120,"count":14,"type":"VEC4","name":"part019.004_vertices#0_TANGENT"},{"bufferView":66,"byteOffset":15748,"componentType":5120,"count":14,"type":"VEC4","name":"part019.004_vertices#0_NORMAL"},{"bufferView":66,"byteOffset":15752,"componentType":5122,"count":14,"type":"VEC2","name":"part019.004_vertices#0_TEXCOORD_0"},{"bufferView":66,"byteOffset":15756,"componentType":5122,"count":14,"type":"VEC2","name":"part019.004_vertices#0_TEXCOORD_1"},{"bufferView":66,"byteOffset":15760,"componentType":5123,"count":14,"type":"VEC4","name":"part019.004_vertices#0_COLOR_0"},{"bufferView":67,"byteOffset":1842,"componentType":5123,"count":30,"type":"SCALAR","name":"part019.004_indices#0"},{"bufferView":66,"byteOffset":16236,"componentType":5126,"count":9,"min":[-1.474679946899414,-0.9509900212287903,-0.40417999029159548],"max":[1.4546300172805787,1.1939799785614014,0.20009000599384309],"type":"VEC3","name":"part020.004_vertices#0_POSITION"},{"bufferView":66,"byteOffset":16248,"componentType":5120,"count":9,"type":"VEC4","name":"part020.004_vertices#0_TANGENT"},{"bufferView":66,"byteOffset":16252,"componentType":5120,"count":9,"type":"VEC4","name":"part020.004_vertices#0_NORMAL"},{"bufferView":66,"byteOffset":16256,"componentType":5122,"count":9,"type":"VEC2","name":"part020.004_vertices#0_TEXCOORD_0"},{"bufferView":66,"byteOffset":16260,"componentType":5122,"count":9,"type":"VEC2","name":"part020.004_vertices#0_TEXCOORD_1"},{"bufferView":66,"byteOffset":16264,"componentType":5123,"count":9,"type":"VEC4","name":"part020.004_vertices#0_COLOR_0"},{"bufferView":67,"byteOffset":1902,"componentType":5123,"count":15,"type":"SCALAR","name":"part020.004_indices#0"},{"bufferView":66,"byteOffset":16560,"componentType":5126,"count":6,"min":[-1.1495100259780884,-2.3108201026916506,-0.5952699780464172],"max":[1.151520013809204,2.3112499713897707,0.30913999676704409],"type":"VEC3","name":"part021.004_vertices#0_POSITION"},{"bufferView":66,"byteOffset":16572,"componentType":5120,"count":6,"type":"VEC4","name":"part021.004_vertices#0_TANGENT"},{"bufferView":66,"byteOffset":16576,"componentType":5120,"count":6,"type":"VEC4","name":"part021.004_vertices#0_NORMAL"},{"bufferView":66,"byteOffset":16580,"componentType":5122,"count":6,"type":"VEC2","name":"part021.004_vertices#0_TEXCOORD_0"},{"bufferView":66,"byteOffset":16584,"componentType":5122,"count":6,"type":"VEC2","name":"part021.004_vertices#0_TEXCOORD_1"},{"bufferView":66,"byteOffset":16588,"componentType":5123,"count":6,"type":"VEC4","name":"part021.004_vertices#0_COLOR_0"},{"bufferView":67,"byteOffset":1932,"componentType":5123,"count":12,"type":"SCALAR","name":"part021.004_indices#0"},{"bufferView":66,"byteOffset":16776,"componentType":5126,"count":12,"min":[-2.2998299598693849,-2.3108201026916506,-0.0059899999760091309],"max":[0.0012100000167265535,2.3112499713897707,0.8903899788856506],"type":"VEC3","name":"part022.004_vertices#0_POSITION"},{"bufferView":66,"byteOffset":16788,"componentType":5120,"count":12,"type":"VEC4","name":"part022.004_vertices#0_TANGENT"},{"bufferView":66,"byteOffset":16792,"componentType":5120,"count":12,"type":"VEC4","name":"part022.004_vertices#0_NORMAL"},{"bufferView":66,"byteOffset":16796,"componentType":5122,"count":12,"type":"VEC2","name":"part022.004_vertices#0_TEXCOORD_0"},{"bufferView":66,"byteOffset":16800,"componentType":5122,"count":12,"type":"VEC2","name":"part022.004_vertices#0_TEXCOORD_1"},{"bufferView":66,"byteOffset":16804,"componentType":5123,"count":12,"type":"VEC4","name":"part022.004_vertices#0_COLOR_0"},{"bufferView":67,"byteOffset":1956,"componentType":5123,"count":24,"type":"SCALAR","name":"part022.004_indices#0"},{"bufferView":66,"byteOffset":17208,"componentType":5126,"count":18,"min":[-5.911330223083496,-3.254879951477051,-0.8740000128746033],"max":[6.182079792022705,2.919879913330078,0.862779974937439],"type":"VEC3","name":"part023.004_vertices#0_POSITION"},{"bufferView":66,"byteOffset":17220,"componentType":5120,"count":18,"type":"VEC4","name":"part023.004_vertices#0_TANGENT"},{"bufferView":66,"byteOffset":17224,"componentType":5120,"count":18,"type":"VEC4","name":"part023.004_vertices#0_NORMAL"},{"bufferView":66,"byteOffset":17228,"componentType":5122,"count":18,"type":"VEC2","name":"part023.004_vertices#0_TEXCOORD_0"},{"bufferView":66,"byteOffset":17232,"componentType":5122,"count":18,"type":"VEC2","name":"part023.004_vertices#0_TEXCOORD_1"},{"bufferView":66,"byteOffset":17236,"componentType":5123,"count":18,"type":"VEC4","name":"part023.004_vertices#0_COLOR_0"},{"bufferView":67,"byteOffset":2004,"componentType":5123,"count":24,"type":"SCALAR","name":"part023.004_indices#0"},{"bufferView":66,"byteOffset":17856,"componentType":5126,"count":17,"min":[-2.8122599124908449,0.07661999762058258,-0.6544600129127502],"max":[2.810260057449341,1.1811100244522095,0.6541299819946289],"type":"VEC3","name":"part024.004_vertices#0_POSITION"},{"bufferView":66,"byteOffset":17868,"componentType":5120,"count":17,"type":"VEC4","name":"part024.004_vertices#0_TANGENT"},{"bufferView":66,"byteOffset":17872,"componentType":5120,"count":17,"type":"VEC4","name":"part024.004_vertices#0_NORMAL"},{"bufferView":66,"byteOffset":17876,"componentType":5122,"count":17,"type":"VEC2","name":"part024.004_vertices#0_TEXCOORD_0"},{"bufferView":66,"byteOffset":17880,"componentType":5122,"count":17,"type":"VEC2","name":"part024.004_vertices#0_TEXCOORD_1"},{"bufferView":66,"byteOffset":17884,"componentType":5123,"count":17,"type":"VEC4","name":"part024.004_vertices#0_COLOR_0"},{"bufferView":67,"byteOffset":2052,"componentType":5123,"count":21,"type":"SCALAR","name":"part024.004_indices#0"},{"bufferView":66,"byteOffset":18468,"componentType":5126,"count":20,"min":[-2.8122599124908449,-1.1127099990844727,-0.5663599967956543],"max":[2.810260057449341,0.3519499897956848,0.6541799902915955],"type":"VEC3","name":"part025.004_vertices#0_POSITION"},{"bufferView":66,"byteOffset":18480,"componentType":5120,"count":20,"type":"VEC4","name":"part025.004_vertices#0_TANGENT"},{"bufferView":66,"byteOffset":18484,"componentType":5120,"count":20,"type":"VEC4","name":"part025.004_vertices#0_NORMAL"},{"bufferView":66,"byteOffset":18488,"componentType":5122,"count":20,"type":"VEC2","name":"part025.004_vertices#0_TEXCOORD_0"},{"bufferView":66,"byteOffset":18492,"componentType":5122,"count":20,"type":"VEC2","name":"part025.004_vertices#0_TEXCOORD_1"},{"bufferView":66,"byteOffset":18496,"componentType":5123,"count":20,"type":"VEC4","name":"part025.004_vertices#0_COLOR_0"},{"bufferView":67,"byteOffset":2094,"componentType":5123,"count":24,"type":"SCALAR","name":"part025.004_indices#0"},{"bufferView":66,"byteOffset":19188,"componentType":5126,"count":17,"min":[-2.810260057449341,0.07671999931335449,-0.6544600129127502],"max":[2.8122599124908449,1.1812100410461426,0.6541299819946289],"type":"VEC3","name":"part026.004_vertices#0_POSITION"},{"bufferView":66,"byteOffset":19200,"componentType":5120,"count":17,"type":"VEC4","name":"part026.004_vertices#0_TANGENT"},{"bufferView":66,"byteOffset":19204,"componentType":5120,"count":17,"type":"VEC4","name":"part026.004_vertices#0_NORMAL"},{"bufferView":66,"byteOffset":19208,"componentType":5122,"count":17,"type":"VEC2","name":"part026.004_vertices#0_TEXCOORD_0"},{"bufferView":66,"byteOffset":19212,"componentType":5122,"count":17,"type":"VEC2","name":"part026.004_vertices#0_TEXCOORD_1"},{"bufferView":66,"byteOffset":19216,"componentType":5123,"count":17,"type":"VEC4","name":"part026.004_vertices#0_COLOR_0"},{"bufferView":67,"byteOffset":2142,"componentType":5123,"count":21,"type":"SCALAR","name":"part026.004_indices#0"},{"bufferView":66,"byteOffset":19800,"componentType":5126,"count":20,"min":[-2.810260057449341,-1.1130399703979493,-0.5663599967956543],"max":[2.8122599124908449,0.35161998867988589,0.6541799902915955],"type":"VEC3","name":"part027.004_vertices#0_POSITION"},{"bufferView":66,"byteOffset":19812,"componentType":5120,"count":20,"type":"VEC4","name":"part027.004_vertices#0_TANGENT"},{"bufferView":66,"byteOffset":19816,"componentType":5120,"count":20,"type":"VEC4","name":"part027.004_vertices#0_NORMAL"},{"bufferView":66,"byteOffset":19820,"componentType":5122,"count":20,"type":"VEC2","name":"part027.004_vertices#0_TEXCOORD_0"},{"bufferView":66,"byteOffset":19824,"componentType":5122,"count":20,"type":"VEC2","name":"part027.004_vertices#0_TEXCOORD_1"},{"bufferView":66,"byteOffset":19828,"componentType":5123,"count":20,"type":"VEC4","name":"part027.004_vertices#0_COLOR_0"},{"bufferView":67,"byteOffset":2184,"componentType":5123,"count":24,"type":"SCALAR","name":"part027.004_indices#0"},{"bufferView":66,"byteOffset":20520,"componentType":5126,"count":18,"min":[-6.088950157165527,-3.254879951477051,-0.8740000128746033],"max":[6.008470058441162,2.919879913330078,0.862779974937439],"type":"VEC3","name":"part028.004_vertices#0_POSITION"},{"bufferView":66,"byteOffset":20532,"componentType":5120,"count":18,"type":"VEC4","name":"part028.004_vertices#0_TANGENT"},{"bufferView":66,"byteOffset":20536,"componentType":5120,"count":18,"type":"VEC4","name":"part028.004_vertices#0_NORMAL"},{"bufferView":66,"byteOffset":20540,"componentType":5122,"count":18,"type":"VEC2","name":"part028.004_vertices#0_TEXCOORD_0"},{"bufferView":66,"byteOffset":20544,"componentType":5122,"count":18,"type":"VEC2","name":"part028.004_vertices#0_TEXCOORD_1"},{"bufferView":66,"byteOffset":20548,"componentType":5123,"count":18,"type":"VEC4","name":"part028.004_vertices#0_COLOR_0"},{"bufferView":67,"byteOffset":2232,"componentType":5123,"count":24,"type":"SCALAR","name":"part028.004_indices#0"},{"bufferView":66,"byteOffset":21168,"componentType":5126,"count":14,"min":[-1.2978899478912354,-1.1834800243377686,-0.13841000199317933],"max":[1.1562700271606446,0.020099999383091928,0.1389700025320053],"type":"VEC3","name":"part029.004_vertices#0_POSITION"},{"bufferView":66,"byteOffset":21180,"componentType":5120,"count":14,"type":"VEC4","name":"part029.004_vertices#0_TANGENT"},{"bufferView":66,"byteOffset":21184,"componentType":5120,"count":14,"type":"VEC4","name":"part029.004_vertices#0_NORMAL"},{"bufferView":66,"byteOffset":21188,"componentType":5122,"count":14,"type":"VEC2","name":"part029.004_vertices#0_TEXCOORD_0"},{"bufferView":66,"byteOffset":21192,"componentType":5122,"count":14,"type":"VEC2","name":"part029.004_vertices#0_TEXCOORD_1"},{"bufferView":66,"byteOffset":21196,"componentType":5123,"count":14,"type":"VEC4","name":"part029.004_vertices#0_COLOR_0"},{"bufferView":67,"byteOffset":2280,"componentType":5123,"count":18,"type":"SCALAR","name":"part029.004_indices#0"},{"bufferView":66,"byteOffset":21672,"componentType":5126,"count":14,"min":[-1.1562700271606446,-1.1795200109481812,-0.13841000199317933],"max":[1.2973400354385377,0.020099999383091928,0.1389700025320053],"type":"VEC3","name":"part030.004_vertices#0_POSITION"},{"bufferView":66,"byteOffset":21684,"componentType":5120,"count":14,"type":"VEC4","name":"part030.004_vertices#0_TANGENT"},{"bufferView":66,"byteOffset":21688,"componentType":5120,"count":14,"type":"VEC4","name":"part030.004_vertices#0_NORMAL"},{"bufferView":66,"byteOffset":21692,"componentType":5122,"count":14,"type":"VEC2","name":"part030.004_vertices#0_TEXCOORD_0"},{"bufferView":66,"byteOffset":21696,"componentType":5122,"count":14,"type":"VEC2","name":"part030.004_vertices#0_TEXCOORD_1"},{"bufferView":66,"byteOffset":21700,"componentType":5123,"count":14,"type":"VEC4","name":"part030.004_vertices#0_COLOR_0"},{"bufferView":67,"byteOffset":2316,"componentType":5123,"count":18,"type":"SCALAR","name":"part030.004_indices#0"},{"bufferView":66,"byteOffset":22176,"componentType":5126,"count":8,"min":[-9.713789939880371,-7.118319988250732,-1.1097500324249268],"max":[9.71111011505127,7.1155500411987309,1.1084699630737305],"type":"VEC3","name":"part031.004_vertices#0_POSITION"},{"bufferView":66,"byteOffset":22188,"componentType":5120,"count":8,"type":"VEC4","name":"part031.004_vertices#0_TANGENT"},{"bufferView":66,"byteOffset":22192,"componentType":5120,"count":8,"type":"VEC4","name":"part031.004_vertices#0_NORMAL"},{"bufferView":66,"byteOffset":22196,"componentType":5122,"count":8,"type":"VEC2","name":"part031.004_vertices#0_TEXCOORD_0"},{"bufferView":66,"byteOffset":22200,"componentType":5122,"count":8,"type":"VEC2","name":"part031.004_vertices#0_TEXCOORD_1"},{"bufferView":66,"byteOffset":22204,"componentType":5123,"count":8,"type":"VEC4","name":"part031.004_vertices#0_COLOR_0"},{"bufferView":67,"byteOffset":2352,"componentType":5123,"count":12,"type":"SCALAR","name":"part031.004_indices#0"},{"bufferView":66,"byteOffset":22464,"componentType":5126,"count":10,"min":[-2.5372700691223146,-1.938439965248108,-0.273250013589859],"max":[2.5369999408721926,1.9392900466918946,0.2709900140762329],"type":"VEC3","name":"part032.004_vertices#0_POSITION"},{"bufferView":66,"byteOffset":22476,"componentType":5120,"count":10,"type":"VEC4","name":"part032.004_vertices#0_TANGENT"},{"bufferView":66,"byteOffset":22480,"componentType":5120,"count":10,"type":"VEC4","name":"part032.004_vertices#0_NORMAL"},{"bufferView":66,"byteOffset":22484,"componentType":5122,"count":10,"type":"VEC2","name":"part032.004_vertices#0_TEXCOORD_0"},{"bufferView":66,"byteOffset":22488,"componentType":5122,"count":10,"type":"VEC2","name":"part032.004_vertices#0_TEXCOORD_1"},{"bufferView":66,"byteOffset":22492,"componentType":5123,"count":10,"type":"VEC4","name":"part032.004_vertices#0_COLOR_0"},{"bufferView":67,"byteOffset":2376,"componentType":5123,"count":12,"type":"SCALAR","name":"part032.004_indices#0"},{"bufferView":66,"byteOffset":22824,"componentType":5126,"count":10,"min":[-2.537139892578125,-1.9389300346374512,-0.273250013589859],"max":[2.537139892578125,1.9388099908828736,0.2709900140762329],"type":"VEC3","name":"part033.004_vertices#0_POSITION"},{"bufferView":66,"byteOffset":22836,"componentType":5120,"count":10,"type":"VEC4","name":"part033.004_vertices#0_TANGENT"},{"bufferView":66,"byteOffset":22840,"componentType":5120,"count":10,"type":"VEC4","name":"part033.004_vertices#0_NORMAL"},{"bufferView":66,"byteOffset":22844,"componentType":5122,"count":10,"type":"VEC2","name":"part033.004_vertices#0_TEXCOORD_0"},{"bufferView":66,"byteOffset":22848,"componentType":5122,"count":10,"type":"VEC2","name":"part033.004_vertices#0_TEXCOORD_1"},{"bufferView":66,"byteOffset":22852,"componentType":5123,"count":10,"type":"VEC4","name":"part033.004_vertices#0_COLOR_0"},{"bufferView":67,"byteOffset":2400,"componentType":5123,"count":12,"type":"SCALAR","name":"part033.004_indices#0"},{"bufferView":66,"byteOffset":23184,"componentType":5126,"count":8,"min":[-9.71111011505127,-7.118549823760986,-1.1097700595855713],"max":[9.713789939880371,7.115320205688477,1.1084400415420533],"type":"VEC3","name":"part034.004_vertices#0_POSITION"},{"bufferView":66,"byteOffset":23196,"componentType":5120,"count":8,"type":"VEC4","name":"part034.004_vertices#0_TANGENT"},{"bufferView":66,"byteOffset":23200,"componentType":5120,"count":8,"type":"VEC4","name":"part034.004_vertices#0_NORMAL"},{"bufferView":66,"byteOffset":23204,"componentType":5122,"count":8,"type":"VEC2","name":"part034.004_vertices#0_TEXCOORD_0"},{"bufferView":66,"byteOffset":23208,"componentType":5122,"count":8,"type":"VEC2","name":"part034.004_vertices#0_TEXCOORD_1"},{"bufferView":66,"byteOffset":23212,"componentType":5123,"count":8,"type":"VEC4","name":"part034.004_vertices#0_COLOR_0"},{"bufferView":67,"byteOffset":2424,"componentType":5123,"count":12,"type":"SCALAR","name":"part034.004_indices#0"},{"bufferView":66,"byteOffset":23472,"componentType":5126,"count":11,"min":[-0.3021300137042999,-3.434540033340454,0.0020000000949949028],"max":[0.3021399974822998,-0.0010000000474974514,0.7983599901199341],"type":"VEC3","name":"part035.004_vertices#0_POSITION"},{"bufferView":66,"byteOffset":23484,"componentType":5120,"count":11,"type":"VEC4","name":"part035.004_vertices#0_TANGENT"},{"bufferView":66,"byteOffset":23488,"componentType":5120,"count":11,"type":"VEC4","name":"part035.004_vertices#0_NORMAL"},{"bufferView":66,"byteOffset":23492,"componentType":5122,"count":11,"type":"VEC2","name":"part035.004_vertices#0_TEXCOORD_0"},{"bufferView":66,"byteOffset":23496,"componentType":5122,"count":11,"type":"VEC2","name":"part035.004_vertices#0_TEXCOORD_1"},{"bufferView":66,"byteOffset":23500,"componentType":5123,"count":11,"type":"VEC4","name":"part035.004_vertices#0_COLOR_0"},{"bufferView":67,"byteOffset":2448,"componentType":5123,"count":15,"type":"SCALAR","name":"part035.004_indices#0"},{"bufferView":66,"byteOffset":23868,"componentType":5126,"count":11,"min":[-0.3021399974822998,-3.434540033340454,0.0020000000949949028],"max":[0.3021300137042999,-0.0010000000474974514,0.7983599901199341],"type":"VEC3","name":"part036.004_vertices#0_POSITION"},{"bufferView":66,"byteOffset":23880,"componentType":5120,"count":11,"type":"VEC4","name":"part036.004_vertices#0_TANGENT"},{"bufferView":66,"byteOffset":23884,"componentType":5120,"count":11,"type":"VEC4","name":"part036.004_vertices#0_NORMAL"},{"bufferView":66,"byteOffset":23888,"componentType":5122,"count":11,"type":"VEC2","name":"part036.004_vertices#0_TEXCOORD_0"},{"bufferView":66,"byteOffset":23892,"componentType":5122,"count":11,"type":"VEC2","name":"part036.004_vertices#0_TEXCOORD_1"},{"bufferView":66,"byteOffset":23896,"componentType":5123,"count":11,"type":"VEC4","name":"part036.004_vertices#0_COLOR_0"},{"bufferView":67,"byteOffset":2478,"componentType":5123,"count":15,"type":"SCALAR","name":"part036.004_indices#0"},{"bufferView":66,"byteOffset":24264,"componentType":5126,"count":11,"min":[-0.21709999442100526,-3.035360097885132,0.0010000000474974514],"max":[0.2151000052690506,0.0020000000949949028,0.6973099708557129],"type":"VEC3","name":"part037.004_vertices#0_POSITION"},{"bufferView":66,"byteOffset":24276,"componentType":5120,"count":11,"type":"VEC4","name":"part037.004_vertices#0_TANGENT"},{"bufferView":66,"byteOffset":24280,"componentType":5120,"count":11,"type":"VEC4","name":"part037.004_vertices#0_NORMAL"},{"bufferView":66,"byteOffset":24284,"componentType":5122,"count":11,"type":"VEC2","name":"part037.004_vertices#0_TEXCOORD_0"},{"bufferView":66,"byteOffset":24288,"componentType":5122,"count":11,"type":"VEC2","name":"part037.004_vertices#0_TEXCOORD_1"},{"bufferView":66,"byteOffset":24292,"componentType":5123,"count":11,"type":"VEC4","name":"part037.004_vertices#0_COLOR_0"},{"bufferView":67,"byteOffset":2508,"componentType":5123,"count":15,"type":"SCALAR","name":"part037.004_indices#0"},{"bufferView":66,"byteOffset":24660,"componentType":5126,"count":11,"min":[-0.21809999644756318,-2.293030023574829,-0.0010000000474974514],"max":[0.21809999644756318,0.0,0.6152799725532532],"type":"VEC3","name":"part038.004_vertices#0_POSITION"},{"bufferView":66,"byteOffset":24672,"componentType":5120,"count":11,"type":"VEC4","name":"part038.004_vertices#0_TANGENT"},{"bufferView":66,"byteOffset":24676,"componentType":5120,"count":11,"type":"VEC4","name":"part038.004_vertices#0_NORMAL"},{"bufferView":66,"byteOffset":24680,"componentType":5122,"count":11,"type":"VEC2","name":"part038.004_vertices#0_TEXCOORD_0"},{"bufferView":66,"byteOffset":24684,"componentType":5122,"count":11,"type":"VEC2","name":"part038.004_vertices#0_TEXCOORD_1"},{"bufferView":66,"byteOffset":24688,"componentType":5123,"count":11,"type":"VEC4","name":"part038.004_vertices#0_COLOR_0"},{"bufferView":67,"byteOffset":2538,"componentType":5123,"count":15,"type":"SCALAR","name":"part038.004_indices#0"},{"bufferView":66,"byteOffset":25056,"componentType":5126,"count":8,"min":[-1.9955500364303589,-0.5890700221061707,-1.0531200170516968],"max":[2.006730079650879,0.4287799894809723,0.008310000412166119],"type":"VEC3","name":"part039.004_vertices#0_POSITION"},{"bufferView":66,"byteOffset":25068,"componentType":5120,"count":8,"type":"VEC4","name":"part039.004_vertices#0_TANGENT"},{"bufferView":66,"byteOffset":25072,"componentType":5120,"count":8,"type":"VEC4","name":"part039.004_vertices#0_NORMAL"},{"bufferView":66,"byteOffset":25076,"componentType":5122,"count":8,"type":"VEC2","name":"part039.004_vertices#0_TEXCOORD_0"},{"bufferView":66,"byteOffset":25080,"componentType":5122,"count":8,"type":"VEC2","name":"part039.004_vertices#0_TEXCOORD_1"},{"bufferView":66,"byteOffset":25084,"componentType":5123,"count":8,"type":"VEC4","name":"part039.004_vertices#0_COLOR_0"},{"bufferView":67,"byteOffset":2568,"componentType":5123,"count":12,"type":"SCALAR","name":"part039.004_indices#0"},{"bufferView":66,"byteOffset":25344,"componentType":5126,"count":8,"min":[-4.722109794616699,-0.6523399949073792,-2.68858003616333],"max":[4.7221198081970219,0.5241900086402893,1.965499997138977],"type":"VEC3","name":"part040.004_vertices#0_POSITION"},{"bufferView":66,"byteOffset":25356,"componentType":5120,"count":8,"type":"VEC4","name":"part040.004_vertices#0_TANGENT"},{"bufferView":66,"byteOffset":25360,"componentType":5120,"count":8,"type":"VEC4","name":"part040.004_vertices#0_NORMAL"},{"bufferView":66,"byteOffset":25364,"componentType":5122,"count":8,"type":"VEC2","name":"part040.004_vertices#0_TEXCOORD_0"},{"bufferView":66,"byteOffset":25368,"componentType":5122,"count":8,"type":"VEC2","name":"part040.004_vertices#0_TEXCOORD_1"},{"bufferView":66,"byteOffset":25372,"componentType":5123,"count":8,"type":"VEC4","name":"part040.004_vertices#0_COLOR_0"},{"bufferView":67,"byteOffset":2592,"componentType":5123,"count":12,"type":"SCALAR","name":"part040.004_indices#0"},{"bufferView":66,"byteOffset":25632,"componentType":5126,"count":8,"min":[-4.7221198081970219,-0.6523399949073792,-2.68858003616333],"max":[4.722109794616699,0.5241900086402893,1.965499997138977],"type":"VEC3","name":"part041.004_vertices#0_POSITION"},{"bufferView":66,"byteOffset":25644,"componentType":5120,"count":8,"type":"VEC4","name":"part041.004_vertices#0_TANGENT"},{"bufferView":66,"byteOffset":25648,"componentType":5120,"count":8,"type":"VEC4","name":"part041.004_vertices#0_NORMAL"},{"bufferView":66,"byteOffset":25652,"componentType":5122,"count":8,"type":"VEC2","name":"part041.004_vertices#0_TEXCOORD_0"},{"bufferView":66,"byteOffset":25656,"componentType":5122,"count":8,"type":"VEC2","name":"part041.004_vertices#0_TEXCOORD_1"},{"bufferView":66,"byteOffset":25660,"componentType":5123,"count":8,"type":"VEC4","name":"part041.004_vertices#0_COLOR_0"},{"bufferView":67,"byteOffset":2616,"componentType":5123,"count":12,"type":"SCALAR","name":"part041.004_indices#0"},{"bufferView":66,"byteOffset":25920,"componentType":5126,"count":8,"min":[-2.0047099590301515,-0.5889700055122376,-1.052649974822998],"max":[1.995710015296936,0.4287700057029724,0.007829999551177025],"type":"VEC3","name":"part042.004_vertices#0_POSITION"},{"bufferView":66,"byteOffset":25932,"componentType":5120,"count":8,"type":"VEC4","name":"part042.004_vertices#0_TANGENT"},{"bufferView":66,"byteOffset":25936,"componentType":5120,"count":8,"type":"VEC4","name":"part042.004_vertices#0_NORMAL"},{"bufferView":66,"byteOffset":25940,"componentType":5122,"count":8,"type":"VEC2","name":"part042.004_vertices#0_TEXCOORD_0"},{"bufferView":66,"byteOffset":25944,"componentType":5122,"count":8,"type":"VEC2","name":"part042.004_vertices#0_TEXCOORD_1"},{"bufferView":66,"byteOffset":25948,"componentType":5123,"count":8,"type":"VEC4","name":"part042.004_vertices#0_COLOR_0"},{"bufferView":67,"byteOffset":2640,"componentType":5123,"count":12,"type":"SCALAR","name":"part042.004_indices#0"},{"bufferView":66,"byteOffset":26208,"componentType":5126,"count":44,"min":[-2.129960060119629,-2.7012100219726564,-2.144850015640259],"max":[2.1319499015808107,0.8483800292015076,2.1170499324798586],"type":"VEC3","name":"part043.004_vertices#0_POSITION"},{"bufferView":66,"byteOffset":26220,"componentType":5120,"count":44,"type":"VEC4","name":"part043.004_vertices#0_TANGENT"},{"bufferView":66,"byteOffset":26224,"componentType":5120,"count":44,"type":"VEC4","name":"part043.004_vertices#0_NORMAL"},{"bufferView":66,"byteOffset":26228,"componentType":5122,"count":44,"type":"VEC2","name":"part043.004_vertices#0_TEXCOORD_0"},{"bufferView":66,"byteOffset":26232,"componentType":5122,"count":44,"type":"VEC2","name":"part043.004_vertices#0_TEXCOORD_1"},{"bufferView":66,"byteOffset":26236,"componentType":5123,"count":44,"type":"VEC4","name":"part043.004_vertices#0_COLOR_0"},{"bufferView":67,"byteOffset":2664,"componentType":5123,"count":108,"type":"SCALAR","name":"part043.004_indices#0"},{"bufferView":66,"byteOffset":27792,"componentType":5126,"count":52,"min":[17.402790069580079,-2.7012100219726564,-2.1449599266052248],"max":[21.66469955444336,0.8483800292015076,2.116950035095215],"type":"VEC3","name":"part044.004_vertices#0_POSITION"},{"bufferView":66,"byteOffset":27804,"componentType":5120,"count":52,"type":"VEC4","name":"part044.004_vertices#0_TANGENT"},{"bufferView":66,"byteOffset":27808,"componentType":5120,"count":52,"type":"VEC4","name":"part044.004_vertices#0_NORMAL"},{"bufferView":66,"byteOffset":27812,"componentType":5122,"count":52,"type":"VEC2","name":"part044.004_vertices#0_TEXCOORD_0"},{"bufferView":66,"byteOffset":27816,"componentType":5122,"count":52,"type":"VEC2","name":"part044.004_vertices#0_TEXCOORD_1"},{"bufferView":66,"byteOffset":27820,"componentType":5123,"count":52,"type":"VEC4","name":"part044.004_vertices#0_COLOR_0"},{"bufferView":67,"byteOffset":2880,"componentType":5123,"count":108,"type":"SCALAR","name":"part044.004_indices#0"},{"bufferView":66,"byteOffset":29664,"componentType":5126,"count":11,"min":[-0.2190999984741211,-3.035360097885132,0.0010000000474974514],"max":[0.21709999442100526,0.0020000000949949028,0.6973099708557129],"type":"VEC3","name":"part045.004_vertices#0_POSITION"},{"bufferView":66,"byteOffset":29676,"componentType":5120,"count":11,"type":"VEC4","name":"part045.004_vertices#0_TANGENT"},{"bufferView":66,"byteOffset":29680,"componentType":5120,"count":11,"type":"VEC4","name":"part045.004_vertices#0_NORMAL"},{"bufferView":66,"byteOffset":29684,"componentType":5122,"count":11,"type":"VEC2","name":"part045.004_vertices#0_TEXCOORD_0"},{"bufferView":66,"byteOffset":29688,"componentType":5122,"count":11,"type":"VEC2","name":"part045.004_vertices#0_TEXCOORD_1"},{"bufferView":66,"byteOffset":29692,"componentType":5123,"count":11,"type":"VEC4","name":"part045.004_vertices#0_COLOR_0"},{"bufferView":67,"byteOffset":3096,"componentType":5123,"count":15,"type":"SCALAR","name":"part045.004_indices#0"},{"bufferView":66,"byteOffset":30060,"componentType":5126,"count":11,"min":[-0.21809999644756318,-2.293030023574829,-0.0010000000474974514],"max":[0.21809999644756318,0.0,0.6152799725532532],"type":"VEC3","name":"part046.004_vertices#0_POSITION"},{"bufferView":66,"byteOffset":30072,"componentType":5120,"count":11,"type":"VEC4","name":"part046.004_vertices#0_TANGENT"},{"bufferView":66,"byteOffset":30076,"componentType":5120,"count":11,"type":"VEC4","name":"part046.004_vertices#0_NORMAL"},{"bufferView":66,"byteOffset":30080,"componentType":5122,"count":11,"type":"VEC2","name":"part046.004_vertices#0_TEXCOORD_0"},{"bufferView":66,"byteOffset":30084,"componentType":5122,"count":11,"type":"VEC2","name":"part046.004_vertices#0_TEXCOORD_1"},{"bufferView":66,"byteOffset":30088,"componentType":5123,"count":11,"type":"VEC4","name":"part046.004_vertices#0_COLOR_0"},{"bufferView":67,"byteOffset":3126,"componentType":5123,"count":15,"type":"SCALAR","name":"part046.004_indices#0"},{"bufferView":66,"byteOffset":30456,"componentType":5126,"count":682,"min":[-32.69601058959961,-4.239999771118164,-37.439998626708987],"max":[32.69601058959961,13.404000282287598,37.0],"type":"VEC3","name":"part001.005_vertices#0_POSITION"},{"bufferView":66,"byteOffset":30468,"componentType":5120,"count":682,"type":"VEC4","name":"part001.005_vertices#0_TANGENT"},{"bufferView":66,"byteOffset":30472,"componentType":5120,"count":682,"type":"VEC4","name":"part001.005_vertices#0_NORMAL"},{"bufferView":66,"byteOffset":30476,"componentType":5122,"count":682,"type":"VEC2","name":"part001.005_vertices#0_TEXCOORD_0"},{"bufferView":66,"byteOffset":30480,"componentType":5122,"count":682,"type":"VEC2","name":"part001.005_vertices#0_TEXCOORD_1"},{"bufferView":66,"byteOffset":30484,"componentType":5123,"count":682,"type":"VEC4","name":"part001.005_vertices#0_COLOR_0"},{"bufferView":67,"byteOffset":3156,"componentType":5123,"count":1980,"type":"SCALAR","name":"part001.005_indices#0"},{"bufferView":66,"byteOffset":55008,"componentType":5126,"count":34,"min":[-0.4000000059604645,3.936000108718872,17.43600082397461],"max":[0.4000000059604645,4.248000144958496,19.56399917602539],"type":"VEC3","name":"part002.004_vertices#0_POSITION"},{"bufferView":66,"byteOffset":55020,"componentType":5120,"count":34,"type":"VEC4","name":"part002.004_vertices#0_TANGENT"},{"bufferView":66,"byteOffset":55024,"componentType":5120,"count":34,"type":"VEC4","name":"part002.004_vertices#0_NORMAL"},{"bufferView":66,"byteOffset":55028,"componentType":5122,"count":34,"type":"VEC2","name":"part002.004_vertices#0_TEXCOORD_0"},{"bufferView":66,"byteOffset":55032,"componentType":5122,"count":34,"type":"VEC2","name":"part002.004_vertices#0_TEXCOORD_1"},{"bufferView":66,"byteOffset":55036,"componentType":5123,"count":34,"type":"VEC4","name":"part002.004_vertices#0_COLOR_0"},{"bufferView":67,"byteOffset":7116,"componentType":5123,"count":114,"type":"SCALAR","name":"part002.004_indices#0"}],"animations":[{"name":"GEAR_center","channels":[{"sampler":0,"target":{"node":4,"path":"rotation"}},{"sampler":1,"target":{"node":0,"path":"translation"}},{"sampler":2,"target":{"node":16,"path":"translation"}},{"sampler":3,"target":{"node":6,"path":"rotation"}},{"sampler":4,"target":{"node":8,"path":"rotation"}},{"sampler":5,"target":{"node":14,"path":"translation"}},{"sampler":6,"target":{"node":10,"path":"rotation"}},{"sampler":7,"target":{"node":12,"path":"rotation"}}],"samplers":[{"input":0,"output":1,"interpolation":"LINEAR"},{"input":0,"output":2,"interpolation":"LINEAR"},{"input":0,"output":3,"interpolation":"LINEAR"},{"input":0,"output":4,"interpolation":"LINEAR"},{"input":0,"output":5,"interpolation":"LINEAR"},{"input":0,"output":6,"interpolation":"LINEAR"},{"input":0,"output":7,"interpolation":"LINEAR"},{"input":0,"output":8,"interpolation":"LINEAR"}]},{"name":"GEAR_right","channels":[{"sampler":0,"target":{"node":23,"path":"rotation"}},{"sampler":1,"target":{"node":21,"path":"translation"}},{"sampler":2,"target":{"node":19,"path":"rotation"}},{"sampler":3,"target":{"node":25,"path":"translation"}},{"sampler":4,"target":{"node":29,"path":"rotation"}},{"sampler":5,"target":{"node":27,"path":"translation"}},{"sampler":6,"target":{"node":33,"path":"translation"}},{"sampler":7,"target":{"node":31,"path":"rotation"}}],"samplers":[{"input":0,"output":9,"interpolation":"LINEAR"},{"input":0,"output":10,"interpolation":"LINEAR"},{"input":0,"output":11,"interpolation":"LINEAR"},{"input":0,"output":12,"interpolation":"LINEAR"},{"input":0,"output":13,"interpolation":"LINEAR"},{"input":0,"output":14,"interpolation":"LINEAR"},{"input":0,"output":15,"interpolation":"LINEAR"},{"input":0,"output":16,"interpolation":"LINEAR"}]},{"name":"GEAR_left","channels":[{"sampler":0,"target":{"node":42,"path":"translation"}},{"sampler":1,"target":{"node":40,"path":"rotation"}},{"sampler":2,"target":{"node":38,"path":"translation"}},{"sampler":3,"target":{"node":36,"path":"rotation"}},{"sampler":4,"target":{"node":46,"path":"rotation"}},{"sampler":5,"target":{"node":44,"path":"translation"}},{"sampler":6,"target":{"node":48,"path":"translation"}},{"sampler":7,"target":{"node":52,"path":"translation"}},{"sampler":8,"target":{"node":50,"path":"rotation"}}],"samplers":[{"input":0,"output":17,"interpolation":"LINEAR"},{"input":0,"output":18,"interpolation":"LINEAR"},{"input":0,"output":19,"interpolation":"LINEAR"},{"input":0,"output":20,"interpolation":"LINEAR"},{"input":0,"output":21,"interpolation":"LINEAR"},{"input":0,"output":22,"interpolation":"LINEAR"},{"input":0,"output":23,"interpolation":"LINEAR"},{"input":0,"output":24,"interpolation":"LINEAR"},{"input":0,"output":25,"interpolation":"LINEAR"}]},{"name":"FLAPS","channels":[{"sampler":0,"target":{"node":57,"path":"translation"}},{"sampler":1,"target":{"node":55,"path":"rotation"}},{"sampler":2,"target":{"node":65,"path":"translation"}},{"sampler":3,"target":{"node":63,"path":"rotation"}},{"sampler":4,"target":{"node":61,"path":"translation"}},{"sampler":5,"target":{"node":59,"path":"rotation"}},{"sampler":6,"target":{"node":73,"path":"translation"}},{"sampler":7,"target":{"node":71,"path":"rotation"}},{"sampler":8,"target":{"node":69,"path":"translation"}},{"sampler":9,"target":{"node":67,"path":"rotation"}},{"sampler":10,"target":{"node":77,"path":"translation"}},{"sampler":11,"target":{"node":75,"path":"rotation"}},{"sampler":12,"target":{"node":81,"path":"translation"}},{"sampler":13,"target":{"node":79,"path":"rotation"}},{"sampler":14,"target":{"node":85,"path":"translation"}},{"sampler":15,"target":{"node":83,"path":"rotation"}},{"sampler":16,"target":{"node":105,"path":"translation"}},{"sampler":17,"target":{"node":103,"path":"rotation"}},{"sampler":18,"target":{"node":109,"path":"translation"}},{"sampler":19,"target":{"node":107,"path":"rotation"}},{"sampler":20,"target":{"node":111,"path":"rotation"}},{"sampler":21,"target":{"node":113,"path":"rotation"}},{"sampler":22,"target":{"node":127,"path":"rotation"}},{"sampler":23,"target":{"node":129,"path":"rotation"}}],"samplers":[{"input":26,"output":27,"interpolation":"LINEAR"},{"input":26,"output":28,"interpolation":"LINEAR"},{"input":26,"output":29,"interpolation":"LINEAR"},{"input":26,"output":30,"interpolation":"LINEAR"},{"input":26,"output":31,"interpolation":"LINEAR"},{"input":26,"output":32,"interpolation":"LINEAR"},{"input":26,"output":33,"interpolation":"LINEAR"},{"input":26,"output":34,"interpolation":"LINEAR"},{"input":26,"output":35,"interpolation":"LINEAR"},{"input":26,"output":36,"interpolation":"LINEAR"},{"input":26,"output":37,"interpolation":"LINEAR"},{"input":26,"output":38,"interpolation":"LINEAR"},{"input":26,"output":39,"interpolation":"LINEAR"},{"input":26,"output":40,"interpolation":"LINEAR"},{"input":26,"output":41,"interpolation":"LINEAR"},{"input":26,"output":42,"interpolation":"LINEAR"},{"input":26,"output":43,"interpolation":"LINEAR"},{"input":26,"output":44,"interpolation":"LINEAR"},{"input":26,"output":45,"interpolation":"LINEAR"},{"input":26,"output":46,"interpolation":"LINEAR"},{"input":26,"output":47,"interpolation":"LINEAR"},{"input":48,"output":49,"interpolation":"LINEAR"},{"input":26,"output":50,"interpolation":"LINEAR"},{"input":26,"output":51,"interpolation":"LINEAR"}]},{"name":"SLATS","channels":[{"sampler":0,"target":{"node":89,"path":"translation"}},{"sampler":1,"target":{"node":87,"path":"rotation"}},{"sampler":2,"target":{"node":93,"path":"translation"}},{"sampler":3,"target":{"node":91,"path":"rotation"}},{"sampler":4,"target":{"node":97,"path":"translation"}},{"sampler":5,"target":{"node":95,"path":"rotation"}},{"sampler":6,"target":{"node":101,"path":"translation"}},{"sampler":7,"target":{"node":99,"path":"rotation"}}],"samplers":[{"input":26,"output":52,"interpolation":"LINEAR"},{"input":26,"output":53,"interpolation":"LINEAR"},{"input":26,"output":54,"interpolation":"LINEAR"},{"input":26,"output":55,"interpolation":"LINEAR"},{"input":26,"output":56,"interpolation":"LINEAR"},{"input":26,"output":57,"interpolation":"LINEAR"},{"input":26,"output":58,"interpolation":"LINEAR"},{"input":26,"output":59,"interpolation":"LINEAR"}]},{"name":"SPOILERS","channels":[{"sampler":0,"target":{"node":115,"path":"rotation"}},{"sampler":1,"target":{"node":117,"path":"rotation"}},{"sampler":2,"target":{"node":119,"path":"rotation"}},{"sampler":3,"target":{"node":121,"path":"rotation"}}],"samplers":[{"input":26,"output":60,"interpolation":"LINEAR"},{"input":26,"output":61,"interpolation":"LINEAR"},{"input":26,"output":62,"interpolation":"LINEAR"},{"input":26,"output":63,"interpolation":"LINEAR"}]},{"name":"REVERSERS","channels":[{"sampler":0,"target":{"node":123,"path":"translation"}},{"sampler":1,"target":{"node":125,"path":"translation"}}],"samplers":[{"input":26,"output":64,"interpolation":"LINEAR"},{"input":26,"output":65,"interpolation":"LINEAR"}]}],"asset":{"generator":"Khronos glTF Blender I/O v3.6.28 and Asobo Studio MSFS2020 Blender I/O v3.3.1 with Blender v3.6.23","version":"2.0","extensions":{"ASOBO_asset_optimized":{"BoundingBoxMax":[32.69601058959961,13.404000282287598,37.0],"BoundingBoxMin":[-32.69601058959961,-7.118549823760986,-37.439998626708987],"MajorVersion":4,"MinorVersion":4,"UseCheckerboardMaterialForMissingTextures":true,"UseOnlyFilenameForImageURI":true},"ASOBO_normal_map_convention":{"tangent_space_convention":"DirectX"}}},"bufferViews":[{"buffer":0,"byteLength":800},{"buffer":0,"byteLength":3200,"byteOffset":800},{"buffer":0,"byteLength":2400,"byteOffset":4000},{"buffer":0,"byteLength":2400,"byteOffset":6400},{"buffer":0,"byteLength":3200,"byteOffset":8800},{"buffer":0,"byteLength":3200,"byteOffset":12000},{"buffer":0,"byteLength":2400,"byteOffset":15200},{"buffer":0,"byteLength":3200,"byteOffset":17600},{"buffer":0,"byteLength":3200,"byteOffset":20800},{"buffer":0,"byteLength":3200,"byteOffset":24000},{"buffer":0,"byteLength":2400,"byteOffset":27200},{"buffer":0,"byteLength":3200,"byteOffset":29600},{"buffer":0,"byteLength":2400,"byteOffset":32800},{"buffer":0,"byteLength":3200,"byteOffset":35200},{"buffer":0,"byteLength":2400,"byteOffset":38400},{"buffer":0,"byteLength":2400,"byteOffset":40800},{"buffer":0,"byteLength":3200,"byteOffset":43200},{"buffer":0,"byteLength":2400,"byteOffset":46400},{"buffer":0,"byteLength":3200,"byteOffset":48800},{"buffer":0,"byteLength":2400,"byteOffset":52000},{"buffer":0,"byteLength":3200,"byteOffset":54400},{"buffer":0,"byteLength":3200,"byteOffset":57600},{"buffer":0,"byteLength":2400,"byteOffset":60800},{"buffer":0,"byteLength":2400,"byteOffset":63200},{"buffer":0,"byteLength":2400,"byteOffset":65600},{"buffer":0,"byteLength":3200,"byteOffset":68000},{"buffer":0,"byteLength":400,"byteOffset":71200},{"buffer":0,"byteLength":1200,"byteOffset":71600},{"buffer":0,"byteLength":1600,"byteOffset":72800},{"buffer":0,"byteLength":1200,"byteOffset":74400},{"buffer":0,"byteLength":1600,"byteOffset":75600},{"buffer":0,"byteLength":1200,"byteOffset":77200},{"buffer":0,"byteLength":1600,"byteOffset":78400},{"buffer":0,"byteLength":1200,"byteOffset":80000},{"buffer":0,"byteLength":1600,"byteOffset":81200},{"buffer":0,"byteLength":1200,"byteOffset":82800},{"buffer":0,"byteLength":1600,"byteOffset":84000},{"buffer":0,"byteLength":1200,"byteOffset":85600},{"buffer":0,"byteLength":1600,"byteOffset":86800},{"buffer":0,"byteLength":1200,"byteOffset":88400},{"buffer":0,"byteLength":1600,"byteOffset":89600},{"buffer":0,"byteLength":1200,"byteOffset":91200},{"buffer":0,"byteLength":1600,"byteOffset":92400},{"buffer":0,"byteLength":1200,"byteOffset":94000},{"buffer":0,"byteLength":1600,"byteOffset":95200},{"buffer":0,"byteLength":1200,"byteOffset":96800},{"buffer":0,"byteLength":1600,"byteOffset":98000},{"buffer":0,"byteLength":1600,"byteOffset":99600},{"buffer":0,"byteLength":380,"byteOffset":101200},{"buffer":0,"byteLength":1520,"byteOffset":101580},{"buffer":0,"byteLength":1600,"byteOffset":103100},{"buffer":0,"byteLength":1600,"byteOffset":104700},{"buffer":0,"byteLength":1200,"byteOffset":106300},{"buffer":0,"byteLength":1600,"byteOffset":107500},{"buffer":0,"byteLength":1200,"byteOffset":109100},{"buffer":0,"byteLength":1600,"byteOffset":110300},{"buffer":0,"byteLength":1200,"byteOffset":111900},{"buffer":0,"byteLength":1600,"byteOffset":113100},{"buffer":0,"byteLength":1200,"byteOffset":114700},{"buffer":0,"byteLength":1600,"byteOffset":115900},{"buffer":0,"byteLength":1600,"byteOffset":117500},{"buffer":0,"byteLength":1600,"byteOffset":119100},{"buffer":0,"byteLength":1600,"byteOffset":120700},{"buffer":0,"byteLength":1600,"byteOffset":122300},{"buffer":0,"byteLength":1200,"byteOffset":123900},{"buffer":0,"byteLength":1200,"byteOffset":125100},{"buffer":0,"byteLength":56232,"byteStride":36,"byteOffset":126300,"target":34962,"name":"BufferViewVertexND"},{"buffer":0,"byteLength":7344,"byteOffset":182532,"target":34963,"name":"BufferViewIndex"}],"extensionsRequired":["MSFT_texture_dds"],"materials":[{"name":"Livery","occlusionTexture":{"index":0},"pbrMetallicRoughness":{"baseColorTexture":{"index":1},"metallicRoughnessTexture":{"index":0}}}],"meshes":[{"primitives":[{"attributes":{"COLOR_0":78,"NORMAL":75,"POSITION":73,"TANGENT":74,"TEXCOORD_0":76,"TEXCOORD_1":77},"indices":79,"material":0,"mode":4,"extras":{"ASOBO_primitive":{"PrimitiveCount":34,"VertexType":"VTX","VertexVersion":2}}}],"name":"part004.044"},{"primitives":[{"attributes":{"COLOR_0":71,"NORMAL":68,"POSITION":66,"TANGENT":67,"TEXCOORD_0":69,"TEXCOORD_1":70},"indices":72,"material":0,"mode":4,"extras":{"ASOBO_primitive":{"PrimitiveCount":6,"VertexType":"VTX","VertexVersion":2}}}],"name":"part003.004"},{"primitives":[{"attributes":{"COLOR_0":92,"NORMAL":89,"POSITION":87,"TANGENT":88,"TEXCOORD_0":90,"TEXCOORD_1":91},"indices":93,"material":0,"mode":4,"extras":{"ASOBO_primitive":{"PrimitiveCount":4,"VertexType":"VTX","VertexVersion":2}}}],"name":"part006.004"},{"primitives":[{"attributes":{"COLOR_0":99,"NORMAL":96,"POSITION":94,"TANGENT":95,"TEXCOORD_0":97,"TEXCOORD_1":98},"indices":100,"material":0,"mode":4,"extras":{"ASOBO_primitive":{"PrimitiveCount":4,"VertexType":"VTX","VertexVersion":2}}}],"name":"part007.004"},{"primitives":[{"attributes":{"COLOR_0":113,"NORMAL":110,"POSITION":108,"TANGENT":109,"TEXCOORD_0":111,"TEXCOORD_1":112},"indices":114,"material":0,"mode":4,"extras":{"ASOBO_primitive":{"PrimitiveCount":4,"VertexType":"VTX","VertexVersion":2}}}],"name":"part009.004"},{"primitives":[{"attributes":{"COLOR_0":120,"NORMAL":117,"POSITION":115,"TANGENT":116,"TEXCOORD_0":118,"TEXCOORD_1":119},"indices":121,"material":0,"mode":4,"extras":{"ASOBO_primitive":{"PrimitiveCount":4,"VertexType":"VTX","VertexVersion":2}}}],"name":"part010.004"},{"primitives":[{"attributes":{"COLOR_0":106,"NORMAL":103,"POSITION":101,"TANGENT":102,"TEXCOORD_0":104,"TEXCOORD_1":105},"indices":107,"material":0,"mode":4,"extras":{"ASOBO_primitive":{"PrimitiveCount":4,"VertexType":"VTX","VertexVersion":2}}}],"name":"part008.004"},{"primitives":[{"attributes":{"COLOR_0":85,"NORMAL":82,"POSITION":80,"TANGENT":81,"TEXCOORD_0":83,"TEXCOORD_1":84},"indices":86,"material":0,"mode":4,"extras":{"ASOBO_primitive":{"PrimitiveCount":4,"VertexType":"VTX","VertexVersion":2}}}],"name":"part005.004"},{"primitives":[{"attributes":{"COLOR_0":134,"NORMAL":131,"POSITION":129,"TANGENT":130,"TEXCOORD_0":132,"TEXCOORD_1":133},"indices":135,"material":0,"mode":4,"extras":{"ASOBO_primitive":{"PrimitiveCount":102,"VertexType":"VTX","VertexVersion":2}}}],"name":"part012.004"},{"primitives":[{"attributes":{"COLOR_0":127,"NORMAL":124,"POSITION":122,"TANGENT":123,"TEXCOORD_0":125,"TEXCOORD_1":126},"indices":128,"material":0,"mode":4,"extras":{"ASOBO_primitive":{"PrimitiveCount":6,"VertexType":"VTX","VertexVersion":2}}}],"name":"part011.004"},{"primitives":[{"attributes":{"COLOR_0":141,"NORMAL":138,"POSITION":136,"TANGENT":137,"TEXCOORD_0":139,"TEXCOORD_1":140},"indices":142,"material":0,"mode":4,"extras":{"ASOBO_primitive":{"PrimitiveCount":5,"VertexType":"VTX","VertexVersion":2}}}],"name":"part013.004"},{"primitives":[{"attributes":{"COLOR_0":148,"NORMAL":145,"POSITION":143,"TANGENT":144,"TEXCOORD_0":146,"TEXCOORD_1":147},"indices":149,"material":0,"mode":4,"extras":{"ASOBO_primitive":{"PrimitiveCount":10,"VertexType":"VTX","VertexVersion":2}}}],"name":"part014.004"},{"primitives":[{"attributes":{"COLOR_0":162,"NORMAL":159,"POSITION":157,"TANGENT":158,"TEXCOORD_0":160,"TEXCOORD_1":161},"indices":163,"material":0,"mode":4,"extras":{"ASOBO_primitive":{"PrimitiveCount":8,"VertexType":"VTX","VertexVersion":2}}}],"name":"part016.004"},{"primitives":[{"attributes":{"COLOR_0":155,"NORMAL":152,"POSITION":150,"TANGENT":151,"TEXCOORD_0":153,"TEXCOORD_1":154},"indices":156,"material":0,"mode":4,"extras":{"ASOBO_primitive":{"PrimitiveCount":4,"VertexType":"VTX","VertexVersion":2}}}],"name":"part015.004"},{"primitives":[{"attributes":{"COLOR_0":176,"NORMAL":173,"POSITION":171,"TANGENT":172,"TEXCOORD_0":174,"TEXCOORD_1":175},"indices":177,"material":0,"mode":4,"extras":{"ASOBO_primitive":{"PrimitiveCount":102,"VertexType":"VTX","VertexVersion":2}}}],"name":"part018.004"},{"primitives":[{"attributes":{"COLOR_0":169,"NORMAL":166,"POSITION":164,"TANGENT":165,"TEXCOORD_0":167,"TEXCOORD_1":168},"indices":170,"material":0,"mode":4,"extras":{"ASOBO_primitive":{"PrimitiveCount":6,"VertexType":"VTX","VertexVersion":2}}}],"name":"part017.004"},{"primitives":[{"attributes":{"COLOR_0":183,"NORMAL":180,"POSITION":178,"TANGENT":179,"TEXCOORD_0":181,"TEXCOORD_1":182},"indices":184,"material":0,"mode":4,"extras":{"ASOBO_primitive":{"PrimitiveCount":10,"VertexType":"VTX","VertexVersion":2}}}],"name":"part019.004"},{"primitives":[{"attributes":{"COLOR_0":190,"NORMAL":187,"POSITION":185,"TANGENT":186,"TEXCOORD_0":188,"TEXCOORD_1":189},"indices":191,"material":0,"mode":4,"extras":{"ASOBO_primitive":{"PrimitiveCount":5,"VertexType":"VTX","VertexVersion":2}}}],"name":"part020.004"},{"primitives":[{"attributes":{"COLOR_0":204,"NORMAL":201,"POSITION":199,"TANGENT":200,"TEXCOORD_0":202,"TEXCOORD_1":203},"indices":205,"material":0,"mode":4,"extras":{"ASOBO_primitive":{"PrimitiveCount":8,"VertexType":"VTX","VertexVersion":2}}}],"name":"part022.004"},{"primitives":[{"attributes":{"COLOR_0":197,"NORMAL":194,"POSITION":192,"TANGENT":193,"TEXCOORD_0":195,"TEXCOORD_1":196},"indices":198,"material":0,"mode":4,"extras":{"ASOBO_primitive":{"PrimitiveCount":4,"VertexType":"VTX","VertexVersion":2}}}],"name":"part021.004"},{"primitives":[{"attributes":{"COLOR_0":211,"NORMAL":208,"POSITION":206,"TANGENT":207,"TEXCOORD_0":209,"TEXCOORD_1":210},"indices":212,"material":0,"mode":4,"extras":{"ASOBO_primitive":{"PrimitiveCount":8,"VertexType":"VTX","VertexVersion":2}}}],"name":"part023.004"},{"primitives":[{"attributes":{"COLOR_0":225,"NORMAL":222,"POSITION":220,"TANGENT":221,"TEXCOORD_0":223,"TEXCOORD_1":224},"indices":226,"material":0,"mode":4,"extras":{"ASOBO_primitive":{"PrimitiveCount":8,"VertexType":"VTX","VertexVersion":2}}}],"name":"part025.004"},{"primitives":[{"attributes":{"COLOR_0":218,"NORMAL":215,"POSITION":213,"TANGENT":214,"TEXCOORD_0":216,"TEXCOORD_1":217},"indices":219,"material":0,"mode":4,"extras":{"ASOBO_primitive":{"PrimitiveCount":7,"VertexType":"VTX","VertexVersion":2}}}],"name":"part024.004"},{"primitives":[{"attributes":{"COLOR_0":239,"NORMAL":236,"POSITION":234,"TANGENT":235,"TEXCOORD_0":237,"TEXCOORD_1":238},"indices":240,"material":0,"mode":4,"extras":{"ASOBO_primitive":{"PrimitiveCount":8,"VertexType":"VTX","VertexVersion":2}}}],"name":"part027.004"},{"primitives":[{"attributes":{"COLOR_0":232,"NORMAL":229,"POSITION":227,"TANGENT":228,"TEXCOORD_0":230,"TEXCOORD_1":231},"indices":233,"material":0,"mode":4,"extras":{"ASOBO_primitive":{"PrimitiveCount":7,"VertexType":"VTX","VertexVersion":2}}}],"name":"part026.004"},{"primitives":[{"attributes":{"COLOR_0":246,"NORMAL":243,"POSITION":241,"TANGENT":242,"TEXCOORD_0":244,"TEXCOORD_1":245},"indices":247,"material":0,"mode":4,"extras":{"ASOBO_primitive":{"PrimitiveCount":8,"VertexType":"VTX","VertexVersion":2}}}],"name":"part028.004"},{"primitives":[{"attributes":{"COLOR_0":253,"NORMAL":250,"POSITION":248,"TANGENT":249,"TEXCOORD_0":251,"TEXCOORD_1":252},"indices":254,"material":0,"mode":4,"extras":{"ASOBO_primitive":{"PrimitiveCount":6,"VertexType":"VTX","VertexVersion":2}}}],"name":"part029.004"},{"primitives":[{"attributes":{"COLOR_0":260,"NORMAL":257,"POSITION":255,"TANGENT":256,"TEXCOORD_0":258,"TEXCOORD_1":259},"indices":261,"material":0,"mode":4,"extras":{"ASOBO_primitive":{"PrimitiveCount":6,"VertexType":"VTX","VertexVersion":2}}}],"name":"part030.004"},{"primitives":[{"attributes":{"COLOR_0":267,"NORMAL":264,"POSITION":262,"TANGENT":263,"TEXCOORD_0":265,"TEXCOORD_1":266},"indices":268,"material":0,"mode":4,"extras":{"ASOBO_primitive":{"PrimitiveCount":4,"VertexType":"VTX","VertexVersion":2}}}],"name":"part031.004"},{"primitives":[{"attributes":{"COLOR_0":274,"NORMAL":271,"POSITION":269,"TANGENT":270,"TEXCOORD_0":272,"TEXCOORD_1":273},"indices":275,"material":0,"mode":4,"extras":{"ASOBO_primitive":{"PrimitiveCount":4,"VertexType":"VTX","VertexVersion":2}}}],"name":"part032.004"},{"primitives":[{"attributes":{"COLOR_0":281,"NORMAL":278,"POSITION":276,"TANGENT":277,"TEXCOORD_0":279,"TEXCOORD_1":280},"indices":282,"material":0,"mode":4,"extras":{"ASOBO_primitive":{"PrimitiveCount":4,"VertexType":"VTX","VertexVersion":2}}}],"name":"part033.004"},{"primitives":[{"attributes":{"COLOR_0":288,"NORMAL":285,"POSITION":283,"TANGENT":284,"TEXCOORD_0":286,"TEXCOORD_1":287},"indices":289,"material":0,"mode":4,"extras":{"ASOBO_primitive":{"PrimitiveCount":4,"VertexType":"VTX","VertexVersion":2}}}],"name":"part034.004"},{"primitives":[{"attributes":{"COLOR_0":295,"NORMAL":292,"POSITION":290,"TANGENT":291,"TEXCOORD_0":293,"TEXCOORD_1":294},"indices":296,"material":0,"mode":4,"extras":{"ASOBO_primitive":{"PrimitiveCount":5,"VertexType":"VTX","VertexVersion":2}}}],"name":"part035.004"},{"primitives":[{"attributes":{"COLOR_0":302,"NORMAL":299,"POSITION":297,"TANGENT":298,"TEXCOORD_0":300,"TEXCOORD_1":301},"indices":303,"material":0,"mode":4,"extras":{"ASOBO_primitive":{"PrimitiveCount":5,"VertexType":"VTX","VertexVersion":2}}}],"name":"part036.004"},{"primitives":[{"attributes":{"COLOR_0":309,"NORMAL":306,"POSITION":304,"TANGENT":305,"TEXCOORD_0":307,"TEXCOORD_1":308},"indices":310,"material":0,"mode":4,"extras":{"ASOBO_primitive":{"PrimitiveCount":5,"VertexType":"VTX","VertexVersion":2}}}],"name":"part037.004"},{"primitives":[{"attributes":{"COLOR_0":316,"NORMAL":313,"POSITION":311,"TANGENT":312,"TEXCOORD_0":314,"TEXCOORD_1":315},"indices":317,"material":0,"mode":4,"extras":{"ASOBO_primitive":{"PrimitiveCount":5,"VertexType":"VTX","VertexVersion":2}}}],"name":"part038.004"},{"primitives":[{"attributes":{"COLOR_0":323,"NORMAL":320,"POSITION":318,"TANGENT":319,"TEXCOORD_0":321,"TEXCOORD_1":322},"indices":324,"material":0,"mode":4,"extras":{"ASOBO_primitive":{"PrimitiveCount":4,"VertexType":"VTX","VertexVersion":2}}}],"name":"part039.004"},{"primitives":[{"attributes":{"COLOR_0":330,"NORMAL":327,"POSITION":325,"TANGENT":326,"TEXCOORD_0":328,"TEXCOORD_1":329},"indices":331,"material":0,"mode":4,"extras":{"ASOBO_primitive":{"PrimitiveCount":4,"VertexType":"VTX","VertexVersion":2}}}],"name":"part040.004"},{"primitives":[{"attributes":{"COLOR_0":337,"NORMAL":334,"POSITION":332,"TANGENT":333,"TEXCOORD_0":335,"TEXCOORD_1":336},"indices":338,"material":0,"mode":4,"extras":{"ASOBO_primitive":{"PrimitiveCount":4,"VertexType":"VTX","VertexVersion":2}}}],"name":"part041.004"},{"primitives":[{"attributes":{"COLOR_0":344,"NORMAL":341,"POSITION":339,"TANGENT":340,"TEXCOORD_0":342,"TEXCOORD_1":343},"indices":345,"material":0,"mode":4,"extras":{"ASOBO_primitive":{"PrimitiveCount":4,"VertexType":"VTX","VertexVersion":2}}}],"name":"part042.004"},{"primitives":[{"attributes":{"COLOR_0":351,"NORMAL":348,"POSITION":346,"TANGENT":347,"TEXCOORD_0":349,"TEXCOORD_1":350},"indices":352,"material":0,"mode":4,"extras":{"ASOBO_primitive":{"PrimitiveCount":36,"VertexType":"VTX","VertexVersion":2}}}],"name":"part043.004"},{"primitives":[{"attributes":{"COLOR_0":358,"NORMAL":355,"POSITION":353,"TANGENT":354,"TEXCOORD_0":356,"TEXCOORD_1":357},"indices":359,"material":0,"mode":4,"extras":{"ASOBO_primitive":{"PrimitiveCount":36,"VertexType":"VTX","VertexVersion":2}}}],"name":"part044.004"},{"primitives":[{"attributes":{"COLOR_0":365,"NORMAL":362,"POSITION":360,"TANGENT":361,"TEXCOORD_0":363,"TEXCOORD_1":364},"indices":366,"material":0,"mode":4,"extras":{"ASOBO_primitive":{"PrimitiveCount":5,"VertexType":"VTX","VertexVersion":2}}}],"name":"part045.004"},{"primitives":[{"attributes":{"COLOR_0":372,"NORMAL":369,"POSITION":367,"TANGENT":368,"TEXCOORD_0":370,"TEXCOORD_1":371},"indices":373,"material":0,"mode":4,"extras":{"ASOBO_primitive":{"PrimitiveCount":5,"VertexType":"VTX","VertexVersion":2}}}],"name":"part046.004"},{"primitives":[{"attributes":{"COLOR_0":379,"NORMAL":376,"POSITION":374,"TANGENT":375,"TEXCOORD_0":377,"TEXCOORD_1":378},"indices":380,"material":0,"mode":4,"extras":{"ASOBO_primitive":{"PrimitiveCount":660,"VertexType":"VTX","VertexVersion":2}}}],"name":"part001.005"},{"primitives":[{"attributes":{"COLOR_0":386,"NORMAL":383,"POSITION":381,"TANGENT":382,"TEXCOORD_0":384,"TEXCOORD_1":385},"indices":387,"material":0,"mode":4,"extras":{"ASOBO_primitive":{"PrimitiveCount":38,"VertexType":"VTX","VertexVersion":2}}}],"name":"part002.004"}],"nodes":[{"translation":[0.0,-2.9819931983947756,-0.013271033763885498],"mesh":0,"name":"node14_anim_c_gear.004"},{"name":"node14.004","children":[0]},{"translation":[0.2623484432697296,-0.490926593542099,0.2565491199493408],"rotation":[0.0000028833751457568725,0.0,0.0,1.0],"name":"takeoff_L4"},{"translation":[-0.26208797097206118,-0.490926593542099,0.2565491199493408],"rotation":[0.0000028833751457568725,0.0,0.0,1.0],"name":"takeoff_R4"},{"rotation":[0.0,-0.1736479550600052,0.984807789325714,1.931193027131644e-24],"mesh":1,"name":"node13_anim_c_gear.004","children":[1,2,3]},{"translation":[0.00013099999341648072,-1.711120843887329,1.1877357959747315],"name":"node13.004","children":[4]},{"rotation":[0.01694800704717636,0.98033344745636,0.07973703742027283,0.17972511053085328],"mesh":2,"name":"node16_anim_c_gear"},{"translation":[0.7073879837989807,-1.1703455448150638,-0.26060494780540469],"name":"node16.004","children":[6]},{"rotation":[0.08715599030256272,0.0,0.0,0.9961947202682496],"mesh":3,"name":"node17_anim_c_gear"},{"translation":[-0.722923994064331,-1.1703455448150638,-0.26060494780540469],"name":"node17.004","children":[8]},{"rotation":[0.12619903683662418,0.0,0.0,0.9920049905776978],"mesh":4,"name":"node19_anim_c_gear.004"},{"translation":[-0.7232530117034912,0.8922422528266907,0.1707749366760254],"name":"node19.004","children":[10]},{"rotation":[0.019962992519140245,0.9796206951141356,0.1268259584903717,0.15446694195270539],"mesh":5,"name":"node20_anim_c_gear.004"},{"translation":[0.7073879837989807,0.8922422528266907,0.1707749366760254],"name":"node20.004","children":[12]},{"translation":[0.0,-0.000004013869329355657,0.0],"mesh":6,"name":"node18_anim_c_gear.004","children":[11,13]},{"name":"node18.004","children":[14]},{"translation":[0.0,0.11109904199838638,1.404343605041504],"mesh":7,"name":"node15_anim_c_gear.004","children":[7,9,15]},{"name":"node15.004","children":[16]},{"translation":[0.0,32.70159912109375,-2.8867380619049074],"name":"node12.004","children":[5,17]},{"translation":[-0.0000028855897653556896,0.0,0.0],"mesh":8,"name":"node24_anim_r_gear"},{"translation":[0.00010788963845698164,0.17309793829917909,-0.00191695149987936],"name":"node24.004","children":[19]},{"translation":[-0.011113992892205716,-4.145218849182129,0.0003740061074495315],"name":"node23_anim_r_gear","children":[20]},{"name":"node23.004","children":[21]},{"translation":[0.000003337860107421875,0.0,0.0],"rotation":[-0.4564210772514343,-0.5435811281204224,-0.4980960786342621,0.4980960786342621],"mesh":9,"name":"node22_anim_r_gear","children":[22]},{"translation":[0.011005401611328124,-1.1946460008621216,2.1801538467407228],"name":"node22.004","children":[23]},{"translation":[-1.0105443000793458,-1.2173810005187989,1.8862909078598025],"mesh":10,"name":"node25_anim_r_gear"},{"name":"node25.004","children":[25]},{"translation":[-0.00005702674388885498,0.0025978460907936098,-0.00013397634029388428],"mesh":11,"name":"node27_anim_r_gear.004"},{"name":"node27.004","children":[27]},{"translation":[0.000003337860107421875,0.0,0.0],"rotation":[-0.5652297735214233,-0.5131057500839233,-0.5071137547492981,0.40009182691574099],"name":"node26_anim_r_gear.001","children":[28]},{"translation":[0.4512906074523926,-1.541593074798584,2.0310239791870119],"name":"node26.004","children":[29]},{"rotation":[0.0,0.000003000000106112566,0.0,1.0],"mesh":12,"name":"node29_anim_r_gear.003"},{"translation":[-1.1472259759902955,-0.0003609602281358093,-0.5812599062919617],"name":"node29.004","children":[31]},{"translation":[-3.5806024074554445,-1.541802167892456,1.068924903869629],"mesh":13,"name":"node28_anim_r_gear.004","children":[32]},{"name":"node28.004","children":[33]},{"translation":[5.4844560623168949,1.1116089820861817,-2.8867390155792238],"name":"node21.004","children":[24,26,30,34]},{"mesh":14,"name":"node34_anim_l_gear"},{"translation":[0.02211798168718815,0.17282895743846894,-0.001892975531518459],"name":"node34.004","children":[36]},{"translation":[-0.011113950051367285,-4.145218849182129,0.0003740079700946808],"name":"node33_anim_l_gear","children":[37]},{"name":"node33.004","children":[38]},{"translation":[-0.000003337860107421875,0.0,0.0],"rotation":[-0.4564210772514343,0.5435811281204224,0.4980960786342621,0.4980960786342621],"mesh":15,"name":"node32_anim_l_gear","children":[39]},{"name":"node32.004","children":[40]},{"translation":[-0.011005401611328124,-1.1946460008621216,2.1801538467407228],"name":"node31_anim_l_gear","children":[41]},{"name":"node31.004","children":[42]},{"translation":[0.0002490133047103882,0.003813274204730987,-0.00008599460124969482],"mesh":16,"name":"node36_anim_l_gear"},{"name":"node36.004","children":[44]},{"translation":[-0.000003337860107421875,0.0,0.0],"rotation":[-0.5652446746826172,0.5131347179412842,0.50709468126297,0.40005776286125185],"name":"node35_anim_l_gear","children":[45]},{"translation":[-0.4517803192138672,-1.5414371490478516,2.031475067138672],"name":"node35.004","children":[46]},{"translation":[1.0204753875732422,-1.337151050567627,1.8862909078598025],"mesh":17,"name":"node37_anim_l_gear"},{"name":"node37.004","children":[48]},{"rotation":[0.0,0.000003000000106112566,0.0,1.0],"mesh":18,"name":"node39_anim_l_gear"},{"translation":[1.150305986404419,0.0,-0.5812680125236511],"name":"node39.004","children":[50]},{"translation":[3.5806024074554445,-1.5420191287994385,1.068924903869629],"mesh":19,"name":"node38_anim_l_gear","children":[51]},{"name":"node38.004","children":[52]},{"translation":[-5.4844560623168949,1.1116089820861817,-2.8867390155792238],"name":"node30.004","children":[43,47,49,53]},{"translation":[0.0,-0.0000027419807793194197,0.0],"mesh":20,"name":"node41_anim_custom_anim_TRAILING_EDGE_FLAPS_LEFT_PERCENT_03"},{"name":"node41.004","children":[55]},{"translation":[16.872241973876954,-4.800723075866699,0.8860020041465759],"name":"node40_anim_custom_anim_TRAILING_EDGE_FLAPS_LEFT_PERCENT_03","children":[56]},{"name":"node40.004","children":[57]},{"mesh":21,"name":"node45_anim_custom_anim_TRAILING_EDGE_FLAPS_LEFT_PERCENT_03"},{"name":"node45.004","children":[59]},{"translation":[0.0,-0.0032092046458274128,-0.00005404331022873521],"name":"node44_anim_custom_anim_TRAILING_EDGE_FLAPS_LEFT_PERCENT_03","children":[60]},{"name":"node44.004","children":[61]},{"translation":[0.000002384185791015625,0.0,0.0],"mesh":22,"name":"node43_anim_custom_anim_TRAILING_EDGE_FLAPS_LEFT_PERCENT_03","children":[62]},{"name":"node43.004","children":[63]},{"translation":[-5.927655220031738,-2.3496360778808595,-0.6741399765014648],"name":"node42_anim_custom_anim_TRAILING_EDGE_FLAPS_LEFT_PERCENT_03","children":[64]},{"name":"node42.004","children":[65]},{"translation":[-0.000003340986268085544,0.0,0.0],"mesh":23,"name":"node49_anim_custom_anim_TRAILING_EDGE_FLAPS_LEFT_PERCENT_03"},{"name":"node49.004","children":[67]},{"translation":[0.0,-0.0027759980875998737,-0.00005303007492329925],"name":"node48_anim_custom_anim_TRAILING_EDGE_FLAPS_LEFT_PERCENT_03","children":[68]},{"name":"node48.004","children":[69]},{"translation":[-0.000002384185791015625,0.0,0.0],"mesh":24,"name":"node47_anim_custom_anim_TRAILING_EDGE_FLAPS_LEFT_PERCENT_03","children":[70]},{"name":"node47.004","children":[71]},{"translation":[5.927655220031738,-2.349735975265503,-0.6741399765014648],"name":"node46_anim_custom_anim_TRAILING_EDGE_FLAPS_LEFT_PERCENT_03","children":[72]},{"name":"node46.004","children":[73]},{"translation":[0.0,-0.0000027419807793194197,0.0],"mesh":25,"name":"node51_anim_custom_anim_TRAILING_EDGE_FLAPS_LEFT_PERCENT_03"},{"name":"node51.004","children":[75]},{"translation":[-16.969375610351564,-4.800723075866699,0.8860020041465759],"name":"node50_anim_custom_anim_TRAILING_EDGE_FLAPS_LEFT_PERCENT_03","children":[76]},{"name":"node50.004","children":[77]},{"rotation":[0.004868999123573303,0.06958998739719391,0.06958998739719391,0.9951335787773132],"mesh":26,"name":"node53_anim_custom_anim_TRAILING_EDGE_FLAPS_LEFT_PERCENT_03"},{"name":"node53.004","children":[79]},{"translation":[-9.852409362792969,-2.449096918106079,0.008004000410437584],"name":"node52_anim_custom_anim_TRAILING_EDGE_FLAPS_LEFT_PERCENT_03","children":[80]},{"name":"node52.004","children":[81]},{"rotation":[0.004868999123573303,-0.06958998739719391,-0.06958998739719391,0.9951335787773132],"mesh":27,"name":"node55_anim_custom_anim_TRAILING_EDGE_FLAPS_LEFT_PERCENT_03"},{"name":"node55.004","children":[83]},{"translation":[9.852409362792969,-2.449096918106079,0.008004000410437584],"name":"node54_anim_custom_anim_TRAILING_EDGE_FLAPS_LEFT_PERCENT_03","children":[84]},{"name":"node54.004","children":[85]},{"translation":[-0.0000133514404296875,0.0,0.0],"rotation":[-0.05232502892613411,-0.03881101682782173,0.00671000313013792,0.9978532195091248],"mesh":28,"name":"node57_anim_custom_anim_TRAILING_EDGE_FLAPS_LEFT_PERCENT_04"},{"name":"node57.004","children":[87]},{"translation":[-20.161029815673829,-2.184206008911133,1.4669699668884276],"name":"node56_anim_custom_anim_TRAILING_EDGE_FLAPS_LEFT_PERCENT_04","children":[88]},{"name":"node56.004","children":[89]},{"translation":[0.000002384185791015625,0.0,0.0],"mesh":29,"name":"node59_anim_custom_anim_TRAILING_EDGE_FLAPS_LEFT_PERCENT_04"},{"name":"node59.004","children":[91]},{"translation":[-5.986548900604248,7.777058124542236,-0.21496400237083436],"name":"node58_anim_custom_anim_TRAILING_EDGE_FLAPS_LEFT_PERCENT_04","children":[92]},{"name":"node58.004","children":[93]},{"translation":[-0.000002384185791015625,0.0,0.0],"mesh":30,"name":"node61_anim_custom_anim_TRAILING_EDGE_FLAPS_LEFT_PERCENT_04"},{"name":"node61.004","children":[95]},{"translation":[5.986681938171387,7.777544021606445,-0.21496400237083436],"name":"node60_anim_custom_anim_TRAILING_EDGE_FLAPS_LEFT_PERCENT_04","children":[96]},{"name":"node60.004","children":[97]},{"translation":[0.0000133514404296875,0.0,0.0],"rotation":[-0.05232502892613411,0.03881101682782173,-0.00671000313013792,0.9978532195091248],"mesh":31,"name":"node63_anim_custom_anim_TRAILING_EDGE_FLAPS_LEFT_PERCENT_04"},{"name":"node63.004","children":[99]},{"translation":[20.161029815673829,-2.1839780807495119,1.4669699668884276],"name":"node62_anim_custom_anim_TRAILING_EDGE_FLAPS_LEFT_PERCENT_04","children":[100]},{"name":"node62.004","children":[101]},{"mesh":32,"name":"node65_anim_custom_anim_TRAILING_EDGE_FLAPS_LEFT_PERCENT_03"},{"name":"node65.004","children":[103]},{"translation":[8.50580883026123,-0.7313269972801209,-1.018455982208252],"name":"node64_anim_custom_anim_TRAILING_EDGE_FLAPS_LEFT_PERCENT_03","children":[104]},{"name":"node64.004","children":[105]},{"mesh":33,"name":"node67_anim_custom_anim_TRAILING_EDGE_FLAPS_LEFT_PERCENT_03"},{"name":"node67.004","children":[107]},{"translation":[-8.50580883026123,-0.7313269972801209,-1.018455982208252],"name":"node66_anim_custom_anim_TRAILING_EDGE_FLAPS_LEFT_PERCENT_03","children":[108]},{"name":"node66.004","children":[109]},{"mesh":34,"name":"node68_anim_custom_anim_TRAILING_EDGE_FLAPS_LEFT_PERCENT_03.001"},{"translation":[-14.029279708862305,-2.5991640090942385,-0.12905800342559815],"name":"node68.004","children":[111]},{"translation":[0.0,-0.0000032516975352336887,0.0],"mesh":35,"name":"node69_anim_custom_anim_TRAILING_EDGE_FLAPS_LEFT_PERCENT_03.001"},{"translation":[-19.56277084350586,-5.294371128082275,0.6412870287895203],"name":"node69.004","children":[113]},{"translation":[0.000003337860107421875,0.0,0.0],"rotation":[-0.019127005711197854,0.7068461775779724,0.7068822383880615,0.017893005162477495],"mesh":36,"name":"node70_anim_l_spoiler_key"},{"translation":[-6.718008041381836,-1.228376030921936,-0.2277809977531433],"name":"node70.004","children":[115]},{"rotation":[0.0,0.7071087956428528,0.7071048617362976,3.2363558498929548e-29],"mesh":37,"name":"node71_anim_l_spoiler_key"},{"translation":[-16.655460357666017,-4.190496921539307,1.0645240545272828],"name":"node71.004","children":[117]},{"rotation":[0.0,0.7071087956428528,0.7071048617362976,3.2363558498929548e-29],"mesh":38,"name":"node72_anim_r_spoiler_key"},{"translation":[16.655460357666017,-4.190496921539307,1.0645240545272828],"name":"node72.004","children":[119]},{"translation":[-0.000003337860107421875,0.0,0.0],"rotation":[-0.01851000264286995,-0.7068660259246826,-0.7068629264831543,0.01850999891757965],"mesh":39,"name":"node73_anim_r_spoiler_key"},{"translation":[6.718185901641846,-1.228376030921936,-0.2277809977531433],"name":"node73.004","children":[121]},{"translation":[-9.767370223999024,8.952009201049805,-2.0730340480804445],"mesh":40,"name":"node74_anim_custom_anim_SIM_ON_GROUND_02"},{"name":"node74.004","children":[123]},{"translation":[-9.767370223999024,8.952009201049805,-2.072927951812744],"mesh":41,"name":"node75_anim_custom_anim_SIM_ON_GROUND_02"},{"name":"node75.004","children":[125]},{"mesh":42,"name":"node76_anim_custom_anim_TRAILING_EDGE_FLAPS_LEFT_PERCENT_03.001"},{"translation":[14.029279708862305,-2.5991640090942385,-0.12905800342559815],"name":"node76.004","children":[127]},{"translation":[0.0,-0.0000032516975352336887,0.0],"mesh":43,"name":"node77_anim_custom_anim_TRAILING_EDGE_FLAPS_LEFT_PERCENT_03.001"},{"translation":[19.56277084350586,-5.294371128082275,0.6412870287895203],"name":"node77.004","children":[129]},{"rotation":[0.0,0.0,1.0,6.123031769111885e-17],"name":"node11.004","children":[18,35,54,58,66,74,78,82,86,90,94,98,102,106,110,112,114,116,118,120,122,124,126,128,130]},{"rotation":[-0.70710688829422,0.0,0.0,0.7071066498756409],"name":"node10.004","children":[131]},{"mesh":44,"name":"node2.005"},{"mesh":45,"name":"node3.004"},{"translation":[0.33000001311302187,-2.440000057220459,31.219999313354493],"rotation":[0.0,0.7071068286895752,0.7071068286895752,4.329638357520163e-17],"name":"node4.004"},{"translation":[-0.33000001311302187,-2.440000057220459,31.219999313354493],"rotation":[0.0,0.7071068286895752,0.7071068286895752,4.329638357520163e-17],"name":"node5.004"},{"translation":[0.25999999046325686,-2.200000047683716,31.280000686645509],"rotation":[0.0,0.7071068286895752,0.7071068286895752,4.329638357520163e-17],"name":"node6.004"},{"translation":[-0.25999999046325686,-2.200000047683716,31.280000686645509],"rotation":[0.0,0.7071068286895752,0.7071068286895752,4.329638357520163e-17],"name":"node7.004"},{"translation":[3.630000114440918,-0.41999998688697817,10.010000228881836],"rotation":[0.0,0.7071068286895752,0.7071068286895752,4.329638357520163e-17],"name":"node8.004"},{"translation":[-3.630000114440918,-0.41999998688697817,10.010000228881836],"rotation":[0.0,0.7071068286895752,0.7071068286895752,4.329638357520163e-17],"name":"node9.004"},{"name":"node0.004","children":[132,133,134,135,136,137,138,139,140]},{"translation":[9.755330085754397,-2.0874600410461427,4.656260013580322],"name":"fx_exhaust_left"},{"translation":[-9.755330085754397,-2.0874600410461427,4.656260013580322],"name":"fx_exhaust_right"},{"translation":[0.43893998861312868,-4.8325700759887699,30.96190071105957],"name":"fx_tire_contactPoint_center_left"},{"translation":[-0.43893998861312868,-4.8325700759887699,30.96190071105957],"name":"fx_tire_contactPoint_center_right"},{"translation":[4.704140663146973,-5.094289779663086,1.047806978225708],"name":"fx_tire_contactPoint_left_in_front"},{"translation":[4.704140663146973,-5.094289779663086,-0.44397300481796267],"name":"fx_tire_contactPoint_left_in_mid"},{"translation":[4.704140663146973,-5.094289779663086,-1.957450032234192],"name":"fx_tire_contactPoint_left_in_rear"},{"translation":[6.271865367889404,-5.094289779663086,1.047806978225708],"name":"fx_tire_contactPoint_left_out_front"},{"translation":[6.271865367889404,-5.094289779663086,-0.44397300481796267],"name":"fx_tire_contactPoint_left_out_mid"},{"translation":[6.271865367889404,-5.094289779663086,-1.957450032234192],"name":"fx_tire_contactPoint_left_out_rear"},{"translation":[-4.7041401863098148,-5.094289779663086,1.047806978225708],"name":"fx_tire_contactPoint_right_in_front"},{"translation":[-4.7041401863098148,-5.094289779663086,-0.44397300481796267],"name":"fx_tire_contactPoint_right_in_mid"},{"translation":[-4.7041401863098148,-5.094289779663086,-1.957450032234192],"name":"fx_tire_contactPoint_right_in_rear"},{"translation":[-6.271870136260986,-5.094289779663086,1.047806978225708],"name":"fx_tire_contactPoint_right_out_front"},{"translation":[-6.271870136260986,-5.094289779663086,-0.44397300481796267],"name":"fx_tire_contactPoint_right_out_mid"},{"translation":[-6.271870136260986,-5.094289779663086,-1.957450032234192],"name":"fx_tire_contactPoint_right_out_rear"}],"scene":0,"scenes":[{"nodes":[141,142,143,144,145,146,147,148,149,150,151,152,153,154,155,156,157],"name":"Scene"}],"textures":[{"extensions":{"MSFT_texture_dds":{"source":0}}},{"extensions":{"MSFT_texture_dds":{"source":1}}}],"samplers":[{"magFilter":9729,"minFilter":9987,"wrapS":10497,"wrapT":10497}],"extensionsUsed":["ASOBO_normal_map_convention","MSFT_texture_dds","ASOBO_asset_optimized"],"buffers":[{"byteLength":189876,"uri":"TFS_B77W_LOD4.bin"}],"images":[{"uri":"TFS_B77W_M.PNG.DDS","name":"TFS_B77W_M","extras":"ASOBO_image_converted_meta"},{"uri":"TFS_B77W_T.PNG.DDS","name":"TFS_B77W_T","extras":"ASOBO_image_converted_meta"}]}
