{"accessors":[{"bufferView":0,"componentType":5126,"count":352,"min":[-29.61573028564453,-3.7565500736236574,-36.926910400390628],"max":[29.615419387817384,12.148019790649414,31.35137939453125],"type":"VEC3","name":"part000.001_vertices#0_POSITION"},{"bufferView":0,"byteOffset":12,"componentType":5120,"count":352,"type":"VEC4","name":"part000.001_vertices#0_TANGENT"},{"bufferView":0,"byteOffset":16,"componentType":5120,"count":352,"type":"VEC4","name":"part000.001_vertices#0_NORMAL"},{"bufferView":0,"byteOffset":20,"componentType":5122,"count":352,"type":"VEC2","name":"part000.001_vertices#0_TEXCOORD_0"},{"bufferView":0,"byteOffset":24,"componentType":5122,"count":352,"type":"VEC2","name":"part000.001_vertices#0_TEXCOORD_1"},{"bufferView":0,"byteOffset":28,"componentType":5123,"count":352,"type":"VEC4","name":"part000.001_vertices#0_COLOR_0"},{"bufferView":1,"componentType":5123,"count":654,"type":"SCALAR","name":"part000.001_indices#0"}],"asset":{"generator":"Khronos glTF Blender I/O v3.6.28 and Asobo Studio MSFS Blender I/O v1.3.3","version":"2.0","extensions":{"ASOBO_asset_optimized":{"BoundingBoxMax":[29.615419387817384,12.148019790649414,31.35137939453125],"BoundingBoxMin":[-29.61573028564453,-3.7565500736236574,-36.926910400390628],"MajorVersion":4,"MinorVersion":4,"UseCheckerboardMaterialForMissingTextures":true,"UseOnlyFilenameForImageURI":true},"ASOBO_normal_map_convention":{"tangent_space_convention":"DirectX"}}},"bufferViews":[{"buffer":0,"byteLength":12672,"byteStride":36,"target":34962,"name":"BufferViewVertexND"},{"buffer":0,"byteLength":1308,"byteOffset":12672,"target":34963,"name":"BufferViewIndex"}],"extensionsRequired":["MSFT_texture_dds"],"materials":[{"name":"Livery","alphaMode":"MASK","occlusionTexture":{"index":0},"pbrMetallicRoughness":{"baseColorTexture":{"index":1},"metallicRoughnessTexture":{"index":0}}}],"meshes":[{"primitives":[{"attributes":{"COLOR_0":5,"NORMAL":2,"POSITION":0,"TANGENT":1,"TEXCOORD_0":3,"TEXCOORD_1":4},"indices":6,"material":0,"mode":4,"extras":{"ASOBO_primitive":{"PrimitiveCount":218,"VertexType":"VTX","VertexVersion":2}}}],"name":"part000.001"}],"nodes":[{"translation":[0.0,3.700000047683716,20.149999618530275],"rotation":[0.0,0.7071068286895752,0.7071068286895752,4.329638357520163e-17],"name":"beacon.001"},{"translation":[0.0,-2.6500000953674318,4.949999809265137],"rotation":[0.0,0.7071068286895752,0.7071068286895752,4.329638357520163e-17],"name":"beacon_belly_day.001"},{"translation":[0.0,-2.6500000953674318,4.949999809265137],"rotation":[0.0,0.7071068286895752,0.7071068286895752,4.329638357520163e-17],"name":"beacon_belly_night.001"},{"translation":[3.299999952316284,-0.8899999856948853,6.940000057220459],"rotation":[0.0,0.7071068286895752,0.7071068286895752,4.329638357520163e-17],"name":"landing_l.001"},{"translation":[-3.299999952316284,-0.8899999856948853,6.940000057220459],"rotation":[0.0,0.7071068286895752,0.7071068286895752,4.329638357520163e-17],"name":"landing_r.001"},{"mesh":0,"name":"node1"},{"translation":[0.42018890380859377,-1.200536847114563,-0.23010286688804625],"name":"r_nav.001"},{"translation":[3.6616382598876955,3.911751508712769,-1.2105424404144288],"name":"r_nav_whi.001"},{"translation":[0.7303276062011719,-1.000447392463684,-0.26011642813682558],"name":"r_strobe.001"},{"name":"node32_anim_custom_anim_VELOCITY_BODY_Z_08","children":[6,7,8]},{"translation":[5.154172897338867,3.8539628982543947,-0.9646419882774352],"name":"node67.001","children":[9]},{"name":"node31_anim_custom_anim_VELOCITY_BODY_Z_08","children":[10]},{"translation":[6.494521141052246,3.554494619369507,-1.2063761949539185],"name":"node66.001","children":[11]},{"name":"node30_anim_custom_anim_VELOCITY_BODY_Z_08","children":[12]},{"translation":[4.719534873962402,2.5830326080322267,-0.8766595721244812],"name":"node65.001","children":[13]},{"name":"node29_anim_custom_anim_VELOCITY_BODY_Z_08","children":[14]},{"translation":[10.225388526916504,-5.961400985717773,1.626209378242493],"rotation":[1.0,0.0,0.0,9.999999974752428e-7],"name":"node64.001","children":[15]},{"translation":[-0.42018890380859377,1.200536847114563,0.23010286688804625],"name":"l_nav.001"},{"translation":[-3.6616382598876955,-3.911752462387085,1.2105419635772706],"name":"l_nav_whi.001"},{"translation":[-0.7303276062011719,1.000447392463684,0.26011642813682558],"name":"l_strobe.001"},{"name":"node39_anim_custom_anim_VELOCITY_BODY_Z_08","children":[17,18,19]},{"translation":[-5.154172897338867,-3.8539648056030275,0.9646400809288024],"name":"node97.001","children":[20]},{"name":"node38_anim_custom_anim_VELOCITY_BODY_Z_08","children":[21]},{"translation":[-6.494521141052246,-3.554495334625244,1.206375241279602],"name":"node96.001","children":[22]},{"name":"node37_anim_custom_anim_VELOCITY_BODY_Z_08","children":[23]},{"translation":[-4.719534873962402,-2.5830326080322267,0.8766595721244812],"name":"node91.001","children":[24]},{"name":"node36_anim_custom_anim_VELOCITY_BODY_Z_08","children":[25]},{"translation":[-10.225388526916504,-5.961400985717773,1.626209378242493],"name":"node90.001","children":[26]},{"translation":[0.0,4.744678974151611,-1.7085590362548829],"name":"node33.001","children":[16,27]},{"rotation":[0.0,0.7071068286895752,0.7071068286895752,4.329638357520163e-17],"name":"node32.001","children":[28]},{"translation":[0.699999988079071,1.149999976158142,-34.25],"rotation":[-0.6408564448356628,-0.2988360524177551,-0.2988360524177551,0.6408566236495972],"name":"tail_nav_l.001"},{"translation":[-0.699999988079071,1.149999976158142,-34.25],"rotation":[-0.6408564448356628,0.2988360524177551,0.2988360524177551,0.6408566236495972],"name":"tail_nav_r.001"},{"translation":[0.699999988079071,1.149999976158142,-34.25],"rotation":[-0.6408564448356628,-0.2988360524177551,-0.2988360524177551,0.6408566236495972],"name":"tail_strobe_l.001"},{"translation":[-0.699999988079071,1.149999976158142,-34.25],"rotation":[-0.6408564448356628,0.2988360524177551,0.2988360524177551,0.6408566236495972],"name":"tail_strobe_r.001"},{"name":"node0.001","children":[0,1,2,3,4,5,29,30,31,32,33]},{"translation":[10.410839080810549,-2.0082108974456789,0.0863485038280487],"rotation":[0.0,0.7071068286895752,0.7071068286895752,4.329638357520163e-17],"name":"fx_exhaust_left"},{"translation":[-10.41100025177002,-2.00819993019104,0.0863490030169487],"rotation":[0.0,0.7071068286895752,0.7071068286895752,4.329638357520163e-17],"name":"fx_exhaust_right"},{"translation":[-0.3757827281951904,-4.714657783508301,25.798229217529298],"name":"fx_tire_contactPoint_center_right"},{"translation":[0.3757829964160919,-4.714657783508301,25.798200607299806],"name":"fx_tire_contactPoint_center_left"},{"translation":[5.428569316864014,-4.858244895935059,-2.048839569091797],"name":"fx_tire_contactPoint_left_out_in"},{"translation":[4.25266695022583,-4.858244895935059,-2.048839569091797],"name":"fx_tire_contactPoint_left_in_in"},{"translation":[4.25266695022583,-4.858244895935059,-3.4433112144470217],"name":"fx_tire_contactPoint_left_in_out"},{"translation":[5.428569316864014,-4.858244895935059,-3.4433112144470217],"name":"fx_tire_contactPoint_left_out_out"},{"translation":[-4.252669811248779,-4.858244895935059,-2.048839569091797],"name":"fx_tire_contactPoint_right_in_in"},{"translation":[-4.252669811248779,-4.858244895935059,-3.4433112144470217],"name":"fx_tire_contactPoint_right_in_out"},{"translation":[-5.428569793701172,-4.858244895935059,-2.048839569091797],"name":"fx_tire_contactPoint_right_out_in"},{"translation":[-5.428569793701172,-4.858244895935059,-3.4433112144470217],"name":"fx_tire_contactPoint_right_out_out"},{"translation":[0.23999999463558198,-2.3299999237060549,25.969999313354493],"rotation":[-0.07684962451457977,-0.6840513348579407,-0.7208396196365356,0.08098262548446655],"name":"taxi_nose_l"},{"translation":[-0.23999999463558198,-2.3299999237060549,25.969999313354493],"rotation":[-0.07684962451457977,0.6840513348579407,0.7208396196365356,0.08098262548446655],"name":"taxi_nose_r"},{"translation":[0.4300000071525574,-0.7603702545166016,26.396963119506837],"rotation":[0.0,1.0,0.0,6.123031769111885e-17],"name":"landing_nose_l"},{"translation":[-0.4099999964237213,-0.7603702545166016,26.396963119506837],"rotation":[0.0,1.0,0.0,6.123031769111885e-17],"name":"landing_nose_r"}],"scene":0,"scenes":[{"nodes":[34,35,36,37,38,39,40,41,42,43,44,45,46,47,48,49,50],"name":"Scene"}],"textures":[{"extensions":{"MSFT_texture_dds":{"source":0}}},{"extensions":{"MSFT_texture_dds":{"source":1}}}],"samplers":[{"magFilter":9729,"minFilter":9987,"wrapS":10497,"wrapT":10497}],"extensionsUsed":["ASOBO_normal_map_convention","MSFT_texture_dds","ASOBO_asset_optimized"],"buffers":[{"byteLength":13980,"uri":"UTT_B78X_LOD3.bin"}],"images":[{"uri":"UTT_B78X_M.PNG.DDS","name":"UTT_B78X_M","extras":"ASOBO_image_converted_meta"},{"uri":"UTT_B78X_T.PNG.DDS","name":"UTT_B78X_T","extras":"ASOBO_image_converted_meta"}]}
