{"accessors":[{"bufferView":0,"componentType":5126,"count":33,"min":[0.0],"max":[80.0],"type":"SCALAR"},{"bufferView":1,"componentType":5126,"count":33,"type":"VEC4"},{"bufferView":2,"componentType":5126,"count":208,"min":[-30.091999053955079,-4.104000091552734,-32.071998596191409],"max":[30.091999053955079,13.36400032043457,31.88800048828125],"type":"VEC3","name":"part000.001_vertices#0_POSITION"},{"bufferView":2,"byteOffset":12,"componentType":5120,"count":208,"type":"VEC4","name":"part000.001_vertices#0_TANGENT"},{"bufferView":2,"byteOffset":16,"componentType":5120,"count":208,"type":"VEC4","name":"part000.001_vertices#0_NORMAL"},{"bufferView":2,"byteOffset":20,"componentType":5122,"count":208,"type":"VEC2","name":"part000.001_vertices#0_TEXCOORD_0"},{"bufferView":2,"byteOffset":24,"componentType":5122,"count":208,"type":"VEC2","name":"part000.001_vertices#0_TEXCOORD_1"},{"bufferView":2,"byteOffset":28,"componentType":5123,"count":208,"type":"VEC4","name":"part000.001_vertices#0_COLOR_0"},{"bufferView":3,"componentType":5123,"count":336,"type":"SCALAR","name":"part000.001_indices#0"}],"animations":[{"name":"custom_anim_GEAR_ANIMATION_POSITION_0_00","channels":[{"sampler":0,"target":{"node":2,"path":"rotation"}}],"samplers":[{"input":0,"output":1,"interpolation":"LINEAR"}]}],"asset":{"generator":"Khronos glTF Blender I/O v1.8.19 and Asobo Studio MSFS Blender I/O v1.3.3","version":"2.0","extensions":{"ASOBO_asset_optimized":{"BoundingBoxMax":[30.091999053955079,13.36400032043457,31.88800048828125],"BoundingBoxMin":[-30.091999053955079,-4.104000091552734,-32.071998596191409],"MajorVersion":4,"MinorVersion":4,"UseCheckerboardMaterialForMissingTextures":true,"UseOnlyFilenameForImageURI":true},"ASOBO_normal_map_convention":{"tangent_space_convention":"DirectX"}}},"bufferViews":[{"buffer":0,"byteLength":132},{"buffer":0,"byteLength":528,"byteOffset":132},{"buffer":0,"byteLength":7488,"byteStride":36,"byteOffset":660,"target":34962,"name":"BufferViewVertexND"},{"buffer":0,"byteLength":672,"byteOffset":8148,"target":34963,"name":"BufferViewIndex"}],"extensionsRequired":["MSFT_texture_dds"],"materials":[{"name":"Livery","occlusionTexture":{"index":0},"pbrMetallicRoughness":{"baseColorTexture":{"index":1},"metallicRoughnessTexture":{"index":0}}}],"meshes":[{"primitives":[{"attributes":{"COLOR_0":7,"NORMAL":4,"POSITION":2,"TANGENT":3,"TEXCOORD_0":5,"TEXCOORD_1":6},"indices":8,"material":0,"mode":4,"extras":{"ASOBO_primitive":{"PrimitiveCount":112,"VertexType":"VTX","VertexVersion":2}}}],"name":"part000.001"}],"nodes":[{"translation":[0.2623485028743744,-0.4913749694824219,0.27375221252441409],"rotation":[0.0000028908259537274718,0.0,0.0,1.0],"name":"takeoff_L"},{"translation":[-0.2620879113674164,-0.4913749694824219,0.27375221252441409],"rotation":[0.0000028908259537274718,0.0,0.0,1.0],"name":"takeoff_R"},{"rotation":[0.0,-0.1736479550600052,0.984807789325714,0.0],"name":"node11_anim_custom_anim_GEAR_ANIMATION_POSITION_0_00","children":[0,1]},{"translation":[0.00013105868129059672,-1.7111197710037232,1.1877360343933104],"name":"node11","children":[2]},{"translation":[0.0,27.5993595123291,-2.886291980743408],"name":"node10","children":[3]},{"rotation":[0.0,0.0,1.0,6.123234262925839e-17],"name":"node9","children":[4]},{"rotation":[0.7071068286895752,0.0,0.0,-0.7071068286895752],"name":"node8","children":[5]},{"name":"node0","children":[6]},{"mesh":0,"name":"node1.001"},{"translation":[0.25999999046325686,-2.190000057220459,26.25],"rotation":[0.0,0.7071068286895752,0.7071068286895752,4.3297809634577669e-17],"name":"node2.001"},{"translation":[-0.25999999046325686,-2.190000057220459,26.25],"rotation":[0.0,0.7071068286895752,0.7071068286895752,4.3297809634577669e-17],"name":"node3.001"},{"translation":[0.25999999046325686,-2.190000057220459,26.25],"rotation":[0.0,0.7071068286895752,0.7071068286895752,4.3297809634577669e-17],"name":"node4.001"},{"translation":[-0.25999999046325686,-2.190000057220459,26.25],"rotation":[0.0,0.7071068286895752,0.7071068286895752,4.3297809634577669e-17],"name":"node5.001"},{"translation":[3.630000114440918,-0.41999998688697817,10.010000228881836],"rotation":[0.0,0.7071068286895752,0.7071068286895752,4.3297809634577669e-17],"name":"node6.001"},{"translation":[-3.630000114440918,-0.41999998688697817,10.010000228881836],"rotation":[0.0,0.7071068286895752,0.7071068286895752,4.3297809634577669e-17],"name":"node7.001"},{"name":"node0.001","children":[8,9,10,11,12,13,14]},{"translation":[-6.265345573425293,-5.826789855957031,-1.8717834949493409],"name":"fx_tire_contactPoint_right_out"},{"translation":[-4.703694820404053,-5.826789855957031,-1.869848370552063],"name":"fx_tire_contactPoint_right_in"},{"translation":[6.278031826019287,-5.826789855957031,-1.9375221729278565],"name":"fx_tire_contactPoint_left_out"},{"translation":[4.704140663146973,-5.826789855957031,-1.912735939025879],"name":"fx_tire_contactPoint_left_in"},{"translation":[-0.4322144389152527,-4.980909824371338,25.841053009033204],"name":"fx_tire_contactPoint_center_right"},{"translation":[0.4524654150009155,-4.980909824371338,25.91092300415039],"name":"fx_tire_contactPoint_center_left"},{"translation":[9.801159858703612,-2.1272239685058595,4.7406206130981449],"name":"FX_EXHAUST_LEFT"},{"translation":[-9.708500862121582,-2.1272239685058595,4.7406206130981449],"name":"FX_EXHAUST_RIGHT"}],"scene":0,"scenes":[{"nodes":[7,15,16,17,18,19,20,21,22,23],"name":"Scene"}],"textures":[{"extensions":{"MSFT_texture_dds":{"source":0}}},{"extensions":{"MSFT_texture_dds":{"source":1}}}],"samplers":[{"magFilter":9729,"minFilter":9987,"wrapS":10497,"wrapT":10497}],"extensionsUsed":["ASOBO_normal_map_convention","MSFT_texture_dds","ASOBO_asset_optimized"],"buffers":[{"byteLength":8820,"uri":"B772_LOD1.bin"}],"images":[{"uri":"TFS_B772GE_M.PNG.DDS","name":"TFS_B772GE_M","extras":"ASOBO_image_converted_meta"},{"uri":"TFS_B772GE_T.PNG.DDS","name":"TFS_B772GE_T","extras":"ASOBO_image_converted_meta"}]}
