{"accessors":[{"bufferView":0,"componentType":5126,"count":123,"min":[-5.974998474121094,-0.9694814682006836,-5.125263214111328],"max":[6.18014669418335,2.426884174346924,4.9158854484558109],"type":"VEC3","name":"x6_FUSELAGE_vertices#0_POSITION"},{"bufferView":0,"byteOffset":12,"componentType":5120,"count":123,"type":"VEC4","name":"x6_FUSELAGE_vertices#0_TANGENT"},{"bufferView":0,"byteOffset":16,"componentType":5120,"count":123,"type":"VEC4","name":"x6_FUSELAGE_vertices#0_NORMAL"},{"bufferView":0,"byteOffset":20,"componentType":5122,"count":123,"type":"VEC2","name":"x6_FUSELAGE_vertices#0_TEXCOORD_0"},{"bufferView":0,"byteOffset":24,"componentType":5122,"count":123,"type":"VEC2","name":"x6_FUSELAGE_vertices#0_TEXCOORD_1"},{"bufferView":0,"byteOffset":28,"componentType":5123,"count":123,"type":"VEC4","name":"x6_FUSELAGE_vertices#0_COLOR_0"},{"bufferView":1,"componentType":5123,"count":189,"type":"SCALAR","name":"x6_FUSELAGE_indices#0"}],"asset":{"generator":"babylon.js glTF exporter for 3dsmax 2019 v1.0.7830.27499","version":"2.0","extensions":{"ASOBO_asset_optimized":{"BoundingBoxMax":[6.18014669418335,2.426884174346924,4.9158854484558109],"BoundingBoxMin":[-5.974998474121094,-0.9694814682006836,-5.125263214111328],"MajorVersion":4,"MinorVersion":4,"UseCheckerboardMaterialForMissingTextures":true},"ASOBO_normal_map_convention":{"tangent_space_convention":"DirectX"}}},"bufferViews":[{"buffer":0,"byteLength":4428,"byteStride":36,"target":34962,"name":"BufferViewVertexND"},{"buffer":0,"byteLength":378,"byteOffset":4428,"target":34963,"name":"BufferViewIndex"}],"extensionsRequired":["MSFT_texture_dds"],"materials":[{"name":"LOD6","occlusionTexture":{"index":1},"pbrMetallicRoughness":{"metallicFactor":0.0,"baseColorTexture":{"index":0},"metallicRoughnessTexture":{"index":1}}}],"meshes":[{"primitives":[{"attributes":{"COLOR_0":5,"NORMAL":2,"POSITION":0,"TANGENT":1,"TEXCOORD_0":3,"TEXCOORD_1":4},"indices":6,"material":0,"mode":4,"extras":{"ASOBO_primitive":{"PrimitiveCount":63,"VertexType":"VTX","VertexVersion":2}}}],"name":"x6_FUSELAGE"}],"nodes":[{"translation":[-0.101097465,0.605145335,-1.39953566],"mesh":0,"extensions":{"ASOBO_unique_id":{"id":"x6_FUSELAGE"}},"name":"FUSELAGE"}],"scene":0,"scenes":[{"nodes":[0]}],"textures":[{"extensions":{"MSFT_texture_dds":{"source":0}}},{"extensions":{"MSFT_texture_dds":{"source":1}}}],"extensionsUsed":["ASOBO_normal_map_convention","ASOBO_unique_id","MSFT_texture_dds","ASOBO_asset_optimized"],"buffers":[{"byteLength":4806,"uri":"TBM930_LOD06.bin"}],"images":[{"uri":"TBM_930_AIRFRAME_FUSELAGE_LOD6_ALBD.PNG.DDS","extras":"ASOBO_image_converted_meta"},{"uri":"TBM_930_AIRFRAME_FUSELAGE_LOD6_COMP.PNG.DDS","extras":"ASOBO_image_converted_meta"}]}
