{"accessors":[{"bufferView":0,"componentType":5126,"count":3,"min":[-0.21926937997341157,-0.4503333866596222,-5.5928449630737309],"max":[0.2407306283712387,0.5037835836410523,4.403912544250488],"type":"VEC3","name":"x6_Plane_Cockpit_vertices#0_POSITION"},{"bufferView":0,"byteOffset":12,"componentType":5120,"count":3,"type":"VEC4","name":"x6_Plane_Cockpit_vertices#0_TANGENT"},{"bufferView":0,"byteOffset":16,"componentType":5120,"count":3,"type":"VEC4","name":"x6_Plane_Cockpit_vertices#0_NORMAL"},{"bufferView":0,"byteOffset":20,"componentType":5122,"count":3,"type":"VEC2","name":"x6_Plane_Cockpit_vertices#0_TEXCOORD_0"},{"bufferView":0,"byteOffset":24,"componentType":5122,"count":3,"type":"VEC2","name":"x6_Plane_Cockpit_vertices#0_TEXCOORD_1"},{"bufferView":0,"byteOffset":28,"componentType":5123,"count":3,"type":"VEC4","name":"x6_Plane_Cockpit_vertices#0_COLOR_0"},{"bufferView":1,"componentType":5123,"count":3,"type":"SCALAR","name":"x6_Plane_Cockpit_indices#0"}],"asset":{"generator":"babylon.js glTF exporter for 3dsmax 2022 v1.0.8124.17907","version":"2.0","extensions":{"ASOBO_asset_optimized":{"BoundingBoxMax":[0.2407306283712387,0.5037835836410523,4.403912544250488],"BoundingBoxMin":[-0.21926937997341157,-0.4503333866596222,-5.5928449630737309],"MajorVersion":4,"MinorVersion":4,"UseCheckerboardMaterialForMissingTextures":true,"UseOnlyFilenameForImageURI":true},"ASOBO_normal_map_convention":{"tangent_space_convention":"DirectX"}}},"bufferViews":[{"buffer":0,"byteLength":108,"byteStride":36,"target":34962,"name":"BufferViewVertexND"},{"buffer":0,"byteLength":6,"byteOffset":108,"target":34963,"name":"BufferViewIndex"}],"materials":[{"name":"Invisble","pbrMetallicRoughness":{"baseColorFactor":[1.0,1.0,1.0,0.7]},"extensions":{"ASOBO_material_invisible":{}}}],"meshes":[{"primitives":[{"attributes":{"COLOR_0":5,"NORMAL":2,"POSITION":0,"TANGENT":1,"TEXCOORD_0":3,"TEXCOORD_1":4},"indices":6,"material":0,"mode":4,"extras":{"ASOBO_primitive":{"PrimitiveCount":1,"VertexType":"VTX","VertexVersion":2}}}],"name":"x6_Plane_Cockpit"}],"nodes":[{"translation":[-0.0107306242,0.4820206,-0.903897047],"mesh":0,"name":"Plane_Cockpit"}],"scene":0,"scenes":[{"nodes":[0]}],"extensionsUsed":["ASOBO_normal_map_convention","ASOBO_material_invisible","ASOBO_asset_optimized"],"buffers":[{"byteLength":114,"uri":"TBM930_interior_LOD06.bin"}]}
