{"accessors":[{"bufferView":0,"componentType":5126,"count":3,"min":[-0.03365907073020935,-0.0013652443885803223,-0.01660551130771637],"max":[0.033656515181064609,0.0013652443885803223,0.016588479280471803],"type":"VEC3","name":"x4_LIGHTING_Cabin_Emissive_vertices#0_POSITION"},{"bufferView":0,"byteOffset":12,"componentType":5120,"count":3,"type":"VEC4","name":"x4_LIGHTING_Cabin_Emissive_vertices#0_TANGENT"},{"bufferView":0,"byteOffset":16,"componentType":5120,"count":3,"type":"VEC4","name":"x4_LIGHTING_Cabin_Emissive_vertices#0_NORMAL"},{"bufferView":0,"byteOffset":20,"componentType":5122,"count":3,"type":"VEC2","name":"x4_LIGHTING_Cabin_Emissive_vertices#0_TEXCOORD_0"},{"bufferView":0,"byteOffset":24,"componentType":5122,"count":3,"type":"VEC2","name":"x4_LIGHTING_Cabin_Emissive_vertices#0_TEXCOORD_1"},{"bufferView":0,"byteOffset":28,"componentType":5123,"count":3,"type":"VEC4","name":"x4_LIGHTING_Cabin_Emissive_vertices#0_COLOR_0"},{"bufferView":1,"componentType":5123,"count":3,"type":"SCALAR","name":"x4_LIGHTING_Cabin_Emissive_indices#0"},{"bufferView":0,"byteOffset":108,"componentType":5126,"count":506,"min":[-0.5302239060401917,-0.23347154259681703,-0.28663143515586855],"max":[0.5240451693534851,0.7540304064750671,1.0187386274337769],"type":"VEC3","name":"x4_Cockpit_vertices#0_POSITION"},{"bufferView":0,"byteOffset":120,"componentType":5120,"count":506,"type":"VEC4","name":"x4_Cockpit_vertices#0_TANGENT"},{"bufferView":0,"byteOffset":124,"componentType":5120,"count":506,"type":"VEC4","name":"x4_Cockpit_vertices#0_NORMAL"},{"bufferView":0,"byteOffset":128,"componentType":5122,"count":506,"type":"VEC2","name":"x4_Cockpit_vertices#0_TEXCOORD_0"},{"bufferView":0,"byteOffset":132,"componentType":5122,"count":506,"type":"VEC2","name":"x4_Cockpit_vertices#0_TEXCOORD_1"},{"bufferView":0,"byteOffset":136,"componentType":5123,"count":506,"type":"VEC4","name":"x4_Cockpit_vertices#0_COLOR_0"},{"bufferView":1,"byteOffset":6,"componentType":5123,"count":1032,"type":"SCALAR","name":"x4_Cockpit_indices#0"},{"bufferView":0,"byteOffset":18324,"componentType":5126,"count":2010,"min":[-0.5140880942344666,-0.3237082362174988,-1.3115129470825196],"max":[0.5122729539871216,0.7942311763763428,1.0782114267349244],"type":"VEC3","name":"x4_Shell_NORMAL_vertices#0_POSITION"},{"bufferView":0,"byteOffset":18336,"componentType":5120,"count":2010,"type":"VEC4","name":"x4_Shell_NORMAL_vertices#0_TANGENT"},{"bufferView":0,"byteOffset":18340,"componentType":5120,"count":2010,"type":"VEC4","name":"x4_Shell_NORMAL_vertices#0_NORMAL"},{"bufferView":0,"byteOffset":18344,"componentType":5122,"count":2010,"type":"VEC2","name":"x4_Shell_NORMAL_vertices#0_TEXCOORD_0"},{"bufferView":0,"byteOffset":18348,"componentType":5122,"count":2010,"type":"VEC2","name":"x4_Shell_NORMAL_vertices#0_TEXCOORD_1"},{"bufferView":0,"byteOffset":18352,"componentType":5123,"count":2010,"type":"VEC4","name":"x4_Shell_NORMAL_vertices#0_COLOR_0"},{"bufferView":1,"byteOffset":2070,"componentType":5123,"count":3198,"type":"SCALAR","name":"x4_Shell_NORMAL_indices#0"},{"bufferView":0,"byteOffset":90684,"componentType":5126,"count":20,"min":[-0.03851550817489624,0.00007251277565956116,-0.03632179647684097],"max":[0.03877905011177063,0.00008291983976960182,0.036425091326236728],"type":"VEC3","name":"x4_INSTRUMENT_Accelerometer_Frame_1_vertices#0_POSITION"},{"bufferView":0,"byteOffset":90696,"componentType":5120,"count":20,"type":"VEC4","name":"x4_INSTRUMENT_Accelerometer_Frame_1_vertices#0_TANGENT"},{"bufferView":0,"byteOffset":90700,"componentType":5120,"count":20,"type":"VEC4","name":"x4_INSTRUMENT_Accelerometer_Frame_1_vertices#0_NORMAL"},{"bufferView":0,"byteOffset":90704,"componentType":5122,"count":20,"type":"VEC2","name":"x4_INSTRUMENT_Accelerometer_Frame_1_vertices#0_TEXCOORD_0"},{"bufferView":0,"byteOffset":90708,"componentType":5122,"count":20,"type":"VEC2","name":"x4_INSTRUMENT_Accelerometer_Frame_1_vertices#0_TEXCOORD_1"},{"bufferView":0,"byteOffset":90712,"componentType":5123,"count":20,"type":"VEC4","name":"x4_INSTRUMENT_Accelerometer_Frame_1_vertices#0_COLOR_0"},{"bufferView":1,"byteOffset":8466,"componentType":5123,"count":60,"type":"SCALAR","name":"x4_INSTRUMENT_Accelerometer_Frame_1_indices#0"}],"asset":{"generator":"babylon.js glTF exporter for 3dsmax 2019 v1.0.7954.30439","version":"2.0","extensions":{"ASOBO_asset_optimized":{"BoundingBoxMax":[0.5240451693534851,0.7942311763763428,1.0782114267349244],"BoundingBoxMin":[-0.5302239060401917,-0.3237082362174988,-1.3115129470825196],"MajorVersion":4,"MinorVersion":4,"UseCheckerboardMaterialForMissingTextures":true},"ASOBO_normal_map_convention":{"tangent_space_convention":"DirectX"}}},"bufferViews":[{"buffer":0,"byteLength":91404,"byteStride":36,"target":34962,"name":"BufferViewVertexND"},{"buffer":0,"byteLength":8586,"byteOffset":91404,"target":34963,"name":"BufferViewIndex"}],"extensionsRequired":["MSFT_texture_dds"],"materials":[{"name":"LIGHTS","pbrMetallicRoughness":{"metallicFactor":0.0,"roughnessFactor":0.2}},{"name":"Generic_LOD5","occlusionTexture":{"index":1},"pbrMetallicRoughness":{"baseColorTexture":{"index":0},"metallicRoughnessTexture":{"index":1}}},{"name":"Frame","occlusionTexture":{"index":3},"pbrMetallicRoughness":{"baseColorTexture":{"index":2},"metallicRoughnessTexture":{"index":3}}}],"meshes":[{"primitives":[{"attributes":{"COLOR_0":5,"NORMAL":2,"POSITION":0,"TANGENT":1,"TEXCOORD_0":3,"TEXCOORD_1":4},"indices":6,"material":0,"mode":4,"extras":{"ASOBO_primitive":{"PrimitiveCount":1,"VertexType":"VTX","VertexVersion":2}}}],"name":"x4_LIGHTING_Cabin_Emissive"},{"primitives":[{"attributes":{"COLOR_0":12,"NORMAL":9,"POSITION":7,"TANGENT":8,"TEXCOORD_0":10,"TEXCOORD_1":11},"indices":13,"material":1,"mode":4,"extras":{"ASOBO_primitive":{"PrimitiveCount":344,"VertexType":"VTX","VertexVersion":2}}}],"name":"x4_Cockpit"},{"primitives":[{"attributes":{"COLOR_0":19,"NORMAL":16,"POSITION":14,"TANGENT":15,"TEXCOORD_0":17,"TEXCOORD_1":18},"indices":20,"material":1,"mode":4,"extras":{"ASOBO_primitive":{"PrimitiveCount":1066,"VertexType":"VTX","VertexVersion":2}}}],"name":"x4_Shell_NORMAL"},{"primitives":[{"attributes":{"COLOR_0":26,"NORMAL":23,"POSITION":21,"TANGENT":22,"TEXCOORD_0":24,"TEXCOORD_1":25},"indices":27,"material":2,"mode":4,"extras":{"ASOBO_primitive":{"PrimitiveCount":20,"VertexType":"VTX","VertexVersion":2}}}],"name":"x4_INSTRUMENT_Accelerometer_Frame_1"}],"nodes":[{"translation":[0.381213933,0.2287367,0.654662967],"rotation":[0.01954425,-8.74060646e-8,1.70861247e-9,0.999808967],"scale":[1.055,1.055,1.055],"name":"CONTAINER_TurnCoordinator_1_1"},{"translation":[0.295812368,0.226205066,0.645590246],"rotation":[0.0221434943,0.0,0.0,0.999754846],"scale":[1.055,1.055,1.055],"name":"CONTAINER_HeadingIndicator_OneKnob_1_1"},{"translation":[0.295613438,0.296470463,0.654082537],"rotation":[0.0218346287,0.0,0.0,0.999761641],"scale":[1.069,1.069,1.069],"name":"CONTAINER_AttitudeIndicator_KnobRotate_1_1"},{"translation":[0.1454555,0.228817,0.6557233],"rotation":[0.0181547422,0.0,0.0,0.9998352],"name":"CONTAINER_VerticalSpeed_DR400_1_1"},{"translation":[-0.322086781,0.332966447,0.6587193],"rotation":[0.0218148772,0.0,0.0,0.999762058],"scale":[1.06,1.06,1.06],"name":"CONTAINER_ADF_OneKnob_1_1"},{"translation":[0.14989756,0.3306039,0.6564319],"rotation":[0.0218148753,-8.740198e-8,1.90711713e-9,0.999762058],"scale":[0.9117848,0.9117849,0.9117849],"name":"CONTAINER_Altimeter_MB_InHg_1_1"},{"translation":[0.000134659931,0.716146052,-0.121107087],"mesh":0,"name":"LIGHTING_Cabin_Emissive"},{"translation":[-3.7998606400000006e-25,0.0,0.0],"mesh":1,"name":"Cockpit"},{"mesh":2,"name":"Shell_NORMAL"},{"translation":[0.06333679,0.330961943,0.663157463],"rotation":[0.0207713526,0.0,0.0,0.9997843],"scale":[1.067725,1.067725,1.067725],"name":"CONTAINER_CDI_1_1"},{"translation":[0.059,0.228257865,0.659],"rotation":[0.0213410147,0.0,0.0,0.999772251],"scale":[1.087075,1.08707511,1.08707511],"name":"CONTAINER_CDI_2_2"},{"translation":[0.05950638,0.228257865,0.646137834],"rotation":[0.0213410165,0.0,0.0,0.999772251],"scale":[0.971616864,0.971616864,0.971616864],"name":"CONTAINER_Accelerometer_CAP10_1_1","children":[12]},{"translation":[0.0001648143,0.000887841,0.0005954504],"rotation":[-5.33850866e-8,-0.7071068,0.7071068,-5.33850759e-8],"scale":[0.99999994,1.0,1.0],"mesh":3,"name":"INSTRUMENT_Accelerometer_Frame_1"},{"translation":[0.221431717,0.231211752,0.4994428],"rotation":[0.0217890535,7.81094356e-11,-2.98574054e-10,0.9997626],"name":"HANDLING_Yoke_1"},{"translation":[-0.224832684,0.2312117,0.4994581],"rotation":[0.0217890535,6.460874e-12,-2.96448865e-10,0.9997626],"name":"HANDLING_Yoke_2"},{"translation":[0.231646121,-0.133827746,0.09663421],"name":"PILOT_0"},{"translation":[-0.213849753,-0.133827746,0.09663421],"name":"PILOT_1"}],"scene":0,"scenes":[{"nodes":[0,1,2,3,4,5,6,7,8,9,10,11,13,14,15,16]}],"textures":[{"extensions":{"MSFT_texture_dds":{"source":0}}},{"extensions":{"MSFT_texture_dds":{"source":1}}},{"extensions":{"MSFT_texture_dds":{"source":2}}},{"extensions":{"MSFT_texture_dds":{"source":3}}}],"extensionsUsed":["ASOBO_normal_map_convention","MSFT_texture_dds","ASOBO_asset_optimized"],"buffers":[{"byteLength":99990,"uri":"C152_cockpit_LOD04.bin"}],"images":[{"uri":"ATLAS_ALBD.PNG.DDS","extras":"ASOBO_image_converted_meta"},{"uri":"ATLAS_COMP.PNG.DDS","extras":"ASOBO_image_converted_meta"},{"uri":"ACCELEROMETER_CAP10_FRAME_ALBD.PNG.DDS","extras":"ASOBO_image_converted_meta"},{"uri":"ACCELEROMETER_CAP10_FRAME_COMP.PNG.DDS","extras":"ASOBO_image_converted_meta"}]}
