{"accessors":[{"bufferView":0,"componentType":5126,"count":33,"min":[0.0],"max":[80.0],"type":"SCALAR"},{"bufferView":1,"componentType":5126,"count":33,"type":"VEC4"},{"bufferView":2,"componentType":5126,"count":33,"type":"VEC4"},{"bufferView":3,"componentType":5126,"count":49,"min":[0.0],"max":[120.0],"type":"SCALAR"},{"bufferView":4,"componentType":5126,"count":49,"type":"VEC3"},{"bufferView":5,"componentType":5126,"count":33,"type":"VEC4"},{"bufferView":6,"componentType":5126,"count":33,"type":"VEC4"},{"bufferView":7,"componentType":5126,"count":41,"min":[0.0],"max":[100.0],"type":"SCALAR"},{"bufferView":8,"componentType":5126,"count":41,"type":"VEC3"},{"bufferView":9,"componentType":5126,"count":41,"type":"VEC4"},{"bufferView":10,"componentType":5126,"count":41,"type":"VEC4"},{"bufferView":11,"componentType":5126,"count":41,"type":"VEC3"},{"bufferView":12,"componentType":5126,"count":41,"type":"VEC4"},{"bufferView":13,"componentType":5126,"count":41,"type":"VEC4"},{"bufferView":14,"componentType":5126,"count":270,"min":[-30.136009216308595,-4.236000061035156,-31.69601058959961],"max":[30.136009216308595,11.284000396728516,31.847999572753908],"type":"VEC3","name":"part000.005_vertices#0_POSITION"},{"bufferView":14,"byteOffset":12,"componentType":5120,"count":270,"type":"VEC4","name":"part000.005_vertices#0_TANGENT"},{"bufferView":14,"byteOffset":16,"componentType":5120,"count":270,"type":"VEC4","name":"part000.005_vertices#0_NORMAL"},{"bufferView":14,"byteOffset":20,"componentType":5122,"count":270,"type":"VEC2","name":"part000.005_vertices#0_TEXCOORD_0"},{"bufferView":14,"byteOffset":24,"componentType":5122,"count":270,"type":"VEC2","name":"part000.005_vertices#0_TEXCOORD_1"},{"bufferView":14,"byteOffset":28,"componentType":5123,"count":270,"type":"VEC4","name":"part000.005_vertices#0_COLOR_0"},{"bufferView":15,"componentType":5123,"count":582,"type":"SCALAR","name":"part000.005_indices#0"},{"bufferView":14,"byteOffset":9720,"componentType":5126,"count":10,"min":[-0.052390001714229587,-0.2751399874687195,-0.6501700282096863],"max":[2.9540998935699465,0.11021000146865845,0.17031000554561616],"type":"VEC3","name":"part001.006_vertices#0_POSITION"},{"bufferView":14,"byteOffset":9732,"componentType":5120,"count":10,"type":"VEC4","name":"part001.006_vertices#0_TANGENT"},{"bufferView":14,"byteOffset":9736,"componentType":5120,"count":10,"type":"VEC4","name":"part001.006_vertices#0_NORMAL"},{"bufferView":14,"byteOffset":9740,"componentType":5122,"count":10,"type":"VEC2","name":"part001.006_vertices#0_TEXCOORD_0"},{"bufferView":14,"byteOffset":9744,"componentType":5122,"count":10,"type":"VEC2","name":"part001.006_vertices#0_TEXCOORD_1"},{"bufferView":14,"byteOffset":9748,"componentType":5123,"count":10,"type":"VEC4","name":"part001.006_vertices#0_COLOR_0"},{"bufferView":15,"byteOffset":1164,"componentType":5123,"count":18,"type":"SCALAR","name":"part001.006_indices#0"},{"bufferView":14,"byteOffset":10080,"componentType":5126,"count":10,"min":[-0.05347999930381775,-0.11900000274181366,-0.6504799723625183],"max":[2.951129913330078,0.2708500027656555,0.17024999856948853],"type":"VEC3","name":"part002.006_vertices#0_POSITION"},{"bufferView":14,"byteOffset":10092,"componentType":5120,"count":10,"type":"VEC4","name":"part002.006_vertices#0_TANGENT"},{"bufferView":14,"byteOffset":10096,"componentType":5120,"count":10,"type":"VEC4","name":"part002.006_vertices#0_NORMAL"},{"bufferView":14,"byteOffset":10100,"componentType":5122,"count":10,"type":"VEC2","name":"part002.006_vertices#0_TEXCOORD_0"},{"bufferView":14,"byteOffset":10104,"componentType":5122,"count":10,"type":"VEC2","name":"part002.006_vertices#0_TEXCOORD_1"},{"bufferView":14,"byteOffset":10108,"componentType":5123,"count":10,"type":"VEC4","name":"part002.006_vertices#0_COLOR_0"},{"bufferView":15,"byteOffset":1200,"componentType":5123,"count":18,"type":"SCALAR","name":"part002.006_indices#0"},{"bufferView":14,"byteOffset":10440,"componentType":5126,"count":26,"min":[-3.3521199226379396,-1.7794500589370728,-0.18702000379562379],"max":[3.400059938430786,0.20127999782562257,0.0941300019621849],"type":"VEC3","name":"part003.006_vertices#0_POSITION"},{"bufferView":14,"byteOffset":10452,"componentType":5120,"count":26,"type":"VEC4","name":"part003.006_vertices#0_TANGENT"},{"bufferView":14,"byteOffset":10456,"componentType":5120,"count":26,"type":"VEC4","name":"part003.006_vertices#0_NORMAL"},{"bufferView":14,"byteOffset":10460,"componentType":5122,"count":26,"type":"VEC2","name":"part003.006_vertices#0_TEXCOORD_0"},{"bufferView":14,"byteOffset":10464,"componentType":5122,"count":26,"type":"VEC2","name":"part003.006_vertices#0_TEXCOORD_1"},{"bufferView":14,"byteOffset":10468,"componentType":5123,"count":26,"type":"VEC4","name":"part003.006_vertices#0_COLOR_0"},{"bufferView":15,"byteOffset":1236,"componentType":5123,"count":57,"type":"SCALAR","name":"part003.006_indices#0"},{"bufferView":14,"byteOffset":11376,"componentType":5126,"count":25,"min":[-0.4251999855041504,-0.9246900081634522,-0.3284899890422821],"max":[10.354820251464844,0.8937600255012512,-0.012509999796748162],"type":"VEC3","name":"part004.037_vertices#0_POSITION"},{"bufferView":14,"byteOffset":11388,"componentType":5120,"count":25,"type":"VEC4","name":"part004.037_vertices#0_TANGENT"},{"bufferView":14,"byteOffset":11392,"componentType":5120,"count":25,"type":"VEC4","name":"part004.037_vertices#0_NORMAL"},{"bufferView":14,"byteOffset":11396,"componentType":5122,"count":25,"type":"VEC2","name":"part004.037_vertices#0_TEXCOORD_0"},{"bufferView":14,"byteOffset":11400,"componentType":5122,"count":25,"type":"VEC2","name":"part004.037_vertices#0_TEXCOORD_1"},{"bufferView":14,"byteOffset":11404,"componentType":5123,"count":25,"type":"VEC4","name":"part004.037_vertices#0_COLOR_0"},{"bufferView":15,"byteOffset":1350,"componentType":5123,"count":39,"type":"SCALAR","name":"part004.037_indices#0"},{"bufferView":14,"byteOffset":12276,"componentType":5126,"count":12,"min":[-0.0025599999353289606,-0.1640699952840805,-0.07863999903202057],"max":[1.5640599727630616,0.1640699952840805,0.21536999940872193],"type":"VEC3","name":"part005.006_vertices#0_POSITION"},{"bufferView":14,"byteOffset":12288,"componentType":5120,"count":12,"type":"VEC4","name":"part005.006_vertices#0_TANGENT"},{"bufferView":14,"byteOffset":12292,"componentType":5120,"count":12,"type":"VEC4","name":"part005.006_vertices#0_NORMAL"},{"bufferView":14,"byteOffset":12296,"componentType":5122,"count":12,"type":"VEC2","name":"part005.006_vertices#0_TEXCOORD_0"},{"bufferView":14,"byteOffset":12300,"componentType":5122,"count":12,"type":"VEC2","name":"part005.006_vertices#0_TEXCOORD_1"},{"bufferView":14,"byteOffset":12304,"componentType":5123,"count":12,"type":"VEC4","name":"part005.006_vertices#0_COLOR_0"},{"bufferView":15,"byteOffset":1428,"componentType":5123,"count":18,"type":"SCALAR","name":"part005.006_indices#0"},{"bufferView":14,"byteOffset":12708,"componentType":5126,"count":20,"min":[-0.5953699946403503,-0.5802599787712097,-0.5213500261306763],"max":[0.661050021648407,0.5802599787712097,0.7825700044631958],"type":"VEC3","name":"part006.006_vertices#0_POSITION"},{"bufferView":14,"byteOffset":12720,"componentType":5120,"count":20,"type":"VEC4","name":"part006.006_vertices#0_TANGENT"},{"bufferView":14,"byteOffset":12724,"componentType":5120,"count":20,"type":"VEC4","name":"part006.006_vertices#0_NORMAL"},{"bufferView":14,"byteOffset":12728,"componentType":5122,"count":20,"type":"VEC2","name":"part006.006_vertices#0_TEXCOORD_0"},{"bufferView":14,"byteOffset":12732,"componentType":5122,"count":20,"type":"VEC2","name":"part006.006_vertices#0_TEXCOORD_1"},{"bufferView":14,"byteOffset":12736,"componentType":5123,"count":20,"type":"VEC4","name":"part006.006_vertices#0_COLOR_0"},{"bufferView":15,"byteOffset":1464,"componentType":5123,"count":36,"type":"SCALAR","name":"part006.006_indices#0"},{"bufferView":14,"byteOffset":13428,"componentType":5126,"count":26,"min":[-3.4004900455474855,-1.7783199548721314,-0.19808000326156617],"max":[3.353519916534424,0.20181000232696534,0.08109000325202942],"type":"VEC3","name":"part007.006_vertices#0_POSITION"},{"bufferView":14,"byteOffset":13440,"componentType":5120,"count":26,"type":"VEC4","name":"part007.006_vertices#0_TANGENT"},{"bufferView":14,"byteOffset":13444,"componentType":5120,"count":26,"type":"VEC4","name":"part007.006_vertices#0_NORMAL"},{"bufferView":14,"byteOffset":13448,"componentType":5122,"count":26,"type":"VEC2","name":"part007.006_vertices#0_TEXCOORD_0"},{"bufferView":14,"byteOffset":13452,"componentType":5122,"count":26,"type":"VEC2","name":"part007.006_vertices#0_TEXCOORD_1"},{"bufferView":14,"byteOffset":13456,"componentType":5123,"count":26,"type":"VEC4","name":"part007.006_vertices#0_COLOR_0"},{"bufferView":15,"byteOffset":1536,"componentType":5123,"count":57,"type":"SCALAR","name":"part007.006_indices#0"},{"bufferView":14,"byteOffset":14364,"componentType":5126,"count":25,"min":[-10.354630470275879,-0.9243699908256531,-0.29394999146461489],"max":[0.42601001262664797,0.8933899998664856,-0.013629999943077565],"type":"VEC3","name":"part008.006_vertices#0_POSITION"},{"bufferView":14,"byteOffset":14376,"componentType":5120,"count":25,"type":"VEC4","name":"part008.006_vertices#0_TANGENT"},{"bufferView":14,"byteOffset":14380,"componentType":5120,"count":25,"type":"VEC4","name":"part008.006_vertices#0_NORMAL"},{"bufferView":14,"byteOffset":14384,"componentType":5122,"count":25,"type":"VEC2","name":"part008.006_vertices#0_TEXCOORD_0"},{"bufferView":14,"byteOffset":14388,"componentType":5122,"count":25,"type":"VEC2","name":"part008.006_vertices#0_TEXCOORD_1"},{"bufferView":14,"byteOffset":14392,"componentType":5123,"count":25,"type":"VEC4","name":"part008.006_vertices#0_COLOR_0"},{"bufferView":15,"byteOffset":1650,"componentType":5123,"count":39,"type":"SCALAR","name":"part008.006_indices#0"}],"animations":[{"name":"c_gear","channels":[{"sampler":0,"target":{"node":2,"path":"rotation"}},{"sampler":1,"target":{"node":23,"path":"rotation"}},{"sampler":2,"target":{"node":21,"path":"translation"}}],"samplers":[{"input":0,"output":1,"interpolation":"LINEAR"},{"input":0,"output":2,"interpolation":"LINEAR"},{"input":3,"output":4,"interpolation":"LINEAR"}]},{"name":"l_gear","channels":[{"sampler":0,"target":{"node":9,"path":"rotation"}}],"samplers":[{"input":0,"output":5,"interpolation":"LINEAR"}]},{"name":"r_gear","channels":[{"sampler":0,"target":{"node":11,"path":"rotation"}}],"samplers":[{"input":0,"output":6,"interpolation":"LINEAR"}]},{"name":"custom_anim_00","channels":[{"sampler":0,"target":{"node":18,"path":"translation"}},{"sampler":1,"target":{"node":16,"path":"rotation"}},{"sampler":2,"target":{"node":14,"path":"rotation"}},{"sampler":3,"target":{"node":30,"path":"translation"}},{"sampler":4,"target":{"node":28,"path":"rotation"}},{"sampler":5,"target":{"node":26,"path":"rotation"}}],"samplers":[{"input":7,"output":8,"interpolation":"LINEAR"},{"input":7,"output":9,"interpolation":"LINEAR"},{"input":7,"output":10,"interpolation":"LINEAR"},{"input":7,"output":11,"interpolation":"LINEAR"},{"input":7,"output":12,"interpolation":"LINEAR"},{"input":7,"output":13,"interpolation":"LINEAR"}]}],"asset":{"generator":"Khronos glTF Blender I/O v1.8.19 and Asobo Studio MSFS Blender I/O v1.3.3","version":"2.0","extensions":{"ASOBO_asset_optimized":{"BoundingBoxMax":[30.136009216308595,11.284000396728516,31.847999572753908],"BoundingBoxMin":[-30.136009216308595,-4.236000061035156,-31.69601058959961],"MajorVersion":4,"MinorVersion":4,"UseCheckerboardMaterialForMissingTextures":true,"UseOnlyFilenameForImageURI":true},"ASOBO_normal_map_convention":{"tangent_space_convention":"DirectX"}}},"bufferViews":[{"buffer":0,"byteLength":132},{"buffer":0,"byteLength":528,"byteOffset":132},{"buffer":0,"byteLength":528,"byteOffset":660},{"buffer":0,"byteLength":196,"byteOffset":1188},{"buffer":0,"byteLength":588,"byteOffset":1384},{"buffer":0,"byteLength":528,"byteOffset":1972},{"buffer":0,"byteLength":528,"byteOffset":2500},{"buffer":0,"byteLength":164,"byteOffset":3028},{"buffer":0,"byteLength":492,"byteOffset":3192},{"buffer":0,"byteLength":656,"byteOffset":3684},{"buffer":0,"byteLength":656,"byteOffset":4340},{"buffer":0,"byteLength":492,"byteOffset":4996},{"buffer":0,"byteLength":656,"byteOffset":5488},{"buffer":0,"byteLength":656,"byteOffset":6144},{"buffer":0,"byteLength":15264,"byteStride":36,"byteOffset":6800,"target":34962,"name":"BufferViewVertexND"},{"buffer":0,"byteLength":1728,"byteOffset":22064,"target":34963,"name":"BufferViewIndex"}],"extensionsRequired":["MSFT_texture_dds"],"materials":[{"name":"Livery","occlusionTexture":{"index":0},"pbrMetallicRoughness":{"baseColorTexture":{"index":1},"metallicRoughnessTexture":{"index":0}}}],"meshes":[{"primitives":[{"attributes":{"COLOR_0":19,"NORMAL":16,"POSITION":14,"TANGENT":15,"TEXCOORD_0":17,"TEXCOORD_1":18},"indices":20,"material":0,"mode":4,"extras":{"ASOBO_primitive":{"PrimitiveCount":194,"VertexType":"VTX","VertexVersion":2}}}],"name":"part000.005"},{"primitives":[{"attributes":{"COLOR_0":26,"NORMAL":23,"POSITION":21,"TANGENT":22,"TEXCOORD_0":24,"TEXCOORD_1":25},"indices":27,"material":0,"mode":4,"extras":{"ASOBO_primitive":{"PrimitiveCount":6,"VertexType":"VTX","VertexVersion":2}}}],"name":"part001.006"},{"primitives":[{"attributes":{"COLOR_0":33,"NORMAL":30,"POSITION":28,"TANGENT":29,"TEXCOORD_0":31,"TEXCOORD_1":32},"indices":34,"material":0,"mode":4,"extras":{"ASOBO_primitive":{"PrimitiveCount":6,"VertexType":"VTX","VertexVersion":2}}}],"name":"part002.006"},{"primitives":[{"attributes":{"COLOR_0":47,"NORMAL":44,"POSITION":42,"TANGENT":43,"TEXCOORD_0":45,"TEXCOORD_1":46},"indices":48,"material":0,"mode":4,"extras":{"ASOBO_primitive":{"PrimitiveCount":13,"VertexType":"VTX","VertexVersion":2}}}],"name":"part004.037"},{"primitives":[{"attributes":{"COLOR_0":40,"NORMAL":37,"POSITION":35,"TANGENT":36,"TEXCOORD_0":38,"TEXCOORD_1":39},"indices":41,"material":0,"mode":4,"extras":{"ASOBO_primitive":{"PrimitiveCount":19,"VertexType":"VTX","VertexVersion":2}}}],"name":"part003.006"},{"primitives":[{"attributes":{"COLOR_0":61,"NORMAL":58,"POSITION":56,"TANGENT":57,"TEXCOORD_0":59,"TEXCOORD_1":60},"indices":62,"material":0,"mode":4,"extras":{"ASOBO_primitive":{"PrimitiveCount":12,"VertexType":"VTX","VertexVersion":2}}}],"name":"part006.006"},{"primitives":[{"attributes":{"COLOR_0":54,"NORMAL":51,"POSITION":49,"TANGENT":50,"TEXCOORD_0":52,"TEXCOORD_1":53},"indices":55,"material":0,"mode":4,"extras":{"ASOBO_primitive":{"PrimitiveCount":6,"VertexType":"VTX","VertexVersion":2}}}],"name":"part005.006"},{"primitives":[{"attributes":{"COLOR_0":75,"NORMAL":72,"POSITION":70,"TANGENT":71,"TEXCOORD_0":73,"TEXCOORD_1":74},"indices":76,"material":0,"mode":4,"extras":{"ASOBO_primitive":{"PrimitiveCount":13,"VertexType":"VTX","VertexVersion":2}}}],"name":"part008.006"},{"primitives":[{"attributes":{"COLOR_0":68,"NORMAL":65,"POSITION":63,"TANGENT":64,"TEXCOORD_0":66,"TEXCOORD_1":67},"indices":69,"material":0,"mode":4,"extras":{"ASOBO_primitive":{"PrimitiveCount":19,"VertexType":"VTX","VertexVersion":2}}}],"name":"part007.006"}],"nodes":[{"translation":[0.39466285705566409,0.3257341980934143,0.1869029998779297],"rotation":[-0.0000035192558698327049,0.0,0.7071041464805603,0.7071093916893005],"name":"takeoff_L"},{"translation":[0.3946571350097656,-0.3314482867717743,0.18720340728759769],"rotation":[-0.0000035192558698327049,0.0,0.7071041464805603,0.7071093916893005],"name":"takeoff_R"},{"rotation":[0.12278804928064347,-0.12278804928064347,0.6963642835617065,0.696364164352417],"name":"node132_anim_c_gear","children":[0,1]},{"translation":[0.0,-3.6578369140625,0.5315229892730713],"name":"node132","children":[2]},{"translation":[0.0,28.879859924316408,-2.8016040325164797],"name":"node121","children":[3]},{"rotation":[0.0,0.0,1.0,6.123031769111885e-17],"name":"node11","children":[4]},{"rotation":[0.7071068286895752,0.0,0.0,-0.7071068286895752],"name":"node10","children":[5]},{"name":"node0","children":[6]},{"mesh":0,"name":"node1.002"},{"rotation":[0.7080699801445007,0.01350599993020296,-0.1118059977889061,-0.6971039772033691],"mesh":1,"name":"node13_anim_l_gear.002"},{"translation":[-5.667539119720459,-1.189808011054993,2.3115789890289308],"name":"node13.003","children":[9]},{"rotation":[-0.01687600463628769,-0.7082791924476624,-0.6972551941871643,-0.10904601961374284],"mesh":2,"name":"node14_anim_r_gear.002"},{"translation":[5.667537212371826,-1.189808011054993,2.3115789890289308],"name":"node14.003","children":[11]},{"translation":[0.0,2.10657000541687,-3.7070319652557379],"name":"node12.003","children":[10,12]},{"rotation":[0.023685000836849214,-0.006397000048309565,0.14488700032234193,-0.9891440272331238],"mesh":3,"name":"node18_anim_custom_anim_00"},{"translation":[3.3880417346954347,-0.8045809268951416,0.0535539984703064],"name":"node18.003","children":[14]},{"rotation":[-0.003222001250833273,0.07011102139949799,0.026975009590387346,-0.997169315814972],"mesh":4,"name":"node17_anim_custom_anim_00","children":[15]},{"name":"node17.003","children":[16]},{"translation":[6.397575378417969,-0.017716998234391214,-1.0773359537124634],"name":"node16_anim_custom_anim_00","children":[17]},{"name":"node16.003","children":[18]},{"translation":[0.00020399999630171808,-0.0024480000138282778,-0.1310259997844696],"rotation":[0.0,0.0,-0.013302680104970932,0.999911606311798],"name":"node15.003","children":[19]},{"translation":[2.3554389476776125,0.0,0.000003999999989900971],"mesh":5,"name":"node21_anim_c_gear"},{"name":"node21.003","children":[21]},{"rotation":[-0.12278803437948229,0.12278803437948229,-0.6963642239570618,-0.6963642239570618],"mesh":6,"name":"node20_anim_c_gear","children":[22]},{"translation":[0.0,-3.6578369140625,0.5315229892730713],"name":"node20.003","children":[23]},{"translation":[0.0,28.879859924316408,-2.8016040325164797],"name":"node19.003","children":[24]},{"rotation":[0.018592992797493936,0.007050997577607632,-0.14488594233989716,-0.9892486333847046],"mesh":7,"name":"node24_anim_custom_anim_00"},{"translation":[-3.388906955718994,-0.8048229813575745,0.058228999376297],"name":"node24.003","children":[26]},{"rotation":[0.0028340001590549947,-0.06996000558137894,-0.04038100317120552,-0.9967281222343444],"mesh":8,"name":"node23_anim_custom_anim_00.001","children":[27]},{"name":"node23.003","children":[28]},{"translation":[-6.392862796783447,-0.1875389963388443,-1.2082469463348389],"name":"node22_anim_custom_anim_00.001","children":[29]},{"name":"node22.003","children":[30]},{"rotation":[0.0,0.0,1.0,6.123031769111885e-17],"name":"node11.003","children":[13,20,25,31]},{"rotation":[0.7071068286895752,0.0,0.0,-0.7071068286895752],"name":"node10.003","children":[32]},{"translation":[0.20000000298023225,-3.299999952316284,25.469999313354493],"rotation":[0.0,0.7071068286895752,0.7071068286895752,4.329638026647918e-17],"name":"node2.003"},{"translation":[-0.20000000298023225,-3.299999952316284,25.469999313354493],"rotation":[0.0,0.7071068286895752,0.7071068286895752,4.329638026647918e-17],"name":"node3.003"},{"translation":[0.3400000035762787,-2.6500000953674318,25.479999542236329],"rotation":[0.0,0.7071068286895752,0.7071068286895752,4.329638026647918e-17],"name":"node4.003"},{"translation":[-0.3400000035762787,-2.6500000953674318,25.479999542236329],"rotation":[0.0,0.7071068286895752,0.7071068286895752,4.329638026647918e-17],"name":"node5.003"},{"translation":[-3.3299999237060549,-1.2100000381469729,9.119999885559082],"rotation":[0.0,0.7071068286895752,0.7071068286895752,4.329638026647918e-17],"name":"node6.003"},{"translation":[-3.2699999809265138,-1.2100000381469729,9.25],"rotation":[0.0,0.7071068286895752,0.7071068286895752,4.329638026647918e-17],"name":"node7.003"},{"translation":[3.3299999237060549,-1.2100000381469729,9.119999885559082],"rotation":[0.0,0.7071068286895752,0.7071068286895752,4.329638026647918e-17],"name":"node8.003"},{"translation":[3.2699999809265138,-1.2100000381469729,9.25],"rotation":[0.0,0.7071068286895752,0.7071068286895752,4.329638026647918e-17],"name":"node9.003"},{"name":"node0.003","children":[8,33,34,35,36,37,38,39,40,41]},{"translation":[9.313678741455079,-2.620442152023315,5.290595054626465],"name":"FX_EXHAUST_LEFT"},{"translation":[-9.314298629760743,-2.620442152023315,5.290595054626465],"name":"FX_EXHAUST_RIGHT"},{"translation":[0.39117658138275149,-5.176055431365967,25.252607345581056],"name":"fx_tire_contactPoint_center_left"},{"translation":[-0.381140410900116,-5.176055431365967,25.252607345581056],"name":"fx_tire_contactPoint_center_right"},{"translation":[4.836933135986328,-6.515183448791504,-0.5943463444709778],"name":"fx_tire_contactPoint_left_in"},{"translation":[6.329105854034424,-6.515183448791504,-0.5943463444709778],"name":"fx_tire_contactPoint_left_out"},{"translation":[-4.8467020988464359,-6.515183448791504,-0.5943463444709778],"name":"fx_tire_contactPoint_right_in"},{"translation":[-6.336849212646484,-6.515183448791504,-0.5943463444709778],"name":"fx_tire_contactPoint_right_out"}],"scene":0,"scenes":[{"nodes":[7,42,43,44,45,46,47,48,49,50],"name":"Scene"}],"textures":[{"extensions":{"MSFT_texture_dds":{"source":0}}},{"extensions":{"MSFT_texture_dds":{"source":1}}}],"samplers":[{"magFilter":9729,"minFilter":9987,"wrapS":10497,"wrapT":10497}],"extensionsUsed":["ASOBO_normal_map_convention","MSFT_texture_dds","ASOBO_asset_optimized"],"buffers":[{"byteLength":23792,"uri":"TFS_A333_PW_LOD3.bin"}],"images":[{"uri":"TFS_A333_PW_M.PNG.DDS","name":"TFS_A333_PW_M","extras":"ASOBO_image_converted_meta"},{"uri":"TFS_A333_PW_T.PNG.DDS","name":"TFS_A333_PW_T","extras":"ASOBO_image_converted_meta"}]}
