{"accessors":[{"bufferView":0,"componentType":5126,"count":1805,"min":[-3.0619969367980959,-1.0449459552764893,-16.662109375],"max":[11.338089942932129,4.949260234832764,14.786529541015625],"type":"VEC3","name":"part000.001_vertices#0_POSITION"},{"bufferView":0,"byteOffset":12,"componentType":5120,"count":1805,"type":"VEC4","name":"part000.001_vertices#0_TANGENT"},{"bufferView":0,"byteOffset":16,"componentType":5120,"count":1805,"type":"VEC4","name":"part000.001_vertices#0_NORMAL"},{"bufferView":0,"byteOffset":20,"componentType":5122,"count":1805,"type":"VEC2","name":"part000.001_vertices#0_TEXCOORD_0"},{"bufferView":0,"byteOffset":24,"componentType":5122,"count":1805,"type":"VEC2","name":"part000.001_vertices#0_TEXCOORD_1"},{"bufferView":0,"byteOffset":28,"componentType":5123,"count":1805,"type":"VEC4","name":"part000.001_vertices#0_COLOR_0"},{"bufferView":1,"componentType":5123,"count":1923,"type":"SCALAR","name":"part000.001_indices#0"},{"bufferView":0,"byteOffset":64980,"componentType":5126,"count":1296,"min":[-11.33014965057373,-0.9744228720664978,-17.55340003967285],"max":[11.338089942932129,4.623815059661865,13.357709884643555],"type":"VEC3","name":"part001.001_vertices#0_POSITION"},{"bufferView":0,"byteOffset":64992,"componentType":5120,"count":1296,"type":"VEC4","name":"part001.001_vertices#0_TANGENT"},{"bufferView":0,"byteOffset":64996,"componentType":5120,"count":1296,"type":"VEC4","name":"part001.001_vertices#0_NORMAL"},{"bufferView":0,"byteOffset":65000,"componentType":5122,"count":1296,"type":"VEC2","name":"part001.001_vertices#0_TEXCOORD_0"},{"bufferView":0,"byteOffset":65004,"componentType":5122,"count":1296,"type":"VEC2","name":"part001.001_vertices#0_TEXCOORD_1"},{"bufferView":0,"byteOffset":65008,"componentType":5123,"count":1296,"type":"VEC4","name":"part001.001_vertices#0_COLOR_0"},{"bufferView":1,"byteOffset":3846,"componentType":5123,"count":1296,"type":"SCALAR","name":"part001.001_indices#0"}],"asset":{"generator":"Khronos glTF Blender I/O v1.8.19 and Asobo Studio MSFS Blender I/O v1.3.3","copyright":"FSLTL","version":"2.0","extensions":{"ASOBO_asset_optimized":{"BoundingBoxMax":[11.338089942932129,4.949260234832764,14.786529541015625],"BoundingBoxMin":[-11.33014965057373,-1.0449459552764893,-17.55340003967285],"MajorVersion":4,"MinorVersion":4,"UseCheckerboardMaterialForMissingTextures":true,"UseOnlyFilenameForImageURI":true},"ASOBO_normal_map_convention":{"tangent_space_convention":"DirectX"}}},"bufferViews":[{"buffer":0,"byteLength":111636,"byteStride":36,"target":34962,"name":"BufferViewVertexND"},{"buffer":0,"byteLength":6438,"byteOffset":111636,"target":34963,"name":"BufferViewIndex"}],"extensionsRequired":["MSFT_texture_dds"],"materials":[{"name":"livery1","occlusionTexture":{"index":0},"pbrMetallicRoughness":{"baseColorTexture":{"index":1},"metallicRoughnessTexture":{"index":0}}},{"name":"livery2","occlusionTexture":{"index":2},"pbrMetallicRoughness":{"baseColorTexture":{"index":3},"metallicRoughnessTexture":{"index":2}}}],"meshes":[{"primitives":[{"attributes":{"COLOR_0":5,"NORMAL":2,"POSITION":0,"TANGENT":1,"TEXCOORD_0":3,"TEXCOORD_1":4},"indices":6,"material":0,"mode":4,"extras":{"ASOBO_primitive":{"PrimitiveCount":641,"VertexType":"VTX","VertexVersion":2}}}],"name":"part000.001"},{"primitives":[{"attributes":{"COLOR_0":12,"NORMAL":9,"POSITION":7,"TANGENT":8,"TEXCOORD_0":10,"TEXCOORD_1":11},"indices":13,"material":1,"mode":4,"extras":{"ASOBO_primitive":{"PrimitiveCount":432,"VertexType":"VTX","VertexVersion":2}}}],"name":"part001.001"}],"nodes":[{"mesh":0,"name":"node1.001"},{"mesh":1,"name":"node2.001"},{"translation":[1.6546560525894166,-0.5291439890861511,1.1284950971603394],"rotation":[0.7071068286895752,0.0,0.0,0.7071068286895752],"name":"node3.001"},{"translation":[-1.6620689630508426,-0.5291439890861511,1.1284950971603394],"rotation":[0.7071068286895752,0.0,0.0,0.7071068286895752],"name":"node4.001"},{"translation":[-0.08456399291753769,-0.5729749798774719,12.991498947143557],"rotation":[0.7442335486412048,0.0,0.0,0.6679195165634155],"name":"node5.001"},{"name":"node0.001","children":[0,1,2,3,4]},{"translation":[2.3355789184570314,1.3702133893966678,-10.014330863952637],"name":"fx_exhaust_left"},{"translation":[-2.336568832397461,1.3702133893966678,-10.01396942138672],"name":"fx_exhaust_right"},{"translation":[-2.529618263244629,-2.550841808319092,-2.4815456867218019],"name":"fx_tire_contactPoint_right_out"},{"translation":[-1.937755823135376,-2.550841808319092,-2.4815456867218019],"name":"fx_tire_contactPoint_right_in"},{"translation":[2.5285396575927736,-2.550841808319092,-2.4815456867218019],"name":"fx_tire_contactPoint_left_out"},{"translation":[1.930692434310913,-2.550841808319092,-2.4815456867218019],"name":"fx_tire_contactPoint_left_in"},{"translation":[-0.15373823046684266,-1.858236074447632,12.834936141967772],"name":"fx_tire_contactPoint_center_right"},{"translation":[0.16215789318084718,-1.858236074447632,12.834936141967772],"name":"fx_tire_contactPoint_center_left"}],"scene":0,"scenes":[{"nodes":[5,6,7,8,9,10,11,12,13],"name":"Scene"}],"textures":[{"extensions":{"MSFT_texture_dds":{"source":0}}},{"extensions":{"MSFT_texture_dds":{"source":1}}},{"extensions":{"MSFT_texture_dds":{"source":2}}},{"extensions":{"MSFT_texture_dds":{"source":3}}}],"samplers":[{"magFilter":9729,"minFilter":9987,"wrapS":10497,"wrapT":10497}],"extensionsUsed":["ASOBO_normal_map_convention","MSFT_texture_dds","ASOBO_asset_optimized"],"buffers":[{"byteLength":118074,"uri":"bombardier_crj_700_LOD1.bin"}],"images":[{"uri":"CRJ_700_1_M.PNG.DDS","name":"CRJ_700_1_M","extras":"ASOBO_image_converted_meta"},{"uri":"CRJ_700_1_T.PNG.DDS","name":"CRJ_700_1_T","extras":"ASOBO_image_converted_meta"},{"uri":"CRJ_700_2_M.PNG.DDS","name":"CRJ_700_2_M","extras":"ASOBO_image_converted_meta"},{"uri":"CRJ_700_2_T.PNG.DDS","name":"CRJ_700_2_T","extras":"ASOBO_image_converted_meta"}]}
