{"accessors":[{"bufferView":0,"componentType":5126,"count":3,"min":[-226.1251220703125,-1019.6305541992188,-1950.675048828125],"max":[375.82672119140627,1000.815185546875,11865.4560546875],"type":"VEC3","name":"x6_Cockpit_vertices#0_POSITION"},{"bufferView":0,"byteOffset":12,"componentType":5120,"count":3,"type":"VEC4","name":"x6_Cockpit_vertices#0_TANGENT"},{"bufferView":0,"byteOffset":16,"componentType":5120,"count":3,"type":"VEC4","name":"x6_Cockpit_vertices#0_NORMAL"},{"bufferView":0,"byteOffset":20,"componentType":5122,"count":3,"type":"VEC2","name":"x6_Cockpit_vertices#0_TEXCOORD_0"},{"bufferView":0,"byteOffset":24,"componentType":5122,"count":3,"type":"VEC2","name":"x6_Cockpit_vertices#0_TEXCOORD_1"},{"bufferView":0,"byteOffset":28,"componentType":5123,"count":3,"type":"VEC4","name":"x6_Cockpit_vertices#0_COLOR_0"},{"bufferView":1,"componentType":5123,"count":3,"type":"SCALAR","name":"x6_Cockpit_indices#0"}],"asset":{"generator":"babylon.js glTF exporter for 3dsmax 2022 v1.0.8124.17907","version":"2.0","extensions":{"ASOBO_asset_optimized":{"BoundingBoxMax":[375.82672119140627,1000.815185546875,11865.4560546875],"BoundingBoxMin":[-226.1251220703125,-1019.6305541992188,-1950.675048828125],"MajorVersion":4,"MinorVersion":4,"UseCheckerboardMaterialForMissingTextures":true,"UseOnlyFilenameForImageURI":true},"ASOBO_normal_map_convention":{"tangent_space_convention":"DirectX"}}},"bufferViews":[{"buffer":0,"byteLength":108,"byteStride":36,"target":34962,"name":"BufferViewVertexND"},{"buffer":0,"byteLength":6,"byteOffset":108,"target":34963,"name":"BufferViewIndex"}],"materials":[{"name":"Occluder","pbrMetallicRoughness":{"baseColorFactor":[0.0140779,0.489208639,0.0,1.0]},"extensions":{"ASOBO_material_environment_occluder":{}}}],"meshes":[{"primitives":[{"attributes":{"COLOR_0":5,"NORMAL":2,"POSITION":0,"TANGENT":1,"TEXCOORD_0":3,"TEXCOORD_1":4},"indices":6,"material":0,"mode":4,"extras":{"ASOBO_primitive":{"PrimitiveCount":1,"VertexType":"VTX","VertexVersion":2}}}],"name":"x6_Cockpit"}],"nodes":[{"translation":[0.0476321764,1.36733222,4.362232],"rotation":[-3.29317151e-9,-0.999048233,0.0436193757,-7.542604e-8],"scale":[0.0009787936,0.0009787936,0.0009787936],"mesh":0,"name":"Cockpit"}],"scene":0,"scenes":[{"nodes":[0]}],"extensionsUsed":["ASOBO_normal_map_convention","ASOBO_material_environment_occluder","ASOBO_asset_optimized"],"buffers":[{"byteLength":114,"uri":"CJ4_Cockpit_LOD06.bin"}]}
