{"accessors":[{"bufferView":0,"componentType":5126,"count":24,"min":[-0.0005000000237487257,0.0,-0.0005000000237487257],"max":[0.0005000000237487257,0.0010000000474974514,0.0005000000237487257],"type":"VEC3","name":"FX_ENGINE_LEFT_vertices#0_POSITION"},{"bufferView":0,"byteOffset":12,"componentType":5120,"count":24,"type":"VEC4","name":"FX_ENGINE_LEFT_vertices#0_TANGENT"},{"bufferView":0,"byteOffset":16,"componentType":5120,"count":24,"type":"VEC4","name":"FX_ENGINE_LEFT_vertices#0_NORMAL"},{"bufferView":0,"byteOffset":20,"componentType":5122,"count":24,"type":"VEC2","name":"FX_ENGINE_LEFT_vertices#0_TEXCOORD_0"},{"bufferView":0,"byteOffset":24,"componentType":5122,"count":24,"type":"VEC2","name":"FX_ENGINE_LEFT_vertices#0_TEXCOORD_1"},{"bufferView":0,"byteOffset":28,"componentType":5123,"count":24,"type":"VEC4","name":"FX_ENGINE_LEFT_vertices#0_COLOR_0"},{"bufferView":1,"componentType":5123,"count":36,"type":"SCALAR","name":"FX_ENGINE_LEFT_indices#0"},{"bufferView":0,"byteOffset":864,"componentType":5126,"count":24,"min":[-0.0005000000237487257,0.0,-0.0005000000237487257],"max":[0.0005000000237487257,0.0010000000474974514,0.0005000000237487257],"type":"VEC3","name":"FX_ENGINE_RIGHT_vertices#0_POSITION"},{"bufferView":0,"byteOffset":876,"componentType":5120,"count":24,"type":"VEC4","name":"FX_ENGINE_RIGHT_vertices#0_TANGENT"},{"bufferView":0,"byteOffset":880,"componentType":5120,"count":24,"type":"VEC4","name":"FX_ENGINE_RIGHT_vertices#0_NORMAL"},{"bufferView":0,"byteOffset":884,"componentType":5122,"count":24,"type":"VEC2","name":"FX_ENGINE_RIGHT_vertices#0_TEXCOORD_0"},{"bufferView":0,"byteOffset":888,"componentType":5122,"count":24,"type":"VEC2","name":"FX_ENGINE_RIGHT_vertices#0_TEXCOORD_1"},{"bufferView":0,"byteOffset":892,"componentType":5123,"count":24,"type":"VEC4","name":"FX_ENGINE_RIGHT_vertices#0_COLOR_0"},{"bufferView":1,"byteOffset":72,"componentType":5123,"count":36,"type":"SCALAR","name":"FX_ENGINE_RIGHT_indices#0"},{"bufferView":0,"byteOffset":1728,"componentType":5126,"count":129,"min":[-7.701393127441406,-0.043268147855997089,-9.518279075622559],"max":[7.696663856506348,3.844982862472534,6.697713851928711],"type":"VEC3","name":"x6_Fuselage_vertices#0_POSITION"},{"bufferView":0,"byteOffset":1740,"componentType":5120,"count":129,"type":"VEC4","name":"x6_Fuselage_vertices#0_TANGENT"},{"bufferView":0,"byteOffset":1744,"componentType":5120,"count":129,"type":"VEC4","name":"x6_Fuselage_vertices#0_NORMAL"},{"bufferView":0,"byteOffset":1748,"componentType":5122,"count":129,"type":"VEC2","name":"x6_Fuselage_vertices#0_TEXCOORD_0"},{"bufferView":0,"byteOffset":1752,"componentType":5122,"count":129,"type":"VEC2","name":"x6_Fuselage_vertices#0_TEXCOORD_1"},{"bufferView":0,"byteOffset":1756,"componentType":5123,"count":129,"type":"VEC4","name":"x6_Fuselage_vertices#0_COLOR_0"},{"bufferView":1,"byteOffset":144,"componentType":5123,"count":366,"type":"SCALAR","name":"x6_Fuselage_indices#0"}],"asset":{"generator":"babylon.js glTF exporter for 3dsmax 2019 v1.0.7921.20934","version":"2.0","extensions":{"ASOBO_asset_optimized":{"BoundingBoxMax":[7.696663856506348,3.844982862472534,6.697713851928711],"BoundingBoxMin":[-7.701393127441406,-0.043268147855997089,-9.518279075622559],"MajorVersion":4,"MinorVersion":4,"UseCheckerboardMaterialForMissingTextures":true},"ASOBO_normal_map_convention":{"tangent_space_convention":"DirectX"}}},"bufferViews":[{"buffer":0,"byteLength":6372,"byteStride":36,"target":34962,"name":"BufferViewVertexND"},{"buffer":0,"byteLength":876,"byteOffset":6372,"target":34963,"name":"BufferViewIndex"}],"extensionsRequired":["MSFT_texture_dds"],"materials":[{"name":"LOD6","occlusionTexture":{"index":1},"pbrMetallicRoughness":{"baseColorTexture":{"index":0},"metallicRoughnessTexture":{"index":1}}}],"meshes":[{"primitives":[{"attributes":{"COLOR_0":5,"NORMAL":2,"POSITION":0,"TANGENT":1,"TEXCOORD_0":3,"TEXCOORD_1":4},"indices":6,"material":0,"mode":4,"extras":{"ASOBO_primitive":{"PrimitiveCount":12,"VertexType":"VTX","VertexVersion":2}}}],"name":"FX_ENGINE_LEFT"},{"primitives":[{"attributes":{"COLOR_0":12,"NORMAL":9,"POSITION":7,"TANGENT":8,"TEXCOORD_0":10,"TEXCOORD_1":11},"indices":13,"material":0,"mode":4,"extras":{"ASOBO_primitive":{"PrimitiveCount":12,"VertexType":"VTX","VertexVersion":2}}}],"name":"FX_ENGINE_RIGHT"},{"primitives":[{"attributes":{"COLOR_0":19,"NORMAL":16,"POSITION":14,"TANGENT":15,"TEXCOORD_0":17,"TEXCOORD_1":18},"indices":20,"material":0,"mode":4,"extras":{"ASOBO_primitive":{"PrimitiveCount":122,"VertexType":"VTX","VertexVersion":2}}}],"name":"x6_Fuselage"}],"nodes":[{"translation":[1.40701771,1.37844622,-4.45123243],"rotation":[-0.0436193831,0.0,0.0,0.999048233],"mesh":0,"name":"FX_ENGINE_LEFT"},{"translation":[-1.40707541,1.37844622,-4.45123243],"rotation":[-0.0436193831,0.0,0.0,0.999048233],"mesh":1,"name":"FX_ENGINE_RIGHT"},{"mesh":2,"name":"Fuselage"}],"scene":0,"scenes":[{"nodes":[0,1,2]}],"textures":[{"extensions":{"MSFT_texture_dds":{"source":0}}},{"extensions":{"MSFT_texture_dds":{"source":1}}}],"extensionsUsed":["ASOBO_normal_map_convention","MSFT_texture_dds","ASOBO_asset_optimized"],"buffers":[{"byteLength":7248,"uri":"CJ4_LOD06.bin"}],"images":[{"uri":"CESSNA_CJ4_AIRFRAME_LOD6_ALBD.PNG.DDS","extras":"ASOBO_image_converted_meta"},{"uri":"CESSNA_CJ4_AIRFRAME_LOD6_COMP.PNG.DDS","extras":"ASOBO_image_converted_meta"}]}
