{"accessors":[{"bufferView":0,"componentType":5126,"count":2401,"min":[0.0],"max":[100.0],"type":"SCALAR"},{"bufferView":1,"componentType":5126,"count":2401,"type":"VEC4"},{"bufferView":2,"componentType":5126,"count":2401,"type":"VEC4"},{"bufferView":3,"componentType":5126,"count":2401,"type":"VEC4"},{"bufferView":4,"componentType":5126,"count":2401,"type":"VEC4"},{"bufferView":5,"componentType":5126,"count":445,"min":[-13.331999778747559,-1.4479999542236329,-14.64799976348877],"max":[13.331999778747559,5.4720001220703129,12.404000282287598],"type":"VEC3","name":"part000.001_vertices#0_POSITION"},{"bufferView":5,"byteOffset":12,"componentType":5120,"count":445,"type":"VEC4","name":"part000.001_vertices#0_TANGENT"},{"bufferView":5,"byteOffset":16,"componentType":5120,"count":445,"type":"VEC4","name":"part000.001_vertices#0_NORMAL"},{"bufferView":5,"byteOffset":20,"componentType":5122,"count":445,"type":"VEC2","name":"part000.001_vertices#0_TEXCOORD_0"},{"bufferView":5,"byteOffset":24,"componentType":5122,"count":445,"type":"VEC2","name":"part000.001_vertices#0_TEXCOORD_1"},{"bufferView":5,"byteOffset":28,"componentType":5123,"count":445,"type":"VEC4","name":"part000.001_vertices#0_COLOR_0"},{"bufferView":6,"componentType":5123,"count":1152,"type":"SCALAR","name":"part000.001_indices#0"},{"bufferView":5,"byteOffset":16020,"componentType":5126,"count":36,"min":[-1.9957932233810425,-0.0027659847401082517,-1.7309551239013672],"max":[1.9979541301727296,0.2253323346376419,1.7315735816955567],"type":"VEC3","name":"part002.001_vertices#0_POSITION"},{"bufferView":5,"byteOffset":16032,"componentType":5120,"count":36,"type":"VEC4","name":"part002.001_vertices#0_TANGENT"},{"bufferView":5,"byteOffset":16036,"componentType":5120,"count":36,"type":"VEC4","name":"part002.001_vertices#0_NORMAL"},{"bufferView":5,"byteOffset":16040,"componentType":5122,"count":36,"type":"VEC2","name":"part002.001_vertices#0_TEXCOORD_0"},{"bufferView":5,"byteOffset":16044,"componentType":5122,"count":36,"type":"VEC2","name":"part002.001_vertices#0_TEXCOORD_1"},{"bufferView":5,"byteOffset":16048,"componentType":5123,"count":36,"type":"VEC4","name":"part002.001_vertices#0_COLOR_0"},{"bufferView":6,"byteOffset":2304,"componentType":5123,"count":36,"type":"SCALAR","name":"part002.001_indices#0"},{"bufferView":5,"byteOffset":17316,"componentType":5126,"count":12,"min":[-4.061479568481445,-0.4086966812610626,0.45341143012046816],"max":[4.076877593994141,0.20757967233657838,0.4554347097873688],"type":"VEC3","name":"part006.001_vertices#0_POSITION"},{"bufferView":5,"byteOffset":17328,"componentType":5120,"count":12,"type":"VEC4","name":"part006.001_vertices#0_TANGENT"},{"bufferView":5,"byteOffset":17332,"componentType":5120,"count":12,"type":"VEC4","name":"part006.001_vertices#0_NORMAL"},{"bufferView":5,"byteOffset":17336,"componentType":5122,"count":12,"type":"VEC2","name":"part006.001_vertices#0_TEXCOORD_0"},{"bufferView":5,"byteOffset":17340,"componentType":5122,"count":12,"type":"VEC2","name":"part006.001_vertices#0_TEXCOORD_1"},{"bufferView":5,"byteOffset":17344,"componentType":5123,"count":12,"type":"VEC4","name":"part006.001_vertices#0_COLOR_0"},{"bufferView":6,"byteOffset":2376,"componentType":5123,"count":12,"type":"SCALAR","name":"part006.001_indices#0"},{"bufferView":5,"byteOffset":17748,"componentType":5126,"count":12,"min":[-4.077767372131348,-0.4088534712791443,0.45335692167282107],"max":[4.063214302062988,0.20745764672756196,0.4554373323917389],"type":"VEC3","name":"part007.001_vertices#0_POSITION"},{"bufferView":5,"byteOffset":17760,"componentType":5120,"count":12,"type":"VEC4","name":"part007.001_vertices#0_TANGENT"},{"bufferView":5,"byteOffset":17764,"componentType":5120,"count":12,"type":"VEC4","name":"part007.001_vertices#0_NORMAL"},{"bufferView":5,"byteOffset":17768,"componentType":5122,"count":12,"type":"VEC2","name":"part007.001_vertices#0_TEXCOORD_0"},{"bufferView":5,"byteOffset":17772,"componentType":5122,"count":12,"type":"VEC2","name":"part007.001_vertices#0_TEXCOORD_1"},{"bufferView":5,"byteOffset":17776,"componentType":5123,"count":12,"type":"VEC4","name":"part007.001_vertices#0_COLOR_0"},{"bufferView":6,"byteOffset":2400,"componentType":5123,"count":12,"type":"SCALAR","name":"part007.001_indices#0"},{"bufferView":5,"byteOffset":18180,"componentType":5126,"count":36,"min":[-1.9964925050735474,-0.002767782425507903,-1.7303378582000733],"max":[1.9981663227081299,0.22533057630062104,1.7305468320846558],"type":"VEC3","name":"part001.001_vertices#0_POSITION"},{"bufferView":5,"byteOffset":18192,"componentType":5120,"count":36,"type":"VEC4","name":"part001.001_vertices#0_TANGENT"},{"bufferView":5,"byteOffset":18196,"componentType":5120,"count":36,"type":"VEC4","name":"part001.001_vertices#0_NORMAL"},{"bufferView":5,"byteOffset":18200,"componentType":5122,"count":36,"type":"VEC2","name":"part001.001_vertices#0_TEXCOORD_0"},{"bufferView":5,"byteOffset":18204,"componentType":5122,"count":36,"type":"VEC2","name":"part001.001_vertices#0_TEXCOORD_1"},{"bufferView":5,"byteOffset":18208,"componentType":5123,"count":36,"type":"VEC4","name":"part001.001_vertices#0_COLOR_0"},{"bufferView":6,"byteOffset":2424,"componentType":5123,"count":36,"type":"SCALAR","name":"part001.001_indices#0"},{"bufferView":5,"byteOffset":19476,"componentType":5126,"count":100,"min":[1.4321802854537964,-1.9334630966186524,1.5625258684158326],"max":[1.5478721857070923,-1.496865153312683,15.934712409973145],"type":"VEC3","name":"part004.006_vertices#0_POSITION"},{"bufferView":5,"byteOffset":19488,"componentType":5120,"count":100,"type":"VEC4","name":"part004.006_vertices#0_TANGENT"},{"bufferView":5,"byteOffset":19492,"componentType":5120,"count":100,"type":"VEC4","name":"part004.006_vertices#0_NORMAL"},{"bufferView":5,"byteOffset":19496,"componentType":5122,"count":100,"type":"VEC2","name":"part004.006_vertices#0_TEXCOORD_0"},{"bufferView":5,"byteOffset":19500,"componentType":5122,"count":100,"type":"VEC2","name":"part004.006_vertices#0_TEXCOORD_1"},{"bufferView":5,"byteOffset":19504,"componentType":5123,"count":100,"type":"VEC4","name":"part004.006_vertices#0_COLOR_0"},{"bufferView":6,"byteOffset":2496,"componentType":5123,"count":150,"type":"SCALAR","name":"part004.006_indices#0"},{"bufferView":5,"byteOffset":23076,"componentType":5126,"count":104,"min":[-1.5464446544647217,-1.9343153238296509,1.515953779220581],"max":[-1.436598539352417,-1.4982832670211793,16.526336669921876],"type":"VEC3","name":"part004.007_vertices#0_POSITION"},{"bufferView":5,"byteOffset":23088,"componentType":5120,"count":104,"type":"VEC4","name":"part004.007_vertices#0_TANGENT"},{"bufferView":5,"byteOffset":23092,"componentType":5120,"count":104,"type":"VEC4","name":"part004.007_vertices#0_NORMAL"},{"bufferView":5,"byteOffset":23096,"componentType":5122,"count":104,"type":"VEC2","name":"part004.007_vertices#0_TEXCOORD_0"},{"bufferView":5,"byteOffset":23100,"componentType":5122,"count":104,"type":"VEC2","name":"part004.007_vertices#0_TEXCOORD_1"},{"bufferView":5,"byteOffset":23104,"componentType":5123,"count":104,"type":"VEC4","name":"part004.007_vertices#0_COLOR_0"},{"bufferView":6,"byteOffset":2796,"componentType":5123,"count":156,"type":"SCALAR","name":"part004.007_indices#0"}],"animations":[{"name":"custom_anim_PROP_ROTATION_ANGLE_1_00","channels":[{"sampler":0,"target":{"node":20,"path":"rotation"}}],"samplers":[{"input":0,"output":1,"interpolation":"LINEAR"}]},{"name":"custom_anim_PROP_ROTATION_ANGLE_2_01","channels":[{"sampler":0,"target":{"node":5,"path":"rotation"}}],"samplers":[{"input":0,"output":2,"interpolation":"LINEAR"}]},{"name":"custom_anim_SIM_ON_GROUND_08","channels":[{"sampler":0,"target":{"node":11,"path":"rotation"}},{"sampler":1,"target":{"node":13,"path":"rotation"}}],"samplers":[{"input":0,"output":3,"interpolation":"LINEAR"},{"input":0,"output":4,"interpolation":"LINEAR"}]}],"asset":{"generator":"Khronos glTF Blender I/O v1.8.19 and Asobo Studio MSFS Blender I/O v1.1.6","copyright":"FSLTL","version":"2.0","extensions":{"ASOBO_asset_optimized":{"BoundingBoxMax":[13.331999778747559,5.4720001220703129,18.538393020629884],"BoundingBoxMin":[-13.331999778747559,-2.096440076828003,-14.64799976348877],"MajorVersion":4,"MinorVersion":4,"UseCheckerboardMaterialForMissingTextures":true,"UseOnlyFilenameForImageURI":true},"ASOBO_normal_map_convention":{"tangent_space_convention":"DirectX"}}},"bufferViews":[{"buffer":0,"byteLength":9604},{"buffer":0,"byteLength":38416,"byteOffset":9604},{"buffer":0,"byteLength":38416,"byteOffset":48020},{"buffer":0,"byteLength":38416,"byteOffset":86436},{"buffer":0,"byteLength":38416,"byteOffset":124852},{"buffer":0,"byteLength":26820,"byteStride":36,"byteOffset":163268,"target":34962,"name":"BufferViewVertexND"},{"buffer":0,"byteLength":3108,"byteOffset":190088,"target":34963,"name":"BufferViewIndex"}],"extensionsRequired":["MSFT_texture_dds"],"materials":[{"name":"Primary Body","occlusionTexture":{"index":0},"pbrMetallicRoughness":{"baseColorTexture":{"index":1},"metallicRoughnessTexture":{"index":0}}},{"name":"Windows","normalTexture":{"index":3},"occlusionTexture":{"index":4},"emissiveTexture":{"index":2},"emissiveFactor":[1.0,1.0,1.0],"pbrMetallicRoughness":{"baseColorTexture":{"index":5},"metallicRoughnessTexture":{"index":4}},"extras":{"ASOBO_material_code":"Porthole"}}],"meshes":[{"primitives":[{"attributes":{"COLOR_0":10,"NORMAL":7,"POSITION":5,"TANGENT":6,"TEXCOORD_0":8,"TEXCOORD_1":9},"indices":11,"material":0,"mode":4,"extras":{"ASOBO_primitive":{"PrimitiveCount":384,"VertexType":"VTX","VertexVersion":2}}}],"name":"part000.001"},{"primitives":[{"attributes":{"COLOR_0":17,"NORMAL":14,"POSITION":12,"TANGENT":13,"TEXCOORD_0":15,"TEXCOORD_1":16},"indices":18,"material":0,"mode":4,"extras":{"ASOBO_primitive":{"PrimitiveCount":12,"VertexType":"VTX","VertexVersion":2}}}],"name":"part002.001"},{"primitives":[{"attributes":{"COLOR_0":24,"NORMAL":21,"POSITION":19,"TANGENT":20,"TEXCOORD_0":22,"TEXCOORD_1":23},"indices":25,"material":0,"mode":4,"extras":{"ASOBO_primitive":{"PrimitiveCount":4,"VertexType":"VTX","VertexVersion":2}}}],"name":"part006.001"},{"primitives":[{"attributes":{"COLOR_0":31,"NORMAL":28,"POSITION":26,"TANGENT":27,"TEXCOORD_0":29,"TEXCOORD_1":30},"indices":32,"material":0,"mode":4,"extras":{"ASOBO_primitive":{"PrimitiveCount":4,"VertexType":"VTX","VertexVersion":2}}}],"name":"part007.001"},{"primitives":[{"attributes":{"COLOR_0":38,"NORMAL":35,"POSITION":33,"TANGENT":34,"TEXCOORD_0":36,"TEXCOORD_1":37},"indices":39,"material":0,"mode":4,"extras":{"ASOBO_primitive":{"PrimitiveCount":12,"VertexType":"VTX","VertexVersion":2}}}],"name":"part001.001"},{"primitives":[{"attributes":{"COLOR_0":45,"NORMAL":42,"POSITION":40,"TANGENT":41,"TEXCOORD_0":43,"TEXCOORD_1":44},"indices":46,"material":1,"mode":4,"extras":{"ASOBO_primitive":{"PrimitiveCount":50,"VertexType":"VTX","VertexVersion":2}}}],"name":"part004.006"},{"primitives":[{"attributes":{"COLOR_0":52,"NORMAL":49,"POSITION":47,"TANGENT":48,"TEXCOORD_0":50,"TEXCOORD_1":51},"indices":53,"material":1,"mode":4,"extras":{"ASOBO_primitive":{"PrimitiveCount":52,"VertexType":"VTX","VertexVersion":2}}}],"name":"part004.007"}],"nodes":[{"mesh":0,"name":"node1.001"},{"translation":[0.15000000596046449,-1.0499999523162842,11.0],"rotation":[0.5,-0.5,-0.5,0.5],"name":"node2.001"},{"translation":[-0.15000000596046449,-1.0499999523162842,11.0],"rotation":[0.5,-0.5,-0.5,0.5],"name":"node3.001"},{"translation":[1.4299999475479127,-0.75,2.940000057220459],"rotation":[0.5,-0.5,-0.5,0.5],"name":"node4.001"},{"translation":[-1.4299999475479127,-0.75,2.940000057220459],"rotation":[0.5,-0.5,-0.5,0.5],"name":"node5.001"},{"rotation":[0.0,0.0,0.0,-1.0],"mesh":1,"name":"node11_anim_custom_anim_PROP_ROTATION_ANGLE_2_01"},{"name":"node11.001","children":[5]},{"translation":[4.020799160003662,3.328856945037842,1.2218120098114014],"rotation":[0.0,0.9961782693862916,0.0,0.0873432606458664],"name":"node10.001","children":[6]},{"translation":[-0.29813352227211,12.216388702392579,-2.8852715492248537],"name":"node13.001"},{"translation":[0.29813352227211,12.216388702392579,-2.8852715492248537],"name":"node14.001"},{"translation":[-1.686075210571289,2.0758719444274904,-2.736386299133301],"name":"node15.001"},{"rotation":[-0.25884395837783816,0.007299999240785837,0.006472999230027199,-0.9658699035644532],"mesh":2,"name":"node16_anim_custom_anim_SIM_ON_GROUND_08"},{"translation":[5.4394354820251469,0.9269821047782898,-0.8314813375473023],"name":"node16.001","children":[11]},{"rotation":[-0.2587699294090271,-0.0095579968765378,0.0019559995271265508,-0.9658896923065186],"mesh":3,"name":"node17_anim_custom_anim_SIM_ON_GROUND_08"},{"translation":[-5.4394354820251469,0.9269821047782898,-0.8314813375473023],"name":"node17.001","children":[13]},{"translation":[1.6853641271591189,2.075872898101806,-2.736386299133301],"name":"node18.001"},{"translation":[0.0,12.097155570983889,-2.7709341049194338],"name":"node19.001"},{"translation":[1.7020033597946168,1.5300112962722779,-2.6539697647094728],"name":"node20.001"},{"translation":[-1.787293553352356,1.5300112962722779,-2.61689829826355],"name":"node21.001"},{"translation":[0.0,-1.5374950170516968,2.01084303855896],"name":"node12.001","children":[8,9,10,12,14,15,16,17,18]},{"mesh":4,"name":"node9_anim_custom_anim_PROP_ROTATION_ANGLE_1_00"},{"name":"node9.001","children":[20]},{"translation":[-4.020802974700928,3.328856945037842,1.2218120098114014],"rotation":[0.0,0.9537379145622252,0.0,0.30063939094543459],"name":"node8.001","children":[21]},{"rotation":[0.0,0.0,1.0,6.123234262925839e-17],"name":"node7.001","children":[7,19,22]},{"rotation":[0.7071068286895752,0.0,0.0,-0.7071068286895752],"name":"node6.001","children":[23]},{"name":"node0.003","children":[0,1,2,3,4,24]},{"translation":[-0.10405587404966355,1.833099365234375,-15.047235488891602],"rotation":[0.0,0.0,0.05365593731403351,0.9985594749450684],"scale":[0.734000027179718,1.0,1.0352201461791993],"mesh":5,"name":"node1001.002"},{"translation":[0.053069937974214557,1.9032610654830933,-15.05457592010498],"rotation":[0.0,0.0,-0.036413829773664477,0.9993367791175842],"scale":[0.7329999804496765,1.0,1.034999966621399],"mesh":6,"name":"node1001.003"},{"translation":[0.0,0.0,7.089040279388428],"name":"Windows.001","children":[26,27]}],"scene":0,"scenes":[{"nodes":[25,28],"name":"Scene"}],"textures":[{"extensions":{"MSFT_texture_dds":{"source":0}}},{"extensions":{"MSFT_texture_dds":{"source":1}}},{"extensions":{"MSFT_texture_dds":{"source":2}}},{"extensions":{"MSFT_texture_dds":{"source":3}}},{"extensions":{"MSFT_texture_dds":{"source":4}}},{"extensions":{"MSFT_texture_dds":{"source":5}}}],"samplers":[{"magFilter":9729,"minFilter":9987,"wrapS":10497,"wrapT":10497}],"extensionsUsed":["ASOBO_normal_map_convention","MSFT_texture_dds","ASOBO_asset_optimized"],"buffers":[{"byteLength":193196,"uri":"ATR_72_600_LOD1.bin"}],"images":[{"uri":"ATR-72-500_M.PNG.DDS","name":"atr-72-500_m","extras":"ASOBO_image_converted_meta"},{"uri":"OSP_ATR_72_500_T.PNG.DDS","name":"osp_atr_72_500_t","extras":"ASOBO_image_converted_meta"},{"uri":"PORTHOLE_1638_EMISSIVETEX_.PNG.DDS","name":"PortHole_1638_EmissiveTex.","extras":"ASOBO_image_converted_meta"},{"uri":"PORTHOLE_1638_NORMALTEX_.PNG.DDS","name":"PortHole_1638_NormalTex.","extras":"ASOBO_image_converted_meta"},{"uri":"PORTHOLE_1638_OCCLUSIONROUGHNESSMETALLICTEX_.PNG.DDS","name":"PortHole_1638_OcclusionRoughnessMetallicTex.","extras":"ASOBO_image_converted_meta"},{"uri":"PORTHOLE_1638_BASECOLORTEX_.PNG.DDS","name":"PortHole_1638_BaseColorTex.","extras":"ASOBO_image_converted_meta"}]}
