{"accessors":[{"bufferView":0,"componentType":5126,"count":4801,"min":[0.0],"max":[200.0],"type":"SCALAR"},{"bufferView":1,"componentType":5126,"count":4801,"type":"VEC4"},{"bufferView":2,"componentType":5126,"count":378,"min":[-32.461669921875,-3.398360013961792,-38.4432487487793],"max":[32.4616813659668,14.59276008605957,31.44281005859375],"type":"VEC3","name":"part000.001_vertices#0_POSITION"},{"bufferView":2,"byteOffset":12,"componentType":5120,"count":378,"type":"VEC4","name":"part000.001_vertices#0_TANGENT"},{"bufferView":2,"byteOffset":16,"componentType":5120,"count":378,"type":"VEC4","name":"part000.001_vertices#0_NORMAL"},{"bufferView":2,"byteOffset":20,"componentType":5122,"count":378,"type":"VEC2","name":"part000.001_vertices#0_TEXCOORD_0"},{"bufferView":2,"byteOffset":24,"componentType":5122,"count":378,"type":"VEC2","name":"part000.001_vertices#0_TEXCOORD_1"},{"bufferView":2,"byteOffset":28,"componentType":5123,"count":378,"type":"VEC4","name":"part000.001_vertices#0_COLOR_0"},{"bufferView":3,"componentType":5123,"count":444,"type":"SCALAR","name":"part000.001_indices#0"}],"animations":[{"name":"custom_anim_GEAR_ANIMATION_POSITION_0_00","channels":[{"sampler":0,"target":{"node":4,"path":"rotation"}}],"samplers":[{"input":0,"output":1,"interpolation":"LINEAR"}]}],"asset":{"generator":"Extended Khronos glTF Blender I/O v1.0.0","version":"2.0","extensions":{"ASOBO_asset_optimized":{"BoundingBoxMax":[32.4616813659668,14.59276008605957,31.44281005859375],"BoundingBoxMin":[-32.461669921875,-3.398360013961792,-38.4432487487793],"MajorVersion":4,"MinorVersion":3,"UseCheckerboardMaterialForMissingTextures":true},"ASOBO_normal_map_convention":{"tangent_space_convention":"DirectX"}}},"bufferViews":[{"buffer":0,"byteLength":19204},{"buffer":0,"byteLength":76816,"byteOffset":19204},{"buffer":0,"byteLength":13608,"byteStride":36,"byteOffset":96020,"target":34962,"name":"BufferViewVertexND"},{"buffer":0,"byteLength":888,"byteOffset":109628,"target":34963,"name":"BufferViewIndex"}],"extensionsRequired":["MSFT_texture_dds"],"materials":[{"name":"livery","occlusionTexture":{"index":0},"pbrMetallicRoughness":{"baseColorTexture":{"index":1},"metallicRoughnessTexture":{"index":0}}}],"meshes":[{"primitives":[{"attributes":{"COLOR_0":7,"NORMAL":4,"POSITION":2,"TANGENT":3,"TEXCOORD_0":5,"TEXCOORD_1":6},"indices":8,"material":0,"mode":4,"extras":{"ASOBO_primitive":{"PrimitiveCount":148,"VertexType":"VTX","VertexVersion":2}}}],"name":"part000.001"}],"nodes":[{"mesh":0,"name":"node1.001"},{"translation":[31.54022979736328,1.3457889556884766,-14.174869537353516],"rotation":[0.7070785164833069,0.011226123198866845,0.01244804635643959,0.7069363594055176],"name":"node10.005"},{"translation":[0.13162000477313996,0.1794029325246811,-0.7258257269859314],"rotation":[0.0,0.9981347918510436,-0.06104837730526924,0.0],"name":"node14.005"},{"translation":[-0.13162299990653993,0.1794029325246811,-0.7258257269859314],"rotation":[0.0,0.9981347918510436,-0.06104837730526924,0.0],"name":"node15.005"},{"name":"node13_anim_custom_anim_GEAR_ANIMATION_POSITION_0_00.001","children":[2,3]},{"translation":[0.0,24.255300521850584,-1.3523390293121338],"rotation":[0.866025447845459,0.0,0.0,0.4999999105930328],"name":"node13.005","children":[4]},{"translation":[12.686017990112305,0.0,0.0],"rotation":[-0.004771576263010502,-0.0012650868156924844,0.01059697475284338,0.9999316930770874],"name":"node18.005"},{"translation":[9.727595329284668,0.0,0.0],"rotation":[-0.01374086830765009,0.010133656673133372,-0.0195138081908226,0.999663770198822],"name":"node17.005","children":[6]},{"translation":[3.509906053543091,8.310691833496094,0.48594000935554507],"rotation":[0.006834275554865599,0.01987610943615437,0.3250889480113983,-0.9454498291015624],"name":"node16.005","children":[7]},{"translation":[12.686017990112305,-0.0000030000005608599169,-0.000005999997483741026],"rotation":[0.004771576263010502,-0.0012650868156924844,-0.010596725158393385,0.9999316930770874],"name":"node21.005"},{"translation":[9.727594375610352,0.00002199999835283961,0.0],"rotation":[0.01374086830765009,0.010133656673133372,0.019514309242367746,0.999663770198822],"name":"node20.005","children":[9]},{"translation":[-3.5099029541015627,8.310691833496094,0.48594000935554507],"rotation":[0.019876521080732347,0.0068343160673975948,0.9454498291015624,-0.3250889480113983],"name":"node19.005","children":[10]},{"translation":[9.727596282958985,0.0,0.0],"rotation":[-0.01374086830765009,0.010133657604455948,-0.019514057785272599,0.999663770198822],"name":"node23.005"},{"translation":[12.686017990112305,0.000002000000222324161,0.0],"rotation":[-0.004771576263010502,-0.0012650868156924844,0.01059697475284338,0.9999316930770874],"name":"node25.005"},{"translation":[9.727596282958985,0.0,0.0],"rotation":[-0.01374086830765009,0.010133657604455948,-0.019514057785272599,0.999663770198822],"name":"node24.005","children":[13]},{"translation":[3.509906053543091,8.310691833496094,0.48594000935554507],"rotation":[0.006834275554865599,0.01987610943615437,0.3250889480113983,-0.9454498291015624],"name":"node22.005","children":[12,14]},{"translation":[9.727593421936036,0.000022000011085765437,0.0],"rotation":[0.01374086830765009,0.010133656673133372,0.019514309242367746,0.999663770198822],"name":"node27.005"},{"translation":[12.686017990112305,-0.0000030000023798493204,-0.000005999997483741026],"rotation":[0.004771576263010502,-0.0012650868156924844,-0.010596725158393385,0.9999316930770874],"name":"node29.005"},{"translation":[9.727593421936036,0.000022000011085765437,0.0],"rotation":[0.01374086830765009,0.010133656673133372,0.019514309242367746,0.999663770198822],"name":"node28.005","children":[17]},{"translation":[-3.5099029541015627,8.310691833496094,0.48594000935554507],"rotation":[0.019876522943377496,0.006834316533058882,0.9454497694969176,-0.32508912682533266],"name":"node26.005","children":[16,18]},{"translation":[9.727595329284668,0.0,0.0],"rotation":[-0.01374086830765009,0.010133656673133372,-0.0195138081908226,0.999663770198822],"name":"node31.005"},{"translation":[12.686017990112305,0.0000030000005608599169,0.0],"rotation":[-0.004771576263010502,-0.0012650868156924844,0.01059697475284338,0.9999316930770874],"name":"node33.005"},{"translation":[9.727595329284668,0.0,0.0],"rotation":[-0.01374086830765009,0.010133656673133372,-0.0195138081908226,0.999663770198822],"name":"node32.005","children":[21]},{"translation":[3.509906053543091,8.310691833496094,0.48594000935554507],"rotation":[0.006834275554865599,0.01987610943615437,0.3250889480113983,-0.9454498291015624],"name":"node30.005","children":[20,22]},{"translation":[9.727593421936036,0.000022000011085765437,0.0],"rotation":[0.01374086830765009,0.010133656673133372,0.019514309242367746,0.999663770198822],"name":"node35.005"},{"translation":[12.686017990112305,-0.000004000003173132427,-0.000005999997483741026],"rotation":[0.004771576263010502,-0.0012650868156924844,-0.010596725158393385,0.9999316930770874],"name":"node37.005"},{"translation":[9.727593421936036,0.000022000011085765437,0.0],"rotation":[0.01374086830765009,0.010133656673133372,0.019514309242367746,0.999663770198822],"name":"node36.005","children":[25]},{"translation":[-3.5099029541015627,8.310691833496094,0.48594000935554507],"rotation":[0.019876522943377496,0.006834316533058882,0.9454497694969176,-0.32508912682533266],"name":"node34.005","children":[24,26]},{"translation":[9.727595329284668,0.0,0.0],"rotation":[-0.01374086830765009,0.010133656673133372,-0.0195138081908226,0.999663770198822],"name":"node39.005"},{"translation":[12.686017990112305,0.000002000000222324161,0.0],"rotation":[-0.004771576263010502,-0.0012650868156924844,0.01059697475284338,0.9999316930770874],"name":"node41.005"},{"translation":[9.727595329284668,0.0,0.0],"rotation":[-0.01374086830765009,0.010133656673133372,-0.0195138081908226,0.999663770198822],"name":"node40.005","children":[29]},{"translation":[3.509906053543091,8.310691833496094,0.48594000935554507],"rotation":[0.006834275554865599,0.01987610943615437,0.3250889480113983,-0.9454498291015624],"name":"node38.005","children":[28,30]},{"translation":[9.727593421936036,0.00002199999835283961,0.0],"rotation":[0.01374086830765009,0.010133656673133372,0.019514309242367746,0.999663770198822],"name":"node43.005"},{"translation":[12.686017990112305,-0.0000030000005608599169,-0.000005999997483741026],"rotation":[0.004771576263010502,-0.0012650868156924844,-0.010596725158393385,0.9999316930770874],"name":"node45.005"},{"translation":[9.727593421936036,0.00002199999835283961,0.0],"rotation":[0.01374086830765009,0.010133656673133372,0.019514309242367746,0.999663770198822],"name":"node44.005","children":[33]},{"translation":[-3.5099029541015627,8.310691833496094,0.48594000935554507],"rotation":[0.019876521080732347,0.0068343160673975948,0.9454498291015624,-0.3250889480113983],"name":"node42.005","children":[32,34]},{"rotation":[0.0,0.0,1.0,6.123234262925839e-17],"name":"node12.005","children":[5,8,11,15,19,23,27,31,35]},{"rotation":[0.7071067690849304,0.0,0.0,-0.7071067690849304],"name":"node11.005","children":[36]},{"translation":[-5.937849998474121,-0.12784400582313538,8.874451637268067],"rotation":[0.7071067690849304,0.0,0.0,0.7071067690849304],"name":"node2.005"},{"translation":[-5.413430213928223,-0.17235800623893739,9.414166450500489],"rotation":[0.7071067690849304,0.0,0.0,0.7071067690849304],"name":"node3.005"},{"translation":[5.413427829742432,-0.17235800623893739,9.414166450500489],"rotation":[0.7071067690849304,0.0,0.0,0.7071067690849304],"name":"node4.005"},{"translation":[5.937849998474121,-0.12784400582313538,8.874451637268067],"rotation":[0.7071067690849304,0.0,0.0,0.7071067690849304],"name":"node5.005"},{"translation":[0.0,2.8850560188293459,-36.31158828735352],"rotation":[0.7128695249557495,0.006645675748586655,0.0077040777541697029,0.701222836971283],"name":"node6.005"},{"translation":[-31.461109161376954,1.3507169485092164,-13.941069602966309],"rotation":[0.7070785164833069,-0.01122576929628849,-0.01244804635643959,0.7069363594055176],"name":"node7.005"},{"translation":[-31.540260314941408,1.3457870483398438,-14.174839973449709],"rotation":[0.7070785164833069,-0.01122576929628849,-0.01244804635643959,0.7069363594055176],"name":"node8.005"},{"translation":[31.46108055114746,1.350718975067139,-13.941100120544434],"rotation":[0.7070785164833069,0.011226123198866845,0.01244804635643959,0.7069363594055176],"name":"node9.005"},{"name":"node0.005","children":[0,1,37,38,39,40,41,42,43,44,45]}],"scene":0,"scenes":[{"nodes":[46],"name":"Scene"}],"textures":[{"extensions":{"MSFT_texture_dds":{"source":0}}},{"extensions":{"MSFT_texture_dds":{"source":1}}}],"extensionsUsed":["ASOBO_normal_map_convention","MSFT_texture_dds","ASOBO_asset_optimized"],"buffers":[{"byteLength":110516,"uri":"FAIB_B7474F_RR_LOD5.bin"}],"images":[{"uri":"FAIB_B744_M.PNG.DDS","name":"FAIB_B744_M","extras":"ASOBO_image_converted_meta"},{"uri":"FAIB_B7474F_RR_T.PNG.DDS","name":"FAIB_B7474F_RR_T","extras":"ASOBO_image_converted_meta"}]}
