{"accessors":[{"bufferView":0,"componentType":5126,"count":2401,"min":[0.0],"max":[100.0],"type":"SCALAR"},{"bufferView":1,"componentType":5126,"count":2401,"type":"VEC4"},{"bufferView":2,"componentType":5126,"count":2401,"type":"VEC4"},{"bufferView":3,"componentType":5126,"count":2401,"type":"VEC3"},{"bufferView":4,"componentType":5126,"count":2401,"type":"VEC4"},{"bufferView":5,"componentType":5126,"count":2401,"type":"VEC3"},{"bufferView":6,"componentType":5126,"count":2401,"type":"VEC4"},{"bufferView":7,"componentType":5126,"count":2401,"type":"VEC3"},{"bufferView":8,"componentType":5126,"count":2401,"type":"VEC4"},{"bufferView":9,"componentType":5126,"count":2401,"type":"VEC3"},{"bufferView":10,"componentType":5126,"count":2401,"type":"VEC4"},{"bufferView":11,"componentType":5126,"count":2401,"type":"VEC3"},{"bufferView":12,"componentType":5126,"count":2401,"type":"VEC4"},{"bufferView":13,"componentType":5126,"count":2401,"type":"VEC3"},{"bufferView":14,"componentType":5126,"count":2401,"type":"VEC4"},{"bufferView":15,"componentType":5126,"count":2401,"type":"VEC3"},{"bufferView":16,"componentType":5126,"count":2401,"type":"VEC4"},{"bufferView":17,"componentType":5126,"count":2401,"type":"VEC3"},{"bufferView":18,"componentType":5126,"count":2401,"type":"VEC4"},{"bufferView":19,"componentType":5126,"count":4801,"min":[0.0],"max":[200.0],"type":"SCALAR"},{"bufferView":20,"componentType":5126,"count":4801,"type":"VEC4"},{"bufferView":21,"componentType":5126,"count":332,"min":[-17.697790145874025,-2.760159969329834,-23.666000366210939],"max":[17.697790145874025,8.408300399780274,20.532459259033204],"type":"VEC3","name":"part000.001_vertices#0_POSITION"},{"bufferView":21,"byteOffset":12,"componentType":5120,"count":332,"type":"VEC4","name":"part000.001_vertices#0_TANGENT"},{"bufferView":21,"byteOffset":16,"componentType":5120,"count":332,"type":"VEC4","name":"part000.001_vertices#0_NORMAL"},{"bufferView":21,"byteOffset":20,"componentType":5122,"count":332,"type":"VEC2","name":"part000.001_vertices#0_TEXCOORD_0"},{"bufferView":21,"byteOffset":24,"componentType":5122,"count":332,"type":"VEC2","name":"part000.001_vertices#0_TEXCOORD_1"},{"bufferView":21,"byteOffset":28,"componentType":5123,"count":332,"type":"VEC4","name":"part000.001_vertices#0_COLOR_0"},{"bufferView":22,"componentType":5123,"count":450,"type":"SCALAR","name":"part000.001_indices#0"}],"animations":[{"name":"custom_anim_WING_FLEX_PCT_2_08","channels":[{"sampler":0,"target":{"node":18,"path":"rotation"}},{"sampler":1,"target":{"node":14,"path":"rotation"}}],"samplers":[{"input":0,"output":1,"interpolation":"LINEAR"},{"input":0,"output":2,"interpolation":"LINEAR"}]},{"name":"custom_anim_SIM_ON_GROUND_06","channels":[{"sampler":0,"target":{"node":12,"path":"translation"}},{"sampler":1,"target":{"node":12,"path":"rotation"}},{"sampler":2,"target":{"node":16,"path":"translation"}},{"sampler":3,"target":{"node":16,"path":"rotation"}},{"sampler":4,"target":{"node":26,"path":"translation"}},{"sampler":5,"target":{"node":26,"path":"rotation"}},{"sampler":6,"target":{"node":29,"path":"translation"}},{"sampler":7,"target":{"node":29,"path":"rotation"}},{"sampler":8,"target":{"node":31,"path":"translation"}},{"sampler":9,"target":{"node":31,"path":"rotation"}},{"sampler":10,"target":{"node":34,"path":"translation"}},{"sampler":11,"target":{"node":34,"path":"rotation"}},{"sampler":12,"target":{"node":37,"path":"translation"}},{"sampler":13,"target":{"node":37,"path":"rotation"}},{"sampler":14,"target":{"node":39,"path":"translation"}},{"sampler":15,"target":{"node":39,"path":"rotation"}}],"samplers":[{"input":0,"output":3,"interpolation":"LINEAR"},{"input":0,"output":4,"interpolation":"LINEAR"},{"input":0,"output":5,"interpolation":"LINEAR"},{"input":0,"output":6,"interpolation":"LINEAR"},{"input":0,"output":7,"interpolation":"LINEAR"},{"input":0,"output":8,"interpolation":"LINEAR"},{"input":0,"output":9,"interpolation":"LINEAR"},{"input":0,"output":10,"interpolation":"LINEAR"},{"input":0,"output":11,"interpolation":"LINEAR"},{"input":0,"output":12,"interpolation":"LINEAR"},{"input":0,"output":13,"interpolation":"LINEAR"},{"input":0,"output":14,"interpolation":"LINEAR"},{"input":0,"output":15,"interpolation":"LINEAR"},{"input":0,"output":16,"interpolation":"LINEAR"},{"input":0,"output":17,"interpolation":"LINEAR"},{"input":0,"output":18,"interpolation":"LINEAR"}]},{"name":"custom_anim_GEAR_ANIMATION_POSITION_0_00","channels":[{"sampler":0,"target":{"node":44,"path":"rotation"}}],"samplers":[{"input":19,"output":20,"interpolation":"LINEAR"}]}],"asset":{"generator":"Extended Khronos glTF Blender I/O v1.0.0","version":"2.0","extensions":{"ASOBO_asset_optimized":{"BoundingBoxMax":[17.697790145874025,8.408300399780274,20.532459259033204],"BoundingBoxMin":[-17.697790145874025,-2.760159969329834,-23.666000366210939],"MajorVersion":4,"MinorVersion":2},"ASOBO_normal_map_convention":{"tangent_space_convention":"DirectX"}}},"bufferViews":[{"buffer":0,"byteLength":9604},{"buffer":0,"byteLength":38416,"byteOffset":9604},{"buffer":0,"byteLength":38416,"byteOffset":48020},{"buffer":0,"byteLength":28812,"byteOffset":86436},{"buffer":0,"byteLength":38416,"byteOffset":115248},{"buffer":0,"byteLength":28812,"byteOffset":153664},{"buffer":0,"byteLength":38416,"byteOffset":182476},{"buffer":0,"byteLength":28812,"byteOffset":220892},{"buffer":0,"byteLength":38416,"byteOffset":249704},{"buffer":0,"byteLength":28812,"byteOffset":288120},{"buffer":0,"byteLength":38416,"byteOffset":316932},{"buffer":0,"byteLength":28812,"byteOffset":355348},{"buffer":0,"byteLength":38416,"byteOffset":384160},{"buffer":0,"byteLength":28812,"byteOffset":422576},{"buffer":0,"byteLength":38416,"byteOffset":451388},{"buffer":0,"byteLength":28812,"byteOffset":489804},{"buffer":0,"byteLength":38416,"byteOffset":518616},{"buffer":0,"byteLength":28812,"byteOffset":557032},{"buffer":0,"byteLength":38416,"byteOffset":585844},{"buffer":0,"byteLength":19204,"byteOffset":624260},{"buffer":0,"byteLength":76816,"byteOffset":643464},{"buffer":0,"byteLength":11952,"byteStride":36,"byteOffset":720280,"target":34962,"name":"BufferViewVertexND"},{"buffer":0,"byteLength":900,"byteOffset":732232,"target":34963,"name":"BufferViewIndex"}],"extensionsUsed":["ASOBO_normal_map_convention","MSFT_texture_dds","ASOBO_asset_optimized"],"extensionsRequired":["MSFT_texture_dds"],"materials":[{"name":"livery","occlusionTexture":{"index":0},"pbrMetallicRoughness":{"baseColorTexture":{"index":1},"metallicRoughnessTexture":{"index":0}}}],"meshes":[{"primitives":[{"attributes":{"COLOR_0":26,"NORMAL":23,"POSITION":21,"TANGENT":22,"TEXCOORD_0":24,"TEXCOORD_1":25},"indices":27,"material":0,"mode":4,"extras":{"ASOBO_primitive":{"PrimitiveCount":150,"VertexType":"VTX","VertexVersion":2}}}],"name":"part000.001"}],"nodes":[{"mesh":0,"name":"node1.001"},{"translation":[2.1423230171203615,-1.1279770135879517,0.020966000854969026],"rotation":[0.7071067690849304,0.0,0.0,0.7071067690849304],"name":"node2.001"},{"translation":[-2.1419999599456789,-1.1279770135879517,0.020966000854969026],"rotation":[0.7071067690849304,0.0,0.0,0.7071067690849304],"name":"node3.003"},{"translation":[17.006580352783204,0.9250040054321288,-4.166772842407227],"name":"node4.004"},{"translation":[17.48015022277832,1.2652419805526732,-4.6979899406433109],"name":"node5.004"},{"translation":[-17.006589889526368,0.9250059723854064,-4.166790962219238],"name":"node6.004"},{"translation":[-17.480159759521486,1.265244960784912,-4.698011875152588],"name":"node7.004"},{"translation":[8.469472885131836,0.00001200000406242907,0.0],"rotation":[-0.0001710004435153678,-0.0002690007968340069,-0.0023860069923102857,0.999997079372406],"name":"node13.004"},{"translation":[-5.852952003479004,1.166031002998352,0.07490400224924088],"rotation":[0.03459291160106659,0.008516963571310044,0.970386564731598,-0.2389155924320221],"name":"node12.004","children":[7]},{"translation":[8.469244003295899,0.0,0.0],"rotation":[0.00016975044854916632,-0.0002767507394310087,0.002366506028920412,0.9999971389770508],"name":"node15.004"},{"translation":[5.852952003479004,1.1660330295562745,0.07490400224924088],"rotation":[0.008516896516084671,0.03459261357784271,0.23890931904315949,-0.9703881740570068],"name":"node14.004","children":[9]},{"translation":[0.0,0.0,0.867946982383728],"name":"node11.004","children":[8,10]},{"name":"node18_anim_custom_anim_SIM_ON_GROUND_06"},{"translation":[3.345427989959717,-0.016105011105537416,-0.0005320002674125135],"rotation":[0.5011555552482605,0.49892136454582217,0.49866849184036257,0.5012487769126892],"name":"node18.004","children":[12]},{"name":"node17_anim_custom_anim_WING_FLEX_PCT_2_08","children":[13]},{"translation":[8.469255447387696,0.0,0.0],"rotation":[0.00016950044664554298,-0.0002767507394310087,0.002366506028920412,0.9999971389770508],"name":"node17.004","children":[14]},{"name":"node19_anim_custom_anim_SIM_ON_GROUND_06"},{"translation":[11.814720153808594,-0.00026700011221691966,0.0013170004822313786],"rotation":[0.4999203681945801,0.49988237023353579,0.5000768899917603,0.5001203417778015],"name":"node19.004","children":[16]},{"name":"node16_anim_custom_anim_WING_FLEX_PCT_2_08","children":[15,17]},{"translation":[5.852952003479004,1.1660319566726685,0.9428499937057496],"rotation":[0.008516853675246239,0.034592580050230029,0.2389095276594162,-0.970388114452362],"name":"node16.004","children":[18]},{"translation":[8.469244003295899,0.0,0.0],"rotation":[0.00016975044854916632,-0.0002767507394310087,0.002366506028920412,0.9999971389770508],"name":"node22.004"},{"translation":[5.852952003479004,1.1660330295562745,0.07490400224924088],"rotation":[0.008516896516084671,0.03459261357784271,0.23890931904315949,-0.9703881740570068],"name":"node21.004","children":[20]},{"translation":[8.46947193145752,0.00001200000406242907,0.0],"rotation":[-0.0001710004435153678,-0.0002690007968340069,-0.0023860069923102857,0.999997079372406],"name":"node24.004"},{"translation":[-5.852952003479004,1.166031002998352,0.07490400224924088],"rotation":[0.03459291160106659,0.008516963571310044,0.970386564731598,-0.2389155924320221],"name":"node23.004","children":[22]},{"translation":[0.0,0.0,0.867946982383728],"name":"node20.004","children":[21,23]},{"translation":[0.0,0.0,-0.867946982383728],"name":"node10.004","children":[11,19,24]},{"name":"node26_anim_custom_anim_SIM_ON_GROUND_06"},{"translation":[3.345431327819824,-0.016106009483337404,-0.000531000318005681],"rotation":[0.5011559128761292,0.4989212453365326,0.4986683428287506,0.5012486577033997],"name":"node26.004","children":[26]},{"translation":[13.335140228271485,-2.7559120655059816,0.6779652833938599],"rotation":[0.008499879390001297,0.03488220274448395,0.23660381138324736,-0.9709426164627076],"name":"node25.004","children":[27]},{"name":"node28_anim_custom_anim_SIM_ON_GROUND_06.002"},{"translation":[3.3450121879577638,0.016181010752916337,-0.0004850002587772906],"rotation":[0.5012590289115906,-0.4986651837825775,-0.4989120960235596,0.5011577606201172],"name":"node28.004","children":[29]},{"name":"node29_anim_custom_anim_SIM_ON_GROUND_06.001"},{"translation":[3.3450093269348146,0.016181010752916337,-0.0004830002726521343],"rotation":[0.5012591481208801,-0.49866530299186709,-0.4989117383956909,0.5011578798294067],"name":"node29.004","children":[31]},{"translation":[-13.335269927978516,-2.756114959716797,0.6779876947402954],"rotation":[0.034874338656663898,0.008497778326272965,0.9709460735321044,-0.23659098148345948],"name":"node27.004","children":[30,32]},{"name":"node31_anim_custom_anim_SIM_ON_GROUND_06.002"},{"translation":[11.814724922180176,-0.00026800011983141303,0.001318000489845872],"rotation":[0.49992021918296816,0.4998827278614044,0.5000767707824707,0.500120222568512],"name":"node31.004","children":[34]},{"translation":[5.852952003479004,1.1660319566726685,0.07490301132202149],"rotation":[0.008516834117472172,0.034592628479003909,0.2389091998338699,-0.9703881740570068],"name":"node30.004","children":[35]},{"name":"node33_anim_custom_anim_SIM_ON_GROUND_06.002"},{"translation":[11.814513206481934,0.0002350000577280298,0.0013110004365444184],"rotation":[0.5001164674758911,-0.5000795125961304,-0.49988600611686709,0.49991798400878909],"name":"node33.004","children":[37]},{"name":"node34_anim_custom_anim_SIM_ON_GROUND_06"},{"translation":[11.814513206481934,0.00023400006466545165,0.001313000451773405],"rotation":[0.5001164674758911,-0.5000795125961304,-0.49988600611686709,0.49991798400878909],"name":"node34.004","children":[39]},{"translation":[-5.852952003479004,1.1660319566726685,0.07490301132202149],"rotation":[0.034592900425195697,0.008516962639987469,0.9703866839408876,-0.23891526460647584],"name":"node32.004","children":[38,40]},{"translation":[-0.2142750024795532,0.2082510143518448,0.1228880062699318],"rotation":[0.0,0.7460572719573975,0.6658817529678345,0.0],"name":"node36.004"},{"translation":[0.21819500625133513,0.19571702182292936,0.12431500852108002],"rotation":[0.0,0.8410390019416809,0.540974497795105,0.0],"name":"node37.004"},{"name":"node35_anim_custom_anim_GEAR_ANIMATION_POSITION_0_00","children":[42,43]},{"translation":[0.0,15.240830421447754,-1.4777259826660157],"rotation":[0.10886706411838532,0.0,0.0,0.9940563440322876],"name":"node35.004","children":[44]},{"rotation":[0.0,0.0,1.0,6.123234262925839e-17],"name":"node9.004","children":[25,28,33,36,41,45]},{"rotation":[0.7071067690849304,0.0,0.0,-0.7071067690849304],"name":"node8.004","children":[46]},{"name":"node0.004","children":[0,1,2,3,4,5,6,47]}],"scene":0,"scenes":[{"nodes":[48],"name":"Scene"}],"textures":[{"extensions":{"MSFT_texture_dds":{"source":0}}},{"extensions":{"MSFT_texture_dds":{"source":1}}}],"buffers":[{"byteLength":733132,"uri":"FAIB_A321S_CFM_LOD4.bin"}],"images":[{"uri":"FAIB_A321_M.PNG.DDS","name":"FAIB_A321_M","extras":"ASOBO_image_converted_meta"},{"uri":"FAIB_A321S_CFM_T.PNG.DDS","name":"FAIB_A321S_CFM_T","extras":"ASOBO_image_converted_meta"}]}
