{"accessors":[{"bufferView":0,"componentType":5126,"count":102,"min":[-4.547959804534912,-0.6138899922370911,-4.7259840965271],"max":[4.526196002960205,1.3918039798736573,2.045712947845459],"type":"VEC3","name":"part000.004_vertices#0_POSITION"},{"bufferView":0,"byteOffset":12,"componentType":5120,"count":102,"type":"VEC4","name":"part000.004_vertices#0_TANGENT"},{"bufferView":0,"byteOffset":16,"componentType":5120,"count":102,"type":"VEC4","name":"part000.004_vertices#0_NORMAL"},{"bufferView":0,"byteOffset":20,"componentType":5122,"count":102,"type":"VEC2","name":"part000.004_vertices#0_TEXCOORD_0"},{"bufferView":0,"byteOffset":24,"componentType":5122,"count":102,"type":"VEC2","name":"part000.004_vertices#0_TEXCOORD_1"},{"bufferView":0,"byteOffset":28,"componentType":5123,"count":102,"type":"VEC4","name":"part000.004_vertices#0_COLOR_0"},{"bufferView":1,"componentType":5123,"count":102,"type":"SCALAR","name":"part000.004_indices#0"}],"asset":{"generator":"Extended Khronos glTF Blender I/O v1.0.0","version":"2.0","extensions":{"ASOBO_asset_optimized":{"BoundingBoxMax":[4.526196002960205,1.3918039798736573,2.045712947845459],"BoundingBoxMin":[-4.547959804534912,-0.6138899922370911,-4.7259840965271],"MajorVersion":4,"MinorVersion":3,"UseCheckerboardMaterialForMissingTextures":true},"ASOBO_normal_map_convention":{"tangent_space_convention":"DirectX"}}},"bufferViews":[{"buffer":0,"byteLength":3672,"byteStride":36,"target":34962,"name":"BufferViewVertexND"},{"buffer":0,"byteLength":204,"byteOffset":3672,"target":34963,"name":"BufferViewIndex"}],"extensionsRequired":["MSFT_texture_dds"],"materials":[{"name":"livery","occlusionTexture":{"index":0},"pbrMetallicRoughness":{"baseColorTexture":{"index":1},"metallicRoughnessTexture":{"index":0}}}],"meshes":[{"primitives":[{"attributes":{"COLOR_0":5,"NORMAL":2,"POSITION":0,"TANGENT":1,"TEXCOORD_0":3,"TEXCOORD_1":4},"indices":6,"material":0,"mode":4,"extras":{"ASOBO_primitive":{"PrimitiveCount":34,"VertexType":"VTX","VertexVersion":2}}}],"name":"part000.004"}],"nodes":[{"mesh":0,"name":"node1.004"},{"translation":[0.0004429999971762299,-0.2355539947748184,2.074618101119995],"rotation":[0.0,0.9914448857307434,0.13052615523338319,6.070848583860611e-17],"name":"node2.004"},{"translation":[0.0004429999971762299,-0.2355539947748184,2.074618101119995],"rotation":[0.0,0.9914448857307434,0.13052615523338319,6.070848583860611e-17],"name":"node3.002"},{"translation":[0.0004429999971762299,-0.2355539947748184,2.074618101119995],"rotation":[0.0,0.9914448857307434,0.13052615523338319,6.070848583860611e-17],"name":"node4.003"},{"name":"node0.004","children":[0,1,2,3]}],"scene":0,"scenes":[{"nodes":[4],"name":"Scene"}],"textures":[{"extensions":{"MSFT_texture_dds":{"source":0}}},{"extensions":{"MSFT_texture_dds":{"source":1}}}],"extensionsUsed":["ASOBO_normal_map_convention","MSFT_texture_dds","ASOBO_asset_optimized"],"buffers":[{"byteLength":3876,"uri":"pa28_180_LOD4.bin"}],"images":[{"uri":"PA28_180_M.PNG.DDS","name":"PA28_180_M","extras":"ASOBO_image_converted_meta"},{"uri":"PA28_180_T.PNG.DDS","name":"Pa28_180_t","extras":"ASOBO_image_converted_meta"}]}
