{"accessors":[{"bufferView":0,"componentType":5126,"count":4801,"min":[0.0],"max":[200.0],"type":"SCALAR"},{"bufferView":1,"componentType":5126,"count":4801,"type":"VEC3"},{"bufferView":2,"componentType":5126,"count":4801,"type":"VEC4"},{"bufferView":3,"componentType":5126,"count":4801,"type":"VEC3"},{"bufferView":4,"componentType":5126,"count":4801,"type":"VEC4"},{"bufferView":5,"componentType":5126,"count":4801,"type":"VEC3"},{"bufferView":6,"componentType":5126,"count":4801,"type":"VEC4"},{"bufferView":7,"componentType":5126,"count":4801,"type":"VEC3"},{"bufferView":8,"componentType":5126,"count":4801,"type":"VEC4"},{"bufferView":9,"componentType":5126,"count":4801,"type":"VEC3"},{"bufferView":10,"componentType":5126,"count":4801,"type":"VEC4"},{"bufferView":11,"componentType":5126,"count":4801,"type":"VEC3"},{"bufferView":12,"componentType":5126,"count":4801,"type":"VEC4"},{"bufferView":13,"componentType":5126,"count":4801,"type":"VEC4"},{"bufferView":14,"componentType":5126,"count":2401,"min":[0.0],"max":[100.0],"type":"SCALAR"},{"bufferView":15,"componentType":5126,"count":2401,"type":"VEC4"},{"bufferView":16,"componentType":5126,"count":176,"min":[-4.377098083496094,-0.6201859712600708,-4.733216762542725],"max":[4.397651195526123,1.3800840377807618,2.0494871139526369],"type":"VEC3","name":"part000.003_vertices#0_POSITION"},{"bufferView":16,"byteOffset":12,"componentType":5120,"count":176,"type":"VEC4","name":"part000.003_vertices#0_TANGENT"},{"bufferView":16,"byteOffset":16,"componentType":5120,"count":176,"type":"VEC4","name":"part000.003_vertices#0_NORMAL"},{"bufferView":16,"byteOffset":20,"componentType":5122,"count":176,"type":"VEC2","name":"part000.003_vertices#0_TEXCOORD_0"},{"bufferView":16,"byteOffset":24,"componentType":5122,"count":176,"type":"VEC2","name":"part000.003_vertices#0_TEXCOORD_1"},{"bufferView":16,"byteOffset":28,"componentType":5123,"count":176,"type":"VEC4","name":"part000.003_vertices#0_COLOR_0"},{"bufferView":17,"componentType":5123,"count":192,"type":"SCALAR","name":"part000.003_indices#0"},{"bufferView":16,"byteOffset":6336,"componentType":5126,"count":36,"min":[-0.013864999637007714,-0.2986173629760742,-0.9353078603744507],"max":[-0.013864999637007714,0.7082796692848206,-0.5646408796310425],"type":"VEC3","name":"part005.003_vertices#0_POSITION"},{"bufferView":16,"byteOffset":6348,"componentType":5120,"count":36,"type":"VEC4","name":"part005.003_vertices#0_TANGENT"},{"bufferView":16,"byteOffset":6352,"componentType":5120,"count":36,"type":"VEC4","name":"part005.003_vertices#0_NORMAL"},{"bufferView":16,"byteOffset":6356,"componentType":5122,"count":36,"type":"VEC2","name":"part005.003_vertices#0_TEXCOORD_0"},{"bufferView":16,"byteOffset":6360,"componentType":5122,"count":36,"type":"VEC2","name":"part005.003_vertices#0_TEXCOORD_1"},{"bufferView":16,"byteOffset":6364,"componentType":5123,"count":36,"type":"VEC4","name":"part005.003_vertices#0_COLOR_0"},{"bufferView":17,"byteOffset":384,"componentType":5123,"count":42,"type":"SCALAR","name":"part005.003_indices#0"},{"bufferView":16,"byteOffset":7632,"componentType":5126,"count":24,"min":[-1.3931889533996583,-0.37872785329818728,-0.038463983684778216],"max":[1.3931889533996583,0.3596368432044983,0.01955399289727211],"type":"VEC3","name":"part006.003_vertices#0_POSITION"},{"bufferView":16,"byteOffset":7644,"componentType":5120,"count":24,"type":"VEC4","name":"part006.003_vertices#0_TANGENT"},{"bufferView":16,"byteOffset":7648,"componentType":5120,"count":24,"type":"VEC4","name":"part006.003_vertices#0_NORMAL"},{"bufferView":16,"byteOffset":7652,"componentType":5122,"count":24,"type":"VEC2","name":"part006.003_vertices#0_TEXCOORD_0"},{"bufferView":16,"byteOffset":7656,"componentType":5122,"count":24,"type":"VEC2","name":"part006.003_vertices#0_TEXCOORD_1"},{"bufferView":16,"byteOffset":7660,"componentType":5123,"count":24,"type":"VEC4","name":"part006.003_vertices#0_COLOR_0"},{"bufferView":17,"byteOffset":468,"componentType":5123,"count":36,"type":"SCALAR","name":"part006.003_indices#0"},{"bufferView":16,"byteOffset":8496,"componentType":5126,"count":8,"min":[-0.03345400094985962,-0.09433099627494812,-0.13971300423145295],"max":[-0.03345400094985962,0.10749100148677826,0.20842799544334413],"type":"VEC3","name":"part003.002_vertices#0_POSITION"},{"bufferView":16,"byteOffset":8508,"componentType":5120,"count":8,"type":"VEC4","name":"part003.002_vertices#0_TANGENT"},{"bufferView":16,"byteOffset":8512,"componentType":5120,"count":8,"type":"VEC4","name":"part003.002_vertices#0_NORMAL"},{"bufferView":16,"byteOffset":8516,"componentType":5122,"count":8,"type":"VEC2","name":"part003.002_vertices#0_TEXCOORD_0"},{"bufferView":16,"byteOffset":8520,"componentType":5122,"count":8,"type":"VEC2","name":"part003.002_vertices#0_TEXCOORD_1"},{"bufferView":16,"byteOffset":8524,"componentType":5123,"count":8,"type":"VEC4","name":"part003.002_vertices#0_COLOR_0"},{"bufferView":17,"byteOffset":540,"componentType":5123,"count":12,"type":"SCALAR","name":"part003.002_indices#0"},{"bufferView":16,"byteOffset":8784,"componentType":5126,"count":28,"min":[0.0,-0.52640300989151,-0.18609599769115449],"max":[0.0,0.52640300989151,0.1799589991569519],"type":"VEC3","name":"part004.003_vertices#0_POSITION"},{"bufferView":16,"byteOffset":8796,"componentType":5120,"count":28,"type":"VEC4","name":"part004.003_vertices#0_TANGENT"},{"bufferView":16,"byteOffset":8800,"componentType":5120,"count":28,"type":"VEC4","name":"part004.003_vertices#0_NORMAL"},{"bufferView":16,"byteOffset":8804,"componentType":5122,"count":28,"type":"VEC2","name":"part004.003_vertices#0_TEXCOORD_0"},{"bufferView":16,"byteOffset":8808,"componentType":5122,"count":28,"type":"VEC2","name":"part004.003_vertices#0_TEXCOORD_1"},{"bufferView":16,"byteOffset":8812,"componentType":5123,"count":28,"type":"VEC4","name":"part004.003_vertices#0_COLOR_0"},{"bufferView":17,"byteOffset":564,"componentType":5123,"count":42,"type":"SCALAR","name":"part004.003_indices#0"},{"bufferView":16,"byteOffset":9792,"componentType":5126,"count":8,"min":[-0.03345400094985962,-0.09433099627494812,-0.13971300423145295],"max":[-0.03345400094985962,0.10749100148677826,0.20842799544334413],"type":"VEC3","name":"part001.003_vertices#0_POSITION"},{"bufferView":16,"byteOffset":9804,"componentType":5120,"count":8,"type":"VEC4","name":"part001.003_vertices#0_TANGENT"},{"bufferView":16,"byteOffset":9808,"componentType":5120,"count":8,"type":"VEC4","name":"part001.003_vertices#0_NORMAL"},{"bufferView":16,"byteOffset":9812,"componentType":5122,"count":8,"type":"VEC2","name":"part001.003_vertices#0_TEXCOORD_0"},{"bufferView":16,"byteOffset":9816,"componentType":5122,"count":8,"type":"VEC2","name":"part001.003_vertices#0_TEXCOORD_1"},{"bufferView":16,"byteOffset":9820,"componentType":5123,"count":8,"type":"VEC4","name":"part001.003_vertices#0_COLOR_0"},{"bufferView":17,"byteOffset":648,"componentType":5123,"count":12,"type":"SCALAR","name":"part001.003_indices#0"},{"bufferView":16,"byteOffset":10080,"componentType":5126,"count":28,"min":[0.0,-0.52640300989151,-0.18609599769115449],"max":[0.0,0.52640300989151,0.1799589991569519],"type":"VEC3","name":"part002_vertices#0_POSITION"},{"bufferView":16,"byteOffset":10092,"componentType":5120,"count":28,"type":"VEC4","name":"part002_vertices#0_TANGENT"},{"bufferView":16,"byteOffset":10096,"componentType":5120,"count":28,"type":"VEC4","name":"part002_vertices#0_NORMAL"},{"bufferView":16,"byteOffset":10100,"componentType":5122,"count":28,"type":"VEC2","name":"part002_vertices#0_TEXCOORD_0"},{"bufferView":16,"byteOffset":10104,"componentType":5122,"count":28,"type":"VEC2","name":"part002_vertices#0_TEXCOORD_1"},{"bufferView":16,"byteOffset":10108,"componentType":5123,"count":28,"type":"VEC4","name":"part002_vertices#0_COLOR_0"},{"bufferView":17,"byteOffset":672,"componentType":5123,"count":42,"type":"SCALAR","name":"part002_indices#0"}],"animations":[{"name":"custom_anim_GEAR_ANIMATION_POSITION_2_13","channels":[{"sampler":0,"target":{"node":20,"path":"translation"}},{"sampler":1,"target":{"node":20,"path":"rotation"}},{"sampler":2,"target":{"node":18,"path":"translation"}},{"sampler":3,"target":{"node":18,"path":"rotation"}},{"sampler":4,"target":{"node":16,"path":"translation"}},{"sampler":5,"target":{"node":16,"path":"rotation"}},{"sampler":6,"target":{"node":14,"path":"translation"}},{"sampler":7,"target":{"node":14,"path":"rotation"}},{"sampler":8,"target":{"node":12,"path":"translation"}},{"sampler":9,"target":{"node":12,"path":"rotation"}},{"sampler":10,"target":{"node":10,"path":"translation"}},{"sampler":11,"target":{"node":10,"path":"rotation"}}],"samplers":[{"input":0,"output":1,"interpolation":"LINEAR"},{"input":0,"output":2,"interpolation":"LINEAR"},{"input":0,"output":3,"interpolation":"LINEAR"},{"input":0,"output":4,"interpolation":"LINEAR"},{"input":0,"output":5,"interpolation":"LINEAR"},{"input":0,"output":6,"interpolation":"LINEAR"},{"input":0,"output":7,"interpolation":"LINEAR"},{"input":0,"output":8,"interpolation":"LINEAR"},{"input":0,"output":9,"interpolation":"LINEAR"},{"input":0,"output":10,"interpolation":"LINEAR"},{"input":0,"output":11,"interpolation":"LINEAR"},{"input":0,"output":12,"interpolation":"LINEAR"}]},{"name":"custom_anim_GEAR_CENTER_STEER_ANGLE_03","channels":[{"sampler":0,"target":{"node":4,"path":"rotation"}}],"samplers":[{"input":0,"output":13,"interpolation":"LINEAR"}]},{"name":"custom_anim_ELEVATOR_DEFLECTION_05","channels":[{"sampler":0,"target":{"node":7,"path":"rotation"}}],"samplers":[{"input":14,"output":15,"interpolation":"LINEAR"}]}],"asset":{"generator":"Extended Khronos glTF Blender I/O v1.0.0","version":"2.0","extensions":{"ASOBO_asset_optimized":{"BoundingBoxMax":[4.397651195526123,1.3800840377807618,2.0494871139526369],"BoundingBoxMin":[-4.377098083496094,-0.6201859712600708,-4.733216762542725],"MajorVersion":4,"MinorVersion":3,"UseCheckerboardMaterialForMissingTextures":true},"ASOBO_normal_map_convention":{"tangent_space_convention":"DirectX"}}},"bufferViews":[{"buffer":0,"byteLength":19204},{"buffer":0,"byteLength":57612,"byteOffset":19204},{"buffer":0,"byteLength":76816,"byteOffset":76816},{"buffer":0,"byteLength":57612,"byteOffset":153632},{"buffer":0,"byteLength":76816,"byteOffset":211244},{"buffer":0,"byteLength":57612,"byteOffset":288060},{"buffer":0,"byteLength":76816,"byteOffset":345672},{"buffer":0,"byteLength":57612,"byteOffset":422488},{"buffer":0,"byteLength":76816,"byteOffset":480100},{"buffer":0,"byteLength":57612,"byteOffset":556916},{"buffer":0,"byteLength":76816,"byteOffset":614528},{"buffer":0,"byteLength":57612,"byteOffset":691344},{"buffer":0,"byteLength":76816,"byteOffset":748956},{"buffer":0,"byteLength":76816,"byteOffset":825772},{"buffer":0,"byteLength":9604,"byteOffset":902588},{"buffer":0,"byteLength":38416,"byteOffset":912192},{"buffer":0,"byteLength":11088,"byteStride":36,"byteOffset":950608,"target":34962,"name":"BufferViewVertexND"},{"buffer":0,"byteLength":756,"byteOffset":961696,"target":34963,"name":"BufferViewIndex"}],"extensionsRequired":["MSFT_texture_dds"],"materials":[{"name":"livery","occlusionTexture":{"index":0},"pbrMetallicRoughness":{"baseColorTexture":{"index":1},"metallicRoughnessTexture":{"index":0}}}],"meshes":[{"primitives":[{"attributes":{"COLOR_0":21,"NORMAL":18,"POSITION":16,"TANGENT":17,"TEXCOORD_0":19,"TEXCOORD_1":20},"indices":22,"material":0,"mode":4,"extras":{"ASOBO_primitive":{"PrimitiveCount":64,"VertexType":"VTX","VertexVersion":2}}}],"name":"part000.003"},{"primitives":[{"attributes":{"COLOR_0":28,"NORMAL":25,"POSITION":23,"TANGENT":24,"TEXCOORD_0":26,"TEXCOORD_1":27},"indices":29,"material":0,"mode":4,"extras":{"ASOBO_primitive":{"PrimitiveCount":14,"VertexType":"VTX","VertexVersion":2}}}],"name":"part005.003"},{"primitives":[{"attributes":{"COLOR_0":35,"NORMAL":32,"POSITION":30,"TANGENT":31,"TEXCOORD_0":33,"TEXCOORD_1":34},"indices":36,"material":0,"mode":4,"extras":{"ASOBO_primitive":{"PrimitiveCount":12,"VertexType":"VTX","VertexVersion":2}}}],"name":"part006.003"},{"primitives":[{"attributes":{"COLOR_0":49,"NORMAL":46,"POSITION":44,"TANGENT":45,"TEXCOORD_0":47,"TEXCOORD_1":48},"indices":50,"material":0,"mode":4,"extras":{"ASOBO_primitive":{"PrimitiveCount":14,"VertexType":"VTX","VertexVersion":2}}}],"name":"part004.003"},{"primitives":[{"attributes":{"COLOR_0":42,"NORMAL":39,"POSITION":37,"TANGENT":38,"TEXCOORD_0":40,"TEXCOORD_1":41},"indices":43,"material":0,"mode":4,"extras":{"ASOBO_primitive":{"PrimitiveCount":4,"VertexType":"VTX","VertexVersion":2}}}],"name":"part003.002"},{"primitives":[{"attributes":{"COLOR_0":63,"NORMAL":60,"POSITION":58,"TANGENT":59,"TEXCOORD_0":61,"TEXCOORD_1":62},"indices":64,"material":0,"mode":4,"extras":{"ASOBO_primitive":{"PrimitiveCount":14,"VertexType":"VTX","VertexVersion":2}}}],"name":"part002"},{"primitives":[{"attributes":{"COLOR_0":56,"NORMAL":53,"POSITION":51,"TANGENT":52,"TEXCOORD_0":54,"TEXCOORD_1":55},"indices":57,"material":0,"mode":4,"extras":{"ASOBO_primitive":{"PrimitiveCount":4,"VertexType":"VTX","VertexVersion":2}}}],"name":"part001.003"}],"nodes":[{"mesh":0,"name":"node1.003"},{"translation":[0.0004429999971762299,-0.2355539947748184,2.074618101119995],"rotation":[0.0,0.9914448857307434,0.13052615523338319,6.070848583860611e-17],"name":"node2.003"},{"translation":[0.0004429999971762299,-0.2355539947748184,2.074618101119995],"rotation":[0.0,0.9914448857307434,0.13052615523338319,6.070848583860611e-17],"name":"node3.001"},{"translation":[0.0004429999971762299,-0.2355539947748184,2.074618101119995],"rotation":[0.0,0.9914448857307434,0.13052615523338319,6.070848583860611e-17],"name":"node4.002"},{"mesh":1,"name":"node15_anim_custom_anim_GEAR_CENTER_STEER_ANGLE_03"},{"translation":[0.0,-0.008528999984264374,0.2147070020437241],"rotation":[0.0,-0.06990903615951538,0.9975533485412598,0.0],"name":"node15.003","children":[4]},{"translation":[-0.011195000261068344,1.137964963912964,-0.43444401025772097],"name":"node14.003","children":[5]},{"mesh":2,"name":"node17_anim_custom_anim_ELEVATOR_DEFLECTION_05"},{"translation":[-0.029072999954223634,-6.3476362228393559,-0.052685000002384189],"rotation":[0.1822356283664703,0.0,0.0,0.9832549095153808],"name":"node17.003","children":[7]},{"translation":[0.01879500038921833,2.1371800899505617,0.0007739997818134725],"name":"node16.003","children":[8]},{"mesh":3,"name":"node13_anim_custom_anim_GEAR_ANIMATION_POSITION_2_13.002"},{"translation":[0.07582300156354904,-0.1742430031299591,-0.3806290030479431],"name":"node13.003","children":[10]},{"mesh":4,"name":"node12_anim_custom_anim_GEAR_ANIMATION_POSITION_2_13.001","children":[11]},{"translation":[0.06258299946784973,0.0,0.1974249929189682],"name":"node12.003","children":[12]},{"name":"node11_anim_custom_anim_GEAR_ANIMATION_POSITION_2_13","children":[13]},{"translation":[1.3454550504684449,-0.2745729982852936,-0.8146650195121765],"name":"node11.003","children":[14]},{"mesh":5,"name":"node10_anim_custom_anim_GEAR_ANIMATION_POSITION_2_13"},{"translation":[-0.14223399758338929,-0.1742430031299591,-0.3806290030479431],"name":"node10.003","children":[16]},{"mesh":6,"name":"node9_anim_custom_anim_GEAR_ANIMATION_POSITION_2_13","children":[17]},{"translation":[0.00432500010356307,0.0,0.1974249929189682],"name":"node9.003","children":[18]},{"name":"node8_anim_custom_anim_GEAR_ANIMATION_POSITION_2_13","children":[19]},{"translation":[-1.3454550504684449,-0.2745729982852936,-0.8146650195121765],"name":"node8.003","children":[20]},{"translation":[0.00101500004529953,-0.35089990496635439,0.033904001116752627],"name":"node7.003","children":[15,21]},{"rotation":[0.0,0.0,1.0,6.123234262925839e-17],"name":"node6.003","children":[6,9,22]},{"rotation":[0.7071067690849304,0.0,0.0,-0.7071067690849304],"name":"node5.003","children":[23]},{"name":"node0.003","children":[0,1,2,3,24]}],"scene":0,"scenes":[{"nodes":[25],"name":"Scene"}],"textures":[{"extensions":{"MSFT_texture_dds":{"source":0}}},{"extensions":{"MSFT_texture_dds":{"source":1}}}],"extensionsUsed":["ASOBO_normal_map_convention","MSFT_texture_dds","ASOBO_asset_optimized"],"buffers":[{"byteLength":962452,"uri":"pa28_180_LOD3.bin"}],"images":[{"uri":"PA28_180_M.PNG.DDS","name":"PA28_180_M","extras":"ASOBO_image_converted_meta"},{"uri":"PA28_180_T.PNG.DDS","name":"Pa28_180_t","extras":"ASOBO_image_converted_meta"}]}
