{"accessors":[{"bufferView":0,"componentType":5126,"count":3,"min":[-7.078051567077637e-8,0.48564743995666506,-5.089682579040527],"max":[0.017667189240455629,0.5102522373199463,2.4535205364227297],"type":"VEC3","name":"x6_Shell_vertices#0_POSITION"},{"bufferView":0,"byteOffset":12,"componentType":5120,"count":3,"type":"VEC4","name":"x6_Shell_vertices#0_TANGENT"},{"bufferView":0,"byteOffset":16,"componentType":5120,"count":3,"type":"VEC4","name":"x6_Shell_vertices#0_NORMAL"},{"bufferView":0,"byteOffset":20,"componentType":5122,"count":3,"type":"VEC2","name":"x6_Shell_vertices#0_TEXCOORD_0"},{"bufferView":0,"byteOffset":24,"componentType":5122,"count":3,"type":"VEC2","name":"x6_Shell_vertices#0_TEXCOORD_1"},{"bufferView":0,"byteOffset":28,"componentType":5123,"count":3,"type":"VEC4","name":"x6_Shell_vertices#0_COLOR_0"},{"bufferView":1,"componentType":5123,"count":3,"type":"SCALAR","name":"x6_Shell_indices#0"}],"asset":{"generator":"babylon.js glTF exporter for 3dsmax 2019 v1.0.7954.30439","version":"2.0","extensions":{"ASOBO_asset_optimized":{"BoundingBoxMax":[0.017667189240455629,0.5102522373199463,2.4535205364227297],"BoundingBoxMin":[-7.078051567077637e-8,0.48564743995666506,-5.089682579040527],"MajorVersion":4,"MinorVersion":4,"UseCheckerboardMaterialForMissingTextures":true},"ASOBO_normal_map_convention":{"tangent_space_convention":"DirectX"}}},"bufferViews":[{"buffer":0,"byteLength":108,"byteStride":36,"target":34962,"name":"BufferViewVertexND"},{"buffer":0,"byteLength":6,"byteOffset":108,"target":34963,"name":"BufferViewIndex"}],"materials":[{"name":"Prop_Blur_Low","alphaMode":"BLEND","pbrMetallicRoughness":{"metallicFactor":0.0,"roughnessFactor":0.3}}],"meshes":[{"primitives":[{"attributes":{"COLOR_0":5,"NORMAL":2,"POSITION":0,"TANGENT":1,"TEXCOORD_0":3,"TEXCOORD_1":4},"indices":6,"material":0,"mode":4,"extras":{"ASOBO_primitive":{"PrimitiveCount":1,"VertexType":"VTX","VertexVersion":2}}}],"name":"x6_Shell"}],"nodes":[{"translation":[0.0,-0.55,-0.197],"mesh":0,"name":"Shell"},{"translation":[0.22695303,-0.3010049,0.0306411386],"name":"PILOT_0"},{"translation":[-0.22633943,-0.3010049,0.0306411386],"name":"PILOT_1"}],"scene":0,"scenes":[{"nodes":[0,1,2]}],"extensionsUsed":["ASOBO_normal_map_convention","ASOBO_asset_optimized"],"buffers":[{"byteLength":114,"uri":"Cessna172SP_AS1000_interior_LOD06.bin"}]}
