{"accessors":[{"bufferView":0,"componentType":5126,"count":60,"min":[-1.764107584953308,-0.2405117005109787,-2.438430070877075],"max":[1.0286024808883668,0.056858837604522708,0.7366161346435547],"type":"VEC3","name":"x6_SkiFrontShort_vertices#0_POSITION"},{"bufferView":0,"byteOffset":12,"componentType":5120,"count":60,"type":"VEC4","name":"x6_SkiFrontShort_vertices#0_TANGENT"},{"bufferView":0,"byteOffset":16,"componentType":5120,"count":60,"type":"VEC4","name":"x6_SkiFrontShort_vertices#0_NORMAL"},{"bufferView":0,"byteOffset":20,"componentType":5122,"count":60,"type":"VEC2","name":"x6_SkiFrontShort_vertices#0_TEXCOORD_0"},{"bufferView":0,"byteOffset":24,"componentType":5122,"count":60,"type":"VEC2","name":"x6_SkiFrontShort_vertices#0_TEXCOORD_1"},{"bufferView":0,"byteOffset":28,"componentType":5123,"count":60,"type":"VEC4","name":"x6_SkiFrontShort_vertices#0_COLOR_0"},{"bufferView":1,"componentType":5123,"count":72,"type":"SCALAR","name":"x6_SkiFrontShort_indices#0"},{"bufferView":0,"byteOffset":2160,"componentType":5126,"count":81,"min":[-5.448119163513184,-0.6619027853012085,-5.607239246368408],"max":[5.488659858703613,1.433988332748413,2.529879570007324],"type":"VEC3","name":"x6_Standard001_vertices#0_POSITION"},{"bufferView":0,"byteOffset":2172,"componentType":5120,"count":81,"type":"VEC4","name":"x6_Standard001_vertices#0_TANGENT"},{"bufferView":0,"byteOffset":2176,"componentType":5120,"count":81,"type":"VEC4","name":"x6_Standard001_vertices#0_NORMAL"},{"bufferView":0,"byteOffset":2180,"componentType":5122,"count":81,"type":"VEC2","name":"x6_Standard001_vertices#0_TEXCOORD_0"},{"bufferView":0,"byteOffset":2184,"componentType":5122,"count":81,"type":"VEC2","name":"x6_Standard001_vertices#0_TEXCOORD_1"},{"bufferView":0,"byteOffset":2188,"componentType":5123,"count":81,"type":"VEC4","name":"x6_Standard001_vertices#0_COLOR_0"},{"bufferView":1,"byteOffset":144,"componentType":5123,"count":159,"type":"SCALAR","name":"x6_Standard001_indices#0"}],"asset":{"generator":"babylon.js glTF exporter for 3dsmax 2019 v1.0.7921.20934","version":"2.0","extensions":{"ASOBO_asset_optimized":{"BoundingBoxMax":[5.488659858703613,1.433988332748413,2.529879570007324],"BoundingBoxMin":[-5.448119163513184,-0.6619027853012085,-5.607239246368408],"MajorVersion":4,"MinorVersion":4,"UseCheckerboardMaterialForMissingTextures":true},"ASOBO_normal_map_convention":{"tangent_space_convention":"DirectX"}}},"bufferViews":[{"buffer":0,"byteLength":5076,"byteStride":36,"target":34962,"name":"BufferViewVertexND"},{"buffer":0,"byteLength":462,"byteOffset":5076,"target":34963,"name":"BufferViewIndex"}],"extensionsRequired":["MSFT_texture_dds"],"materials":[{"name":"LOD6","pbrMetallicRoughness":{"metallicFactor":0.0,"roughnessFactor":0.2,"baseColorTexture":{"index":0}}}],"meshes":[{"primitives":[{"attributes":{"COLOR_0":5,"NORMAL":2,"POSITION":0,"TANGENT":1,"TEXCOORD_0":3,"TEXCOORD_1":4},"indices":6,"material":0,"mode":4,"extras":{"ASOBO_primitive":{"PrimitiveCount":24,"VertexType":"VTX","VertexVersion":2}}}],"name":"x6_SkiFrontShort"},{"primitives":[{"attributes":{"COLOR_0":12,"NORMAL":9,"POSITION":7,"TANGENT":8,"TEXCOORD_0":10,"TEXCOORD_1":11},"indices":13,"material":0,"mode":4,"extras":{"ASOBO_primitive":{"PrimitiveCount":53,"VertexType":"VTX","VertexVersion":2}}}],"name":"x6_Standard001"}],"nodes":[{"translation":[0.369926155,-1.09259641,1.28786135],"rotation":[-0.006362946,0.0,0.0,0.9999798],"scale":[1.0,0.99999994,0.99999994],"mesh":0,"name":"SkiFrontShort"},{"translation":[-0.0228350163,0.0,-0.175650343],"mesh":1,"name":"Standard001"}],"scene":0,"scenes":[{"nodes":[0,1]}],"textures":[{"extensions":{"MSFT_texture_dds":{"source":0}}}],"extensionsUsed":["ASOBO_normal_map_convention","MSFT_texture_dds","ASOBO_asset_optimized"],"buffers":[{"byteLength":5538,"uri":"Cessna172SP_LOD06.bin"}],"images":[{"uri":"C172SP_AIRFRAME_LOD6_ALBD.PNG.DDS","extras":"ASOBO_image_converted_meta"}]}
