{"accessors":[{"bufferView":0,"componentType":5126,"count":396,"min":[-0.5248253345489502,-0.05262070894241333,-1.5729721784591675],"max":[0.5252566933631897,1.2216728925704957,1.1836113929748536],"type":"VEC3","name":"x5_Shell_vertices#0_POSITION"},{"bufferView":0,"byteOffset":12,"componentType":5120,"count":396,"type":"VEC4","name":"x5_Shell_vertices#0_TANGENT"},{"bufferView":0,"byteOffset":16,"componentType":5120,"count":396,"type":"VEC4","name":"x5_Shell_vertices#0_NORMAL"},{"bufferView":0,"byteOffset":20,"componentType":5122,"count":396,"type":"VEC2","name":"x5_Shell_vertices#0_TEXCOORD_0"},{"bufferView":0,"byteOffset":24,"componentType":5122,"count":396,"type":"VEC2","name":"x5_Shell_vertices#0_TEXCOORD_1"},{"bufferView":0,"byteOffset":28,"componentType":5123,"count":396,"type":"VEC4","name":"x5_Shell_vertices#0_COLOR_0"},{"bufferView":1,"componentType":5123,"count":582,"type":"SCALAR","name":"x5_Shell_indices#0"},{"bufferView":0,"byteOffset":14256,"componentType":5126,"count":16,"min":[-0.3459702730178833,0.5060151815414429,0.0014495849609375],"max":[0.3459702730178833,0.5060334205627441,0.21598947048187257],"type":"VEC3","name":"x5_SunVisor_vertices#0_POSITION"},{"bufferView":0,"byteOffset":14268,"componentType":5120,"count":16,"type":"VEC4","name":"x5_SunVisor_vertices#0_TANGENT"},{"bufferView":0,"byteOffset":14272,"componentType":5120,"count":16,"type":"VEC4","name":"x5_SunVisor_vertices#0_NORMAL"},{"bufferView":0,"byteOffset":14276,"componentType":5122,"count":16,"type":"VEC2","name":"x5_SunVisor_vertices#0_TEXCOORD_0"},{"bufferView":0,"byteOffset":14280,"componentType":5122,"count":16,"type":"VEC2","name":"x5_SunVisor_vertices#0_TEXCOORD_1"},{"bufferView":0,"byteOffset":14284,"componentType":5123,"count":16,"type":"VEC4","name":"x5_SunVisor_vertices#0_COLOR_0"},{"bufferView":1,"byteOffset":1164,"componentType":5123,"count":42,"type":"SCALAR","name":"x5_SunVisor_indices#0"}],"asset":{"generator":"babylon.js glTF exporter for 3dsmax 2019 v1.0.7954.30439","version":"2.0","extensions":{"ASOBO_asset_optimized":{"BoundingBoxMax":[0.5252566933631897,1.2216728925704957,1.1836113929748536],"BoundingBoxMin":[-0.5248253345489502,-0.05262070894241333,-1.5729721784591675],"MajorVersion":4,"MinorVersion":4,"UseCheckerboardMaterialForMissingTextures":true},"ASOBO_normal_map_convention":{"tangent_space_convention":"DirectX"}}},"bufferViews":[{"buffer":0,"byteLength":14832,"byteStride":36,"target":34962,"name":"BufferViewVertexND"},{"buffer":0,"byteLength":1248,"byteOffset":14832,"target":34963,"name":"BufferViewIndex"}],"extensionsRequired":["MSFT_texture_dds"],"materials":[{"name":"Generic_LOD5","occlusionTexture":{"index":1},"pbrMetallicRoughness":{"baseColorTexture":{"index":0},"metallicRoughnessTexture":{"index":1}}},{"name":"SUN_VISOR","alphaMode":"BLEND","pbrMetallicRoughness":{"baseColorFactor":[0.035,0.076,0.052,0.85],"metallicFactor":0.0,"roughnessFactor":0.0},"extensions":{"ASOBO_material_draw_order":{"drawOrderOffset":1},"ASOBO_material_kitty_glass":{"glassReflectionMaskFactor":1.0}}}],"meshes":[{"primitives":[{"attributes":{"COLOR_0":5,"NORMAL":2,"POSITION":0,"TANGENT":1,"TEXCOORD_0":3,"TEXCOORD_1":4},"indices":6,"material":0,"mode":4,"extras":{"ASOBO_primitive":{"PrimitiveCount":194,"VertexType":"VTX","VertexVersion":2}}}],"name":"x5_Shell"},{"primitives":[{"attributes":{"COLOR_0":12,"NORMAL":9,"POSITION":7,"TANGENT":8,"TEXCOORD_0":10,"TEXCOORD_1":11},"indices":13,"material":1,"mode":4,"extras":{"ASOBO_primitive":{"PrimitiveCount":14,"VertexType":"VTX","VertexVersion":2}}}],"name":"x5_SunVisor"}],"nodes":[{"translation":[0.0,-0.55,-0.197],"mesh":0,"name":"Shell"},{"translation":[0.0,0.110739052,0.200067043],"mesh":1,"name":"SunVisor"},{"translation":[0.22695303,-0.3010049,0.0306411386],"name":"PILOT_0"},{"translation":[-0.22633943,-0.3010049,0.0306411386],"name":"PILOT_1"}],"scene":0,"scenes":[{"nodes":[0,1,2,3]}],"textures":[{"extensions":{"MSFT_texture_dds":{"source":0}}},{"extensions":{"MSFT_texture_dds":{"source":1}}}],"extensionsUsed":["ASOBO_normal_map_convention","ASOBO_material_draw_order","ASOBO_material_glass","ASOBO_material_kitty_glass","MSFT_texture_dds","ASOBO_asset_optimized"],"buffers":[{"byteLength":16080,"uri":"Cessna172SP_AS1000_interior_LOD05.bin"}],"images":[{"uri":"ATLAS_ALBD.PNG.DDS","extras":"ASOBO_image_converted_meta"},{"uri":"ATLAS_COMP.PNG.DDS","extras":"ASOBO_image_converted_meta"}]}
