{"accessors":[{"bufferView":0,"componentType":5126,"count":1921,"min":[0.0],"max":[80.0],"type":"SCALAR"},{"bufferView":1,"componentType":5126,"count":1921,"type":"VEC4"},{"bufferView":2,"componentType":5126,"count":3001,"min":[0.0],"max":[125.0],"type":"SCALAR"},{"bufferView":3,"componentType":5126,"count":3001,"type":"VEC3"},{"bufferView":4,"componentType":5126,"count":2401,"min":[100.0],"max":[200.0],"type":"SCALAR"},{"bufferView":5,"componentType":5126,"count":2401,"type":"VEC4"},{"bufferView":6,"componentType":5126,"count":196,"min":[-30.091999053955079,-3.6440000534057619,-32.071998596191409],"max":[30.091999053955079,13.36400032043457,31.88800048828125],"type":"VEC3","name":"part000.001_vertices#0_POSITION"},{"bufferView":6,"byteOffset":12,"componentType":5120,"count":196,"type":"VEC4","name":"part000.001_vertices#0_TANGENT"},{"bufferView":6,"byteOffset":16,"componentType":5120,"count":196,"type":"VEC4","name":"part000.001_vertices#0_NORMAL"},{"bufferView":6,"byteOffset":20,"componentType":5122,"count":196,"type":"VEC2","name":"part000.001_vertices#0_TEXCOORD_0"},{"bufferView":6,"byteOffset":24,"componentType":5122,"count":196,"type":"VEC2","name":"part000.001_vertices#0_TEXCOORD_1"},{"bufferView":6,"byteOffset":28,"componentType":5123,"count":196,"type":"VEC4","name":"part000.001_vertices#0_COLOR_0"},{"bufferView":7,"componentType":5123,"count":324,"type":"SCALAR","name":"part000.001_indices#0"}],"animations":[{"name":"custom_anim_GEAR_ANIMATION_POSITION_0_00","channels":[{"sampler":0,"target":{"node":4,"path":"rotation"}},{"sampler":1,"target":{"node":2,"path":"translation"}}],"samplers":[{"input":0,"output":1,"interpolation":"LINEAR"},{"input":2,"output":3,"interpolation":"LINEAR"}]},{"name":"custom_anim_SIM_ON_GROUND_01","channels":[{"sampler":0,"target":{"node":2,"path":"rotation"}}],"samplers":[{"input":4,"output":5,"interpolation":"LINEAR"}]}],"asset":{"generator":"Khronos glTF Blender I/O v1.8.19 and Asobo Studio MSFS Blender I/O v1.1.6","version":"2.0","extensions":{"ASOBO_asset_optimized":{"BoundingBoxMax":[30.091999053955079,13.36400032043457,31.88800048828125],"BoundingBoxMin":[-30.091999053955079,-3.6440000534057619,-32.071998596191409],"MajorVersion":4,"MinorVersion":4,"UseCheckerboardMaterialForMissingTextures":true,"UseOnlyFilenameForImageURI":true},"ASOBO_normal_map_convention":{"tangent_space_convention":"DirectX"}}},"bufferViews":[{"buffer":0,"byteLength":7684},{"buffer":0,"byteLength":30736,"byteOffset":7684},{"buffer":0,"byteLength":12004,"byteOffset":38420},{"buffer":0,"byteLength":36012,"byteOffset":50424},{"buffer":0,"byteLength":9604,"byteOffset":86436},{"buffer":0,"byteLength":38416,"byteOffset":96040},{"buffer":0,"byteLength":7056,"byteStride":36,"byteOffset":134456,"target":34962,"name":"BufferViewVertexND"},{"buffer":0,"byteLength":648,"byteOffset":141512,"target":34963,"name":"BufferViewIndex"}],"extensionsRequired":["MSFT_texture_dds"],"materials":[{"name":"Livery","occlusionTexture":{"index":0},"pbrMetallicRoughness":{"baseColorTexture":{"index":1},"metallicRoughnessTexture":{"index":0}}}],"meshes":[{"primitives":[{"attributes":{"COLOR_0":11,"NORMAL":8,"POSITION":6,"TANGENT":7,"TEXCOORD_0":9,"TEXCOORD_1":10},"indices":12,"material":0,"mode":4,"extras":{"ASOBO_primitive":{"PrimitiveCount":108,"VertexType":"VTX","VertexVersion":2}}}],"name":"part000.001"}],"nodes":[{"translation":[0.2331147193908691,2.4240074157714845,-0.1611018031835556],"rotation":[0.3520377278327942,0.10134340822696686,-0.038374751806259158,0.9296915531158448],"name":"takeoff_L"},{"translation":[-0.2790050506591797,2.4240055084228517,-0.04810863360762596],"rotation":[0.3520377278327942,0.10134340822696686,-0.038374751806259158,0.9296915531158448],"name":"takeoff_R"},{"rotation":[0.0,-0.7071068286895752,0.0,-0.7071068286895752],"name":"node12_anim_custom_anim_GEAR_ANIMATION_POSITION_0_00","children":[0,1]},{"name":"node12","children":[2]},{"rotation":[0.0,-0.1736479550600052,0.984807789325714,0.0],"name":"node11_anim_custom_anim_GEAR_ANIMATION_POSITION_0_00","children":[3]},{"translation":[0.00013105868129059672,-1.7111197710037232,1.1877360343933104],"name":"node11","children":[4]},{"translation":[0.0,27.5993595123291,-2.886291980743408],"name":"node10","children":[5]},{"rotation":[0.0,0.0,1.0,6.123234262925839e-17],"name":"node9","children":[6]},{"rotation":[0.7071068286895752,0.0,0.0,-0.7071068286895752],"name":"node8","children":[7]},{"name":"node0","children":[8]},{"mesh":0,"name":"node1.001"},{"translation":[0.25999999046325686,-2.190000057220459,26.25],"rotation":[0.0,0.7071068286895752,0.7071068286895752,4.3297809634577669e-17],"name":"node2.001"},{"translation":[-0.25999999046325686,-2.190000057220459,26.25],"rotation":[0.0,0.7071068286895752,0.7071068286895752,4.3297809634577669e-17],"name":"node3.001"},{"translation":[0.25999999046325686,-2.190000057220459,26.25],"rotation":[0.0,0.7071068286895752,0.7071068286895752,4.3297809634577669e-17],"name":"node4.001"},{"translation":[-0.25999999046325686,-2.190000057220459,26.25],"rotation":[0.0,0.7071068286895752,0.7071068286895752,4.3297809634577669e-17],"name":"node5.001"},{"translation":[3.630000114440918,-0.41999998688697817,10.010000228881836],"rotation":[0.0,0.7071068286895752,0.7071068286895752,4.3297809634577669e-17],"name":"node6.001"},{"translation":[-3.630000114440918,-0.41999998688697817,10.010000228881836],"rotation":[0.0,0.7071068286895752,0.7071068286895752,4.3297809634577669e-17],"name":"node7.001"},{"name":"node0.001","children":[10,11,12,13,14,15,16]},{"translation":[-6.265345573425293,-5.826789855957031,-1.8717834949493409],"name":"fx_tire_contactPoint_right_out"},{"translation":[-4.703694820404053,-5.826789855957031,-1.869848370552063],"name":"fx_tire_contactPoint_right_in"},{"translation":[6.278031826019287,-5.826789855957031,-1.9375221729278565],"name":"fx_tire_contactPoint_left_out"},{"translation":[4.704140663146973,-5.826789855957031,-1.912735939025879],"name":"fx_tire_contactPoint_left_in"},{"translation":[-0.4322144389152527,-4.980909824371338,25.841053009033204],"name":"fx_tire_contactPoint_center_right"},{"translation":[0.4524654150009155,-4.980909824371338,25.91092300415039],"name":"fx_tire_contactPoint_center_left"},{"translation":[-9.708500862121582,-2.1272239685058595,4.7406206130981449],"name":"FX_EXHAUST_RIGHT"},{"translation":[9.801159858703612,-2.1272239685058595,4.7406206130981449],"name":"FX_EXHAUST_LEFT"}],"scene":0,"scenes":[{"nodes":[9,17,18,19,20,21,22,23,24,25],"name":"Scene"}],"textures":[{"extensions":{"MSFT_texture_dds":{"source":0}}},{"extensions":{"MSFT_texture_dds":{"source":1}}}],"samplers":[{"magFilter":9729,"minFilter":9987,"wrapS":10497,"wrapT":10497}],"extensionsUsed":["ASOBO_normal_map_convention","MSFT_texture_dds","ASOBO_asset_optimized"],"buffers":[{"byteLength":142160,"uri":"B772_RR_LOD1.bin"}],"images":[{"uri":"TFS_B772RR_M.PNG.DDS","name":"TFS_B772RR_M","extras":"ASOBO_image_converted_meta"},{"uri":"TFS_B772RR_T.PNG.DDS","name":"TFS_B772RR_T","extras":"ASOBO_image_converted_meta"}]}
