{"accessors":[{"bufferView":0,"componentType":5126,"count":196,"min":[-30.091999053955079,-3.6440000534057619,-32.071998596191409],"max":[30.091999053955079,13.36400032043457,31.88800048828125],"type":"VEC3","name":"part000.001_vertices#0_POSITION"},{"bufferView":0,"byteOffset":12,"componentType":5120,"count":196,"type":"VEC4","name":"part000.001_vertices#0_TANGENT"},{"bufferView":0,"byteOffset":16,"componentType":5120,"count":196,"type":"VEC4","name":"part000.001_vertices#0_NORMAL"},{"bufferView":0,"byteOffset":20,"componentType":5122,"count":196,"type":"VEC2","name":"part000.001_vertices#0_TEXCOORD_0"},{"bufferView":0,"byteOffset":24,"componentType":5122,"count":196,"type":"VEC2","name":"part000.001_vertices#0_TEXCOORD_1"},{"bufferView":0,"byteOffset":28,"componentType":5123,"count":196,"type":"VEC4","name":"part000.001_vertices#0_COLOR_0"},{"bufferView":1,"componentType":5123,"count":324,"type":"SCALAR","name":"part000.001_indices#0"}],"asset":{"generator":"Khronos glTF Blender I/O v1.8.19 and Asobo Studio MSFS Blender I/O v1.1.6","version":"2.0","extensions":{"ASOBO_asset_optimized":{"BoundingBoxMax":[30.091999053955079,13.36400032043457,31.88800048828125],"BoundingBoxMin":[-30.091999053955079,-3.6440000534057619,-32.071998596191409],"MajorVersion":4,"MinorVersion":4,"UseCheckerboardMaterialForMissingTextures":true,"UseOnlyFilenameForImageURI":true},"ASOBO_normal_map_convention":{"tangent_space_convention":"DirectX"}}},"bufferViews":[{"buffer":0,"byteLength":7056,"byteStride":36,"target":34962,"name":"BufferViewVertexND"},{"buffer":0,"byteLength":648,"byteOffset":7056,"target":34963,"name":"BufferViewIndex"}],"extensionsRequired":["MSFT_texture_dds"],"materials":[{"name":"Livery","occlusionTexture":{"index":0},"pbrMetallicRoughness":{"baseColorTexture":{"index":1},"metallicRoughnessTexture":{"index":0}}}],"meshes":[{"primitives":[{"attributes":{"COLOR_0":5,"NORMAL":2,"POSITION":0,"TANGENT":1,"TEXCOORD_0":3,"TEXCOORD_1":4},"indices":6,"material":0,"mode":4,"extras":{"ASOBO_primitive":{"PrimitiveCount":108,"VertexType":"VTX","VertexVersion":2}}}],"name":"part000.001"}],"nodes":[{"mesh":0,"name":"node1.001"},{"translation":[0.25999999046325686,-2.190000057220459,26.25],"rotation":[0.0,0.7071068286895752,0.7071068286895752,4.3297809634577669e-17],"name":"node2.001"},{"translation":[-0.25999999046325686,-2.190000057220459,26.25],"rotation":[0.0,0.7071068286895752,0.7071068286895752,4.3297809634577669e-17],"name":"node3.001"},{"translation":[0.25999999046325686,-2.190000057220459,26.25],"rotation":[0.0,0.7071068286895752,0.7071068286895752,4.3297809634577669e-17],"name":"node4.001"},{"translation":[-0.25999999046325686,-2.190000057220459,26.25],"rotation":[0.0,0.7071068286895752,0.7071068286895752,4.3297809634577669e-17],"name":"node5.001"},{"translation":[3.630000114440918,-0.41999998688697817,10.010000228881836],"rotation":[0.0,0.7071068286895752,0.7071068286895752,4.3297809634577669e-17],"name":"node6.001"},{"translation":[-3.630000114440918,-0.41999998688697817,10.010000228881836],"rotation":[0.0,0.7071068286895752,0.7071068286895752,4.3297809634577669e-17],"name":"node7.001"},{"name":"node0.001","children":[0,1,2,3,4,5,6]}],"scene":0,"scenes":[{"nodes":[7],"name":"Scene"}],"textures":[{"extensions":{"MSFT_texture_dds":{"source":0}}},{"extensions":{"MSFT_texture_dds":{"source":1}}}],"samplers":[{"magFilter":9729,"minFilter":9987,"wrapS":10497,"wrapT":10497}],"extensionsUsed":["ASOBO_normal_map_convention","MSFT_texture_dds","ASOBO_asset_optimized"],"buffers":[{"byteLength":7704,"uri":"B772_RR_LOD1.bin"}],"images":[{"uri":"TFS_B772RR_M.PNG.DDS","name":"TFS_B772RR_M","extras":"ASOBO_image_converted_meta"},{"uri":"TFS_B772RR_T.PNG.DDS","name":"TFS_B772RR_T","extras":"ASOBO_image_converted_meta"}]}
