{"accessors":[{"bufferView":0,"componentType":5126,"count":1921,"min":[0.0],"max":[80.0],"type":"SCALAR"},{"bufferView":1,"componentType":5126,"count":1921,"type":"VEC4"},{"bufferView":2,"componentType":5126,"count":1921,"type":"VEC4"},{"bufferView":3,"componentType":5126,"count":2881,"min":[0.0],"max":[120.0],"type":"SCALAR"},{"bufferView":4,"componentType":5126,"count":2881,"type":"VEC3"},{"bufferView":5,"componentType":5126,"count":1921,"type":"VEC4"},{"bufferView":6,"componentType":5126,"count":1921,"type":"VEC4"},{"bufferView":7,"componentType":5126,"count":2401,"min":[0.0],"max":[100.0],"type":"SCALAR"},{"bufferView":8,"componentType":5126,"count":2401,"type":"VEC3"},{"bufferView":9,"componentType":5126,"count":2401,"type":"VEC4"},{"bufferView":10,"componentType":5126,"count":2401,"type":"VEC4"},{"bufferView":11,"componentType":5126,"count":2401,"type":"VEC3"},{"bufferView":12,"componentType":5126,"count":2401,"type":"VEC4"},{"bufferView":13,"componentType":5126,"count":2401,"type":"VEC4"},{"bufferView":14,"componentType":5126,"count":208,"min":[-30.136009216308595,-4.184000015258789,-30.05600929260254],"max":[30.136009216308595,11.619999885559082,28.61199951171875],"type":"VEC3","name":"part000.006_vertices#0_POSITION"},{"bufferView":14,"byteOffset":12,"componentType":5120,"count":208,"type":"VEC4","name":"part000.006_vertices#0_TANGENT"},{"bufferView":14,"byteOffset":16,"componentType":5120,"count":208,"type":"VEC4","name":"part000.006_vertices#0_NORMAL"},{"bufferView":14,"byteOffset":20,"componentType":5122,"count":208,"type":"VEC2","name":"part000.006_vertices#0_TEXCOORD_0"},{"bufferView":14,"byteOffset":24,"componentType":5122,"count":208,"type":"VEC2","name":"part000.006_vertices#0_TEXCOORD_1"},{"bufferView":14,"byteOffset":28,"componentType":5123,"count":208,"type":"VEC4","name":"part000.006_vertices#0_COLOR_0"},{"bufferView":15,"componentType":5123,"count":468,"type":"SCALAR","name":"part000.006_indices#0"},{"bufferView":14,"byteOffset":7488,"componentType":5126,"count":12,"min":[-0.001688500284217298,-0.16407445073127747,-0.07894983142614365],"max":[1.5649292469024659,0.16407248377799989,0.2150624841451645],"type":"VEC3","name":"part001.004_vertices#0_POSITION"},{"bufferView":14,"byteOffset":7500,"componentType":5120,"count":12,"type":"VEC4","name":"part001.004_vertices#0_TANGENT"},{"bufferView":14,"byteOffset":7504,"componentType":5120,"count":12,"type":"VEC4","name":"part001.004_vertices#0_NORMAL"},{"bufferView":14,"byteOffset":7508,"componentType":5122,"count":12,"type":"VEC2","name":"part001.004_vertices#0_TEXCOORD_0"},{"bufferView":14,"byteOffset":7512,"componentType":5122,"count":12,"type":"VEC2","name":"part001.004_vertices#0_TEXCOORD_1"},{"bufferView":14,"byteOffset":7516,"componentType":5123,"count":12,"type":"VEC4","name":"part001.004_vertices#0_COLOR_0"},{"bufferView":15,"byteOffset":936,"componentType":5123,"count":18,"type":"SCALAR","name":"part001.004_indices#0"},{"bufferView":14,"byteOffset":7920,"componentType":5126,"count":20,"min":[-0.5944937467575073,-0.5802608728408814,-0.520324170589447],"max":[0.6619249582290649,0.580258846282959,0.7822624444961548],"type":"VEC3","name":"part002.004_vertices#0_POSITION"},{"bufferView":14,"byteOffset":7932,"componentType":5120,"count":20,"type":"VEC4","name":"part002.004_vertices#0_TANGENT"},{"bufferView":14,"byteOffset":7936,"componentType":5120,"count":20,"type":"VEC4","name":"part002.004_vertices#0_NORMAL"},{"bufferView":14,"byteOffset":7940,"componentType":5122,"count":20,"type":"VEC2","name":"part002.004_vertices#0_TEXCOORD_0"},{"bufferView":14,"byteOffset":7944,"componentType":5122,"count":20,"type":"VEC2","name":"part002.004_vertices#0_TEXCOORD_1"},{"bufferView":14,"byteOffset":7948,"componentType":5123,"count":20,"type":"VEC4","name":"part002.004_vertices#0_COLOR_0"},{"bufferView":15,"byteOffset":972,"componentType":5123,"count":36,"type":"SCALAR","name":"part002.004_indices#0"},{"bufferView":14,"byteOffset":8640,"componentType":5126,"count":10,"min":[-0.05239035189151764,-0.2751440107822418,-0.6501652002334595],"max":[2.954097270965576,0.11021370440721512,0.1703122854232788],"type":"VEC3","name":"part003.004_vertices#0_POSITION"},{"bufferView":14,"byteOffset":8652,"componentType":5120,"count":10,"type":"VEC4","name":"part003.004_vertices#0_TANGENT"},{"bufferView":14,"byteOffset":8656,"componentType":5120,"count":10,"type":"VEC4","name":"part003.004_vertices#0_NORMAL"},{"bufferView":14,"byteOffset":8660,"componentType":5122,"count":10,"type":"VEC2","name":"part003.004_vertices#0_TEXCOORD_0"},{"bufferView":14,"byteOffset":8664,"componentType":5122,"count":10,"type":"VEC2","name":"part003.004_vertices#0_TEXCOORD_1"},{"bufferView":14,"byteOffset":8668,"componentType":5123,"count":10,"type":"VEC4","name":"part003.004_vertices#0_COLOR_0"},{"bufferView":15,"byteOffset":1044,"componentType":5123,"count":18,"type":"SCALAR","name":"part003.004_indices#0"},{"bufferView":14,"byteOffset":9000,"componentType":5126,"count":10,"min":[-0.05348450690507889,-0.1190023124217987,-0.6504802107810974],"max":[2.9511282444000246,0.27085351943969729,0.1702471822500229],"type":"VEC3","name":"part004.031_vertices#0_POSITION"},{"bufferView":14,"byteOffset":9012,"componentType":5120,"count":10,"type":"VEC4","name":"part004.031_vertices#0_TANGENT"},{"bufferView":14,"byteOffset":9016,"componentType":5120,"count":10,"type":"VEC4","name":"part004.031_vertices#0_NORMAL"},{"bufferView":14,"byteOffset":9020,"componentType":5122,"count":10,"type":"VEC2","name":"part004.031_vertices#0_TEXCOORD_0"},{"bufferView":14,"byteOffset":9024,"componentType":5122,"count":10,"type":"VEC2","name":"part004.031_vertices#0_TEXCOORD_1"},{"bufferView":14,"byteOffset":9028,"componentType":5123,"count":10,"type":"VEC4","name":"part004.031_vertices#0_COLOR_0"},{"bufferView":15,"byteOffset":1080,"componentType":5123,"count":18,"type":"SCALAR","name":"part004.031_indices#0"},{"bufferView":14,"byteOffset":9360,"componentType":5126,"count":26,"min":[-3.3521223068237306,-1.7794506549835206,-0.18702295422554017],"max":[3.400059223175049,0.2012808620929718,0.09413331747055054],"type":"VEC3","name":"part005.004_vertices#0_POSITION"},{"bufferView":14,"byteOffset":9372,"componentType":5120,"count":26,"type":"VEC4","name":"part005.004_vertices#0_TANGENT"},{"bufferView":14,"byteOffset":9376,"componentType":5120,"count":26,"type":"VEC4","name":"part005.004_vertices#0_NORMAL"},{"bufferView":14,"byteOffset":9380,"componentType":5122,"count":26,"type":"VEC2","name":"part005.004_vertices#0_TEXCOORD_0"},{"bufferView":14,"byteOffset":9384,"componentType":5122,"count":26,"type":"VEC2","name":"part005.004_vertices#0_TEXCOORD_1"},{"bufferView":14,"byteOffset":9388,"componentType":5123,"count":26,"type":"VEC4","name":"part005.004_vertices#0_COLOR_0"},{"bufferView":15,"byteOffset":1116,"componentType":5123,"count":57,"type":"SCALAR","name":"part005.004_indices#0"},{"bufferView":14,"byteOffset":10296,"componentType":5126,"count":25,"min":[-0.42520439624786379,-0.9246852397918701,-0.32848796248435976],"max":[10.354823112487793,0.8937637805938721,-0.012511314824223519],"type":"VEC3","name":"part006.004_vertices#0_POSITION"},{"bufferView":14,"byteOffset":10308,"componentType":5120,"count":25,"type":"VEC4","name":"part006.004_vertices#0_TANGENT"},{"bufferView":14,"byteOffset":10312,"componentType":5120,"count":25,"type":"VEC4","name":"part006.004_vertices#0_NORMAL"},{"bufferView":14,"byteOffset":10316,"componentType":5122,"count":25,"type":"VEC2","name":"part006.004_vertices#0_TEXCOORD_0"},{"bufferView":14,"byteOffset":10320,"componentType":5122,"count":25,"type":"VEC2","name":"part006.004_vertices#0_TEXCOORD_1"},{"bufferView":14,"byteOffset":10324,"componentType":5123,"count":25,"type":"VEC4","name":"part006.004_vertices#0_COLOR_0"},{"bufferView":15,"byteOffset":1230,"componentType":5123,"count":39,"type":"SCALAR","name":"part006.004_indices#0"},{"bufferView":14,"byteOffset":11196,"componentType":5126,"count":26,"min":[-3.4004876613616945,-1.7783187627792359,-0.19807755947113038],"max":[3.3535172939300539,0.20180968940258027,0.08109329640865326],"type":"VEC3","name":"part007.004_vertices#0_POSITION"},{"bufferView":14,"byteOffset":11208,"componentType":5120,"count":26,"type":"VEC4","name":"part007.004_vertices#0_TANGENT"},{"bufferView":14,"byteOffset":11212,"componentType":5120,"count":26,"type":"VEC4","name":"part007.004_vertices#0_NORMAL"},{"bufferView":14,"byteOffset":11216,"componentType":5122,"count":26,"type":"VEC2","name":"part007.004_vertices#0_TEXCOORD_0"},{"bufferView":14,"byteOffset":11220,"componentType":5122,"count":26,"type":"VEC2","name":"part007.004_vertices#0_TEXCOORD_1"},{"bufferView":14,"byteOffset":11224,"componentType":5123,"count":26,"type":"VEC4","name":"part007.004_vertices#0_COLOR_0"},{"bufferView":15,"byteOffset":1308,"componentType":5123,"count":57,"type":"SCALAR","name":"part007.004_indices#0"},{"bufferView":14,"byteOffset":12132,"componentType":5126,"count":25,"min":[-10.354626655578614,-0.9243694543838501,-0.2939453125],"max":[0.42600932717323305,0.8933926224708557,-0.013626990839838982],"type":"VEC3","name":"part008.004_vertices#0_POSITION"},{"bufferView":14,"byteOffset":12144,"componentType":5120,"count":25,"type":"VEC4","name":"part008.004_vertices#0_TANGENT"},{"bufferView":14,"byteOffset":12148,"componentType":5120,"count":25,"type":"VEC4","name":"part008.004_vertices#0_NORMAL"},{"bufferView":14,"byteOffset":12152,"componentType":5122,"count":25,"type":"VEC2","name":"part008.004_vertices#0_TEXCOORD_0"},{"bufferView":14,"byteOffset":12156,"componentType":5122,"count":25,"type":"VEC2","name":"part008.004_vertices#0_TEXCOORD_1"},{"bufferView":14,"byteOffset":12160,"componentType":5123,"count":25,"type":"VEC4","name":"part008.004_vertices#0_COLOR_0"},{"bufferView":15,"byteOffset":1422,"componentType":5123,"count":39,"type":"SCALAR","name":"part008.004_indices#0"}],"animations":[{"name":"c_gear","channels":[{"sampler":0,"target":{"node":2,"path":"rotation"}}],"samplers":[{"input":0,"output":1,"interpolation":"LINEAR"}]},{"name":"custom_anim_GEAR_ANIMATION_POSITION_0_11","channels":[{"sampler":0,"target":{"node":15,"path":"rotation"}},{"sampler":1,"target":{"node":13,"path":"translation"}}],"samplers":[{"input":0,"output":2,"interpolation":"LINEAR"},{"input":3,"output":4,"interpolation":"LINEAR"}]},{"name":"custom_anim_GEAR_ANIMATION_POSITION_1_07","channels":[{"sampler":0,"target":{"node":18,"path":"rotation"}}],"samplers":[{"input":0,"output":5,"interpolation":"LINEAR"}]},{"name":"custom_anim_GEAR_ANIMATION_POSITION_2_09","channels":[{"sampler":0,"target":{"node":20,"path":"rotation"}}],"samplers":[{"input":0,"output":6,"interpolation":"LINEAR"}]},{"name":"custom_anim_TRAILING_EDGE_FLAPS_LEFT_PERCENT_00","channels":[{"sampler":0,"target":{"node":27,"path":"translation"}},{"sampler":1,"target":{"node":25,"path":"rotation"}},{"sampler":2,"target":{"node":23,"path":"rotation"}},{"sampler":3,"target":{"node":34,"path":"translation"}},{"sampler":4,"target":{"node":32,"path":"rotation"}},{"sampler":5,"target":{"node":30,"path":"rotation"}}],"samplers":[{"input":7,"output":8,"interpolation":"LINEAR"},{"input":7,"output":9,"interpolation":"LINEAR"},{"input":7,"output":10,"interpolation":"LINEAR"},{"input":7,"output":11,"interpolation":"LINEAR"},{"input":7,"output":12,"interpolation":"LINEAR"},{"input":7,"output":13,"interpolation":"LINEAR"}]}],"asset":{"generator":"Khronos glTF Blender I/O v1.8.19 and Asobo Studio MSFS Blender I/O v1.1.6","copyright":"FSLTL","version":"2.0","extensions":{"ASOBO_asset_optimized":{"BoundingBoxMax":[30.136009216308595,11.619999885559082,28.61199951171875],"BoundingBoxMin":[-30.136009216308595,-4.184000015258789,-30.05600929260254],"MajorVersion":4,"MinorVersion":4,"UseCheckerboardMaterialForMissingTextures":true,"UseOnlyFilenameForImageURI":true},"ASOBO_normal_map_convention":{"tangent_space_convention":"DirectX"}}},"bufferViews":[{"buffer":0,"byteLength":7684},{"buffer":0,"byteLength":30736,"byteOffset":7684},{"buffer":0,"byteLength":30736,"byteOffset":38420},{"buffer":0,"byteLength":11524,"byteOffset":69156},{"buffer":0,"byteLength":34572,"byteOffset":80680},{"buffer":0,"byteLength":30736,"byteOffset":115252},{"buffer":0,"byteLength":30736,"byteOffset":145988},{"buffer":0,"byteLength":9604,"byteOffset":176724},{"buffer":0,"byteLength":28812,"byteOffset":186328},{"buffer":0,"byteLength":38416,"byteOffset":215140},{"buffer":0,"byteLength":38416,"byteOffset":253556},{"buffer":0,"byteLength":28812,"byteOffset":291972},{"buffer":0,"byteLength":38416,"byteOffset":320784},{"buffer":0,"byteLength":38416,"byteOffset":359200},{"buffer":0,"byteLength":13032,"byteStride":36,"byteOffset":397616,"target":34962,"name":"BufferViewVertexND"},{"buffer":0,"byteLength":1500,"byteOffset":410648,"target":34963,"name":"BufferViewIndex"}],"extensionsRequired":["MSFT_texture_dds"],"materials":[{"name":"livery","occlusionTexture":{"index":0},"pbrMetallicRoughness":{"baseColorTexture":{"index":1},"metallicRoughnessTexture":{"index":0}}}],"meshes":[{"primitives":[{"attributes":{"COLOR_0":19,"NORMAL":16,"POSITION":14,"TANGENT":15,"TEXCOORD_0":17,"TEXCOORD_1":18},"indices":20,"material":0,"mode":4,"extras":{"ASOBO_primitive":{"PrimitiveCount":156,"VertexType":"VTX","VertexVersion":2}}}],"name":"part000.006"},{"primitives":[{"attributes":{"COLOR_0":33,"NORMAL":30,"POSITION":28,"TANGENT":29,"TEXCOORD_0":31,"TEXCOORD_1":32},"indices":34,"material":0,"mode":4,"extras":{"ASOBO_primitive":{"PrimitiveCount":12,"VertexType":"VTX","VertexVersion":2}}}],"name":"part002.004"},{"primitives":[{"attributes":{"COLOR_0":26,"NORMAL":23,"POSITION":21,"TANGENT":22,"TEXCOORD_0":24,"TEXCOORD_1":25},"indices":27,"material":0,"mode":4,"extras":{"ASOBO_primitive":{"PrimitiveCount":6,"VertexType":"VTX","VertexVersion":2}}}],"name":"part001.004"},{"primitives":[{"attributes":{"COLOR_0":40,"NORMAL":37,"POSITION":35,"TANGENT":36,"TEXCOORD_0":38,"TEXCOORD_1":39},"indices":41,"material":0,"mode":4,"extras":{"ASOBO_primitive":{"PrimitiveCount":6,"VertexType":"VTX","VertexVersion":2}}}],"name":"part003.004"},{"primitives":[{"attributes":{"COLOR_0":47,"NORMAL":44,"POSITION":42,"TANGENT":43,"TEXCOORD_0":45,"TEXCOORD_1":46},"indices":48,"material":0,"mode":4,"extras":{"ASOBO_primitive":{"PrimitiveCount":6,"VertexType":"VTX","VertexVersion":2}}}],"name":"part004.031"},{"primitives":[{"attributes":{"COLOR_0":61,"NORMAL":58,"POSITION":56,"TANGENT":57,"TEXCOORD_0":59,"TEXCOORD_1":60},"indices":62,"material":0,"mode":4,"extras":{"ASOBO_primitive":{"PrimitiveCount":13,"VertexType":"VTX","VertexVersion":2}}}],"name":"part006.004"},{"primitives":[{"attributes":{"COLOR_0":54,"NORMAL":51,"POSITION":49,"TANGENT":50,"TEXCOORD_0":52,"TEXCOORD_1":53},"indices":55,"material":0,"mode":4,"extras":{"ASOBO_primitive":{"PrimitiveCount":19,"VertexType":"VTX","VertexVersion":2}}}],"name":"part005.004"},{"primitives":[{"attributes":{"COLOR_0":75,"NORMAL":72,"POSITION":70,"TANGENT":71,"TEXCOORD_0":73,"TEXCOORD_1":74},"indices":76,"material":0,"mode":4,"extras":{"ASOBO_primitive":{"PrimitiveCount":13,"VertexType":"VTX","VertexVersion":2}}}],"name":"part008.004"},{"primitives":[{"attributes":{"COLOR_0":68,"NORMAL":65,"POSITION":63,"TANGENT":64,"TEXCOORD_0":66,"TEXCOORD_1":67},"indices":69,"material":0,"mode":4,"extras":{"ASOBO_primitive":{"PrimitiveCount":19,"VertexType":"VTX","VertexVersion":2}}}],"name":"part007.004"}],"nodes":[{"translation":[0.38553619384765627,0.3291570246219635,0.1649317741394043],"rotation":[-0.0000034981826502189507,0.0,0.7071042060852051,0.7071093320846558],"name":"takeoff_L"},{"translation":[0.3855323791503906,-0.3291625380516052,0.1649336814880371],"rotation":[-0.0000034981826502189507,0.0,0.7071042060852051,0.7071093320846558],"name":"takeoff_R"},{"rotation":[-0.12278803437948229,0.12278803437948229,-0.6963642239570618,-0.6963642239570618],"name":"node170_anim_c_gear","children":[0,1]},{"translation":[-0.000002000896074605407,-3.657837152481079,0.5315225720405579],"name":"node170","children":[2]},{"translation":[0.0,25.6414794921875,-2.8016040325164797],"name":"node169","children":[3]},{"rotation":[0.0,0.0,1.0,6.123031769111885e-17],"name":"node45","children":[4]},{"rotation":[0.7071068286895752,0.0,0.0,-0.7071068286895752],"name":"node44","children":[5]},{"name":"node0","children":[6]},{"mesh":0,"name":"node1.004"},{"translation":[-0.20000000298023225,-3.309999942779541,22.149999618530275],"rotation":[-0.02803800068795681,0.6421778202056885,0.7653136253356934,0.033415477722883227],"name":"node10.004"},{"translation":[0.20000000298023225,-3.309999942779541,22.149999618530275],"rotation":[-0.02803800068795681,-0.6421778202056885,-0.7653136253356934,0.033415477722883227],"name":"node11.004"},{"translation":[-0.20000000298023225,-3.309999942779541,22.149999618530275],"rotation":[-0.02803800068795681,0.6421778202056885,0.7653136253356934,0.033415477722883227],"name":"node12.004"},{"translation":[0.20000000298023225,-3.309999942779541,22.149999618530275],"rotation":[-0.02803800068795681,-0.6421778202056885,-0.7653136253356934,0.033415477722883227],"name":"node13.004"},{"translation":[2.3554394245147707,0.0,0.000003887103957822546],"mesh":1,"name":"node18_anim_custom_anim_GEAR_ANIMATION_POSITION_0_11.002"},{"name":"node18.004","children":[13]},{"rotation":[-0.12278803437948229,0.12278803437948229,-0.6963642239570618,-0.6963642239570618],"mesh":2,"name":"node17_anim_custom_anim_GEAR_ANIMATION_POSITION_0_11.001","children":[14]},{"translation":[-0.000002000896074605407,-3.657837152481079,0.5315225720405579],"name":"node17.004","children":[15]},{"translation":[0.0,25.6414794921875,-2.8016040325164797],"name":"node16.004","children":[16]},{"rotation":[0.7080699801445007,0.01350599993020296,-0.1118059977889061,-0.6971039772033691],"mesh":3,"name":"node20_anim_custom_anim_GEAR_ANIMATION_POSITION_1_07"},{"translation":[-5.667538642883301,-1.1898081302642823,2.3115789890289308],"name":"node20.004","children":[18]},{"rotation":[-0.01687600463628769,-0.7082791924476624,-0.6972551941871643,-0.10904601961374284],"mesh":4,"name":"node21_anim_custom_anim_GEAR_ANIMATION_POSITION_2_09"},{"translation":[5.667536735534668,-1.1898081302642823,2.3115789890289308],"name":"node21.004","children":[20]},{"translation":[0.0,2.10657000541687,-3.7070319652557379],"name":"node19.004","children":[19,21]},{"rotation":[0.023685000836849214,-0.006397000048309565,0.14488700032234193,-0.9891440272331238],"mesh":5,"name":"node25_anim_custom_anim_TRAILING_EDGE_FLAPS_LEFT_PERCENT_00"},{"translation":[3.3880417346954347,-0.8045809864997864,0.05355437844991684],"name":"node25.004","children":[23]},{"rotation":[-0.003222001250833273,0.07011102139949799,0.026975009590387346,-0.997169315814972],"mesh":6,"name":"node24_anim_custom_anim_TRAILING_EDGE_FLAPS_LEFT_PERCENT_00","children":[24]},{"name":"node24.004","children":[25]},{"translation":[6.397576332092285,-0.01771719940006733,-1.0773358345031739],"name":"node23_anim_custom_anim_TRAILING_EDGE_FLAPS_LEFT_PERCENT_00.001","children":[26]},{"name":"node23.004","children":[27]},{"translation":[0.00020399999630171808,-0.0024480000138282778,-0.1310259997844696],"rotation":[0.0,0.0,-0.013302506878972054,0.9999115467071532],"name":"node22.004","children":[28]},{"rotation":[0.018592992797493936,0.007050997577607632,-0.14488594233989716,-0.9892486333847046],"mesh":7,"name":"node28_anim_custom_anim_TRAILING_EDGE_FLAPS_LEFT_PERCENT_00"},{"translation":[-3.3889071941375734,-0.8048233389854431,0.05822907015681267],"name":"node28.004","children":[30]},{"rotation":[0.0028340001590549947,-0.06996000558137894,-0.04038100317120552,-0.9967281222343444],"mesh":8,"name":"node27_anim_custom_anim_TRAILING_EDGE_FLAPS_LEFT_PERCENT_00","children":[31]},{"name":"node27.004","children":[32]},{"translation":[-6.392862319946289,-0.1875389665365219,-1.208247184753418],"name":"node26_anim_custom_anim_TRAILING_EDGE_FLAPS_LEFT_PERCENT_00","children":[33]},{"name":"node26.004","children":[34]},{"rotation":[0.0,0.0,1.0,6.123234262925839e-17],"name":"node15.004","children":[17,22,29,35]},{"rotation":[0.7071068286895752,0.0,0.0,-0.7071068286895752],"name":"node14.004","children":[36]},{"translation":[-0.33000001311302187,-2.6500000953674318,22.170000076293947],"rotation":[0.0,0.7071068286895752,0.7071068286895752,4.3297809634577669e-17],"name":"node2.004"},{"translation":[0.33000001311302187,-2.6500000953674318,22.170000076293947],"rotation":[0.0,0.7071068286895752,0.7071068286895752,4.3297809634577669e-17],"name":"node3.004"},{"translation":[-0.33000001311302187,-2.6500000953674318,22.149999618530275],"rotation":[-0.05888168513774872,0.6730196475982666,0.7344716191291809,0.06425725668668747],"name":"node4.004"},{"translation":[0.33000001311302187,-2.6500000953674318,22.149999618530275],"rotation":[-0.05888168513774872,-0.6730196475982666,-0.7344716191291809,0.06425725668668747],"name":"node5.004"},{"translation":[-3.2899999618530275,-1.1200000047683716,9.199999809265137],"rotation":[0.0,0.7071068286895752,0.7071068286895752,4.3297809634577669e-17],"name":"node6.004"},{"translation":[3.2899999618530275,-1.1200000047683716,9.199999809265137],"rotation":[0.0,0.7071068286895752,0.7071068286895752,4.3297809634577669e-17],"name":"node7.004"},{"translation":[-3.2899999618530275,-1.1200000047683716,9.199999809265137],"rotation":[-0.08390062302350998,0.6372885704040527,0.7594907879829407,0.09998873621225356],"name":"node8.004"},{"translation":[3.2899999618530275,-1.1200000047683716,9.199999809265137],"rotation":[0.08390062302350998,0.6372885704040527,0.7594907879829407,-0.09998873621225356],"name":"node9.004"},{"name":"node0.005","children":[8,9,10,11,12,37,38,39,40,41,42,43,44,45]},{"translation":[6.304328918457031,-6.454668045043945,-0.6465978622436523],"name":"fx_tire_contactPoint_left_out"},{"translation":[4.8347883224487309,-6.454668045043945,-0.6465978622436523],"name":"fx_tire_contactPoint_left_in"},{"translation":[-4.864178657531738,-6.454668045043945,-0.6465978622436523],"name":"fx_tire_contactPoint_right_in"},{"translation":[-6.333719253540039,-6.454668045043945,-0.6465978622436523],"name":"fx_tire_contactPoint_right_out"},{"translation":[0.7631931304931641,-5.17310905456543,22.017242431640626],"name":"fx_tire_contactPoint_center_left"},{"translation":[-0.3676130473613739,-5.17310905456543,22.017242431640626],"name":"fx_tire_contactPoint_center_right"},{"translation":[-9.314298629760743,-2.81170916557312,3.465846061706543],"name":"FX_EXHAUST_RIGHT"},{"translation":[9.313678741455079,-2.81170916557312,3.465846061706543],"name":"FX_EXHAUST_LEFT"}],"scene":0,"scenes":[{"nodes":[7,46,47,48,49,50,51,52,53,54],"name":"Scene"}],"textures":[{"extensions":{"MSFT_texture_dds":{"source":0}}},{"extensions":{"MSFT_texture_dds":{"source":1}}}],"samplers":[{"magFilter":9729,"minFilter":9987,"wrapS":10497,"wrapT":10497}],"extensionsUsed":["ASOBO_normal_map_convention","MSFT_texture_dds","ASOBO_asset_optimized"],"buffers":[{"byteLength":412148,"uri":"A332_RR_LOD1.bin"}],"images":[{"uri":"TFS_A332_RR_M.PNG.DDS","name":"TFS_A332_RR_M","extras":"ASOBO_image_converted_meta"},{"uri":"TFS_A332_RR_T.PNG.DDS","name":"TFS_A332_RR_T","extras":"ASOBO_image_converted_meta"}]}
