{"accessors":[{"bufferView":0,"componentType":5126,"count":1921,"min":[0.0],"max":[80.0],"type":"SCALAR"},{"bufferView":1,"componentType":5126,"count":1921,"type":"VEC4"},{"bufferView":2,"componentType":5126,"count":2881,"min":[0.0],"max":[120.0],"type":"SCALAR"},{"bufferView":3,"componentType":5126,"count":2881,"type":"VEC3"},{"bufferView":4,"componentType":5126,"count":1921,"type":"VEC4"},{"bufferView":5,"componentType":5126,"count":1921,"type":"VEC4"},{"bufferView":6,"componentType":5126,"count":2401,"min":[0.0],"max":[100.0],"type":"SCALAR"},{"bufferView":7,"componentType":5126,"count":2401,"type":"VEC3"},{"bufferView":8,"componentType":5126,"count":2401,"type":"VEC4"},{"bufferView":9,"componentType":5126,"count":2401,"type":"VEC4"},{"bufferView":10,"componentType":5126,"count":2401,"type":"VEC3"},{"bufferView":11,"componentType":5126,"count":2401,"type":"VEC4"},{"bufferView":12,"componentType":5126,"count":2401,"type":"VEC4"},{"bufferView":13,"componentType":5126,"count":208,"min":[-30.136009216308595,-4.184000015258789,-30.05600929260254],"max":[30.136009216308595,11.619999885559082,28.61199951171875],"type":"VEC3","name":"part000.006_vertices#0_POSITION"},{"bufferView":13,"byteOffset":12,"componentType":5120,"count":208,"type":"VEC4","name":"part000.006_vertices#0_TANGENT"},{"bufferView":13,"byteOffset":16,"componentType":5120,"count":208,"type":"VEC4","name":"part000.006_vertices#0_NORMAL"},{"bufferView":13,"byteOffset":20,"componentType":5122,"count":208,"type":"VEC2","name":"part000.006_vertices#0_TEXCOORD_0"},{"bufferView":13,"byteOffset":24,"componentType":5122,"count":208,"type":"VEC2","name":"part000.006_vertices#0_TEXCOORD_1"},{"bufferView":13,"byteOffset":28,"componentType":5123,"count":208,"type":"VEC4","name":"part000.006_vertices#0_COLOR_0"},{"bufferView":14,"componentType":5123,"count":468,"type":"SCALAR","name":"part000.006_indices#0"},{"bufferView":13,"byteOffset":7488,"componentType":5126,"count":12,"min":[-0.001688500284217298,-0.16407445073127747,-0.07894983142614365],"max":[1.5649292469024659,0.16407248377799989,0.2150624841451645],"type":"VEC3","name":"part001.004_vertices#0_POSITION"},{"bufferView":13,"byteOffset":7500,"componentType":5120,"count":12,"type":"VEC4","name":"part001.004_vertices#0_TANGENT"},{"bufferView":13,"byteOffset":7504,"componentType":5120,"count":12,"type":"VEC4","name":"part001.004_vertices#0_NORMAL"},{"bufferView":13,"byteOffset":7508,"componentType":5122,"count":12,"type":"VEC2","name":"part001.004_vertices#0_TEXCOORD_0"},{"bufferView":13,"byteOffset":7512,"componentType":5122,"count":12,"type":"VEC2","name":"part001.004_vertices#0_TEXCOORD_1"},{"bufferView":13,"byteOffset":7516,"componentType":5123,"count":12,"type":"VEC4","name":"part001.004_vertices#0_COLOR_0"},{"bufferView":14,"byteOffset":936,"componentType":5123,"count":18,"type":"SCALAR","name":"part001.004_indices#0"},{"bufferView":13,"byteOffset":7920,"componentType":5126,"count":20,"min":[-0.5944937467575073,-0.5802608728408814,-0.520324170589447],"max":[0.6619249582290649,0.580258846282959,0.7822624444961548],"type":"VEC3","name":"part002.004_vertices#0_POSITION"},{"bufferView":13,"byteOffset":7932,"componentType":5120,"count":20,"type":"VEC4","name":"part002.004_vertices#0_TANGENT"},{"bufferView":13,"byteOffset":7936,"componentType":5120,"count":20,"type":"VEC4","name":"part002.004_vertices#0_NORMAL"},{"bufferView":13,"byteOffset":7940,"componentType":5122,"count":20,"type":"VEC2","name":"part002.004_vertices#0_TEXCOORD_0"},{"bufferView":13,"byteOffset":7944,"componentType":5122,"count":20,"type":"VEC2","name":"part002.004_vertices#0_TEXCOORD_1"},{"bufferView":13,"byteOffset":7948,"componentType":5123,"count":20,"type":"VEC4","name":"part002.004_vertices#0_COLOR_0"},{"bufferView":14,"byteOffset":972,"componentType":5123,"count":36,"type":"SCALAR","name":"part002.004_indices#0"},{"bufferView":13,"byteOffset":8640,"componentType":5126,"count":10,"min":[-0.05239035189151764,-0.2751440107822418,-0.6501652002334595],"max":[2.954097270965576,0.11021370440721512,0.1703122854232788],"type":"VEC3","name":"part003.004_vertices#0_POSITION"},{"bufferView":13,"byteOffset":8652,"componentType":5120,"count":10,"type":"VEC4","name":"part003.004_vertices#0_TANGENT"},{"bufferView":13,"byteOffset":8656,"componentType":5120,"count":10,"type":"VEC4","name":"part003.004_vertices#0_NORMAL"},{"bufferView":13,"byteOffset":8660,"componentType":5122,"count":10,"type":"VEC2","name":"part003.004_vertices#0_TEXCOORD_0"},{"bufferView":13,"byteOffset":8664,"componentType":5122,"count":10,"type":"VEC2","name":"part003.004_vertices#0_TEXCOORD_1"},{"bufferView":13,"byteOffset":8668,"componentType":5123,"count":10,"type":"VEC4","name":"part003.004_vertices#0_COLOR_0"},{"bufferView":14,"byteOffset":1044,"componentType":5123,"count":18,"type":"SCALAR","name":"part003.004_indices#0"},{"bufferView":13,"byteOffset":9000,"componentType":5126,"count":10,"min":[-0.05348450690507889,-0.1190023124217987,-0.6504802107810974],"max":[2.9511282444000246,0.27085351943969729,0.1702471822500229],"type":"VEC3","name":"part004.031_vertices#0_POSITION"},{"bufferView":13,"byteOffset":9012,"componentType":5120,"count":10,"type":"VEC4","name":"part004.031_vertices#0_TANGENT"},{"bufferView":13,"byteOffset":9016,"componentType":5120,"count":10,"type":"VEC4","name":"part004.031_vertices#0_NORMAL"},{"bufferView":13,"byteOffset":9020,"componentType":5122,"count":10,"type":"VEC2","name":"part004.031_vertices#0_TEXCOORD_0"},{"bufferView":13,"byteOffset":9024,"componentType":5122,"count":10,"type":"VEC2","name":"part004.031_vertices#0_TEXCOORD_1"},{"bufferView":13,"byteOffset":9028,"componentType":5123,"count":10,"type":"VEC4","name":"part004.031_vertices#0_COLOR_0"},{"bufferView":14,"byteOffset":1080,"componentType":5123,"count":18,"type":"SCALAR","name":"part004.031_indices#0"},{"bufferView":13,"byteOffset":9360,"componentType":5126,"count":26,"min":[-3.3521223068237306,-1.7794506549835206,-0.18702295422554017],"max":[3.400059223175049,0.2012808620929718,0.09413331747055054],"type":"VEC3","name":"part005.004_vertices#0_POSITION"},{"bufferView":13,"byteOffset":9372,"componentType":5120,"count":26,"type":"VEC4","name":"part005.004_vertices#0_TANGENT"},{"bufferView":13,"byteOffset":9376,"componentType":5120,"count":26,"type":"VEC4","name":"part005.004_vertices#0_NORMAL"},{"bufferView":13,"byteOffset":9380,"componentType":5122,"count":26,"type":"VEC2","name":"part005.004_vertices#0_TEXCOORD_0"},{"bufferView":13,"byteOffset":9384,"componentType":5122,"count":26,"type":"VEC2","name":"part005.004_vertices#0_TEXCOORD_1"},{"bufferView":13,"byteOffset":9388,"componentType":5123,"count":26,"type":"VEC4","name":"part005.004_vertices#0_COLOR_0"},{"bufferView":14,"byteOffset":1116,"componentType":5123,"count":57,"type":"SCALAR","name":"part005.004_indices#0"},{"bufferView":13,"byteOffset":10296,"componentType":5126,"count":25,"min":[-0.42520439624786379,-0.9246852397918701,-0.32848796248435976],"max":[10.354823112487793,0.8937637805938721,-0.012511314824223519],"type":"VEC3","name":"part006.004_vertices#0_POSITION"},{"bufferView":13,"byteOffset":10308,"componentType":5120,"count":25,"type":"VEC4","name":"part006.004_vertices#0_TANGENT"},{"bufferView":13,"byteOffset":10312,"componentType":5120,"count":25,"type":"VEC4","name":"part006.004_vertices#0_NORMAL"},{"bufferView":13,"byteOffset":10316,"componentType":5122,"count":25,"type":"VEC2","name":"part006.004_vertices#0_TEXCOORD_0"},{"bufferView":13,"byteOffset":10320,"componentType":5122,"count":25,"type":"VEC2","name":"part006.004_vertices#0_TEXCOORD_1"},{"bufferView":13,"byteOffset":10324,"componentType":5123,"count":25,"type":"VEC4","name":"part006.004_vertices#0_COLOR_0"},{"bufferView":14,"byteOffset":1230,"componentType":5123,"count":39,"type":"SCALAR","name":"part006.004_indices#0"},{"bufferView":13,"byteOffset":11196,"componentType":5126,"count":26,"min":[-3.4004876613616945,-1.7783187627792359,-0.19807755947113038],"max":[3.3535172939300539,0.20180968940258027,0.08109329640865326],"type":"VEC3","name":"part007.004_vertices#0_POSITION"},{"bufferView":13,"byteOffset":11208,"componentType":5120,"count":26,"type":"VEC4","name":"part007.004_vertices#0_TANGENT"},{"bufferView":13,"byteOffset":11212,"componentType":5120,"count":26,"type":"VEC4","name":"part007.004_vertices#0_NORMAL"},{"bufferView":13,"byteOffset":11216,"componentType":5122,"count":26,"type":"VEC2","name":"part007.004_vertices#0_TEXCOORD_0"},{"bufferView":13,"byteOffset":11220,"componentType":5122,"count":26,"type":"VEC2","name":"part007.004_vertices#0_TEXCOORD_1"},{"bufferView":13,"byteOffset":11224,"componentType":5123,"count":26,"type":"VEC4","name":"part007.004_vertices#0_COLOR_0"},{"bufferView":14,"byteOffset":1308,"componentType":5123,"count":57,"type":"SCALAR","name":"part007.004_indices#0"},{"bufferView":13,"byteOffset":12132,"componentType":5126,"count":25,"min":[-10.354626655578614,-0.9243694543838501,-0.2939453125],"max":[0.42600932717323305,0.8933926224708557,-0.013626990839838982],"type":"VEC3","name":"part008.004_vertices#0_POSITION"},{"bufferView":13,"byteOffset":12144,"componentType":5120,"count":25,"type":"VEC4","name":"part008.004_vertices#0_TANGENT"},{"bufferView":13,"byteOffset":12148,"componentType":5120,"count":25,"type":"VEC4","name":"part008.004_vertices#0_NORMAL"},{"bufferView":13,"byteOffset":12152,"componentType":5122,"count":25,"type":"VEC2","name":"part008.004_vertices#0_TEXCOORD_0"},{"bufferView":13,"byteOffset":12156,"componentType":5122,"count":25,"type":"VEC2","name":"part008.004_vertices#0_TEXCOORD_1"},{"bufferView":13,"byteOffset":12160,"componentType":5123,"count":25,"type":"VEC4","name":"part008.004_vertices#0_COLOR_0"},{"bufferView":14,"byteOffset":1422,"componentType":5123,"count":39,"type":"SCALAR","name":"part008.004_indices#0"}],"animations":[{"name":"custom_anim_GEAR_ANIMATION_POSITION_0_11","channels":[{"sampler":0,"target":{"node":7,"path":"rotation"}},{"sampler":1,"target":{"node":5,"path":"translation"}}],"samplers":[{"input":0,"output":1,"interpolation":"LINEAR"},{"input":2,"output":3,"interpolation":"LINEAR"}]},{"name":"custom_anim_GEAR_ANIMATION_POSITION_1_07","channels":[{"sampler":0,"target":{"node":10,"path":"rotation"}}],"samplers":[{"input":0,"output":4,"interpolation":"LINEAR"}]},{"name":"custom_anim_GEAR_ANIMATION_POSITION_2_09","channels":[{"sampler":0,"target":{"node":12,"path":"rotation"}}],"samplers":[{"input":0,"output":5,"interpolation":"LINEAR"}]},{"name":"custom_anim_TRAILING_EDGE_FLAPS_LEFT_PERCENT_00","channels":[{"sampler":0,"target":{"node":19,"path":"translation"}},{"sampler":1,"target":{"node":17,"path":"rotation"}},{"sampler":2,"target":{"node":15,"path":"rotation"}},{"sampler":3,"target":{"node":26,"path":"translation"}},{"sampler":4,"target":{"node":24,"path":"rotation"}},{"sampler":5,"target":{"node":22,"path":"rotation"}}],"samplers":[{"input":6,"output":7,"interpolation":"LINEAR"},{"input":6,"output":8,"interpolation":"LINEAR"},{"input":6,"output":9,"interpolation":"LINEAR"},{"input":6,"output":10,"interpolation":"LINEAR"},{"input":6,"output":11,"interpolation":"LINEAR"},{"input":6,"output":12,"interpolation":"LINEAR"}]}],"asset":{"generator":"Khronos glTF Blender I/O v1.8.19 and Asobo Studio MSFS Blender I/O v1.1.6","copyright":"FSLTL","version":"2.0","extensions":{"ASOBO_asset_optimized":{"BoundingBoxMax":[30.136009216308595,11.619999885559082,28.61199951171875],"BoundingBoxMin":[-30.136009216308595,-4.184000015258789,-30.05600929260254],"MajorVersion":4,"MinorVersion":4,"UseCheckerboardMaterialForMissingTextures":true,"UseOnlyFilenameForImageURI":true},"ASOBO_normal_map_convention":{"tangent_space_convention":"DirectX"}}},"bufferViews":[{"buffer":0,"byteLength":7684},{"buffer":0,"byteLength":30736,"byteOffset":7684},{"buffer":0,"byteLength":11524,"byteOffset":38420},{"buffer":0,"byteLength":34572,"byteOffset":49944},{"buffer":0,"byteLength":30736,"byteOffset":84516},{"buffer":0,"byteLength":30736,"byteOffset":115252},{"buffer":0,"byteLength":9604,"byteOffset":145988},{"buffer":0,"byteLength":28812,"byteOffset":155592},{"buffer":0,"byteLength":38416,"byteOffset":184404},{"buffer":0,"byteLength":38416,"byteOffset":222820},{"buffer":0,"byteLength":28812,"byteOffset":261236},{"buffer":0,"byteLength":38416,"byteOffset":290048},{"buffer":0,"byteLength":38416,"byteOffset":328464},{"buffer":0,"byteLength":13032,"byteStride":36,"byteOffset":366880,"target":34962,"name":"BufferViewVertexND"},{"buffer":0,"byteLength":1500,"byteOffset":379912,"target":34963,"name":"BufferViewIndex"}],"extensionsRequired":["MSFT_texture_dds"],"materials":[{"name":"livery","occlusionTexture":{"index":0},"pbrMetallicRoughness":{"baseColorTexture":{"index":1},"metallicRoughnessTexture":{"index":0}}},{"name":"rubber","pbrMetallicRoughness":{"roughnessFactor":0.8005181550979614,"baseColorTexture":{"index":2}}},{"name":"metal","occlusionTexture":{"index":3},"pbrMetallicRoughness":{"roughnessFactor":0.2510204017162323,"baseColorTexture":{"index":4},"metallicRoughnessTexture":{"index":3}}}],"meshes":[{"primitives":[{"attributes":{"COLOR_0":18,"NORMAL":15,"POSITION":13,"TANGENT":14,"TEXCOORD_0":16,"TEXCOORD_1":17},"indices":19,"material":0,"mode":4,"extras":{"ASOBO_primitive":{"PrimitiveCount":156,"VertexType":"VTX","VertexVersion":2}}}],"name":"part000.006"},{"primitives":[{"attributes":{"COLOR_0":32,"NORMAL":29,"POSITION":27,"TANGENT":28,"TEXCOORD_0":30,"TEXCOORD_1":31},"indices":33,"material":1,"mode":4,"extras":{"ASOBO_primitive":{"PrimitiveCount":12,"VertexType":"VTX","VertexVersion":2}}}],"name":"part002.004"},{"primitives":[{"attributes":{"COLOR_0":25,"NORMAL":22,"POSITION":20,"TANGENT":21,"TEXCOORD_0":23,"TEXCOORD_1":24},"indices":26,"material":2,"mode":4,"extras":{"ASOBO_primitive":{"PrimitiveCount":6,"VertexType":"VTX","VertexVersion":2}}}],"name":"part001.004"},{"primitives":[{"attributes":{"COLOR_0":39,"NORMAL":36,"POSITION":34,"TANGENT":35,"TEXCOORD_0":37,"TEXCOORD_1":38},"indices":40,"material":2,"mode":4,"extras":{"ASOBO_primitive":{"PrimitiveCount":6,"VertexType":"VTX","VertexVersion":2}}}],"name":"part003.004"},{"primitives":[{"attributes":{"COLOR_0":46,"NORMAL":43,"POSITION":41,"TANGENT":42,"TEXCOORD_0":44,"TEXCOORD_1":45},"indices":47,"material":2,"mode":4,"extras":{"ASOBO_primitive":{"PrimitiveCount":6,"VertexType":"VTX","VertexVersion":2}}}],"name":"part004.031"},{"primitives":[{"attributes":{"COLOR_0":60,"NORMAL":57,"POSITION":55,"TANGENT":56,"TEXCOORD_0":58,"TEXCOORD_1":59},"indices":61,"material":0,"mode":4,"extras":{"ASOBO_primitive":{"PrimitiveCount":13,"VertexType":"VTX","VertexVersion":2}}}],"name":"part006.004"},{"primitives":[{"attributes":{"COLOR_0":53,"NORMAL":50,"POSITION":48,"TANGENT":49,"TEXCOORD_0":51,"TEXCOORD_1":52},"indices":54,"material":0,"mode":4,"extras":{"ASOBO_primitive":{"PrimitiveCount":19,"VertexType":"VTX","VertexVersion":2}}}],"name":"part005.004"},{"primitives":[{"attributes":{"COLOR_0":74,"NORMAL":71,"POSITION":69,"TANGENT":70,"TEXCOORD_0":72,"TEXCOORD_1":73},"indices":75,"material":0,"mode":4,"extras":{"ASOBO_primitive":{"PrimitiveCount":13,"VertexType":"VTX","VertexVersion":2}}}],"name":"part008.004"},{"primitives":[{"attributes":{"COLOR_0":67,"NORMAL":64,"POSITION":62,"TANGENT":63,"TEXCOORD_0":65,"TEXCOORD_1":66},"indices":68,"material":0,"mode":4,"extras":{"ASOBO_primitive":{"PrimitiveCount":19,"VertexType":"VTX","VertexVersion":2}}}],"name":"part007.004"}],"nodes":[{"mesh":0,"name":"node1.004"},{"translation":[-0.20000000298023225,-3.309999942779541,22.149999618530275],"rotation":[-0.02803800068795681,0.6421778202056885,0.7653136253356934,0.033415477722883227],"name":"node10.004"},{"translation":[0.20000000298023225,-3.309999942779541,22.149999618530275],"rotation":[-0.02803800068795681,-0.6421778202056885,-0.7653136253356934,0.033415477722883227],"name":"node11.004"},{"translation":[-0.20000000298023225,-3.309999942779541,22.149999618530275],"rotation":[-0.02803800068795681,0.6421778202056885,0.7653136253356934,0.033415477722883227],"name":"node12.004"},{"translation":[0.20000000298023225,-3.309999942779541,22.149999618530275],"rotation":[-0.02803800068795681,-0.6421778202056885,-0.7653136253356934,0.033415477722883227],"name":"node13.004"},{"translation":[2.3554394245147707,0.0,0.000003887103957822546],"mesh":1,"name":"node18_anim_custom_anim_GEAR_ANIMATION_POSITION_0_11.002"},{"name":"node18.004","children":[5]},{"rotation":[-0.12278803437948229,0.12278803437948229,-0.6963642239570618,-0.6963642239570618],"mesh":2,"name":"node17_anim_custom_anim_GEAR_ANIMATION_POSITION_0_11.001","children":[6]},{"translation":[-0.000002000896074605407,-3.657837152481079,0.5315225720405579],"name":"node17.004","children":[7]},{"translation":[0.0,25.6414794921875,-2.8016040325164797],"name":"node16.004","children":[8]},{"rotation":[0.7080699801445007,0.01350599993020296,-0.1118059977889061,-0.6971039772033691],"mesh":3,"name":"node20_anim_custom_anim_GEAR_ANIMATION_POSITION_1_07"},{"translation":[-5.667538642883301,-1.1898081302642823,2.3115789890289308],"name":"node20.004","children":[10]},{"rotation":[-0.01687600463628769,-0.7082791924476624,-0.6972551941871643,-0.10904601961374284],"mesh":4,"name":"node21_anim_custom_anim_GEAR_ANIMATION_POSITION_2_09"},{"translation":[5.667536735534668,-1.1898081302642823,2.3115789890289308],"name":"node21.004","children":[12]},{"translation":[0.0,2.10657000541687,-3.7070319652557379],"name":"node19.004","children":[11,13]},{"rotation":[0.023685000836849214,-0.006397000048309565,0.14488700032234193,-0.9891440272331238],"mesh":5,"name":"node25_anim_custom_anim_TRAILING_EDGE_FLAPS_LEFT_PERCENT_00"},{"translation":[3.3880417346954347,-0.8045809864997864,0.05355437844991684],"name":"node25.004","children":[15]},{"rotation":[-0.003222001250833273,0.07011102139949799,0.026975009590387346,-0.997169315814972],"mesh":6,"name":"node24_anim_custom_anim_TRAILING_EDGE_FLAPS_LEFT_PERCENT_00","children":[16]},{"name":"node24.004","children":[17]},{"translation":[6.397576332092285,-0.01771719940006733,-1.0773358345031739],"name":"node23_anim_custom_anim_TRAILING_EDGE_FLAPS_LEFT_PERCENT_00.001","children":[18]},{"name":"node23.004","children":[19]},{"translation":[0.00020399999630171808,-0.0024480000138282778,-0.1310259997844696],"rotation":[0.0,0.0,-0.013302506878972054,0.9999115467071532],"name":"node22.004","children":[20]},{"rotation":[0.018592992797493936,0.007050997577607632,-0.14488594233989716,-0.9892486333847046],"mesh":7,"name":"node28_anim_custom_anim_TRAILING_EDGE_FLAPS_LEFT_PERCENT_00"},{"translation":[-3.3889071941375734,-0.8048233389854431,0.05822907015681267],"name":"node28.004","children":[22]},{"rotation":[0.0028340001590549947,-0.06996000558137894,-0.04038100317120552,-0.9967281222343444],"mesh":8,"name":"node27_anim_custom_anim_TRAILING_EDGE_FLAPS_LEFT_PERCENT_00","children":[23]},{"name":"node27.004","children":[24]},{"translation":[-6.392862319946289,-0.1875389665365219,-1.208247184753418],"name":"node26_anim_custom_anim_TRAILING_EDGE_FLAPS_LEFT_PERCENT_00","children":[25]},{"name":"node26.004","children":[26]},{"rotation":[0.0,0.0,1.0,6.123234262925839e-17],"name":"node15.004","children":[9,14,21,27]},{"rotation":[0.7071068286895752,0.0,0.0,-0.7071068286895752],"name":"node14.004","children":[28]},{"translation":[-0.33000001311302187,-2.6500000953674318,22.170000076293947],"rotation":[0.0,0.7071068286895752,0.7071068286895752,4.3297809634577669e-17],"name":"node2.004"},{"translation":[0.33000001311302187,-2.6500000953674318,22.170000076293947],"rotation":[0.0,0.7071068286895752,0.7071068286895752,4.3297809634577669e-17],"name":"node3.004"},{"translation":[-0.33000001311302187,-2.6500000953674318,22.149999618530275],"rotation":[-0.05888168513774872,0.6730196475982666,0.7344716191291809,0.06425725668668747],"name":"node4.004"},{"translation":[0.33000001311302187,-2.6500000953674318,22.149999618530275],"rotation":[-0.05888168513774872,-0.6730196475982666,-0.7344716191291809,0.06425725668668747],"name":"node5.004"},{"translation":[-3.2899999618530275,-1.1200000047683716,9.199999809265137],"rotation":[0.0,0.7071068286895752,0.7071068286895752,4.3297809634577669e-17],"name":"node6.004"},{"translation":[3.2899999618530275,-1.1200000047683716,9.199999809265137],"rotation":[0.0,0.7071068286895752,0.7071068286895752,4.3297809634577669e-17],"name":"node7.004"},{"translation":[-3.2899999618530275,-1.1200000047683716,9.199999809265137],"rotation":[-0.08390062302350998,0.6372885704040527,0.7594907879829407,0.09998873621225356],"name":"node8.004"},{"translation":[3.2899999618530275,-1.1200000047683716,9.199999809265137],"rotation":[0.08390062302350998,0.6372885704040527,0.7594907879829407,-0.09998873621225356],"name":"node9.004"},{"name":"node0.005","children":[0,1,2,3,4,29,30,31,32,33,34,35,36,37]}],"scene":0,"scenes":[{"nodes":[38],"name":"Scene"}],"textures":[{"extensions":{"MSFT_texture_dds":{"source":0}}},{"extensions":{"MSFT_texture_dds":{"source":1}}},{"extensions":{"MSFT_texture_dds":{"source":1}}},{"extensions":{"MSFT_texture_dds":{"source":2}}},{"extensions":{"MSFT_texture_dds":{"source":1}}}],"samplers":[{"magFilter":9729,"minFilter":9987,"wrapS":10497,"wrapT":10497}],"extensionsUsed":["ASOBO_normal_map_convention","MSFT_texture_dds","ASOBO_asset_optimized"],"buffers":[{"byteLength":381412,"uri":"A332_RR_LOD1.bin"}],"images":[{"uri":"TFS_A332_M.PNG.DDS","name":"TFS_A332_M","extras":"ASOBO_image_converted_meta"},{"uri":"TFS_A332_RR_T.PNG.DDS","name":"TFS_A332_RR_T","extras":"ASOBO_image_converted_meta"},{"uri":"TFS_A332_M-1.PNG.DDS","name":"TFS_A332_M","extras":"ASOBO_image_converted_meta"}]}
