{"accessors":[{"bufferView":0,"componentType":5126,"count":236,"min":[-12.116009712219239,-1.340000033378601,-12.331999778747559],"max":[12.116009712219239,5.627999782562256,10.315999984741211],"type":"VEC3","name":"part000.001_vertices#0_POSITION"},{"bufferView":0,"byteOffset":12,"componentType":5120,"count":236,"type":"VEC4","name":"part000.001_vertices#0_TANGENT"},{"bufferView":0,"byteOffset":16,"componentType":5120,"count":236,"type":"VEC4","name":"part000.001_vertices#0_NORMAL"},{"bufferView":0,"byteOffset":20,"componentType":5122,"count":236,"type":"VEC2","name":"part000.001_vertices#0_TEXCOORD_0"},{"bufferView":0,"byteOffset":24,"componentType":5122,"count":236,"type":"VEC2","name":"part000.001_vertices#0_TEXCOORD_1"},{"bufferView":0,"byteOffset":28,"componentType":5123,"count":236,"type":"VEC4","name":"part000.001_vertices#0_COLOR_0"},{"bufferView":1,"componentType":5123,"count":438,"type":"SCALAR","name":"part000.001_indices#0"}],"asset":{"generator":"Khronos glTF Blender I/O v1.8.19 and Asobo Studio MSFS Blender I/O v1.1.6","copyright":"FSLTL","version":"2.0","extensions":{"ASOBO_asset_optimized":{"BoundingBoxMax":[12.116009712219239,5.627999782562256,10.315999984741211],"BoundingBoxMin":[-12.116009712219239,-1.340000033378601,-12.331999778747559],"MajorVersion":4,"MinorVersion":4,"UseCheckerboardMaterialForMissingTextures":true,"UseOnlyFilenameForImageURI":true},"ASOBO_normal_map_convention":{"tangent_space_convention":"DirectX"}}},"bufferViews":[{"buffer":0,"byteLength":8496,"byteStride":36,"target":34962,"name":"BufferViewVertexND"},{"buffer":0,"byteLength":876,"byteOffset":8496,"target":34963,"name":"BufferViewIndex"}],"extensionsRequired":["MSFT_texture_dds"],"materials":[{"name":"livery","occlusionTexture":{"index":0},"pbrMetallicRoughness":{"baseColorTexture":{"index":1},"metallicRoughnessTexture":{"index":0}}}],"meshes":[{"primitives":[{"attributes":{"COLOR_0":5,"NORMAL":2,"POSITION":0,"TANGENT":1,"TEXCOORD_0":3,"TEXCOORD_1":4},"indices":6,"material":0,"mode":4,"extras":{"ASOBO_primitive":{"PrimitiveCount":146,"VertexType":"VTX","VertexVersion":2}}}],"name":"part000.001"}],"nodes":[{"mesh":0,"name":"node1"},{"translation":[0.15000000596046449,-1.0499999523162842,8.989999771118164],"rotation":[0.5,-0.5,-0.5,0.5],"name":"node2.001"},{"translation":[-0.15000000596046449,-1.0499999523162842,8.989999771118164],"rotation":[0.5,-0.5,-0.5,0.5],"name":"node3.001"},{"translation":[1.399999976158142,-0.7900000214576721,2.700000047683716],"rotation":[0.5,-0.5,-0.5,0.5],"name":"node4.001"},{"translation":[-1.399999976158142,-0.7900000214576721,2.700000047683716],"rotation":[0.5,-0.5,-0.5,0.5],"name":"node5.001"},{"name":"node0.001","children":[0,1,2,3,4]}],"scene":0,"scenes":[{"nodes":[5],"name":"Scene"}],"textures":[{"extensions":{"MSFT_texture_dds":{"source":0}}},{"extensions":{"MSFT_texture_dds":{"source":1}}}],"samplers":[{"magFilter":9729,"minFilter":9987,"wrapS":10497,"wrapT":10497}],"extensionsUsed":["ASOBO_normal_map_convention","MSFT_texture_dds","ASOBO_asset_optimized"],"buffers":[{"byteLength":9372,"uri":"ATR_42_500_FSX_LOD1.bin"}],"images":[{"uri":"OSP_ATR_42_500_M.PNG.DDS","name":"OSP_ATR_42_500_M","extras":"ASOBO_image_converted_meta"},{"uri":"OSP_ATR_42_500_T.PNG.DDS","name":"osp_atr_42_500_t","extras":"ASOBO_image_converted_meta"}]}
