{"accessors":[{"bufferView":0,"componentType":5126,"count":1,"min":[138.70833333333335],"max":[138.70833333333335],"type":"SCALAR"},{"bufferView":1,"componentType":5126,"count":1,"type":"VEC3"},{"bufferView":2,"componentType":5126,"count":1,"type":"VEC4"},{"bufferView":3,"componentType":5126,"count":1,"type":"VEC3"},{"bufferView":4,"componentType":5126,"count":1,"min":[14746.75],"max":[14746.75],"type":"SCALAR"},{"bufferView":5,"componentType":5126,"count":1,"type":"VEC3"},{"bufferView":6,"componentType":5126,"count":1,"type":"VEC4"},{"bufferView":7,"componentType":5126,"count":1,"type":"VEC3"},{"bufferView":8,"componentType":5126,"count":1,"type":"VEC3"},{"bufferView":9,"componentType":5126,"count":1,"type":"VEC4"},{"bufferView":10,"componentType":5126,"count":1,"type":"VEC3"},{"bufferView":11,"componentType":5126,"count":236,"min":[-12.116009712219239,-1.340000033378601,-12.331999778747559],"max":[12.116009712219239,5.627999782562256,10.315999984741211],"type":"VEC3","name":"part000.001_vertices#0_POSITION"},{"bufferView":11,"byteOffset":12,"componentType":5120,"count":236,"type":"VEC4","name":"part000.001_vertices#0_TANGENT"},{"bufferView":11,"byteOffset":16,"componentType":5120,"count":236,"type":"VEC4","name":"part000.001_vertices#0_NORMAL"},{"bufferView":11,"byteOffset":20,"componentType":5122,"count":236,"type":"VEC2","name":"part000.001_vertices#0_TEXCOORD_0"},{"bufferView":11,"byteOffset":24,"componentType":5122,"count":236,"type":"VEC2","name":"part000.001_vertices#0_TEXCOORD_1"},{"bufferView":11,"byteOffset":28,"componentType":5123,"count":236,"type":"VEC4","name":"part000.001_vertices#0_COLOR_0"},{"bufferView":12,"componentType":5123,"count":438,"type":"SCALAR","name":"part000.001_indices#0"}],"animations":[{"name":"EmptyAction","channels":[{"sampler":0,"target":{"node":0,"path":"translation"}},{"sampler":1,"target":{"node":0,"path":"rotation"}},{"sampler":2,"target":{"node":0,"path":"scale"}}],"samplers":[{"input":0,"output":1,"interpolation":"STEP"},{"input":0,"output":2,"interpolation":"STEP"},{"input":0,"output":3,"interpolation":"STEP"}]},{"name":"Logo_leftAction.002","channels":[{"sampler":0,"target":{"node":9,"path":"translation"}},{"sampler":1,"target":{"node":9,"path":"rotation"}},{"sampler":2,"target":{"node":9,"path":"scale"}}],"samplers":[{"input":4,"output":5,"interpolation":"STEP"},{"input":4,"output":6,"interpolation":"STEP"},{"input":4,"output":7,"interpolation":"STEP"}]},{"name":"Logo_leftAction.003","channels":[{"sampler":0,"target":{"node":11,"path":"translation"}},{"sampler":1,"target":{"node":11,"path":"rotation"}},{"sampler":2,"target":{"node":11,"path":"scale"}}],"samplers":[{"input":4,"output":8,"interpolation":"STEP"},{"input":4,"output":9,"interpolation":"STEP"},{"input":4,"output":10,"interpolation":"STEP"}]}],"asset":{"generator":"Khronos glTF Blender I/O v1.8.19 and Asobo Studio MSFS Blender I/O v1.3.3","copyright":"FSLTL","version":"2.0","extensions":{"ASOBO_asset_optimized":{"BoundingBoxMax":[12.116009712219239,5.627999782562256,10.315999984741211],"BoundingBoxMin":[-12.116009712219239,-1.340000033378601,-12.331999778747559],"MajorVersion":4,"MinorVersion":4,"UseCheckerboardMaterialForMissingTextures":true,"UseOnlyFilenameForImageURI":true},"ASOBO_normal_map_convention":{"tangent_space_convention":"DirectX"}}},"bufferViews":[{"buffer":0,"byteLength":4},{"buffer":0,"byteLength":12,"byteOffset":4},{"buffer":0,"byteLength":16,"byteOffset":16},{"buffer":0,"byteLength":12,"byteOffset":32},{"buffer":0,"byteLength":4,"byteOffset":44},{"buffer":0,"byteLength":12,"byteOffset":48},{"buffer":0,"byteLength":16,"byteOffset":60},{"buffer":0,"byteLength":12,"byteOffset":76},{"buffer":0,"byteLength":12,"byteOffset":88},{"buffer":0,"byteLength":16,"byteOffset":100},{"buffer":0,"byteLength":12,"byteOffset":116},{"buffer":0,"byteLength":8496,"byteStride":36,"byteOffset":128,"target":34962,"name":"BufferViewVertexND"},{"buffer":0,"byteLength":876,"byteOffset":8624,"target":34963,"name":"BufferViewIndex"}],"extensionsRequired":["MSFT_texture_dds"],"materials":[{"name":"livery","occlusionTexture":{"index":0},"pbrMetallicRoughness":{"baseColorTexture":{"index":1},"metallicRoughnessTexture":{"index":0}}}],"meshes":[{"primitives":[{"attributes":{"COLOR_0":16,"NORMAL":13,"POSITION":11,"TANGENT":12,"TEXCOORD_0":14,"TEXCOORD_1":15},"indices":17,"material":0,"mode":4,"extras":{"ASOBO_primitive":{"PrimitiveCount":146,"VertexType":"VTX","VertexVersion":2}}}],"name":"part000.001"}],"nodes":[{"translation":[1.402390718460083,-0.7905792593955994,2.7032597064971926],"name":"Empty"},{"translation":[0.0,0.0,7.089040279388428],"name":"Windows"},{"mesh":0,"name":"node1"},{"translation":[0.15000000596046449,-1.0499999523162842,8.989999771118164],"rotation":[0.5,-0.5,-0.5,0.5],"name":"node2.001"},{"translation":[-0.15000000596046449,-1.0499999523162842,8.989999771118164],"rotation":[0.5,-0.5,-0.5,0.5],"name":"node3.001"},{"translation":[1.399999976158142,-0.7900000214576721,2.700000047683716],"rotation":[0.5,-0.5,-0.5,0.5],"name":"node4.001"},{"translation":[-1.399999976158142,-0.7900000214576721,2.700000047683716],"rotation":[0.5,-0.5,-0.5,0.5],"name":"node5.001"},{"name":"node0.001","children":[2,3,4,5,6]},{"rotation":[-0.7071067690849304,0.0,0.0,0.7071067690849304],"name":"Logo_right.001_Orientation"},{"translation":[-2.954200029373169,4.742023944854736,-10.886773109436036],"rotation":[0.34320786595344546,-0.5345315933227539,0.6665313839912415,-0.3901541233062744],"extensions":{"ASOBO_macro_light":{"color":[0.4178843498229981,0.45641037821769717,1],"cone_angle":44.46895404427059,"day_night_cycle":true,"flash_duration":0,"flash_frequency":0,"flash_phase":0,"has_symmetry":false,"intensity":6,"rotation_speed":0}},"name":"Logo_right.001","children":[8]},{"rotation":[-0.7071067690849304,0.0,0.0,0.7071067690849304],"name":"Logo_left.001_Orientation"},{"translation":[2.954240322113037,4.742023944854736,-10.886773109436036],"rotation":[-0.3430686295032501,-0.5342538356781006,0.666542112827301,0.3906384706497192],"extensions":{"ASOBO_macro_light":{"color":[0.4178843498229981,0.45641037821769717,1],"cone_angle":44.500000669142888,"day_night_cycle":true,"flash_duration":0,"flash_frequency":0,"flash_phase":0,"has_symmetry":false,"intensity":6,"rotation_speed":0}},"name":"Logo_left.001","children":[10]}],"scene":0,"scenes":[{"nodes":[0,1,7,9,11],"name":"Scene"}],"textures":[{"extensions":{"MSFT_texture_dds":{"source":0}}},{"extensions":{"MSFT_texture_dds":{"source":1}}}],"samplers":[{"magFilter":9729,"minFilter":9987,"wrapS":10497,"wrapT":10497}],"extensionsUsed":["ASOBO_normal_map_convention","ASOBO_macro_light","MSFT_texture_dds","ASOBO_asset_optimized"],"buffers":[{"byteLength":9500,"uri":"ATR_42_500_FSX_LOD1.bin"}],"images":[{"uri":"OSP_ATR_42_500_M.PNG.DDS","name":"OSP_ATR_42_500_M","extras":"ASOBO_image_converted_meta"},{"uri":"OSP_ATR_42_500_T.PNG.DDS","name":"OSP_ATR_42_500_T","extras":"ASOBO_image_converted_meta"}]}
