{"accessors":[{"bufferView":0,"componentType":5126,"count":200,"min":[0.041666666666666667],"max":[8.333333333333334],"type":"SCALAR"},{"bufferView":1,"componentType":5126,"count":200,"type":"VEC4"},{"bufferView":2,"componentType":5126,"count":200,"type":"VEC4"},{"bufferView":3,"componentType":5126,"count":200,"type":"VEC3"},{"bufferView":4,"componentType":5126,"count":100,"min":[0.041666666666666667],"max":[4.166666666666667],"type":"SCALAR"},{"bufferView":5,"componentType":5126,"count":100,"type":"VEC3"},{"bufferView":6,"componentType":5126,"count":200,"type":"VEC4"},{"bufferView":7,"componentType":5126,"count":200,"type":"VEC3"},{"bufferView":8,"componentType":5126,"count":200,"type":"VEC4"},{"bufferView":9,"componentType":5126,"count":200,"type":"VEC3"},{"bufferView":10,"componentType":5126,"count":100,"type":"VEC4"},{"bufferView":11,"componentType":5126,"count":100,"type":"VEC4"},{"bufferView":12,"componentType":5126,"count":100,"type":"VEC4"},{"bufferView":13,"componentType":5126,"count":100,"type":"VEC4"},{"bufferView":14,"componentType":5126,"count":100,"type":"VEC3"},{"bufferView":15,"componentType":5126,"count":100,"type":"VEC4"},{"bufferView":16,"componentType":5126,"count":100,"type":"VEC3"},{"bufferView":17,"componentType":5126,"count":100,"type":"VEC4"},{"bufferView":18,"componentType":5126,"count":100,"type":"VEC3"},{"bufferView":19,"componentType":5126,"count":100,"type":"VEC4"},{"bufferView":20,"componentType":5126,"count":100,"type":"VEC3"},{"bufferView":21,"componentType":5126,"count":100,"type":"VEC4"},{"bufferView":22,"componentType":5126,"count":100,"type":"VEC3"},{"bufferView":23,"componentType":5126,"count":100,"type":"VEC4"},{"bufferView":24,"componentType":5126,"count":100,"type":"VEC3"},{"bufferView":25,"componentType":5126,"count":100,"type":"VEC4"},{"bufferView":26,"componentType":5126,"count":100,"type":"VEC3"},{"bufferView":27,"componentType":5126,"count":100,"type":"VEC4"},{"bufferView":28,"componentType":5126,"count":100,"type":"VEC3"},{"bufferView":29,"componentType":5126,"count":100,"type":"VEC4"},{"bufferView":30,"componentType":5126,"count":100,"type":"VEC4"},{"bufferView":31,"componentType":5126,"count":100,"type":"VEC4"},{"bufferView":32,"componentType":5126,"count":100,"type":"VEC4"},{"bufferView":33,"componentType":5126,"count":100,"type":"VEC4"},{"bufferView":34,"componentType":5126,"count":100,"type":"VEC4"},{"bufferView":35,"componentType":5126,"count":100,"type":"VEC4"},{"bufferView":36,"componentType":5126,"count":100,"min":[-7.104919910430908,-2.347459077835083,-1.3403595685958863],"max":[7.104919910430908,0.07293996959924698,0.0],"type":"VEC3","name":"part003.003_vertices#0_POSITION"},{"bufferView":36,"byteOffset":12,"componentType":5120,"count":100,"type":"VEC4","name":"part003.003_vertices#0_TANGENT"},{"bufferView":36,"byteOffset":16,"componentType":5120,"count":100,"type":"VEC4","name":"part003.003_vertices#0_NORMAL"},{"bufferView":36,"byteOffset":20,"componentType":5122,"count":100,"type":"VEC2","name":"part003.003_vertices#0_TEXCOORD_0"},{"bufferView":36,"byteOffset":24,"componentType":5122,"count":100,"type":"VEC2","name":"part003.003_vertices#0_TEXCOORD_1"},{"bufferView":36,"byteOffset":28,"componentType":5123,"count":100,"type":"VEC4","name":"part003.003_vertices#0_COLOR_0"},{"bufferView":37,"componentType":5123,"count":216,"type":"SCALAR","name":"part003.003_indices#0"},{"bufferView":36,"byteOffset":3600,"componentType":5126,"count":10,"min":[-0.09375999867916107,-0.04694000631570816,-0.08232000470161438],"max":[0.09375999867916107,1.3495301008224488,0.08049000799655914],"type":"VEC3","name":"part004.001_vertices#0_POSITION"},{"bufferView":36,"byteOffset":3612,"componentType":5120,"count":10,"type":"VEC4","name":"part004.001_vertices#0_TANGENT"},{"bufferView":36,"byteOffset":3616,"componentType":5120,"count":10,"type":"VEC4","name":"part004.001_vertices#0_NORMAL"},{"bufferView":36,"byteOffset":3620,"componentType":5122,"count":10,"type":"VEC2","name":"part004.001_vertices#0_TEXCOORD_0"},{"bufferView":36,"byteOffset":3624,"componentType":5122,"count":10,"type":"VEC2","name":"part004.001_vertices#0_TEXCOORD_1"},{"bufferView":36,"byteOffset":3628,"componentType":5123,"count":10,"type":"VEC4","name":"part004.001_vertices#0_COLOR_0"},{"bufferView":37,"byteOffset":432,"componentType":5123,"count":18,"type":"SCALAR","name":"part004.001_indices#0"},{"bufferView":36,"byteOffset":3960,"componentType":5126,"count":48,"min":[-0.38192999362945559,-0.010390001349151135,-0.3629400432109833],"max":[0.38192999362945559,0.8483000993728638,0.4021100699901581],"type":"VEC3","name":"part005.003_vertices#0_POSITION"},{"bufferView":36,"byteOffset":3972,"componentType":5120,"count":48,"type":"VEC4","name":"part005.003_vertices#0_TANGENT"},{"bufferView":36,"byteOffset":3976,"componentType":5120,"count":48,"type":"VEC4","name":"part005.003_vertices#0_NORMAL"},{"bufferView":36,"byteOffset":3980,"componentType":5122,"count":48,"type":"VEC2","name":"part005.003_vertices#0_TEXCOORD_0"},{"bufferView":36,"byteOffset":3984,"componentType":5122,"count":48,"type":"VEC2","name":"part005.003_vertices#0_TEXCOORD_1"},{"bufferView":36,"byteOffset":3988,"componentType":5123,"count":48,"type":"VEC4","name":"part005.003_vertices#0_COLOR_0"},{"bufferView":37,"byteOffset":468,"componentType":5123,"count":84,"type":"SCALAR","name":"part005.003_indices#0"},{"bufferView":36,"byteOffset":5688,"componentType":5126,"count":12,"min":[0.09332996606826782,-0.5431501865386963,-0.15749001502990724],"max":[2.2519991397857668,0.06436002254486084,0.07608000934123993],"type":"VEC3","name":"part006.003_vertices#0_POSITION"},{"bufferView":36,"byteOffset":5700,"componentType":5120,"count":12,"type":"VEC4","name":"part006.003_vertices#0_TANGENT"},{"bufferView":36,"byteOffset":5704,"componentType":5120,"count":12,"type":"VEC4","name":"part006.003_vertices#0_NORMAL"},{"bufferView":36,"byteOffset":5708,"componentType":5122,"count":12,"type":"VEC2","name":"part006.003_vertices#0_TEXCOORD_0"},{"bufferView":36,"byteOffset":5712,"componentType":5122,"count":12,"type":"VEC2","name":"part006.003_vertices#0_TEXCOORD_1"},{"bufferView":36,"byteOffset":5716,"componentType":5123,"count":12,"type":"VEC4","name":"part006.003_vertices#0_COLOR_0"},{"bufferView":37,"byteOffset":636,"componentType":5123,"count":24,"type":"SCALAR","name":"part006.003_indices#0"},{"bufferView":36,"byteOffset":6120,"componentType":5126,"count":46,"min":[-0.6559997200965881,-0.6393802762031555,-1.2735304832458497],"max":[0.6560096740722656,0.6082903146743774,0.02429000847041607],"type":"VEC3","name":"part007.003_vertices#0_POSITION"},{"bufferView":36,"byteOffset":6132,"componentType":5120,"count":46,"type":"VEC4","name":"part007.003_vertices#0_TANGENT"},{"bufferView":36,"byteOffset":6136,"componentType":5120,"count":46,"type":"VEC4","name":"part007.003_vertices#0_NORMAL"},{"bufferView":36,"byteOffset":6140,"componentType":5122,"count":46,"type":"VEC2","name":"part007.003_vertices#0_TEXCOORD_0"},{"bufferView":36,"byteOffset":6144,"componentType":5122,"count":46,"type":"VEC2","name":"part007.003_vertices#0_TEXCOORD_1"},{"bufferView":36,"byteOffset":6148,"componentType":5123,"count":46,"type":"VEC4","name":"part007.003_vertices#0_COLOR_0"},{"bufferView":37,"byteOffset":684,"componentType":5123,"count":90,"type":"SCALAR","name":"part007.003_indices#0"},{"bufferView":36,"byteOffset":7776,"componentType":5126,"count":12,"min":[-2.2520499229431154,-0.06464999914169312,-0.07610996067523956],"max":[-0.09339000284671784,0.5428400039672852,0.15745992958545686],"type":"VEC3","name":"part008.003_vertices#0_POSITION"},{"bufferView":36,"byteOffset":7788,"componentType":5120,"count":12,"type":"VEC4","name":"part008.003_vertices#0_TANGENT"},{"bufferView":36,"byteOffset":7792,"componentType":5120,"count":12,"type":"VEC4","name":"part008.003_vertices#0_NORMAL"},{"bufferView":36,"byteOffset":7796,"componentType":5122,"count":12,"type":"VEC2","name":"part008.003_vertices#0_TEXCOORD_0"},{"bufferView":36,"byteOffset":7800,"componentType":5122,"count":12,"type":"VEC2","name":"part008.003_vertices#0_TEXCOORD_1"},{"bufferView":36,"byteOffset":7804,"componentType":5123,"count":12,"type":"VEC4","name":"part008.003_vertices#0_COLOR_0"},{"bufferView":37,"byteOffset":864,"componentType":5123,"count":24,"type":"SCALAR","name":"part008.003_indices#0"},{"bufferView":36,"byteOffset":8208,"componentType":5126,"count":46,"min":[-0.6563102602958679,-0.6393798589706421,-1.2735190391540528],"max":[0.6557002663612366,0.608289897441864,0.024279983714222909],"type":"VEC3","name":"part009.003_vertices#0_POSITION"},{"bufferView":36,"byteOffset":8220,"componentType":5120,"count":46,"type":"VEC4","name":"part009.003_vertices#0_TANGENT"},{"bufferView":36,"byteOffset":8224,"componentType":5120,"count":46,"type":"VEC4","name":"part009.003_vertices#0_NORMAL"},{"bufferView":36,"byteOffset":8228,"componentType":5122,"count":46,"type":"VEC2","name":"part009.003_vertices#0_TEXCOORD_0"},{"bufferView":36,"byteOffset":8232,"componentType":5122,"count":46,"type":"VEC2","name":"part009.003_vertices#0_TEXCOORD_1"},{"bufferView":36,"byteOffset":8236,"componentType":5123,"count":46,"type":"VEC4","name":"part009.003_vertices#0_COLOR_0"},{"bufferView":37,"byteOffset":912,"componentType":5123,"count":90,"type":"SCALAR","name":"part009.003_indices#0"},{"bufferView":36,"byteOffset":9864,"componentType":5126,"count":8,"min":[0.0,-0.12888000905513764,0.0],"max":[0.6377097964286804,0.0,6.523787498474121],"type":"VEC3","name":"part010.003_vertices#0_POSITION"},{"bufferView":36,"byteOffset":9876,"componentType":5120,"count":8,"type":"VEC4","name":"part010.003_vertices#0_TANGENT"},{"bufferView":36,"byteOffset":9880,"componentType":5120,"count":8,"type":"VEC4","name":"part010.003_vertices#0_NORMAL"},{"bufferView":36,"byteOffset":9884,"componentType":5122,"count":8,"type":"VEC2","name":"part010.003_vertices#0_TEXCOORD_0"},{"bufferView":36,"byteOffset":9888,"componentType":5122,"count":8,"type":"VEC2","name":"part010.003_vertices#0_TEXCOORD_1"},{"bufferView":36,"byteOffset":9892,"componentType":5123,"count":8,"type":"VEC4","name":"part010.003_vertices#0_COLOR_0"},{"bufferView":37,"byteOffset":1092,"componentType":5123,"count":12,"type":"SCALAR","name":"part010.003_indices#0"},{"bufferView":36,"byteOffset":10152,"componentType":5126,"count":8,"min":[0.0,-0.1288900077342987,-6.523787498474121],"max":[0.6377102136611939,0.0,0.0],"type":"VEC3","name":"part011.003_vertices#0_POSITION"},{"bufferView":36,"byteOffset":10164,"componentType":5120,"count":8,"type":"VEC4","name":"part011.003_vertices#0_TANGENT"},{"bufferView":36,"byteOffset":10168,"componentType":5120,"count":8,"type":"VEC4","name":"part011.003_vertices#0_NORMAL"},{"bufferView":36,"byteOffset":10172,"componentType":5122,"count":8,"type":"VEC2","name":"part011.003_vertices#0_TEXCOORD_0"},{"bufferView":36,"byteOffset":10176,"componentType":5122,"count":8,"type":"VEC2","name":"part011.003_vertices#0_TEXCOORD_1"},{"bufferView":36,"byteOffset":10180,"componentType":5123,"count":8,"type":"VEC4","name":"part011.003_vertices#0_COLOR_0"},{"bufferView":37,"byteOffset":1116,"componentType":5123,"count":12,"type":"SCALAR","name":"part011.003_indices#0"},{"bufferView":36,"byteOffset":10440,"componentType":5126,"count":8,"min":[0.0,-0.12038996815681458,-0.00017999995907302946],"max":[0.6799100041389465,-0.00002999999196617864,1.8007795810699463],"type":"VEC3","name":"part012.003_vertices#0_POSITION"},{"bufferView":36,"byteOffset":10452,"componentType":5120,"count":8,"type":"VEC4","name":"part012.003_vertices#0_TANGENT"},{"bufferView":36,"byteOffset":10456,"componentType":5120,"count":8,"type":"VEC4","name":"part012.003_vertices#0_NORMAL"},{"bufferView":36,"byteOffset":10460,"componentType":5122,"count":8,"type":"VEC2","name":"part012.003_vertices#0_TEXCOORD_0"},{"bufferView":36,"byteOffset":10464,"componentType":5122,"count":8,"type":"VEC2","name":"part012.003_vertices#0_TEXCOORD_1"},{"bufferView":36,"byteOffset":10468,"componentType":5123,"count":8,"type":"VEC4","name":"part012.003_vertices#0_COLOR_0"},{"bufferView":37,"byteOffset":1140,"componentType":5123,"count":12,"type":"SCALAR","name":"part012.003_indices#0"},{"bufferView":36,"byteOffset":10728,"componentType":5126,"count":8,"min":[0.0,-0.12034998089075089,-1.8009593486785889],"max":[0.6799100041389465,0.0,0.0],"type":"VEC3","name":"part013.003_vertices#0_POSITION"},{"bufferView":36,"byteOffset":10740,"componentType":5120,"count":8,"type":"VEC4","name":"part013.003_vertices#0_TANGENT"},{"bufferView":36,"byteOffset":10744,"componentType":5120,"count":8,"type":"VEC4","name":"part013.003_vertices#0_NORMAL"},{"bufferView":36,"byteOffset":10748,"componentType":5122,"count":8,"type":"VEC2","name":"part013.003_vertices#0_TEXCOORD_0"},{"bufferView":36,"byteOffset":10752,"componentType":5122,"count":8,"type":"VEC2","name":"part013.003_vertices#0_TEXCOORD_1"},{"bufferView":36,"byteOffset":10756,"componentType":5123,"count":8,"type":"VEC4","name":"part013.003_vertices#0_COLOR_0"},{"bufferView":37,"byteOffset":1164,"componentType":5123,"count":12,"type":"SCALAR","name":"part013.003_indices#0"},{"bufferView":36,"byteOffset":11016,"componentType":5126,"count":23,"min":[0.0,0.0,-0.03583999350667],"max":[1.2261199951171876,0.23426999151706696,4.4999589920043949],"type":"VEC3","name":"part014.003_vertices#0_POSITION"},{"bufferView":36,"byteOffset":11028,"componentType":5120,"count":23,"type":"VEC4","name":"part014.003_vertices#0_TANGENT"},{"bufferView":36,"byteOffset":11032,"componentType":5120,"count":23,"type":"VEC4","name":"part014.003_vertices#0_NORMAL"},{"bufferView":36,"byteOffset":11036,"componentType":5122,"count":23,"type":"VEC2","name":"part014.003_vertices#0_TEXCOORD_0"},{"bufferView":36,"byteOffset":11040,"componentType":5122,"count":23,"type":"VEC2","name":"part014.003_vertices#0_TEXCOORD_1"},{"bufferView":36,"byteOffset":11044,"componentType":5123,"count":23,"type":"VEC4","name":"part014.003_vertices#0_COLOR_0"},{"bufferView":37,"byteOffset":1188,"componentType":5123,"count":39,"type":"SCALAR","name":"part014.003_indices#0"},{"bufferView":36,"byteOffset":11844,"componentType":5126,"count":8,"min":[0.0,-0.00009999996836995706,-3.1967194080352785],"max":[0.4440201222896576,0.021369991824030877,-0.0006099998718127608],"type":"VEC3","name":"part015.003_vertices#0_POSITION"},{"bufferView":36,"byteOffset":11856,"componentType":5120,"count":8,"type":"VEC4","name":"part015.003_vertices#0_TANGENT"},{"bufferView":36,"byteOffset":11860,"componentType":5120,"count":8,"type":"VEC4","name":"part015.003_vertices#0_NORMAL"},{"bufferView":36,"byteOffset":11864,"componentType":5122,"count":8,"type":"VEC2","name":"part015.003_vertices#0_TEXCOORD_0"},{"bufferView":36,"byteOffset":11868,"componentType":5122,"count":8,"type":"VEC2","name":"part015.003_vertices#0_TEXCOORD_1"},{"bufferView":36,"byteOffset":11872,"componentType":5123,"count":8,"type":"VEC4","name":"part015.003_vertices#0_COLOR_0"},{"bufferView":37,"byteOffset":1266,"componentType":5123,"count":12,"type":"SCALAR","name":"part015.003_indices#0"},{"bufferView":36,"byteOffset":12132,"componentType":5126,"count":23,"min":[0.0,0.0,-4.499861240386963],"max":[1.2261199951171876,0.23426008224487306,0.035950012505054477],"type":"VEC3","name":"part016.003_vertices#0_POSITION"},{"bufferView":36,"byteOffset":12144,"componentType":5120,"count":23,"type":"VEC4","name":"part016.003_vertices#0_TANGENT"},{"bufferView":36,"byteOffset":12148,"componentType":5120,"count":23,"type":"VEC4","name":"part016.003_vertices#0_NORMAL"},{"bufferView":36,"byteOffset":12152,"componentType":5122,"count":23,"type":"VEC2","name":"part016.003_vertices#0_TEXCOORD_0"},{"bufferView":36,"byteOffset":12156,"componentType":5122,"count":23,"type":"VEC2","name":"part016.003_vertices#0_TEXCOORD_1"},{"bufferView":36,"byteOffset":12160,"componentType":5123,"count":23,"type":"VEC4","name":"part016.003_vertices#0_COLOR_0"},{"bufferView":37,"byteOffset":1290,"componentType":5123,"count":39,"type":"SCALAR","name":"part016.003_indices#0"},{"bufferView":36,"byteOffset":12960,"componentType":5126,"count":8,"min":[0.0,0.0,0.0],"max":[0.4440201222896576,0.02144000306725502,3.1961212158203127],"type":"VEC3","name":"part017.003_vertices#0_POSITION"},{"bufferView":36,"byteOffset":12972,"componentType":5120,"count":8,"type":"VEC4","name":"part017.003_vertices#0_TANGENT"},{"bufferView":36,"byteOffset":12976,"componentType":5120,"count":8,"type":"VEC4","name":"part017.003_vertices#0_NORMAL"},{"bufferView":36,"byteOffset":12980,"componentType":5122,"count":8,"type":"VEC2","name":"part017.003_vertices#0_TEXCOORD_0"},{"bufferView":36,"byteOffset":12984,"componentType":5122,"count":8,"type":"VEC2","name":"part017.003_vertices#0_TEXCOORD_1"},{"bufferView":36,"byteOffset":12988,"componentType":5123,"count":8,"type":"VEC4","name":"part017.003_vertices#0_COLOR_0"},{"bufferView":37,"byteOffset":1368,"componentType":5123,"count":12,"type":"SCALAR","name":"part017.003_indices#0"},{"bufferView":36,"byteOffset":13248,"componentType":5126,"count":28,"min":[-0.000040000002627493817,-0.000009999997018894647,-0.23712995648384095],"max":[1.1518501043319703,0.2165699452161789,7.480588436126709],"type":"VEC3","name":"part018.003_vertices#0_POSITION"},{"bufferView":36,"byteOffset":13260,"componentType":5120,"count":28,"type":"VEC4","name":"part018.003_vertices#0_TANGENT"},{"bufferView":36,"byteOffset":13264,"componentType":5120,"count":28,"type":"VEC4","name":"part018.003_vertices#0_NORMAL"},{"bufferView":36,"byteOffset":13268,"componentType":5122,"count":28,"type":"VEC2","name":"part018.003_vertices#0_TEXCOORD_0"},{"bufferView":36,"byteOffset":13272,"componentType":5122,"count":28,"type":"VEC2","name":"part018.003_vertices#0_TEXCOORD_1"},{"bufferView":36,"byteOffset":13276,"componentType":5123,"count":28,"type":"VEC4","name":"part018.003_vertices#0_COLOR_0"},{"bufferView":37,"byteOffset":1392,"componentType":5123,"count":54,"type":"SCALAR","name":"part018.003_indices#0"},{"bufferView":36,"byteOffset":14256,"componentType":5126,"count":8,"min":[-0.00006999997276579961,-0.000019999999494757504,-6.296871662139893],"max":[0.43301984667778017,0.019439999014139177,-0.0002200000308221206],"type":"VEC3","name":"part019.003_vertices#0_POSITION"},{"bufferView":36,"byteOffset":14268,"componentType":5120,"count":8,"type":"VEC4","name":"part019.003_vertices#0_TANGENT"},{"bufferView":36,"byteOffset":14272,"componentType":5120,"count":8,"type":"VEC4","name":"part019.003_vertices#0_NORMAL"},{"bufferView":36,"byteOffset":14276,"componentType":5122,"count":8,"type":"VEC2","name":"part019.003_vertices#0_TEXCOORD_0"},{"bufferView":36,"byteOffset":14280,"componentType":5122,"count":8,"type":"VEC2","name":"part019.003_vertices#0_TEXCOORD_1"},{"bufferView":36,"byteOffset":14284,"componentType":5123,"count":8,"type":"VEC4","name":"part019.003_vertices#0_COLOR_0"},{"bufferView":37,"byteOffset":1500,"componentType":5123,"count":12,"type":"SCALAR","name":"part019.003_indices#0"},{"bufferView":36,"byteOffset":14544,"componentType":5126,"count":28,"min":[-0.000010000000656873454,0.0,-7.480678558349609],"max":[1.151880145072937,0.21657995879650117,0.2370399534702301],"type":"VEC3","name":"part020.003_vertices#0_POSITION"},{"bufferView":36,"byteOffset":14556,"componentType":5120,"count":28,"type":"VEC4","name":"part020.003_vertices#0_TANGENT"},{"bufferView":36,"byteOffset":14560,"componentType":5120,"count":28,"type":"VEC4","name":"part020.003_vertices#0_NORMAL"},{"bufferView":36,"byteOffset":14564,"componentType":5122,"count":28,"type":"VEC2","name":"part020.003_vertices#0_TEXCOORD_0"},{"bufferView":36,"byteOffset":14568,"componentType":5122,"count":28,"type":"VEC2","name":"part020.003_vertices#0_TEXCOORD_1"},{"bufferView":36,"byteOffset":14572,"componentType":5123,"count":28,"type":"VEC4","name":"part020.003_vertices#0_COLOR_0"},{"bufferView":37,"byteOffset":1524,"componentType":5123,"count":54,"type":"SCALAR","name":"part020.003_indices#0"},{"bufferView":36,"byteOffset":15552,"componentType":5126,"count":8,"min":[-0.000009999996109399945,0.0,0.0],"max":[0.43308985233306887,0.019449999555945398,6.2966413497924809],"type":"VEC3","name":"part021.003_vertices#0_POSITION"},{"bufferView":36,"byteOffset":15564,"componentType":5120,"count":8,"type":"VEC4","name":"part021.003_vertices#0_TANGENT"},{"bufferView":36,"byteOffset":15568,"componentType":5120,"count":8,"type":"VEC4","name":"part021.003_vertices#0_NORMAL"},{"bufferView":36,"byteOffset":15572,"componentType":5122,"count":8,"type":"VEC2","name":"part021.003_vertices#0_TEXCOORD_0"},{"bufferView":36,"byteOffset":15576,"componentType":5122,"count":8,"type":"VEC2","name":"part021.003_vertices#0_TEXCOORD_1"},{"bufferView":36,"byteOffset":15580,"componentType":5123,"count":8,"type":"VEC4","name":"part021.003_vertices#0_COLOR_0"},{"bufferView":37,"byteOffset":1632,"componentType":5123,"count":12,"type":"SCALAR","name":"part021.003_indices#0"},{"bufferView":36,"byteOffset":15840,"componentType":5126,"count":14,"min":[0.0,-0.05494997277855873,-0.31381985545158389],"max":[2.415479898452759,0.30345985293388369,-0.010569995269179345],"type":"VEC3","name":"part022.003_vertices#0_POSITION"},{"bufferView":36,"byteOffset":15852,"componentType":5120,"count":14,"type":"VEC4","name":"part022.003_vertices#0_TANGENT"},{"bufferView":36,"byteOffset":15856,"componentType":5120,"count":14,"type":"VEC4","name":"part022.003_vertices#0_NORMAL"},{"bufferView":36,"byteOffset":15860,"componentType":5122,"count":14,"type":"VEC2","name":"part022.003_vertices#0_TEXCOORD_0"},{"bufferView":36,"byteOffset":15864,"componentType":5122,"count":14,"type":"VEC2","name":"part022.003_vertices#0_TEXCOORD_1"},{"bufferView":36,"byteOffset":15868,"componentType":5123,"count":14,"type":"VEC4","name":"part022.003_vertices#0_COLOR_0"},{"bufferView":37,"byteOffset":1656,"componentType":5123,"count":18,"type":"SCALAR","name":"part022.003_indices#0"},{"bufferView":36,"byteOffset":16344,"componentType":5126,"count":14,"min":[-0.000029999999242136256,-0.054950013756752017,-0.31928008794784548],"max":[2.0721099376678469,0.31126007437705996,0.015520003624260426],"type":"VEC3","name":"part023.003_vertices#0_POSITION"},{"bufferView":36,"byteOffset":16356,"componentType":5120,"count":14,"type":"VEC4","name":"part023.003_vertices#0_TANGENT"},{"bufferView":36,"byteOffset":16360,"componentType":5120,"count":14,"type":"VEC4","name":"part023.003_vertices#0_NORMAL"},{"bufferView":36,"byteOffset":16364,"componentType":5122,"count":14,"type":"VEC2","name":"part023.003_vertices#0_TEXCOORD_0"},{"bufferView":36,"byteOffset":16368,"componentType":5122,"count":14,"type":"VEC2","name":"part023.003_vertices#0_TEXCOORD_1"},{"bufferView":36,"byteOffset":16372,"componentType":5123,"count":14,"type":"VEC4","name":"part023.003_vertices#0_COLOR_0"},{"bufferView":37,"byteOffset":1692,"componentType":5123,"count":18,"type":"SCALAR","name":"part023.003_indices#0"},{"bufferView":36,"byteOffset":16848,"componentType":5126,"count":14,"min":[-0.000029999999242136256,-0.10505995154380799,-0.3018898665904999],"max":[1.7385599613189698,0.2717398703098297,0.0015799993416294456],"type":"VEC3","name":"part024.003_vertices#0_POSITION"},{"bufferView":36,"byteOffset":16860,"componentType":5120,"count":14,"type":"VEC4","name":"part024.003_vertices#0_TANGENT"},{"bufferView":36,"byteOffset":16864,"componentType":5120,"count":14,"type":"VEC4","name":"part024.003_vertices#0_NORMAL"},{"bufferView":36,"byteOffset":16868,"componentType":5122,"count":14,"type":"VEC2","name":"part024.003_vertices#0_TEXCOORD_0"},{"bufferView":36,"byteOffset":16872,"componentType":5122,"count":14,"type":"VEC2","name":"part024.003_vertices#0_TEXCOORD_1"},{"bufferView":36,"byteOffset":16876,"componentType":5123,"count":14,"type":"VEC4","name":"part024.003_vertices#0_COLOR_0"},{"bufferView":37,"byteOffset":1728,"componentType":5123,"count":18,"type":"SCALAR","name":"part024.003_indices#0"},{"bufferView":36,"byteOffset":17352,"componentType":5126,"count":14,"min":[0.0,-0.05495000630617142,0.010560001246631146],"max":[2.415479898452759,0.303460031747818,0.3138200342655182],"type":"VEC3","name":"part025.003_vertices#0_POSITION"},{"bufferView":36,"byteOffset":17364,"componentType":5120,"count":14,"type":"VEC4","name":"part025.003_vertices#0_TANGENT"},{"bufferView":36,"byteOffset":17368,"componentType":5120,"count":14,"type":"VEC4","name":"part025.003_vertices#0_NORMAL"},{"bufferView":36,"byteOffset":17372,"componentType":5122,"count":14,"type":"VEC2","name":"part025.003_vertices#0_TEXCOORD_0"},{"bufferView":36,"byteOffset":17376,"componentType":5122,"count":14,"type":"VEC2","name":"part025.003_vertices#0_TEXCOORD_1"},{"bufferView":36,"byteOffset":17380,"componentType":5123,"count":14,"type":"VEC4","name":"part025.003_vertices#0_COLOR_0"},{"bufferView":37,"byteOffset":1764,"componentType":5123,"count":18,"type":"SCALAR","name":"part025.003_indices#0"},{"bufferView":36,"byteOffset":17856,"componentType":5126,"count":14,"min":[-0.000029999999242136256,-0.054950013756752017,-0.015530004166066647],"max":[2.0721099376678469,0.31126007437705996,0.31928008794784548],"type":"VEC3","name":"part026.003_vertices#0_POSITION"},{"bufferView":36,"byteOffset":17868,"componentType":5120,"count":14,"type":"VEC4","name":"part026.003_vertices#0_TANGENT"},{"bufferView":36,"byteOffset":17872,"componentType":5120,"count":14,"type":"VEC4","name":"part026.003_vertices#0_NORMAL"},{"bufferView":36,"byteOffset":17876,"componentType":5122,"count":14,"type":"VEC2","name":"part026.003_vertices#0_TEXCOORD_0"},{"bufferView":36,"byteOffset":17880,"componentType":5122,"count":14,"type":"VEC2","name":"part026.003_vertices#0_TEXCOORD_1"},{"bufferView":36,"byteOffset":17884,"componentType":5123,"count":14,"type":"VEC4","name":"part026.003_vertices#0_COLOR_0"},{"bufferView":37,"byteOffset":1800,"componentType":5123,"count":18,"type":"SCALAR","name":"part026.003_indices#0"},{"bufferView":36,"byteOffset":18360,"componentType":5126,"count":14,"min":[-0.000029999999242136256,-0.1050499677658081,-0.001479999627918005],"max":[1.7385599613189698,0.27174991369247439,0.30198994278907778],"type":"VEC3","name":"part027.003_vertices#0_POSITION"},{"bufferView":36,"byteOffset":18372,"componentType":5120,"count":14,"type":"VEC4","name":"part027.003_vertices#0_TANGENT"},{"bufferView":36,"byteOffset":18376,"componentType":5120,"count":14,"type":"VEC4","name":"part027.003_vertices#0_NORMAL"},{"bufferView":36,"byteOffset":18380,"componentType":5122,"count":14,"type":"VEC2","name":"part027.003_vertices#0_TEXCOORD_0"},{"bufferView":36,"byteOffset":18384,"componentType":5122,"count":14,"type":"VEC2","name":"part027.003_vertices#0_TEXCOORD_1"},{"bufferView":36,"byteOffset":18388,"componentType":5123,"count":14,"type":"VEC4","name":"part027.003_vertices#0_COLOR_0"},{"bufferView":37,"byteOffset":1836,"componentType":5123,"count":18,"type":"SCALAR","name":"part027.003_indices#0"},{"bufferView":36,"byteOffset":18864,"componentType":5126,"count":538,"min":[-17.70030975341797,-2.9211199283599855,-23.666000366210939],"max":[17.70030975341797,8.408300399780274,20.532459259033204],"type":"VEC3","name":"part002.001_vertices#0_POSITION"},{"bufferView":36,"byteOffset":18876,"componentType":5120,"count":538,"type":"VEC4","name":"part002.001_vertices#0_TANGENT"},{"bufferView":36,"byteOffset":18880,"componentType":5120,"count":538,"type":"VEC4","name":"part002.001_vertices#0_NORMAL"},{"bufferView":36,"byteOffset":18884,"componentType":5122,"count":538,"type":"VEC2","name":"part002.001_vertices#0_TEXCOORD_0"},{"bufferView":36,"byteOffset":18888,"componentType":5122,"count":538,"type":"VEC2","name":"part002.001_vertices#0_TEXCOORD_1"},{"bufferView":36,"byteOffset":18892,"componentType":5123,"count":538,"type":"VEC4","name":"part002.001_vertices#0_COLOR_0"},{"bufferView":37,"byteOffset":1872,"componentType":5123,"count":1518,"type":"SCALAR","name":"part002.001_indices#0"}],"animations":[{"name":"GEAR_center","channels":[{"sampler":0,"target":{"node":36,"path":"rotation"}},{"sampler":1,"target":{"node":43,"path":"rotation"}},{"sampler":2,"target":{"node":40,"path":"translation"}}],"samplers":[{"input":0,"output":1,"interpolation":"LINEAR"},{"input":0,"output":2,"interpolation":"LINEAR"},{"input":0,"output":3,"interpolation":"LINEAR"}]},{"name":"REVERSERS","channels":[{"sampler":0,"target":{"node":38,"path":"translation"}}],"samplers":[{"input":4,"output":5,"interpolation":"LINEAR"}]},{"name":"GEAR_left","channels":[{"sampler":0,"target":{"node":47,"path":"rotation"}},{"sampler":1,"target":{"node":45,"path":"translation"}}],"samplers":[{"input":0,"output":6,"interpolation":"LINEAR"},{"input":0,"output":7,"interpolation":"LINEAR"}]},{"name":"GEAR_right","channels":[{"sampler":0,"target":{"node":51,"path":"rotation"}},{"sampler":1,"target":{"node":49,"path":"translation"}}],"samplers":[{"input":0,"output":8,"interpolation":"LINEAR"},{"input":0,"output":9,"interpolation":"LINEAR"}]},{"name":"SPOILERS","channels":[{"sampler":0,"target":{"node":53,"path":"rotation"}},{"sampler":1,"target":{"node":55,"path":"rotation"}},{"sampler":2,"target":{"node":57,"path":"rotation"}},{"sampler":3,"target":{"node":59,"path":"rotation"}}],"samplers":[{"input":4,"output":10,"interpolation":"LINEAR"},{"input":4,"output":11,"interpolation":"LINEAR"},{"input":4,"output":12,"interpolation":"LINEAR"},{"input":4,"output":13,"interpolation":"LINEAR"}]},{"name":"FLAPS","channels":[{"sampler":0,"target":{"node":63,"path":"translation"}},{"sampler":1,"target":{"node":63,"path":"rotation"}},{"sampler":2,"target":{"node":61,"path":"translation"}},{"sampler":3,"target":{"node":61,"path":"rotation"}},{"sampler":4,"target":{"node":67,"path":"translation"}},{"sampler":5,"target":{"node":67,"path":"rotation"}},{"sampler":6,"target":{"node":65,"path":"translation"}},{"sampler":7,"target":{"node":65,"path":"rotation"}},{"sampler":8,"target":{"node":71,"path":"translation"}},{"sampler":9,"target":{"node":71,"path":"rotation"}},{"sampler":10,"target":{"node":69,"path":"translation"}},{"sampler":11,"target":{"node":69,"path":"rotation"}},{"sampler":12,"target":{"node":75,"path":"translation"}},{"sampler":13,"target":{"node":75,"path":"rotation"}},{"sampler":14,"target":{"node":73,"path":"translation"}},{"sampler":15,"target":{"node":73,"path":"rotation"}},{"sampler":16,"target":{"node":77,"path":"rotation"}},{"sampler":17,"target":{"node":79,"path":"rotation"}},{"sampler":18,"target":{"node":81,"path":"rotation"}},{"sampler":19,"target":{"node":83,"path":"rotation"}},{"sampler":20,"target":{"node":85,"path":"rotation"}},{"sampler":21,"target":{"node":87,"path":"rotation"}}],"samplers":[{"input":4,"output":14,"interpolation":"LINEAR"},{"input":4,"output":15,"interpolation":"LINEAR"},{"input":4,"output":16,"interpolation":"LINEAR"},{"input":4,"output":17,"interpolation":"LINEAR"},{"input":4,"output":18,"interpolation":"LINEAR"},{"input":4,"output":19,"interpolation":"LINEAR"},{"input":4,"output":20,"interpolation":"LINEAR"},{"input":4,"output":21,"interpolation":"LINEAR"},{"input":4,"output":22,"interpolation":"LINEAR"},{"input":4,"output":23,"interpolation":"LINEAR"},{"input":4,"output":24,"interpolation":"LINEAR"},{"input":4,"output":25,"interpolation":"LINEAR"},{"input":4,"output":26,"interpolation":"LINEAR"},{"input":4,"output":27,"interpolation":"LINEAR"},{"input":4,"output":28,"interpolation":"LINEAR"},{"input":4,"output":29,"interpolation":"LINEAR"},{"input":4,"output":30,"interpolation":"LINEAR"},{"input":4,"output":31,"interpolation":"LINEAR"},{"input":4,"output":32,"interpolation":"LINEAR"},{"input":4,"output":33,"interpolation":"LINEAR"},{"input":4,"output":34,"interpolation":"LINEAR"},{"input":4,"output":35,"interpolation":"LINEAR"}]}],"asset":{"generator":"Khronos glTF Blender I/O v3.6.28 and Asobo Studio MSFS2020 Blender I/O v3.3.1 with Blender v3.6.17","version":"2.0","extensions":{"ASOBO_asset_optimized":{"BoundingBoxMax":[17.70030975341797,8.408300399780274,20.532459259033204],"BoundingBoxMin":[-17.70030975341797,-2.9211199283599855,-23.666000366210939],"MajorVersion":4,"MinorVersion":4,"UseCheckerboardMaterialForMissingTextures":true,"UseOnlyFilenameForImageURI":true},"ASOBO_normal_map_convention":{"tangent_space_convention":"DirectX"}}},"bufferViews":[{"buffer":0,"byteLength":800},{"buffer":0,"byteLength":3200,"byteOffset":800},{"buffer":0,"byteLength":3200,"byteOffset":4000},{"buffer":0,"byteLength":2400,"byteOffset":7200},{"buffer":0,"byteLength":400,"byteOffset":9600},{"buffer":0,"byteLength":1200,"byteOffset":10000},{"buffer":0,"byteLength":3200,"byteOffset":11200},{"buffer":0,"byteLength":2400,"byteOffset":14400},{"buffer":0,"byteLength":3200,"byteOffset":16800},{"buffer":0,"byteLength":2400,"byteOffset":20000},{"buffer":0,"byteLength":1600,"byteOffset":22400},{"buffer":0,"byteLength":1600,"byteOffset":24000},{"buffer":0,"byteLength":1600,"byteOffset":25600},{"buffer":0,"byteLength":1600,"byteOffset":27200},{"buffer":0,"byteLength":1200,"byteOffset":28800},{"buffer":0,"byteLength":1600,"byteOffset":30000},{"buffer":0,"byteLength":1200,"byteOffset":31600},{"buffer":0,"byteLength":1600,"byteOffset":32800},{"buffer":0,"byteLength":1200,"byteOffset":34400},{"buffer":0,"byteLength":1600,"byteOffset":35600},{"buffer":0,"byteLength":1200,"byteOffset":37200},{"buffer":0,"byteLength":1600,"byteOffset":38400},{"buffer":0,"byteLength":1200,"byteOffset":40000},{"buffer":0,"byteLength":1600,"byteOffset":41200},{"buffer":0,"byteLength":1200,"byteOffset":42800},{"buffer":0,"byteLength":1600,"byteOffset":44000},{"buffer":0,"byteLength":1200,"byteOffset":45600},{"buffer":0,"byteLength":1600,"byteOffset":46800},{"buffer":0,"byteLength":1200,"byteOffset":48400},{"buffer":0,"byteLength":1600,"byteOffset":49600},{"buffer":0,"byteLength":1600,"byteOffset":51200},{"buffer":0,"byteLength":1600,"byteOffset":52800},{"buffer":0,"byteLength":1600,"byteOffset":54400},{"buffer":0,"byteLength":1600,"byteOffset":56000},{"buffer":0,"byteLength":1600,"byteOffset":57600},{"buffer":0,"byteLength":1600,"byteOffset":59200},{"buffer":0,"byteLength":38232,"byteStride":36,"byteOffset":60800,"target":34962,"name":"BufferViewVertexND"},{"buffer":0,"byteLength":4908,"byteOffset":99032,"target":34963,"name":"BufferViewIndex"}],"extensionsRequired":["MSFT_texture_dds"],"materials":[{"name":"livery","alphaMode":"MASK","occlusionTexture":{"index":0},"pbrMetallicRoughness":{"baseColorTexture":{"index":1},"metallicRoughnessTexture":{"index":0}}}],"meshes":[{"primitives":[{"attributes":{"COLOR_0":41,"NORMAL":38,"POSITION":36,"TANGENT":37,"TEXCOORD_0":39,"TEXCOORD_1":40},"indices":42,"material":0,"mode":4,"extras":{"ASOBO_primitive":{"PrimitiveCount":72,"VertexType":"VTX","VertexVersion":2}}}],"name":"part003.003"},{"primitives":[{"attributes":{"COLOR_0":55,"NORMAL":52,"POSITION":50,"TANGENT":51,"TEXCOORD_0":53,"TEXCOORD_1":54},"indices":56,"material":0,"mode":4,"extras":{"ASOBO_primitive":{"PrimitiveCount":28,"VertexType":"VTX","VertexVersion":2}}}],"name":"part005.003"},{"primitives":[{"attributes":{"COLOR_0":48,"NORMAL":45,"POSITION":43,"TANGENT":44,"TEXCOORD_0":46,"TEXCOORD_1":47},"indices":49,"material":0,"mode":4,"extras":{"ASOBO_primitive":{"PrimitiveCount":6,"VertexType":"VTX","VertexVersion":2}}}],"name":"part004.001"},{"primitives":[{"attributes":{"COLOR_0":69,"NORMAL":66,"POSITION":64,"TANGENT":65,"TEXCOORD_0":67,"TEXCOORD_1":68},"indices":70,"material":0,"mode":4,"extras":{"ASOBO_primitive":{"PrimitiveCount":30,"VertexType":"VTX","VertexVersion":2}}}],"name":"part007.003"},{"primitives":[{"attributes":{"COLOR_0":62,"NORMAL":59,"POSITION":57,"TANGENT":58,"TEXCOORD_0":60,"TEXCOORD_1":61},"indices":63,"material":0,"mode":4,"extras":{"ASOBO_primitive":{"PrimitiveCount":8,"VertexType":"VTX","VertexVersion":2}}}],"name":"part006.003"},{"primitives":[{"attributes":{"COLOR_0":83,"NORMAL":80,"POSITION":78,"TANGENT":79,"TEXCOORD_0":81,"TEXCOORD_1":82},"indices":84,"material":0,"mode":4,"extras":{"ASOBO_primitive":{"PrimitiveCount":30,"VertexType":"VTX","VertexVersion":2}}}],"name":"part009.003"},{"primitives":[{"attributes":{"COLOR_0":76,"NORMAL":73,"POSITION":71,"TANGENT":72,"TEXCOORD_0":74,"TEXCOORD_1":75},"indices":77,"material":0,"mode":4,"extras":{"ASOBO_primitive":{"PrimitiveCount":8,"VertexType":"VTX","VertexVersion":2}}}],"name":"part008.003"},{"primitives":[{"attributes":{"COLOR_0":90,"NORMAL":87,"POSITION":85,"TANGENT":86,"TEXCOORD_0":88,"TEXCOORD_1":89},"indices":91,"material":0,"mode":4,"extras":{"ASOBO_primitive":{"PrimitiveCount":4,"VertexType":"VTX","VertexVersion":2}}}],"name":"part010.003"},{"primitives":[{"attributes":{"COLOR_0":97,"NORMAL":94,"POSITION":92,"TANGENT":93,"TEXCOORD_0":95,"TEXCOORD_1":96},"indices":98,"material":0,"mode":4,"extras":{"ASOBO_primitive":{"PrimitiveCount":4,"VertexType":"VTX","VertexVersion":2}}}],"name":"part011.003"},{"primitives":[{"attributes":{"COLOR_0":104,"NORMAL":101,"POSITION":99,"TANGENT":100,"TEXCOORD_0":102,"TEXCOORD_1":103},"indices":105,"material":0,"mode":4,"extras":{"ASOBO_primitive":{"PrimitiveCount":4,"VertexType":"VTX","VertexVersion":2}}}],"name":"part012.003"},{"primitives":[{"attributes":{"COLOR_0":111,"NORMAL":108,"POSITION":106,"TANGENT":107,"TEXCOORD_0":109,"TEXCOORD_1":110},"indices":112,"material":0,"mode":4,"extras":{"ASOBO_primitive":{"PrimitiveCount":4,"VertexType":"VTX","VertexVersion":2}}}],"name":"part013.003"},{"primitives":[{"attributes":{"COLOR_0":125,"NORMAL":122,"POSITION":120,"TANGENT":121,"TEXCOORD_0":123,"TEXCOORD_1":124},"indices":126,"material":0,"mode":4,"extras":{"ASOBO_primitive":{"PrimitiveCount":4,"VertexType":"VTX","VertexVersion":2}}}],"name":"part015.003"},{"primitives":[{"attributes":{"COLOR_0":118,"NORMAL":115,"POSITION":113,"TANGENT":114,"TEXCOORD_0":116,"TEXCOORD_1":117},"indices":119,"material":0,"mode":4,"extras":{"ASOBO_primitive":{"PrimitiveCount":13,"VertexType":"VTX","VertexVersion":2}}}],"name":"part014.003"},{"primitives":[{"attributes":{"COLOR_0":139,"NORMAL":136,"POSITION":134,"TANGENT":135,"TEXCOORD_0":137,"TEXCOORD_1":138},"indices":140,"material":0,"mode":4,"extras":{"ASOBO_primitive":{"PrimitiveCount":4,"VertexType":"VTX","VertexVersion":2}}}],"name":"part017.003"},{"primitives":[{"attributes":{"COLOR_0":132,"NORMAL":129,"POSITION":127,"TANGENT":128,"TEXCOORD_0":130,"TEXCOORD_1":131},"indices":133,"material":0,"mode":4,"extras":{"ASOBO_primitive":{"PrimitiveCount":13,"VertexType":"VTX","VertexVersion":2}}}],"name":"part016.003"},{"primitives":[{"attributes":{"COLOR_0":153,"NORMAL":150,"POSITION":148,"TANGENT":149,"TEXCOORD_0":151,"TEXCOORD_1":152},"indices":154,"material":0,"mode":4,"extras":{"ASOBO_primitive":{"PrimitiveCount":4,"VertexType":"VTX","VertexVersion":2}}}],"name":"part019.003"},{"primitives":[{"attributes":{"COLOR_0":146,"NORMAL":143,"POSITION":141,"TANGENT":142,"TEXCOORD_0":144,"TEXCOORD_1":145},"indices":147,"material":0,"mode":4,"extras":{"ASOBO_primitive":{"PrimitiveCount":18,"VertexType":"VTX","VertexVersion":2}}}],"name":"part018.003"},{"primitives":[{"attributes":{"COLOR_0":167,"NORMAL":164,"POSITION":162,"TANGENT":163,"TEXCOORD_0":165,"TEXCOORD_1":166},"indices":168,"material":0,"mode":4,"extras":{"ASOBO_primitive":{"PrimitiveCount":4,"VertexType":"VTX","VertexVersion":2}}}],"name":"part021.003"},{"primitives":[{"attributes":{"COLOR_0":160,"NORMAL":157,"POSITION":155,"TANGENT":156,"TEXCOORD_0":158,"TEXCOORD_1":159},"indices":161,"material":0,"mode":4,"extras":{"ASOBO_primitive":{"PrimitiveCount":18,"VertexType":"VTX","VertexVersion":2}}}],"name":"part020.003"},{"primitives":[{"attributes":{"COLOR_0":174,"NORMAL":171,"POSITION":169,"TANGENT":170,"TEXCOORD_0":172,"TEXCOORD_1":173},"indices":175,"material":0,"mode":4,"extras":{"ASOBO_primitive":{"PrimitiveCount":6,"VertexType":"VTX","VertexVersion":2}}}],"name":"part022.003"},{"primitives":[{"attributes":{"COLOR_0":181,"NORMAL":178,"POSITION":176,"TANGENT":177,"TEXCOORD_0":179,"TEXCOORD_1":180},"indices":182,"material":0,"mode":4,"extras":{"ASOBO_primitive":{"PrimitiveCount":6,"VertexType":"VTX","VertexVersion":2}}}],"name":"part023.003"},{"primitives":[{"attributes":{"COLOR_0":188,"NORMAL":185,"POSITION":183,"TANGENT":184,"TEXCOORD_0":186,"TEXCOORD_1":187},"indices":189,"material":0,"mode":4,"extras":{"ASOBO_primitive":{"PrimitiveCount":6,"VertexType":"VTX","VertexVersion":2}}}],"name":"part024.003"},{"primitives":[{"attributes":{"COLOR_0":195,"NORMAL":192,"POSITION":190,"TANGENT":191,"TEXCOORD_0":193,"TEXCOORD_1":194},"indices":196,"material":0,"mode":4,"extras":{"ASOBO_primitive":{"PrimitiveCount":6,"VertexType":"VTX","VertexVersion":2}}}],"name":"part025.003"},{"primitives":[{"attributes":{"COLOR_0":202,"NORMAL":199,"POSITION":197,"TANGENT":198,"TEXCOORD_0":200,"TEXCOORD_1":201},"indices":203,"material":0,"mode":4,"extras":{"ASOBO_primitive":{"PrimitiveCount":6,"VertexType":"VTX","VertexVersion":2}}}],"name":"part026.003"},{"primitives":[{"attributes":{"COLOR_0":209,"NORMAL":206,"POSITION":204,"TANGENT":205,"TEXCOORD_0":207,"TEXCOORD_1":208},"indices":210,"material":0,"mode":4,"extras":{"ASOBO_primitive":{"PrimitiveCount":6,"VertexType":"VTX","VertexVersion":2}}}],"name":"part027.003"},{"primitives":[{"attributes":{"COLOR_0":216,"NORMAL":213,"POSITION":211,"TANGENT":212,"TEXCOORD_0":214,"TEXCOORD_1":215},"indices":217,"material":0,"mode":4,"extras":{"ASOBO_primitive":{"PrimitiveCount":506,"VertexType":"VTX","VertexVersion":2}}}],"name":"part002.001"}],"nodes":[{"translation":[8.469472885131836,0.00001083213010133477,0.0],"rotation":[-0.0001710005453787744,-0.00026900373632088304,-0.0023860097862780096,0.9999971389770508],"name":"node15.003"},{"translation":[-5.852952003479004,1.166031002998352,0.07490400224924088],"rotation":[-0.03459291532635689,-0.008516963571310044,-0.9703866243362428,0.2389156073331833],"name":"node14.003","children":[0]},{"translation":[8.469239234924317,0.0,0.0],"rotation":[0.00016975025937426835,-0.00027674733428284526,0.002366507425904274,0.9999972581863404],"name":"node17.003"},{"translation":[5.852952003479004,1.1660330295562745,0.07490400224924088],"rotation":[-0.008516897447407246,-0.03459261357784271,-0.23890933394432069,0.9703881740570068],"name":"node16.003","children":[2]},{"translation":[0.0,0.0,0.8679470419883728],"name":"node13.003","children":[1,3]},{"translation":[8.469237327575684,0.0,0.0],"rotation":[0.00016975025937426835,-0.00027674733428284526,0.002366507425904274,0.9999972581863404],"name":"node20.003"},{"translation":[5.852952003479004,1.1660330295562745,0.07490400224924088],"rotation":[-0.008516897447407246,-0.03459261357784271,-0.23890933394432069,0.9703881740570068],"name":"node19.003","children":[5]},{"translation":[8.469472885131836,0.00001083213010133477,0.0],"rotation":[-0.0001710005453787744,-0.00026900373632088304,-0.0023860097862780096,0.9999971389770508],"name":"node22.003"},{"translation":[-5.852952003479004,1.166031002998352,0.07490400224924088],"rotation":[-0.03459291532635689,-0.008516963571310044,-0.9703866243362428,0.2389156073331833],"name":"node21.003","children":[7]},{"translation":[0.0,0.0,0.8679470419883728],"name":"node18.003","children":[6,8]},{"translation":[0.0,0.0,-0.867946982383728],"name":"node12.003","children":[4,9]},{"name":"node24_anim_custom_anim_SIM_ON_GROUND_06.001"},{"translation":[3.3454298973083498,-0.016106082126498224,-0.0005310475826263428],"rotation":[0.5011554956436157,0.4989213943481446,0.49866846203804018,0.5012487769126892],"name":"node24.003","children":[11]},{"translation":[13.33512020111084,-2.7559189796447756,0.6779648065567017],"rotation":[-0.008499891497194767,-0.03488215059041977,-0.23660415410995484,0.9709425568580629],"name":"node23.003","children":[12]},{"name":"node26_anim_custom_anim_SIM_ON_GROUND_06.001"},{"translation":[3.345006227493286,0.01618218421936035,-0.000483095645904541],"rotation":[0.5012590289115906,-0.4986652135848999,-0.49891215562820437,0.501157820224762],"name":"node26.003","children":[14]},{"translation":[-13.335269927978516,-2.756114959716797,0.6779876947402954],"rotation":[-0.03487434238195419,-0.008497779257595539,-0.9709460735321044,0.23659098148345948],"name":"node25.003","children":[15]},{"name":"node28_anim_custom_anim_SIM_ON_GROUND_06.002"},{"translation":[3.3450095653533937,0.016182783991098405,-0.0004849731922149658],"rotation":[0.5012590289115906,-0.4986652135848999,-0.49891215562820437,0.5011577606201172],"name":"node28.003","children":[17]},{"translation":[-13.335269927978516,-2.7561159133911135,0.677987813949585],"rotation":[-0.03487459942698479,-0.00849777739495039,-0.9709460735321044,0.23659101128578184],"name":"node27.003","children":[18]},{"name":"node30_anim_custom_anim_SIM_ON_GROUND_06.003"},{"translation":[3.345426321029663,-0.016105208545923234,-0.0005319565534591675],"rotation":[0.5011555552482605,0.4989213943481446,0.49866849184036257,0.5012487769126892],"name":"node30.003","children":[20]},{"translation":[13.33510971069336,-2.755903959274292,0.6779639720916748],"rotation":[-0.008499936200678349,-0.03488217294216156,-0.23660406470298768,0.9709426164627076],"name":"node29.003","children":[21]},{"name":"node32_anim_custom_anim_SIM_ON_GROUND_06.002"},{"translation":[11.81471824645996,-0.0002688720414880663,0.0013180375099182129],"rotation":[0.4999203383922577,0.499882847070694,0.5000768303871155,0.5001199245452881],"name":"node32.003","children":[23]},{"translation":[5.852952003479004,1.1660319566726685,0.07490301132202149],"rotation":[-0.008516854606568814,-0.03459258750081062,-0.2389095574617386,0.970388114452362],"name":"node31.003","children":[24]},{"translation":[0.0,0.0,-0.0000023245811462402345],"name":"node34_anim_custom_anim_SIM_ON_GROUND_06.001"},{"translation":[11.814513206481934,0.00023421166406478733,0.0013131797313690186],"rotation":[0.5001164674758911,-0.5000795125961304,-0.49988600611686709,0.49991801381111147],"name":"node34.003","children":[26]},{"translation":[-5.852952003479004,1.1660319566726685,0.07490301132202149],"rotation":[-0.034592900425195697,-0.008516963571310044,-0.9703866839408876,0.23891523480415345],"name":"node33.003","children":[27]},{"name":"node36_anim_custom_anim_SIM_ON_GROUND_06.001"},{"translation":[11.81451416015625,0.00023481412790715697,0.0013120919466018677],"rotation":[0.5001164674758911,-0.5000795125961304,-0.49988600611686709,0.49991801381111147],"name":"node36.003","children":[29]},{"translation":[-5.852952003479004,1.1660319566726685,0.07490301132202149],"rotation":[-0.03459315747022629,-0.008516962639987469,-0.9703866839408876,0.23891521990299226],"name":"node35.003","children":[30]},{"name":"node38_anim_custom_anim_SIM_ON_GROUND_06.002"},{"translation":[11.814682960510254,-0.00026656134286895394,0.0013170689344406129],"rotation":[0.49992039799690249,0.49988242983818056,0.500076949596405,0.5001204013824463],"name":"node38.003","children":[32]},{"translation":[5.852952003479004,1.1660319566726685,0.07490301132202149],"rotation":[-0.008516893722116948,-0.03459260240197182,-0.23890945315361024,0.9703882336616516],"name":"node37.003","children":[33]},{"translation":[0.21819500625133513,0.1957166492938995,0.1243150234222412],"rotation":[0.0,0.8410390615463257,0.5409744381904602,1.6566988171834516e-24],"name":"node41.003"},{"name":"node39_anim_custom_anim_GEAR_ANIMATION_POSITION_0_00.001","children":[35]},{"translation":[0.0,15.240830421447754,-1.4777259826660157],"rotation":[0.10886706411838532,0.0,0.0,0.9940563440322876],"name":"node39.003","children":[36]},{"mesh":0,"name":"node42_anim_custom_anim_SIM_on_GROUND_04.001"},{"translation":[0.0,3.077548027038574,-0.5744630098342896],"rotation":[0.0,0.6977905035018921,0.7163019180297852,3.900649703167227e-26],"name":"node42.003","children":[38]},{"translation":[-0.06820899248123169,-0.02138516306877136,-0.06820976734161377],"mesh":1,"name":"node44_anim_custom_anim_GEAR_ANIMATION_POSITION_0_00.001"},{"translation":[0.06820899993181229,1.3813114166259766,0.06742501258850098],"name":"node44.003","children":[40]},{"translation":[-0.219310000538826,0.20839330554008485,0.1287776231765747],"rotation":[0.0,-0.09150206297636032,-0.9958049058914184,1.3357992887560118e-18],"name":"takeoff_3"},{"mesh":2,"name":"node43_anim_custom_anim_GEAR_ANIMATION_POSITION_0_00.001","children":[41,42]},{"translation":[0.0,15.240830421447754,-1.4777259826660157],"rotation":[0.10886706411838532,0.0,0.0,0.9940563440322876],"name":"node43.003","children":[43]},{"mesh":3,"name":"node46_anim_custom_anim_GEAR_ANIMATION_POSITION_1_10"},{"translation":[2.146083116531372,-0.4099141359329224,-0.05218798667192459],"rotation":[-0.515953004360199,-0.4700583815574646,0.4345656931400299,0.5692015290260315],"name":"node46.003","children":[45]},{"mesh":4,"name":"node45_anim_custom_anim_GEAR_ANIMATION_POSITION_1_10","children":[46]},{"translation":[-3.8310000896453859,-1.0770000219345093,-0.4390000104904175],"rotation":[0.6754504442214966,0.023538021370768548,0.038519490510225299,0.736022412776947],"name":"node45.003","children":[47]},{"mesh":5,"name":"node48_anim_custom_anim_GEAR_ANIMATION_POSITION_2_13"},{"translation":[-2.146090030670166,0.40989798307418826,0.052183911204338077],"rotation":[0.5692009925842285,0.4345651865005493,0.4700630307197571,0.5159497261047363],"name":"node48.003","children":[49]},{"mesh":6,"name":"node47_anim_custom_anim_GEAR_ANIMATION_POSITION_2_13","children":[50]},{"translation":[3.8310000896453859,-1.0770000219345093,-0.4390000104904175],"rotation":[-0.7360215783119202,0.038519252091646197,-0.023542800918221475,0.6754511594772339],"name":"node47.003","children":[51]},{"translation":[0.0,0.0,0.000006165355443954468],"mesh":7,"name":"node49_anim_custom_anim_SPOILERS_RIGHT_POSITION_14"},{"translation":[13.07882022857666,-3.711380004882813,0.634585976600647],"rotation":[0.4203376173973083,-0.6012157201766968,-0.5569731593132019,0.389405757188797],"name":"node49.003","children":[53]},{"translation":[0.0,0.0,-0.00000984594225883484],"mesh":8,"name":"node50_anim_custom_anim_SPOILERS_LEFT_POSITION_11"},{"translation":[-13.07859992980957,-3.711380958557129,0.6345829963684082],"rotation":[0.556972861289978,-0.3894059658050537,-0.4203377664089203,0.6012157201766968],"name":"node50.003","children":[55]},{"mesh":9,"name":"node51_anim_custom_anim_SPOILERS_RIGHT_POSITION_14"},{"translation":[6.231998920440674,-1.2480499744415284,0.07452300190925598],"rotation":[0.5341295599937439,-0.5341295599937439,-0.4633631408214569,0.4633636176586151],"name":"node51.003","children":[57]},{"mesh":10,"name":"node52_anim_custom_anim_SPOILERS_LEFT_POSITION_11"},{"translation":[-6.231788158416748,-1.2480499744415284,0.07452300190925598],"rotation":[0.46336179971694949,-0.4633612334728241,-0.5341307520866394,0.534131646156311],"name":"node52.003","children":[59]},{"mesh":11,"name":"node54_anim_custom_anim_SIM_ON_GROUND_05"},{"translation":[0.7820971012115479,0.017777998000383378,4.497329235076904],"rotation":[0.004732051398605108,-0.00031875359127298,0.00005050056643085554,0.9999887347221376],"name":"node54.003","children":[61]},{"mesh":12,"name":"node53_anim_custom_anim_SIM_ON_GROUND_05.001","children":[62]},{"translation":[6.339000225067139,-1.3927940130233765,-0.2390650063753128],"rotation":[0.5365793108940125,-0.5365797877311707,-0.4605240821838379,0.4605240225791931],"name":"node53.003","children":[63]},{"mesh":13,"name":"node56_anim_custom_anim_SIM_ON_GROUND_05"},{"translation":[0.7820970416069031,0.01776192896068096,-4.497134208679199],"rotation":[-0.004734063055366278,0.0003217536141164601,0.00005100058115203865,0.9999887347221376],"name":"node56.003","children":[65]},{"mesh":14,"name":"node55_anim_custom_anim_SIM_ON_GROUND_05","children":[66]},{"translation":[-6.338912010192871,-1.3927940130233765,-0.2390650063753128],"rotation":[0.4605230987071991,-0.4605230987071991,-0.5365803837776184,0.5365803837776184],"name":"node55.003","children":[67]},{"mesh":15,"name":"node58_anim_custom_anim_SIM_ON_GROUND_05"},{"translation":[0.7145394682884216,0.02898404002189636,7.071681022644043],"rotation":[-0.001125470967963338,0.01956779509782791,-0.0018388559110462664,0.9998062252998352],"name":"node58.003","children":[69]},{"mesh":16,"name":"node57_anim_custom_anim_SIM_ON_GROUND_05","children":[70]},{"translation":[13.33512020111084,-3.9446709156036379,0.46916401386260989],"rotation":[0.4241359531879425,-0.606173038482666,-0.5512602925300598,0.3857138156890869],"name":"node57.003","children":[71]},{"mesh":17,"name":"node60_anim_custom_anim_SIM_ON_GROUND_05"},{"translation":[0.7145771980285645,0.028993040323257448,-7.071768283843994],"rotation":[0.0011257186997681857,-0.01956754550337791,-0.001838607364334166,0.9998062252998352],"name":"node60.003","children":[73]},{"mesh":18,"name":"node59_anim_custom_anim_SIM_ON_GROUND_05","children":[74]},{"translation":[-13.33512020111084,-3.944667100906372,0.46916401386260989],"rotation":[0.5512605309486389,-0.3857134282588959,-0.4241359531879425,0.606173038482666],"name":"node59.003","children":[75]},{"translation":[0.0,0.0,-0.000002762234771580552],"mesh":19,"name":"node61_anim_custom_anim_SIM_ON_GROUND_05"},{"translation":[-5.04759407043457,-0.9036409854888916,-0.6739749908447266],"rotation":[0.4784119427204132,-0.4784119427204132,-0.5206937789916992,0.5206937789916992],"name":"node61.003","children":[77]},{"mesh":20,"name":"node62_anim_custom_anim_SIM_ON_GROUND_05"},{"translation":[-8.478414535522461,-1.81141197681427,-0.2588239908218384],"rotation":[0.4695209562778473,-0.4696821868419647,-0.5287443995475769,0.5285623669624329],"name":"node62.003","children":[79]},{"mesh":21,"name":"node63_anim_custom_anim_SIM_ON_GROUND_05"},{"translation":[-12.077719688415528,-3.16422700881958,0.1258070021867752],"rotation":[0.4693767726421356,-0.46953895688056948,-0.528872013092041,0.5286900401115418],"name":"node63.003","children":[81]},{"mesh":22,"name":"node64_anim_custom_anim_SIM_ON_GROUND_05"},{"translation":[5.04759407043457,-0.9036419987678528,-0.6739739775657654],"rotation":[0.5206954479217529,-0.5206955075263977,-0.47841018438339236,0.47841018438339236],"name":"node64.003","children":[83]},{"mesh":23,"name":"node65_anim_custom_anim_SIM_ON_GROUND_05.001"},{"translation":[8.478414535522461,-1.8114169836044312,-0.25882700085639956],"rotation":[0.5287438035011292,-0.5285627245903015,-0.4695212841033935,0.4696820676326752],"name":"node65.003","children":[85]},{"mesh":24,"name":"node66_anim_custom_anim_SIM_ON_GROUND_05.001"},{"translation":[12.07783031463623,-3.1642260551452638,0.1258080005645752],"rotation":[0.5288702249526978,-0.5286887288093567,-0.4693789482116699,0.46954014897346499],"name":"node66.003","children":[87]},{"rotation":[0.0,0.0,1.0,6.123234262925839e-17],"name":"node11.003","children":[10,13,16,19,22,25,28,31,34,37,39,44,48,52,54,56,58,60,64,68,72,76,78,80,82,84,86,88]},{"rotation":[-0.70710688829422,0.0,0.0,0.7071066498756409],"name":"node10.003","children":[89]},{"mesh":25,"name":"node3.002"},{"translation":[2.1423230171203615,-1.1279770135879517,0.020966000854969026],"rotation":[0.70710688829422,0.0,0.0,0.7071066498756409],"name":"node4.003"},{"translation":[-2.1419999599456789,-1.1279770135879517,0.020966000854969026],"rotation":[0.70710688829422,0.0,0.0,0.7071066498756409],"name":"node5.003"},{"translation":[17.006580352783204,0.9250029921531676,-4.16677188873291],"name":"node6.003"},{"translation":[17.480140686035158,1.2652419805526732,-4.697988986968994],"name":"node7.003"},{"translation":[-17.006580352783204,0.9250059723854064,-4.166787147521973],"name":"node8.003"},{"translation":[-17.48015022277832,1.2652430534362794,-4.698007106781006],"name":"node9.003"},{"name":"node0.003","children":[90,91,92,93,94,95,96,97]},{"translation":[5.800290107727051,-1.739109992980957,0.8672279715538025],"name":"FX_EXHAUST_LEFT"},{"translation":[-5.800290107727051,-1.739109992980957,0.8672279715538025],"name":"FX_EXHAUST_RIGHT"},{"translation":[0.27343401312828066,-3.400969982147217,15.417499542236329],"name":"fx_tire_contactPoint_center_left"},{"translation":[-0.27343401312828066,-3.400969982147217,15.417499542236329],"name":"fx_tire_contactPoint_center_right"},{"translation":[3.3953399658203127,-3.61749005317688,-1.2920783758163453],"name":"fx_tire_contactPoint_left_in"},{"translation":[4.310379981994629,-3.61749005317688,-1.2920783758163453],"name":"fx_tire_contactPoint_left_out"},{"translation":[-3.3953399658203127,-3.61749005317688,-1.2920783758163453],"name":"fx_tire_contactPoint_right_in"},{"translation":[-4.310379981994629,-3.61749005317688,-1.2920783758163453],"name":"fx_tire_contactPoint_right_out"},{"translation":[-3.6328999996185304,1.5630080699920655,-21.386478424072267],"rotation":[-0.11829324066638948,-0.596124529838562,-0.6100618839263916,-0.5083962678909302],"extensions":{"ASOBO_macro_light":{"color":[1,0.9386850595474244,0.7605245113372803],"cone_angle":51.000001419204298,"day_night_cycle":true,"flash_duration":0,"flash_frequency":0,"flash_phase":0,"has_symmetry":false,"intensity":6,"rotation_speed":0}},"name":"Logo_right"},{"translation":[3.6328999996185304,1.5630080699920655,-21.386478424072267],"rotation":[-0.11868748068809508,0.5965972542762756,0.6095998287200928,-0.5083040595054627],"extensions":{"ASOBO_macro_light":{"color":[1,0.9386850595474244,0.7605245113372803],"cone_angle":51.000001419204298,"day_night_cycle":true,"flash_duration":0,"flash_frequency":0,"flash_phase":0,"has_symmetry":false,"intensity":6,"rotation_speed":0}},"name":"Logo_left"}],"scene":0,"scenes":[{"nodes":[98,99,100,101,102,103,104,105,106,107,108],"name":"Scene"}],"textures":[{"extensions":{"MSFT_texture_dds":{"source":0}}},{"extensions":{"MSFT_texture_dds":{"source":1}}}],"samplers":[{"magFilter":9729,"minFilter":9987,"wrapS":10497,"wrapT":10497}],"extensionsUsed":["ASOBO_normal_map_convention","ASOBO_macro_light","MSFT_texture_dds","ASOBO_asset_optimized"],"buffers":[{"byteLength":103940,"uri":"FAIB_A21N_CFML_S_LOD3.bin"}],"images":[{"uri":"FAIB_A321_CFML_M.PNG.DDS","name":"FAIB_A321_CFML_M","extras":"ASOBO_image_converted_meta"},{"uri":"FAIB_A321_CFML_T.PNG.DDS","name":"FAIB_A321_CFML_T","extras":"ASOBO_image_converted_meta"}]}
