{"accessors":[{"bufferView":0,"componentType":5126,"count":1921,"min":[0.0],"max":[80.0],"type":"SCALAR"},{"bufferView":1,"componentType":5126,"count":1921,"type":"VEC4"},{"bufferView":2,"componentType":5126,"count":2377,"min":[0.0],"max":[99.0],"type":"SCALAR"},{"bufferView":3,"componentType":5126,"count":2377,"type":"VEC3"},{"bufferView":4,"componentType":5126,"count":2377,"type":"VEC4"},{"bufferView":5,"componentType":5126,"count":2353,"min":[0.0],"max":[98.0],"type":"SCALAR"},{"bufferView":6,"componentType":5126,"count":2353,"type":"VEC3"},{"bufferView":7,"componentType":5126,"count":2353,"type":"VEC4"},{"bufferView":8,"componentType":5126,"count":2377,"type":"VEC3"},{"bufferView":9,"componentType":5126,"count":2377,"type":"VEC4"},{"bufferView":10,"componentType":5126,"count":2353,"type":"VEC3"},{"bufferView":11,"componentType":5126,"count":2353,"type":"VEC4"},{"bufferView":12,"componentType":5126,"count":2377,"type":"VEC3"},{"bufferView":13,"componentType":5126,"count":2377,"type":"VEC4"},{"bufferView":14,"componentType":5126,"count":2377,"type":"VEC3"},{"bufferView":15,"componentType":5126,"count":2377,"type":"VEC4"},{"bufferView":16,"componentType":5126,"count":2401,"min":[0.0],"max":[100.0],"type":"SCALAR"},{"bufferView":17,"componentType":5126,"count":2401,"type":"VEC3"},{"bufferView":18,"componentType":5126,"count":2401,"type":"VEC4"},{"bufferView":19,"componentType":5126,"count":2401,"type":"VEC3"},{"bufferView":20,"componentType":5126,"count":2401,"type":"VEC4"},{"bufferView":21,"componentType":5126,"count":294,"min":[-32.69601058959961,-4.239999771118164,-32.41600036621094],"max":[32.69601058959961,13.36400032043457,31.88800048828125],"type":"VEC3","name":"part000.001_vertices#0_POSITION"},{"bufferView":21,"byteOffset":12,"componentType":5120,"count":294,"type":"VEC4","name":"part000.001_vertices#0_TANGENT"},{"bufferView":21,"byteOffset":16,"componentType":5120,"count":294,"type":"VEC4","name":"part000.001_vertices#0_NORMAL"},{"bufferView":21,"byteOffset":20,"componentType":5122,"count":294,"type":"VEC2","name":"part000.001_vertices#0_TEXCOORD_0"},{"bufferView":21,"byteOffset":24,"componentType":5122,"count":294,"type":"VEC2","name":"part000.001_vertices#0_TEXCOORD_1"},{"bufferView":21,"byteOffset":28,"componentType":5123,"count":294,"type":"VEC4","name":"part000.001_vertices#0_COLOR_0"},{"bufferView":22,"componentType":5123,"count":582,"type":"SCALAR","name":"part000.001_indices#0"},{"bufferView":21,"byteOffset":10584,"componentType":5126,"count":18,"min":[-5.911330223083496,-3.254879951477051,-0.8740000128746033],"max":[6.182079792022705,2.919879913330078,0.862779974937439],"type":"VEC3","name":"part001.001_vertices#0_POSITION"},{"bufferView":21,"byteOffset":10596,"componentType":5120,"count":18,"type":"VEC4","name":"part001.001_vertices#0_TANGENT"},{"bufferView":21,"byteOffset":10600,"componentType":5120,"count":18,"type":"VEC4","name":"part001.001_vertices#0_NORMAL"},{"bufferView":21,"byteOffset":10604,"componentType":5122,"count":18,"type":"VEC2","name":"part001.001_vertices#0_TEXCOORD_0"},{"bufferView":21,"byteOffset":10608,"componentType":5122,"count":18,"type":"VEC2","name":"part001.001_vertices#0_TEXCOORD_1"},{"bufferView":21,"byteOffset":10612,"componentType":5123,"count":18,"type":"VEC4","name":"part001.001_vertices#0_COLOR_0"},{"bufferView":22,"byteOffset":1164,"componentType":5123,"count":24,"type":"SCALAR","name":"part001.001_indices#0"},{"bufferView":21,"byteOffset":11232,"componentType":5126,"count":17,"min":[-2.8122599124908449,0.07661999762058258,-0.6544600129127502],"max":[2.810260057449341,1.1811100244522095,0.6541299819946289],"type":"VEC3","name":"part002.001_vertices#0_POSITION"},{"bufferView":21,"byteOffset":11244,"componentType":5120,"count":17,"type":"VEC4","name":"part002.001_vertices#0_TANGENT"},{"bufferView":21,"byteOffset":11248,"componentType":5120,"count":17,"type":"VEC4","name":"part002.001_vertices#0_NORMAL"},{"bufferView":21,"byteOffset":11252,"componentType":5122,"count":17,"type":"VEC2","name":"part002.001_vertices#0_TEXCOORD_0"},{"bufferView":21,"byteOffset":11256,"componentType":5122,"count":17,"type":"VEC2","name":"part002.001_vertices#0_TEXCOORD_1"},{"bufferView":21,"byteOffset":11260,"componentType":5123,"count":17,"type":"VEC4","name":"part002.001_vertices#0_COLOR_0"},{"bufferView":22,"byteOffset":1212,"componentType":5123,"count":21,"type":"SCALAR","name":"part002.001_indices#0"},{"bufferView":21,"byteOffset":11844,"componentType":5126,"count":20,"min":[-2.8122599124908449,-1.1127099990844727,-0.5663599967956543],"max":[2.810260057449341,0.3519499897956848,0.6541799902915955],"type":"VEC3","name":"part003.002_vertices#0_POSITION"},{"bufferView":21,"byteOffset":11856,"componentType":5120,"count":20,"type":"VEC4","name":"part003.002_vertices#0_TANGENT"},{"bufferView":21,"byteOffset":11860,"componentType":5120,"count":20,"type":"VEC4","name":"part003.002_vertices#0_NORMAL"},{"bufferView":21,"byteOffset":11864,"componentType":5122,"count":20,"type":"VEC2","name":"part003.002_vertices#0_TEXCOORD_0"},{"bufferView":21,"byteOffset":11868,"componentType":5122,"count":20,"type":"VEC2","name":"part003.002_vertices#0_TEXCOORD_1"},{"bufferView":21,"byteOffset":11872,"componentType":5123,"count":20,"type":"VEC4","name":"part003.002_vertices#0_COLOR_0"},{"bufferView":22,"byteOffset":1254,"componentType":5123,"count":24,"type":"SCALAR","name":"part003.002_indices#0"},{"bufferView":21,"byteOffset":12564,"componentType":5126,"count":17,"min":[-2.810260057449341,0.07671999931335449,-0.6544600129127502],"max":[2.8122599124908449,1.1812100410461426,0.6541299819946289],"type":"VEC3","name":"part004.005_vertices#0_POSITION"},{"bufferView":21,"byteOffset":12576,"componentType":5120,"count":17,"type":"VEC4","name":"part004.005_vertices#0_TANGENT"},{"bufferView":21,"byteOffset":12580,"componentType":5120,"count":17,"type":"VEC4","name":"part004.005_vertices#0_NORMAL"},{"bufferView":21,"byteOffset":12584,"componentType":5122,"count":17,"type":"VEC2","name":"part004.005_vertices#0_TEXCOORD_0"},{"bufferView":21,"byteOffset":12588,"componentType":5122,"count":17,"type":"VEC2","name":"part004.005_vertices#0_TEXCOORD_1"},{"bufferView":21,"byteOffset":12592,"componentType":5123,"count":17,"type":"VEC4","name":"part004.005_vertices#0_COLOR_0"},{"bufferView":22,"byteOffset":1302,"componentType":5123,"count":21,"type":"SCALAR","name":"part004.005_indices#0"},{"bufferView":21,"byteOffset":13176,"componentType":5126,"count":20,"min":[-2.810260057449341,-1.1130399703979493,-0.5663599967956543],"max":[2.8122599124908449,0.35161998867988589,0.6541799902915955],"type":"VEC3","name":"part005.002_vertices#0_POSITION"},{"bufferView":21,"byteOffset":13188,"componentType":5120,"count":20,"type":"VEC4","name":"part005.002_vertices#0_TANGENT"},{"bufferView":21,"byteOffset":13192,"componentType":5120,"count":20,"type":"VEC4","name":"part005.002_vertices#0_NORMAL"},{"bufferView":21,"byteOffset":13196,"componentType":5122,"count":20,"type":"VEC2","name":"part005.002_vertices#0_TEXCOORD_0"},{"bufferView":21,"byteOffset":13200,"componentType":5122,"count":20,"type":"VEC2","name":"part005.002_vertices#0_TEXCOORD_1"},{"bufferView":21,"byteOffset":13204,"componentType":5123,"count":20,"type":"VEC4","name":"part005.002_vertices#0_COLOR_0"},{"bufferView":22,"byteOffset":1344,"componentType":5123,"count":24,"type":"SCALAR","name":"part005.002_indices#0"},{"bufferView":21,"byteOffset":13896,"componentType":5126,"count":18,"min":[-6.088950157165527,-3.254879951477051,-0.8740000128746033],"max":[6.008470058441162,2.919879913330078,0.862779974937439],"type":"VEC3","name":"part006.002_vertices#0_POSITION"},{"bufferView":21,"byteOffset":13908,"componentType":5120,"count":18,"type":"VEC4","name":"part006.002_vertices#0_TANGENT"},{"bufferView":21,"byteOffset":13912,"componentType":5120,"count":18,"type":"VEC4","name":"part006.002_vertices#0_NORMAL"},{"bufferView":21,"byteOffset":13916,"componentType":5122,"count":18,"type":"VEC2","name":"part006.002_vertices#0_TEXCOORD_0"},{"bufferView":21,"byteOffset":13920,"componentType":5122,"count":18,"type":"VEC2","name":"part006.002_vertices#0_TEXCOORD_1"},{"bufferView":21,"byteOffset":13924,"componentType":5123,"count":18,"type":"VEC4","name":"part006.002_vertices#0_COLOR_0"},{"bufferView":22,"byteOffset":1392,"componentType":5123,"count":24,"type":"SCALAR","name":"part006.002_indices#0"},{"bufferView":21,"byteOffset":14544,"componentType":5126,"count":14,"min":[-1.2978899478912354,-1.1834800243377686,-0.13841000199317933],"max":[1.1562700271606446,0.020099999383091928,0.1389700025320053],"type":"VEC3","name":"part007.002_vertices#0_POSITION"},{"bufferView":21,"byteOffset":14556,"componentType":5120,"count":14,"type":"VEC4","name":"part007.002_vertices#0_TANGENT"},{"bufferView":21,"byteOffset":14560,"componentType":5120,"count":14,"type":"VEC4","name":"part007.002_vertices#0_NORMAL"},{"bufferView":21,"byteOffset":14564,"componentType":5122,"count":14,"type":"VEC2","name":"part007.002_vertices#0_TEXCOORD_0"},{"bufferView":21,"byteOffset":14568,"componentType":5122,"count":14,"type":"VEC2","name":"part007.002_vertices#0_TEXCOORD_1"},{"bufferView":21,"byteOffset":14572,"componentType":5123,"count":14,"type":"VEC4","name":"part007.002_vertices#0_COLOR_0"},{"bufferView":22,"byteOffset":1440,"componentType":5123,"count":18,"type":"SCALAR","name":"part007.002_indices#0"},{"bufferView":21,"byteOffset":15048,"componentType":5126,"count":14,"min":[-1.1562700271606446,-1.1795200109481812,-0.13841000199317933],"max":[1.2973400354385377,0.020099999383091928,0.1389700025320053],"type":"VEC3","name":"part008.002_vertices#0_POSITION"},{"bufferView":21,"byteOffset":15060,"componentType":5120,"count":14,"type":"VEC4","name":"part008.002_vertices#0_TANGENT"},{"bufferView":21,"byteOffset":15064,"componentType":5120,"count":14,"type":"VEC4","name":"part008.002_vertices#0_NORMAL"},{"bufferView":21,"byteOffset":15068,"componentType":5122,"count":14,"type":"VEC2","name":"part008.002_vertices#0_TEXCOORD_0"},{"bufferView":21,"byteOffset":15072,"componentType":5122,"count":14,"type":"VEC2","name":"part008.002_vertices#0_TEXCOORD_1"},{"bufferView":21,"byteOffset":15076,"componentType":5123,"count":14,"type":"VEC4","name":"part008.002_vertices#0_COLOR_0"},{"bufferView":22,"byteOffset":1476,"componentType":5123,"count":18,"type":"SCALAR","name":"part008.002_indices#0"}],"animations":[{"name":"c_gear","channels":[{"sampler":0,"target":{"node":2,"path":"rotation"}}],"samplers":[{"input":0,"output":1,"interpolation":"LINEAR"}]},{"name":"custom_anim_TRAILING_EDGE_FLAPS_LEFT_PERCENT_08","channels":[{"sampler":0,"target":{"node":17,"path":"translation"}},{"sampler":1,"target":{"node":15,"path":"rotation"}},{"sampler":2,"target":{"node":25,"path":"translation"}},{"sampler":3,"target":{"node":23,"path":"rotation"}},{"sampler":4,"target":{"node":21,"path":"translation"}},{"sampler":5,"target":{"node":19,"path":"rotation"}},{"sampler":6,"target":{"node":33,"path":"translation"}},{"sampler":7,"target":{"node":31,"path":"rotation"}},{"sampler":8,"target":{"node":29,"path":"translation"}},{"sampler":9,"target":{"node":27,"path":"rotation"}},{"sampler":10,"target":{"node":37,"path":"translation"}},{"sampler":11,"target":{"node":35,"path":"rotation"}},{"sampler":12,"target":{"node":41,"path":"translation"}}],"samplers":[{"input":2,"output":3,"interpolation":"LINEAR"},{"input":2,"output":4,"interpolation":"LINEAR"},{"input":5,"output":6,"interpolation":"LINEAR"},{"input":5,"output":7,"interpolation":"LINEAR"},{"input":2,"output":8,"interpolation":"LINEAR"},{"input":2,"output":9,"interpolation":"LINEAR"},{"input":5,"output":10,"interpolation":"LINEAR"},{"input":5,"output":11,"interpolation":"LINEAR"},{"input":2,"output":12,"interpolation":"LINEAR"},{"input":2,"output":13,"interpolation":"LINEAR"},{"input":2,"output":14,"interpolation":"LINEAR"},{"input":2,"output":15,"interpolation":"LINEAR"},{"input":16,"output":17,"interpolation":"LINEAR"}]},{"name":"custom_anim_04","channels":[{"sampler":0,"target":{"node":39,"path":"rotation"}},{"sampler":1,"target":{"node":45,"path":"translation"}},{"sampler":2,"target":{"node":43,"path":"rotation"}}],"samplers":[{"input":16,"output":18,"interpolation":"LINEAR"},{"input":16,"output":19,"interpolation":"LINEAR"},{"input":16,"output":20,"interpolation":"LINEAR"}]}],"asset":{"generator":"Khronos glTF Blender I/O v1.8.19 and Asobo Studio MSFS Blender I/O v1.1.6","copyright":"FSLTL","version":"2.0","extensions":{"ASOBO_asset_optimized":{"BoundingBoxMax":[32.69601058959961,13.36400032043457,31.88800048828125],"BoundingBoxMin":[-32.69601058959961,-4.239999771118164,-32.41600036621094],"MajorVersion":4,"MinorVersion":4,"UseCheckerboardMaterialForMissingTextures":true,"UseOnlyFilenameForImageURI":true},"ASOBO_normal_map_convention":{"tangent_space_convention":"DirectX"}}},"bufferViews":[{"buffer":0,"byteLength":7684},{"buffer":0,"byteLength":30736,"byteOffset":7684},{"buffer":0,"byteLength":9508,"byteOffset":38420},{"buffer":0,"byteLength":28524,"byteOffset":47928},{"buffer":0,"byteLength":38032,"byteOffset":76452},{"buffer":0,"byteLength":9412,"byteOffset":114484},{"buffer":0,"byteLength":28236,"byteOffset":123896},{"buffer":0,"byteLength":37648,"byteOffset":152132},{"buffer":0,"byteLength":28524,"byteOffset":189780},{"buffer":0,"byteLength":38032,"byteOffset":218304},{"buffer":0,"byteLength":28236,"byteOffset":256336},{"buffer":0,"byteLength":37648,"byteOffset":284572},{"buffer":0,"byteLength":28524,"byteOffset":322220},{"buffer":0,"byteLength":38032,"byteOffset":350744},{"buffer":0,"byteLength":28524,"byteOffset":388776},{"buffer":0,"byteLength":38032,"byteOffset":417300},{"buffer":0,"byteLength":9604,"byteOffset":455332},{"buffer":0,"byteLength":28812,"byteOffset":464936},{"buffer":0,"byteLength":38416,"byteOffset":493748},{"buffer":0,"byteLength":28812,"byteOffset":532164},{"buffer":0,"byteLength":38416,"byteOffset":560976},{"buffer":0,"byteLength":15552,"byteStride":36,"byteOffset":599392,"target":34962,"name":"BufferViewVertexND"},{"buffer":0,"byteLength":1512,"byteOffset":614944,"target":34963,"name":"BufferViewIndex"}],"extensionsRequired":["MSFT_texture_dds"],"materials":[{"name":"Livery","occlusionTexture":{"index":0},"pbrMetallicRoughness":{"baseColorTexture":{"index":1},"metallicRoughnessTexture":{"index":0}}}],"meshes":[{"primitives":[{"attributes":{"COLOR_0":26,"NORMAL":23,"POSITION":21,"TANGENT":22,"TEXCOORD_0":24,"TEXCOORD_1":25},"indices":27,"material":0,"mode":4,"extras":{"ASOBO_primitive":{"PrimitiveCount":194,"VertexType":"VTX","VertexVersion":2}}}],"name":"part000.001"},{"primitives":[{"attributes":{"COLOR_0":33,"NORMAL":30,"POSITION":28,"TANGENT":29,"TEXCOORD_0":31,"TEXCOORD_1":32},"indices":34,"material":0,"mode":4,"extras":{"ASOBO_primitive":{"PrimitiveCount":8,"VertexType":"VTX","VertexVersion":2}}}],"name":"part001.001"},{"primitives":[{"attributes":{"COLOR_0":47,"NORMAL":44,"POSITION":42,"TANGENT":43,"TEXCOORD_0":45,"TEXCOORD_1":46},"indices":48,"material":0,"mode":4,"extras":{"ASOBO_primitive":{"PrimitiveCount":8,"VertexType":"VTX","VertexVersion":2}}}],"name":"part003.002"},{"primitives":[{"attributes":{"COLOR_0":40,"NORMAL":37,"POSITION":35,"TANGENT":36,"TEXCOORD_0":38,"TEXCOORD_1":39},"indices":41,"material":0,"mode":4,"extras":{"ASOBO_primitive":{"PrimitiveCount":7,"VertexType":"VTX","VertexVersion":2}}}],"name":"part002.001"},{"primitives":[{"attributes":{"COLOR_0":61,"NORMAL":58,"POSITION":56,"TANGENT":57,"TEXCOORD_0":59,"TEXCOORD_1":60},"indices":62,"material":0,"mode":4,"extras":{"ASOBO_primitive":{"PrimitiveCount":8,"VertexType":"VTX","VertexVersion":2}}}],"name":"part005.002"},{"primitives":[{"attributes":{"COLOR_0":54,"NORMAL":51,"POSITION":49,"TANGENT":50,"TEXCOORD_0":52,"TEXCOORD_1":53},"indices":55,"material":0,"mode":4,"extras":{"ASOBO_primitive":{"PrimitiveCount":7,"VertexType":"VTX","VertexVersion":2}}}],"name":"part004.005"},{"primitives":[{"attributes":{"COLOR_0":68,"NORMAL":65,"POSITION":63,"TANGENT":64,"TEXCOORD_0":66,"TEXCOORD_1":67},"indices":69,"material":0,"mode":4,"extras":{"ASOBO_primitive":{"PrimitiveCount":8,"VertexType":"VTX","VertexVersion":2}}}],"name":"part006.002"},{"primitives":[{"attributes":{"COLOR_0":75,"NORMAL":72,"POSITION":70,"TANGENT":71,"TEXCOORD_0":73,"TEXCOORD_1":74},"indices":76,"material":0,"mode":4,"extras":{"ASOBO_primitive":{"PrimitiveCount":6,"VertexType":"VTX","VertexVersion":2}}}],"name":"part007.002"},{"primitives":[{"attributes":{"COLOR_0":82,"NORMAL":79,"POSITION":77,"TANGENT":78,"TEXCOORD_0":80,"TEXCOORD_1":81},"indices":83,"material":0,"mode":4,"extras":{"ASOBO_primitive":{"PrimitiveCount":6,"VertexType":"VTX","VertexVersion":2}}}],"name":"part008.002"}],"nodes":[{"translation":[0.2623484432697296,-0.49092864990234377,0.2555255889892578],"rotation":[0.0000028908259537274718,0.0,0.0,1.0],"name":"takeoff_L"},{"translation":[-0.26208797097206118,-0.49092864990234377,0.2555255889892578],"rotation":[0.0000028908259537274718,0.0,0.0,1.0],"name":"takeoff_R"},{"rotation":[0.0,-0.1736479550600052,0.984807789325714,0.0],"name":"node13_anim_c_gear","children":[0,1]},{"translation":[0.00013099999341648072,-1.7111200094223023,1.1877360343933104],"name":"node13.001","children":[2]},{"translation":[0.0,32.70159912109375,-2.8867380619049074],"name":"node12.001","children":[3]},{"rotation":[0.0,0.0,1.0,6.123031769111885e-17],"name":"node11.001","children":[4]},{"rotation":[0.7071068286895752,0.0,0.0,-0.7071068286895752],"name":"node10.001","children":[5]},{"translation":[0.0,0.0,-5.084010124206543],"name":"NoseGear","children":[6]},{"mesh":0,"name":"node1"},{"translation":[-0.25999999046325686,-2.190000057220459,26.25],"rotation":[0.0,0.7071068286895752,0.7071068286895752,4.3297809634577669e-17],"name":"node2.001"},{"translation":[0.25999999046325686,-2.190000057220459,26.25],"rotation":[0.0,0.7071068286895752,0.7071068286895752,4.3297809634577669e-17],"name":"node3.001"},{"translation":[0.25999999046325686,-2.190000057220459,26.25],"rotation":[0.0,0.7071068286895752,0.7071068286895752,4.3297809634577669e-17],"name":"node4.001"},{"translation":[-0.25999999046325686,-2.190000057220459,26.25],"rotation":[0.0,0.7071068286895752,0.7071068286895752,4.3297809634577669e-17],"name":"node5.001"},{"translation":[3.625755071640014,-0.4184919893741608,10.009989738464356],"rotation":[0.0,0.7071068286895752,0.7071068286895752,4.3297809634577669e-17],"name":"node6.001"},{"translation":[-3.625982999801636,-0.4184930026531219,10.010000228881836],"rotation":[0.0,0.7071068286895752,0.7071068286895752,4.3297809634577669e-17],"name":"node7.001"},{"rotation":[0.0,0.0,0.0,-1.0],"mesh":1,"name":"node11_anim_custom_anim_04"},{"name":"node11.005","children":[15]},{"translation":[16.872241973876954,-4.800723075866699,0.8860020041465759],"name":"node10_anim_custom_anim_04","children":[16]},{"name":"node10.006","children":[17]},{"rotation":[0.0,0.0,0.0,-1.0],"mesh":2,"name":"node15_anim_custom_anim_04"},{"name":"node15.002","children":[19]},{"translation":[0.0,-0.003208999987691641,-0.00005400000009103678],"name":"node14_anim_custom_anim_04","children":[20]},{"name":"node14.002","children":[21]},{"rotation":[0.0,0.0,0.0,-1.0],"mesh":3,"name":"node13_anim_custom_anim_04","children":[22]},{"name":"node13","children":[23]},{"translation":[-5.927655220031738,-2.3496360778808595,-0.6741399765014648],"name":"node12_anim_custom_anim_04","children":[24]},{"name":"node12","children":[25]},{"rotation":[0.0,0.0,0.0,-1.0],"mesh":4,"name":"node19_anim_custom_anim_04"},{"name":"node19.002","children":[27]},{"translation":[0.0,-0.0027759999502450229,-0.000052999999752501029],"name":"node18_anim_custom_anim_04","children":[28]},{"name":"node18.002","children":[29]},{"rotation":[0.0,0.0,0.0,-1.0],"mesh":5,"name":"node17_anim_custom_anim_04","children":[30]},{"name":"node17.002","children":[31]},{"translation":[5.927655220031738,-2.349735975265503,-0.6741399765014648],"name":"node16_anim_custom_anim_04","children":[32]},{"name":"node16.002","children":[33]},{"rotation":[0.0,0.0,0.0,-1.0],"mesh":6,"name":"node21_anim_custom_anim_04"},{"name":"node21.002","children":[35]},{"translation":[-16.969375610351564,-4.800723075866699,0.8860020041465759],"name":"node20_anim_custom_anim_04","children":[36]},{"name":"node20.002","children":[37]},{"rotation":[-0.004868998192250729,-0.06958997994661331,-0.06958997994661331,-0.995133638381958],"mesh":7,"name":"node23_anim_custom_anim_04"},{"name":"node23.002","children":[39]},{"translation":[-9.852409362792969,-2.449096918106079,0.008004000410437584],"name":"node22_anim_custom_anim_04","children":[40]},{"name":"node22.002","children":[41]},{"rotation":[-0.004868998192250729,0.06958997994661331,0.06958997994661331,-0.995133638381958],"mesh":8,"name":"node25_anim_custom_anim_04"},{"name":"node25.002","children":[43]},{"translation":[9.852409362792969,-2.449096918106079,0.008004000410437584],"name":"node24_anim_custom_anim_04","children":[44]},{"name":"node24.002","children":[45]},{"rotation":[0.0,0.0,1.0,6.123234262925839e-17],"name":"node9.001","children":[18,26,34,38,42,46]},{"rotation":[0.7071068286895752,0.0,0.0,-0.7071068286895752],"name":"node8.001","children":[47]},{"name":"node0.002","children":[8,9,10,11,12,13,14,48]},{"translation":[-6.265345573425293,-5.826789855957031,-1.8717834949493409],"name":"fx_tire_contactPoint_right_out"},{"translation":[-4.703694820404053,-5.826789855957031,-1.869848370552063],"name":"fx_tire_contactPoint_right_in"},{"translation":[6.278031826019287,-5.826789855957031,-1.9375221729278565],"name":"fx_tire_contactPoint_left_out"},{"translation":[4.704140663146973,-5.826789855957031,-1.912735939025879],"name":"fx_tire_contactPoint_left_in"},{"translation":[-0.4322144389152527,-4.980909824371338,25.841053009033204],"name":"fx_tire_contactPoint_center_right"},{"translation":[0.4524654150009155,-4.980909824371338,25.91092300415039],"name":"fx_tire_contactPoint_center_left"},{"translation":[-9.759690284729004,-2.065814971923828,5.145883560180664],"name":"fx_exhaust_right"},{"translation":[9.755328178405762,-2.065814971923828,5.145883560180664],"name":"fx_exhaust_left"}],"scene":0,"scenes":[{"nodes":[7,49,50,51,52,53,54,55,56,57],"name":"Scene"}],"textures":[{"extensions":{"MSFT_texture_dds":{"source":0}}},{"extensions":{"MSFT_texture_dds":{"source":1}}}],"samplers":[{"magFilter":9729,"minFilter":9987,"wrapS":10497,"wrapT":10497}],"extensionsUsed":["ASOBO_normal_map_convention","MSFT_texture_dds","ASOBO_asset_optimized"],"buffers":[{"byteLength":616456,"uri":"B77L_LOD1.bin"}],"images":[{"uri":"TFS_B77L_M.PNG.DDS","name":"TFS_B77L_M","extras":"ASOBO_image_converted_meta"},{"uri":"TFS_B772LR_T.PNG.DDS","name":"TFS_B772LR_T","extras":"ASOBO_image_converted_meta"}]}
