{"accessors":[{"bufferView":0,"componentType":5126,"count":103,"min":[-7.2605462074279789,-0.3548080623149872,-8.043828964233399],"max":[7.2605462074279789,1.6322070360183716,1.1297171115875245],"type":"VEC3","name":"x6_FUSELAGE_vertices#0_POSITION"},{"bufferView":0,"byteOffset":12,"componentType":5120,"count":103,"type":"VEC4","name":"x6_FUSELAGE_vertices#0_TANGENT"},{"bufferView":0,"byteOffset":16,"componentType":5120,"count":103,"type":"VEC4","name":"x6_FUSELAGE_vertices#0_NORMAL"},{"bufferView":0,"byteOffset":20,"componentType":5122,"count":103,"type":"VEC2","name":"x6_FUSELAGE_vertices#0_TEXCOORD_0"},{"bufferView":0,"byteOffset":24,"componentType":5122,"count":103,"type":"VEC2","name":"x6_FUSELAGE_vertices#0_TEXCOORD_1"},{"bufferView":0,"byteOffset":28,"componentType":5123,"count":103,"type":"VEC4","name":"x6_FUSELAGE_vertices#0_COLOR_0"},{"bufferView":1,"componentType":5123,"count":204,"type":"SCALAR","name":"x6_FUSELAGE_indices#0"}],"asset":{"generator":"babylon.js glTF exporter for 3dsmax 2019 v1.0.7823.24930","version":"2.0","extensions":{"ASOBO_asset_optimized":{"BoundingBoxMax":[7.2605462074279789,1.6322070360183716,1.1297171115875245],"BoundingBoxMin":[-7.2605462074279789,-0.3548080623149872,-8.043828964233399],"MajorVersion":4,"MinorVersion":4,"UseCheckerboardMaterialForMissingTextures":true},"ASOBO_normal_map_convention":{"tangent_space_convention":"DirectX"}}},"bufferViews":[{"buffer":0,"byteLength":3708,"byteStride":36,"target":34962,"name":"BufferViewVertexND"},{"buffer":0,"byteLength":408,"byteOffset":3708,"target":34963,"name":"BufferViewIndex"}],"extensionsRequired":["MSFT_texture_dds"],"materials":[{"name":"LOD6","occlusionTexture":{"index":1},"pbrMetallicRoughness":{"baseColorTexture":{"index":0},"metallicRoughnessTexture":{"index":1}}}],"meshes":[{"primitives":[{"attributes":{"COLOR_0":5,"NORMAL":2,"POSITION":0,"TANGENT":1,"TEXCOORD_0":3,"TEXCOORD_1":4},"indices":6,"material":0,"mode":4,"extras":{"ASOBO_primitive":{"PrimitiveCount":68,"VertexType":"VTX","VertexVersion":2}}}],"name":"x6_FUSELAGE"}],"nodes":[{"translation":[0.0,0.0,2.14106846],"mesh":0,"extensions":{"ASOBO_unique_id":{"id":"x6_FUSELAGE"}},"name":"FUSELAGE"}],"scene":0,"scenes":[{"nodes":[0]}],"textures":[{"extensions":{"MSFT_texture_dds":{"source":0}}},{"extensions":{"MSFT_texture_dds":{"source":1}}}],"extensionsUsed":["ASOBO_normal_map_convention","ASOBO_unique_id","MSFT_texture_dds","ASOBO_asset_optimized"],"buffers":[{"byteLength":4116,"uri":"DA62_LOD06.bin"}],"images":[{"uri":"DA62_AIRFRAME_LOD6_ALBD.PNG.DDS","extras":"ASOBO_image_converted_meta"},{"uri":"DA62_AIRFRAME_LOD6_COMP.PNG.DDS","extras":"ASOBO_image_converted_meta"}]}
