{"accessors":[{"bufferView":0,"componentType":5126,"count":1190,"min":[-0.6886082291603088,-0.34173986315727236,-2.206160545349121],"max":[0.688625693321228,0.8091254234313965,1.2594010829925538],"type":"VEC3","name":"x4_cockpit_vertices#0_POSITION"},{"bufferView":0,"byteOffset":12,"componentType":5120,"count":1190,"type":"VEC4","name":"x4_cockpit_vertices#0_TANGENT"},{"bufferView":0,"byteOffset":16,"componentType":5120,"count":1190,"type":"VEC4","name":"x4_cockpit_vertices#0_NORMAL"},{"bufferView":0,"byteOffset":20,"componentType":5122,"count":1190,"type":"VEC2","name":"x4_cockpit_vertices#0_TEXCOORD_0"},{"bufferView":0,"byteOffset":24,"componentType":5122,"count":1190,"type":"VEC2","name":"x4_cockpit_vertices#0_TEXCOORD_1"},{"bufferView":0,"byteOffset":28,"componentType":5123,"count":1190,"type":"VEC4","name":"x4_cockpit_vertices#0_COLOR_0"},{"bufferView":1,"componentType":5123,"count":2898,"type":"SCALAR","name":"x4_cockpit_indices#0"},{"bufferView":0,"byteOffset":42840,"componentType":5126,"count":96,"min":[-0.7364844679832459,-0.697150468826294,-1.7377636432647706],"max":[0.7364844679832459,0.5828946828842163,1.76913583278656],"type":"VEC3","name":"Occluder_vertices#0_POSITION"},{"bufferView":0,"byteOffset":42852,"componentType":5120,"count":96,"type":"VEC4","name":"Occluder_vertices#0_TANGENT"},{"bufferView":0,"byteOffset":42856,"componentType":5120,"count":96,"type":"VEC4","name":"Occluder_vertices#0_NORMAL"},{"bufferView":0,"byteOffset":42860,"componentType":5122,"count":96,"type":"VEC2","name":"Occluder_vertices#0_TEXCOORD_0"},{"bufferView":0,"byteOffset":42864,"componentType":5122,"count":96,"type":"VEC2","name":"Occluder_vertices#0_TEXCOORD_1"},{"bufferView":0,"byteOffset":42868,"componentType":5123,"count":96,"type":"VEC4","name":"Occluder_vertices#0_COLOR_0"},{"bufferView":1,"byteOffset":5796,"componentType":5123,"count":252,"type":"SCALAR","name":"Occluder_indices#0"},{"bufferView":0,"byteOffset":46296,"componentType":5126,"count":4,"min":[-0.10697222501039505,-0.07951286435127258,0.0022084731608629228],"max":[0.10373081266880036,0.08214080333709717,0.0022085625678300859],"type":"VEC3","name":"x4_AS1000_PFD_Screen_2_vertices#0_POSITION"},{"bufferView":0,"byteOffset":46308,"componentType":5120,"count":4,"type":"VEC4","name":"x4_AS1000_PFD_Screen_2_vertices#0_TANGENT"},{"bufferView":0,"byteOffset":46312,"componentType":5120,"count":4,"type":"VEC4","name":"x4_AS1000_PFD_Screen_2_vertices#0_NORMAL"},{"bufferView":0,"byteOffset":46316,"componentType":5122,"count":4,"type":"VEC2","name":"x4_AS1000_PFD_Screen_2_vertices#0_TEXCOORD_0"},{"bufferView":0,"byteOffset":46320,"componentType":5122,"count":4,"type":"VEC2","name":"x4_AS1000_PFD_Screen_2_vertices#0_TEXCOORD_1"},{"bufferView":0,"byteOffset":46324,"componentType":5123,"count":4,"type":"VEC4","name":"x4_AS1000_PFD_Screen_2_vertices#0_COLOR_0"},{"bufferView":1,"byteOffset":6300,"componentType":5123,"count":6,"type":"SCALAR","name":"x4_AS1000_PFD_Screen_2_indices#0"},{"bufferView":0,"byteOffset":46440,"componentType":5126,"count":4,"min":[-0.10697222501039505,-0.07951286435127258,0.0022084731608629228],"max":[0.10373081266880036,0.08214080333709717,0.0022085625678300859],"type":"VEC3","name":"x4_AS1000_PFD_Screen_1_vertices#0_POSITION"},{"bufferView":0,"byteOffset":46452,"componentType":5120,"count":4,"type":"VEC4","name":"x4_AS1000_PFD_Screen_1_vertices#0_TANGENT"},{"bufferView":0,"byteOffset":46456,"componentType":5120,"count":4,"type":"VEC4","name":"x4_AS1000_PFD_Screen_1_vertices#0_NORMAL"},{"bufferView":0,"byteOffset":46460,"componentType":5122,"count":4,"type":"VEC2","name":"x4_AS1000_PFD_Screen_1_vertices#0_TEXCOORD_0"},{"bufferView":0,"byteOffset":46464,"componentType":5122,"count":4,"type":"VEC2","name":"x4_AS1000_PFD_Screen_1_vertices#0_TEXCOORD_1"},{"bufferView":0,"byteOffset":46468,"componentType":5123,"count":4,"type":"VEC4","name":"x4_AS1000_PFD_Screen_1_vertices#0_COLOR_0"},{"bufferView":1,"byteOffset":6312,"componentType":5123,"count":6,"type":"SCALAR","name":"x4_AS1000_PFD_Screen_1_indices#0"}],"asset":{"generator":"babylon.js glTF exporter for 3dsmax 2019 v1.0.7842.25352","version":"2.0","extensions":{"ASOBO_asset_optimized":{"BoundingBoxMax":[0.7364844679832459,0.8091254234313965,1.76913583278656],"BoundingBoxMin":[-0.7364844679832459,-0.697150468826294,-2.206160545349121],"MajorVersion":4,"MinorVersion":4,"UseCheckerboardMaterialForMissingTextures":true},"ASOBO_normal_map_convention":{"tangent_space_convention":"DirectX"}}},"bufferViews":[{"buffer":0,"byteLength":46584,"byteStride":36,"target":34962,"name":"BufferViewVertexND"},{"buffer":0,"byteLength":6324,"byteOffset":46584,"target":34963,"name":"BufferViewIndex"}],"extensionsRequired":["MSFT_texture_dds"],"materials":[{"name":"LOD4","occlusionTexture":{"index":1},"pbrMetallicRoughness":{"baseColorTexture":{"index":0},"metallicRoughnessTexture":{"index":1}}},{"name":"Occluder","extensions":{"ASOBO_material_environment_occluder":{}}},{"name":"$AS1000_PFD_2","emissiveFactor":[1.0,1.0,1.0],"pbrMetallicRoughness":{"baseColorFactor":[0.0,0.0,0.0,1.0]}},{"name":"$AS1000_PFD_1","emissiveFactor":[1.0,1.0,1.0],"pbrMetallicRoughness":{"baseColorFactor":[0.0,0.0,0.0,1.0]}}],"meshes":[{"primitives":[{"attributes":{"COLOR_0":5,"NORMAL":2,"POSITION":0,"TANGENT":1,"TEXCOORD_0":3,"TEXCOORD_1":4},"indices":6,"material":0,"mode":4,"extras":{"ASOBO_primitive":{"PrimitiveCount":966,"VertexType":"VTX","VertexVersion":2}}}],"name":"x4_cockpit"},{"primitives":[{"attributes":{"COLOR_0":12,"NORMAL":9,"POSITION":7,"TANGENT":8,"TEXCOORD_0":10,"TEXCOORD_1":11},"indices":13,"material":1,"mode":4,"extras":{"ASOBO_primitive":{"PrimitiveCount":84,"VertexType":"VTX","VertexVersion":2}}}],"name":"Occluder"},{"primitives":[{"attributes":{"COLOR_0":19,"NORMAL":16,"POSITION":14,"TANGENT":15,"TEXCOORD_0":17,"TEXCOORD_1":18},"indices":20,"material":2,"mode":4,"extras":{"ASOBO_primitive":{"PrimitiveCount":2,"VertexType":"VTX","VertexVersion":2}}}],"name":"x4_AS1000_PFD_Screen_2"},{"primitives":[{"attributes":{"COLOR_0":26,"NORMAL":23,"POSITION":21,"TANGENT":22,"TEXCOORD_0":24,"TEXCOORD_1":25},"indices":27,"material":3,"mode":4,"extras":{"ASOBO_primitive":{"PrimitiveCount":2,"VertexType":"VTX","VertexVersion":2}}}],"name":"x4_AS1000_PFD_Screen_1"}],"nodes":[{"translation":[0.06384045,0.5450617,0.8112081],"rotation":[0.0218148865,0.0,0.0,0.999762058],"extensions":{"ASOBO_unique_id":{"id":"CONTAINER_AS1000_MID_1_6271"}},"name":"CONTAINER_AS1000_MID_1"},{"translation":[0.0,0.253671169,0.0429077148],"mesh":0,"extensions":{"ASOBO_unique_id":{"id":"x4_cockpit_6868"}},"name":"cockpit"},{"translation":[0.0,0.5254022,-0.429160237],"mesh":1,"extensions":{"ASOBO_unique_id":{"id":"Occluder_147216"}},"name":"Occluder"},{"translation":[-0.1629118,0.506390333,0.80909],"rotation":[0.0187786352,0.0,0.0,0.99982363],"scale":[1.0,0.99999994,0.99999994],"extensions":{"ASOBO_unique_id":{"id":"CONTAINER_AS1000_PFD_WithAutopilot_1_147217"}},"name":"CONTAINER_AS1000_PFD_WithAutopilot_1","children":[4,5,6,8]},{"scale":[1.0,0.99999994,0.99999994],"extensions":{"ASOBO_unique_id":{"id":"CONTAINER_AS1000_Frame_WithAutopilot_1_187193"}},"name":"CONTAINER_AS1000_Frame_WithAutopilot_1"},{"scale":[1.0,0.99999994,0.99999994],"extensions":{"ASOBO_unique_id":{"id":"CONTAINER_AS1000_Autopilot_1_187194"}},"name":"CONTAINER_AS1000_Autopilot_1"},{"scale":[1.0,0.99999994,0.99999994],"extensions":{"ASOBO_unique_id":{"id":"CONTAINER_AS1000_PFD_Common_2_187195"}},"name":"CONTAINER_AS1000_PFD_Common_2","children":[7]},{"translation":[-0.00436460972,0.0327134132,0.00777322054],"rotation":[0.000376233977,-1.95154622e-11,-9.152147e-10,0.99999994],"scale":[1.0,0.9999999,0.9999999],"mesh":2,"extensions":{"ASOBO_unique_id":{"id":"x4_AS1000_PFD_Screen_2_188735"}},"name":"AS1000_PFD_Screen_2"},{"scale":[1.0,0.99999994,0.99999994],"extensions":{"ASOBO_unique_id":{"id":"CONTAINER_AS1000_AltitudeKnob_2_187197"}},"name":"CONTAINER_AS1000_AltitudeKnob_2"},{"translation":[0.240623116,0.506263733,0.809085369],"rotation":[0.0187786333,0.0,0.0,0.99982363],"scale":[1.0,0.9999999,0.9999999],"extensions":{"ASOBO_unique_id":{"id":"CONTAINER_AS1000_PFD_NoAutopilot_AltKnob_1_157886"}},"name":"CONTAINER_AS1000_PFD_NoAutopilot_AltKnob_1","children":[10,11,12]},{"extensions":{"ASOBO_unique_id":{"id":"CONTAINER_AS1000_AltitudeKnob_1_185826"}},"name":"CONTAINER_AS1000_AltitudeKnob_1"},{"extensions":{"ASOBO_unique_id":{"id":"CONTAINER_AS1000_Frame_NoAutopilot_AltKnob_1_185827"}},"name":"CONTAINER_AS1000_Frame_NoAutopilot_AltKnob_1"},{"extensions":{"ASOBO_unique_id":{"id":"CONTAINER_AS1000_PFD_Common_1_185828"}},"name":"CONTAINER_AS1000_PFD_Common_1","children":[13]},{"translation":[-0.00436460972,0.0327134728,0.00777310133],"rotation":[0.000376235781,-1.95154622e-11,-9.152147e-10,0.99999994],"mesh":3,"extensions":{"ASOBO_unique_id":{"id":"x4_AS1000_PFD_Screen_1_189057"}},"name":"AS1000_PFD_Screen_1"},{"translation":[0.337552369,0.0438210964,0.204090238],"extensions":{"ASOBO_unique_id":{"id":"PILOT_0_147214"}},"name":"PILOT_0"},{"translation":[-0.3440839,0.0438210964,0.204090238],"extensions":{"ASOBO_unique_id":{"id":"PILOT_1_147215"}},"name":"PILOT_1"}],"scene":0,"scenes":[{"nodes":[0,1,2,3,9,14,15]}],"textures":[{"extensions":{"MSFT_texture_dds":{"source":0}}},{"extensions":{"MSFT_texture_dds":{"source":1}}}],"extensionsUsed":["ASOBO_normal_map_convention","ASOBO_unique_id","ASOBO_material_environment_occluder","MSFT_texture_dds","ASOBO_asset_optimized"],"buffers":[{"byteLength":52908,"uri":"DA62_INTERIOR_LOD04.bin"}],"images":[{"uri":"ATLAS_ALBD.PNG.DDS","extras":"ASOBO_image_converted_meta"},{"uri":"ATLAS_COMP.PNG.DDS","extras":"ASOBO_image_converted_meta"}]}
