{"accessors":[{"bufferView":0,"componentType":5126,"count":2,"min":[0.0],"max":[0.0333333351],"type":"SCALAR","name":"accessorAnimationInput"},{"bufferView":1,"componentType":5126,"count":2,"type":"VEC3","name":"accessorAnimationPositions"},{"bufferView":0,"byteOffset":8,"componentType":5126,"count":3,"min":[0.0],"max":[0.06666667],"type":"SCALAR","name":"accessorAnimationInput"},{"bufferView":2,"componentType":5126,"count":3,"type":"VEC4","name":"accessorAnimationRotations"},{"bufferView":0,"byteOffset":20,"componentType":5126,"count":3,"min":[0.0],"max":[0.06666667],"type":"SCALAR","name":"accessorAnimationInput"},{"bufferView":2,"byteOffset":48,"componentType":5126,"count":3,"type":"VEC4","name":"accessorAnimationRotations"},{"bufferView":0,"byteOffset":32,"componentType":5126,"count":2,"min":[0.0],"max":[0.0333333351],"type":"SCALAR","name":"accessorAnimationInput"},{"bufferView":1,"byteOffset":24,"componentType":5126,"count":2,"type":"VEC3","name":"accessorAnimationPositions"},{"bufferView":0,"byteOffset":40,"componentType":5126,"count":2,"min":[0.0],"max":[0.0333333351],"type":"SCALAR","name":"accessorAnimationInput"},{"bufferView":2,"byteOffset":96,"componentType":5126,"count":2,"type":"VEC4","name":"accessorAnimationRotations"},{"bufferView":0,"byteOffset":48,"componentType":5126,"count":2,"min":[0.0],"max":[0.0333333351],"type":"SCALAR","name":"accessorAnimationInput"},{"bufferView":1,"byteOffset":48,"componentType":5126,"count":2,"type":"VEC3","name":"accessorAnimationScales"},{"bufferView":0,"byteOffset":56,"componentType":5126,"count":2,"min":[0.0],"max":[0.0333333351],"type":"SCALAR","name":"accessorAnimationInput"},{"bufferView":1,"byteOffset":72,"componentType":5126,"count":2,"type":"VEC3","name":"accessorAnimationPositions"},{"bufferView":0,"byteOffset":64,"componentType":5126,"count":2,"min":[0.0],"max":[0.0333333351],"type":"SCALAR","name":"accessorAnimationInput"},{"bufferView":1,"byteOffset":96,"componentType":5126,"count":2,"type":"VEC3","name":"accessorAnimationPositions"},{"bufferView":0,"byteOffset":72,"componentType":5126,"count":2,"min":[0.0],"max":[0.0333333351],"type":"SCALAR","name":"accessorAnimationInput"},{"bufferView":1,"byteOffset":120,"componentType":5126,"count":2,"type":"VEC3","name":"accessorAnimationPositions"},{"bufferView":0,"byteOffset":80,"componentType":5126,"count":2,"min":[0.0],"max":[0.0333333351],"type":"SCALAR","name":"accessorAnimationInput"},{"bufferView":1,"byteOffset":144,"componentType":5126,"count":2,"type":"VEC3","name":"accessorAnimationPositions"},{"bufferView":0,"byteOffset":88,"componentType":5126,"count":2,"min":[0.0],"max":[0.0333333351],"type":"SCALAR","name":"accessorAnimationInput"},{"bufferView":1,"byteOffset":168,"componentType":5126,"count":2,"type":"VEC3","name":"accessorAnimationPositions"},{"bufferView":0,"byteOffset":96,"componentType":5126,"count":2,"min":[0.0],"max":[0.0333333351],"type":"SCALAR","name":"accessorAnimationInput"},{"bufferView":1,"byteOffset":192,"componentType":5126,"count":2,"type":"VEC3","name":"accessorAnimationPositions"},{"bufferView":0,"byteOffset":104,"componentType":5126,"count":2,"min":[0.0],"max":[0.0333333351],"type":"SCALAR","name":"accessorAnimationInput"},{"bufferView":1,"byteOffset":216,"componentType":5126,"count":2,"type":"VEC3","name":"accessorAnimationPositions"},{"bufferView":0,"byteOffset":112,"componentType":5126,"count":3,"min":[0.0],"max":[0.06666667],"type":"SCALAR","name":"accessorAnimationInput"},{"bufferView":2,"byteOffset":128,"componentType":5126,"count":3,"type":"VEC4","name":"accessorAnimationRotations"},{"bufferView":0,"byteOffset":124,"componentType":5126,"count":3,"min":[0.0],"max":[0.06666667],"type":"SCALAR","name":"accessorAnimationInput"},{"bufferView":2,"byteOffset":176,"componentType":5126,"count":3,"type":"VEC4","name":"accessorAnimationRotations"},{"bufferView":0,"byteOffset":136,"componentType":5126,"count":2,"min":[0.0],"max":[0.0333333351],"type":"SCALAR","name":"accessorAnimationInput"},{"bufferView":1,"byteOffset":240,"componentType":5126,"count":2,"type":"VEC3","name":"accessorAnimationPositions"},{"bufferView":0,"byteOffset":144,"componentType":5126,"count":2,"min":[0.0],"max":[0.0333333351],"type":"SCALAR","name":"accessorAnimationInput"},{"bufferView":2,"byteOffset":224,"componentType":5126,"count":2,"type":"VEC4","name":"accessorAnimationRotations"},{"bufferView":0,"byteOffset":152,"componentType":5126,"count":2,"min":[0.0],"max":[0.0333333351],"type":"SCALAR","name":"accessorAnimationInput"},{"bufferView":1,"byteOffset":264,"componentType":5126,"count":2,"type":"VEC3","name":"accessorAnimationScales"},{"bufferView":0,"byteOffset":160,"componentType":5126,"count":2,"min":[0.0],"max":[0.0333333351],"type":"SCALAR","name":"accessorAnimationInput"},{"bufferView":1,"byteOffset":288,"componentType":5126,"count":2,"type":"VEC3","name":"accessorAnimationPositions"},{"bufferView":0,"byteOffset":168,"componentType":5126,"count":2,"min":[0.0],"max":[0.0333333351],"type":"SCALAR","name":"accessorAnimationInput"},{"bufferView":1,"byteOffset":312,"componentType":5126,"count":2,"type":"VEC3","name":"accessorAnimationPositions"},{"bufferView":0,"byteOffset":176,"componentType":5126,"count":2,"min":[0.0],"max":[0.0333333351],"type":"SCALAR","name":"accessorAnimationInput"},{"bufferView":1,"byteOffset":336,"componentType":5126,"count":2,"type":"VEC3","name":"accessorAnimationPositions"},{"bufferView":0,"byteOffset":184,"componentType":5126,"count":2,"min":[0.0],"max":[0.0333333351],"type":"SCALAR","name":"accessorAnimationInput"},{"bufferView":1,"byteOffset":360,"componentType":5126,"count":2,"type":"VEC3","name":"accessorAnimationPositions"},{"bufferView":0,"byteOffset":192,"componentType":5126,"count":2,"min":[0.0],"max":[0.0333333351],"type":"SCALAR","name":"accessorAnimationInput"},{"bufferView":1,"byteOffset":384,"componentType":5126,"count":2,"type":"VEC3","name":"accessorAnimationPositions"},{"bufferView":0,"byteOffset":200,"componentType":5126,"count":2,"min":[0.0],"max":[0.0333333351],"type":"SCALAR","name":"accessorAnimationInput"},{"bufferView":1,"byteOffset":408,"componentType":5126,"count":2,"type":"VEC3","name":"accessorAnimationPositions"},{"bufferView":0,"byteOffset":208,"componentType":5126,"count":2,"min":[0.0],"max":[0.0333333351],"type":"SCALAR","name":"accessorAnimationInput"},{"bufferView":1,"byteOffset":432,"componentType":5126,"count":2,"type":"VEC3","name":"accessorAnimationPositions"},{"bufferView":3,"componentType":5126,"count":3,"min":[-0.5542507171630859,-0.2263391613960266,-5.743472099304199],"max":[0.5542507171630859,-0.15759798884391786,3.2278788089752199],"type":"VEC3","name":"x6_Cockpit_vertices#0_POSITION"},{"bufferView":3,"byteOffset":12,"componentType":5120,"count":3,"type":"VEC4","name":"x6_Cockpit_vertices#0_TANGENT"},{"bufferView":3,"byteOffset":16,"componentType":5120,"count":3,"type":"VEC4","name":"x6_Cockpit_vertices#0_NORMAL"},{"bufferView":3,"byteOffset":20,"componentType":5122,"count":3,"type":"VEC2","name":"x6_Cockpit_vertices#0_TEXCOORD_0"},{"bufferView":3,"byteOffset":24,"componentType":5122,"count":3,"type":"VEC2","name":"x6_Cockpit_vertices#0_TEXCOORD_1"},{"bufferView":3,"byteOffset":28,"componentType":5123,"count":3,"type":"VEC4","name":"x6_Cockpit_vertices#0_COLOR_0"},{"bufferView":4,"componentType":5123,"count":3,"type":"SCALAR","name":"x6_Cockpit_indices#0"}],"animations":[{"name":"AS1000_MID_Push_Pass_Pilot_1","channels":[{"sampler":0,"target":{"node":1,"path":"translation"}}],"samplers":[{"input":0,"output":1,"interpolation":"LINEAR"}]},{"name":"AS1000_PFD_Joystick_Range_DN_UP_2","channels":[{"sampler":0,"target":{"node":8,"path":"rotation"}}],"samplers":[{"input":2,"output":3,"interpolation":"LINEAR"}]},{"name":"AS1000_PFD_Joystick_Range_L_R_2","channels":[{"sampler":0,"target":{"node":9,"path":"rotation"}}],"samplers":[{"input":4,"output":5,"interpolation":"LINEAR"}]},{"name":"AS1000_PFD_Joystick_Range_Push_2","channels":[{"sampler":0,"target":{"node":7,"path":"translation"}},{"sampler":1,"target":{"node":7,"path":"rotation"}},{"sampler":2,"target":{"node":7,"path":"scale"}}],"samplers":[{"input":6,"output":7,"interpolation":"LINEAR"},{"input":8,"output":9,"interpolation":"LINEAR"},{"input":10,"output":11,"interpolation":"LINEAR"}]},{"name":"AS1000_PFD_Push_COM_Select_2","channels":[{"sampler":0,"target":{"node":11,"path":"translation"}}],"samplers":[{"input":12,"output":13,"interpolation":"LINEAR"}]},{"name":"AS1000_PFD_Push_Course_2","channels":[{"sampler":0,"target":{"node":10,"path":"translation"}}],"samplers":[{"input":14,"output":15,"interpolation":"LINEAR"}]},{"name":"AS1000_PFD_Push_FMS_Inner_2","channels":[{"sampler":0,"target":{"node":12,"path":"translation"}}],"samplers":[{"input":16,"output":17,"interpolation":"LINEAR"}]},{"name":"AS1000_PFD_Push_NAV_Select_2","channels":[{"sampler":0,"target":{"node":13,"path":"translation"}}],"samplers":[{"input":18,"output":19,"interpolation":"LINEAR"}]},{"name":"AS1000_PFD_Push_Volume_1_2","channels":[{"sampler":0,"target":{"node":14,"path":"translation"}}],"samplers":[{"input":20,"output":21,"interpolation":"LINEAR"}]},{"name":"AS1000_PFD_Push_Volume_2_2","channels":[{"sampler":0,"target":{"node":15,"path":"translation"}}],"samplers":[{"input":22,"output":23,"interpolation":"LINEAR"}]},{"name":"Autopilot_Knob_Heading_Push_2","channels":[{"sampler":0,"target":{"node":6,"path":"translation"}}],"samplers":[{"input":24,"output":25,"interpolation":"LINEAR"}]},{"name":"AS1000_PFD_Joystick_Range_DN_UP_1","channels":[{"sampler":0,"target":{"node":23,"path":"rotation"}}],"samplers":[{"input":26,"output":27,"interpolation":"LINEAR"}]},{"name":"AS1000_PFD_Joystick_Range_L_R_1","channels":[{"sampler":0,"target":{"node":24,"path":"rotation"}}],"samplers":[{"input":28,"output":29,"interpolation":"LINEAR"}]},{"name":"AS1000_PFD_Joystick_Range_Push_1","channels":[{"sampler":0,"target":{"node":22,"path":"translation"}},{"sampler":1,"target":{"node":22,"path":"rotation"}},{"sampler":2,"target":{"node":22,"path":"scale"}}],"samplers":[{"input":30,"output":31,"interpolation":"LINEAR"},{"input":32,"output":33,"interpolation":"LINEAR"},{"input":34,"output":35,"interpolation":"LINEAR"}]},{"name":"AS1000_PFD_Push_COM_Select_1","channels":[{"sampler":0,"target":{"node":26,"path":"translation"}}],"samplers":[{"input":36,"output":37,"interpolation":"LINEAR"}]},{"name":"AS1000_PFD_Push_Course_1","channels":[{"sampler":0,"target":{"node":25,"path":"translation"}}],"samplers":[{"input":38,"output":39,"interpolation":"LINEAR"}]},{"name":"AS1000_PFD_Push_FMS_Inner_1","channels":[{"sampler":0,"target":{"node":27,"path":"translation"}}],"samplers":[{"input":40,"output":41,"interpolation":"LINEAR"}]},{"name":"AS1000_PFD_Push_NAV_Select_1","channels":[{"sampler":0,"target":{"node":28,"path":"translation"}}],"samplers":[{"input":42,"output":43,"interpolation":"LINEAR"}]},{"name":"AS1000_PFD_Push_Volume_1_1","channels":[{"sampler":0,"target":{"node":29,"path":"translation"}}],"samplers":[{"input":44,"output":45,"interpolation":"LINEAR"}]},{"name":"AS1000_PFD_Push_Volume_2_1","channels":[{"sampler":0,"target":{"node":30,"path":"translation"}}],"samplers":[{"input":46,"output":47,"interpolation":"LINEAR"}]},{"name":"Autopilot_Knob_Heading_Push_1","channels":[{"sampler":0,"target":{"node":21,"path":"translation"}}],"samplers":[{"input":48,"output":49,"interpolation":"LINEAR"}]}],"asset":{"generator":"babylon.js glTF exporter for 3dsmax 2019 v1.0.7842.25352","version":"2.0","extensions":{"ASOBO_asset_optimized":{"BoundingBoxMax":[0.5542507171630859,-0.15759798884391786,3.2278788089752199],"BoundingBoxMin":[-0.5542507171630859,-0.2263391613960266,-5.743472099304199],"MajorVersion":4,"MinorVersion":4,"UseCheckerboardMaterialForMissingTextures":true},"ASOBO_normal_map_convention":{"tangent_space_convention":"DirectX"}}},"bufferViews":[{"buffer":0,"byteLength":216,"name":"bufferViewAnimationFloatScalar"},{"buffer":0,"byteLength":456,"byteOffset":216,"name":"bufferViewAnimationFloatVec3"},{"buffer":0,"byteLength":256,"byteOffset":672,"name":"bufferViewAnimationFloatVec4"},{"buffer":0,"byteLength":108,"byteStride":36,"byteOffset":928,"target":34962,"name":"BufferViewVertexND"},{"buffer":0,"byteLength":6,"byteOffset":1036,"target":34963,"name":"BufferViewIndex"}],"materials":[{"name":"LOD6","pbrMetallicRoughness":{"baseColorFactor":[1.0,1.0,1.0,0.7]},"extensions":{"ASOBO_material_invisible":{}}}],"meshes":[{"primitives":[{"attributes":{"COLOR_0":55,"NORMAL":52,"POSITION":50,"TANGENT":51,"TEXCOORD_0":53,"TEXCOORD_1":54},"indices":56,"material":0,"mode":4,"extras":{"ASOBO_primitive":{"PrimitiveCount":1,"VertexType":"VTX","VertexVersion":2}}}],"name":"x6_Cockpit"}],"nodes":[{"translation":[0.06384045,0.5450617,0.8112081],"rotation":[0.0218148865,0.0,0.0,0.999762058],"extensions":{"ASOBO_unique_id":{"id":"CONTAINER_AS1000_MID_1_6271"}},"name":"CONTAINER_AS1000_MID_1","children":[1]},{"translation":[-0.0004889965,-0.080611676,0.0176796913],"rotation":[0.000376230222,0.0,0.0,0.99999994],"scale":[1.0,0.99999994,0.99999994],"extensions":{"ASOBO_unique_id":{"id":"AS1000_MID_Push_Pass_Pilot_1_188282"}},"name":"AS1000_MID_Push_Pass_Pilot_1"},{"translation":[-0.1629118,0.506390333,0.80909],"rotation":[0.0187786352,0.0,0.0,0.99982363],"scale":[1.0,0.99999994,0.99999994],"extensions":{"ASOBO_unique_id":{"id":"CONTAINER_AS1000_PFD_WithAutopilot_1_147217"}},"name":"CONTAINER_AS1000_PFD_WithAutopilot_1","children":[3,4,5,16]},{"scale":[1.0,0.99999994,0.99999994],"extensions":{"ASOBO_unique_id":{"id":"CONTAINER_AS1000_Frame_WithAutopilot_1_187193"}},"name":"CONTAINER_AS1000_Frame_WithAutopilot_1"},{"scale":[1.0,0.99999994,0.99999994],"extensions":{"ASOBO_unique_id":{"id":"CONTAINER_AS1000_Autopilot_1_187194"}},"name":"CONTAINER_AS1000_Autopilot_1"},{"scale":[1.0,0.99999994,0.99999994],"extensions":{"ASOBO_unique_id":{"id":"CONTAINER_AS1000_PFD_Common_2_187195"}},"name":"CONTAINER_AS1000_PFD_Common_2","children":[6,7,10,11,12,13,14,15]},{"translation":[0.126820922,0.04711318,0.01820904],"rotation":[0.0003762284,0.0,0.0,0.99999994],"scale":[1.0,0.9999999,0.9999999],"extensions":{"ASOBO_unique_id":{"id":"Autopilot_Knob_Heading_Push_2_188611"}},"name":"Autopilot_Knob_Heading_Push_2"},{"translation":[-0.138796687,0.0121310949,0.01820743],"rotation":[0.0003762284,0.0,0.0,0.99999994],"scale":[1.0,0.9999999,0.9999999],"extensions":{"ASOBO_unique_id":{"id":"AS1000_PFD_Joystick_Range_Push_Helper_2_188616"}},"name":"AS1000_PFD_Joystick_Range_Push_Helper_2","children":[8]},{"translation":[0.000007390976,-0.0000136494637,-0.0183653235],"rotation":[-0.0439952537,0.0,0.0,0.9990318],"scale":[1.0,0.99999994,0.99999994],"extensions":{"ASOBO_unique_id":{"id":"AS1000_PFD_Joystick_Range_DN_UP_2_188617"}},"name":"AS1000_PFD_Joystick_Range_DN_UP_2","children":[9]},{"translation":[-0.00000262260437,0.00003412366,-0.000385940075],"rotation":[9.322084e-10,-0.04358757,8.102959e-11,0.9990496],"scale":[1.00000036,1.00000012,1.00000012],"extensions":{"ASOBO_unique_id":{"id":"AS1000_PFD_Joystick_Range_L_R_2_188618"}},"name":"AS1000_PFD_Joystick_Range_L_R_2"},{"translation":[-0.1387099,0.0454947948,0.01820761],"rotation":[0.0003762284,0.0,0.0,0.99999994],"scale":[1.0,0.9999999,0.9999999],"extensions":{"ASOBO_unique_id":{"id":"AS1000_PFD_Push_Course_2_188622"}},"name":"AS1000_PFD_Push_Course_2"},{"translation":[-0.13873899,0.080908,0.0182342529],"rotation":[0.0003762284,0.0,0.0,0.99999994],"scale":[1.0,0.9999999,0.9999999],"extensions":{"ASOBO_unique_id":{"id":"AS1000_PFD_Push_COM_Select_2_188629"}},"name":"AS1000_PFD_Push_COM_Select_2"},{"translation":[-0.139264822,-0.05520916,0.0181317329],"rotation":[0.0003762284,0.0,0.0,0.99999994],"scale":[1.0,0.9999999,0.9999999],"extensions":{"ASOBO_unique_id":{"id":"AS1000_PFD_Push_FMS_Inner_2_188633"}},"name":"AS1000_PFD_Push_FMS_Inner_2"},{"translation":[0.126820922,0.08060169,0.0182340741],"rotation":[0.0003762284,0.0,0.0,0.99999994],"scale":[1.0,0.9999999,0.9999999],"extensions":{"ASOBO_unique_id":{"id":"AS1000_PFD_Push_NAV_Select_2_188637"}},"name":"AS1000_PFD_Push_NAV_Select_2"},{"translation":[0.126820922,0.111938417,0.0182340741],"rotation":[0.0003762284,0.0,0.0,0.99999994],"scale":[1.0,0.9999999,0.9999999],"extensions":{"ASOBO_unique_id":{"id":"AS1000_PFD_Push_Volume_1_2_188695"}},"name":"AS1000_PFD_Push_Volume_1_2"},{"translation":[-0.139290452,0.111938417,0.0182340741],"rotation":[0.0003762284,0.0,0.0,0.99999994],"scale":[1.0,0.9999999,0.9999999],"extensions":{"ASOBO_unique_id":{"id":"AS1000_PFD_Push_Volume_2_2_188700"}},"name":"AS1000_PFD_Push_Volume_2_2"},{"scale":[1.0,0.99999994,0.99999994],"extensions":{"ASOBO_unique_id":{"id":"CONTAINER_AS1000_AltitudeKnob_2_187197"}},"name":"CONTAINER_AS1000_AltitudeKnob_2"},{"translation":[0.240623116,0.506263733,0.809085369],"rotation":[0.0187786333,0.0,0.0,0.99982363],"scale":[1.0,0.9999999,0.9999999],"extensions":{"ASOBO_unique_id":{"id":"CONTAINER_AS1000_PFD_NoAutopilot_AltKnob_1_157886"}},"name":"CONTAINER_AS1000_PFD_NoAutopilot_AltKnob_1","children":[18,19,20]},{"extensions":{"ASOBO_unique_id":{"id":"CONTAINER_AS1000_AltitudeKnob_1_185826"}},"name":"CONTAINER_AS1000_AltitudeKnob_1"},{"extensions":{"ASOBO_unique_id":{"id":"CONTAINER_AS1000_Frame_NoAutopilot_AltKnob_1_185827"}},"name":"CONTAINER_AS1000_Frame_NoAutopilot_AltKnob_1"},{"extensions":{"ASOBO_unique_id":{"id":"CONTAINER_AS1000_PFD_Common_1_185828"}},"name":"CONTAINER_AS1000_PFD_Common_1","children":[21,22,25,26,27,28,29,30]},{"translation":[0.126820922,0.04711318,0.01820898],"rotation":[0.0003762302,0.0,0.0,0.99999994],"extensions":{"ASOBO_unique_id":{"id":"Autopilot_Knob_Heading_Push_1_188933"}},"name":"Autopilot_Knob_Heading_Push_1"},{"translation":[-0.138796687,0.0121311545,0.01820743],"rotation":[0.0003762302,0.0,0.0,0.99999994],"extensions":{"ASOBO_unique_id":{"id":"AS1000_PFD_Joystick_Range_Push_Helper_1_188938"}},"name":"AS1000_PFD_Joystick_Range_Push_Helper_1","children":[23]},{"translation":[0.000007390976,-0.0000137686729,-0.0183652639],"rotation":[-0.04399525,0.0,0.0,0.9990318],"extensions":{"ASOBO_unique_id":{"id":"AS1000_PFD_Joystick_Range_DN_UP_1_188939"}},"name":"AS1000_PFD_Joystick_Range_DN_UP_1","children":[24]},{"translation":[-0.00000262260437,0.00003415346,-0.000385940075],"rotation":[9.322084e-10,-0.04358757,8.102959e-11,0.9990496],"scale":[1.00000036,1.00000012,1.00000012],"extensions":{"ASOBO_unique_id":{"id":"AS1000_PFD_Joystick_Range_L_R_1_188940"}},"name":"AS1000_PFD_Joystick_Range_L_R_1"},{"translation":[-0.1387099,0.0454947948,0.01820755],"rotation":[0.0003762302,0.0,0.0,0.99999994],"extensions":{"ASOBO_unique_id":{"id":"AS1000_PFD_Push_Course_1_188944"}},"name":"AS1000_PFD_Push_Course_1"},{"translation":[-0.13873899,0.08090812,0.0182342529],"rotation":[0.0003762302,0.0,0.0,0.99999994],"extensions":{"ASOBO_unique_id":{"id":"AS1000_PFD_Push_COM_Select_1_188951"}},"name":"AS1000_PFD_Push_COM_Select_1"},{"translation":[-0.139264822,-0.05520916,0.0181317329],"rotation":[0.0003762302,0.0,0.0,0.99999994],"extensions":{"ASOBO_unique_id":{"id":"AS1000_PFD_Push_FMS_Inner_1_188955"}},"name":"AS1000_PFD_Push_FMS_Inner_1"},{"translation":[0.126820922,0.08060169,0.0182340145],"rotation":[0.0003762302,0.0,0.0,0.99999994],"extensions":{"ASOBO_unique_id":{"id":"AS1000_PFD_Push_NAV_Select_1_188959"}},"name":"AS1000_PFD_Push_NAV_Select_1"},{"translation":[0.126820922,0.111938477,0.0182340145],"rotation":[0.0003762302,0.0,0.0,0.99999994],"extensions":{"ASOBO_unique_id":{"id":"AS1000_PFD_Push_Volume_1_1_189017"}},"name":"AS1000_PFD_Push_Volume_1_1"},{"translation":[-0.139290452,0.111938477,0.0182340145],"rotation":[0.0003762302,0.0,0.0,0.99999994],"extensions":{"ASOBO_unique_id":{"id":"AS1000_PFD_Push_Volume_2_1_189022"}},"name":"AS1000_PFD_Push_Volume_2_1"},{"translation":[0.0,0.253671169,0.0429077148],"mesh":0,"extensions":{"ASOBO_unique_id":{"id":"x6_Cockpit_167003"}},"name":"Cockpit"},{"translation":[0.337552369,0.0438210964,0.204090238],"extensions":{"ASOBO_unique_id":{"id":"PILOT_0_147214"}},"name":"PILOT_0"},{"translation":[-0.3440839,0.0438210964,0.204090238],"extensions":{"ASOBO_unique_id":{"id":"PILOT_1_147215"}},"name":"PILOT_1"}],"scene":0,"scenes":[{"nodes":[0,2,17,31,32,33]}],"extensionsUsed":["ASOBO_normal_map_convention","ASOBO_unique_id","ASOBO_material_invisible","ASOBO_asset_optimized"],"buffers":[{"byteLength":1042,"uri":"DA62_INTERIOR_LOD06.bin"}]}
