{"accessors":[{"bufferView":0,"componentType":5126,"count":220,"min":[-14.134329795837403,-3.001339912414551,-16.531410217285158],"max":[14.114319801330567,3.9697799682617189,16.467369079589845],"type":"VEC3","name":"part000.004_vertices#0_POSITION"},{"bufferView":0,"byteOffset":12,"componentType":5120,"count":220,"type":"VEC4","name":"part000.004_vertices#0_TANGENT"},{"bufferView":0,"byteOffset":16,"componentType":5120,"count":220,"type":"VEC4","name":"part000.004_vertices#0_NORMAL"},{"bufferView":0,"byteOffset":20,"componentType":5122,"count":220,"type":"VEC2","name":"part000.004_vertices#0_TEXCOORD_0"},{"bufferView":0,"byteOffset":24,"componentType":5122,"count":220,"type":"VEC2","name":"part000.004_vertices#0_TEXCOORD_1"},{"bufferView":0,"byteOffset":28,"componentType":5123,"count":220,"type":"VEC4","name":"part000.004_vertices#0_COLOR_0"},{"bufferView":1,"componentType":5123,"count":252,"type":"SCALAR","name":"part000.004_indices#0"}],"asset":{"generator":"Extended Khronos glTF Blender I/O v1.0.0","version":"2.0","extensions":{"ASOBO_asset_optimized":{"BoundingBoxMax":[14.114319801330567,3.9697799682617189,16.467369079589845],"BoundingBoxMin":[-14.134329795837403,-3.001339912414551,-16.531410217285158],"MajorVersion":4,"MinorVersion":2},"ASOBO_normal_map_convention":{"tangent_space_convention":"DirectX"}}},"bufferViews":[{"buffer":0,"byteLength":7920,"byteStride":36,"target":34962,"name":"BufferViewVertexND"},{"buffer":0,"byteLength":504,"byteOffset":7920,"target":34963,"name":"BufferViewIndex"}],"extensionsUsed":["ASOBO_normal_map_convention","MSFT_texture_dds","ASOBO_asset_optimized"],"extensionsRequired":["MSFT_texture_dds"],"materials":[{"name":"Material_1","occlusionTexture":{"index":0},"pbrMetallicRoughness":{"baseColorTexture":{"index":1},"metallicRoughnessTexture":{"index":0}}}],"meshes":[{"primitives":[{"attributes":{"COLOR_0":5,"NORMAL":2,"POSITION":0,"TANGENT":1,"TEXCOORD_0":3,"TEXCOORD_1":4},"indices":6,"material":0,"mode":4,"extras":{"ASOBO_primitive":{"PrimitiveCount":84,"VertexType":"VTX","VertexVersion":2}}}],"name":"part000.004"}],"nodes":[{"mesh":0,"name":"node1.004"},{"translation":[-5.489999771118164,-0.27000001072883608,2.680000066757202],"rotation":[0.0,0.7071067690849304,0.7071067690849304,4.329637364903428e-17],"name":"node2.004"},{"translation":[5.170000076293945,-0.30000001192092898,2.680000066757202],"rotation":[0.0,0.7071067690849304,0.7071067690849304,4.329637364903428e-17],"name":"node3.004"},{"translation":[-5.170000076293945,-0.30000001192092898,2.680000066757202],"rotation":[0.0,0.7071067690849304,0.7071067690849304,4.329637364903428e-17],"name":"node4.004"},{"translation":[5.489999771118164,-0.27000001072883608,2.680000066757202],"rotation":[0.0,0.7071067690849304,0.7071067690849304,4.329637364903428e-17],"name":"node5.004"},{"translation":[-0.09000000357627869,-3.109999895095825,14.829999923706057],"rotation":[0.0,0.7071067690849304,0.7071067690849304,4.329637364903428e-17],"name":"node6.004"},{"name":"node0.004","children":[0,1,2,3,4,5]}],"scene":0,"scenes":[{"nodes":[6],"name":"Scene"}],"textures":[{"extensions":{"MSFT_texture_dds":{"source":0}}},{"extensions":{"MSFT_texture_dds":{"source":1}}}],"buffers":[{"byteLength":8424,"uri":"TFS_Dash-8-400_LOD4.bin"}],"images":[{"uri":"TFS_DASH8_Q400_M.PNG.DDS","name":"tfs_dash8_q400_m","extras":"ASOBO_image_converted_meta"},{"uri":"TFS_DASH8_Q400_T.PNG.DDS","name":"tfs_dash8_q400_t","extras":"ASOBO_image_converted_meta"}]}
