{"accessors":[{"bufferView":0,"componentType":5126,"count":2,"min":[0.0],"max":[100.0],"type":"SCALAR"},{"bufferView":1,"componentType":5126,"count":2,"type":"VEC3"},{"bufferView":0,"byteOffset":8,"componentType":5126,"count":2,"min":[0.0],"max":[100.0],"type":"SCALAR"},{"bufferView":2,"componentType":5126,"count":2,"type":"VEC4"},{"bufferView":0,"byteOffset":16,"componentType":5126,"count":2,"min":[0.0],"max":[100.0],"type":"SCALAR"},{"bufferView":1,"byteOffset":24,"componentType":5126,"count":2,"type":"VEC3"},{"bufferView":0,"byteOffset":24,"componentType":5126,"count":2,"min":[0.0],"max":[100.0],"type":"SCALAR"},{"bufferView":2,"byteOffset":32,"componentType":5126,"count":2,"type":"VEC4"},{"bufferView":0,"byteOffset":32,"componentType":5126,"count":2,"min":[0.0],"max":[100.0],"type":"SCALAR"},{"bufferView":1,"byteOffset":48,"componentType":5126,"count":2,"type":"VEC3"},{"bufferView":0,"byteOffset":40,"componentType":5126,"count":2,"min":[0.0],"max":[100.0],"type":"SCALAR"},{"bufferView":2,"byteOffset":64,"componentType":5126,"count":2,"type":"VEC4"},{"bufferView":0,"byteOffset":48,"componentType":5126,"count":2,"min":[0.0],"max":[100.0],"type":"SCALAR"},{"bufferView":1,"byteOffset":72,"componentType":5126,"count":2,"type":"VEC3"},{"bufferView":0,"byteOffset":56,"componentType":5126,"count":2,"min":[0.0],"max":[100.0],"type":"SCALAR"},{"bufferView":2,"byteOffset":96,"componentType":5126,"count":2,"type":"VEC4"},{"bufferView":0,"byteOffset":64,"componentType":5126,"count":2,"min":[0.0],"max":[100.0],"type":"SCALAR"},{"bufferView":1,"byteOffset":96,"componentType":5126,"count":2,"type":"VEC3"},{"bufferView":0,"byteOffset":72,"componentType":5126,"count":2,"min":[0.0],"max":[100.0],"type":"SCALAR"},{"bufferView":2,"byteOffset":128,"componentType":5126,"count":2,"type":"VEC4"},{"bufferView":0,"byteOffset":80,"componentType":5126,"count":2,"min":[0.0],"max":[100.0],"type":"SCALAR"},{"bufferView":1,"byteOffset":120,"componentType":5126,"count":2,"type":"VEC3"},{"bufferView":0,"byteOffset":88,"componentType":5126,"count":2,"min":[0.0],"max":[100.0],"type":"SCALAR"},{"bufferView":2,"byteOffset":160,"componentType":5126,"count":2,"type":"VEC4"},{"bufferView":0,"byteOffset":96,"componentType":5126,"count":2,"min":[0.0],"max":[100.0],"type":"SCALAR"},{"bufferView":1,"byteOffset":144,"componentType":5126,"count":2,"type":"VEC3"},{"bufferView":0,"byteOffset":104,"componentType":5126,"count":2,"min":[0.0],"max":[100.0],"type":"SCALAR"},{"bufferView":2,"byteOffset":192,"componentType":5126,"count":2,"type":"VEC4"},{"bufferView":0,"byteOffset":112,"componentType":5126,"count":2,"min":[0.0],"max":[100.0],"type":"SCALAR"},{"bufferView":1,"byteOffset":168,"componentType":5126,"count":2,"type":"VEC3"},{"bufferView":0,"byteOffset":120,"componentType":5126,"count":2,"min":[0.0],"max":[100.0],"type":"SCALAR"},{"bufferView":2,"byteOffset":224,"componentType":5126,"count":2,"type":"VEC4"},{"bufferView":0,"byteOffset":128,"componentType":5126,"count":4,"min":[0.0],"max":[200.0],"type":"SCALAR"},{"bufferView":2,"byteOffset":256,"componentType":5126,"count":4,"type":"VEC4"},{"bufferView":3,"componentType":5126,"count":380,"min":[-17.114919662475587,-2.760159969329834,-21.145999908447267],"max":[17.114919662475587,8.408300399780274,16.51095962524414],"type":"VEC3","name":"part000_vertices#0_POSITION"},{"bufferView":3,"byteOffset":12,"componentType":5120,"count":380,"type":"VEC4","name":"part000_vertices#0_TANGENT"},{"bufferView":3,"byteOffset":16,"componentType":5120,"count":380,"type":"VEC4","name":"part000_vertices#0_NORMAL"},{"bufferView":3,"byteOffset":20,"componentType":5122,"count":380,"type":"VEC2","name":"part000_vertices#0_TEXCOORD_0"},{"bufferView":3,"byteOffset":24,"componentType":5122,"count":380,"type":"VEC2","name":"part000_vertices#0_TEXCOORD_1"},{"bufferView":3,"byteOffset":28,"componentType":5123,"count":380,"type":"VEC4","name":"part000_vertices#0_COLOR_0"},{"bufferView":4,"componentType":5123,"count":414,"type":"SCALAR","name":"part000_indices#0"}],"animations":[{"name":"custom_anim_SIM_ON_GROUND_09","channels":[{"sampler":0,"target":{"node":18,"path":"translation"}},{"sampler":1,"target":{"node":18,"path":"rotation"}},{"sampler":2,"target":{"node":20,"path":"translation"}},{"sampler":3,"target":{"node":20,"path":"rotation"}},{"sampler":4,"target":{"node":23,"path":"translation"}},{"sampler":5,"target":{"node":23,"path":"rotation"}},{"sampler":6,"target":{"node":26,"path":"translation"}},{"sampler":7,"target":{"node":26,"path":"rotation"}},{"sampler":8,"target":{"node":29,"path":"translation"}},{"sampler":9,"target":{"node":29,"path":"rotation"}},{"sampler":10,"target":{"node":32,"path":"translation"}},{"sampler":11,"target":{"node":32,"path":"rotation"}},{"sampler":12,"target":{"node":40,"path":"translation"}},{"sampler":13,"target":{"node":40,"path":"rotation"}},{"sampler":14,"target":{"node":43,"path":"translation"}},{"sampler":15,"target":{"node":43,"path":"rotation"}}],"samplers":[{"input":0,"output":1,"interpolation":"LINEAR"},{"input":2,"output":3,"interpolation":"LINEAR"},{"input":4,"output":5,"interpolation":"LINEAR"},{"input":6,"output":7,"interpolation":"LINEAR"},{"input":8,"output":9,"interpolation":"LINEAR"},{"input":10,"output":11,"interpolation":"LINEAR"},{"input":12,"output":13,"interpolation":"LINEAR"},{"input":14,"output":15,"interpolation":"LINEAR"},{"input":16,"output":17,"interpolation":"LINEAR"},{"input":18,"output":19,"interpolation":"LINEAR"},{"input":20,"output":21,"interpolation":"LINEAR"},{"input":22,"output":23,"interpolation":"LINEAR"},{"input":24,"output":25,"interpolation":"LINEAR"},{"input":26,"output":27,"interpolation":"LINEAR"},{"input":28,"output":29,"interpolation":"LINEAR"},{"input":30,"output":31,"interpolation":"LINEAR"}]},{"name":"c_gear","channels":[{"sampler":0,"target":{"node":45,"path":"rotation"}}],"samplers":[{"input":32,"output":33,"interpolation":"LINEAR"}]}],"asset":{"generator":"ModelConverterX","version":"2.0","extensions":{"ASOBO_asset_optimized":{"BoundingBoxMax":[17.114919662475587,8.408300399780274,16.51095962524414],"BoundingBoxMin":[-17.114919662475587,-2.760159969329834,-21.145999908447267],"MajorVersion":4,"MinorVersion":2}}},"bufferViews":[{"buffer":0,"byteLength":144,"byteStride":4},{"buffer":0,"byteLength":192,"byteStride":12,"byteOffset":144},{"buffer":0,"byteLength":320,"byteStride":16,"byteOffset":336},{"buffer":0,"byteLength":13680,"byteStride":36,"byteOffset":656,"target":34962,"name":"BufferViewVertexND"},{"buffer":0,"byteLength":828,"byteOffset":14336,"target":34963,"name":"BufferViewIndex"}],"extensionsUsed":["MSFT_texture_dds","ASOBO_asset_optimized"],"extensionsRequired":["MSFT_texture_dds"],"materials":[{"name":"glTF_Material","pbrMetallicRoughness":{"baseColorFactor":[0.5879999995231628,0.5879999995231628,0.5879999995231628,1.0],"metallicFactor":0.0,"baseColorTexture":{"index":0}}}],"meshes":[{"primitives":[{"attributes":{"COLOR_0":39,"NORMAL":36,"POSITION":34,"TANGENT":35,"TEXCOORD_0":37,"TEXCOORD_1":38},"indices":40,"material":0,"mode":4,"extras":{"ASOBO_primitive":{"PrimitiveCount":138,"VertexType":"VTX","VertexVersion":2}}}],"name":"part000"}],"nodes":[{"name":"node0","children":[1,2,3,4,5,6,7,8]},{"mesh":0,"name":"node1"},{"translation":[2.1423230171203615,-1.1279770135879517,0.02096600085496929],"rotation":[0.7071067811865476,-4.329637285359677e-17,4.329637285359677e-17,0.7071067811865475],"scale":[1.0,1.0,1.0],"name":"node2"},{"translation":[-2.1419999599456789,-1.1279770135879517,0.02096600085496876],"rotation":[0.7071067811865476,-4.329637285359677e-17,4.329637285359677e-17,0.7071067811865475],"scale":[1.0,1.0,1.0],"name":"node3"},{"translation":[16.826285859674554,0.8717928558158185,-4.143455864164885],"rotation":[-2.1253624472816879e-9,-1.036254048659565e-7,-1.3431245357556185e-7,0.9999999999999856],"scale":[1.0,1.0,1.0],"name":"node4"},{"translation":[16.910908924784495,0.875208993228705,-4.259766633224778],"rotation":[-2.1253624472816879e-9,-1.036254048659565e-7,-1.3431245357556185e-7,0.9999999999999856],"scale":[1.0,1.0,1.0],"name":"node5"},{"translation":[-16.826295844790914,0.871795473930342,-4.143473217264633],"rotation":[-3.4014622048107619e-8,-5.995123066733073e-8,-1.7505268171032637e-7,0.9999999999999824],"scale":[1.0,1.0,1.0],"name":"node6"},{"translation":[-16.910918765709235,0.8752116023103416,-4.2597856350574549],"rotation":[-3.4014622048107619e-8,-5.995123066733073e-8,-1.7505268171032637e-7,0.9999999999999824],"scale":[1.0,1.0,1.0],"name":"node7"},{"translation":[0.0,0.0,0.0],"rotation":[0.7071067811865476,0.0,0.0,-0.7071067811865475],"scale":[1.0,1.0,1.0],"name":"node8","children":[9]},{"translation":[0.0,0.0,0.0],"rotation":[0.0,0.0,1.0,6.123031769111886e-17],"scale":[1.0,1.0,1.0],"name":"node9","children":[10,44]},{"translation":[0.0,0.0,-0.867946982383728],"rotation":[0.0,0.0,0.0,1.0],"scale":[1.0,1.0,1.0],"name":"node10","children":[11,16,27,33,38]},{"translation":[0.0,0.0,0.867946982383728],"rotation":[0.0,0.0,0.0,1.0],"scale":[1.0,1.0,1.0],"name":"node11","children":[12,14]},{"translation":[-5.852952003479004,1.166031002998352,0.07490400224924088],"rotation":[0.034592910121518587,0.008516963548154819,0.9703865899386531,-0.23891558753768214],"scale":[1.0,1.0,1.0],"name":"node12","children":[13]},{"translation":[8.46947372622212,0.000011000003046382958,-0.0000010000003646871549],"rotation":[-0.00017100044213923105,-0.0002690008091371337,-0.002386006958444467,0.9999971026799069],"scale":[1.0,1.0,1.0],"name":"node13"},{"translation":[5.852952003479004,1.1660330295562745,0.07490400224924088],"rotation":[0.008516896345533732,0.03459261301685535,0.23890931175794098,-0.970388146236676],"scale":[1.0,1.0,1.0],"name":"node14","children":[15]},{"translation":[8.469248410656708,0.000001000000440231102,0.0],"rotation":[0.00016975045148551987,-0.00027675072686408013,0.002366506066113275,0.9999971471173597],"scale":[1.0,1.0,1.0],"name":"node15"},{"translation":[-5.852952003479004,1.1660319566726685,0.9428499937057496],"rotation":[0.0345929004118522,0.0085169628435462,0.9703866703942595,-0.2389152621875792],"scale":[1.0,1.0,1.0],"name":"node16","children":[17,19,21,24]},{"translation":[11.814513268181289,0.0002350000627667397,0.0013110004522979384],"rotation":[0.5001164827532207,-0.5000794901752945,-0.4998859968670554,0.4999179905952526],"scale":[1.0,1.0,1.0],"name":"node17","children":[18]},{"name":"node17_anim_custom_anim_SIM_ON_GROUND_09"},{"translation":[11.814513268181289,0.00023300006155140105,0.0013130004682613544],"rotation":[0.5001164827532207,-0.5000794901752945,-0.4998859968670554,0.4999179905952526],"scale":[1.0,1.0,1.0],"name":"node18","children":[20]},{"name":"node18_anim_custom_anim_SIM_ON_GROUND_09"},{"translation":[8.469470211972212,0.000013000003352226692,-0.0000010000003646871549],"rotation":[-0.00017100044213923105,-0.0002690008091371337,-0.002386006958444467,0.9999971026799069],"scale":[1.0,1.0,1.0],"name":"node19","children":[22]},{"translation":[3.3450103207568016,0.01618101068477744,-0.0004850002733999862],"rotation":[0.5012590492963207,-0.498665192399643,-0.49891209820336537,0.5011577692243144],"scale":[1.0,1.0,1.0],"name":"node20","children":[23]},{"name":"node20_anim_custom_anim_SIM_ON_GROUND_09"},{"translation":[8.469470211972212,0.000012000003654052298,-0.0000010000003646871549],"rotation":[-0.00017100044213923105,-0.0002690008091371337,-0.002386006958444467,0.9999971026799069],"scale":[1.0,1.0,1.0],"name":"node21","children":[25]},{"translation":[3.345005313967651,0.01618101068477744,-0.00048300028613439583],"rotation":[0.5012590492963207,-0.498665192399643,-0.49891209820336537,0.5011577692243144],"scale":[1.0,1.0,1.0],"name":"node22","children":[26]},{"name":"node22_anim_custom_anim_SIM_ON_GROUND_09"},{"translation":[5.852952003479004,1.1660319566726685,0.9428499937057496],"rotation":[0.008516853618407093,0.03459258148183371,0.2389095277508175,-0.9703880945584333],"scale":[1.0,1.0,1.0],"name":"node23","children":[28,30]},{"translation":[11.81471987245957,-0.00026700011401741073,0.0013170004565585929],"rotation":[0.4999203568127251,0.4998823643103966,0.5000768733061821,0.5001203649922669],"scale":[1.0,1.0,1.0],"name":"node24","children":[29]},{"name":"node24_anim_custom_anim_SIM_ON_GROUND_09"},{"translation":[8.469255245705665,0.000001000000440231102,0.0],"rotation":[0.00016950044894313205,-0.00027675072689933215,0.0023665060660121807,0.999997147159767],"scale":[1.0,1.0,1.0],"name":"node25","children":[31]},{"translation":[3.345427097915454,-0.016105010779986965,-0.000532000266201656],"rotation":[0.5011559078965897,0.4989212471649943,0.49866835537334,0.5012486573118375],"scale":[1.0,1.0,1.0],"name":"node26","children":[32]},{"name":"node26_anim_custom_anim_SIM_ON_GROUND_09"},{"translation":[0.0,0.0,0.867946982383728],"rotation":[0.0,0.0,0.0,1.0],"scale":[1.0,1.0,1.0],"name":"node27","children":[34,36]},{"translation":[5.852952003479004,1.1660330295562745,0.07490400224924088],"rotation":[0.008516896345533732,0.03459261301685535,0.23890931175794098,-0.970388146236676],"scale":[1.0,1.0,1.0],"name":"node28","children":[35]},{"translation":[8.469246503309014,0.000001000000440231102,0.0],"rotation":[0.00016975045148551987,-0.00027675072686408013,0.002366506066113275,0.9999971471173597],"scale":[1.0,1.0,1.0],"name":"node29"},{"translation":[-5.852952003479004,1.166031002998352,0.07490400224924088],"rotation":[0.034592910121518587,0.008516963548154819,0.9703865899386531,-0.23891558753768214],"scale":[1.0,1.0,1.0],"name":"node30","children":[37]},{"translation":[8.46947372622212,0.000011000003046382958,0.0],"rotation":[-0.00017100044213923105,-0.0002690008091371337,-0.002386006958444467,0.9999971026799069],"scale":[1.0,1.0,1.0],"name":"node31"},{"translation":[5.852952003479004,1.1660319566726685,0.9428499937057496],"rotation":[0.008516833707582009,0.0345926295215249,0.23890919299122249,-0.9703881754384],"scale":[1.0,1.0,1.0],"name":"node32","children":[39,41]},{"translation":[11.814724904975128,-0.0002680001220746633,0.001318000464507173],"rotation":[0.4999203568127251,0.4998823643103966,0.5000768733061821,0.5001203649922669],"scale":[1.0,1.0,1.0],"name":"node33","children":[40]},{"name":"node33_anim_custom_anim_SIM_ON_GROUND_09"},{"translation":[8.469262667909275,0.000001000000440231102,0.0],"rotation":[0.00016950044894313205,-0.00027675072689933215,0.0023665060660121807,0.999997147159767],"scale":[1.0,1.0,1.0],"name":"node34","children":[42]},{"translation":[3.345429476585227,-0.01610601102110599,-0.0005310003162500626],"rotation":[0.5011559078965897,0.4989212471649943,0.49866835537334,0.5012486573118375],"scale":[1.0,1.0,1.0],"name":"node35","children":[43]},{"name":"node35_anim_custom_anim_SIM_ON_GROUND_09"},{"translation":[0.0,11.218999862670899,-1.4777259826660157],"rotation":[0.1088670655726336,0.0,0.0,0.9940563173349907],"scale":[1.0,1.0,1.0],"name":"node36","children":[45]},{"name":"node36_anim_c_gear","children":[46,47]},{"translation":[-0.2142750024795532,0.20825101727591764,0.1228880093379434],"rotation":[0.0,0.746057297891791,0.6658817524624019,0.0],"scale":[1.0,1.0,1.0],"name":"node37"},{"translation":[0.21819500625133513,0.19571702367415576,0.12431601008912126],"rotation":[0.0,0.8410389847757434,0.5409745151921549,0.0],"scale":[1.0,1.0,1.0],"name":"node38"}],"scene":0,"scenes":[{"nodes":[0]}],"textures":[{"extensions":{"MSFT_texture_dds":{"source":0}}}],"buffers":[{"byteLength":15164,"uri":"FAIB_A320_CFM_LOD4.bin"}],"images":[{"uri":"FAIB_A320_CFM_T.PNG.DDS","extras":"ASOBO_image_converted_meta"}]}
