{"accessors":[{"bufferView":0,"componentType":5126,"count":414,"min":[-0.6332361102104187,-0.5369387269020081,-1.484684705734253],"max":[0.6332360506057739,0.5369387269020081,1.4846845865249634],"type":"VEC3","name":"Occluder_vertices#0_POSITION"},{"bufferView":0,"byteOffset":12,"componentType":5120,"count":414,"type":"VEC4","name":"Occluder_vertices#0_TANGENT"},{"bufferView":0,"byteOffset":16,"componentType":5120,"count":414,"type":"VEC4","name":"Occluder_vertices#0_NORMAL"},{"bufferView":0,"byteOffset":20,"componentType":5122,"count":414,"type":"VEC2","name":"Occluder_vertices#0_TEXCOORD_0"},{"bufferView":0,"byteOffset":24,"componentType":5122,"count":414,"type":"VEC2","name":"Occluder_vertices#0_TEXCOORD_1"},{"bufferView":0,"byteOffset":28,"componentType":5123,"count":414,"type":"VEC4","name":"Occluder_vertices#0_COLOR_0"},{"bufferView":1,"componentType":5123,"count":1464,"type":"SCALAR","name":"Occluder_indices#0"},{"bufferView":0,"byteOffset":14904,"componentType":5126,"count":4,"min":[-0.10697222501039505,-0.07951286435127258,0.0022084731608629228],"max":[0.10373081266880036,0.08214080333709717,0.0022085625678300859],"type":"VEC3","name":"x4_AS1000_PFD_Screen_1_vertices#0_POSITION"},{"bufferView":0,"byteOffset":14916,"componentType":5120,"count":4,"type":"VEC4","name":"x4_AS1000_PFD_Screen_1_vertices#0_TANGENT"},{"bufferView":0,"byteOffset":14920,"componentType":5120,"count":4,"type":"VEC4","name":"x4_AS1000_PFD_Screen_1_vertices#0_NORMAL"},{"bufferView":0,"byteOffset":14924,"componentType":5122,"count":4,"type":"VEC2","name":"x4_AS1000_PFD_Screen_1_vertices#0_TEXCOORD_0"},{"bufferView":0,"byteOffset":14928,"componentType":5122,"count":4,"type":"VEC2","name":"x4_AS1000_PFD_Screen_1_vertices#0_TEXCOORD_1"},{"bufferView":0,"byteOffset":14932,"componentType":5123,"count":4,"type":"VEC4","name":"x4_AS1000_PFD_Screen_1_vertices#0_COLOR_0"},{"bufferView":1,"byteOffset":2928,"componentType":5123,"count":6,"type":"SCALAR","name":"x4_AS1000_PFD_Screen_1_indices#0"},{"bufferView":0,"byteOffset":15048,"componentType":5126,"count":4,"min":[-0.10697222501039505,-0.07951286435127258,0.0022084731608629228],"max":[0.10373081266880036,0.08214080333709717,0.0022085625678300859],"type":"VEC3","name":"x4_AS1000_PFD_Screen_2_vertices#0_POSITION"},{"bufferView":0,"byteOffset":15060,"componentType":5120,"count":4,"type":"VEC4","name":"x4_AS1000_PFD_Screen_2_vertices#0_TANGENT"},{"bufferView":0,"byteOffset":15064,"componentType":5120,"count":4,"type":"VEC4","name":"x4_AS1000_PFD_Screen_2_vertices#0_NORMAL"},{"bufferView":0,"byteOffset":15068,"componentType":5122,"count":4,"type":"VEC2","name":"x4_AS1000_PFD_Screen_2_vertices#0_TEXCOORD_0"},{"bufferView":0,"byteOffset":15072,"componentType":5122,"count":4,"type":"VEC2","name":"x4_AS1000_PFD_Screen_2_vertices#0_TEXCOORD_1"},{"bufferView":0,"byteOffset":15076,"componentType":5123,"count":4,"type":"VEC4","name":"x4_AS1000_PFD_Screen_2_vertices#0_COLOR_0"},{"bufferView":1,"byteOffset":2940,"componentType":5123,"count":6,"type":"SCALAR","name":"x4_AS1000_PFD_Screen_2_indices#0"},{"bufferView":0,"byteOffset":15192,"componentType":5126,"count":3,"min":[-0.004624605178833008,-0.0001620650291442871,-0.007831573486328125],"max":[0.00427556037902832,0.0006809234619140625,0.006639301776885986],"type":"VEC3","name":"x4_LIGHTING_Cabin_2_Emissive_vertices#0_POSITION"},{"bufferView":0,"byteOffset":15204,"componentType":5120,"count":3,"type":"VEC4","name":"x4_LIGHTING_Cabin_2_Emissive_vertices#0_TANGENT"},{"bufferView":0,"byteOffset":15208,"componentType":5120,"count":3,"type":"VEC4","name":"x4_LIGHTING_Cabin_2_Emissive_vertices#0_NORMAL"},{"bufferView":0,"byteOffset":15212,"componentType":5122,"count":3,"type":"VEC2","name":"x4_LIGHTING_Cabin_2_Emissive_vertices#0_TEXCOORD_0"},{"bufferView":0,"byteOffset":15216,"componentType":5122,"count":3,"type":"VEC2","name":"x4_LIGHTING_Cabin_2_Emissive_vertices#0_TEXCOORD_1"},{"bufferView":0,"byteOffset":15220,"componentType":5123,"count":3,"type":"VEC4","name":"x4_LIGHTING_Cabin_2_Emissive_vertices#0_COLOR_0"},{"bufferView":1,"byteOffset":2952,"componentType":5123,"count":3,"type":"SCALAR","name":"x4_LIGHTING_Cabin_2_Emissive_indices#0"},{"bufferView":0,"byteOffset":15300,"componentType":5126,"count":3,"min":[-0.006776690483093262,-0.0004513859748840332,-0.00783151388168335],"max":[0.00427556037902832,0.0006809830665588379,0.006639301776885986],"type":"VEC3","name":"x4_LIGHTING_Cabin_1_Emissive_vertices#0_POSITION"},{"bufferView":0,"byteOffset":15312,"componentType":5120,"count":3,"type":"VEC4","name":"x4_LIGHTING_Cabin_1_Emissive_vertices#0_TANGENT"},{"bufferView":0,"byteOffset":15316,"componentType":5120,"count":3,"type":"VEC4","name":"x4_LIGHTING_Cabin_1_Emissive_vertices#0_NORMAL"},{"bufferView":0,"byteOffset":15320,"componentType":5122,"count":3,"type":"VEC2","name":"x4_LIGHTING_Cabin_1_Emissive_vertices#0_TEXCOORD_0"},{"bufferView":0,"byteOffset":15324,"componentType":5122,"count":3,"type":"VEC2","name":"x4_LIGHTING_Cabin_1_Emissive_vertices#0_TEXCOORD_1"},{"bufferView":0,"byteOffset":15328,"componentType":5123,"count":3,"type":"VEC4","name":"x4_LIGHTING_Cabin_1_Emissive_vertices#0_COLOR_0"},{"bufferView":1,"byteOffset":2958,"componentType":5123,"count":3,"type":"SCALAR","name":"x4_LIGHTING_Cabin_1_Emissive_indices#0"},{"bufferView":0,"byteOffset":15408,"componentType":5126,"count":3,"min":[-0.007896959781646729,-0.000677645206451416,-0.007831573486328125],"max":[0.004275679588317871,0.0006810426712036133,0.006639242172241211],"type":"VEC3","name":"x4_LIGHTING_Cabin_3_Emissive_vertices#0_POSITION"},{"bufferView":0,"byteOffset":15420,"componentType":5120,"count":3,"type":"VEC4","name":"x4_LIGHTING_Cabin_3_Emissive_vertices#0_TANGENT"},{"bufferView":0,"byteOffset":15424,"componentType":5120,"count":3,"type":"VEC4","name":"x4_LIGHTING_Cabin_3_Emissive_vertices#0_NORMAL"},{"bufferView":0,"byteOffset":15428,"componentType":5122,"count":3,"type":"VEC2","name":"x4_LIGHTING_Cabin_3_Emissive_vertices#0_TEXCOORD_0"},{"bufferView":0,"byteOffset":15432,"componentType":5122,"count":3,"type":"VEC2","name":"x4_LIGHTING_Cabin_3_Emissive_vertices#0_TEXCOORD_1"},{"bufferView":0,"byteOffset":15436,"componentType":5123,"count":3,"type":"VEC4","name":"x4_LIGHTING_Cabin_3_Emissive_vertices#0_COLOR_0"},{"bufferView":1,"byteOffset":2964,"componentType":5123,"count":3,"type":"SCALAR","name":"x4_LIGHTING_Cabin_3_Emissive_indices#0"},{"bufferView":0,"byteOffset":15516,"componentType":5126,"count":3677,"min":[-2.7785987854003908,-0.6111195683479309,-0.385901540517807],"max":[0.13620007038116456,0.6137803792953491,0.7699247598648071],"type":"VEC3","name":"x4_Cockpit_vertices#0_POSITION"},{"bufferView":0,"byteOffset":15528,"componentType":5120,"count":3677,"type":"VEC4","name":"x4_Cockpit_vertices#0_TANGENT"},{"bufferView":0,"byteOffset":15532,"componentType":5120,"count":3677,"type":"VEC4","name":"x4_Cockpit_vertices#0_NORMAL"},{"bufferView":0,"byteOffset":15536,"componentType":5122,"count":3677,"type":"VEC2","name":"x4_Cockpit_vertices#0_TEXCOORD_0"},{"bufferView":0,"byteOffset":15540,"componentType":5122,"count":3677,"type":"VEC2","name":"x4_Cockpit_vertices#0_TEXCOORD_1"},{"bufferView":0,"byteOffset":15544,"componentType":5123,"count":3677,"type":"VEC4","name":"x4_Cockpit_vertices#0_COLOR_0"},{"bufferView":1,"byteOffset":2970,"componentType":5123,"count":11520,"type":"SCALAR","name":"x4_Cockpit_indices#0"}],"asset":{"generator":"babylon.js glTF exporter for 3dsmax 2019 v1.0.7954.30439","version":"2.0","extensions":{"ASOBO_asset_optimized":{"BoundingBoxMax":[0.6332360506057739,0.6137803792953491,1.4846845865249634],"BoundingBoxMin":[-2.7785987854003908,-0.6111195683479309,-1.484684705734253],"MajorVersion":4,"MinorVersion":4,"UseCheckerboardMaterialForMissingTextures":true},"ASOBO_normal_map_convention":{"tangent_space_convention":"DirectX"}}},"bufferViews":[{"buffer":0,"byteLength":147888,"byteStride":36,"target":34962,"name":"BufferViewVertexND"},{"buffer":0,"byteLength":26010,"byteOffset":147888,"target":34963,"name":"BufferViewIndex"}],"extensionsRequired":["MSFT_texture_dds"],"materials":[{"name":"Occluder","pbrMetallicRoughness":{"baseColorFactor":[0.0,0.5755396,0.0,0.3]},"extensions":{"ASOBO_material_environment_occluder":{}}},{"name":"$AS1000_PFD_1","emissiveFactor":[1.0,1.0,1.0],"pbrMetallicRoughness":{"baseColorFactor":[0.0,0.0,0.0,1.0]}},{"name":"$AS1000_PFD_2","emissiveFactor":[1.0,1.0,1.0],"pbrMetallicRoughness":{"baseColorFactor":[0.0,0.0,0.0,1.0]}},{"name":"LIGHTS","pbrMetallicRoughness":{"metallicFactor":0.0,"roughnessFactor":0.2}},{"name":"Generic_LOD5","occlusionTexture":{"index":1},"pbrMetallicRoughness":{"baseColorTexture":{"index":0},"metallicRoughnessTexture":{"index":1}}}],"meshes":[{"primitives":[{"attributes":{"COLOR_0":5,"NORMAL":2,"POSITION":0,"TANGENT":1,"TEXCOORD_0":3,"TEXCOORD_1":4},"indices":6,"material":0,"mode":4,"extras":{"ASOBO_primitive":{"PrimitiveCount":488,"VertexType":"VTX","VertexVersion":2}}}],"name":"Occluder"},{"primitives":[{"attributes":{"COLOR_0":12,"NORMAL":9,"POSITION":7,"TANGENT":8,"TEXCOORD_0":10,"TEXCOORD_1":11},"indices":13,"material":1,"mode":4,"extras":{"ASOBO_primitive":{"PrimitiveCount":2,"VertexType":"VTX","VertexVersion":2}}}],"name":"x4_AS1000_PFD_Screen_1"},{"primitives":[{"attributes":{"COLOR_0":19,"NORMAL":16,"POSITION":14,"TANGENT":15,"TEXCOORD_0":17,"TEXCOORD_1":18},"indices":20,"material":2,"mode":4,"extras":{"ASOBO_primitive":{"PrimitiveCount":2,"VertexType":"VTX","VertexVersion":2}}}],"name":"x4_AS1000_PFD_Screen_2"},{"primitives":[{"attributes":{"COLOR_0":26,"NORMAL":23,"POSITION":21,"TANGENT":22,"TEXCOORD_0":24,"TEXCOORD_1":25},"indices":27,"material":3,"mode":4,"extras":{"ASOBO_primitive":{"PrimitiveCount":1,"VertexType":"VTX","VertexVersion":2}}}],"name":"x4_LIGHTING_Cabin_2_Emissive"},{"primitives":[{"attributes":{"COLOR_0":33,"NORMAL":30,"POSITION":28,"TANGENT":29,"TEXCOORD_0":31,"TEXCOORD_1":32},"indices":34,"material":3,"mode":4,"extras":{"ASOBO_primitive":{"PrimitiveCount":1,"VertexType":"VTX","VertexVersion":2}}}],"name":"x4_LIGHTING_Cabin_1_Emissive"},{"primitives":[{"attributes":{"COLOR_0":40,"NORMAL":37,"POSITION":35,"TANGENT":36,"TEXCOORD_0":38,"TEXCOORD_1":39},"indices":41,"material":3,"mode":4,"extras":{"ASOBO_primitive":{"PrimitiveCount":1,"VertexType":"VTX","VertexVersion":2}}}],"name":"x4_LIGHTING_Cabin_3_Emissive"},{"primitives":[{"attributes":{"COLOR_0":47,"NORMAL":44,"POSITION":42,"TANGENT":43,"TEXCOORD_0":45,"TEXCOORD_1":46},"indices":48,"material":4,"mode":4,"extras":{"ASOBO_primitive":{"PrimitiveCount":3840,"VertexType":"VTX","VertexVersion":2}}}],"name":"x4_Cockpit"}],"nodes":[{"translation":[0.05498992,0.214860544,0.5989411],"rotation":[0.07522289,0.0,0.0,0.9971668],"scale":[1.07732618,1.07732618,1.07732618],"name":"CONTAINER_AS1000_MID_1_1"},{"translation":[-0.103027344,0.3642769,0.5852051],"rotation":[0.0,-8.742278e-8,0.0,1.0],"name":"CONTAINER_Altimeter_MB_InHg_1_1"},{"translation":[-0.000094179064,0.359465122,0.5901497],"rotation":[0.0,-8.742278e-8,0.0,1.0],"scale":[1.05890536,1.05890536,1.05890536],"name":"CONTAINER_AttitudeIndicator_KnobPull_1_1"},{"translation":[-0.000094179064,0.359465122,0.5901497],"rotation":[0.0,-8.742278e-8,0.0,1.0],"scale":[1.05890536,1.05890536,1.05890536],"name":"CONTAINER_AttitudeIndicator_SlipIndicator_1_1"},{"translation":[0.0,0.227073729,-0.287603438],"mesh":0,"name":"Occluder"},{"translation":[-0.123282745,0.17388691,0.5921108],"rotation":[0.07522289,0.0,0.0,0.9971668],"scale":[1.07732618,1.07732618,1.07732618],"name":"CONTAINER_AS1000_PFD_WithAutopilot_1_1","children":[6,7,8,10]},{"name":"CONTAINER_AS1000_Frame_WithAutopilot_1_1"},{"name":"CONTAINER_AS1000_Autopilot_1_1"},{"name":"CONTAINER_AS1000_PFD_Common_1_1","children":[9]},{"translation":[-0.00436460972,0.0327133834,0.007773161],"rotation":[0.000376224634,-1.95154691e-11,-9.152147e-10,0.99999994],"scale":[1.0,0.99999994,0.99999994],"mesh":1,"name":"AS1000_PFD_Screen_1"},{"name":"CONTAINER_AS1000_AltitudeKnob_1_1"},{"translation":[0.24418178200000002,0.174050868,0.5918125],"rotation":[0.0748477057,0.0,0.0,0.997195],"scale":[1.075915,1.075915,1.075915],"name":"CONTAINER_AS1000_PFD_NoAutopilot_AltKnob_1_1","children":[12,13,14]},{"scale":[0.99999994,0.9999999,0.9999999],"name":"CONTAINER_AS1000_AltitudeKnob_1_2"},{"scale":[0.99999994,0.9999999,0.9999999],"name":"CONTAINER_AS1000_Frame_NoAutopilot_AltKnob_1_1"},{"scale":[0.99999994,0.9999999,0.9999999],"name":"CONTAINER_AS1000_PFD_Common_1_2","children":[15]},{"translation":[-0.00436460972,0.0327134132,0.00777310133],"rotation":[0.000376239623,-1.95154691e-11,-9.152147e-10,0.99999994],"scale":[0.99999994,0.9999997,0.9999997],"mesh":2,"name":"AS1000_PFD_Screen_2"},{"translation":[-0.0506171025,0.7008519,-0.2969664],"rotation":[0.0429323129,0.00771145942,-0.176621437,0.9833119],"scale":[1.00000036,1.00000012,1.00000024],"mesh":3,"name":"LIGHTING_Cabin_2_Emissive"},{"translation":[0.0665128455,0.700639367,-0.292958021],"rotation":[-0.0435836576,0.00176360854,0.0403929353,0.998231351],"scale":[0.9999999,1.0,1.0],"mesh":4,"name":"LIGHTING_Cabin_1_Emissive"},{"translation":[0.026251385,0.701533437,-0.5219335],"rotation":[0.17348291,0.007574425,0.0429567061,0.983870447],"scale":[0.99999994,1.0,1.0],"mesh":5,"name":"LIGHTING_Cabin_3_Emissive"},{"translation":[0.001380086,0.3189632,0.925718248],"rotation":[-0.51073873,0.5107387,-0.489025682,-0.489025444],"scale":[0.999999046,1.0,0.999998868],"mesh":6,"name":"Cockpit"},{"translation":[0.269868374,-0.1638031,-0.0444488525],"name":"PILOT_0"},{"translation":[-0.2712083,-0.1638031,-0.0444488525],"name":"PILOT_1"}],"scene":0,"scenes":[{"nodes":[0,1,2,3,4,5,11,16,17,18,19,20,21]}],"textures":[{"extensions":{"MSFT_texture_dds":{"source":0}}},{"extensions":{"MSFT_texture_dds":{"source":1}}}],"extensionsUsed":["ASOBO_normal_map_convention","ASOBO_material_environment_occluder","MSFT_texture_dds","ASOBO_asset_optimized"],"buffers":[{"byteLength":173898,"uri":"DA40NG_cockpit_LOD04.bin"}],"images":[{"uri":"ATLAS_ALBD.PNG.DDS","extras":"ASOBO_image_converted_meta"},{"uri":"ATLAS_COMP.PNG.DDS","extras":"ASOBO_image_converted_meta"}]}
