{"accessors":[{"bufferView":0,"componentType":5126,"count":3,"min":[-2.5399258136749269,-0.2776549756526947,0.00004993751645088196],"max":[5.8278961181640629,0.27765509486198428,0.00005000084638595581],"type":"VEC3","name":"x5_Cockpit_vertices#0_POSITION"},{"bufferView":0,"byteOffset":12,"componentType":5120,"count":3,"type":"VEC4","name":"x5_Cockpit_vertices#0_TANGENT"},{"bufferView":0,"byteOffset":16,"componentType":5120,"count":3,"type":"VEC4","name":"x5_Cockpit_vertices#0_NORMAL"},{"bufferView":0,"byteOffset":20,"componentType":5122,"count":3,"type":"VEC2","name":"x5_Cockpit_vertices#0_TEXCOORD_0"},{"bufferView":0,"byteOffset":24,"componentType":5122,"count":3,"type":"VEC2","name":"x5_Cockpit_vertices#0_TEXCOORD_1"},{"bufferView":0,"byteOffset":28,"componentType":5123,"count":3,"type":"VEC4","name":"x5_Cockpit_vertices#0_COLOR_0"},{"bufferView":1,"componentType":5123,"count":3,"type":"SCALAR","name":"x5_Cockpit_indices#0"}],"asset":{"generator":"babylon.js glTF exporter for 3dsmax 2019 v1.0.7954.30439","version":"2.0","extensions":{"ASOBO_asset_optimized":{"BoundingBoxMax":[5.8278961181640629,0.27765509486198428,0.00005000084638595581],"BoundingBoxMin":[-2.5399258136749269,-0.2776549756526947,0.00004993751645088196],"MajorVersion":4,"MinorVersion":4,"UseCheckerboardMaterialForMissingTextures":true},"ASOBO_normal_map_convention":{"tangent_space_convention":"DirectX"}}},"bufferViews":[{"buffer":0,"byteLength":108,"byteStride":36,"target":34962,"name":"BufferViewVertexND"},{"buffer":0,"byteLength":6,"byteOffset":108,"target":34963,"name":"BufferViewIndex"}],"materials":[{"name":"Invisible_LOD5","pbrMetallicRoughness":{"baseColorFactor":[1.0,0.0,0.0,0.7]},"extensions":{"ASOBO_material_invisible":{},"ASOBO_tags":{"tags":["Collision"]}}}],"meshes":[{"primitives":[{"attributes":{"COLOR_0":5,"NORMAL":2,"POSITION":0,"TANGENT":1,"TEXCOORD_0":3,"TEXCOORD_1":4},"indices":6,"material":0,"mode":4,"extras":{"ASOBO_primitive":{"PrimitiveCount":1,"VertexType":"VTX","VertexVersion":2}}}],"name":"x5_Cockpit"}],"nodes":[{"translation":[0.0,0.04678551,-0.160743713],"rotation":[-0.5,-0.5,0.5,-0.5],"mesh":0,"name":"Cockpit"}],"scene":0,"scenes":[{"nodes":[0]}],"extensionsUsed":["ASOBO_normal_map_convention","ASOBO_tags","ASOBO_material_invisible","ASOBO_asset_optimized"],"buffers":[{"byteLength":114,"uri":"DA40NG_cockpit_LOD05.bin"}]}
