{"accessors":[{"bufferView":0,"componentType":5126,"count":365,"min":[-4.044848442077637,-5.8661112785339359,-0.9821432828903198],"max":[4.458707332611084,5.866109848022461,1.428955078125],"type":"VEC3","name":"x5_FUSELAGE_vertices#0_POSITION"},{"bufferView":0,"byteOffset":12,"componentType":5120,"count":365,"type":"VEC4","name":"x5_FUSELAGE_vertices#0_TANGENT"},{"bufferView":0,"byteOffset":16,"componentType":5120,"count":365,"type":"VEC4","name":"x5_FUSELAGE_vertices#0_NORMAL"},{"bufferView":0,"byteOffset":20,"componentType":5122,"count":365,"type":"VEC2","name":"x5_FUSELAGE_vertices#0_TEXCOORD_0"},{"bufferView":0,"byteOffset":24,"componentType":5122,"count":365,"type":"VEC2","name":"x5_FUSELAGE_vertices#0_TEXCOORD_1"},{"bufferView":0,"byteOffset":28,"componentType":5123,"count":365,"type":"VEC4","name":"x5_FUSELAGE_vertices#0_COLOR_0"},{"bufferView":1,"componentType":5123,"count":900,"type":"SCALAR","name":"x5_FUSELAGE_indices#0"}],"asset":{"generator":"babylon.js glTF exporter for 3dsmax 2019 v1.0.7823.24930","version":"2.0","extensions":{"ASOBO_asset_optimized":{"BoundingBoxMax":[4.458707332611084,5.866109848022461,1.428955078125],"BoundingBoxMin":[-4.044848442077637,-5.8661112785339359,-0.9821432828903198],"MajorVersion":4,"MinorVersion":4,"UseCheckerboardMaterialForMissingTextures":true},"ASOBO_normal_map_convention":{"tangent_space_convention":"DirectX"}}},"bufferViews":[{"buffer":0,"byteLength":13140,"byteStride":36,"target":34962,"name":"BufferViewVertexND"},{"buffer":0,"byteLength":1800,"byteOffset":13140,"target":34963,"name":"BufferViewIndex"}],"extensionsRequired":["MSFT_texture_dds"],"materials":[{"name":"Generic_LOD5","occlusionTexture":{"index":1},"pbrMetallicRoughness":{"baseColorTexture":{"index":0},"metallicRoughnessTexture":{"index":1}}}],"meshes":[{"primitives":[{"attributes":{"COLOR_0":5,"NORMAL":2,"POSITION":0,"TANGENT":1,"TEXCOORD_0":3,"TEXCOORD_1":4},"indices":6,"material":0,"mode":4,"extras":{"ASOBO_primitive":{"PrimitiveCount":300,"VertexType":"VTX","VertexVersion":2}}}],"name":"x5_FUSELAGE"}],"nodes":[{"translation":[0.0,0.346740067,-1.99519539],"rotation":[0.49999997,-0.50000006,0.5000001,0.49999997],"mesh":0,"extensions":{"ASOBO_unique_id":{"id":"x5_FUSELAGE_4576"}},"name":"FUSELAGE"}],"scene":0,"scenes":[{"nodes":[0]}],"textures":[{"extensions":{"MSFT_texture_dds":{"source":0}}},{"extensions":{"MSFT_texture_dds":{"source":1}}}],"extensionsUsed":["ASOBO_normal_map_convention","ASOBO_unique_id","MSFT_texture_dds","ASOBO_asset_optimized"],"buffers":[{"byteLength":14940,"uri":"DA40_LOD05.bin"}],"images":[{"uri":"DA40_AIRFRAME_LOD4_ALBD.PNG.DDS","extras":"ASOBO_image_converted_meta"},{"uri":"DA40_AIRFRAME_LOD4_COMP.PNG.DDS","extras":"ASOBO_image_converted_meta"}]}
