{"accessors":[{"bufferView":0,"componentType":5126,"count":132,"min":[-4.268803596496582,-0.39958322048187258,-6.700401306152344],"max":[4.3556342124938969,1.432973027229309,0.05490054935216904],"type":"VEC3","name":"x6_fuselage_vertices#0_POSITION"},{"bufferView":0,"byteOffset":12,"componentType":5120,"count":132,"type":"VEC4","name":"x6_fuselage_vertices#0_TANGENT"},{"bufferView":0,"byteOffset":16,"componentType":5120,"count":132,"type":"VEC4","name":"x6_fuselage_vertices#0_NORMAL"},{"bufferView":0,"byteOffset":20,"componentType":5122,"count":132,"type":"VEC2","name":"x6_fuselage_vertices#0_TEXCOORD_0"},{"bufferView":0,"byteOffset":24,"componentType":5122,"count":132,"type":"VEC2","name":"x6_fuselage_vertices#0_TEXCOORD_1"},{"bufferView":0,"byteOffset":28,"componentType":5123,"count":132,"type":"VEC4","name":"x6_fuselage_vertices#0_COLOR_0"},{"bufferView":1,"componentType":5123,"count":180,"type":"SCALAR","name":"x6_fuselage_indices#0"}],"asset":{"generator":"babylon.js glTF exporter for 3dsmax 2019 v1.0.7690.20642","version":"2.0","extensions":{"ASOBO_asset_optimized":{"BoundingBoxMax":[4.3556342124938969,1.432973027229309,0.05490054935216904],"BoundingBoxMin":[-4.268803596496582,-0.39958322048187258,-6.700401306152344],"MajorVersion":4,"MinorVersion":4,"UseCheckerboardMaterialForMissingTextures":true},"ASOBO_normal_map_convention":{"tangent_space_convention":"DirectX"}}},"bufferViews":[{"buffer":0,"byteLength":4752,"byteStride":36,"target":34962,"name":"BufferViewVertexND"},{"buffer":0,"byteLength":360,"byteOffset":4752,"target":34963,"name":"BufferViewIndex"}],"extensionsRequired":["MSFT_texture_dds"],"materials":[{"name":"LOD6","pbrMetallicRoughness":{"metallicFactor":0.0,"baseColorTexture":{"index":0}},"extensions":{"ASOBO_material_draw_order":{"drawOrderOffset":1}}}],"meshes":[{"primitives":[{"attributes":{"COLOR_0":5,"NORMAL":2,"POSITION":0,"TANGENT":1,"TEXCOORD_0":3,"TEXCOORD_1":4},"indices":6,"material":0,"mode":4,"extras":{"ASOBO_primitive":{"PrimitiveCount":60,"VertexType":"VTX","VertexVersion":2}}}],"name":"x6_fuselage"}],"nodes":[{"translation":[-0.04341516,0.153039932,1.73180687],"rotation":[0.0,0.0,0.0,1.0],"scale":[1.0,1.0,1.0],"mesh":0,"name":"fuselage"}],"scene":0,"scenes":[{"nodes":[0]}],"textures":[{"extensions":{"MSFT_texture_dds":{"source":0}}}],"extensionsUsed":["ASOBO_normal_map_convention","ASOBO_material_draw_order","MSFT_texture_dds","ASOBO_asset_optimized"],"buffers":[{"byteLength":5112,"uri":"DR400_LYCOMING_LOD06.bin"}],"images":[{"uri":"DR400_AIRFRAME_LYCOMING_FUSELAGE_LOD6_ALBD.PNG.DDS","extras":"ASOBO_image_converted_meta"}]}
