{"accessors":[{"bufferView":0,"componentType":5126,"count":101,"min":[0.0],"max":[3.33333325],"type":"SCALAR","name":"accessorAnimationInput"},{"bufferView":1,"componentType":5126,"count":101,"type":"VEC3","name":"accessorAnimationPositions"},{"bufferView":0,"byteOffset":404,"componentType":5126,"count":101,"min":[0.0],"max":[3.33333325],"type":"SCALAR","name":"accessorAnimationInput"},{"bufferView":2,"componentType":5126,"count":101,"type":"VEC4","name":"accessorAnimationRotations"},{"bufferView":0,"byteOffset":808,"componentType":5126,"count":101,"min":[0.0],"max":[3.33333325],"type":"SCALAR","name":"accessorAnimationInput"},{"bufferView":1,"byteOffset":1212,"componentType":5126,"count":101,"type":"VEC3","name":"accessorAnimationScales"},{"bufferView":0,"byteOffset":1212,"componentType":5126,"count":101,"min":[0.0],"max":[3.33333325],"type":"SCALAR","name":"accessorAnimationInput"},{"bufferView":1,"byteOffset":2424,"componentType":5126,"count":101,"type":"VEC3","name":"accessorAnimationPositions"},{"bufferView":0,"byteOffset":1616,"componentType":5126,"count":101,"min":[0.0],"max":[3.33333325],"type":"SCALAR","name":"accessorAnimationInput"},{"bufferView":2,"byteOffset":1616,"componentType":5126,"count":101,"type":"VEC4","name":"accessorAnimationRotations"},{"bufferView":0,"byteOffset":2020,"componentType":5126,"count":101,"min":[0.0],"max":[3.33333325],"type":"SCALAR","name":"accessorAnimationInput"},{"bufferView":1,"byteOffset":3636,"componentType":5126,"count":101,"type":"VEC3","name":"accessorAnimationScales"},{"bufferView":0,"byteOffset":2424,"componentType":5126,"count":101,"min":[0.0],"max":[3.33333325],"type":"SCALAR","name":"accessorAnimationInput"},{"bufferView":1,"byteOffset":4848,"componentType":5126,"count":101,"type":"VEC3","name":"accessorAnimationPositions"},{"bufferView":0,"byteOffset":2828,"componentType":5126,"count":101,"min":[0.0],"max":[3.33333325],"type":"SCALAR","name":"accessorAnimationInput"},{"bufferView":2,"byteOffset":3232,"componentType":5126,"count":101,"type":"VEC4","name":"accessorAnimationRotations"},{"bufferView":0,"byteOffset":3232,"componentType":5126,"count":101,"min":[0.0],"max":[3.33333325],"type":"SCALAR","name":"accessorAnimationInput"},{"bufferView":1,"byteOffset":6060,"componentType":5126,"count":101,"type":"VEC3","name":"accessorAnimationScales"},{"bufferView":0,"byteOffset":3636,"componentType":5126,"count":101,"min":[0.0],"max":[3.33333325],"type":"SCALAR","name":"accessorAnimationInput"},{"bufferView":1,"byteOffset":7272,"componentType":5126,"count":101,"type":"VEC3","name":"accessorAnimationPositions"},{"bufferView":0,"byteOffset":4040,"componentType":5126,"count":101,"min":[0.0],"max":[3.33333325],"type":"SCALAR","name":"accessorAnimationInput"},{"bufferView":2,"byteOffset":4848,"componentType":5126,"count":101,"type":"VEC4","name":"accessorAnimationRotations"},{"bufferView":0,"byteOffset":4444,"componentType":5126,"count":101,"min":[0.0],"max":[3.33333325],"type":"SCALAR","name":"accessorAnimationInput"},{"bufferView":1,"byteOffset":8484,"componentType":5126,"count":101,"type":"VEC3","name":"accessorAnimationScales"},{"bufferView":3,"componentType":5126,"count":12,"min":[-0.4779038429260254,-0.001207469031214714,-0.030772101134061815],"max":[0.14147834479808808,0.0003673932224046439,0.015225954353809357],"type":"VEC3","name":"x4_LIGHT_GlareshieldPilot_vertices#0_POSITION"},{"bufferView":3,"byteOffset":12,"componentType":5120,"count":12,"type":"VEC4","name":"x4_LIGHT_GlareshieldPilot_vertices#0_TANGENT"},{"bufferView":3,"byteOffset":16,"componentType":5120,"count":12,"type":"VEC4","name":"x4_LIGHT_GlareshieldPilot_vertices#0_NORMAL"},{"bufferView":3,"byteOffset":20,"componentType":5122,"count":12,"type":"VEC2","name":"x4_LIGHT_GlareshieldPilot_vertices#0_TEXCOORD_0"},{"bufferView":3,"byteOffset":24,"componentType":5122,"count":12,"type":"VEC2","name":"x4_LIGHT_GlareshieldPilot_vertices#0_TEXCOORD_1"},{"bufferView":3,"byteOffset":28,"componentType":5123,"count":12,"type":"VEC4","name":"x4_LIGHT_GlareshieldPilot_vertices#0_COLOR_0"},{"bufferView":4,"componentType":5123,"count":30,"type":"SCALAR","name":"x4_LIGHT_GlareshieldPilot_indices#0"},{"bufferView":3,"byteOffset":432,"componentType":5126,"count":3,"min":[0.006321375723928213,-0.006321374326944351,-0.006308867130428553],"max":[0.006321375723928213,0.006321377120912075,0.006308867130428553],"type":"VEC3","name":"x4_BONE_BANK_R_vertices#0_POSITION"},{"bufferView":3,"byteOffset":444,"componentType":5120,"count":3,"type":"VEC4","name":"x4_BONE_BANK_R_vertices#0_TANGENT"},{"bufferView":3,"byteOffset":448,"componentType":5120,"count":3,"type":"VEC4","name":"x4_BONE_BANK_R_vertices#0_NORMAL"},{"bufferView":3,"byteOffset":452,"componentType":5122,"count":3,"type":"VEC2","name":"x4_BONE_BANK_R_vertices#0_TEXCOORD_0"},{"bufferView":3,"byteOffset":456,"componentType":5122,"count":3,"type":"VEC2","name":"x4_BONE_BANK_R_vertices#0_TEXCOORD_1"},{"bufferView":3,"byteOffset":460,"componentType":5123,"count":3,"type":"VEC4","name":"x4_BONE_BANK_R_vertices#0_COLOR_0"},{"bufferView":4,"byteOffset":60,"componentType":5123,"count":3,"type":"SCALAR","name":"x4_BONE_BANK_R_indices#0"},{"bufferView":3,"byteOffset":540,"componentType":5126,"count":64,"min":[-0.16889193654060365,-0.034349896013736728,-0.0503891259431839],"max":[0.05605774372816086,0.44112467765808108,0.17010971903800965],"type":"VEC3","name":"x4_Yoke_R_vertices#0_POSITION"},{"bufferView":3,"byteOffset":552,"componentType":5120,"count":64,"type":"VEC4","name":"x4_Yoke_R_vertices#0_TANGENT"},{"bufferView":3,"byteOffset":556,"componentType":5120,"count":64,"type":"VEC4","name":"x4_Yoke_R_vertices#0_NORMAL"},{"bufferView":3,"byteOffset":560,"componentType":5122,"count":64,"type":"VEC2","name":"x4_Yoke_R_vertices#0_TEXCOORD_0"},{"bufferView":3,"byteOffset":564,"componentType":5122,"count":64,"type":"VEC2","name":"x4_Yoke_R_vertices#0_TEXCOORD_1"},{"bufferView":3,"byteOffset":568,"componentType":5123,"count":64,"type":"VEC4","name":"x4_Yoke_R_vertices#0_COLOR_0"},{"bufferView":4,"byteOffset":66,"componentType":5123,"count":144,"type":"SCALAR","name":"x4_Yoke_R_indices#0"},{"bufferView":3,"byteOffset":2844,"componentType":5126,"count":3,"min":[-0.006321375723928213,-0.006321374326944351,-0.006308867130428553],"max":[-0.006321375723928213,0.006321377120912075,0.006308867130428553],"type":"VEC3","name":"x4_BONE_BANK_L_vertices#0_POSITION"},{"bufferView":3,"byteOffset":2856,"componentType":5120,"count":3,"type":"VEC4","name":"x4_BONE_BANK_L_vertices#0_TANGENT"},{"bufferView":3,"byteOffset":2860,"componentType":5120,"count":3,"type":"VEC4","name":"x4_BONE_BANK_L_vertices#0_NORMAL"},{"bufferView":3,"byteOffset":2864,"componentType":5122,"count":3,"type":"VEC2","name":"x4_BONE_BANK_L_vertices#0_TEXCOORD_0"},{"bufferView":3,"byteOffset":2868,"componentType":5122,"count":3,"type":"VEC2","name":"x4_BONE_BANK_L_vertices#0_TEXCOORD_1"},{"bufferView":3,"byteOffset":2872,"componentType":5123,"count":3,"type":"VEC4","name":"x4_BONE_BANK_L_vertices#0_COLOR_0"},{"bufferView":4,"byteOffset":354,"componentType":5123,"count":3,"type":"SCALAR","name":"x4_BONE_BANK_L_indices#0"},{"bufferView":3,"byteOffset":2952,"componentType":5126,"count":66,"min":[-0.05589992552995682,-0.06005168333649635,-0.044167980551719668],"max":[0.16894091665744782,0.44133901596069338,0.17177288234233857],"type":"VEC3","name":"x4_Yoke_L_vertices#0_POSITION"},{"bufferView":3,"byteOffset":2964,"componentType":5120,"count":66,"type":"VEC4","name":"x4_Yoke_L_vertices#0_TANGENT"},{"bufferView":3,"byteOffset":2968,"componentType":5120,"count":66,"type":"VEC4","name":"x4_Yoke_L_vertices#0_NORMAL"},{"bufferView":3,"byteOffset":2972,"componentType":5122,"count":66,"type":"VEC2","name":"x4_Yoke_L_vertices#0_TEXCOORD_0"},{"bufferView":3,"byteOffset":2976,"componentType":5122,"count":66,"type":"VEC2","name":"x4_Yoke_L_vertices#0_TEXCOORD_1"},{"bufferView":3,"byteOffset":2980,"componentType":5123,"count":66,"type":"VEC4","name":"x4_Yoke_L_vertices#0_COLOR_0"},{"bufferView":4,"byteOffset":360,"componentType":5123,"count":144,"type":"SCALAR","name":"x4_Yoke_L_indices#0"},{"bufferView":3,"byteOffset":5328,"componentType":5126,"count":42,"min":[-0.03851708769798279,-0.03880003094673157,-0.013804662972688675],"max":[0.03851713240146637,0.03767254948616028,-0.004387106746435165],"type":"VEC3","name":"x4_INSTRUMENT_AttitudeIndicator_Highlight_1_vertices#0_POSITION"},{"bufferView":3,"byteOffset":5340,"componentType":5120,"count":42,"type":"VEC4","name":"x4_INSTRUMENT_AttitudeIndicator_Highlight_1_vertices#0_TANGENT"},{"bufferView":3,"byteOffset":5344,"componentType":5120,"count":42,"type":"VEC4","name":"x4_INSTRUMENT_AttitudeIndicator_Highlight_1_vertices#0_NORMAL"},{"bufferView":3,"byteOffset":5348,"componentType":5122,"count":42,"type":"VEC2","name":"x4_INSTRUMENT_AttitudeIndicator_Highlight_1_vertices#0_TEXCOORD_0"},{"bufferView":3,"byteOffset":5352,"componentType":5122,"count":42,"type":"VEC2","name":"x4_INSTRUMENT_AttitudeIndicator_Highlight_1_vertices#0_TEXCOORD_1"},{"bufferView":3,"byteOffset":5356,"componentType":5123,"count":42,"type":"VEC4","name":"x4_INSTRUMENT_AttitudeIndicator_Highlight_1_vertices#0_COLOR_0"},{"bufferView":4,"byteOffset":648,"componentType":5123,"count":156,"type":"SCALAR","name":"x4_INSTRUMENT_AttitudeIndicator_Highlight_1_indices#0"},{"bufferView":3,"byteOffset":6840,"componentType":5126,"count":12,"min":[-0.03262791037559509,-0.032687727361917499,-0.01088462769985199],"max":[0.03265862166881561,0.03265393152832985,-0.006300319917500019],"type":"VEC3","name":"x4_INSTRUMENT_AttitudeIndicator_Bank_1_vertices#0_POSITION"},{"bufferView":3,"byteOffset":6852,"componentType":5120,"count":12,"type":"VEC4","name":"x4_INSTRUMENT_AttitudeIndicator_Bank_1_vertices#0_TANGENT"},{"bufferView":3,"byteOffset":6856,"componentType":5120,"count":12,"type":"VEC4","name":"x4_INSTRUMENT_AttitudeIndicator_Bank_1_vertices#0_NORMAL"},{"bufferView":3,"byteOffset":6860,"componentType":5122,"count":12,"type":"VEC2","name":"x4_INSTRUMENT_AttitudeIndicator_Bank_1_vertices#0_TEXCOORD_0"},{"bufferView":3,"byteOffset":6864,"componentType":5122,"count":12,"type":"VEC2","name":"x4_INSTRUMENT_AttitudeIndicator_Bank_1_vertices#0_TEXCOORD_1"},{"bufferView":3,"byteOffset":6868,"componentType":5123,"count":12,"type":"VEC4","name":"x4_INSTRUMENT_AttitudeIndicator_Bank_1_vertices#0_COLOR_0"},{"bufferView":4,"byteOffset":960,"componentType":5123,"count":24,"type":"SCALAR","name":"x4_INSTRUMENT_AttitudeIndicator_Bank_1_indices#0"},{"bufferView":3,"byteOffset":7272,"componentType":5126,"count":8,"min":[-0.06708598136901856,-0.005052924156188965,-0.004613369703292847],"max":[0.06708598136901856,0.0040555596351623539,0.005230754613876343],"type":"VEC3","name":"x4_LIGHT_Cockpit_vertices#0_POSITION"},{"bufferView":3,"byteOffset":7284,"componentType":5120,"count":8,"type":"VEC4","name":"x4_LIGHT_Cockpit_vertices#0_TANGENT"},{"bufferView":3,"byteOffset":7288,"componentType":5120,"count":8,"type":"VEC4","name":"x4_LIGHT_Cockpit_vertices#0_NORMAL"},{"bufferView":3,"byteOffset":7292,"componentType":5122,"count":8,"type":"VEC2","name":"x4_LIGHT_Cockpit_vertices#0_TEXCOORD_0"},{"bufferView":3,"byteOffset":7296,"componentType":5122,"count":8,"type":"VEC2","name":"x4_LIGHT_Cockpit_vertices#0_TEXCOORD_1"},{"bufferView":3,"byteOffset":7300,"componentType":5123,"count":8,"type":"VEC4","name":"x4_LIGHT_Cockpit_vertices#0_COLOR_0"},{"bufferView":4,"byteOffset":1008,"componentType":5123,"count":12,"type":"SCALAR","name":"x4_LIGHT_Cockpit_indices#0"},{"bufferView":3,"byteOffset":7560,"componentType":5126,"count":614,"min":[-0.5789945125579834,-0.9466819763183594,-0.3705238997936249],"max":[0.5789945125579834,1.2066633701324463,0.7944533824920654],"type":"VEC3","name":"Occluder_vertices#0_POSITION"},{"bufferView":3,"byteOffset":7572,"componentType":5120,"count":614,"type":"VEC4","name":"Occluder_vertices#0_TANGENT"},{"bufferView":3,"byteOffset":7576,"componentType":5120,"count":614,"type":"VEC4","name":"Occluder_vertices#0_NORMAL"},{"bufferView":3,"byteOffset":7580,"componentType":5122,"count":614,"type":"VEC2","name":"Occluder_vertices#0_TEXCOORD_0"},{"bufferView":3,"byteOffset":7584,"componentType":5122,"count":614,"type":"VEC2","name":"Occluder_vertices#0_TEXCOORD_1"},{"bufferView":3,"byteOffset":7588,"componentType":5123,"count":614,"type":"VEC4","name":"Occluder_vertices#0_COLOR_0"},{"bufferView":4,"byteOffset":1032,"componentType":5123,"count":720,"type":"SCALAR","name":"Occluder_indices#0"},{"bufferView":3,"byteOffset":29664,"componentType":5126,"count":5164,"min":[-0.5717959403991699,-0.5830575227737427,-1.6455360651016236],"max":[0.5503586530685425,0.5392582416534424,0.42894768714904787],"type":"VEC3","name":"X4_cockpit_vertices#0_POSITION"},{"bufferView":3,"byteOffset":29676,"componentType":5120,"count":5164,"type":"VEC4","name":"X4_cockpit_vertices#0_TANGENT"},{"bufferView":3,"byteOffset":29680,"componentType":5120,"count":5164,"type":"VEC4","name":"X4_cockpit_vertices#0_NORMAL"},{"bufferView":3,"byteOffset":29684,"componentType":5122,"count":5164,"type":"VEC2","name":"X4_cockpit_vertices#0_TEXCOORD_0"},{"bufferView":3,"byteOffset":29688,"componentType":5122,"count":5164,"type":"VEC2","name":"X4_cockpit_vertices#0_TEXCOORD_1"},{"bufferView":3,"byteOffset":29692,"componentType":5123,"count":5164,"type":"VEC4","name":"X4_cockpit_vertices#0_COLOR_0"},{"bufferView":4,"byteOffset":2472,"componentType":5123,"count":13278,"type":"SCALAR","name":"X4_cockpit_indices#0"}],"animations":[{"name":"lever_stick_l_r","channels":[{"sampler":0,"target":{"node":3,"path":"translation"}},{"sampler":1,"target":{"node":3,"path":"rotation"}},{"sampler":2,"target":{"node":3,"path":"scale"}},{"sampler":3,"target":{"node":1,"path":"translation"}},{"sampler":4,"target":{"node":1,"path":"rotation"}},{"sampler":5,"target":{"node":1,"path":"scale"}}],"samplers":[{"input":0,"output":1,"interpolation":"LINEAR"},{"input":2,"output":3,"interpolation":"LINEAR"},{"input":4,"output":5,"interpolation":"LINEAR"},{"input":6,"output":7,"interpolation":"LINEAR"},{"input":8,"output":9,"interpolation":"LINEAR"},{"input":10,"output":11,"interpolation":"LINEAR"}]},{"name":"lever_stick_fore_aft","channels":[{"sampler":0,"target":{"node":4,"path":"translation"}},{"sampler":1,"target":{"node":4,"path":"rotation"}},{"sampler":2,"target":{"node":4,"path":"scale"}},{"sampler":3,"target":{"node":2,"path":"translation"}},{"sampler":4,"target":{"node":2,"path":"rotation"}},{"sampler":5,"target":{"node":2,"path":"scale"}}],"samplers":[{"input":12,"output":13,"interpolation":"LINEAR"},{"input":14,"output":15,"interpolation":"LINEAR"},{"input":16,"output":17,"interpolation":"LINEAR"},{"input":18,"output":19,"interpolation":"LINEAR"},{"input":20,"output":21,"interpolation":"LINEAR"},{"input":22,"output":23,"interpolation":"LINEAR"}]}],"asset":{"generator":"babylon.js glTF exporter for 3dsmax 2019 v1.0.7954.30439","version":"2.0","extensions":{"ASOBO_asset_optimized":{"BoundingBoxMax":[0.5789945125579834,1.2066633701324463,0.7944533824920654],"BoundingBoxMin":[-0.5789945125579834,-0.9466819763183594,-1.6455360651016236],"MajorVersion":4,"MinorVersion":4,"UseCheckerboardMaterialForMissingTextures":true},"ASOBO_normal_map_convention":{"tangent_space_convention":"DirectX"}}},"bufferViews":[{"buffer":0,"byteLength":4848,"name":"bufferViewAnimationFloatScalar"},{"buffer":0,"byteLength":9696,"byteOffset":4848,"name":"bufferViewAnimationFloatVec3"},{"buffer":0,"byteLength":6464,"byteOffset":14544,"name":"bufferViewAnimationFloatVec4"},{"buffer":0,"byteLength":215568,"byteStride":36,"byteOffset":21008,"target":34962,"name":"BufferViewVertexND"},{"buffer":0,"byteLength":29028,"byteOffset":236576,"target":34963,"name":"BufferViewIndex"}],"extensionsRequired":["MSFT_texture_dds"],"materials":[{"name":"Generic_LOD5","occlusionTexture":{"index":1},"pbrMetallicRoughness":{"baseColorTexture":{"index":0},"metallicRoughnessTexture":{"index":1}}},{"name":"Main","normalTexture":{"index":4},"occlusionTexture":{"index":3},"pbrMetallicRoughness":{"metallicFactor":0.0,"baseColorTexture":{"index":2},"metallicRoughnessTexture":{"index":3}}},{"name":"Occluder","pbrMetallicRoughness":{"baseColorFactor":[0.0,0.553956866,0.0,0.3]},"extensions":{"ASOBO_material_environment_occluder":{}}}],"meshes":[{"primitives":[{"attributes":{"COLOR_0":29,"NORMAL":26,"POSITION":24,"TANGENT":25,"TEXCOORD_0":27,"TEXCOORD_1":28},"indices":30,"material":0,"mode":4,"extras":{"ASOBO_primitive":{"PrimitiveCount":10,"VertexType":"VTX","VertexVersion":2}}}],"name":"x4_LIGHT_GlareshieldPilot"},{"primitives":[{"attributes":{"COLOR_0":36,"NORMAL":33,"POSITION":31,"TANGENT":32,"TEXCOORD_0":34,"TEXCOORD_1":35},"indices":37,"material":0,"mode":4,"extras":{"ASOBO_primitive":{"PrimitiveCount":1,"VertexType":"VTX","VertexVersion":2}}}],"name":"x4_BONE_BANK_R"},{"primitives":[{"attributes":{"COLOR_0":43,"NORMAL":40,"POSITION":38,"TANGENT":39,"TEXCOORD_0":41,"TEXCOORD_1":42},"indices":44,"material":0,"mode":4,"extras":{"ASOBO_primitive":{"PrimitiveCount":48,"VertexType":"VTX","VertexVersion":2}}}],"name":"x4_Yoke_R"},{"primitives":[{"attributes":{"COLOR_0":50,"NORMAL":47,"POSITION":45,"TANGENT":46,"TEXCOORD_0":48,"TEXCOORD_1":49},"indices":51,"material":0,"mode":4,"extras":{"ASOBO_primitive":{"PrimitiveCount":1,"VertexType":"VTX","VertexVersion":2}}}],"name":"x4_BONE_BANK_L"},{"primitives":[{"attributes":{"COLOR_0":57,"NORMAL":54,"POSITION":52,"TANGENT":53,"TEXCOORD_0":55,"TEXCOORD_1":56},"indices":58,"material":0,"mode":4,"extras":{"ASOBO_primitive":{"PrimitiveCount":48,"VertexType":"VTX","VertexVersion":2}}}],"name":"x4_Yoke_L"},{"primitives":[{"attributes":{"COLOR_0":64,"NORMAL":61,"POSITION":59,"TANGENT":60,"TEXCOORD_0":62,"TEXCOORD_1":63},"indices":65,"material":1,"mode":4,"extras":{"ASOBO_primitive":{"PrimitiveCount":52,"VertexType":"VTX","VertexVersion":2}}}],"name":"x4_INSTRUMENT_AttitudeIndicator_Highlight_1"},{"primitives":[{"attributes":{"COLOR_0":71,"NORMAL":68,"POSITION":66,"TANGENT":67,"TEXCOORD_0":69,"TEXCOORD_1":70},"indices":72,"material":1,"mode":4,"extras":{"ASOBO_primitive":{"PrimitiveCount":8,"VertexType":"VTX","VertexVersion":2}}}],"name":"x4_INSTRUMENT_AttitudeIndicator_Bank_1"},{"primitives":[{"attributes":{"COLOR_0":78,"NORMAL":75,"POSITION":73,"TANGENT":74,"TEXCOORD_0":76,"TEXCOORD_1":77},"indices":79,"material":0,"mode":4,"extras":{"ASOBO_primitive":{"PrimitiveCount":4,"VertexType":"VTX","VertexVersion":2}}}],"name":"x4_LIGHT_Cockpit"},{"primitives":[{"attributes":{"COLOR_0":85,"NORMAL":82,"POSITION":80,"TANGENT":81,"TEXCOORD_0":83,"TEXCOORD_1":84},"indices":86,"material":2,"mode":4,"extras":{"ASOBO_primitive":{"PrimitiveCount":240,"VertexType":"VTX","VertexVersion":2}}}],"name":"Occluder"},{"primitives":[{"attributes":{"COLOR_0":92,"NORMAL":89,"POSITION":87,"TANGENT":88,"TEXCOORD_0":90,"TEXCOORD_1":91},"indices":93,"material":0,"mode":4,"extras":{"ASOBO_primitive":{"PrimitiveCount":4426,"VertexType":"VTX","VertexVersion":2}}}],"name":"X4_cockpit"}],"nodes":[{"translation":[0.169190824,0.602012038,0.4709066],"mesh":0,"name":"LIGHT_GlareshieldPilot"},{"translation":[-0.0970258862,-0.05782692,0.257519722],"rotation":[0.0,0.0,-1.49011612e-8,1.0],"mesh":1,"name":"BONE_BANK_R","children":[2]},{"translation":[0.0,0.0,-2.38418579e-7],"rotation":[-7.91623656e-9,6.053595e-9,7.10542736e-15,1.0],"scale":[0.9999999,1.0,1.00000072],"mesh":2,"name":"Yoke_R"},{"translation":[0.09748803,-0.05782692,0.257519484],"rotation":[0.0,0.0,-1.49011612e-8,1.0],"mesh":3,"name":"BONE_BANK_L","children":[4]},{"rotation":[-3.72529652e-9,1.02445448e-8,7.45052375e-9,1.0],"scale":[1.00000036,0.9999999,1.00000036],"mesh":4,"name":"Yoke_L"},{"translation":[0.179988116,0.5151699,0.499946266],"rotation":[-0.0163955763,0.0,0.0,0.9998656],"scale":[1.0774,1.0774,1.0774],"name":"CONTAINER_AttitudeIndicator_KnobRotate_1_1","children":[6,7]},{"translation":[0.00007851422,0.0266489089,0.0079],"rotation":[-1.95187577e-9,0.0,0.0,1.0],"scale":[0.954284668,0.954284668,0.954284668],"mesh":5,"name":"INSTRUMENT_AttitudeIndicator_Highlight_1"},{"translation":[0.000150516629,0.0261734724,0.00789997],"rotation":[0.0,1.86264515e-9,1.0,-2.82129974e-7],"mesh":6,"name":"INSTRUMENT_AttitudeIndicator_Bank_1"},{"translation":[0.00008201599,0.9223243,-0.447890252],"mesh":7,"name":"LIGHT_Cockpit"},{"translation":[0.000299878418,0.6374583,-0.215263009],"rotation":[0.7071068,0.0,0.0,0.7071067],"mesh":8,"name":"Occluder"},{"translation":[0.0110680312,0.454701036,0.498042822],"mesh":9,"name":"cockpit"},{"translation":[0.256901145,0.0302290022,0.03958893],"name":"PILOT_0"},{"translation":[-0.257470727,0.0302290022,0.03958893],"name":"PILOT_1"}],"scene":0,"scenes":[{"nodes":[0,1,3,5,8,9,10,11,12]}],"textures":[{"extensions":{"MSFT_texture_dds":{"source":0}}},{"extensions":{"MSFT_texture_dds":{"source":1}}},{"extensions":{"MSFT_texture_dds":{"source":2}}},{"extensions":{"MSFT_texture_dds":{"source":3}}},{"extensions":{"MSFT_texture_dds":{"source":4}}}],"extensionsUsed":["ASOBO_normal_map_convention","ASOBO_material_environment_occluder","MSFT_texture_dds","ASOBO_asset_optimized"],"buffers":[{"byteLength":265604,"uri":"DR400_cockpit_LYCOMING_LOD04.bin"}],"images":[{"uri":"ATLAS_ALBD.PNG.DDS","extras":"ASOBO_image_converted_meta"},{"uri":"ATLAS_COMP.PNG.DDS","extras":"ASOBO_image_converted_meta"},{"uri":"ATTITUDEINDICATOR_C172_ALBD.PNG.DDS","extras":"ASOBO_image_converted_meta"},{"uri":"ATTITUDEINDICATOR_C172_COMP.PNG.DDS","extras":"ASOBO_image_converted_meta"},{"uri":"ATTITUDEINDICATOR_C172_NORM.PNG.DDS","extras":"ASOBO_image_converted_meta"}]}
