{"accessors":[{"bufferView":0,"componentType":5126,"count":3,"min":[-0.3520403206348419,-0.15738791227340699,-5.0031867027282719],"max":[0.2041909098625183,-0.12098941206932068,1.6858978271484376],"type":"VEC3","name":"x6_cockpit_vertices#0_POSITION"},{"bufferView":0,"byteOffset":12,"componentType":5120,"count":3,"type":"VEC4","name":"x6_cockpit_vertices#0_TANGENT"},{"bufferView":0,"byteOffset":16,"componentType":5120,"count":3,"type":"VEC4","name":"x6_cockpit_vertices#0_NORMAL"},{"bufferView":0,"byteOffset":20,"componentType":5122,"count":3,"type":"VEC2","name":"x6_cockpit_vertices#0_TEXCOORD_0"},{"bufferView":0,"byteOffset":24,"componentType":5122,"count":3,"type":"VEC2","name":"x6_cockpit_vertices#0_TEXCOORD_1"},{"bufferView":0,"byteOffset":28,"componentType":5123,"count":3,"type":"VEC4","name":"x6_cockpit_vertices#0_COLOR_0"},{"bufferView":1,"componentType":5123,"count":3,"type":"SCALAR","name":"x6_cockpit_indices#0"},{"bufferView":0,"byteOffset":108,"componentType":5126,"count":614,"min":[-0.5789945125579834,-0.9466819763183594,-0.3705238997936249],"max":[0.5789945125579834,1.2066633701324463,0.7944533824920654],"type":"VEC3","name":"Occluder_vertices#0_POSITION"},{"bufferView":0,"byteOffset":120,"componentType":5120,"count":614,"type":"VEC4","name":"Occluder_vertices#0_TANGENT"},{"bufferView":0,"byteOffset":124,"componentType":5120,"count":614,"type":"VEC4","name":"Occluder_vertices#0_NORMAL"},{"bufferView":0,"byteOffset":128,"componentType":5122,"count":614,"type":"VEC2","name":"Occluder_vertices#0_TEXCOORD_0"},{"bufferView":0,"byteOffset":132,"componentType":5122,"count":614,"type":"VEC2","name":"Occluder_vertices#0_TEXCOORD_1"},{"bufferView":0,"byteOffset":136,"componentType":5123,"count":614,"type":"VEC4","name":"Occluder_vertices#0_COLOR_0"},{"bufferView":1,"byteOffset":6,"componentType":5123,"count":720,"type":"SCALAR","name":"Occluder_indices#0"}],"asset":{"generator":"babylon.js glTF exporter for 3dsmax 2019 v1.0.7954.30439","version":"2.0","extensions":{"ASOBO_asset_optimized":{"BoundingBoxMax":[0.5789945125579834,1.2066633701324463,1.6858978271484376],"BoundingBoxMin":[-0.5789945125579834,-0.9466819763183594,-5.0031867027282719],"MajorVersion":4,"MinorVersion":4,"UseCheckerboardMaterialForMissingTextures":true},"ASOBO_normal_map_convention":{"tangent_space_convention":"DirectX"}}},"bufferViews":[{"buffer":0,"byteLength":22212,"byteStride":36,"target":34962,"name":"BufferViewVertexND"},{"buffer":0,"byteLength":1446,"byteOffset":22212,"target":34963,"name":"BufferViewIndex"}],"materials":[{"name":"Collisions","pbrMetallicRoughness":{"baseColorFactor":[1.0,0.0,0.0,0.7]},"extensions":{"ASOBO_material_invisible":{},"ASOBO_tags":{"tags":["Collision"]}}},{"name":"Occluder","pbrMetallicRoughness":{"baseColorFactor":[0.0,0.553956866,0.0,0.3]},"extensions":{"ASOBO_material_environment_occluder":{}}}],"meshes":[{"primitives":[{"attributes":{"COLOR_0":5,"NORMAL":2,"POSITION":0,"TANGENT":1,"TEXCOORD_0":3,"TEXCOORD_1":4},"indices":6,"material":0,"mode":4,"extras":{"ASOBO_primitive":{"PrimitiveCount":1,"VertexType":"VTX","VertexVersion":2}}}],"name":"x6_cockpit"},{"primitives":[{"attributes":{"COLOR_0":12,"NORMAL":9,"POSITION":7,"TANGENT":8,"TEXCOORD_0":10,"TEXCOORD_1":11},"indices":13,"material":1,"mode":4,"extras":{"ASOBO_primitive":{"PrimitiveCount":240,"VertexType":"VTX","VertexVersion":2}}}],"name":"Occluder"}],"nodes":[{"translation":[0.07427533,0.367910832,0.2791142],"mesh":0,"name":"cockpit"},{"translation":[0.000299878418,0.6374583,-0.215263009],"rotation":[0.7071068,0.0,0.0,0.7071067],"mesh":1,"name":"Occluder"}],"scene":0,"scenes":[{"nodes":[0,1]}],"extensionsUsed":["ASOBO_normal_map_convention","ASOBO_tags","ASOBO_material_invisible","ASOBO_material_environment_occluder","ASOBO_asset_optimized"],"buffers":[{"byteLength":23658,"uri":"DR400_cockpit_LYCOMING_LOD06.bin"}]}
